<svg width="975" height="569" viewBox="0 0 975 569" fill="none" xmlns="http://www.w3.org/2000/svg">
<path d="M230.134 364.958C230.029 364.958 229.924 364.929 229.83 364.876L0.30362 232.31C0.012317 232.141 -0.0861552 231.768 0.0820621 231.478C0.252331 231.187 0.619534 231.086 0.912889 231.257L230.134 363.649L521.716 195.238C521.905 195.129 522.136 195.129 522.323 195.238L716.616 307.456L844.791 233.426C845.083 233.258 845.454 233.358 845.622 233.648C845.791 233.939 845.69 234.31 845.401 234.479L716.92 308.686C716.731 308.794 716.499 308.794 716.31 308.686L522.019 196.467L230.437 364.878C230.345 364.931 230.238 364.958 230.134 364.958Z" fill="#42E8E0"/>
<path d="M974.393 451.168C974.288 451.168 974.184 451.141 974.089 451.086L806.547 354.321L702.695 414.304C702.507 414.412 702.275 414.412 702.086 414.304L294.69 178.998C294.504 178.889 294.387 178.688 294.387 178.47C294.387 178.253 294.504 178.052 294.69 177.943L503.003 57.6263C503.296 57.4621 503.665 57.5606 503.834 57.8479C504.002 58.1393 503.901 58.5108 503.612 58.6791L296.21 178.468L702.39 413.068L806.241 353.085C806.43 352.976 806.662 352.976 806.851 353.085L974.697 450.027C974.988 450.195 975.086 450.569 974.918 450.858C974.807 451.057 974.604 451.168 974.393 451.168Z" fill="#42E8E0"/>
<path d="M596.969 532.173C596.864 532.173 596.759 532.146 596.665 532.091L472.311 460.266C472.125 460.158 472.008 459.957 472.008 459.739C472.008 459.524 472.125 459.32 472.311 459.212L626.987 369.876C627.279 369.705 627.65 369.808 627.818 370.097C627.986 370.389 627.886 370.76 627.597 370.928L473.832 459.739L597.272 531.036C597.564 531.204 597.662 531.578 597.494 531.867C597.383 532.062 597.178 532.173 596.969 532.173Z" fill="#42E8E0"/>
<path d="M778.863 568.064C778.758 568.064 778.653 568.037 778.559 567.982L106.64 179.897C106.348 179.729 106.25 179.355 106.418 179.066C106.586 178.777 106.958 178.674 107.249 178.844L779.166 566.929C779.458 567.097 779.556 567.471 779.388 567.76C779.277 567.953 779.072 568.064 778.863 568.064Z" fill="#42E8E0"/>
<path d="M372.798 402.692C372.693 402.692 372.587 402.663 372.494 402.61L196.151 300.759C195.965 300.65 195.848 300.449 195.848 300.232C195.848 300.014 195.965 299.813 196.151 299.704L350.827 210.366C351.12 210.202 351.49 210.3 351.658 210.588C351.824 210.879 351.726 211.251 351.436 211.419L197.671 300.23L372.8 401.376L792.863 158.758C793.154 158.588 793.528 158.691 793.694 158.98C793.862 159.271 793.762 159.643 793.472 159.811L373.102 402.61C373.007 402.663 372.903 402.692 372.798 402.692Z" fill="#42E8E0"/>
<path opacity="0.3" d="M256.877 182.038L203.57 151.249L256.875 120.461L310.181 151.251L256.877 182.038Z" fill="#42E8E0"/>
<path opacity="0.5" d="M256.877 146.572L203.57 115.784L256.875 84.9961L310.181 115.784L256.877 146.572Z" fill="#42E8E0"/>
<path opacity="0.7" d="M256.877 118.144L203.57 87.3541L256.875 56.5664L310.181 87.3561L256.877 118.144Z" fill="#42E8E0"/>
<path d="M256.875 119.656C256.612 119.656 256.354 119.588 256.118 119.453L202.812 88.6629C202.344 88.392 202.055 87.8933 202.055 87.3515C202.055 86.8097 202.344 86.311 202.812 86.0401L256.116 55.2524C256.586 54.9836 257.16 54.9836 257.628 55.2524L310.934 86.0422C311.402 86.313 311.691 86.8118 311.691 87.3535C311.691 87.8953 311.402 88.394 310.934 88.6649L257.63 119.453C257.396 119.588 257.136 119.656 256.875 119.656ZM206.594 87.3535L256.875 116.395L307.154 87.3556L256.873 58.3143L206.594 87.3535Z" fill="#42E8E0"/>
<path opacity="0.7" d="M680.904 527.087L627.598 496.299L680.902 465.512L734.208 496.299L680.904 527.087Z" fill="#42E8E0"/>
<path d="M680.902 528.601C680.642 528.601 680.379 528.533 680.145 528.398L626.841 497.608C626.373 497.337 626.086 496.839 626.086 496.297C626.086 495.755 626.375 495.256 626.841 494.985L680.143 464.198C680.613 463.929 681.189 463.929 681.657 464.198L734.964 494.988C735.431 495.258 735.719 495.757 735.719 496.299C735.719 496.841 735.429 497.339 734.964 497.61L681.659 528.398C681.423 528.531 681.163 528.601 680.902 528.601ZM630.622 496.297L680.902 525.338L731.183 496.299L680.9 467.258L630.622 496.297Z" fill="#42E8E0"/>
<path opacity="0.7" d="M798.758 497.814L770.789 481.661L798.758 465.508L826.725 481.661L798.758 497.814Z" fill="#42E8E0"/>
<path opacity="0.5" d="M798.758 481.664L770.789 465.511L798.758 449.355L826.725 465.511L798.758 481.664Z" fill="#42E8E0"/>
<path opacity="0.3" d="M798.758 465.512L770.789 449.356L798.758 433.203L826.725 449.358L798.758 465.512Z" fill="#42E8E0"/>
<path d="M798.758 499.33C798.498 499.33 798.235 499.262 798.002 499.127L770.032 482.974C769.565 482.703 769.277 482.204 769.277 481.662C769.277 481.121 769.567 480.622 770.032 480.351L798.002 464.198C798.471 463.929 799.048 463.929 799.515 464.198L827.483 480.353C827.95 480.624 828.238 481.123 828.238 481.664C828.238 482.206 827.948 482.705 827.483 482.976L799.515 499.127C799.282 499.262 799.019 499.33 798.758 499.33ZM773.815 481.662L798.758 496.069L823.7 481.666L798.758 467.258L773.815 481.662Z" fill="#42E8E0"/>
<path opacity="0.7" d="M186.678 399.211L158.711 383.056L186.678 366.902L214.645 383.058L186.678 399.211Z" fill="#42E8E0"/>
<path d="M186.676 400.725C186.416 400.725 186.155 400.657 185.919 400.521L157.952 384.368C157.485 384.097 157.195 383.599 157.195 383.057C157.195 382.515 157.485 382.016 157.952 381.745L185.919 365.592C186.389 365.323 186.964 365.323 187.431 365.592L215.401 381.745C215.868 382.016 216.158 382.515 216.158 383.057C216.158 383.599 215.868 384.097 215.401 384.368L187.433 400.521C187.2 400.657 186.939 400.725 186.676 400.725ZM161.733 383.059L186.676 397.466L211.62 383.059L186.676 368.652L161.733 383.059Z" fill="#42E8E0"/>
<path opacity="0.1" d="M425.23 40.5114C425.23 13.9225 443.89 3.14621 466.907 16.4406C489.924 29.735 508.584 62.066 508.584 88.6548C508.584 115.244 489.924 126.02 466.907 112.726C443.89 99.4312 425.23 67.1002 425.23 40.5114Z" fill="url(#paint0_linear_5327_3749)"/>
<path opacity="0.3" d="M406.879 51.0348C406.879 24.446 425.539 13.6697 448.556 26.9641C471.573 40.2585 490.233 72.5895 490.233 99.1783C490.233 125.767 471.573 136.543 448.556 123.249C425.539 109.955 406.879 77.6236 406.879 51.0348Z" fill="url(#paint1_linear_5327_3749)"/>
<path opacity="0.48" d="M388.527 61.5504C388.527 34.9616 407.187 24.1853 430.204 37.4797C453.221 50.7741 471.881 83.1051 471.881 109.694C471.881 136.283 453.221 147.059 430.204 133.765C407.187 120.47 388.527 88.1392 388.527 61.5504Z" fill="url(#paint2_linear_5327_3749)"/>
<path d="M388.405 218.097C384.844 216.041 384.844 212.706 388.405 210.648C391.967 208.591 397.741 208.591 401.303 210.648C404.864 212.704 404.864 216.039 401.303 218.097C397.741 220.156 391.967 220.156 388.405 218.097Z" fill="url(#paint3_linear_5327_3749)"/>
<path d="M388.407 217.653C391.968 219.71 397.743 219.71 401.304 217.653C402.986 216.683 403.864 215.425 403.957 214.152C404.061 215.575 403.183 217.015 401.304 218.101C397.743 220.157 391.968 220.157 388.407 218.101C386.528 217.015 385.65 215.575 385.754 214.152C385.847 215.425 386.725 216.681 388.407 217.653Z" fill="white"/>
<path d="M388.405 235.812C384.844 233.756 384.844 230.421 388.405 228.363C391.967 226.306 397.741 226.306 401.303 228.363C404.864 230.419 404.864 233.754 401.303 235.812C397.741 237.869 391.967 237.869 388.405 235.812Z" fill="url(#paint4_linear_5327_3749)"/>
<path d="M388.405 253.843C384.844 251.787 384.844 248.452 388.405 246.394C391.967 244.337 397.741 244.337 401.303 246.394C404.864 248.45 404.864 251.785 401.303 253.843C397.741 255.9 391.967 255.9 388.405 253.843Z" fill="url(#paint5_linear_5327_3749)"/>
<path d="M403.974 214.371V205.157C403.974 206.505 403.083 207.851 401.303 208.88C397.741 210.936 391.967 210.936 388.405 208.88C386.678 207.882 385.798 206.585 385.745 205.278V166.281H403.974V281.137C403.974 286.173 399.893 290.255 394.859 290.255C389.825 290.255 385.745 286.173 385.745 281.137V249.998C385.689 251.386 386.571 252.785 388.405 253.844C391.967 255.901 397.741 255.901 401.303 253.844C403.079 252.818 403.97 251.474 403.974 250.13V250.119V240.903C403.974 242.249 403.083 243.597 401.303 244.625C397.741 246.682 391.967 246.682 388.405 244.625C386.678 243.628 385.798 242.331 385.745 241.024V231.967C385.689 233.357 386.571 234.754 388.405 235.813C391.967 237.87 397.741 237.87 401.303 235.813C403.079 234.787 403.97 233.443 403.974 232.099V232.088V232.086V222.872C403.974 224.218 403.083 225.566 401.303 226.595C397.741 228.651 391.967 228.651 388.405 226.595C386.678 225.597 385.798 224.3 385.745 222.993V214.246C385.689 215.636 386.571 217.033 388.405 218.092C391.967 220.148 397.741 220.148 401.303 218.092C403.079 217.066 403.97 215.722 403.974 214.378V214.371Z" fill="url(#paint6_linear_5327_3749)"/>
<path d="M388.407 235.368C391.968 237.425 397.743 237.425 401.304 235.368C402.986 234.396 403.864 233.14 403.957 231.867C404.061 233.289 403.183 234.73 401.304 235.816C397.743 237.872 391.968 237.872 388.407 235.816C386.528 234.73 385.65 233.289 385.754 231.867C385.847 233.14 386.725 234.398 388.407 235.368Z" fill="white"/>
<path d="M388.407 253.4C391.968 255.456 397.743 255.456 401.304 253.4C402.986 252.427 403.864 251.171 403.957 249.898C404.061 251.321 403.183 252.761 401.304 253.847C397.743 255.903 391.968 255.903 388.407 253.847C386.528 252.761 385.65 251.321 385.754 249.898C385.847 251.173 386.725 252.429 388.407 253.4Z" fill="white"/>
<path opacity="0.48" d="M388.401 208.883C391.963 210.939 397.738 210.939 401.299 208.883C403.079 207.855 403.97 206.506 403.97 205.16V214.375V214.385C403.966 215.729 403.075 217.073 401.299 218.1C397.738 220.156 391.963 220.156 388.401 218.1C386.567 217.041 385.685 215.641 385.741 214.254V205.281C385.794 206.589 386.674 207.886 388.401 208.883Z" fill="url(#paint7_linear_5327_3749)"/>
<path opacity="0.48" d="M388.401 226.598C391.963 228.654 397.738 228.654 401.299 226.598C403.079 225.57 403.97 224.221 403.97 222.875V232.09V232.1C403.966 233.444 403.075 234.788 401.299 235.814C397.738 237.871 391.963 237.871 388.401 235.814C386.567 234.755 385.685 233.356 385.741 231.968V222.996C385.794 224.301 386.674 225.6 388.401 226.598Z" fill="url(#paint8_linear_5327_3749)"/>
<path opacity="0.48" d="M388.401 244.629C391.963 246.685 397.738 246.685 401.299 244.629C403.079 243.601 403.97 242.253 403.97 240.906V250.121V250.123V250.133C403.966 251.477 403.075 252.822 401.299 253.848C397.738 255.904 391.963 255.904 388.401 253.848C386.567 252.789 385.685 251.389 385.741 250.002V241.029C385.794 242.335 386.674 243.632 388.401 244.629Z" fill="url(#paint9_linear_5327_3749)"/>
<path d="M427.805 152.103C428.226 151.871 428.642 151.631 429.044 151.368L433.502 126.115L427.91 92.594L412.374 75.6528L396.373 60.1111L370.894 49.5421L370.226 49.2794C369.017 49.8848 367.885 50.6277 366.816 51.4712C360.446 50.6749 354.077 49.8787 347.707 49.0824C348.778 46.4576 350.048 44.0585 351.545 41.9611L348.495 40.7667L359.905 34.1914C360.04 34.1113 360.176 34.0333 360.313 33.9553L360.74 33.7091L360.764 33.7194C370.578 28.4246 383.933 29.383 398.663 37.8895C428.782 55.2863 453.2 97.5933 453.2 132.385C453.2 149.646 447.185 161.806 437.451 167.562V167.568L437.375 167.612C437.264 167.677 437.151 167.741 437.039 167.804L424.925 174.737L425.547 171.217C424.035 171.336 422.478 171.347 420.882 171.248C424.236 165.323 428.773 158.758 427.805 152.103Z" fill="url(#paint10_linear_5327_3749)"/>
<path d="M344.154 70.7929C344.146 70.3229 344.123 69.8509 344.123 69.383C344.123 61.4962 345.409 54.7095 347.705 49.0781C354.074 49.8744 360.444 50.6707 366.814 51.4669C360.688 56.3082 356.981 64.983 356.981 76.81C356.981 103.399 375.641 135.73 398.658 149.024C410.011 155.581 420.291 156.263 427.805 152.101C428.773 158.756 424.235 165.323 420.875 171.244C415.818 170.936 410.353 169.532 404.624 166.944L406.423 168.97C406.423 168.97 383.74 161.098 383.275 160.591C382.809 160.084 356.397 133.411 356.397 133.411L339.152 96.1975L344.154 70.7929Z" fill="url(#paint11_linear_5327_3749)"/>
<path opacity="0.5" d="M349.551 82.3395C349.551 55.7507 368.211 44.9743 391.228 58.2687C414.245 71.5632 432.905 103.894 432.905 130.483C432.905 157.072 414.245 167.848 391.228 154.554C368.211 141.259 349.551 108.928 349.551 82.3395Z" fill="url(#paint12_linear_5327_3749)"/>
<path opacity="0.48" d="M353.176 80.3707C353.176 53.7819 371.836 43.0056 394.853 56.3C417.87 69.5944 436.53 101.925 436.53 128.514C436.53 155.103 417.87 165.879 394.853 152.585C371.836 139.291 353.176 106.96 353.176 80.3707Z" fill="url(#paint13_linear_5327_3749)"/>
<path d="M332.133 76.3013C332.133 111.093 356.549 153.4 386.67 170.797C416.789 188.193 441.207 174.091 441.207 139.299C441.207 104.507 416.791 62.2003 386.67 44.8035C356.549 27.4066 332.133 41.5076 332.133 76.3013ZM344.991 83.7283C344.991 57.1395 363.651 46.3632 386.668 59.6576C409.685 72.952 428.345 105.283 428.345 131.872C428.345 158.461 409.685 169.237 386.668 155.943C363.651 142.648 344.991 110.317 344.991 83.7283Z" fill="#BCBEFF"/>
<path d="M332.133 76.3013C332.133 111.093 356.549 153.4 386.67 170.797C416.789 188.193 441.207 174.091 441.207 139.299C441.207 104.507 416.791 62.2003 386.67 44.8035C356.549 27.4066 332.133 41.5076 332.133 76.3013ZM344.991 83.7283C344.991 57.1395 363.651 46.3632 386.668 59.6576C409.685 72.952 428.345 105.283 428.345 131.872C428.345 158.461 409.685 169.237 386.668 155.943C363.651 142.648 344.991 110.317 344.991 83.7283Z" fill="#BCBEFF"/>
<path d="M440.378 140.233C440.378 105.441 415.961 63.134 385.84 45.7371C367.302 35.0285 350.933 36.2701 341.078 46.909C350.827 35.4164 367.599 33.7911 386.667 44.8054C416.786 62.2023 441.204 104.509 441.204 139.301C441.204 152.677 437.584 162.98 431.429 169.627C437.081 162.963 440.378 152.997 440.378 140.233Z" fill="white"/>
<path d="M385.841 156.874C362.824 143.58 344.164 111.249 344.164 84.6599C344.164 74.3597 346.975 66.4442 351.744 61.3711C347.479 66.4606 344.993 74.0375 344.993 83.7282C344.993 110.317 363.653 142.648 386.67 155.942C400.771 164.086 413.225 163.185 420.769 155.16C413.33 164.038 400.47 165.325 385.841 156.874Z" fill="white"/>
<path d="M547.307 476.385C543.84 476.385 540.369 475.492 537.273 473.702L308.36 341.487C307.199 340.816 306.504 339.615 306.504 338.273C306.504 336.931 307.197 335.73 308.36 335.059L450.596 252.906C450.785 252.797 451.017 252.797 451.206 252.906L689.847 390.74C691.008 391.411 691.701 392.612 691.701 393.954C691.701 395.296 691.008 396.497 689.847 397.168L557.341 473.704C554.245 475.492 550.776 476.385 547.307 476.385ZM450.902 254.135L308.97 336.112C308.188 336.563 307.722 337.37 307.722 338.273C307.722 339.174 308.188 339.982 308.97 340.434L537.883 472.649C543.694 476.007 550.918 476.009 556.731 472.649L689.239 396.115C690.021 395.664 690.487 394.857 690.487 393.954C690.487 393.053 690.021 392.245 689.239 391.793L450.902 254.135Z" fill="#42E8E0"/>
<path d="M458.334 192.889L490.226 3.60845L487.662 2.52897L491.514 0.318711L491.508 0.341289C492.255 -0.157405 493.313 -0.126609 494.478 0.546526L749.352 147.756C751.445 148.965 753.029 152.065 752.661 154.233L720.517 345.017C720.349 346.01 719.857 346.671 719.174 346.958L719.178 346.961L715.407 349.14L714.759 345.618L714.975 345.684L461.643 199.365C459.551 198.157 457.967 195.056 458.334 192.889Z" fill="url(#paint14_linear_5327_3749)"/>
<path d="M747.932 152.929L752.123 151.074C752.593 152.148 752.825 153.276 752.662 154.231L720.519 345.015C720.35 346.008 719.858 346.669 719.175 346.956L719.179 346.958L715.409 349.138L714.76 345.616L714.976 345.682L702.156 338.277L747.932 152.929Z" fill="url(#paint15_linear_5327_3749)"/>
<path d="M457.643 201.662L712.517 348.872C714.484 350.009 716.169 349.352 716.515 347.314L748.659 156.53C749.026 154.362 747.443 151.261 745.35 150.053L490.476 2.84347C488.509 1.70653 486.823 2.36325 486.478 4.40113L454.334 195.186C453.967 197.353 455.551 200.454 457.643 201.662Z" fill="#24126A"/>
<g opacity="0.51">
<path d="M493.807 15.0234L739.487 156.921L709.021 336.601L463.508 194.798L493.807 15.0234Z" fill="#453C9E"/>
</g>
<path d="M297.43 291.985L311.338 299.252L450.811 218.695C453.144 217.347 457.22 217.517 459.915 219.073L700.468 358.011C702.77 356.722 713.265 351.674 713.265 351.674L708.173 364.946C708.173 364.946 708.157 364.931 708.153 364.929C707.941 365.52 707.49 366.07 706.729 366.51L559.836 451.351C557.502 452.7 553.428 452.529 550.732 450.974L304.571 308.797C303.465 308.158 302.786 307.385 302.505 306.601L302.486 306.613L297.43 291.985Z" fill="url(#paint16_linear_5327_3749)"/>
<path d="M299.582 294.27L551.865 439.983C554.626 441.578 558.803 441.752 561.195 440.371L711.741 353.418C714.133 352.037 713.831 349.623 711.07 348.029L458.787 202.316C456.026 200.721 451.849 200.547 449.457 201.93L298.911 288.883C296.519 290.264 296.821 292.676 299.582 294.27Z" fill="url(#paint17_linear_5327_3749)"/>
<path d="M627.957 408.464V405.695C627.957 405.432 627.797 405.311 627.6 405.426L617.841 411.062C617.644 411.175 617.484 411.48 617.484 411.743V414.512C617.484 414.774 617.644 414.895 617.841 414.78L627.6 409.145C627.799 409.032 627.957 408.726 627.957 408.464Z" fill="#2842A2"/>
<path d="M613.367 416.889V414.121C613.367 413.858 613.207 413.737 613.01 413.852L603.252 419.487C603.055 419.6 602.895 419.906 602.895 420.169V422.937C602.895 423.2 603.055 423.321 603.252 423.206L613.01 417.571C613.207 417.458 613.367 417.152 613.367 416.889Z" fill="#2842A2"/>
<path d="M672.493 345.275L462.847 224.187C461.45 223.38 459.727 223.38 458.33 224.189L383.674 267.399C382.603 268.018 382.603 269.568 383.676 270.188L593.226 391.218C594.623 392.025 596.342 392.025 597.739 391.218L672.495 348.064C673.566 347.444 673.566 345.895 672.493 345.275Z" fill="#ADB1F2"/>
<path d="M672.493 348.064L671.742 348.497L462.847 227.844C461.45 227.037 459.727 227.037 458.33 227.846L384.427 270.621L383.676 270.188C382.603 269.568 382.603 268.02 383.674 267.399L458.33 224.189C459.727 223.38 461.45 223.38 462.847 224.187L672.493 345.275C673.566 345.895 673.566 347.444 672.493 348.064Z" fill="#9198DB"/>
<path d="M452.695 235.134L634.803 340.316L642.9 335.638L460.792 230.457L452.695 235.134Z" fill="#24126A"/>
<path d="M432.844 246.599L603.654 345.254L611.751 340.577L440.941 241.922L432.844 246.599Z" fill="#24126A"/>
<path d="M419.914 254.068L621.026 370.224L629.123 365.547L428.011 249.391L419.914 254.068Z" fill="#24126A"/>
<path d="M406.984 261.533L608.094 377.689L616.191 373.014L415.081 256.855L406.984 261.533Z" fill="#24126A"/>
<path d="M394.055 269.001L595.165 385.158L603.262 380.483L402.152 264.324L394.055 269.001Z" fill="#24126A"/>
<path d="M645.805 346.673L653.902 351.348L661.999 346.673L653.902 341.996L645.805 346.673Z" fill="#24126A"/>
<path d="M617.242 353.105L634.05 362.812L642.147 358.137L625.339 348.43L617.242 353.105Z" fill="#24126A"/>
<path d="M454.772 374.574L398.243 341.925C396.034 340.648 396.034 338.58 398.243 337.303L436.898 314.977C439.107 313.7 442.689 313.7 444.899 314.977L501.428 347.626C503.637 348.902 503.637 350.971 501.428 352.248L462.773 374.574C460.563 375.85 456.982 375.85 454.772 374.574Z" fill="url(#paint18_linear_5327_3749)"/>
<path d="M501.429 349.518L444.902 316.869C442.692 315.593 439.11 315.593 436.901 316.869L398.246 339.195C397.565 339.589 397.118 340.061 396.857 340.56C396.272 339.444 396.718 338.186 398.246 337.303L436.901 314.977C439.11 313.7 442.692 313.7 444.902 314.977L501.429 347.626C502.957 348.508 503.402 349.766 502.818 350.883C502.557 350.384 502.112 349.912 501.429 349.518Z" fill="#9198DB"/>
<g opacity="0.11">
<mask id="mask0_5327_3749" style="mask-type:luminance" maskUnits="userSpaceOnUse" x="463" y="15" width="277" height="322">
<path d="M493.807 15.0234L739.487 156.921L709.021 336.601L463.508 194.798L493.807 15.0234Z" fill="white"/>
</mask>
<g mask="url(#mask0_5327_3749)">
<path d="M458.538 202.015L710.821 347.728C713.582 349.322 717.759 349.497 720.151 348.116L870.697 261.164C873.089 259.783 872.79 257.37 870.026 255.775L617.744 110.062C614.982 108.467 610.806 108.293 608.414 109.674L457.867 196.625C455.477 198.009 455.777 200.42 458.538 202.015Z" fill="url(#paint19_linear_5327_3749)"/>
<path d="M711.573 228.14L655.044 195.491C652.834 194.215 652.834 192.146 655.044 190.87L693.699 168.543C695.908 167.267 699.49 167.267 701.699 168.543L758.229 201.192C760.438 202.469 760.438 204.538 758.229 205.814L719.574 228.14C717.364 229.417 713.782 229.417 711.573 228.14Z" fill="url(#paint20_linear_5327_3749)"/>
<path d="M758.228 203.081L701.699 170.432C699.489 169.155 695.907 169.155 693.698 170.432L655.043 192.758C654.362 193.152 653.915 193.624 653.654 194.123C653.069 193.006 653.514 191.748 655.043 190.866L693.698 168.539C695.907 167.263 699.489 167.263 701.699 168.539L758.228 201.188C759.756 202.071 760.201 203.329 759.617 204.445C759.356 203.949 758.911 203.475 758.228 203.081Z" fill="#9198DB"/>
<path d="M783.08 279.158L573.434 158.069C572.037 157.263 570.313 157.263 568.916 158.072L494.261 201.281C493.188 201.901 493.19 203.451 494.263 204.07L703.812 325.101C705.209 325.908 706.928 325.908 708.325 325.101L783.082 281.947C784.152 281.329 784.152 279.778 783.08 279.158Z" fill="#ADB1F2"/>
<path d="M783.079 281.951L782.328 282.384L573.433 161.731C572.036 160.924 570.313 160.924 568.916 161.733L495.013 204.507L494.262 204.074C493.189 203.455 493.189 201.907 494.26 201.285L568.916 158.075C570.313 157.267 572.036 157.267 573.433 158.073L783.079 279.162C784.152 279.779 784.152 281.331 783.079 281.951Z" fill="#9198DB"/>
<path d="M513.798 198.336L696.437 303.825L689.201 308.004L506.562 202.514L513.798 198.336Z" fill="#24126A"/>
<path d="M533.042 187.223L706.638 287.487L699.403 291.665L525.809 191.401L533.042 187.223Z" fill="#24126A"/>
<path d="M719.599 294.973L735.811 304.339L728.576 308.517L712.363 299.153L719.599 294.973Z" fill="#24126A"/>
<path d="M705.276 308.934L716.565 315.454L709.332 319.634L698.043 313.112L705.276 308.934Z" fill="#24126A"/>
<path d="M545.099 180.258L747.87 297.375L740.635 301.553L537.863 184.438L545.099 180.258Z" fill="#24126A"/>
<path d="M557.157 173.293L759.929 290.408L752.693 294.589L549.922 177.471L557.157 173.293Z" fill="#24126A"/>
<path d="M569.216 166.328L771.988 283.445L764.752 287.624L561.98 170.509L569.216 166.328Z" fill="#24126A"/>
</g>
</g>
<path opacity="0.42" d="M575.347 334.489L629.695 301.034L507.502 230.457L449.836 269.234L575.347 334.489Z" fill="url(#paint21_radial_5327_3749)"/>
<path opacity="0.42" d="M629.695 301.03L642.147 222.358L527.477 156.555V241.831L629.695 301.03Z" fill="url(#paint22_radial_5327_3749)"/>
<path d="M515.477 118.339L527.609 111.349V111.359C527.769 111.254 527.98 111.248 528.214 111.384L680.225 199.183C680.721 199.47 681.123 200.238 681.123 200.9V229.607C681.123 229.925 681.027 230.155 680.875 230.282L680.879 230.284L680.869 230.291C680.857 230.301 680.844 230.305 680.832 230.311L668.579 237.373L668.482 223.504L528.216 142.49C527.719 142.202 527.317 141.435 527.317 140.772V130.919L515.477 118.339Z" fill="url(#paint23_linear_5327_3749)"/>
<path d="M516.02 149.509L668.031 237.306C668.527 237.593 668.929 237.287 668.929 236.627V207.92C668.929 207.259 668.527 206.489 668.031 206.202L516.02 118.405C515.523 118.118 515.121 118.422 515.121 119.084V147.793C515.121 148.454 515.523 149.224 516.02 149.509Z" fill="url(#paint24_linear_5327_3749)"/>
<path opacity="0.6" d="M536.987 143.699L655.348 213.321C651.69 216.472 648.226 220.079 645.048 224.036L525.812 155.169C529.245 150.894 533.005 147.022 536.987 143.699Z" fill="#24126A"/>
<path d="M520.356 140.888L663.693 223.676C664.032 223.871 664.307 223.663 664.307 223.212V216C664.307 215.547 664.032 215.021 663.693 214.826L520.356 132.039C520.017 131.842 519.742 132.051 519.742 132.503V139.714C519.74 140.168 520.017 140.693 520.356 140.888Z" fill="#24126A"/>
<path d="M520.356 132.039L523.271 133.722V137.615C523.271 138.069 523.546 138.594 523.884 138.789L664.307 219.894V223.212C664.307 223.666 664.032 223.873 663.693 223.676L520.356 140.887C520.017 140.69 519.742 140.164 519.742 139.713V132.501C519.74 132.05 520.017 131.842 520.356 132.039Z" fill="#453C9E"/>
<path opacity="0.96" d="M439.835 451.51L320.59 382.637C335.974 373.753 348.939 354.306 352.9 335.71C354.506 328.175 359.116 321.628 365.787 317.776L455.896 265.737C480.993 251.242 497.263 225.146 498.968 196.205C500.408 171.769 518.875 147.738 533.208 139.461L652.454 208.334C638.334 216.49 622.788 239.282 621.02 263.303C618.888 292.242 603.154 318.435 578.034 332.942L485.035 386.651C478.363 390.503 473.754 397.05 472.148 404.588C468.184 423.179 455.219 442.624 439.835 451.51Z" fill="url(#paint25_linear_5327_3749)"/>
<g opacity="0.32">
<path d="M570.727 226.185L586.18 235.11V233.386L570.727 224.461V226.185Z" fill="#4553C7"/>
<path d="M562.801 221.605L568.366 224.818V223.097L562.801 219.883V221.605Z" fill="#4553C7"/>
<path d="M556.66 218.058L560.441 220.241V218.52L556.66 216.336V218.058Z" fill="#4553C7"/>
<path d="M577.762 234.181L586.181 239.043V237.321L577.762 232.457V234.181Z" fill="#4553C7"/>
<path d="M565.082 226.855L575.401 232.814V231.093L565.082 225.133V226.855Z" fill="#4553C7"/>
<path d="M558.938 223.31L562.718 225.493V223.77L558.938 221.586V223.31Z" fill="#4553C7"/>
<path d="M553.094 219.935L556.875 222.118V220.395L553.094 218.211V219.935Z" fill="#4553C7"/>
<path d="M580.09 239.46L586.181 242.98V241.256L580.09 237.738V239.46Z" fill="#4553C7"/>
<path d="M575.645 236.896L577.727 238.098V236.374L575.645 235.172V236.896Z" fill="#4553C7"/>
<path d="M569.504 233.347L573.285 235.53V233.809L569.504 231.625V233.347Z" fill="#4553C7"/>
<path d="M563.695 233.927L586.181 246.914V245.192L563.695 232.203V233.927Z" fill="#4553C7"/>
<path d="M555.77 229.347L561.333 232.561V230.839L555.77 227.625V229.347Z" fill="#4553C7"/>
<path d="M580.09 247.327L586.181 250.847V249.123L580.09 245.605V247.327Z" fill="#4553C7"/>
<path d="M565.789 239.069L577.726 245.965V244.241L565.789 237.348V239.069Z" fill="#4553C7"/>
<path d="M559.648 235.525L563.429 237.708V235.984L559.648 233.801V235.525Z" fill="#4553C7"/>
<path d="M573.715 247.585L586.179 254.784V253.063L573.715 245.863V247.585Z" fill="#4553C7"/>
<path d="M562.34 241.017L571.354 246.221V244.499L562.34 239.293V241.017Z" fill="#4553C7"/>
<path d="M553.887 236.134L559.977 239.652V237.93L553.887 234.41V236.134Z" fill="#4553C7"/>
<path d="M581.969 256.286L586.178 258.716V256.994L581.969 254.562V256.286Z" fill="#4553C7"/>
<path d="M574.047 251.71L579.61 254.924V253.202L574.047 249.988V251.71Z" fill="#4553C7"/>
<path d="M562.719 245.169L571.683 250.347V248.625L562.719 243.445V245.169Z" fill="#4553C7"/>
<path d="M573.285 255.204L586.18 262.652V260.928L573.285 253.48V255.204Z" fill="#4553C7"/>
<path d="M558.84 246.862L570.923 253.842V252.12L558.84 245.141V246.862Z" fill="#4553C7"/>
<path d="M552.699 243.314L556.48 245.497V243.775L552.699 241.59V243.314Z" fill="#4553C7"/>
<path d="M546.805 239.909L550.586 242.093V240.371L546.805 238.188V239.909Z" fill="#4553C7"/>
<path d="M578.453 262.122L586.179 266.584V264.862L578.453 260.398V262.122Z" fill="#4553C7"/>
<path d="M539.383 208.079L528.668 201.892V200.168L539.383 206.358V208.079Z" fill="#4553C7"/>
<path d="M537.087 210.691L528.668 205.827V204.105L537.087 208.967V210.691Z" fill="#4553C7"/>
<path d="M534.761 213.277L528.668 209.757V208.035L534.761 211.555V213.277Z" fill="#4553C7"/>
<path d="M537.53 218.813L528.668 213.694V211.973L537.53 217.089V218.813Z" fill="#4553C7"/>
<path d="M534.761 221.152L528.668 217.632V215.91L534.761 219.428V221.152Z" fill="#4553C7"/>
<path d="M536.394 226.029L528.668 221.568V219.844L536.394 224.307V226.029Z" fill="#4553C7"/>
<path d="M532.878 227.931L528.668 225.499V223.777L532.878 226.209V227.931Z" fill="#4553C7"/>
<path d="M536.824 234.151L528.668 229.439V227.715L536.824 232.427V234.151Z" fill="#4553C7"/>
<path d="M536.394 237.838L528.668 233.374V231.652L536.394 236.114V237.838Z" fill="#4553C7"/>
<path d="M572.805 258.868L576.091 260.765V259.043L572.805 257.145V258.868Z" fill="#4553C7"/>
<path d="M563.051 253.232L570.448 257.502V255.781L563.051 251.508V253.232Z" fill="#4553C7"/>
</g>
<path opacity="0.8" d="M533.208 139.457L652.454 208.33C651.498 208.882 650.552 209.482 649.614 210.101L649.606 210.095L530.375 141.224C531.31 140.604 532.254 140.007 533.208 139.457Z" fill="#453C9E"/>
<path d="M418.988 198.926H457.028V280.203C457.028 283.014 455.171 285.826 451.456 287.97C444.028 292.262 431.986 292.262 424.558 287.97C420.845 285.826 418.986 283.014 418.988 280.203V198.926Z" fill="url(#paint26_linear_5327_3749)"/>
<path d="M418.988 198.926H457.028V280.203C457.028 283.014 455.171 285.826 451.456 287.97C444.028 292.262 431.986 292.262 424.558 287.97C420.845 285.826 418.986 283.014 418.988 280.203V198.926Z" fill="url(#paint27_linear_5327_3749)"/>
<path d="M424.559 206.694C431.988 210.983 444.03 210.983 451.458 206.694C458.886 202.405 458.886 195.447 451.458 191.158C444.03 186.869 431.988 186.869 424.559 191.158C417.131 195.447 417.131 202.405 424.559 206.694Z" fill="url(#paint28_linear_5327_3749)"/>
<path opacity="0.3" d="M429.327 203.942C434.121 206.712 441.896 206.71 446.692 203.942C451.486 201.171 451.486 196.681 446.692 193.912C441.898 191.144 434.123 191.144 429.327 193.912C424.531 196.681 424.533 201.171 429.327 203.942Z" fill="url(#paint29_linear_5327_3749)"/>
<path opacity="0.5" d="M424.562 205.879C431.99 210.168 444.032 210.168 451.46 205.879C454.995 203.837 456.827 201.194 456.997 198.52C457.186 201.467 455.354 204.446 451.46 206.696C444.032 210.987 431.99 210.987 424.562 206.696C420.668 204.446 418.836 201.467 419.025 198.52C419.195 201.192 421.027 203.837 424.562 205.879Z" fill="white"/>
<path d="M418.988 181.266H457.028V188.689C457.028 191.5 455.171 194.312 451.456 196.456C444.028 200.745 431.986 200.748 424.558 196.456C420.845 194.312 418.986 191.5 418.988 188.689V181.266Z" fill="url(#paint30_linear_5327_3749)"/>
<path d="M418.988 181.266H457.028V188.689C457.028 191.5 455.171 194.312 451.456 196.456C444.028 200.745 431.986 200.748 424.558 196.456C420.845 194.312 418.986 191.5 418.988 188.689V181.266Z" fill="url(#paint31_linear_5327_3749)"/>
<path d="M424.559 189.034C431.988 193.323 444.03 193.323 451.458 189.034C458.886 184.744 458.886 177.787 451.458 173.498C444.03 169.209 431.988 169.209 424.559 173.498C417.131 177.787 417.131 184.744 424.559 189.034Z" fill="url(#paint32_linear_5327_3749)"/>
<path opacity="0.5" d="M424.562 188.217C431.99 192.506 444.032 192.506 451.46 188.217C454.995 186.175 456.827 183.53 456.997 180.855C457.186 183.8 455.354 186.782 451.46 189.032C444.032 193.321 431.99 193.323 424.562 189.032C420.668 186.782 418.836 183.802 419.025 180.855C419.195 183.53 421.027 186.175 424.562 188.217Z" fill="white"/>
<path d="M450.44 244.16H488.479V298.347C488.479 301.159 486.623 303.971 482.908 306.115C475.479 310.404 463.437 310.406 456.009 306.115C452.296 303.971 450.438 301.159 450.438 298.347V244.16H450.44Z" fill="url(#paint33_linear_5327_3749)"/>
<path d="M450.44 244.16H488.479V298.347C488.479 301.159 486.623 303.971 482.908 306.115C475.479 310.404 463.437 310.406 456.009 306.115C452.296 303.971 450.438 301.159 450.438 298.347V244.16H450.44Z" fill="url(#paint34_linear_5327_3749)"/>
<path d="M469.462 255.147C479.967 255.147 488.483 250.229 488.483 244.161C488.483 238.094 479.967 233.176 469.462 233.176C458.957 233.176 450.441 238.094 450.441 244.161C450.441 250.229 458.957 255.147 469.462 255.147Z" fill="url(#paint35_linear_5327_3749)"/>
<path opacity="0.5" d="M456.011 251.111C463.439 255.401 475.481 255.401 482.909 251.111C486.444 249.069 488.276 246.424 488.446 243.75C488.635 246.697 486.803 249.677 482.909 251.926C475.481 256.215 463.439 256.217 456.011 251.926C452.117 249.677 450.285 246.697 450.474 243.75C450.644 246.426 452.476 249.071 456.011 251.111Z" fill="white"/>
<path d="M481.893 234.559H519.932V316.494C519.932 319.306 518.076 322.117 514.361 324.262C506.932 328.553 494.891 328.553 487.462 324.262C483.749 322.117 481.891 319.306 481.891 316.494V234.559H481.893Z" fill="url(#paint36_linear_5327_3749)"/>
<path d="M481.893 234.559H519.932V316.494C519.932 319.306 518.076 322.117 514.361 324.262C506.932 328.553 494.891 328.553 487.462 324.262C483.749 322.117 481.891 319.306 481.891 316.494V234.559H481.893Z" fill="url(#paint37_linear_5327_3749)"/>
<path d="M487.462 242.327C494.89 246.616 506.932 246.616 514.36 242.327C521.788 238.035 521.788 231.08 514.36 226.791C506.932 222.502 494.89 222.502 487.462 226.791C480.034 231.08 480.034 238.035 487.462 242.327Z" fill="url(#paint38_linear_5327_3749)"/>
<path opacity="0.5" d="M487.464 241.51C494.892 245.799 506.934 245.799 514.362 241.51C517.897 239.468 519.729 236.823 519.899 234.148C520.088 237.095 518.256 240.075 514.362 242.325C506.934 246.614 494.892 246.614 487.464 242.325C483.57 240.075 481.739 237.095 481.927 234.148C482.098 236.825 483.929 239.47 487.464 241.51Z" fill="white"/>
<path d="M513.342 267.469H551.382V334.632C551.382 337.444 549.525 340.256 545.81 342.4C538.382 346.691 526.34 346.691 518.912 342.4C515.198 340.256 513.34 337.444 513.34 334.632V267.469H513.342Z" fill="url(#paint39_linear_5327_3749)"/>
<path d="M513.342 267.469H551.382V334.632C551.382 337.444 549.525 340.256 545.81 342.4C538.382 346.691 526.34 346.691 518.912 342.4C515.198 340.256 513.34 337.444 513.34 334.632V267.469H513.342Z" fill="url(#paint40_linear_5327_3749)"/>
<path d="M518.913 275.241C526.342 279.53 538.384 279.53 545.812 275.241C553.24 270.951 553.24 263.994 545.812 259.705C538.384 255.416 526.342 255.416 518.913 259.705C511.487 263.994 511.487 270.949 518.913 275.241Z" fill="url(#paint41_linear_5327_3749)"/>
<path opacity="0.5" d="M518.913 274.422C526.342 278.711 538.383 278.711 545.812 274.422C549.346 272.38 551.178 269.735 551.348 267.062C551.537 270.007 549.705 272.989 545.812 275.239C538.383 279.528 526.342 279.53 518.913 275.239C515.02 272.989 513.188 270.01 513.376 267.062C513.549 269.737 515.381 272.382 518.913 274.422Z" fill="white"/>
<path d="M544.793 302.172H582.833V352.778C582.833 355.59 580.976 358.401 577.261 360.546C569.833 364.835 557.791 364.837 550.363 360.546C546.65 358.401 544.793 355.59 544.793 352.778V302.172Z" fill="url(#paint42_linear_5327_3749)"/>
<path d="M544.793 302.172H582.833V352.778C582.833 355.59 580.976 358.401 577.261 360.546C569.833 364.835 557.791 364.837 550.363 360.546C546.65 358.401 544.793 355.59 544.793 352.778V302.172Z" fill="url(#paint43_linear_5327_3749)"/>
<path d="M550.364 309.94C557.792 314.229 569.834 314.229 577.263 309.94C584.691 305.651 584.691 298.694 577.263 294.404C569.834 290.115 557.792 290.115 550.364 294.404C542.936 298.696 542.936 305.651 550.364 309.94Z" fill="url(#paint44_linear_5327_3749)"/>
<path opacity="0.5" d="M550.366 309.123C557.795 313.412 569.837 313.412 577.265 309.123C580.799 307.081 582.631 304.436 582.802 301.762C582.99 304.709 581.158 307.689 577.265 309.938C569.837 314.229 557.795 314.229 550.366 309.938C546.473 307.689 544.641 304.709 544.83 301.762C545 304.438 546.832 307.081 550.366 309.123Z" fill="white"/>
<path d="M716.129 165.768L719.803 168.107L720.24 165.394L716.564 163.055L716.129 165.768Z" fill="#42E8E0"/>
<path d="M713.18 184.132L716.854 186.472L719.404 170.584L715.728 168.246L713.18 184.132Z" fill="#42E8E0"/>
<path d="M711.773 192.912L715.45 195.252L716.461 188.943L712.787 186.605L711.773 192.912Z" fill="#42E8E0"/>
<path d="M710.312 202.014L713.987 204.353L714.998 198.047L711.324 195.707L710.312 202.014Z" fill="#42E8E0"/>
<path d="M709.238 171.06L712.912 173.4L713.926 167.093L710.25 164.754L709.238 171.06Z" fill="#42E8E0"/>
<path d="M707.305 183.117L710.981 185.457L712.466 176.195L708.79 173.855L707.305 183.117Z" fill="#42E8E0"/>
<path d="M705.523 194.222L709.2 196.559L710.474 188.615L706.799 186.277L705.523 194.222Z" fill="#42E8E0"/>
<path d="M708.852 211.119L712.526 213.459L713.537 207.152L709.863 204.812L708.852 211.119Z" fill="#42E8E0"/>
<path d="M710.648 162.282L714.323 164.621L714.757 161.906L711.083 159.566L710.648 162.282Z" fill="#42E8E0"/>
<path d="M704.695 218.205L711.11 222.289L711.533 219.654L705.118 215.57L704.695 218.205Z" fill="#42E8E0"/>
<defs>
<linearGradient id="paint0_linear_5327_3749" x1="508.585" y1="64.5829" x2="425.23" y2="64.5829" gradientUnits="userSpaceOnUse">
<stop stop-color="#42E8E0"/>
<stop offset="0.1507" stop-color="#43E3E0"/>
<stop offset="0.3285" stop-color="#45D5DF"/>
<stop offset="0.5199" stop-color="#49BDDD"/>
<stop offset="0.7209" stop-color="#4E9CDB"/>
<stop offset="0.9274" stop-color="#5472D8"/>
<stop offset="1" stop-color="#5761D7"/>
</linearGradient>
<linearGradient id="paint1_linear_5327_3749" x1="490.233" y1="75.1063" x2="406.878" y2="75.1063" gradientUnits="userSpaceOnUse">
<stop stop-color="#42E8E0"/>
<stop offset="0.1507" stop-color="#43E3E0"/>
<stop offset="0.3285" stop-color="#45D5DF"/>
<stop offset="0.5199" stop-color="#49BDDD"/>
<stop offset="0.7209" stop-color="#4E9CDB"/>
<stop offset="0.9274" stop-color="#5472D8"/>
<stop offset="1" stop-color="#5761D7"/>
</linearGradient>
<linearGradient id="paint2_linear_5327_3749" x1="471.883" y1="85.622" x2="388.528" y2="85.622" gradientUnits="userSpaceOnUse">
<stop stop-color="#42E8E0"/>
<stop offset="0.1507" stop-color="#43E3E0"/>
<stop offset="0.3285" stop-color="#45D5DF"/>
<stop offset="0.5199" stop-color="#49BDDD"/>
<stop offset="0.7209" stop-color="#4E9CDB"/>
<stop offset="0.9274" stop-color="#5472D8"/>
<stop offset="1" stop-color="#5761D7"/>
</linearGradient>
<linearGradient id="paint3_linear_5327_3749" x1="401.302" y1="210.649" x2="394.849" y2="221.821" gradientUnits="userSpaceOnUse">
<stop stop-color="#5761D7"/>
<stop offset="0.1645" stop-color="#5E67DA"/>
<stop offset="0.4051" stop-color="#727AE2"/>
<stop offset="0.6924" stop-color="#9297EE"/>
<stop offset="1" stop-color="#BCBEFF"/>
</linearGradient>
<linearGradient id="paint4_linear_5327_3749" x1="401.302" y1="228.363" x2="394.849" y2="239.535" gradientUnits="userSpaceOnUse">
<stop stop-color="#5761D7"/>
<stop offset="0.1645" stop-color="#5E67DA"/>
<stop offset="0.4051" stop-color="#727AE2"/>
<stop offset="0.6924" stop-color="#9297EE"/>
<stop offset="1" stop-color="#BCBEFF"/>
</linearGradient>
<linearGradient id="paint5_linear_5327_3749" x1="401.302" y1="246.395" x2="394.849" y2="257.566" gradientUnits="userSpaceOnUse">
<stop stop-color="#5761D7"/>
<stop offset="0.1645" stop-color="#5E67DA"/>
<stop offset="0.4051" stop-color="#727AE2"/>
<stop offset="0.6924" stop-color="#9297EE"/>
<stop offset="1" stop-color="#BCBEFF"/>
</linearGradient>
<linearGradient id="paint6_linear_5327_3749" x1="428.421" y1="228.268" x2="378.578" y2="228.268" gradientUnits="userSpaceOnUse">
<stop stop-color="#5761D7"/>
<stop offset="0.1645" stop-color="#5E67DA"/>
<stop offset="0.4051" stop-color="#727AE2"/>
<stop offset="0.6924" stop-color="#9297EE"/>
<stop offset="1" stop-color="#BCBEFF"/>
</linearGradient>
<linearGradient id="paint7_linear_5327_3749" x1="403.97" y1="212.402" x2="385.738" y2="212.402" gradientUnits="userSpaceOnUse">
<stop stop-color="#42E8E0"/>
<stop offset="0.1507" stop-color="#43E3E0"/>
<stop offset="0.3285" stop-color="#45D5DF"/>
<stop offset="0.5199" stop-color="#49BDDD"/>
<stop offset="0.7209" stop-color="#4E9CDB"/>
<stop offset="0.9274" stop-color="#5472D8"/>
<stop offset="1" stop-color="#5761D7"/>
</linearGradient>
<linearGradient id="paint8_linear_5327_3749" x1="403.97" y1="230.116" x2="385.738" y2="230.116" gradientUnits="userSpaceOnUse">
<stop stop-color="#42E8E0"/>
<stop offset="0.1507" stop-color="#43E3E0"/>
<stop offset="0.3285" stop-color="#45D5DF"/>
<stop offset="0.5199" stop-color="#49BDDD"/>
<stop offset="0.7209" stop-color="#4E9CDB"/>
<stop offset="0.9274" stop-color="#5472D8"/>
<stop offset="1" stop-color="#5761D7"/>
</linearGradient>
<linearGradient id="paint9_linear_5327_3749" x1="403.97" y1="248.147" x2="385.738" y2="248.147" gradientUnits="userSpaceOnUse">
<stop stop-color="#42E8E0"/>
<stop offset="0.1507" stop-color="#43E3E0"/>
<stop offset="0.3285" stop-color="#45D5DF"/>
<stop offset="0.5199" stop-color="#49BDDD"/>
<stop offset="0.7209" stop-color="#4E9CDB"/>
<stop offset="0.9274" stop-color="#5472D8"/>
<stop offset="1" stop-color="#5761D7"/>
</linearGradient>
<linearGradient id="paint10_linear_5327_3749" x1="460.309" y1="134.449" x2="342.462" y2="66.1582" gradientUnits="userSpaceOnUse">
<stop stop-color="#5761D7"/>
<stop offset="0.1645" stop-color="#5E67DA"/>
<stop offset="0.4051" stop-color="#727AE2"/>
<stop offset="0.6924" stop-color="#9297EE"/>
<stop offset="1" stop-color="#BCBEFF"/>
</linearGradient>
<linearGradient id="paint11_linear_5327_3749" x1="331.113" y1="73.855" x2="437.221" y2="151.513" gradientUnits="userSpaceOnUse">
<stop stop-color="#5761D7"/>
<stop offset="0.1645" stop-color="#5E67DA"/>
<stop offset="0.4051" stop-color="#727AE2"/>
<stop offset="0.6924" stop-color="#9297EE"/>
<stop offset="1" stop-color="#BCBEFF"/>
</linearGradient>
<linearGradient id="paint12_linear_5327_3749" x1="432.906" y1="106.412" x2="349.551" y2="106.412" gradientUnits="userSpaceOnUse">
<stop stop-color="#42E8E0"/>
<stop offset="0.1507" stop-color="#43E3E0"/>
<stop offset="0.3285" stop-color="#45D5DF"/>
<stop offset="0.5199" stop-color="#49BDDD"/>
<stop offset="0.7209" stop-color="#4E9CDB"/>
<stop offset="0.9274" stop-color="#5472D8"/>
<stop offset="1" stop-color="#5761D7"/>
</linearGradient>
<linearGradient id="paint13_linear_5327_3749" x1="436.531" y1="104.443" x2="353.176" y2="104.443" gradientUnits="userSpaceOnUse">
<stop stop-color="#42E8E0"/>
<stop offset="0.1507" stop-color="#43E3E0"/>
<stop offset="0.3285" stop-color="#45D5DF"/>
<stop offset="0.5199" stop-color="#49BDDD"/>
<stop offset="0.7209" stop-color="#4E9CDB"/>
<stop offset="0.9274" stop-color="#5472D8"/>
<stop offset="1" stop-color="#5761D7"/>
</linearGradient>
<linearGradient id="paint14_linear_5327_3749" x1="752.715" y1="174.57" x2="458.281" y2="174.57" gradientUnits="userSpaceOnUse">
<stop stop-color="#C0BFF6"/>
<stop offset="0.2938" stop-color="#C5C4F7"/>
<stop offset="0.6399" stop-color="#D3D2F9"/>
<stop offset="1" stop-color="#E9E9FD"/>
</linearGradient>
<linearGradient id="paint15_linear_5327_3749" x1="752.712" y1="250.106" x2="702.155" y2="250.106" gradientUnits="userSpaceOnUse">
<stop stop-color="#5761D7"/>
<stop offset="0.1779" stop-color="#5C66D9"/>
<stop offset="0.3876" stop-color="#6A73DF"/>
<stop offset="0.6134" stop-color="#8289E8"/>
<stop offset="0.849" stop-color="#A3A7F5"/>
<stop offset="1" stop-color="#BCBEFF"/>
</linearGradient>
<linearGradient id="paint16_linear_5327_3749" x1="713.267" y1="335.022" x2="297.431" y2="335.022" gradientUnits="userSpaceOnUse">
<stop stop-color="#5761D7"/>
<stop offset="0.1779" stop-color="#5C66D9"/>
<stop offset="0.3876" stop-color="#6A73DF"/>
<stop offset="0.6134" stop-color="#8289E8"/>
<stop offset="0.849" stop-color="#A3A7F5"/>
<stop offset="1" stop-color="#BCBEFF"/>
</linearGradient>
<linearGradient id="paint17_linear_5327_3749" x1="573.545" y1="321.15" x2="157.487" y2="321.15" gradientUnits="userSpaceOnUse">
<stop stop-color="#C0BFF6"/>
<stop offset="0.2938" stop-color="#C5C4F7"/>
<stop offset="0.6399" stop-color="#D3D2F9"/>
<stop offset="1" stop-color="#E9E9FD"/>
</linearGradient>
<linearGradient id="paint18_linear_5327_3749" x1="503.085" y1="344.776" x2="396.586" y2="344.776" gradientUnits="userSpaceOnUse">
<stop stop-color="#C0BFF6"/>
<stop offset="0.2938" stop-color="#C5C4F7"/>
<stop offset="0.6399" stop-color="#D3D2F9"/>
<stop offset="1" stop-color="#E9E9FD"/>
</linearGradient>
<linearGradient id="paint19_linear_5327_3749" x1="732.502" y1="228.895" x2="316.444" y2="228.895" gradientUnits="userSpaceOnUse">
<stop stop-color="#C0BFF6"/>
<stop offset="0.2938" stop-color="#C5C4F7"/>
<stop offset="0.6399" stop-color="#D3D2F9"/>
<stop offset="1" stop-color="#E9E9FD"/>
</linearGradient>
<linearGradient id="paint20_linear_5327_3749" x1="759.887" y1="198.342" x2="653.387" y2="198.342" gradientUnits="userSpaceOnUse">
<stop stop-color="#C0BFF6"/>
<stop offset="0.2938" stop-color="#C5C4F7"/>
<stop offset="0.6399" stop-color="#D3D2F9"/>
<stop offset="1" stop-color="#E9E9FD"/>
</linearGradient>
<radialGradient id="paint21_radial_5327_3749" cx="0" cy="0" r="1" gradientUnits="userSpaceOnUse" gradientTransform="translate(592.076 282.473) rotate(180) scale(119.275 119.322)">
<stop stop-color="#2B237C"/>
<stop offset="1" stop-color="#180D5B"/>
</radialGradient>
<radialGradient id="paint22_radial_5327_3749" cx="0" cy="0" r="1" gradientUnits="userSpaceOnUse" gradientTransform="translate(618.163 228.792) rotate(180) scale(91.2979 91.3339)">
<stop stop-color="#2B237C"/>
<stop offset="1" stop-color="#180D5B"/>
</radialGradient>
<linearGradient id="paint23_linear_5327_3749" x1="651.032" y1="255.162" x2="570.56" y2="110.318" gradientUnits="userSpaceOnUse">
<stop stop-color="#5761D7"/>
<stop offset="0.0398" stop-color="#5C66D9"/>
<stop offset="0.0867" stop-color="#6A73DF"/>
<stop offset="0.1372" stop-color="#8289E8"/>
<stop offset="0.1899" stop-color="#A3A7F5"/>
<stop offset="0.2237" stop-color="#BCBEFF"/>
</linearGradient>
<linearGradient id="paint24_linear_5327_3749" x1="552.234" y1="255.675" x2="605.797" y2="151.006" gradientUnits="userSpaceOnUse">
<stop stop-color="#C0BFF6"/>
<stop offset="0.2938" stop-color="#C5C4F7"/>
<stop offset="0.6399" stop-color="#D3D2F9"/>
<stop offset="1" stop-color="#E9E9FD"/>
</linearGradient>
<linearGradient id="paint25_linear_5327_3749" x1="407.552" y1="443.852" x2="577.783" y2="142.337" gradientUnits="userSpaceOnUse">
<stop stop-color="#C0BFF6"/>
<stop offset="0.0775" stop-color="#C3C2F6"/>
<stop offset="0.1329" stop-color="#CCCBF8"/>
<stop offset="0.1813" stop-color="#DBDBFB"/>
<stop offset="0.2117" stop-color="#E9E9FD"/>
<stop offset="0.2579" stop-color="#D8D7FA"/>
<stop offset="0.3159" stop-color="#CACAF8"/>
<stop offset="0.3878" stop-color="#C2C1F6"/>
<stop offset="0.5143" stop-color="#C0BFF6"/>
<stop offset="0.6217" stop-color="#D0CFF9"/>
<stop offset="0.755" stop-color="#E9E9FD"/>
<stop offset="1" stop-color="#C0BFF6"/>
</linearGradient>
<linearGradient id="paint26_linear_5327_3749" x1="457.029" y1="245.057" x2="419.205" y2="245.057" gradientUnits="userSpaceOnUse">
<stop stop-color="#C0BFF6"/>
<stop offset="0.488" stop-color="#D2D1F9"/>
<stop offset="1" stop-color="#E9E9FD"/>
</linearGradient>
<linearGradient id="paint27_linear_5327_3749" x1="499.416" y1="245.057" x2="426.324" y2="245.057" gradientUnits="userSpaceOnUse">
<stop stop-color="#5761D7"/>
<stop offset="0.1779" stop-color="#5C66D9"/>
<stop offset="0.3876" stop-color="#6A73DF"/>
<stop offset="0.6134" stop-color="#8289E8"/>
<stop offset="0.849" stop-color="#A3A7F5"/>
<stop offset="1" stop-color="#BCBEFF"/>
</linearGradient>
<linearGradient id="paint28_linear_5327_3749" x1="451.457" y1="191.158" x2="437.999" y2="214.458" gradientUnits="userSpaceOnUse">
<stop stop-color="#C0BFF6"/>
<stop offset="0.2938" stop-color="#C5C4F7"/>
<stop offset="0.6399" stop-color="#D3D2F9"/>
<stop offset="1" stop-color="#E9E9FD"/>
</linearGradient>
<linearGradient id="paint29_linear_5327_3749" x1="446.692" y1="193.911" x2="438.004" y2="208.953" gradientUnits="userSpaceOnUse">
<stop stop-color="#5761D7"/>
<stop offset="0.1779" stop-color="#5C66D9"/>
<stop offset="0.3876" stop-color="#6A73DF"/>
<stop offset="0.6134" stop-color="#8289E8"/>
<stop offset="0.849" stop-color="#A3A7F5"/>
<stop offset="1" stop-color="#BCBEFF"/>
</linearGradient>
<linearGradient id="paint30_linear_5327_3749" x1="457.029" y1="190.47" x2="419.205" y2="190.47" gradientUnits="userSpaceOnUse">
<stop stop-color="#C0BFF6"/>
<stop offset="0.488" stop-color="#D2D1F9"/>
<stop offset="1" stop-color="#E9E9FD"/>
</linearGradient>
<linearGradient id="paint31_linear_5327_3749" x1="499.416" y1="190.47" x2="426.324" y2="190.47" gradientUnits="userSpaceOnUse">
<stop stop-color="#5761D7"/>
<stop offset="0.1779" stop-color="#5C66D9"/>
<stop offset="0.3876" stop-color="#6A73DF"/>
<stop offset="0.6134" stop-color="#8289E8"/>
<stop offset="0.849" stop-color="#A3A7F5"/>
<stop offset="1" stop-color="#BCBEFF"/>
</linearGradient>
<linearGradient id="paint32_linear_5327_3749" x1="451.457" y1="173.498" x2="437.999" y2="196.798" gradientUnits="userSpaceOnUse">
<stop stop-color="#C0BFF6"/>
<stop offset="0.2938" stop-color="#C5C4F7"/>
<stop offset="0.6399" stop-color="#D3D2F9"/>
<stop offset="1" stop-color="#E9E9FD"/>
</linearGradient>
<linearGradient id="paint33_linear_5327_3749" x1="488.48" y1="276.746" x2="450.657" y2="276.746" gradientUnits="userSpaceOnUse">
<stop stop-color="#C0BFF6"/>
<stop offset="0.488" stop-color="#D2D1F9"/>
<stop offset="1" stop-color="#E9E9FD"/>
</linearGradient>
<linearGradient id="paint34_linear_5327_3749" x1="530.868" y1="276.746" x2="457.776" y2="276.746" gradientUnits="userSpaceOnUse">
<stop stop-color="#5761D7"/>
<stop offset="0.1779" stop-color="#5C66D9"/>
<stop offset="0.3876" stop-color="#6A73DF"/>
<stop offset="0.6134" stop-color="#8289E8"/>
<stop offset="0.849" stop-color="#A3A7F5"/>
<stop offset="1" stop-color="#BCBEFF"/>
</linearGradient>
<linearGradient id="paint35_linear_5327_3749" x1="482.911" y1="236.392" x2="469.454" y2="259.692" gradientUnits="userSpaceOnUse">
<stop stop-color="#C0BFF6"/>
<stop offset="0.2938" stop-color="#C5C4F7"/>
<stop offset="0.6399" stop-color="#D3D2F9"/>
<stop offset="1" stop-color="#E9E9FD"/>
</linearGradient>
<linearGradient id="paint36_linear_5327_3749" x1="519.932" y1="281.018" x2="482.109" y2="281.018" gradientUnits="userSpaceOnUse">
<stop stop-color="#C0BFF6"/>
<stop offset="0.488" stop-color="#D2D1F9"/>
<stop offset="1" stop-color="#E9E9FD"/>
</linearGradient>
<linearGradient id="paint37_linear_5327_3749" x1="562.32" y1="281.018" x2="489.228" y2="281.018" gradientUnits="userSpaceOnUse">
<stop stop-color="#5761D7"/>
<stop offset="0.1779" stop-color="#5C66D9"/>
<stop offset="0.3876" stop-color="#6A73DF"/>
<stop offset="0.6134" stop-color="#8289E8"/>
<stop offset="0.849" stop-color="#A3A7F5"/>
<stop offset="1" stop-color="#BCBEFF"/>
</linearGradient>
<linearGradient id="paint38_linear_5327_3749" x1="514.361" y1="226.79" x2="500.903" y2="250.09" gradientUnits="userSpaceOnUse">
<stop stop-color="#C0BFF6"/>
<stop offset="0.2938" stop-color="#C5C4F7"/>
<stop offset="0.6399" stop-color="#D3D2F9"/>
<stop offset="1" stop-color="#E9E9FD"/>
</linearGradient>
<linearGradient id="paint39_linear_5327_3749" x1="551.382" y1="306.545" x2="513.559" y2="306.545" gradientUnits="userSpaceOnUse">
<stop stop-color="#C0BFF6"/>
<stop offset="0.488" stop-color="#D2D1F9"/>
<stop offset="1" stop-color="#E9E9FD"/>
</linearGradient>
<linearGradient id="paint40_linear_5327_3749" x1="593.77" y1="306.545" x2="520.678" y2="306.545" gradientUnits="userSpaceOnUse">
<stop stop-color="#5761D7"/>
<stop offset="0.1779" stop-color="#5C66D9"/>
<stop offset="0.3876" stop-color="#6A73DF"/>
<stop offset="0.6134" stop-color="#8289E8"/>
<stop offset="0.849" stop-color="#A3A7F5"/>
<stop offset="1" stop-color="#BCBEFF"/>
</linearGradient>
<linearGradient id="paint41_linear_5327_3749" x1="545.813" y1="259.704" x2="532.355" y2="283.003" gradientUnits="userSpaceOnUse">
<stop stop-color="#C0BFF6"/>
<stop offset="0.2938" stop-color="#C5C4F7"/>
<stop offset="0.6399" stop-color="#D3D2F9"/>
<stop offset="1" stop-color="#E9E9FD"/>
</linearGradient>
<linearGradient id="paint42_linear_5327_3749" x1="582.834" y1="332.968" x2="545.01" y2="332.968" gradientUnits="userSpaceOnUse">
<stop stop-color="#C0BFF6"/>
<stop offset="0.488" stop-color="#D2D1F9"/>
<stop offset="1" stop-color="#E9E9FD"/>
</linearGradient>
<linearGradient id="paint43_linear_5327_3749" x1="625.222" y1="332.968" x2="552.129" y2="332.968" gradientUnits="userSpaceOnUse">
<stop stop-color="#5761D7"/>
<stop offset="0.1779" stop-color="#5C66D9"/>
<stop offset="0.3876" stop-color="#6A73DF"/>
<stop offset="0.6134" stop-color="#8289E8"/>
<stop offset="0.849" stop-color="#A3A7F5"/>
<stop offset="1" stop-color="#BCBEFF"/>
</linearGradient>
<linearGradient id="paint44_linear_5327_3749" x1="577.262" y1="294.404" x2="563.805" y2="317.704" gradientUnits="userSpaceOnUse">
<stop stop-color="#C0BFF6"/>
<stop offset="0.2938" stop-color="#C5C4F7"/>
<stop offset="0.6399" stop-color="#D3D2F9"/>
<stop offset="1" stop-color="#E9E9FD"/>
</linearGradient>
</defs>
</svg>
