<svg width="244" height="176" viewBox="0 0 244 176" fill="none" xmlns="http://www.w3.org/2000/svg">
<mask id="mask0_473_10702" style="mask-type:alpha" maskUnits="userSpaceOnUse" x="0" y="0" width="244" height="176">
<rect width="244" height="176" rx="20" fill="#D9D9D9"/>
</mask>
<g mask="url(#mask0_473_10702)">
<rect opacity="0.8" x="-23.1719" y="-367.623" width="580" height="680" rx="20" fill="url(#paint0_linear_473_10702)" fill-opacity="0.6"/>
</g>
<path d="M122.046 147.746C160.667 147.746 191.975 119.693 191.975 85.0881C191.975 50.4834 160.667 22.4307 122.046 22.4307C83.4254 22.4307 52.1172 50.4834 52.1172 85.0881C52.1172 119.693 83.4254 147.746 122.046 147.746Z" fill="url(#paint1_linear_473_10702)"/>
<path d="M166.241 124.695C190.652 102.822 190.652 67.3595 166.241 45.4868C141.83 23.614 102.252 23.614 77.8408 45.4868C53.4297 67.3595 53.4297 102.822 77.8407 124.695C102.252 146.568 141.83 146.568 166.241 124.695Z" fill="#2E2E2E"/>
<path d="M163.228 121.995C185.976 101.613 185.976 68.5668 163.228 48.1846C140.481 27.8024 103.6 27.8024 80.8522 48.1846C58.1046 68.5668 58.1046 101.613 80.8522 121.995C103.6 142.377 140.481 142.377 163.228 121.995Z" fill="#414042"/>
<path d="M142.484 90.2747V77.5742H147.495C148.458 77.5742 149.279 77.7582 149.957 78.1261C150.635 78.49 151.152 78.9964 151.507 79.6455C151.867 80.2904 152.047 81.0346 152.047 81.878C152.047 82.7214 151.865 83.4655 151.501 84.1105C151.137 84.7554 150.61 85.2578 149.92 85.6174C149.234 85.9771 148.403 86.157 147.427 86.157H144.233V84.0051H146.993C147.51 84.0051 147.935 83.9162 148.27 83.7384C148.609 83.5565 148.861 83.3064 149.027 82.988C149.196 82.6656 149.281 82.2956 149.281 81.878C149.281 81.4563 149.196 81.0883 149.027 80.7741C148.861 80.4558 148.609 80.2098 148.27 80.0362C147.931 79.8584 147.501 79.7695 146.98 79.7695H145.17V90.2747H142.484Z" fill="white"/>
<path d="M137.932 81.2267C137.882 80.7264 137.669 80.3378 137.293 80.0608C136.917 79.7838 136.406 79.6453 135.761 79.6453C135.323 79.6453 134.953 79.7073 134.651 79.8313C134.35 79.9512 134.118 80.1187 133.957 80.3337C133.8 80.5486 133.721 80.7926 133.721 81.0654C133.713 81.2928 133.76 81.4912 133.864 81.6608C133.971 81.8303 134.118 81.977 134.304 82.1011C134.49 82.2209 134.705 82.3264 134.949 82.4173C135.193 82.5041 135.453 82.5786 135.73 82.6406L136.871 82.9134C137.425 83.0375 137.934 83.2028 138.397 83.4095C138.86 83.6163 139.261 83.8705 139.6 84.1723C139.939 84.4741 140.202 84.8297 140.388 85.239C140.578 85.6483 140.675 86.1175 140.679 86.6467C140.675 87.4239 140.477 88.0978 140.084 88.6683C139.695 89.2347 139.133 89.675 138.397 89.9892C137.665 90.2993 136.783 90.4543 135.749 90.4543C134.724 90.4543 133.831 90.2972 133.07 89.983C132.313 89.6688 131.722 89.2037 131.296 88.5877C130.875 87.9676 130.653 87.2007 130.633 86.287H133.231C133.26 86.7128 133.382 87.0684 133.597 87.3536C133.816 87.6348 134.108 87.8477 134.471 87.9924C134.839 88.1329 135.255 88.2032 135.718 88.2032C136.173 88.2032 136.568 88.1371 136.902 88.0048C137.241 87.8725 137.504 87.6885 137.69 87.4529C137.876 87.2172 137.969 86.9464 137.969 86.6405C137.969 86.3552 137.884 86.1154 137.715 85.9211C137.549 85.7268 137.306 85.5614 136.983 85.425C136.665 85.2886 136.274 85.1645 135.811 85.0529L134.428 84.7056C133.357 84.4452 132.512 84.038 131.892 83.484C131.272 82.93 130.964 82.1837 130.968 81.2453C130.964 80.4763 131.168 79.8045 131.582 79.2298C131.999 78.6551 132.572 78.2066 133.299 77.8841C134.027 77.5616 134.854 77.4004 135.78 77.4004C136.723 77.4004 137.545 77.5616 138.248 77.8841C138.955 78.2066 139.505 78.6551 139.898 79.2298C140.29 79.8045 140.493 80.4701 140.505 81.2267H137.932Z" fill="white"/>
<path d="M120.456 90.2747H117.578L121.963 77.5742H125.423L129.801 90.2747H126.924L123.742 80.4765H123.643L120.456 90.2747ZM120.276 85.2826H127.072V87.3786H120.276V85.2826Z" fill="white"/>
<path d="M104.314 90.2747L100.68 77.5742H103.613L105.715 86.3988H105.821L108.14 77.5742H110.652L112.965 86.4174H113.076L115.179 77.5742H118.112L114.478 90.2747H111.861L109.442 81.971H109.343L106.931 90.2747H104.314Z" fill="white"/>
<path d="M99.9412 83.9243C99.9412 85.3092 99.6786 86.4875 99.1536 87.4591C98.6327 88.4306 97.9216 89.1727 97.0203 89.6854C96.1232 90.1939 95.1144 90.4481 93.994 90.4481C92.8654 90.4481 91.8525 90.1918 90.9553 89.6792C90.0582 89.1665 89.3492 88.4244 88.8283 87.4529C88.3073 86.4813 88.0469 85.3051 88.0469 83.9243C88.0469 82.5393 88.3073 81.361 88.8283 80.3895C89.3492 79.4179 90.0582 78.6779 90.9553 78.1694C91.8525 77.6567 92.8654 77.4004 93.994 77.4004C95.1144 77.4004 96.1232 77.6567 97.0203 78.1694C97.9216 78.6779 98.6327 79.4179 99.1536 80.3895C99.6786 81.361 99.9412 82.5393 99.9412 83.9243ZM97.2187 83.9243C97.2187 83.0271 97.0844 82.2706 96.8157 81.6545C96.5511 81.0385 96.1769 80.5714 95.6932 80.253C95.2095 79.9347 94.6431 79.7755 93.994 79.7755C93.3449 79.7755 92.7785 79.9347 92.2948 80.253C91.8111 80.5714 91.4349 81.0385 91.1662 81.6545C90.9016 82.2706 90.7693 83.0271 90.7693 83.9243C90.7693 84.8214 90.9016 85.578 91.1662 86.194C91.4349 86.81 91.8111 87.2772 92.2948 87.5955C92.7785 87.9138 93.3449 88.073 93.994 88.073C94.6431 88.073 95.2095 87.9138 95.6932 87.5955C96.1769 87.2772 96.5511 86.81 96.8157 86.194C97.0844 85.578 97.2187 84.8214 97.2187 83.9243Z" fill="white"/>
<path d="M44.3256 98.7631C52.7552 98.7631 59.5887 92.6402 59.5887 85.0871C59.5887 77.5341 52.7552 71.4111 44.3256 71.4111C35.896 71.4111 29.0625 77.5341 29.0625 85.0871C29.0625 92.6402 35.896 98.7631 44.3256 98.7631Z" fill="#414042"/>
<path d="M49.9877 97.3372C57.5354 94.5359 61.1196 86.7827 57.9932 80.0199C54.8669 73.2571 46.2139 70.0456 38.6662 72.8468C31.1186 75.6481 27.5344 83.4013 30.6607 90.1641C33.7871 96.927 42.4401 100.138 49.9877 97.3372Z" fill="#2E2E2E"/>
<path d="M44.3279 96.2815C51.227 96.2815 56.8198 91.2702 56.8198 85.0885C56.8198 78.9068 51.227 73.8955 44.3279 73.8955C37.4288 73.8955 31.8359 78.9068 31.8359 85.0885C31.8359 91.2702 37.4288 96.2815 44.3279 96.2815Z" fill="url(#paint2_linear_473_10702)"/>
<g style="mix-blend-mode:multiply">
<path d="M44.3279 73.8955C41.8572 73.8955 39.442 74.552 37.3877 75.7819C35.3334 77.0118 33.7323 78.7599 32.7868 80.8051C31.8414 82.8504 31.594 85.1009 32.076 87.2721C32.558 89.4434 33.7477 91.4378 35.4947 93.0031C37.2418 94.5685 39.4676 95.6345 41.8908 96.0664C44.314 96.4983 46.8257 96.2766 49.1083 95.4295C51.3909 94.5823 53.3419 93.1477 54.7146 91.307C56.0872 89.4663 56.8198 87.3023 56.8198 85.0885C56.8198 82.1199 55.5037 79.273 53.161 77.1739C50.8183 75.0748 47.6409 73.8955 44.3279 73.8955ZM44.3279 94.264C42.301 94.265 40.3193 93.7273 38.6336 92.7189C36.9479 91.7105 35.6338 90.2768 34.8577 88.5991C34.0815 86.9214 33.8781 85.0751 34.2733 83.2938C34.6685 81.5126 35.6444 79.8763 37.0776 78.5921C38.5108 77.3079 40.337 76.4335 42.3249 76.0794C44.3129 75.7254 46.3735 75.9076 48.2459 76.603C50.1182 77.2985 51.7184 78.4759 52.8438 79.9863C53.9692 81.4968 54.5693 83.2724 54.5682 85.0885C54.5682 87.522 53.4893 89.8558 51.5689 91.5766C49.6485 93.2973 47.0438 94.264 44.3279 94.264Z" fill="#E6E7E8"/>
</g>
<g style="mix-blend-mode:multiply">
<path d="M44.3279 96.2815C51.227 96.2815 56.8198 91.2702 56.8198 85.0885C56.8198 78.9068 51.227 73.8955 44.3279 73.8955C37.4288 73.8955 31.8359 78.9068 31.8359 85.0885C31.8359 91.2702 37.4288 96.2815 44.3279 96.2815Z" stroke="#D1D3D4" stroke-width="2" stroke-miterlimit="10"/>
</g>
<g clip-path="url(#clip0_473_10702)">
<path d="M43.2007 78.7571C43.5798 78.5653 43.7683 78.4697 43.9756 78.4697C44.1829 78.4697 44.3721 78.5659 44.7505 78.7571L49.2389 81.0306C49.6173 81.2218 49.8065 81.3179 49.9098 81.4754C50.0131 81.6329 50.0138 81.8241 50.0138 82.2076V86.7547C50.0138 87.1376 50.0138 87.3293 49.9098 87.4868C49.8065 87.6443 49.6173 87.7405 49.2389 87.9317L44.7505 90.2052C44.3721 90.397 44.1829 90.4925 43.9756 90.4925C43.7683 90.4925 43.5791 90.3964 43.2007 90.2052L38.7124 87.9317C38.334 87.7405 38.1448 87.6443 38.0415 87.4868C37.9382 87.3293 37.9375 87.1382 37.9375 86.7547V82.2076C37.9375 81.8247 37.9375 81.6329 38.0415 81.4754C38.1448 81.3179 38.334 81.2218 38.7124 81.0306L43.2007 78.7571Z" stroke="white" stroke-width="2.5" stroke-linecap="round" stroke-linejoin="round"/>
<path d="M46.3238 79.834L44.7364 80.6034C44.3648 80.7838 44.1796 80.874 43.9756 80.874C43.7717 80.874 43.5865 80.7838 43.2148 80.6034L41.6275 79.834M43.9756 84.2494V90.4922M43.9756 84.2494L49.6783 81.4751M43.9756 84.2494L38.273 81.4751M37.9375 84.4808L39.8791 85.418C40.24 85.5923 40.4205 85.6789 40.5212 85.8352C40.6218 85.9915 40.6211 86.1862 40.6211 86.5758V88.6888M50.0138 84.4808L48.0722 85.418C47.7112 85.5923 47.5308 85.6789 47.4301 85.8352C47.3295 85.9915 47.3302 86.1862 47.3302 86.5758V88.6888" stroke="white" stroke-width="2.5" stroke-linecap="round" stroke-linejoin="round"/>
</g>
<path d="M59.1147 57.7026C67.5443 57.7026 74.3778 51.5796 74.3778 44.0266C74.3778 36.4735 67.5443 30.3506 59.1147 30.3506C50.6851 30.3506 43.8516 36.4735 43.8516 44.0266C43.8516 51.5796 50.6851 57.7026 59.1147 57.7026Z" fill="#414042"/>
<path d="M69.5744 53.4023C75.3511 48.2263 75.3511 39.8343 69.5744 34.6582C63.7976 29.4822 54.4317 29.4822 48.655 34.6582C42.8783 39.8343 42.8783 48.2263 48.655 53.4023C54.4317 58.5784 63.7976 58.5784 69.5744 53.4023Z" fill="#2E2E2E"/>
<path d="M59.1091 55.2195C66.0082 55.2195 71.6011 50.2082 71.6011 44.0265C71.6011 37.8448 66.0082 32.8335 59.1091 32.8335C52.21 32.8335 46.6172 37.8448 46.6172 44.0265C46.6172 50.2082 52.21 55.2195 59.1091 55.2195Z" fill="url(#paint3_linear_473_10702)"/>
<g style="mix-blend-mode:multiply">
<path d="M59.109 32.8564C56.6365 32.8565 54.2196 33.5139 52.1644 34.7455C50.1092 35.9772 48.5081 37.7276 47.5639 39.7751C46.6197 41.8226 46.3749 44.0751 46.8604 46.2474C47.3459 48.4197 48.54 50.414 50.2913 51.9778C52.0427 53.5416 54.2726 54.6046 56.6987 55.0321C59.1247 55.4596 61.6378 55.2324 63.9196 54.3792C66.2014 53.5261 68.1494 52.0854 69.5168 50.2397C70.8842 48.3939 71.6096 46.226 71.601 44.0106C71.5895 41.0488 70.2684 38.2118 67.9269 36.1211C65.5855 34.0304 62.4146 32.8564 59.109 32.8564ZM59.109 53.225C57.0858 53.224 55.1082 52.686 53.4258 51.6789C51.7435 50.6718 50.4318 49.2407 49.6563 47.5663C48.8808 45.8919 48.6762 44.0491 49.0685 42.2706C49.4607 40.4921 50.4322 38.8576 51.8602 37.5733C53.2882 36.2891 55.1088 35.4126 57.0923 35.0546C59.0757 34.6966 61.133 34.873 63.0046 35.5617C64.8762 36.2504 66.4782 37.4204 67.6084 38.9241C68.7386 40.4278 69.3463 42.1978 69.3548 44.0106C69.3605 45.2193 69.0997 46.417 68.5873 47.535C68.0749 48.653 67.321 49.6693 66.3689 50.5255C65.4169 51.3817 64.2854 52.061 63.0396 52.5242C61.7937 52.9875 60.4579 53.2256 59.109 53.225Z" fill="#E6E7E8"/>
</g>
<g style="mix-blend-mode:multiply">
<path d="M59.1091 55.2195C66.0082 55.2195 71.6011 50.2082 71.6011 44.0265C71.6011 37.8448 66.0082 32.8335 59.1091 32.8335C52.21 32.8335 46.6172 37.8448 46.6172 44.0265C46.6172 50.2082 52.21 55.2195 59.1091 55.2195Z" stroke="#D1D3D4" stroke-width="2" stroke-miterlimit="10"/>
</g>
<path d="M53.9062 40.4782C53.9062 41.4743 56.3094 42.2817 59.2735 42.2817C62.2375 42.2817 64.6407 41.4743 64.6407 40.4782C64.6407 39.4821 62.2375 38.6748 59.2735 38.6748C56.3094 38.6748 53.9062 39.4821 53.9062 40.4782Z" stroke="white" stroke-width="2" stroke-linecap="round" stroke-linejoin="round"/>
<path d="M53.9062 40.478V47.6917C53.9062 48.6878 56.3094 49.4951 59.2735 49.4951C62.2375 49.4951 64.6407 48.6878 64.6407 47.6917V40.478" stroke="white" stroke-width="2" stroke-linecap="round" stroke-linejoin="round"/>
<path d="M53.9062 45.8881C54.1676 45.8931 54.4263 45.8409 54.6601 45.7361C54.8938 45.6314 55.0956 45.4773 55.2481 45.287C55.4005 45.0967 55.6023 44.9426 55.8361 44.8379C56.0698 44.7331 56.3286 44.681 56.5899 44.6859C56.8512 44.681 57.1099 44.7331 57.3437 44.8379C57.5775 44.9426 57.7793 45.0967 57.9317 45.287C58.0841 45.4773 58.2859 45.6314 58.5197 45.7361C58.7534 45.8409 59.0122 45.8931 59.2735 45.8881C59.5348 45.8931 59.7935 45.8409 60.0273 45.7361C60.2611 45.6314 60.4629 45.4773 60.6153 45.287C60.7677 45.0967 60.9695 44.9426 61.2033 44.8379C61.4371 44.7331 61.6958 44.681 61.9571 44.6859C62.2184 44.681 62.4771 44.7331 62.7109 44.8379C62.9447 44.9426 63.1465 45.0967 63.2989 45.287C63.4513 45.4773 63.6531 45.6314 63.8869 45.7361C64.1207 45.8409 64.3794 45.8931 64.6407 45.8881" stroke="white" stroke-width="2" stroke-linecap="round" stroke-linejoin="round"/>
<path d="M103.853 164.069C111.641 161.178 115.34 153.178 112.114 146.2C108.888 139.222 99.9595 135.908 92.1716 138.799C84.3837 141.689 80.6854 149.689 83.9113 156.667C87.1371 163.645 96.0656 166.959 103.853 164.069Z" fill="#414042"/>
<path d="M108.465 160.809C114.242 155.633 114.242 147.241 108.465 142.064C102.688 136.888 93.3224 136.888 87.5456 142.064C81.7689 147.241 81.7689 155.633 87.5456 160.809C93.3223 165.985 102.688 165.985 108.465 160.809Z" fill="#2E2E2E"/>
<path d="M98.0154 162.629C104.914 162.629 110.507 157.618 110.507 151.436C110.507 145.254 104.914 140.243 98.0154 140.243C91.1163 140.243 85.5234 145.254 85.5234 151.436C85.5234 157.618 91.1163 162.629 98.0154 162.629Z" fill="url(#paint4_linear_473_10702)"/>
<g style="mix-blend-mode:multiply">
<path d="M98.0154 140.243C95.5445 140.243 93.1291 140.9 91.0747 142.13C89.0203 143.36 87.4191 145.108 86.4738 147.154C85.5285 149.199 85.2814 151.45 85.7639 153.622C86.2463 155.793 87.4366 157.787 89.1842 159.353C90.9317 160.918 93.1581 161.983 95.5817 162.415C98.0052 162.846 100.517 162.624 102.8 161.776C105.082 160.928 107.033 159.492 108.405 157.651C109.777 155.81 110.508 153.645 110.507 151.431C110.506 148.464 109.189 145.618 106.847 143.52C104.504 141.422 101.328 140.243 98.0154 140.243ZM98.0154 160.612C95.989 160.612 94.008 160.073 92.3231 159.065C90.6382 158.056 89.325 156.622 88.5495 154.944C87.774 153.267 87.5711 151.421 87.9665 149.64C88.3618 147.859 89.3376 146.224 90.7705 144.94C92.2034 143.656 94.029 142.782 96.0165 142.427C98.004 142.073 100.064 142.255 101.936 142.95C103.808 143.645 105.409 144.821 106.534 146.331C107.66 147.841 108.261 149.616 108.261 151.431C108.262 152.637 107.997 153.831 107.483 154.945C106.968 156.059 106.213 157.072 105.262 157.924C104.31 158.777 103.18 159.453 101.937 159.914C100.694 160.375 99.3611 160.612 98.0154 160.612Z" fill="#E6E7E8"/>
</g>
<g style="mix-blend-mode:multiply">
<path d="M98.0154 162.629C104.914 162.629 110.507 157.618 110.507 151.436C110.507 145.254 104.914 140.243 98.0154 140.243C91.1163 140.243 85.5234 145.254 85.5234 151.436C85.5234 157.618 91.1163 162.629 98.0154 162.629Z" stroke="#D1D3D4" stroke-width="2" stroke-miterlimit="10"/>
</g>
<g clip-path="url(#clip1_473_10702)">
<path d="M98.7149 144.354V158.782M90.6641 151.568H106.766M102.069 151.568C102.069 149.911 100.565 148.562 98.7149 148.562C96.8652 148.562 95.3604 149.911 95.3604 151.568C95.3604 153.226 96.8652 154.574 98.7149 154.574C100.565 154.574 102.069 153.226 102.069 151.568ZM98.7149 156.978C95.3859 156.978 92.6768 154.552 92.6768 151.568C92.6768 148.585 95.3859 146.158 98.7149 146.158C102.044 146.158 104.753 148.585 104.753 151.568C104.753 154.552 102.044 156.978 98.7149 156.978Z" stroke="white" stroke-width="2"/>
</g>
<path d="M59.1147 139.827C67.5443 139.827 74.3778 133.704 74.3778 126.151C74.3778 118.598 67.5443 112.475 59.1147 112.475C50.6851 112.475 43.8516 118.598 43.8516 126.151C43.8516 133.704 50.6851 139.827 59.1147 139.827Z" fill="#414042"/>
<path d="M69.5744 135.526C75.3511 130.35 75.3511 121.958 69.5744 116.782C63.7976 111.606 54.4317 111.606 48.655 116.782C42.8783 121.958 42.8783 130.35 48.655 135.526C54.4317 140.702 63.7976 140.702 69.5744 135.526Z" fill="#2E2E2E"/>
<path d="M59.1091 137.344C66.0082 137.344 71.6011 132.333 71.6011 126.151C71.6011 119.969 66.0082 114.958 59.1091 114.958C52.21 114.958 46.6172 119.969 46.6172 126.151C46.6172 132.333 52.21 137.344 59.1091 137.344Z" fill="url(#paint5_linear_473_10702)"/>
<g style="mix-blend-mode:multiply">
<path d="M59.1091 114.958C56.6384 114.958 54.2233 115.614 52.169 116.844C50.1147 118.074 48.5136 119.822 47.5681 121.868C46.6226 123.913 46.3752 126.163 46.8572 128.335C47.3392 130.506 48.529 132.5 50.276 134.066C52.023 135.631 54.2489 136.697 56.6721 137.129C59.0953 137.561 61.607 137.339 63.8896 136.492C66.1722 135.645 68.1232 134.21 69.4958 132.369C70.8684 130.529 71.6011 128.365 71.6011 126.151C71.6011 123.182 70.285 120.335 67.9423 118.236C65.5996 116.137 62.4222 114.958 59.1091 114.958ZM59.1091 135.327C57.0825 135.327 55.1013 134.788 53.4163 133.779C51.7313 132.77 50.4181 131.336 49.6428 129.658C48.8674 127.98 48.6648 126.134 49.0606 124.353C49.4564 122.572 50.4328 120.937 51.8662 119.653C53.2996 118.369 55.1258 117.495 57.1136 117.142C59.1014 116.788 61.1617 116.97 63.0338 117.666C64.9058 118.362 66.5056 119.539 67.6308 121.049C68.756 122.56 69.356 124.335 69.3549 126.151C69.3549 127.356 69.0898 128.55 68.5749 129.663C68.0599 130.777 67.3051 131.789 66.3537 132.641C65.4022 133.493 64.2726 134.169 63.0296 134.629C61.7866 135.09 60.4544 135.327 59.1091 135.327Z" fill="#E6E7E8"/>
</g>
<g style="mix-blend-mode:multiply">
<path d="M59.1091 137.344C66.0082 137.344 71.6011 132.333 71.6011 126.151C71.6011 119.969 66.0082 114.958 59.1091 114.958C52.21 114.958 46.6172 119.969 46.6172 126.151C46.6172 132.333 52.21 137.344 59.1091 137.344Z" stroke="#D1D3D4" stroke-width="2" stroke-miterlimit="10"/>
</g>
<g clip-path="url(#clip2_473_10702)">
<path d="M60.2789 122.353L57.9307 129.867M55.5825 123.855L53.2344 125.959L55.5825 128.063M62.9625 123.855L65.3106 125.959L62.9625 128.063" stroke="white" stroke-width="3" stroke-linecap="round" stroke-linejoin="round"/>
</g>
<path d="M97.8959 32.4204C106.326 32.4204 113.159 26.2974 113.159 18.7444C113.159 11.1913 106.326 5.06836 97.8959 5.06836C89.4663 5.06836 82.6328 11.1913 82.6328 18.7444C82.6328 26.2974 89.4663 32.4204 97.8959 32.4204Z" fill="#414042"/>
<path d="M108.356 28.1162C114.132 22.9402 114.132 14.5481 108.356 9.37209C102.579 4.19604 93.213 4.19605 87.4362 9.37209C81.6595 14.5481 81.6595 22.9402 87.4362 28.1162C93.213 33.2922 102.579 33.2922 108.356 28.1162Z" fill="#2E2E2E"/>
<path d="M97.8982 29.9377C104.797 29.9377 110.39 24.9265 110.39 18.7447C110.39 12.563 104.797 7.55176 97.8982 7.55176C90.9991 7.55176 85.4062 12.563 85.4062 18.7447C85.4062 24.9265 90.9991 29.9377 97.8982 29.9377Z" fill="url(#paint6_linear_473_10702)"/>
<g style="mix-blend-mode:multiply">
<path d="M97.8982 7.54736C95.4275 7.54736 93.0123 8.20382 90.958 9.43372C88.9038 10.6636 87.3026 12.4117 86.3571 14.457C85.4117 16.5022 85.1643 18.7528 85.6463 20.924C86.1283 23.0952 87.318 25.0896 89.0651 26.655C90.8121 28.2204 93.0379 29.2864 95.4611 29.7183C97.8843 30.1502 100.396 29.9285 102.679 29.0813C104.961 28.2342 106.912 26.7995 108.285 24.9588C109.657 23.1182 110.39 20.9541 110.39 18.7404C110.39 15.7718 109.074 12.9248 106.731 10.8257C104.389 8.72662 101.211 7.54736 97.8982 7.54736ZM97.8982 27.9159C95.8715 27.9168 93.8901 27.3792 92.2045 26.3711C90.5189 25.3629 89.2048 23.9295 88.4285 22.252C87.6522 20.5746 87.4485 18.7286 87.8432 16.9475C88.2379 15.1663 89.2133 13.5301 90.646 12.2457C92.0787 10.9613 93.9043 10.0865 95.8919 9.73187C97.8796 9.37725 99.9399 9.55877 101.812 10.2535C103.685 10.9482 105.285 12.1248 106.411 13.6347C107.538 15.1445 108.139 16.9196 108.139 18.7355C108.139 19.9411 107.875 21.135 107.361 22.2491C106.846 23.3631 106.092 24.3755 105.141 25.2284C104.191 26.0814 103.061 26.7581 101.819 27.2201C100.576 27.682 99.2437 27.9201 97.8982 27.9207V27.9159Z" fill="#E6E7E8"/>
</g>
<g style="mix-blend-mode:multiply">
<path d="M97.8982 29.9377C104.797 29.9377 110.39 24.9265 110.39 18.7447C110.39 12.563 104.797 7.55176 97.8982 7.55176C90.9991 7.55176 85.4062 12.563 85.4062 18.7447C85.4062 24.9265 90.9991 29.9377 97.8982 29.9377Z" stroke="#D1D3D4" stroke-width="2" stroke-miterlimit="10"/>
</g>
<path d="M103.551 13.3366C103.551 13.217 103.498 13.1023 103.404 13.0178C103.31 12.9332 103.182 12.8857 103.048 12.8857C102.915 12.8857 102.787 12.9332 102.692 13.0178C102.598 13.1023 102.545 13.217 102.545 13.3366V13.7875H102.042C101.908 13.7875 101.78 13.835 101.686 13.9195C101.592 14.0041 101.539 14.1187 101.539 14.2383C101.539 14.3579 101.592 14.4726 101.686 14.5571C101.78 14.6417 101.908 14.6892 102.042 14.6892H102.545V15.14C102.545 15.2596 102.598 15.3743 102.692 15.4588C102.787 15.5434 102.915 15.5909 103.048 15.5909C103.182 15.5909 103.31 15.5434 103.404 15.4588C103.498 15.3743 103.551 15.2596 103.551 15.14V14.6892H104.055C104.188 14.6892 104.316 14.6417 104.41 14.5571C104.505 14.4726 104.558 14.3579 104.558 14.2383C104.558 14.1187 104.505 14.0041 104.41 13.9195C104.316 13.835 104.188 13.7875 104.055 13.7875H103.551V13.3366ZM94.8867 13.9047C94.8956 13.8686 94.9167 13.8359 94.947 13.8109C94.9712 13.7893 94.9903 13.7875 94.9974 13.7875C95.0044 13.7875 95.0235 13.7893 95.0497 13.8109C95.0797 13.836 95.1004 13.8687 95.1091 13.9047C95.273 14.6293 95.67 15.2951 96.2513 15.8199C96.8369 16.341 97.5799 16.6971 98.3888 16.8443C98.4289 16.852 98.4654 16.8706 98.4934 16.8975C98.5176 16.92 98.5196 16.9371 98.5196 16.9434C98.5196 16.9498 98.5176 16.9669 98.4934 16.9903C98.4653 17.0169 98.4288 17.0351 98.3888 17.0426C97.5798 17.19 96.8367 17.5464 96.2513 18.0679C95.6702 18.5925 95.2732 19.2579 95.1091 19.9822C95.1004 20.0182 95.0797 20.0509 95.0497 20.076C95.0235 20.0976 95.0054 20.0994 94.9984 20.0994C94.9903 20.0994 94.9722 20.0976 94.946 20.076C94.9164 20.0508 94.896 20.0181 94.8877 19.9822C94.7232 19.2574 94.3254 18.5916 93.7434 18.067C93.1578 17.5459 92.4148 17.1898 91.6059 17.0426C91.5662 17.0347 91.53 17.0162 91.5023 16.9894C91.4781 16.9669 91.4751 16.9498 91.4751 16.9443C91.4751 16.9371 91.4771 16.9209 91.5013 16.8975C91.5293 16.8706 91.5658 16.852 91.6059 16.8443C92.4144 16.697 93.1571 16.3409 93.7424 15.8199C94.3248 15.2954 94.7219 14.6296 94.8867 13.9047ZM94.9974 12.8857C94.4177 12.8857 94.0011 13.2942 93.9024 13.7207C93.7778 14.2734 93.4752 14.7812 93.0319 15.1815C92.5852 15.5786 92.0185 15.8498 91.4016 15.9615C90.9256 16.0498 90.4688 16.4241 90.4698 16.9452C90.4708 17.4646 90.9266 17.837 91.4016 17.9254C91.8303 18.0048 92.4754 18.2049 93.0319 18.7045C93.5885 19.204 93.8129 19.782 93.9024 20.1662C94.0011 20.5927 94.4177 21.0011 94.9984 21.0011C95.579 21.0011 95.9947 20.5918 96.0943 20.1653C96.1828 19.782 96.4063 19.204 96.9638 18.7045C97.4106 18.3077 97.9774 18.0368 98.5941 17.9254C99.0701 17.837 99.526 17.4637 99.526 16.9434C99.526 16.4232 99.0701 16.0508 98.5941 15.9606C97.9775 15.8494 97.4107 15.5789 96.9638 15.1824C96.5209 14.782 96.2186 14.2742 96.0943 13.7216C95.9936 13.2933 95.579 12.8857 94.9974 12.8857ZM100.472 16.4926C100.553 16.7888 100.553 17.0981 100.472 17.3943H101.035C101.436 17.3943 101.82 17.5368 102.103 17.7905C102.386 18.0441 102.545 18.3881 102.545 18.7469V22.3537C102.545 22.7124 102.386 23.0565 102.103 23.3101C101.82 23.5638 101.436 23.7063 101.035 23.7063H97.0101C96.6097 23.7063 96.2258 23.5638 95.9427 23.3101C95.6596 23.0565 95.5005 22.7124 95.5005 22.3537V21.8488C95.17 21.9214 94.8247 21.9214 94.4942 21.8488V22.3537C94.4942 22.9516 94.7592 23.525 95.2311 23.9477C95.7029 24.3705 96.3428 24.608 97.0101 24.608H101.035C101.703 24.608 102.343 24.3705 102.814 23.9477C103.286 23.525 103.551 22.9516 103.551 22.3537V18.7469C103.551 18.149 103.286 17.5756 102.814 17.1529C102.343 16.7301 101.703 16.4926 101.035 16.4926H100.472ZM97.5132 19.6486C97.5132 19.529 97.5663 19.4143 97.6606 19.3298C97.755 19.2452 97.883 19.1977 98.0164 19.1977H100.532C100.666 19.1977 100.794 19.2452 100.888 19.3298C100.982 19.4143 101.035 19.529 101.035 19.6486C101.035 19.7682 100.982 19.8828 100.888 19.9674C100.794 20.0519 100.666 20.0994 100.532 20.0994H98.0164C97.883 20.0994 97.755 20.0519 97.6606 19.9674C97.5663 19.8828 97.5132 19.7682 97.5132 19.6486ZM98.0164 21.0011C97.883 21.0011 97.755 21.0486 97.6606 21.1332C97.5663 21.2178 97.5132 21.3324 97.5132 21.452C97.5132 21.5716 97.5663 21.6863 97.6606 21.7708C97.755 21.8554 97.883 21.9029 98.0164 21.9029H99.526C99.6594 21.9029 99.7874 21.8554 99.8818 21.7708C99.9761 21.6863 100.029 21.5716 100.029 21.452C100.029 21.3324 99.9761 21.2178 99.8818 21.1332C99.7874 21.0486 99.6594 21.0011 99.526 21.0011H98.0164ZM91.9783 22.8046C92.1117 22.8046 92.2397 22.8521 92.3341 22.9366C92.4284 23.0212 92.4815 23.1359 92.4815 23.2554V23.7063H92.9846C93.1181 23.7063 93.2461 23.7538 93.3404 23.8383C93.4348 23.9229 93.4878 24.0376 93.4878 24.1571C93.4878 24.2767 93.4348 24.3914 93.3404 24.4759C93.2461 24.5605 93.1181 24.608 92.9846 24.608H92.4815V25.0589C92.4815 25.1784 92.4284 25.2931 92.3341 25.3777C92.2397 25.4622 92.1117 25.5097 91.9783 25.5097C91.8448 25.5097 91.7168 25.4622 91.6225 25.3777C91.5281 25.2931 91.4751 25.1784 91.4751 25.0589V24.608H90.9719C90.8385 24.608 90.7105 24.5605 90.6161 24.4759C90.5218 24.3914 90.4688 24.2767 90.4688 24.1571C90.4688 24.0376 90.5218 23.9229 90.6161 23.8383C90.7105 23.7538 90.8385 23.7063 90.9719 23.7063H91.4751V23.2554C91.4751 23.1359 91.5281 23.0212 91.6225 22.9366C91.7168 22.8521 91.8448 22.8046 91.9783 22.8046Z" fill="white"/>
<path d="M185.068 57.7026C193.497 57.7026 200.331 51.5796 200.331 44.0266C200.331 36.4735 193.497 30.3506 185.068 30.3506C176.638 30.3506 169.805 36.4735 169.805 44.0266C169.805 51.5796 176.638 57.7026 185.068 57.7026Z" fill="#414042"/>
<path d="M195.528 53.3965C201.304 48.2204 201.304 39.8284 195.528 34.6523C189.751 29.4763 180.385 29.4763 174.608 34.6524C168.831 39.8284 168.831 48.2204 174.608 53.3965C180.385 58.5725 189.751 58.5725 195.528 53.3965Z" fill="#2E2E2E"/>
<path d="M185.07 55.2195C191.969 55.2195 197.562 50.2082 197.562 44.0265C197.562 37.8448 191.969 32.8335 185.07 32.8335C178.171 32.8335 172.578 37.8448 172.578 44.0265C172.578 50.2082 178.171 55.2195 185.07 55.2195Z" fill="url(#paint7_linear_473_10702)"/>
<g style="mix-blend-mode:multiply">
<path d="M172.578 44.0106C172.57 46.226 173.295 48.3939 174.662 50.2397C176.03 52.0854 177.978 53.5261 180.26 54.3792C182.541 55.2324 185.055 55.4596 187.481 55.0321C189.907 54.6046 192.136 53.5416 193.888 51.9778C195.639 50.414 196.833 48.4197 197.319 46.2474C197.804 44.0751 197.559 41.8226 196.615 39.7751C195.671 37.7276 194.07 35.9772 192.015 34.7455C189.96 33.5139 187.543 32.8565 185.07 32.8564C181.765 32.8564 178.594 34.0304 176.252 36.1211C173.911 38.2118 172.59 41.0488 172.578 44.0106ZM174.824 44.0106C174.832 42.1964 175.439 40.4248 176.569 38.9196C177.7 37.4143 179.303 36.2429 181.175 35.5533C183.048 34.8637 185.107 34.6867 187.092 35.0448C189.077 35.4028 190.899 36.2798 192.328 37.5651C193.757 38.8503 194.729 40.4861 195.122 42.266C195.514 44.0459 195.309 45.89 194.532 47.5656C193.756 49.2411 192.443 50.6729 190.758 51.6801C189.074 52.6874 187.095 53.225 185.07 53.225C183.721 53.225 182.386 52.9864 181.14 52.5229C179.895 52.0594 178.764 51.3802 177.812 50.5241C176.86 49.668 176.106 48.652 175.593 47.5342C175.081 46.4165 174.819 45.2191 174.824 44.0106Z" fill="#E6E7E8"/>
</g>
<path d="M185.07 55.2195C191.969 55.2195 197.562 50.2082 197.562 44.0265C197.562 37.8448 191.969 32.8335 185.07 32.8335C178.171 32.8335 172.578 37.8448 172.578 44.0265C172.578 50.2082 178.171 55.2195 185.07 55.2195Z" fill="url(#paint8_linear_473_10702)"/>
<path d="M181.91 38.7941C181.91 39.1129 181.769 39.4188 181.517 39.6442C181.266 39.8697 180.924 39.9964 180.568 39.9964M181.91 38.7941C181.91 38.5563 181.831 38.3238 181.684 38.1261C181.537 37.9284 181.327 37.7743 181.082 37.6833C180.837 37.5923 180.567 37.5685 180.307 37.6149C180.046 37.6613 179.807 37.7758 179.62 37.9439C179.432 38.1121 179.304 38.3263 179.252 38.5595C179.201 38.7927 179.227 39.0345 179.329 39.2542C179.43 39.4739 179.602 39.6616 179.823 39.7937C180.044 39.9258 180.303 39.9964 180.568 39.9964M181.91 38.7941H183.923M180.568 39.9964V41.7998" stroke="white" stroke-width="2" stroke-linecap="round" stroke-linejoin="round"/>
<path d="M181.91 47.2088C181.91 46.89 181.769 46.5842 181.517 46.3587C181.266 46.1332 180.924 46.0065 180.568 46.0065M181.91 47.2088C181.91 47.4466 181.831 47.6791 181.684 47.8768C181.537 48.0745 181.327 48.2286 181.082 48.3196C180.837 48.4106 180.567 48.4344 180.307 48.388C180.046 48.3416 179.807 48.2271 179.62 48.059C179.432 47.8908 179.304 47.6766 179.252 47.4434C179.201 47.2102 179.227 46.9684 179.329 46.7487C179.43 46.529 179.602 46.3413 179.823 46.2092C180.044 46.0771 180.303 46.0065 180.568 46.0065M181.91 47.2088H183.923M180.568 46.0065V44.2031" stroke="white" stroke-width="2" stroke-linecap="round" stroke-linejoin="round"/>
<path d="M188.622 47.2088C188.622 46.89 188.763 46.5842 189.015 46.3587C189.267 46.1332 189.608 46.0065 189.964 46.0065M188.622 47.2088C188.622 47.4466 188.701 47.6791 188.848 47.8768C188.996 48.0745 189.205 48.2286 189.45 48.3196C189.696 48.4106 189.965 48.4344 190.226 48.388C190.486 48.3416 190.725 48.2271 190.913 48.059C191.1 47.8908 191.228 47.6766 191.28 47.4434C191.332 47.2102 191.305 46.9684 191.204 46.7487C191.102 46.529 190.93 46.3413 190.709 46.2092C190.489 46.0771 190.229 46.0065 189.964 46.0065M188.622 47.2088H186.609M189.964 46.0065V44.2031" stroke="white" stroke-width="2" stroke-linecap="round" stroke-linejoin="round"/>
<path d="M188.617 38.7941C188.617 39.1129 188.758 39.4188 189.01 39.6442C189.261 39.8697 189.603 39.9964 189.959 39.9964M188.617 38.7941C188.617 38.5563 188.695 38.3238 188.843 38.1261C188.99 37.9284 189.2 37.7743 189.445 37.6833C189.69 37.5923 189.96 37.5685 190.22 37.6149C190.481 37.6613 190.72 37.7758 190.907 37.9439C191.095 38.1121 191.223 38.3263 191.275 38.5595C191.326 38.7927 191.3 39.0345 191.198 39.2542C191.097 39.4739 190.925 39.6616 190.704 39.7937C190.483 39.9258 190.224 39.9964 189.959 39.9964M188.617 38.7941H186.604M189.959 39.9964V41.7998M182.914 43.0021H187.61M185.262 45.1061V40.8981" stroke="white" stroke-width="2" stroke-linecap="round" stroke-linejoin="round"/>
<path d="M199.857 98.7631C208.286 98.7631 215.12 92.6402 215.12 85.0871C215.12 77.5341 208.286 71.4111 199.857 71.4111C191.427 71.4111 184.594 77.5341 184.594 85.0871C184.594 92.6402 191.427 98.7631 199.857 98.7631Z" fill="#414042"/>
<path d="M213.524 90.1617C216.651 83.3989 213.067 75.6457 205.519 72.8445C197.971 70.0432 189.318 73.2547 186.192 80.0175C183.066 86.7803 186.65 94.5336 194.197 97.3348C201.745 100.136 210.398 96.9246 213.524 90.1617Z" fill="#2E2E2E"/>
<path d="M199.851 96.2815C206.75 96.2815 212.343 91.2702 212.343 85.0885C212.343 78.9068 206.75 73.8955 199.851 73.8955C192.952 73.8955 187.359 78.9068 187.359 85.0885C187.359 91.2702 192.952 96.2815 199.851 96.2815Z" fill="url(#paint9_linear_473_10702)"/>
<g style="mix-blend-mode:multiply">
<path d="M187.367 85.0885C187.367 87.3025 188.1 89.4667 189.473 91.3075C190.846 93.1483 192.797 94.5829 195.08 95.4299C197.363 96.277 199.875 96.4983 202.298 96.0661C204.722 95.6338 206.947 94.5673 208.694 93.0014C210.441 91.4356 211.63 89.4407 212.112 87.2692C212.593 85.0976 212.345 82.8469 211.399 80.8018C210.452 78.7566 208.85 77.0088 206.795 75.7795C204.74 74.5502 202.325 73.8945 199.854 73.8955C198.214 73.8955 196.589 74.1851 195.074 74.7476C193.559 75.3102 192.182 76.1347 191.022 77.1742C189.863 78.2136 188.943 79.4475 188.316 80.8055C187.689 82.1635 187.366 83.6188 187.367 85.0885ZM189.613 85.0885C189.612 83.2724 190.212 81.4968 191.338 79.9863C192.463 78.4759 194.063 77.2985 195.936 76.603C197.808 75.9076 199.869 75.7254 201.857 76.0794C203.845 76.4335 205.671 77.3079 207.104 78.5921C208.537 79.8763 209.513 81.5126 209.908 83.2938C210.303 85.0751 210.1 86.9214 209.324 88.5991C208.548 90.2768 207.234 91.7105 205.548 92.7189C203.862 93.7273 201.881 94.265 199.854 94.264C197.138 94.2627 194.534 93.2956 192.614 91.5752C190.694 89.8547 189.615 87.5216 189.613 85.0885Z" fill="#E6E7E8"/>
</g>
<g style="mix-blend-mode:multiply">
<path d="M199.851 96.2815C206.75 96.2815 212.343 91.2702 212.343 85.0885C212.343 78.9068 206.75 73.8955 199.851 73.8955C192.952 73.8955 187.359 78.9068 187.359 85.0885C187.359 91.2702 192.952 96.2815 199.851 96.2815Z" stroke="#D1D3D4" stroke-width="2" stroke-miterlimit="10"/>
</g>
<path d="M205.537 79.2061H193.964C193.686 79.2061 193.461 79.4075 193.461 79.6569V90.0266C193.461 90.276 193.686 90.4775 193.964 90.4775H205.537C205.816 90.4775 206.04 90.276 206.04 90.0266V79.6569C206.04 79.4075 205.816 79.2061 205.537 79.2061ZM204.908 89.463H194.593V80.2205H204.908V89.463ZM197.046 87.251V88.3359C197.046 88.3979 197.103 88.4486 197.172 88.4486H197.927C197.996 88.4486 198.052 88.3979 198.052 88.3359V87.251C197.894 87.2975 197.725 87.3215 197.549 87.3215C197.373 87.3215 197.205 87.2961 197.046 87.251ZM198.052 84.4613V81.3476C198.052 81.2856 197.996 81.2349 197.927 81.2349H197.172C197.103 81.2349 197.046 81.2856 197.046 81.3476V84.4613C197.205 84.4148 197.373 84.3909 197.549 84.3909C197.725 84.3909 197.894 84.4163 198.052 84.4613ZM197.046 87.251C197.205 87.2975 197.373 87.3215 197.549 87.3215C197.725 87.3215 197.894 87.2961 198.052 87.251C198.71 87.0608 199.185 86.5085 199.185 85.8562C199.185 85.2038 198.71 84.6515 198.052 84.4613C197.894 84.4148 197.725 84.3909 197.549 84.3909C197.373 84.3909 197.205 84.4163 197.046 84.4613C196.389 84.6515 195.914 85.2038 195.914 85.8562C195.914 86.5085 196.389 87.0608 197.046 87.251ZM197.048 85.6209C197.052 85.6124 197.059 85.604 197.063 85.5955V85.5941L197.082 85.5688C197.084 85.5659 197.085 85.5645 197.087 85.5617C197.092 85.5547 197.098 85.549 197.103 85.542C197.104 85.5406 197.106 85.5378 197.107 85.5364C197.115 85.5279 197.122 85.5209 197.129 85.5138L197.134 85.5096L197.153 85.4927L197.159 85.487C197.167 85.48 197.175 85.4744 197.184 85.4673C197.194 85.4603 197.202 85.4546 197.211 85.449C197.214 85.4476 197.216 85.4462 197.219 85.4448C197.227 85.4405 197.233 85.4349 197.241 85.4307C197.243 85.4293 197.246 85.4279 197.247 85.4265C197.257 85.4208 197.266 85.4166 197.277 85.411C197.279 85.4096 197.282 85.4096 197.284 85.4081C197.291 85.4039 197.299 85.4011 197.309 85.3969L197.318 85.3926C197.329 85.3884 197.339 85.3842 197.35 85.3814C197.361 85.3771 197.372 85.3743 197.383 85.3715C197.386 85.3701 197.389 85.3701 197.392 85.3687C197.401 85.3659 197.409 85.3645 197.419 85.3631C197.422 85.3631 197.423 85.3616 197.427 85.3616C197.438 85.3588 197.45 85.3574 197.461 85.356C197.464 85.356 197.466 85.356 197.469 85.3546C197.478 85.3532 197.488 85.3532 197.497 85.3518H197.507C197.519 85.3518 197.53 85.3504 197.543 85.3504C197.556 85.3504 197.567 85.3504 197.579 85.3518H197.589C197.598 85.3518 197.607 85.3532 197.617 85.3546C197.62 85.3546 197.622 85.3546 197.625 85.356C197.636 85.3574 197.648 85.3588 197.659 85.3616C197.662 85.3616 197.664 85.3631 197.667 85.3631C197.677 85.3645 197.686 85.3673 197.694 85.3687C197.697 85.3701 197.7 85.3701 197.703 85.3715C197.714 85.3743 197.725 85.3771 197.736 85.3814C197.747 85.3842 197.757 85.3884 197.768 85.3926L197.777 85.3969C197.785 85.3997 197.795 85.4039 197.802 85.4081C197.804 85.4096 197.807 85.4096 197.809 85.411C197.818 85.4152 197.829 85.4208 197.839 85.4265C197.84 85.4279 197.843 85.4293 197.845 85.4307C197.853 85.4349 197.861 85.4391 197.867 85.4448C197.87 85.4462 197.872 85.4476 197.875 85.449C197.884 85.4546 197.894 85.4617 197.901 85.4673C197.909 85.473 197.919 85.48 197.927 85.487L197.933 85.4927L197.952 85.5096L197.957 85.5138C197.964 85.5209 197.972 85.5293 197.979 85.5364C197.98 85.5378 197.982 85.5406 197.983 85.542C197.99 85.5476 197.994 85.5547 197.999 85.5617C198.001 85.5645 198.002 85.5659 198.004 85.5688L198.023 85.5941C198.023 85.5941 198.023 85.5955 198.024 85.5955C198.077 85.6744 198.104 85.7644 198.104 85.8562C198.104 85.9407 198.081 86.021 198.04 86.0915C198.035 86.0999 198.029 86.1084 198.024 86.1168C198.024 86.1168 198.024 86.1182 198.023 86.1182L198.004 86.1436C198.002 86.1464 198.001 86.1478 197.999 86.1506C197.994 86.1577 197.988 86.1633 197.983 86.1704C197.982 86.1718 197.98 86.1746 197.979 86.176C197.971 86.1845 197.964 86.1915 197.957 86.1985L197.952 86.2028L197.933 86.2197L197.927 86.2253C197.919 86.2324 197.911 86.238 197.901 86.245C197.892 86.2521 197.884 86.2577 197.875 86.2634C197.872 86.2648 197.87 86.2662 197.867 86.2676C197.859 86.2718 197.853 86.2774 197.845 86.2817C197.843 86.2831 197.84 86.2845 197.839 86.2859C197.829 86.2915 197.82 86.2958 197.809 86.3014C197.807 86.3028 197.804 86.3028 197.802 86.3042C197.795 86.3084 197.787 86.3113 197.777 86.3155L197.768 86.3197C197.757 86.3239 197.747 86.3282 197.736 86.331C197.725 86.3352 197.714 86.338 197.703 86.3409C197.7 86.3423 197.697 86.3423 197.694 86.3437C197.684 86.3465 197.677 86.3479 197.667 86.3493C197.664 86.3493 197.662 86.3507 197.659 86.3507C197.648 86.3535 197.636 86.3549 197.625 86.3563C197.622 86.3563 197.62 86.3563 197.617 86.3578C197.607 86.3592 197.598 86.3592 197.589 86.3606H197.579C197.567 86.3606 197.556 86.362 197.543 86.362C197.53 86.362 197.519 86.362 197.507 86.3606H197.497C197.488 86.3606 197.478 86.3592 197.469 86.3578C197.466 86.3578 197.464 86.3578 197.461 86.3563C197.45 86.3549 197.438 86.3535 197.427 86.3507C197.423 86.3507 197.422 86.3493 197.419 86.3493C197.409 86.3479 197.4 86.3451 197.392 86.3437C197.389 86.3423 197.386 86.3423 197.383 86.3409C197.372 86.338 197.361 86.3352 197.35 86.331C197.339 86.3282 197.329 86.3239 197.318 86.3197L197.309 86.3155C197.301 86.3127 197.291 86.3084 197.284 86.3042C197.282 86.3028 197.279 86.3028 197.277 86.3014C197.268 86.2972 197.257 86.2915 197.247 86.2859C197.246 86.2845 197.243 86.2831 197.241 86.2817C197.233 86.2774 197.225 86.2732 197.219 86.2676C197.216 86.2662 197.214 86.2648 197.211 86.2634C197.202 86.2577 197.192 86.2507 197.184 86.245C197.177 86.2394 197.167 86.2324 197.159 86.2253L197.153 86.2197L197.134 86.2028L197.129 86.1985C197.122 86.1915 197.114 86.1831 197.107 86.176C197.106 86.1746 197.104 86.1718 197.103 86.1704C197.096 86.1647 197.092 86.1577 197.087 86.1506C197.085 86.1478 197.084 86.1464 197.082 86.1436L197.063 86.1182V86.1168C197.057 86.1084 197.052 86.0999 197.048 86.0915C197.007 86.021 196.983 85.9407 196.983 85.8562C196.983 85.7716 197.007 85.6913 197.048 85.6209ZM201.449 85.2222V88.3359C201.449 88.3979 201.505 88.4486 201.575 88.4486H202.329C202.399 88.4486 202.455 88.3979 202.455 88.3359V85.2222C202.296 85.2687 202.128 85.2926 201.952 85.2926C201.776 85.2926 201.608 85.2672 201.449 85.2222ZM202.455 82.4325V81.3476C202.455 81.2856 202.399 81.2349 202.329 81.2349H201.575C201.505 81.2349 201.449 81.2856 201.449 81.3476V82.4325C201.608 82.386 201.776 82.362 201.952 82.362C202.128 82.362 202.296 82.3874 202.455 82.4325ZM201.449 85.2222C201.608 85.2687 201.776 85.2926 201.952 85.2926C202.128 85.2926 202.296 85.2672 202.455 85.2222C203.113 85.032 203.587 84.4797 203.587 83.8273C203.587 83.175 203.113 82.6227 202.455 82.4325C202.296 82.386 202.128 82.362 201.952 82.362C201.776 82.362 201.608 82.3874 201.449 82.4325C200.792 82.6227 200.317 83.175 200.317 83.8273C200.317 84.4797 200.792 85.032 201.449 85.2222ZM201.45 83.592C201.455 83.5836 201.461 83.5751 201.466 83.5667V83.5653L201.485 83.5399C201.487 83.5371 201.488 83.5357 201.49 83.5329C201.494 83.5258 201.501 83.5202 201.505 83.5131C201.507 83.5117 201.509 83.5089 201.51 83.5075C201.518 83.499 201.524 83.492 201.532 83.485L201.537 83.4807L201.556 83.4638L201.562 83.4582C201.57 83.4511 201.578 83.4455 201.587 83.4385C201.597 83.4314 201.605 83.4258 201.614 83.4201C201.617 83.4187 201.619 83.4173 201.622 83.4159C201.63 83.4117 201.636 83.4061 201.644 83.4018C201.645 83.4004 201.649 83.399 201.65 83.3976C201.66 83.392 201.669 83.3877 201.68 83.3821C201.682 83.3807 201.685 83.3807 201.686 83.3793C201.694 83.3751 201.702 83.3722 201.711 83.368L201.721 83.3638C201.732 83.3596 201.741 83.3553 201.752 83.3525C201.763 83.3483 201.774 83.3455 201.785 83.3427C201.789 83.3412 201.792 83.3412 201.795 83.3398C201.804 83.337 201.812 83.3356 201.822 83.3342C201.825 83.3342 201.826 83.3328 201.829 83.3328C201.84 83.33 201.853 83.3286 201.864 83.3272C201.867 83.3272 201.869 83.3272 201.872 83.3258C201.881 83.3243 201.891 83.3243 201.9 83.3229H201.91C201.922 83.3229 201.933 83.3215 201.946 83.3215C201.958 83.3215 201.969 83.3215 201.982 83.3229H201.991C202.001 83.3229 202.01 83.3243 202.02 83.3258C202.023 83.3258 202.024 83.3258 202.028 83.3272C202.039 83.3286 202.051 83.33 202.062 83.3328C202.065 83.3328 202.067 83.3342 202.07 83.3342C202.079 83.3356 202.089 83.3384 202.097 83.3398C202.1 83.3412 202.103 83.3412 202.106 83.3427C202.117 83.3455 202.128 83.3483 202.139 83.3525C202.15 83.3553 202.16 83.3596 202.171 83.3638L202.18 83.368C202.188 83.3708 202.197 83.3751 202.205 83.3793C202.207 83.3807 202.21 83.3807 202.212 83.3821C202.221 83.3863 202.232 83.392 202.241 83.3976C202.243 83.399 202.246 83.4004 202.248 83.4018C202.256 83.4061 202.263 83.4103 202.27 83.4159C202.273 83.4173 202.274 83.4187 202.278 83.4201C202.287 83.4258 202.296 83.4328 202.304 83.4385C202.312 83.4441 202.322 83.4511 202.329 83.4582L202.336 83.4638L202.355 83.4807L202.359 83.485C202.367 83.492 202.375 83.5005 202.381 83.5075C202.383 83.5089 202.384 83.5117 202.386 83.5131C202.392 83.5188 202.397 83.5258 202.402 83.5329C202.403 83.5357 202.405 83.5371 202.406 83.5399L202.425 83.5653V83.5667C202.478 83.6455 202.505 83.7356 202.506 83.8273C202.506 83.9119 202.482 83.9922 202.441 84.0626C202.436 84.0711 202.43 84.0795 202.425 84.088V84.0894L202.406 84.1147C202.405 84.1176 202.403 84.119 202.402 84.1218C202.397 84.1288 202.391 84.1345 202.386 84.1415C202.384 84.1429 202.383 84.1457 202.381 84.1472C202.373 84.1556 202.367 84.1627 202.359 84.1697L202.355 84.1739L202.336 84.1908L202.329 84.1965C202.322 84.2035 202.314 84.2091 202.304 84.2162C202.295 84.2232 202.287 84.2289 202.278 84.2345C202.274 84.2359 202.273 84.2373 202.27 84.2387C202.262 84.243 202.256 84.2486 202.248 84.2528C202.246 84.2542 202.243 84.2556 202.241 84.2571C202.232 84.2627 202.223 84.2669 202.212 84.2725C202.21 84.274 202.207 84.274 202.205 84.2754C202.197 84.2796 202.19 84.2824 202.18 84.2866L202.171 84.2909C202.16 84.2951 202.15 84.2993 202.139 84.3021C202.128 84.3064 202.117 84.3092 202.106 84.312C202.103 84.3134 202.1 84.3134 202.097 84.3148C202.087 84.3176 202.079 84.319 202.07 84.3205C202.067 84.3205 202.065 84.3219 202.062 84.3219C202.051 84.3247 202.039 84.3261 202.028 84.3275C202.024 84.3275 202.023 84.3275 202.02 84.3289C202.01 84.3303 202.001 84.3303 201.991 84.3317H201.982C201.969 84.3317 201.958 84.3331 201.946 84.3331C201.933 84.3331 201.922 84.3331 201.91 84.3317H201.9C201.891 84.3317 201.881 84.3303 201.872 84.3289C201.869 84.3289 201.867 84.3289 201.864 84.3275C201.853 84.3261 201.84 84.3247 201.829 84.3219C201.826 84.3219 201.825 84.3205 201.822 84.3205C201.812 84.319 201.803 84.3162 201.795 84.3148C201.792 84.3134 201.789 84.3134 201.785 84.312C201.774 84.3092 201.763 84.3064 201.752 84.3021C201.741 84.2993 201.732 84.2951 201.721 84.2909L201.711 84.2866C201.704 84.2838 201.694 84.2796 201.686 84.2754C201.685 84.274 201.682 84.274 201.68 84.2725C201.671 84.2683 201.66 84.2627 201.65 84.2571C201.649 84.2556 201.645 84.2542 201.644 84.2528C201.636 84.2486 201.628 84.2444 201.622 84.2387C201.619 84.2373 201.617 84.2359 201.614 84.2345C201.605 84.2289 201.595 84.2218 201.587 84.2162C201.579 84.2106 201.57 84.2035 201.562 84.1965L201.556 84.1908L201.537 84.1739L201.532 84.1697C201.524 84.1627 201.517 84.1542 201.51 84.1472C201.509 84.1457 201.507 84.1429 201.505 84.1415C201.499 84.1359 201.494 84.1288 201.49 84.1218C201.488 84.119 201.487 84.1176 201.485 84.1147L201.466 84.0894V84.088C201.46 84.0795 201.455 84.0711 201.45 84.0626C201.41 83.9922 201.386 83.9119 201.386 83.8273C201.386 83.7428 201.41 83.6625 201.45 83.592Z" fill="white"/>
<path d="M185.068 139.827C193.497 139.827 200.331 133.704 200.331 126.151C200.331 118.598 193.497 112.475 185.068 112.475C176.638 112.475 169.805 118.598 169.805 126.151C169.805 133.704 176.638 139.827 185.068 139.827Z" fill="#414042"/>
<path d="M195.528 135.522C201.304 130.346 201.304 121.954 195.528 116.778C189.751 111.602 180.385 111.602 174.608 116.778C168.831 121.954 168.831 130.346 174.608 135.522C180.385 140.698 189.751 140.698 195.528 135.522Z" fill="#2E2E2E"/>
<path d="M185.07 137.344C191.969 137.344 197.562 132.333 197.562 126.151C197.562 119.969 191.969 114.958 185.07 114.958C178.171 114.958 172.578 119.969 172.578 126.151C172.578 132.333 178.171 137.344 185.07 137.344Z" fill="url(#paint10_linear_473_10702)"/>
<g style="mix-blend-mode:multiply">
<path d="M172.578 126.151C172.578 128.365 173.311 130.529 174.683 132.369C176.056 134.21 178.007 135.645 180.29 136.492C182.572 137.339 185.084 137.561 187.507 137.129C189.93 136.697 192.156 135.631 193.903 134.066C195.65 132.5 196.84 130.506 197.322 128.335C197.804 126.163 197.557 123.913 196.611 121.868C195.666 119.822 194.065 118.074 192.01 116.844C189.956 115.614 187.541 114.958 185.07 114.958C181.757 114.958 178.58 116.137 176.237 118.236C173.894 120.335 172.578 123.182 172.578 126.151ZM174.824 126.151C174.823 124.335 175.423 122.56 176.548 121.049C177.674 119.539 179.273 118.362 181.145 117.666C183.018 116.97 185.078 116.788 187.066 117.142C189.053 117.495 190.88 118.369 192.313 119.653C193.746 120.937 194.723 122.572 195.119 124.353C195.514 126.134 195.312 127.98 194.536 129.658C193.761 131.336 192.448 132.77 190.763 133.779C189.078 134.788 187.097 135.327 185.07 135.327C182.354 135.325 179.75 134.358 177.829 132.638C175.908 130.918 174.827 128.585 174.824 126.151Z" fill="#E6E7E8"/>
</g>
<g style="mix-blend-mode:multiply">
<path d="M185.07 137.344C191.969 137.344 197.562 132.333 197.562 126.151C197.562 119.969 191.969 114.958 185.07 114.958C178.171 114.958 172.578 119.969 172.578 126.151C172.578 132.333 178.171 137.344 185.07 137.344Z" stroke="#D1D3D4" stroke-width="2" stroke-miterlimit="10"/>
</g>
<g clip-path="url(#clip3_473_10702)">
<path fill-rule="evenodd" clip-rule="evenodd" d="M185.262 132.181C186.997 132.181 188.66 131.564 189.887 130.465C191.114 129.365 191.803 127.875 191.803 126.32C191.803 124.766 191.114 123.275 189.887 122.176C188.66 121.077 186.997 120.459 185.262 120.459C183.527 120.459 181.863 121.077 180.636 122.176C179.41 123.275 178.72 124.766 178.72 126.32C178.72 127.875 179.41 129.365 180.636 130.465C181.863 131.564 183.527 132.181 185.262 132.181ZM185.262 133.534C187.397 133.534 189.445 132.774 190.955 131.421C192.464 130.068 193.313 128.233 193.313 126.32C193.313 124.407 192.464 122.572 190.955 121.219C189.445 119.866 187.397 119.106 185.262 119.106C183.127 119.106 181.079 119.866 179.569 121.219C178.059 122.572 177.211 124.407 177.211 126.32C177.211 128.233 178.059 130.068 179.569 131.421C181.079 132.774 183.127 133.534 185.262 133.534ZM186.268 129.025C186.268 129.264 186.162 129.494 185.973 129.663C185.785 129.832 185.529 129.927 185.262 129.927C184.995 129.927 184.739 129.832 184.55 129.663C184.361 129.494 184.255 129.264 184.255 129.025C184.255 128.786 184.361 128.557 184.55 128.388C184.739 128.219 184.995 128.124 185.262 128.124C185.529 128.124 185.785 128.219 185.973 128.388C186.162 128.557 186.268 128.786 186.268 129.025ZM186.017 123.39C186.017 123.21 185.937 123.038 185.795 122.911C185.654 122.785 185.462 122.713 185.262 122.713C185.062 122.713 184.87 122.785 184.728 122.911C184.587 123.038 184.507 123.21 184.507 123.39V126.546C184.507 126.725 184.587 126.897 184.728 127.024C184.87 127.151 185.062 127.222 185.262 127.222C185.462 127.222 185.654 127.151 185.795 127.024C185.937 126.897 186.017 126.725 186.017 126.546V123.39Z" fill="white"/>
</g>
<path d="M156.956 161.103C162.917 155.762 162.917 147.103 156.956 141.762C150.995 136.421 141.331 136.421 135.371 141.762C129.41 147.103 129.41 155.762 135.371 161.103C141.331 166.444 150.995 166.444 156.956 161.103Z" fill="#414042"/>
<path d="M156.621 160.805C162.398 155.629 162.398 147.237 156.621 142.061C150.845 136.885 141.479 136.885 135.702 142.061C129.925 147.237 129.925 155.629 135.702 160.805C141.479 165.981 150.845 165.981 156.621 160.805Z" fill="#2E2E2E"/>
<path d="M146.164 162.629C153.063 162.629 158.656 157.618 158.656 151.436C158.656 145.254 153.063 140.243 146.164 140.243C139.265 140.243 133.672 145.254 133.672 151.436C133.672 157.618 139.265 162.629 146.164 162.629Z" fill="url(#paint11_linear_473_10702)"/>
<g style="mix-blend-mode:multiply">
<path d="M133.672 151.431C133.671 153.645 134.403 155.81 135.775 157.651C137.147 159.492 139.097 160.928 141.38 161.776C143.662 162.624 146.174 162.846 148.598 162.415C151.021 161.983 153.247 160.918 154.995 159.353C156.743 157.787 157.933 155.793 158.415 153.622C158.898 151.45 158.651 149.199 157.705 147.154C156.76 145.108 155.159 143.36 153.105 142.13C151.05 140.9 148.635 140.243 146.164 140.243C142.852 140.243 139.675 141.422 137.333 143.52C134.99 145.618 133.673 148.464 133.672 151.431ZM135.918 151.431C135.918 149.616 136.519 147.841 137.645 146.331C138.771 144.821 140.371 143.645 142.243 142.95C144.115 142.255 146.175 142.073 148.163 142.427C150.15 142.782 151.976 143.656 153.409 144.94C154.842 146.224 155.817 147.859 156.213 149.64C156.608 151.421 156.405 153.267 155.63 154.944C154.854 156.622 153.541 158.056 151.856 159.065C150.171 160.073 148.19 160.612 146.164 160.612C143.446 160.612 140.84 159.644 138.919 157.923C136.998 156.201 135.918 153.866 135.918 151.431Z" fill="#E6E7E8"/>
</g>
<g style="mix-blend-mode:multiply">
<path d="M146.164 162.629C153.063 162.629 158.656 157.618 158.656 151.436C158.656 145.254 153.063 140.243 146.164 140.243C139.265 140.243 133.672 145.254 133.672 151.436C133.672 157.618 139.265 162.629 146.164 162.629Z" stroke="#D1D3D4" stroke-width="2" stroke-miterlimit="10"/>
</g>
<path d="M152.256 147.842C152.256 149.171 149.552 150.247 146.218 150.247C142.883 150.247 140.18 149.171 140.18 147.842M152.256 147.842C152.256 146.514 149.552 145.438 146.218 145.438C142.883 145.438 140.18 146.514 140.18 147.842M152.256 147.842V150.848M140.18 147.842V150.848M152.256 150.848C152.256 152.176 149.552 153.252 146.218 153.252C142.883 153.252 140.18 152.176 140.18 150.848M152.256 150.848V153.853C152.256 155.182 149.552 156.258 146.218 156.258C142.883 156.258 140.18 155.182 140.18 153.853V150.848" stroke="white" stroke-width="2" stroke-linecap="round" stroke-linejoin="round"/>
<path d="M146.279 32.4204C154.708 32.4204 161.542 26.2974 161.542 18.7444C161.542 11.1913 154.708 5.06836 146.279 5.06836C137.849 5.06836 131.016 11.1913 131.016 18.7444C131.016 26.2974 137.849 32.4204 146.279 32.4204Z" fill="#414042"/>
<path d="M156.738 28.1172C162.515 22.9411 162.515 14.5491 156.738 9.37306C150.962 4.19702 141.596 4.19701 135.819 9.37306C130.042 14.5491 130.042 22.9411 135.819 28.1172C141.596 33.2932 150.962 33.2932 156.738 28.1172Z" fill="#2E2E2E"/>
<path d="M146.281 29.9377C153.18 29.9377 158.773 24.9265 158.773 18.7447C158.773 12.563 153.18 7.55176 146.281 7.55176C139.382 7.55176 133.789 12.563 133.789 18.7447C133.789 24.9265 139.382 29.9377 146.281 29.9377Z" fill="url(#paint12_linear_473_10702)"/>
<g style="mix-blend-mode:multiply">
<path d="M133.789 18.7404C133.789 20.9541 134.522 23.1182 135.894 24.9588C137.267 26.7995 139.218 28.2342 141.501 29.0813C143.783 29.9285 146.295 30.1502 148.718 29.7183C151.141 29.2864 153.367 28.2204 155.114 26.655C156.861 25.0896 158.051 23.0952 158.533 20.924C159.015 18.7528 158.768 16.5022 157.822 14.457C156.877 12.4117 155.275 10.6636 153.221 9.43372C151.167 8.20382 148.752 7.54736 146.281 7.54736C142.968 7.54736 139.791 8.72662 137.448 10.8257C135.105 12.9248 133.789 15.7718 133.789 18.7404ZM136.041 18.7404C136.041 16.9244 136.642 15.1493 137.768 13.6395C138.894 12.1297 140.494 10.953 142.367 10.2583C144.239 9.56362 146.3 9.3821 148.287 9.73672C150.275 10.0913 152.101 10.9662 153.533 12.2506C154.966 13.5349 155.941 15.1712 156.336 16.9523C156.731 18.7335 156.527 20.5795 155.751 22.2569C154.974 23.9343 153.66 25.3678 151.975 26.3759C150.289 27.3841 148.308 27.9217 146.281 27.9207C144.936 27.9207 143.604 27.6832 142.361 27.2218C141.118 26.7604 139.989 26.0841 139.038 25.2316C138.087 24.379 137.333 23.367 136.819 22.2532C136.304 21.1394 136.04 19.9457 136.041 18.7404Z" fill="#E6E7E8"/>
</g>
<g style="mix-blend-mode:multiply">
<path d="M146.281 29.9377C153.18 29.9377 158.773 24.9265 158.773 18.7447C158.773 12.563 153.18 7.55176 146.281 7.55176C139.382 7.55176 133.789 12.563 133.789 18.7447C133.789 24.9265 139.382 29.9377 146.281 29.9377Z" stroke="#D1D3D4" stroke-width="2" stroke-miterlimit="10"/>
</g>
<path d="M142.188 16.5818C142.188 16.3426 142.294 16.1133 142.482 15.9442C142.671 15.7751 142.927 15.6801 143.194 15.6801H149.232C149.499 15.6801 149.755 15.7751 149.944 15.9442C150.132 16.1133 150.238 16.3426 150.238 16.5818V17.9343C150.238 18.1735 150.132 18.4028 149.944 18.5719C149.755 18.7411 149.499 18.8361 149.232 18.8361H143.194C142.927 18.8361 142.671 18.7411 142.482 18.5719C142.294 18.4028 142.188 18.1735 142.188 17.9343V16.5818ZM149.232 16.5818H143.194V17.9343H149.232V16.5818ZM147.723 19.7378C147.456 19.7378 147.2 19.8328 147.011 20.0019C146.822 20.171 146.716 20.4003 146.716 20.6395V21.5412C146.716 21.7803 146.822 22.0097 147.011 22.1788C147.2 22.3479 147.456 22.4429 147.723 22.4429H149.232C149.499 22.4429 149.755 22.3479 149.944 22.1788C150.132 22.0097 150.238 21.7803 150.238 21.5412V20.6395C150.238 20.4003 150.132 20.171 149.944 20.0019C149.755 19.8328 149.499 19.7378 149.232 19.7378H147.723ZM147.723 20.6395H149.232V21.5412H147.723V20.6395ZM142.188 20.1886C142.188 20.069 142.241 19.9544 142.335 19.8698C142.429 19.7853 142.557 19.7378 142.691 19.7378H145.207C145.34 19.7378 145.468 19.7853 145.562 19.8698C145.657 19.9544 145.71 20.069 145.71 20.1886C145.71 20.3082 145.657 20.4229 145.562 20.5074C145.468 20.592 145.34 20.6395 145.207 20.6395H142.691C142.557 20.6395 142.429 20.592 142.335 20.5074C142.241 20.4229 142.188 20.3082 142.188 20.1886ZM142.691 21.5412C142.557 21.5412 142.429 21.5887 142.335 21.6732C142.241 21.7578 142.188 21.8725 142.188 21.992C142.188 22.1116 142.241 22.2263 142.335 22.3108C142.429 22.3954 142.557 22.4429 142.691 22.4429H145.207C145.34 22.4429 145.468 22.3954 145.562 22.3108C145.657 22.2263 145.71 22.1116 145.71 21.992C145.71 21.8725 145.657 21.7578 145.562 21.6732C145.468 21.5887 145.34 21.5412 145.207 21.5412H142.691ZM142.688 13.4258C142.021 13.4258 141.381 13.6633 140.909 14.086C140.437 14.5088 140.172 15.0822 140.172 15.6801V21.992C140.172 22.5899 140.437 23.1633 140.909 23.5861C141.381 24.0088 142.021 24.2463 142.688 24.2463H149.732C150.4 24.2463 151.039 24.0088 151.511 23.5861C151.983 23.1633 152.248 22.5899 152.248 21.992V15.6801C152.248 15.0822 151.983 14.5088 151.511 14.086C151.039 13.6633 150.4 13.4258 149.732 13.4258H142.688ZM141.178 15.6801C141.178 15.3213 141.337 14.9773 141.62 14.7237C141.903 14.47 142.287 14.3275 142.688 14.3275H149.732C150.133 14.3275 150.517 14.47 150.8 14.7237C151.083 14.9773 151.242 15.3213 151.242 15.6801V21.992C151.242 22.3508 151.083 22.6948 150.8 22.9485C150.517 23.2021 150.133 23.3446 149.732 23.3446H142.688C142.287 23.3446 141.903 23.2021 141.62 22.9485C141.337 22.6948 141.178 22.3508 141.178 21.992V15.6801Z" fill="white"/>
<defs>
<linearGradient id="paint0_linear_473_10702" x1="266.828" y1="-367.623" x2="266.828" y2="312.377" gradientUnits="userSpaceOnUse">
<stop stop-color="#FFF0BC"/>
<stop offset="1" stop-color="#CFC2FF"/>
</linearGradient>
<linearGradient id="paint1_linear_473_10702" x1="129.476" y1="147.746" x2="129.476" y2="-7.47403" gradientUnits="userSpaceOnUse">
<stop stop-color="#6941C6"/>
<stop offset="1" stop-color="#A982FF"/>
</linearGradient>
<linearGradient id="paint2_linear_473_10702" x1="45.6551" y1="96.2815" x2="45.6551" y2="68.5534" gradientUnits="userSpaceOnUse">
<stop stop-color="#6941C6"/>
<stop offset="1" stop-color="#A982FF"/>
</linearGradient>
<linearGradient id="paint3_linear_473_10702" x1="60.4364" y1="55.2195" x2="60.4364" y2="27.4914" gradientUnits="userSpaceOnUse">
<stop stop-color="#6941C6"/>
<stop offset="1" stop-color="#A982FF"/>
</linearGradient>
<linearGradient id="paint4_linear_473_10702" x1="99.3426" y1="162.629" x2="99.3426" y2="134.901" gradientUnits="userSpaceOnUse">
<stop stop-color="#6941C6"/>
<stop offset="1" stop-color="#A982FF"/>
</linearGradient>
<linearGradient id="paint5_linear_473_10702" x1="60.4364" y1="137.344" x2="60.4364" y2="109.616" gradientUnits="userSpaceOnUse">
<stop stop-color="#6941C6"/>
<stop offset="1" stop-color="#A982FF"/>
</linearGradient>
<linearGradient id="paint6_linear_473_10702" x1="99.2255" y1="29.9377" x2="99.2255" y2="2.20965" gradientUnits="userSpaceOnUse">
<stop stop-color="#6941C6"/>
<stop offset="1" stop-color="#A982FF"/>
</linearGradient>
<linearGradient id="paint7_linear_473_10702" x1="186.397" y1="55.2195" x2="186.397" y2="27.4914" gradientUnits="userSpaceOnUse">
<stop stop-color="#6941C6"/>
<stop offset="1" stop-color="#A982FF"/>
</linearGradient>
<linearGradient id="paint8_linear_473_10702" x1="186.397" y1="55.2195" x2="186.397" y2="27.4914" gradientUnits="userSpaceOnUse">
<stop stop-color="#6941C6"/>
<stop offset="1" stop-color="#A982FF"/>
</linearGradient>
<linearGradient id="paint9_linear_473_10702" x1="201.179" y1="96.2815" x2="201.179" y2="68.5534" gradientUnits="userSpaceOnUse">
<stop stop-color="#6941C6"/>
<stop offset="1" stop-color="#A982FF"/>
</linearGradient>
<linearGradient id="paint10_linear_473_10702" x1="186.397" y1="137.344" x2="186.397" y2="109.616" gradientUnits="userSpaceOnUse">
<stop stop-color="#6941C6"/>
<stop offset="1" stop-color="#A982FF"/>
</linearGradient>
<linearGradient id="paint11_linear_473_10702" x1="147.491" y1="162.629" x2="147.491" y2="134.901" gradientUnits="userSpaceOnUse">
<stop stop-color="#6941C6"/>
<stop offset="1" stop-color="#A982FF"/>
</linearGradient>
<linearGradient id="paint12_linear_473_10702" x1="147.608" y1="29.9377" x2="147.608" y2="2.20965" gradientUnits="userSpaceOnUse">
<stop stop-color="#6941C6"/>
<stop offset="1" stop-color="#A982FF"/>
</linearGradient>
<clipPath id="clip0_473_10702">
<rect width="16.1017" height="14.4274" fill="white" transform="translate(35.9219 77.2676)"/>
</clipPath>
<clipPath id="clip1_473_10702">
<rect width="16.1017" height="14.4274" fill="white" transform="translate(90.6641 144.354)"/>
</clipPath>
<clipPath id="clip2_473_10702">
<rect width="16.1017" height="14.4274" fill="white" transform="translate(51.2188 118.746)"/>
</clipPath>
<clipPath id="clip3_473_10702">
<rect width="16.1017" height="14.4274" fill="white" transform="translate(177.211 119.106)"/>
</clipPath>
</defs>
</svg>
