<svg width="244" height="176" viewBox="0 0 244 176" fill="none" xmlns="http://www.w3.org/2000/svg">
<mask id="mask0_473_10207" style="mask-type:alpha" maskUnits="userSpaceOnUse" x="0" y="0" width="244" height="176">
<rect width="244" height="176" rx="20" fill="#D9D9D9"/>
</mask>
<g mask="url(#mask0_473_10207)">
<rect opacity="0.8" x="-23.1719" y="-367.623" width="580" height="680" rx="20" fill="url(#paint0_linear_473_10207)" fill-opacity="0.6"/>
<path opacity="0.6" d="M220.518 66.993L181.343 45.4824L130.154 73.5888C129.594 73.8961 129.594 74.6647 130.154 74.9721L166.515 94.9368C167.477 95.4652 168.663 95.4652 169.625 94.9368L220.518 66.993Z" fill="url(#paint1_linear_473_10207)" fill-opacity="0.5"/>
<path opacity="0.6" d="M111.477 74.4933L72.3013 96.0039L21.1128 67.8975C20.553 67.5902 20.553 66.8216 21.1128 66.5143L57.4732 46.5496C58.4356 46.0212 59.6212 46.0212 60.5836 46.5496L111.477 74.4933Z" fill="url(#paint2_linear_473_10207)" fill-opacity="0.5"/>
<path d="M167.959 95.4882C167.321 95.4882 166.692 95.3288 166.143 95.027L129.977 75.1688C129.649 74.9887 129.453 74.6659 129.453 74.3057C129.453 73.945 129.649 73.6222 129.977 73.4421L152.625 61.0067C152.689 60.9717 152.767 60.9717 152.831 61.0067L190.71 81.8052C191.038 81.9853 191.234 82.3086 191.234 82.6688C191.234 83.029 191.038 83.3523 190.71 83.5324L169.775 95.0274C169.225 95.3288 168.597 95.4882 167.959 95.4882ZM166.349 94.6871C167.324 95.2214 168.595 95.2214 169.569 94.6871L190.503 83.192C190.702 83.0827 190.821 82.8867 190.821 82.6688C190.821 82.4505 190.702 82.2549 190.503 82.1455L152.728 61.4039L152.656 61.4437L130.183 73.7828C129.985 73.8917 129.867 74.0878 129.867 74.306C129.867 74.5243 129.985 74.72 130.183 74.8293L166.349 94.6871Z" fill="#42E8E0"/>
<path d="M152.672 52.9716L157.711 24.5428L157.306 24.3806L157.915 24.0486L157.914 24.0517C158.032 23.977 158.199 23.9814 158.383 24.0824L198.651 46.1925C198.981 46.3742 199.232 46.8398 199.174 47.1654L194.095 75.8205C194.068 75.97 193.991 76.0686 193.883 76.1124L193.883 76.1127L193.288 76.44L193.185 75.9112L193.219 75.9211L153.195 53.9445C152.864 53.7628 152.614 53.2968 152.672 52.9716Z" fill="url(#paint3_linear_473_10207)"/>
<path d="M198.428 46.9701L199.09 46.6914C199.164 46.8528 199.201 47.0222 199.175 47.1653L194.096 75.8204C194.07 75.9699 193.992 76.0685 193.884 76.1123L193.885 76.1127L193.289 76.4399L193.187 75.9111L193.22 75.921L191.195 74.8089L198.428 46.9701Z" fill="url(#paint4_linear_473_10207)"/>
<path d="M152.563 54.2891L192.83 76.3993C193.141 76.5698 193.407 76.4712 193.462 76.1651L198.541 47.51C198.599 47.1844 198.348 46.7188 198.018 46.5371L157.75 24.4269C157.439 24.2563 157.173 24.3549 157.118 24.6607L152.04 53.3158C151.982 53.6418 152.232 54.1074 152.563 54.2891Z" fill="#24126A"/>
<g opacity="0.51">
<path d="M158.28 26.2563L197.094 47.5689L192.281 74.5561L153.492 53.2578L158.28 26.2563Z" fill="#453C9E"/>
</g>
<path d="M127.25 67.8565L129.447 68.9479L151.483 56.8485C151.851 56.6461 152.495 56.6716 152.921 56.9054L190.926 77.773C191.29 77.5794 192.948 76.8212 192.948 76.8212L192.143 78.8143L192.14 78.812C192.106 78.9006 192.035 78.9833 191.915 79.0493L168.707 91.792C168.338 91.9944 167.695 91.9689 167.269 91.7352L128.378 70.3808C128.203 70.285 128.096 70.1685 128.052 70.0508L128.049 70.0528L127.25 67.8565Z" fill="url(#paint5_linear_473_10207)"/>
<path d="M127.595 68.1991L167.454 90.0847C167.89 90.324 168.55 90.3503 168.928 90.1427L192.713 77.0827C193.09 76.8752 193.043 76.513 192.607 76.2732L152.748 54.3877C152.312 54.1479 151.652 54.1221 151.274 54.3296L127.489 67.3896C127.112 67.5972 127.159 67.9594 127.595 68.1991Z" fill="url(#paint6_linear_473_10207)"/>
<path d="M127.591 67.9811L167.45 89.8666C167.886 90.1064 168.546 90.1322 168.924 89.9246L192.708 76.8647C192.832 76.7967 192.906 76.7116 192.94 76.6201C192.999 76.7903 192.928 76.9629 192.708 77.0833L168.924 90.1433C168.546 90.3509 167.886 90.3246 167.45 90.0853L127.591 68.1998C127.298 68.0387 127.185 67.8224 127.254 67.6348C127.298 67.758 127.408 67.8805 127.591 67.9811Z" fill="white"/>
<path d="M179.483 85.3506V84.9347C179.483 84.8953 179.458 84.877 179.426 84.8941L177.885 85.7406C177.854 85.7577 177.828 85.8034 177.828 85.8428V86.2587C177.828 86.298 177.853 86.3163 177.885 86.2992L179.426 85.4527C179.458 85.4356 179.483 85.3899 179.483 85.3506Z" fill="#2842A2"/>
<path d="M177.17 86.6152V86.1993C177.17 86.16 177.145 86.1417 177.114 86.1588L175.572 87.0052C175.541 87.0223 175.516 87.0681 175.516 87.1074V87.5233C175.516 87.5627 175.541 87.581 175.572 87.5639L177.114 86.7174C177.145 86.7007 177.17 86.655 177.17 86.6152Z" fill="#2842A2"/>
<path d="M186.507 75.8596L153.385 57.6729C153.164 57.5517 152.892 57.5517 152.672 57.6733L140.877 64.1634C140.708 64.2564 140.708 64.489 140.877 64.582L173.984 82.7603C174.204 82.8816 174.476 82.8816 174.696 82.7603L186.507 76.2787C186.677 76.1852 186.677 75.9526 186.507 75.8596Z" fill="#ADB1F2"/>
<path d="M186.507 76.2785L186.389 76.3437L153.385 58.2223C153.164 58.101 152.892 58.101 152.671 58.2227L140.995 64.6471L140.877 64.5819C140.708 64.4888 140.707 64.2563 140.877 64.1632L152.672 57.6732C152.892 57.5519 153.165 57.5515 153.385 57.6728L186.507 75.8594C186.677 75.9529 186.677 76.1855 186.507 76.2785Z" fill="#9198DB"/>
<path d="M151.781 59.3168L180.552 75.1147L181.832 74.4121L153.061 58.6143L151.781 59.3168Z" fill="#24126A"/>
<path d="M148.641 61.0391L175.627 75.8569L176.906 75.1543L149.92 60.3369L148.641 61.0391Z" fill="#24126A"/>
<path d="M146.602 62.1611L178.375 79.6075L179.654 78.9049L147.881 61.459L146.602 62.1611Z" fill="#24126A"/>
<path d="M144.562 63.2822L176.336 80.7285L177.615 80.026L145.842 62.5801L144.562 63.2822Z" fill="#24126A"/>
<path d="M142.516 64.4043L174.289 81.8506L175.568 81.1481L143.795 63.7021L142.516 64.4043Z" fill="#24126A"/>
<path d="M182.289 76.0688L183.568 76.7709L184.848 76.0688L183.568 75.3662L182.289 76.0688Z" fill="#24126A"/>
<path d="M177.781 77.0365L180.437 78.4942L181.716 77.792L179.061 76.334L177.781 77.0365Z" fill="#24126A"/>
<path d="M152.115 80.2619L143.184 75.3583C142.835 75.1667 142.835 74.8557 143.184 74.6641L149.291 71.3107C149.64 71.1191 150.206 71.1191 150.555 71.3107L159.486 76.2147C159.835 76.4064 159.835 76.7173 159.486 76.9089L153.379 80.2623C153.03 80.4536 152.464 80.4535 152.115 80.2619Z" fill="url(#paint7_linear_473_10207)"/>
<path d="M159.483 76.4982L150.552 71.5946C150.203 71.403 149.637 71.403 149.288 71.5946L143.18 74.948C143.073 75.0072 143.002 75.078 142.961 75.1531C142.869 74.9853 142.939 74.7965 143.18 74.6641L149.288 71.3107C149.637 71.1191 150.203 71.1191 150.552 71.3107L159.483 76.2147C159.724 76.3471 159.795 76.536 159.702 76.7038C159.661 76.6286 159.591 76.5575 159.483 76.4982Z" fill="#9198DB"/>
<g opacity="0.11">
<mask id="mask1_473_10207" style="mask-type:luminance" maskUnits="userSpaceOnUse" x="153" y="26" width="45" height="49">
<path d="M158.28 26.2563L197.094 47.5689L192.281 74.5561L153.492 53.2578L158.28 26.2563Z" fill="white"/>
</mask>
<g mask="url(#mask1_473_10207)">
<path d="M152.705 54.3422L192.563 76.2277C192.999 76.4675 193.659 76.4933 194.037 76.2858L217.822 63.2258C218.2 63.0182 218.152 62.656 217.716 62.4163L177.858 40.5308C177.421 40.291 176.762 40.2652 176.384 40.4727L152.599 53.5327C152.221 53.7406 152.268 54.1028 152.705 54.3422Z" fill="url(#paint8_linear_473_10207)"/>
<path d="M192.685 58.2662L183.754 53.3622C183.405 53.1706 183.405 52.8596 183.754 52.668L189.861 49.3146C190.21 49.123 190.776 49.123 191.125 49.3146L200.056 54.2186C200.405 54.4103 200.405 54.7212 200.056 54.9128L193.949 58.2662C193.6 58.4578 193.034 58.4578 192.685 58.2662Z" fill="url(#paint9_linear_473_10207)"/>
<path d="M200.053 54.5021L191.122 49.5985C190.773 49.4069 190.207 49.4069 189.858 49.5985L183.751 52.9519C183.643 53.0111 183.573 53.0823 183.531 53.157C183.439 52.9893 183.51 52.8004 183.751 52.668L189.858 49.3146C190.207 49.123 190.773 49.123 191.122 49.3146L200.053 54.2186C200.294 54.351 200.365 54.5399 200.272 54.7077C200.231 54.6325 200.161 54.5614 200.053 54.5021Z" fill="#9198DB"/>
<path d="M203.976 65.9299L170.854 47.7432C170.633 47.622 170.361 47.622 170.14 47.7436L158.346 54.2337C158.176 54.3267 158.176 54.5593 158.346 54.6524L191.452 72.8306C191.673 72.9519 191.945 72.9519 192.165 72.8306L203.976 66.349C204.145 66.2559 204.145 66.0229 203.976 65.9299Z" fill="#ADB1F2"/>
<path d="M203.976 66.3492L203.858 66.4144L170.854 48.2926C170.633 48.1713 170.361 48.1713 170.14 48.293L158.464 54.7174L158.346 54.6522C158.176 54.5592 158.176 54.3266 158.346 54.2335L170.14 47.7435C170.361 47.6222 170.633 47.6218 170.854 47.7431L203.976 65.9297C204.146 66.0232 204.146 66.2562 203.976 66.3492Z" fill="#9198DB"/>
<path d="M161.432 53.791L190.287 69.635L189.144 70.2628L160.289 54.4188L161.432 53.791Z" fill="#24126A"/>
<path d="M164.471 52.1221L191.897 67.1812L190.754 67.809L163.328 52.7495L164.471 52.1221Z" fill="#24126A"/>
<path d="M193.94 68.3057L196.501 69.7124L195.358 70.3398L192.797 68.9335L193.94 68.3057Z" fill="#24126A"/>
<path d="M191.69 70.4014L193.473 71.3807L192.33 72.0085L190.547 71.0292L191.69 70.4014Z" fill="#24126A"/>
<path d="M166.377 51.0752L198.413 68.6654L197.27 69.2933L165.234 51.7026L166.377 51.0752Z" fill="#24126A"/>
<path d="M168.284 50.0293L200.319 67.6195L199.176 68.2473L167.141 50.6567L168.284 50.0293Z" fill="#24126A"/>
<path d="M170.19 48.9834L202.226 66.5736L201.083 67.2015L169.047 49.6112L170.19 48.9834Z" fill="#24126A"/>
</g>
</g>
<path d="M167 36.2333L170.14 37.9593L170.233 37.4408L167.092 35.7148L167 36.2333Z" fill="#42E8E0"/>
<path d="M170.641 38.2348L172.352 39.1755L172.444 38.657L170.733 37.7163L170.641 38.2348Z" fill="#42E8E0"/>
<path d="M175.016 40.6371L176.254 41.3178L176.346 40.7989L175.108 40.1187L175.016 40.6371Z" fill="#42E8E0"/>
<path d="M174.109 40.1401L174.532 40.3726L174.624 39.8542L174.201 39.6216L174.109 40.1401Z" fill="#42E8E0"/>
<path d="M172.859 39.4539L173.628 39.8762L173.72 39.3577L172.951 38.9351L172.859 39.4539Z" fill="#42E8E0"/>
<path d="M169.484 40.1996L170.722 40.8799L170.815 40.3614L169.576 39.6812L169.484 40.1996Z" fill="#42E8E0"/>
<path d="M166.578 38.602L169.004 39.9355L169.096 39.4167L166.671 38.0835L166.578 38.602Z" fill="#42E8E0"/>
<path d="M170.047 47.0068L172.473 48.3403L172.564 47.8214L170.139 46.4883L170.047 47.0068Z" fill="#42E8E0"/>
<path d="M168.805 46.3212L169.573 46.7435L169.665 46.225L168.897 45.8027L168.805 46.3212Z" fill="#42E8E0"/>
<path d="M170.453 44.6337L172.879 45.9673L172.971 45.4484L170.545 44.1152L170.453 44.6337Z" fill="#42E8E0"/>
<path d="M169.211 43.9486L169.979 44.3708L170.071 43.8523L169.303 43.4297L169.211 43.9486Z" fill="#42E8E0"/>
<path d="M168.263 57.246L163.694 54.7344L163.602 55.2528L168.171 57.7649L168.263 57.246Z" fill="#42E8E0"/>
<path d="M169.879 58.1308L168.749 57.5098L168.656 58.0282L169.787 58.6497L169.879 58.1308Z" fill="#42E8E0"/>
<path d="M177.904 58.6347L173.334 56.123L173.242 56.6415L177.812 59.1532L177.904 58.6347Z" fill="#42E8E0"/>
<path d="M179.512 59.5209L178.381 58.8994L178.289 59.4183L179.42 60.0397L179.512 59.5209Z" fill="#42E8E0"/>
<path d="M165.142 54.2301L163.904 53.5498L163.812 54.0683L165.05 54.749L165.142 54.2301Z" fill="#42E8E0"/>
<path d="M172.674 55.7656L171.436 55.085L171.344 55.6034L172.582 56.2841L172.674 55.7656Z" fill="#42E8E0"/>
<path d="M168.049 55.8273L165.623 54.4941L165.531 55.0126L167.957 56.3458L168.049 55.8273Z" fill="#42E8E0"/>
<path d="M169.298 56.5131L168.53 56.0908L168.438 56.6093L169.206 57.0319L169.298 56.5131Z" fill="#42E8E0"/>
<path d="M172.221 58.1197L169.795 56.7861L169.703 57.305L172.129 58.6382L172.221 58.1197Z" fill="#42E8E0"/>
<path d="M173.469 58.8051L172.701 58.3828L172.609 58.9013L173.377 59.3239L173.469 58.8051Z" fill="#42E8E0"/>
<path d="M172.463 56.9522L171.225 56.2715L171.133 56.79L172.371 57.4707L172.463 56.9522Z" fill="#42E8E0"/>
<path d="M175.369 58.549L172.944 57.2158L172.852 57.7343L175.277 59.0678L175.369 58.549Z" fill="#42E8E0"/>
<path d="M176.618 59.2348L175.85 58.8125L175.758 59.331L176.526 59.7532L176.618 59.2348Z" fill="#42E8E0"/>
<path d="M166.649 53.7576L164.115 52.3652L164.023 52.8841L166.557 54.2765L166.649 53.7576Z" fill="#42E8E0"/>
<path d="M168.955 55.0286L167.123 54.0215L167.031 54.5404L168.863 55.5471L168.955 55.0286Z" fill="#42E8E0"/>
<path d="M170.674 55.9717L169.436 55.291L169.344 55.8095L170.582 56.4902L170.674 55.9717Z" fill="#42E8E0"/>
<path d="M182.688 61.2576L180.155 59.8652L180.062 60.3837L182.596 61.7761L182.688 61.2576Z" fill="#42E8E0"/>
<path d="M185.002 62.5286L183.17 61.5215L183.078 62.0404L184.91 63.0471L185.002 62.5286Z" fill="#42E8E0"/>
<path d="M186.713 63.4723L185.475 62.792L185.383 63.3105L186.621 63.9912L186.713 63.4723Z" fill="#42E8E0"/>
<path d="M181.695 45.6044L184.228 46.9968L184.32 46.4783L181.787 45.0859L181.695 45.6044Z" fill="#42E8E0"/>
<path d="M179.383 44.3329L181.215 45.34L181.307 44.8212L179.475 43.8145L179.383 44.3329Z" fill="#42E8E0"/>
<path d="M177.664 43.3886L178.902 44.0693L178.994 43.5508L177.756 42.8701L177.664 43.3886Z" fill="#42E8E0"/>
<path d="M180.852 43.8368L183.385 45.2292L183.477 44.7108L180.944 43.3184L180.852 43.8368Z" fill="#42E8E0"/>
<path d="M178.539 42.5653L180.371 43.5725L180.463 43.054L178.631 42.0469L178.539 42.5653Z" fill="#42E8E0"/>
<path d="M176.82 41.6224L178.058 42.3027L178.151 41.7842L176.912 41.1035L176.82 41.6224Z" fill="#42E8E0"/>
<path d="M170.625 46.0273L171.48 46.4976L171.572 45.9791L170.717 45.5088L170.625 46.0273Z" fill="#42E8E0"/>
<path d="M169.016 45.1425L170.146 45.7639L170.238 45.2455L169.108 44.624L169.016 45.1425Z" fill="#42E8E0"/>
<path d="M166.875 52.5799L164.342 51.1875L164.25 51.7064L166.783 53.0988L166.875 52.5799Z" fill="#42E8E0"/>
<path d="M169.19 53.8505L167.358 52.8438L167.266 53.3622L169.098 54.3689L169.19 53.8505Z" fill="#42E8E0"/>
<path d="M170.901 54.795L169.662 54.1143L169.57 54.6331L170.808 55.3134L170.901 54.795Z" fill="#42E8E0"/>
<path d="M165.408 50.4733L164.553 50.0029L164.461 50.5214L165.316 50.9918L165.408 50.4733Z" fill="#42E8E0"/>
<path d="M167.019 51.3588L165.889 50.7373L165.797 51.2562L166.927 51.8776L167.019 51.3588Z" fill="#42E8E0"/>
<path d="M169.32 52.6236L167.498 51.6221L167.406 52.1409L169.228 53.1421L169.32 52.6236Z" fill="#42E8E0"/>
<path d="M171.789 42.7607L172.644 43.231L172.736 42.7122L171.881 42.2422L171.789 42.7607Z" fill="#42E8E0"/>
<path d="M170.18 41.8753L171.311 42.4968L171.403 41.9779L170.272 41.3564L170.18 41.8753Z" fill="#42E8E0"/>
<path d="M167.875 40.6108L169.697 41.6119L169.789 41.0934L167.967 40.0923L167.875 40.6108Z" fill="#42E8E0"/>
<path d="M173.094 44.6835L174.915 45.6851L175.007 45.1662L173.186 44.165L173.094 44.6835Z" fill="#42E8E0"/>
<path d="M170.109 43.1396L172.565 44.4894L172.657 43.9705L170.201 42.6211L170.109 43.1396Z" fill="#42E8E0"/>
<path d="M168.859 42.4534L169.628 42.8757L169.72 42.3572L168.951 41.9346L168.859 42.4534Z" fill="#42E8E0"/>
<path d="M167.664 41.7962L168.432 42.2185L168.524 41.7L167.756 41.2773L167.664 41.7962Z" fill="#42E8E0"/>
<path d="M167.828 48.4886L170.254 49.8218L170.346 49.3033L167.92 47.9697L167.828 48.4886Z" fill="#42E8E0"/>
<path d="M166.578 47.8027L167.346 48.2253L167.438 47.7064L166.67 47.2842L166.578 47.8027Z" fill="#42E8E0"/>
<path d="M168 49.8818L168.856 50.3521L168.948 49.8336L168.092 49.3633L168 49.8818Z" fill="#42E8E0"/>
<path d="M171.016 48.9325L171.871 49.4029L171.963 48.884L171.108 48.4141L171.016 48.9325Z" fill="#42E8E0"/>
<path d="M172.234 49.6025L174.288 50.7301L174.379 50.2116L172.327 49.084L172.234 49.6025Z" fill="#42E8E0"/>
<path d="M174.656 50.93L175.877 51.6008L175.969 51.0823L174.748 50.4111L174.656 50.93Z" fill="#42E8E0"/>
<path d="M166.391 48.996L167.521 49.6175L167.613 49.0986L166.483 48.4775L166.391 48.996Z" fill="#42E8E0"/>
<path d="M166.281 50.2138L167.137 50.6841L167.229 50.1657L166.374 49.6953L166.281 50.2138Z" fill="#42E8E0"/>
<path d="M164.672 49.3294L165.802 49.9509L165.895 49.4324L164.764 48.8105L164.672 49.3294Z" fill="#42E8E0"/>
<path d="M169.781 48.2509L170.55 48.6731L170.642 48.1547L169.874 47.7324L169.781 48.2509Z" fill="#42E8E0"/>
<path d="M168.586 47.5927L169.354 48.0149L169.446 47.4965L168.678 47.0742L168.586 47.5927Z" fill="#42E8E0"/>
<path d="M174.484 41.6396L177.105 43.0801L177.197 42.5616L174.577 41.1211L174.484 41.6396Z" fill="#42E8E0"/>
<path d="M171.547 40.0258L174.003 41.3756L174.095 40.8568L171.639 39.5073L171.547 40.0258Z" fill="#42E8E0"/>
<path d="M170.297 39.3402L171.065 39.7624L171.157 39.2439L170.389 38.8213L170.297 39.3402Z" fill="#42E8E0"/>
<path d="M169.094 38.681L169.862 39.1032L169.954 38.5848L169.186 38.1621L169.094 38.681Z" fill="#42E8E0"/>
<path d="M168.447 38.3219L166.789 37.4106L166.881 36.8921L168.539 37.803L168.447 38.3219Z" fill="#42E8E0"/>
<path opacity="0.6" d="M112.367 128.684L73.8471 107.533L23.5148 135.169C22.9642 135.472 22.9642 136.227 23.5148 136.53L60.7962 157L112.367 128.684Z" fill="url(#paint10_linear_473_10207)" fill-opacity="0.5"/>
<path opacity="0.6" d="M220.163 135.373L181.643 156.524L131.311 128.887C130.761 128.585 130.761 127.83 131.311 127.527L168.593 107.057L220.163 135.373Z" fill="url(#paint11_linear_473_10207)" fill-opacity="0.5"/>
<path d="M88.4939 53.7309L83.4553 25.3021L83.8604 25.1398L83.2517 24.8078L83.2525 24.811C83.1342 24.7363 82.9674 24.7406 82.7835 24.8416L42.5158 46.9518C42.1851 47.1335 41.9347 47.5991 41.9928 47.9247L47.0715 76.5798C47.0983 76.7293 47.1756 76.8279 47.2835 76.8716H47.2826L47.8784 77.1989L47.9808 76.67L47.9469 76.68L87.9709 54.7038C88.302 54.5221 88.552 54.0565 88.4939 53.7309Z" fill="url(#paint12_linear_473_10207)"/>
<path d="M42.74 47.7299L42.0778 47.4512C42.0033 47.6122 41.967 47.782 41.9925 47.9251L47.0708 76.5802C47.0975 76.7297 47.1749 76.8283 47.2827 76.872L47.2819 76.8724L47.8777 77.1996L47.9801 76.6708L47.9462 76.6808L49.9713 75.5687L42.74 47.7299Z" fill="url(#paint13_linear_473_10207)"/>
<path d="M88.6033 55.0488L48.3356 77.159C48.0246 77.3296 47.7587 77.231 47.7039 76.9248L42.6256 48.2698C42.5675 47.9441 42.8179 47.4785 43.1486 47.2968L83.4163 25.1867C83.7273 25.0161 83.9932 25.1147 84.048 25.4208L89.1267 54.0759C89.184 54.4015 88.934 54.8671 88.6033 55.0488Z" fill="#24126A"/>
<g opacity="0.51">
<path d="M82.893 27.0146L44.0781 48.3272L48.8914 75.3144L87.6803 54.0161L82.893 27.0146Z" fill="#453C9E"/>
</g>
<path d="M113.916 68.6153L111.719 69.7067L89.6838 57.6073C89.315 57.4049 88.6712 57.4304 88.2456 57.6641L50.2405 78.5318C49.8768 78.3386 48.2188 77.58 48.2188 77.58L49.0231 79.5731L49.0265 79.5707C49.0599 79.6594 49.1314 79.7421 49.2514 79.8081L72.4593 92.5508C72.828 92.7532 73.4718 92.7277 73.8974 92.4939L112.788 71.1396C112.963 71.0434 113.07 70.9273 113.115 70.8096L113.117 70.8116L113.916 68.6153Z" fill="url(#paint14_linear_473_10207)"/>
<path d="M113.575 68.9578L73.7171 90.8433C73.2807 91.0827 72.621 91.1089 72.243 90.9014L48.4582 77.8414C48.0803 77.6338 48.1279 77.2716 48.564 77.0319L88.4223 55.1463C88.8588 54.907 89.5185 54.8807 89.8965 55.0883L113.681 68.1483C114.058 68.3558 114.011 68.718 113.575 68.9578Z" fill="url(#paint15_linear_473_10207)"/>
<path d="M113.571 68.7403L73.7134 90.6258C73.277 90.8655 72.6173 90.8914 72.2393 90.6838L48.4545 77.6239C48.3307 77.5559 48.2572 77.4708 48.2233 77.3793C48.1635 77.5495 48.2354 77.7221 48.4545 77.8421L72.2393 90.9021C72.6173 91.1097 73.277 91.0834 73.7134 90.8441L113.571 68.9585C113.865 68.7975 113.978 68.5812 113.908 68.3936C113.865 68.5172 113.755 68.6397 113.571 68.7403Z" fill="white"/>
<path d="M61.6953 86.1093V85.6934C61.6953 85.6541 61.7204 85.6358 61.7518 85.6529L63.2936 86.4994C63.3245 86.5165 63.35 86.5622 63.35 86.6016V87.0175C63.35 87.0568 63.3249 87.0751 63.2936 87.058L61.7518 86.2115C61.7204 86.1944 61.6953 86.1487 61.6953 86.1093Z" fill="#2842A2"/>
<path d="M64 87.3759V86.9601C64 86.9207 64.0251 86.9024 64.0564 86.9195L65.5983 87.766C65.6292 87.7831 65.6547 87.8288 65.6547 87.8682V88.2841C65.6547 88.3234 65.6296 88.3417 65.5983 88.3246L64.0564 87.4781C64.0251 87.4614 64 87.4153 64 87.3759Z" fill="#2842A2"/>
<path d="M54.6582 76.6184L87.7803 58.4317C88.001 58.3105 88.2732 58.3105 88.4939 58.4321L100.288 64.9222C100.458 65.0152 100.458 65.2478 100.288 65.3408L67.1815 83.5191C66.9608 83.6404 66.689 83.6404 66.4687 83.5191L54.6582 77.0374C54.4889 76.9444 54.4889 76.7118 54.6582 76.6184Z" fill="#ADB1F2"/>
<path d="M54.6586 77.0373L54.7773 77.1025L87.781 58.9807C88.0017 58.8594 88.2739 58.8594 88.4946 58.9811L100.17 65.4059L100.289 65.3407C100.458 65.2476 100.459 65.015 100.289 64.922L88.4942 58.432C88.2735 58.3107 88.0013 58.3103 87.7806 58.4316L54.6586 76.6182C54.4888 76.7117 54.4888 76.9442 54.6586 77.0373Z" fill="#9198DB"/>
<path d="M89.3786 60.0756L60.6074 75.8735L59.3281 75.1709L88.0993 59.373L89.3786 60.0756Z" fill="#24126A"/>
<path d="M92.5157 61.7973L65.5293 76.6151L64.25 75.9125L91.2364 61.0947L92.5157 61.7973Z" fill="#24126A"/>
<path d="M94.5608 62.9203L62.7871 80.3666L61.5078 79.6641L93.2815 62.2178L94.5608 62.9203Z" fill="#24126A"/>
<path d="M96.5999 64.0405L64.8262 81.4868L63.5469 80.7842L95.3206 63.3379L96.5999 64.0405Z" fill="#24126A"/>
<path d="M98.6468 65.1635L66.873 82.6098L65.5938 81.9072L97.3675 64.4609L98.6468 65.1635Z" fill="#24126A"/>
<path d="M58.8711 76.8276L57.5922 77.5297L56.3125 76.8272L57.5918 76.125L58.8711 76.8276Z" fill="#24126A"/>
<path d="M63.388 77.7953L60.7324 79.2529L59.4531 78.5508L62.1087 77.0928L63.388 77.7953Z" fill="#24126A"/>
<path d="M89.0551 81.0207L97.9859 76.1171C98.335 75.9254 98.335 75.6145 97.9859 75.4229L91.8787 72.0695C91.5297 71.8779 90.9636 71.8779 90.6145 72.0695L81.6837 76.9731C81.3346 77.1648 81.3346 77.4757 81.6837 77.6673L87.7909 81.0207C88.1404 81.2123 88.706 81.2123 89.0551 81.0207Z" fill="url(#paint16_linear_473_10207)"/>
<path d="M81.6805 77.257L90.6113 72.3534C90.9604 72.1618 91.5264 72.1618 91.8755 72.3534L97.9827 75.7068C98.0905 75.766 98.1608 75.8368 98.2022 75.9119C98.2946 75.7441 98.2243 75.5553 97.9827 75.4229L91.8755 72.0695C91.5264 71.8779 90.9604 71.8779 90.6113 72.0695L81.6805 76.9731C81.4392 77.1055 81.3686 77.2944 81.461 77.4622C81.5024 77.3874 81.5726 77.3162 81.6805 77.257Z" fill="#9198DB"/>
<g opacity="0.11">
<mask id="mask2_473_10207" style="mask-type:luminance" maskUnits="userSpaceOnUse" x="44" y="27" width="44" height="49">
<path d="M82.893 27.0142L44.0781 48.3267L48.8914 75.3139L87.6803 54.0156L82.893 27.0142Z" fill="white"/>
</mask>
<g mask="url(#mask2_473_10207)">
<path d="M88.4661 55.1005L48.6078 76.986C48.1713 77.2258 47.5116 77.2516 47.1337 77.0441L23.3488 63.9841C22.9709 63.7765 23.0185 63.4143 23.4546 63.1746L63.313 41.2891C63.7494 41.0493 64.4091 41.0235 64.7871 41.231L88.5719 54.291C88.9499 54.4985 88.9022 54.8611 88.4661 55.1005Z" fill="url(#paint17_linear_473_10207)"/>
<path d="M48.4926 59.0246L57.4234 54.121C57.7725 53.9293 57.7725 53.6184 57.4234 53.4268L51.3162 50.0734C50.9672 49.8818 50.4011 49.8818 50.052 50.0734L41.1212 54.977C40.7721 55.1687 40.7721 55.4796 41.1212 55.6712L47.2284 59.0246C47.5779 59.2162 48.1439 59.2162 48.4926 59.0246Z" fill="url(#paint18_linear_473_10207)"/>
<path d="M41.118 55.2609L50.0488 50.3573C50.3979 50.1657 50.9639 50.1657 51.313 50.3573L57.4202 53.7107C57.528 53.7699 57.5983 53.8407 57.6397 53.9158C57.7321 53.748 57.6618 53.5592 57.4202 53.4268L51.313 50.0734C50.9639 49.8818 50.3979 49.8818 50.0488 50.0734L41.118 54.977C40.8767 55.1094 40.8061 55.2983 40.8985 55.4661C40.9399 55.3913 41.0101 55.3202 41.118 55.2609Z" fill="#9198DB"/>
<path d="M37.1896 66.6887L70.3117 48.502C70.5324 48.3808 70.8046 48.3808 71.0253 48.5024L82.8199 54.9925C82.9892 55.0855 82.9892 55.3181 82.8195 55.4111L49.7129 73.5894C49.4922 73.7107 49.2204 73.7107 49.0001 73.5894L37.1896 67.1078C37.0203 67.0147 37.0199 66.7817 37.1896 66.6887Z" fill="#ADB1F2"/>
<path d="M37.1896 67.1076L37.3083 67.1728L70.312 49.0514C70.5328 48.9301 70.8049 48.9301 71.0257 49.0518L82.7015 55.4762L82.8198 55.411C82.9892 55.318 82.9896 55.0854 82.8203 54.9923L71.0257 48.5023C70.8049 48.381 70.5328 48.3806 70.312 48.5019L37.19 66.6885C37.0199 66.7816 37.0203 67.0146 37.1896 67.1076Z" fill="#9198DB"/>
<path d="M79.7302 54.5488L50.875 70.3928L52.018 71.0202L80.8728 55.1766L79.7302 54.5488Z" fill="#24126A"/>
<path d="M76.6919 52.8799L49.2656 67.9394L50.4086 68.5672L77.8349 53.5077L76.6919 52.8799Z" fill="#24126A"/>
<path d="M47.2178 69.0635L44.6562 70.4702L45.7993 71.0976L48.3608 69.6913L47.2178 69.0635Z" fill="#24126A"/>
<path d="M49.4792 71.1602L47.6953 72.1394L48.8383 72.7673L50.6222 71.788L49.4792 71.1602Z" fill="#24126A"/>
<path d="M74.7859 51.834L42.75 69.4242L43.893 70.0516L75.9293 52.4614L74.7859 51.834Z" fill="#24126A"/>
<path d="M72.8796 50.7881L40.8438 68.3783L41.9868 69.0061L74.0226 51.4155L72.8796 50.7881Z" fill="#24126A"/>
<path d="M70.9734 49.7422L38.9375 67.3324L40.0805 67.9602L72.1164 50.37L70.9734 49.7422Z" fill="#24126A"/>
</g>
</g>
<path d="M58.6875 65.0262L61.8276 63.2998L61.9196 63.8183L58.7795 65.5447L58.6875 65.0262Z" fill="#42E8E0"/>
<path d="M62.3438 63.0237L64.0549 62.083L64.1469 62.6019L62.4357 63.5422L62.3438 63.0237Z" fill="#42E8E0"/>
<path d="M66.7188 60.6221L67.9567 59.9414L68.0486 60.4603L66.8107 61.1406L66.7188 60.6221Z" fill="#42E8E0"/>
<path d="M65.8125 61.1183L66.2356 60.8857L66.3276 61.4046L65.9049 61.6368L65.8125 61.1183Z" fill="#42E8E0"/>
<path d="M64.5625 61.8055L65.3309 61.3828L65.4229 61.9017L64.6545 62.3239L64.5625 61.8055Z" fill="#42E8E0"/>
<path d="M61.1719 61.0596L62.4098 60.3789L62.5018 60.8974L61.2639 61.5781L61.1719 61.0596Z" fill="#42E8E0"/>
<path d="M58.2656 62.6564L60.6913 61.3232L60.7832 61.8417L58.3576 63.1749L58.2656 62.6564Z" fill="#42E8E0"/>
<path d="M61.75 54.2511L64.1761 52.918L64.268 53.4364L61.8424 54.7696L61.75 54.2511Z" fill="#42E8E0"/>
<path d="M60.5 54.9369L61.2684 54.5146L61.3604 55.0331L60.5924 55.4558L60.5 54.9369Z" fill="#42E8E0"/>
<path d="M62.1562 56.6242L64.5819 55.291L64.6739 55.8095L62.2482 57.143L62.1562 56.6242Z" fill="#42E8E0"/>
<path d="M60.9062 57.309L61.6742 56.8867L61.7662 57.4056L60.9982 57.8278L60.9062 57.309Z" fill="#42E8E0"/>
<path d="M59.9588 44.0126L55.3893 46.5243L55.2969 46.0058L59.8664 43.4941L59.9588 44.0126Z" fill="#42E8E0"/>
<path d="M61.5666 43.1282L60.4357 43.7497L60.3438 43.2308L61.4742 42.6094L61.5666 43.1282Z" fill="#42E8E0"/>
<path d="M69.599 42.6239L65.0295 45.1356L64.9375 44.6171L69.507 42.1055L69.599 42.6239Z" fill="#42E8E0"/>
<path d="M71.2072 41.7387L70.0764 42.3601L69.9844 41.8417L71.1152 41.2202L71.2072 41.7387Z" fill="#42E8E0"/>
<path d="M56.8303 47.0282L55.5924 47.7085L55.5 47.1901L56.7383 46.5098L56.8303 47.0282Z" fill="#42E8E0"/>
<path d="M64.3694 45.4911L63.131 46.1718L63.0391 45.6533L64.277 44.9727L64.3694 45.4911Z" fill="#42E8E0"/>
<path d="M59.7368 45.4316L57.3111 46.7651L57.2188 46.2462L59.6444 44.9131L59.7368 45.4316Z" fill="#42E8E0"/>
<path d="M60.9854 44.745L60.217 45.1673L60.125 44.6488L60.8934 44.2266L60.9854 44.745Z" fill="#42E8E0"/>
<path d="M63.9239 43.1386L61.4982 44.4721L61.4062 43.9537L63.8319 42.6201L63.9239 43.1386Z" fill="#42E8E0"/>
<path d="M65.1651 42.4526L64.3971 42.8748L64.3047 42.3563L65.0731 41.9341L65.1651 42.4526Z" fill="#42E8E0"/>
<path d="M64.158 44.3075L62.9201 44.9882L62.8281 44.4698L64.066 43.7891L64.158 44.3075Z" fill="#42E8E0"/>
<path d="M67.0645 42.7099L64.6389 44.043L64.5469 43.5246L66.9725 42.1914L67.0645 42.7099Z" fill="#42E8E0"/>
<path d="M68.3135 42.0242L67.5451 42.4465L67.4531 41.9276L68.2215 41.5054L68.3135 42.0242Z" fill="#42E8E0"/>
<path d="M58.3438 47.5019L55.8107 48.8943L55.7188 48.3758L58.2518 46.9834L58.3438 47.5019Z" fill="#42E8E0"/>
<path d="M60.6583 46.2314L58.8264 47.2385L58.7344 46.7196L60.5664 45.7129L60.6583 46.2314Z" fill="#42E8E0"/>
<path d="M62.3772 45.287L61.1393 45.9677L61.0469 45.4492L62.2852 44.7686L62.3772 45.287Z" fill="#42E8E0"/>
<path d="M74.3751 40.0014L71.842 41.3938L71.75 40.8753L74.2831 39.4829L74.3751 40.0014Z" fill="#42E8E0"/>
<path d="M76.6896 38.7314L74.858 39.7385L74.7656 39.22L76.5976 38.2129L76.6896 38.7314Z" fill="#42E8E0"/>
<path d="M78.408 37.7869L77.1701 38.4672L77.0781 37.9488L78.316 37.2681L78.408 37.7869Z" fill="#42E8E0"/>
<path d="M73.3906 55.6547L75.9237 54.2627L76.0157 54.7812L73.4826 56.1736L73.3906 55.6547Z" fill="#42E8E0"/>
<path d="M71.0781 56.9257L72.9097 55.9189L73.0021 56.4374L71.1701 57.4441L71.0781 56.9257Z" fill="#42E8E0"/>
<path d="M69.3594 57.8692L70.5973 57.1885L70.6893 57.7073L69.4514 58.3876L69.3594 57.8692Z" fill="#42E8E0"/>
<path d="M72.5469 57.4217L75.08 56.0293L75.1719 56.5478L72.6389 57.9402L72.5469 57.4217Z" fill="#42E8E0"/>
<path d="M70.2344 58.6927L72.0664 57.6855L72.1583 58.2044L70.3268 59.2111L70.2344 58.6927Z" fill="#42E8E0"/>
<path d="M68.5234 59.6377L69.7613 58.957L69.8533 59.4755L68.6154 60.1562L68.5234 59.6377Z" fill="#42E8E0"/>
<path d="M62.3203 55.2311L63.1761 54.7607L63.2681 55.2792L62.4123 55.7496L62.3203 55.2311Z" fill="#42E8E0"/>
<path d="M60.7109 56.1156L61.8414 55.4941L61.9338 56.0126L60.8029 56.6341L60.7109 56.1156Z" fill="#42E8E0"/>
<path d="M58.5704 48.6786L56.0373 50.071L55.9453 49.5526L58.4784 48.1602L58.5704 48.6786Z" fill="#42E8E0"/>
<path d="M60.8767 47.4081L59.0451 48.4152L58.9531 47.8964L60.7847 46.8896L60.8767 47.4081Z" fill="#42E8E0"/>
<path d="M62.5955 46.4648L61.3576 47.1455L61.2656 46.627L62.5035 45.9463L62.5955 46.4648Z" fill="#42E8E0"/>
<path d="M57.104 50.786L56.2486 51.2564L56.1562 50.7379L57.0116 50.2676L57.104 50.786Z" fill="#42E8E0"/>
<path d="M58.7072 49.9003L57.5768 50.5218L57.4844 50.0033L58.6153 49.3818L58.7072 49.9003Z" fill="#42E8E0"/>
<path d="M61.0155 48.6347L59.194 49.6362L59.1016 49.1174L60.9235 48.1162L61.0155 48.6347Z" fill="#42E8E0"/>
<path d="M63.4844 58.4967L64.3397 58.0264L64.4321 58.5452L63.5764 59.0152L63.4844 58.4967Z" fill="#42E8E0"/>
<path d="M61.875 59.3828L63.0055 58.7617L63.0979 59.2802L61.967 59.9016L61.875 59.3828Z" fill="#42E8E0"/>
<path d="M59.5781 60.6476L61.4001 59.6465L61.4921 60.165L59.6701 61.1665L59.5781 60.6476Z" fill="#42E8E0"/>
<path d="M64.7891 56.5748L66.611 55.5732L66.703 56.0921L64.881 57.0933L64.7891 56.5748Z" fill="#42E8E0"/>
<path d="M61.8125 58.1194L64.2682 56.7695L64.3602 57.2884L61.9045 58.6379L61.8125 58.1194Z" fill="#42E8E0"/>
<path d="M60.5625 58.8055L61.3309 58.3828L61.4229 58.9017L60.6545 59.3239L60.5625 58.8055Z" fill="#42E8E0"/>
<path d="M59.3594 59.4633L60.1278 59.041L60.2198 59.5595L59.4514 59.9821L59.3594 59.4633Z" fill="#42E8E0"/>
<path d="M59.5312 52.7697L61.9569 51.4365L62.0493 51.955L59.6236 53.2885L59.5312 52.7697Z" fill="#42E8E0"/>
<path d="M58.2812 53.4555L59.0497 53.0332L59.1416 53.5517L58.3732 53.9739L58.2812 53.4555Z" fill="#42E8E0"/>
<path d="M59.7031 51.3766L60.5585 50.9062L60.6505 51.4247L59.7951 51.8951L59.7031 51.3766Z" fill="#42E8E0"/>
<path d="M62.7188 52.3268L63.5741 51.8564L63.6661 52.3753L62.8107 52.8457L62.7188 52.3268Z" fill="#42E8E0"/>
<path d="M63.9375 51.6569L65.9902 50.5293L66.0826 51.0478L64.0295 52.1754L63.9375 51.6569Z" fill="#42E8E0"/>
<path d="M66.3594 50.329L67.5801 49.6582L67.6725 50.1767L66.4514 50.8478L66.3594 50.329Z" fill="#42E8E0"/>
<path d="M58.0938 52.2621L59.2242 51.6406L59.3162 52.1595L58.1857 52.7809L58.0938 52.2621Z" fill="#42E8E0"/>
<path d="M57.9844 51.0446L58.8397 50.5742L58.9317 51.0931L58.0764 51.5631L57.9844 51.0446Z" fill="#42E8E0"/>
<path d="M56.375 51.93L57.5055 51.3086L57.5974 51.8275L56.467 52.4489L56.375 51.93Z" fill="#42E8E0"/>
<path d="M61.4844 53.0082L62.2528 52.5859L62.3448 53.1044L61.5763 53.5271L61.4844 53.0082Z" fill="#42E8E0"/>
<path d="M60.2812 53.6654L61.0497 53.2432L61.1416 53.7616L60.3732 54.1839L60.2812 53.6654Z" fill="#42E8E0"/>
<path d="M66.1719 59.6192L68.7923 58.1787L68.8847 58.6976L66.2639 60.1381L66.1719 59.6192Z" fill="#42E8E0"/>
<path d="M63.2422 61.2323L65.6975 59.8828L65.7895 60.4013L63.3342 61.7507L63.2422 61.2323Z" fill="#42E8E0"/>
<path d="M62 61.9193L62.768 61.4971L62.86 62.0155L62.092 62.4378L62 61.9193Z" fill="#42E8E0"/>
<path d="M60.7969 62.5779L61.5653 62.1553L61.6577 62.6737L60.8893 63.0964L60.7969 62.5779Z" fill="#42E8E0"/>
<path d="M60.142 62.9365L58.4844 63.8474L58.5768 64.3663L60.2344 63.455L60.142 62.9365Z" fill="#42E8E0"/>
<path d="M193.854 113.662L191.694 114.734L170.042 102.845C169.679 102.646 169.047 102.671 168.628 102.901L131.284 123.406C130.926 123.216 129.297 122.471 129.297 122.471L130.087 124.43C130.087 124.43 130.09 124.428 130.091 124.427C130.123 124.514 130.194 124.596 130.312 124.66L153.116 137.182C153.479 137.381 154.111 137.356 154.529 137.126L192.745 116.143C192.917 116.049 193.022 115.934 193.065 115.819L193.068 115.821L193.854 113.662Z" fill="url(#paint19_linear_473_10207)"/>
<path d="M193.518 114L154.352 135.505C153.924 135.74 153.275 135.766 152.904 135.562L129.532 122.729C129.161 122.525 129.207 122.169 129.636 121.934L168.802 100.429C169.23 100.194 169.879 100.168 170.25 100.372L193.622 113.205C193.993 113.408 193.946 113.764 193.518 114Z" fill="url(#paint20_linear_473_10207)"/>
<path d="M193.514 113.785L154.349 135.29C153.92 135.525 153.271 135.551 152.9 135.347L129.528 122.514C129.407 122.447 129.334 122.363 129.301 122.274C129.242 122.441 129.313 122.611 129.528 122.729L152.9 135.562C153.271 135.766 153.92 135.74 154.349 135.504L193.514 113.999C193.803 113.841 193.913 113.629 193.845 113.444C193.803 113.566 193.694 113.686 193.514 113.785Z" fill="white"/>
<path d="M142.539 130.854V130.445C142.539 130.407 142.564 130.389 142.594 130.406L144.109 131.237C144.14 131.254 144.165 131.299 144.165 131.338V131.746C144.165 131.785 144.14 131.803 144.109 131.786L142.594 130.954C142.564 130.937 142.539 130.892 142.539 130.854Z" fill="#2842A2"/>
<path d="M144.805 132.097V131.689C144.805 131.65 144.829 131.632 144.86 131.649L146.375 132.481C146.405 132.497 146.43 132.542 146.43 132.581V132.99C146.43 133.028 146.405 133.046 146.375 133.029L144.86 132.198C144.83 132.181 144.805 132.136 144.805 132.097Z" fill="#2842A2"/>
<path d="M142.703 125.647L175.25 107.776C175.467 107.657 175.734 107.657 175.951 107.776L187.541 114.153C187.707 114.245 187.707 114.473 187.541 114.565L155.009 132.427C154.792 132.546 154.525 132.546 154.308 132.427L142.703 126.058C142.537 125.967 142.537 125.738 142.703 125.647Z" fill="#ADB1F2"/>
<path d="M142.703 126.059L142.82 126.123L175.25 108.316C175.467 108.197 175.734 108.197 175.951 108.317L187.424 114.63L187.541 114.566C187.707 114.474 187.707 114.246 187.541 114.154L175.951 107.777C175.734 107.658 175.467 107.658 175.25 107.777L142.703 125.648C142.537 125.739 142.537 125.968 142.703 126.059Z" fill="#9198DB"/>
<path d="M176.825 109.391L146.846 125.853L145.359 125.288L175.568 108.701L176.825 109.391Z" fill="#24126A"/>
<path d="M179.899 111.085L153.382 125.645L152.125 124.955L178.642 110.395L179.899 111.085Z" fill="#24126A"/>
<path d="M181.916 112.186L150.694 129.329L149.438 128.639L180.659 111.496L181.916 112.186Z" fill="#24126A"/>
<path d="M183.916 113.288L152.694 130.431L151.438 129.741L182.659 112.598L183.916 113.288Z" fill="#24126A"/>
<path d="M185.924 114.391L154.702 131.534L153.445 130.844L184.667 113.701L185.924 114.391Z" fill="#24126A"/>
<path d="M146.842 125.853L145.585 126.543L144.328 125.853L145.585 125.163L146.842 125.853Z" fill="#24126A"/>
<path d="M154.907 124.807L148.663 128.236L147.406 127.545L153.696 124.092L154.907 124.807Z" fill="#24126A"/>
<path d="M154.297 117.637L163.073 112.819C163.416 112.63 163.416 112.325 163.073 112.137L157.072 108.842C156.729 108.653 156.173 108.653 155.83 108.842L147.054 113.66C146.711 113.849 146.711 114.154 147.054 114.342L153.055 117.637C153.398 117.826 153.954 117.826 154.297 117.637Z" fill="url(#paint21_linear_473_10207)"/>
<path d="M147.051 113.94L155.827 109.121C156.17 108.933 156.726 108.933 157.069 109.121L163.07 112.416C163.176 112.474 163.245 112.544 163.285 112.618C163.376 112.453 163.307 112.267 163.07 112.137L157.069 108.842C156.726 108.653 156.17 108.653 155.827 108.842L147.051 113.66C146.814 113.79 146.745 113.976 146.835 114.141C146.876 114.067 146.945 113.998 147.051 113.94Z" fill="#9198DB"/>
<path d="M193.795 113.109L188.845 85.1743L189.243 85.0149L188.644 84.6888L188.645 84.692C188.529 84.6184 188.365 84.6228 188.184 84.7222L148.616 106.448C148.291 106.627 148.045 107.084 148.102 107.404L153.092 135.561C153.118 135.708 153.195 135.806 153.301 135.848L153.886 136.17L153.986 135.65L153.953 135.66L193.281 114.065C193.607 113.887 193.853 113.429 193.795 113.109Z" fill="url(#paint22_linear_473_10207)"/>
<path d="M148.836 107.213L148.185 106.939C148.113 107.098 148.077 107.265 148.102 107.405L153.092 135.562C153.118 135.709 153.194 135.806 153.3 135.849H153.3L153.885 136.171L153.986 135.651L153.953 135.661L155.943 134.568L148.836 107.213Z" fill="url(#paint23_linear_473_10207)"/>
<path d="M193.907 114.404L154.338 136.13C154.033 136.298 153.771 136.201 153.717 135.9L148.727 107.743C148.67 107.423 148.916 106.966 149.241 106.787L188.809 85.0613C189.115 84.8935 189.376 84.9905 189.43 85.2911L194.42 113.448C194.478 113.768 194.231 114.226 193.907 114.404Z" fill="#453C9E"/>
<path d="M73.181 96.1574C72.5427 96.1574 71.9143 95.9979 71.3649 95.6961L50.4301 84.2011C50.1019 84.021 49.9062 83.6978 49.9062 83.3375C49.9062 82.9773 50.1023 82.6545 50.4301 82.4743L88.3089 61.6759C88.3729 61.6409 88.451 61.6405 88.5154 61.6755L88.6914 61.7717L111.164 74.1108C111.492 74.2909 111.687 74.6138 111.687 74.9744C111.687 75.335 111.491 75.6579 111.164 75.8376L74.998 95.6958C74.4474 95.9979 73.8194 96.1574 73.181 96.1574ZM88.4122 62.0727L50.6366 82.8143C50.4376 82.9236 50.3193 83.1192 50.3193 83.3375C50.3193 83.5562 50.438 83.7518 50.6366 83.8608L71.5715 95.3558C72.5452 95.8902 73.8161 95.8902 74.791 95.3558L110.957 75.4976C111.156 75.3887 111.274 75.1931 111.274 74.9748C111.274 74.7561 111.156 74.5605 110.957 74.4516L88.4122 62.0727Z" fill="#42E8E0"/>
<path d="M88.4548 53.6406L83.4162 25.2117L83.8213 25.0495L83.2126 24.7175L83.2135 24.7207C83.0952 24.6459 82.9283 24.6503 82.7444 24.7513L42.4767 46.8615C42.146 47.0432 41.8956 47.5088 41.9537 47.8344L47.0324 76.4895C47.0592 76.639 47.1365 76.738 47.2448 76.7813H47.244L47.8397 77.1085L47.9422 76.5797L47.9083 76.5897L87.9322 54.6135C88.2625 54.4314 88.5129 53.9658 88.4548 53.6406Z" fill="url(#paint24_linear_473_10207)"/>
<path d="M42.7005 47.6391L42.0387 47.3604C41.9643 47.5218 41.9279 47.6912 41.9534 47.8343L47.0321 76.4894C47.0589 76.6389 47.1362 76.7379 47.2441 76.7812L47.8394 77.1084L47.9419 76.5796L47.908 76.5896L49.9331 75.4775L42.7005 47.6391Z" fill="url(#paint25_linear_473_10207)"/>
<path d="M88.5642 54.958L48.2965 77.0682C47.9855 77.2388 47.7196 77.1402 47.6648 76.834L42.5865 48.1789C42.5284 47.8533 42.7788 47.3877 43.1095 47.206L83.3772 25.0958C83.6883 24.9253 83.9541 25.0239 84.0089 25.33L89.0876 53.9851C89.1453 54.3107 88.8949 54.7763 88.5642 54.958Z" fill="#24126A"/>
<g opacity="0.51">
<path d="M82.8461 26.9248L44.0312 48.2374L48.8449 75.2245L87.6334 53.9263L82.8461 26.9248Z" fill="#453C9E"/>
</g>
<path d="M113.869 68.5254L111.672 69.6168L89.6369 57.5174C89.2682 57.3151 88.6243 57.3405 88.1987 57.5743L50.1937 78.442C49.8299 78.2483 48.1719 77.4901 48.1719 77.4901L48.9762 79.4833L48.9796 79.4809C49.013 79.5696 49.0845 79.6523 49.2045 79.7183L72.4124 92.461C72.7812 92.6633 73.425 92.6379 73.8506 92.4045L112.742 71.0502C112.916 70.9544 113.023 70.8379 113.068 70.7202L113.071 70.7222L113.869 68.5254Z" fill="url(#paint26_linear_473_10207)"/>
<path d="M113.529 68.8679L73.6703 90.7535C73.2342 90.9932 72.5741 91.0191 72.1962 90.8115L48.4113 77.7515C48.0334 77.544 48.081 77.1818 48.5171 76.942L88.3755 55.0565C88.8119 54.8171 89.4716 54.7909 89.8496 54.9985L113.634 68.0584C114.012 68.266 113.965 68.6282 113.529 68.8679Z" fill="url(#paint27_linear_473_10207)"/>
<path d="M113.525 68.6504L73.6666 90.5359C73.2301 90.7753 72.5704 90.8015 72.1925 90.594L48.4076 77.534C48.2839 77.466 48.2103 77.3809 48.1764 77.2895C48.1166 77.4597 48.1885 77.6322 48.4076 77.7523L72.1925 90.8123C72.5704 91.0198 73.2301 90.9936 73.6666 90.7542L113.525 68.8687C113.818 68.7077 113.931 68.4914 113.861 68.3037C113.818 68.4274 113.708 68.5498 113.525 68.6504Z" fill="white"/>
<path d="M61.6484 86.0195V85.6036C61.6484 85.5642 61.6735 85.546 61.7045 85.5631L63.2463 86.4095C63.2772 86.4266 63.3027 86.4724 63.3027 86.5117V86.9276C63.3027 86.967 63.2777 86.9853 63.2463 86.9682L61.7045 86.1217C61.6735 86.1046 61.6484 86.0589 61.6484 86.0195Z" fill="#2842A2"/>
<path d="M63.9531 87.2842V86.8683C63.9531 86.8289 63.9782 86.8106 64.0096 86.8277L65.5514 87.6742C65.5823 87.6913 65.6078 87.737 65.6078 87.7764V88.1923C65.6078 88.2316 65.5828 88.2499 65.5514 88.2328L64.0096 87.3863C63.9786 87.3696 63.9531 87.3235 63.9531 87.2842Z" fill="#2842A2"/>
<path d="M54.6117 76.5285L87.7337 58.3419C87.9544 58.2206 88.2266 58.2206 88.4473 58.3423L100.242 64.8323C100.411 64.9254 100.411 65.1579 100.242 65.251L67.135 83.4293C66.9142 83.5505 66.6425 83.5505 66.4222 83.4293L54.6117 76.9476C54.4419 76.8542 54.4419 76.6216 54.6117 76.5285Z" fill="#ADB1F2"/>
<path d="M54.6116 76.9474L54.7304 77.0126L87.7341 58.8912C87.9548 58.7699 88.227 58.7699 88.4477 58.8916L100.124 65.316L100.242 65.2508C100.411 65.1578 100.412 64.9252 100.242 64.8322L88.4477 58.3421C88.227 58.2209 87.9548 58.2205 87.7341 58.3417L54.612 76.5284C54.4419 76.6218 54.4419 76.8544 54.6116 76.9474Z" fill="#9198DB"/>
<path d="M89.3317 59.9858L60.5605 75.7836L59.2812 75.0811L88.0524 59.2832L89.3317 59.9858Z" fill="#24126A"/>
<path d="M92.4688 61.708L65.4824 76.5258L64.2031 75.8232L91.1895 61.0059L92.4688 61.708Z" fill="#24126A"/>
<path d="M94.5135 62.8305L62.7402 80.2768L61.4609 79.5742L93.2343 62.1279L94.5135 62.8305Z" fill="#24126A"/>
<path d="M96.5526 63.9506L64.7793 81.3969L63.5 80.6944L95.2733 63.248L96.5526 63.9506Z" fill="#24126A"/>
<path d="M98.5995 65.0737L66.8262 82.52L65.5469 81.8174L97.3202 64.3711L98.5995 65.0737Z" fill="#24126A"/>
<path d="M58.8242 76.7377L57.5449 77.4399L56.2656 76.7377L57.5449 76.0352L58.8242 76.7377Z" fill="#24126A"/>
<path d="M63.3407 77.7055L60.6855 79.1631L59.4062 78.4609L62.0614 77.0029L63.3407 77.7055Z" fill="#24126A"/>
<path d="M89.0082 80.9299L97.939 76.0263C98.2881 75.8346 98.2881 75.5237 97.939 75.3321L91.8319 71.9787C91.4828 71.7871 90.9167 71.7871 90.5676 71.9787L81.6368 76.8823C81.2877 77.0739 81.2877 77.3849 81.6368 77.5765L87.744 80.9299C88.0931 81.1215 88.6591 81.1215 89.0082 80.9299Z" fill="url(#paint28_linear_473_10207)"/>
<path d="M81.6336 77.1656L90.5644 72.2616C90.9135 72.07 91.4796 72.07 91.8286 72.2616L97.9358 75.615C98.0437 75.6742 98.1139 75.745 98.1553 75.8201C98.2477 75.6523 98.177 75.4635 97.9358 75.3311L91.8286 71.9777C91.4796 71.7861 90.9135 71.7861 90.5644 71.9777L81.6336 76.8813C81.3924 77.0137 81.3217 77.2026 81.4141 77.3704C81.4555 77.296 81.5257 77.2248 81.6336 77.1656Z" fill="#9198DB"/>
<g opacity="0.11">
<mask id="mask3_473_10207" style="mask-type:luminance" maskUnits="userSpaceOnUse" x="44" y="26" width="44" height="50">
<path d="M82.8461 26.9248L44.0312 48.2374L48.8449 75.2245L87.6334 53.9263L82.8461 26.9248Z" fill="white"/>
</mask>
<g mask="url(#mask3_473_10207)">
<path d="M88.4193 55.0111L48.5609 76.8967C48.1249 77.136 47.4647 77.1623 47.0868 76.9547L23.3019 63.8947C22.924 63.6872 22.9717 63.325 23.4077 63.0852L63.2661 41.1997C63.7026 40.9599 64.3623 40.9341 64.7402 41.1417L88.525 54.2016C88.903 54.4092 88.8557 54.7718 88.4193 55.0111Z" fill="url(#paint29_linear_473_10207)"/>
<path d="M48.4457 58.9348L57.3765 54.0312C57.7256 53.8395 57.7256 53.5286 57.3765 53.3369L51.2694 49.9836C50.9203 49.7919 50.3542 49.7919 50.0051 49.9836L41.0743 54.8876C40.7252 55.0792 40.7252 55.3901 41.0743 55.5818L47.1815 58.9352C47.5306 59.1264 48.0966 59.1264 48.4457 58.9348Z" fill="url(#paint30_linear_473_10207)"/>
<path d="M41.0711 55.1715L50.0019 50.2675C50.351 50.0758 50.9171 50.0758 51.2657 50.2675L57.3729 53.6208C57.4807 53.6801 57.551 53.7508 57.5924 53.826C57.6848 53.6582 57.6145 53.4693 57.3729 53.3369L51.2657 49.9836C50.9166 49.7919 50.3506 49.7919 50.0019 49.9836L41.0711 54.8876C40.8299 55.02 40.7592 55.2088 40.8516 55.3766C40.893 55.3019 40.9636 55.2307 41.0711 55.1715Z" fill="#9198DB"/>
<path d="M37.1429 66.5988L70.2649 48.4122C70.4856 48.2909 70.7578 48.2909 70.9785 48.4126L82.7731 54.9026C82.9424 54.9957 82.9424 55.2283 82.7731 55.3213L49.6666 73.4996C49.4458 73.6209 49.1741 73.6209 48.9538 73.4996L37.1433 67.0179C36.9731 66.9249 36.9731 66.6919 37.1429 66.5988Z" fill="#ADB1F2"/>
<path d="M37.1429 67.0174L37.2617 67.0826L70.2654 48.9611C70.4861 48.8399 70.7583 48.8399 70.979 48.9615L82.6549 55.3864L82.7732 55.3211C82.9425 55.2281 82.9429 54.9955 82.7732 54.9025L70.9786 48.4124C70.7578 48.2912 70.4857 48.2908 70.2649 48.412L37.1429 66.5987C36.9732 66.6913 36.9732 66.9243 37.1429 67.0174Z" fill="#9198DB"/>
<path d="M79.6833 54.458L50.8281 70.302L51.9711 70.9294L80.8263 55.0858L79.6833 54.458Z" fill="#24126A"/>
<path d="M76.6454 52.7891L49.2188 67.8482L50.3618 68.476L77.7884 53.4165L76.6454 52.7891Z" fill="#24126A"/>
<path d="M47.1709 68.9727L44.6094 70.3794L45.7524 71.0068L48.3139 69.6005L47.1709 68.9727Z" fill="#24126A"/>
<path d="M49.4319 71.0693L47.6484 72.0486L48.7914 72.6764L50.5749 71.6972L49.4319 71.0693Z" fill="#24126A"/>
<path d="M74.739 51.7432L42.7031 69.3334L43.8461 69.9608L75.882 52.3706L74.739 51.7432Z" fill="#24126A"/>
<path d="M72.8327 50.6973L40.7969 68.2875L41.9399 68.9153L73.9757 51.3247L72.8327 50.6973Z" fill="#24126A"/>
<path d="M70.9265 49.6514L38.8906 67.2416L40.0336 67.8694L72.0695 50.2792L70.9265 49.6514Z" fill="#24126A"/>
</g>
</g>
<path d="M58.6406 64.935L61.7807 63.209L61.8731 63.7275L58.7326 65.4538L58.6406 64.935Z" fill="#42E8E0"/>
<path d="M62.2969 62.9339L64.008 61.9932L64.1 62.512L62.3893 63.4524L62.2969 62.9339Z" fill="#42E8E0"/>
<path d="M66.6562 60.5323L67.8942 59.8516L67.9866 60.3704L66.7486 61.0507L66.6562 60.5323Z" fill="#42E8E0"/>
<path d="M65.7656 61.0285L66.1887 60.7959L66.2807 61.3144L65.8576 61.547L65.7656 61.0285Z" fill="#42E8E0"/>
<path d="M64.5156 61.7146L65.284 61.292L65.376 61.8105L64.6076 62.2331L64.5156 61.7146Z" fill="#42E8E0"/>
<path d="M61.125 60.9694L62.3629 60.2891L62.4553 60.8075L61.217 61.4882L61.125 60.9694Z" fill="#42E8E0"/>
<path d="M58.2188 62.5666L60.6448 61.2334L60.7368 61.7519L58.3111 63.085L58.2188 62.5666Z" fill="#42E8E0"/>
<path d="M61.7031 54.1613L64.1288 52.8281L64.2207 53.3466L61.7951 54.6797L61.7031 54.1613Z" fill="#42E8E0"/>
<path d="M60.4531 54.8471L61.2211 54.4248L61.3131 54.9437L60.5451 55.3659L60.4531 54.8471Z" fill="#42E8E0"/>
<path d="M62.1094 56.5333L64.535 55.2002L64.627 55.7187L62.2014 57.0522L62.1094 56.5333Z" fill="#42E8E0"/>
<path d="M60.8594 57.2195L61.6278 56.7969L61.7198 57.3157L60.9514 57.738L60.8594 57.2195Z" fill="#42E8E0"/>
<path d="M59.9115 43.9228L55.342 46.4344L55.25 45.9159L59.8195 43.4043L59.9115 43.9228Z" fill="#42E8E0"/>
<path d="M61.5197 43.0374L60.3893 43.6589L60.2969 43.14L61.4278 42.5186L61.5197 43.0374Z" fill="#42E8E0"/>
<path d="M69.5521 42.5331L64.9826 45.0448L64.8906 44.5263L69.4601 42.0146L69.5521 42.5331Z" fill="#42E8E0"/>
<path d="M71.1599 41.6479L70.0295 42.2693L69.9375 41.7508L71.068 41.1294L71.1599 41.6479Z" fill="#42E8E0"/>
<path d="M56.783 46.9384L55.5451 47.6191L55.4531 47.1002L56.691 46.4199L56.783 46.9384Z" fill="#42E8E0"/>
<path d="M64.3221 45.4013L63.0842 46.082L62.9922 45.5635L64.2301 44.8828L64.3221 45.4013Z" fill="#42E8E0"/>
<path d="M59.6895 45.3417L57.2639 46.6753L57.1719 46.1564L59.5975 44.8232L59.6895 45.3417Z" fill="#42E8E0"/>
<path d="M60.9385 44.6542L60.1705 45.0765L60.0781 44.558L60.8465 44.1357L60.9385 44.6542Z" fill="#42E8E0"/>
<path d="M63.8692 43.0478L61.4435 44.3813L61.3516 43.8628L63.7772 42.5293L63.8692 43.0478Z" fill="#42E8E0"/>
<path d="M65.1182 42.3622L64.3498 42.7845L64.2578 42.266L65.0258 41.8438L65.1182 42.3622Z" fill="#42E8E0"/>
<path d="M64.1116 44.2167L62.8732 44.8974L62.7812 44.3789L64.0192 43.6982L64.1116 44.2167Z" fill="#42E8E0"/>
<path d="M67.0176 42.6191L64.592 43.9522L64.5 43.4337L66.9256 42.1006L67.0176 42.6191Z" fill="#42E8E0"/>
<path d="M68.2666 41.9339L67.4982 42.3562L67.4062 41.8373L68.1742 41.415L68.2666 41.9339Z" fill="#42E8E0"/>
<path d="M58.2969 47.411L55.7639 48.8034L55.6719 48.285L58.205 46.8926L58.2969 47.411Z" fill="#42E8E0"/>
<path d="M60.6115 46.1405L58.7795 47.1477L58.6875 46.6288L60.5191 45.6221L60.6115 46.1405Z" fill="#42E8E0"/>
<path d="M62.3299 45.1966L61.092 45.8769L61 45.3584L62.2379 44.6777L62.3299 45.1966Z" fill="#42E8E0"/>
<path d="M74.3286 39.911L71.7951 41.3034L71.7031 40.785L74.2362 39.3926L74.3286 39.911Z" fill="#42E8E0"/>
<path d="M76.6427 38.6409L74.8107 39.6477L74.7188 39.1292L76.5503 38.1221L76.6427 38.6409Z" fill="#42E8E0"/>
<path d="M78.3615 37.6966L77.1232 38.3769L77.0312 37.8584L78.2692 37.1777L78.3615 37.6966Z" fill="#42E8E0"/>
<path d="M73.3438 55.5639L75.8768 54.1719L75.9688 54.6903L73.4357 56.0827L73.3438 55.5639Z" fill="#42E8E0"/>
<path d="M71.0312 56.8349L72.8632 55.8281L72.9552 56.3466L71.1232 57.3533L71.0312 56.8349Z" fill="#42E8E0"/>
<path d="M69.3125 57.7793L70.5508 57.0986L70.6428 57.6175L69.4045 58.2978L69.3125 57.7793Z" fill="#42E8E0"/>
<path d="M72.5 57.3318L75.0331 55.9395L75.1251 56.4579L72.592 57.8503L72.5 57.3318Z" fill="#42E8E0"/>
<path d="M70.1875 58.6019L72.0191 57.5947L72.1115 58.1136L70.2795 59.1203L70.1875 58.6019Z" fill="#42E8E0"/>
<path d="M68.4766 59.5465L69.7145 58.8662L69.8069 59.3847L68.5685 60.0654L68.4766 59.5465Z" fill="#42E8E0"/>
<path d="M62.2734 55.1413L63.1292 54.6709L63.2212 55.1894L62.3658 55.6597L62.2734 55.1413Z" fill="#42E8E0"/>
<path d="M60.6641 56.0257L61.7949 55.4043L61.8869 55.9232L60.7565 56.5442L60.6641 56.0257Z" fill="#42E8E0"/>
<path d="M58.5239 48.5892L55.9908 49.9816L55.8984 49.4627L58.4315 48.0703L58.5239 48.5892Z" fill="#42E8E0"/>
<path d="M60.8302 47.3183L58.9982 48.3254L58.9062 47.8065L60.7382 46.7998L60.8302 47.3183Z" fill="#42E8E0"/>
<path d="M62.5491 46.373L61.3107 47.0537L61.2188 46.5352L62.4571 45.8545L62.5491 46.373Z" fill="#42E8E0"/>
<path d="M57.0567 50.6962L56.2014 51.1666L56.1094 50.6481L56.9647 50.1777L57.0567 50.6962Z" fill="#42E8E0"/>
<path d="M58.6599 49.8095L57.5295 50.4309L57.4375 49.9125L58.568 49.291L58.6599 49.8095Z" fill="#42E8E0"/>
<path d="M60.9682 48.5448L59.1467 49.5464L59.0547 49.0275L60.8762 48.0264L60.9682 48.5448Z" fill="#42E8E0"/>
<path d="M63.4375 58.4069L64.2929 57.9365L64.3848 58.4554L63.5295 58.9254L63.4375 58.4069Z" fill="#42E8E0"/>
<path d="M61.8281 59.2933L62.959 58.6719L63.051 59.1903L61.9205 59.8118L61.8281 59.2933Z" fill="#42E8E0"/>
<path d="M59.5312 60.5568L61.3532 59.5557L61.4452 60.0741L59.6236 61.0753L59.5312 60.5568Z" fill="#42E8E0"/>
<path d="M64.7344 56.4846L66.5563 55.4834L66.6483 56.0019L64.8268 57.003L64.7344 56.4846Z" fill="#42E8E0"/>
<path d="M61.7656 58.0282L64.2214 56.6787L64.3133 57.1972L61.858 58.5466L61.7656 58.0282Z" fill="#42E8E0"/>
<path d="M60.5156 58.7142L61.284 58.292L61.376 58.8105L60.608 59.2327L60.5156 58.7142Z" fill="#42E8E0"/>
<path d="M59.3125 59.3728L60.0809 58.9502L60.1729 59.4687L59.4049 59.8913L59.3125 59.3728Z" fill="#42E8E0"/>
<path d="M59.4688 52.6789L61.8944 51.3457L61.9864 51.8642L59.5607 53.1977L59.4688 52.6789Z" fill="#42E8E0"/>
<path d="M58.2266 53.3646L58.9946 52.9424L59.0865 53.4609L58.3185 53.8831L58.2266 53.3646Z" fill="#42E8E0"/>
<path d="M59.6406 51.2858L60.496 50.8154L60.5884 51.3343L59.7326 51.8043L59.6406 51.2858Z" fill="#42E8E0"/>
<path d="M62.6562 52.236L63.5116 51.7656L63.604 52.2845L62.7482 52.7545L62.6562 52.236Z" fill="#42E8E0"/>
<path d="M63.8828 51.5651L65.936 50.4375L66.0279 50.956L63.9752 52.0836L63.8828 51.5651Z" fill="#42E8E0"/>
<path d="M66.2969 50.2385L67.5181 49.5674L67.61 50.0858L66.3889 50.757L66.2969 50.2385Z" fill="#42E8E0"/>
<path d="M58.0312 52.1722L59.1617 51.5508L59.2541 52.0697L58.1232 52.6911L58.0312 52.1722Z" fill="#42E8E0"/>
<path d="M57.9219 50.9538L58.7772 50.4834L58.8696 51.0023L58.0139 51.4722L57.9219 50.9538Z" fill="#42E8E0"/>
<path d="M56.3125 51.8398L57.443 51.2188L57.5354 51.7372L56.4045 52.3587L56.3125 51.8398Z" fill="#42E8E0"/>
<path d="M61.4219 52.9174L62.1903 52.4951L62.2823 53.0136L61.5143 53.4362L61.4219 52.9174Z" fill="#42E8E0"/>
<path d="M60.2188 53.5746L60.9867 53.1523L61.0791 53.6708L60.3107 54.0935L60.2188 53.5746Z" fill="#42E8E0"/>
<path d="M66.125 59.528L68.7459 58.0879L68.8379 58.6064L66.2174 60.0469L66.125 59.528Z" fill="#42E8E0"/>
<path d="M63.1953 61.1414L65.6511 59.792L65.743 60.3105L63.2877 61.6603L63.1953 61.1414Z" fill="#42E8E0"/>
<path d="M61.9531 61.8285L62.7215 61.4062L62.8135 61.9247L62.0451 62.347L61.9531 61.8285Z" fill="#42E8E0"/>
<path d="M60.75 62.4871L61.5184 62.0645L61.6104 62.5833L60.842 63.0056L60.75 62.4871Z" fill="#42E8E0"/>
<path d="M60.0951 62.8467L58.4375 63.7576L58.5295 64.2764L60.1871 63.3652L60.0951 62.8467Z" fill="#42E8E0"/>
<path d="M146.108 115.218C146.072 115.218 146.037 115.209 146.004 115.192L124.299 103.274C124.2 103.219 124.166 103.099 124.223 103.005C124.28 102.912 124.406 102.879 124.505 102.933L146.211 114.852C146.31 114.906 146.343 115.026 146.287 115.12C146.248 115.183 146.179 115.218 146.108 115.218Z" fill="#42E8E0"/>
<path d="M125.16 96.3052C125.088 96.3052 125.019 96.2698 124.981 96.207C124.924 96.1132 124.958 95.9931 125.057 95.9386L146.762 84.0205C146.861 83.9661 146.988 83.9987 147.045 84.0925C147.102 84.1863 147.068 84.3064 146.969 84.3609L125.263 96.2794C125.231 96.2969 125.195 96.3052 125.16 96.3052Z" fill="#42E8E0"/>
<path d="M74.6599 124.173C74.5884 124.173 74.519 124.137 74.481 124.075C74.4237 123.981 74.4576 123.861 74.5567 123.806L96.2624 111.888C96.3607 111.834 96.4878 111.865 96.5446 111.96C96.6019 112.053 96.568 112.174 96.469 112.228L74.7632 124.146C74.7302 124.164 74.6946 124.173 74.6599 124.173Z" fill="#42E8E0"/>
<path d="M113.873 98.2503C113.838 98.2503 113.803 98.242 113.77 98.2241L92.0642 86.306C91.9655 86.2516 91.9317 86.1319 91.9885 86.0377C92.0454 85.9438 92.1725 85.9116 92.2707 85.9657L113.976 97.8838C114.075 97.9382 114.109 98.0579 114.052 98.1521C114.014 98.215 113.945 98.2503 113.873 98.2503Z" fill="#42E8E0"/>
<path d="M153.562 140.783C152.933 140.783 152.316 140.626 151.775 140.33L131.204 129.034C130.881 128.857 130.688 128.538 130.688 128.183C130.688 127.827 130.881 127.509 131.204 127.331L168.425 106.894C168.489 106.859 168.567 106.859 168.631 106.894L168.804 106.989L190.886 119.113C191.209 119.291 191.403 119.61 191.403 119.965C191.403 120.321 191.21 120.639 190.886 120.816L155.349 140.33C154.808 140.627 154.19 140.783 153.562 140.783ZM168.529 107.292L131.411 127.672C131.217 127.779 131.101 127.97 131.101 128.183C131.101 128.396 131.217 128.587 131.412 128.694L151.982 139.99C152.938 140.514 154.186 140.514 155.143 139.99L190.68 120.476C190.874 120.37 190.99 120.179 190.99 119.966C190.99 119.752 190.874 119.561 190.68 119.454L168.529 107.292Z" fill="#42E8E0"/>
<path d="M193.557 113.627L191.397 114.699L169.745 102.81C169.382 102.611 168.75 102.636 168.331 102.866L130.987 123.371C130.629 123.181 129 122.436 129 122.436L129.791 124.395C129.791 124.395 129.793 124.393 129.794 124.392C129.827 124.479 129.897 124.56 130.015 124.625L152.82 137.147C153.182 137.346 153.815 137.321 154.233 137.091L192.448 116.108C192.62 116.014 192.726 115.899 192.769 115.784L192.772 115.786L193.557 113.627Z" fill="url(#paint31_linear_473_10207)"/>
<path d="M193.221 113.965L154.055 135.47C153.627 135.705 152.978 135.731 152.607 135.527L129.235 122.694C128.864 122.49 128.91 122.134 129.339 121.899L168.505 100.394C168.933 100.159 169.582 100.133 169.953 100.337L193.325 113.17C193.696 113.373 193.65 113.729 193.221 113.965Z" fill="url(#paint32_linear_473_10207)"/>
<path d="M193.217 113.75L154.052 135.255C153.623 135.49 152.974 135.515 152.603 135.312L129.231 122.479C129.11 122.412 129.037 122.328 129.004 122.239C128.945 122.406 129.016 122.575 129.231 122.694L152.603 135.526C152.974 135.73 153.623 135.705 154.052 135.469L193.217 113.964C193.506 113.806 193.617 113.594 193.548 113.409C193.506 113.53 193.397 113.651 193.217 113.75Z" fill="white"/>
<path d="M142.242 130.819V130.41C142.242 130.372 142.267 130.354 142.297 130.371L143.812 131.202C143.843 131.219 143.868 131.264 143.868 131.303V131.711C143.868 131.75 143.843 131.768 143.812 131.751L142.297 130.919C142.267 130.902 142.242 130.857 142.242 130.819Z" fill="#2842A2"/>
<path d="M144.508 132.062V131.653C144.508 131.615 144.532 131.597 144.563 131.614L146.078 132.445C146.109 132.462 146.133 132.507 146.133 132.546V132.954C146.133 132.993 146.109 133.011 146.078 132.994L144.563 132.162C144.532 132.146 144.508 132.101 144.508 132.062Z" fill="#2842A2"/>
<path d="M142.406 125.611L174.953 107.74C175.17 107.62 175.437 107.621 175.654 107.74L187.244 114.117C187.41 114.209 187.41 114.437 187.244 114.529L154.712 132.391C154.495 132.51 154.228 132.51 154.011 132.391L142.406 126.022C142.24 125.931 142.24 125.702 142.406 125.611Z" fill="#ADB1F2"/>
<path d="M142.406 126.022L142.523 126.086L174.953 108.279C175.17 108.16 175.437 108.16 175.654 108.279L187.127 114.593L187.244 114.529C187.41 114.437 187.41 114.208 187.244 114.117L175.654 107.74C175.437 107.621 175.17 107.621 174.953 107.74L142.406 125.61C142.24 125.702 142.24 125.931 142.406 126.022Z" fill="#9198DB"/>
<path d="M176.528 109.355L146.549 125.816L145.062 125.252L175.271 108.665L176.528 109.355Z" fill="#24126A"/>
<path d="M179.603 111.049L153.085 125.609L151.828 124.919L178.345 110.358L179.603 111.049Z" fill="#24126A"/>
<path d="M181.619 112.15L150.398 129.293L149.141 128.603L180.362 111.46L181.619 112.15Z" fill="#24126A"/>
<path d="M183.619 113.252L152.398 130.395L151.141 129.704L182.363 112.562L183.619 113.252Z" fill="#24126A"/>
<path d="M185.627 114.355L154.406 131.498L153.148 130.808L184.37 113.665L185.627 114.355Z" fill="#24126A"/>
<path d="M146.546 125.817L145.288 126.507L144.031 125.817L145.288 125.127L146.546 125.817Z" fill="#24126A"/>
<path d="M154.61 124.771L148.367 128.199L147.109 127.509L153.399 124.056L154.61 124.771Z" fill="#24126A"/>
<path d="M154 117.602L162.776 112.784C163.119 112.595 163.119 112.29 162.776 112.102L156.775 108.806C156.432 108.618 155.876 108.618 155.533 108.806L146.757 113.625C146.414 113.813 146.414 114.119 146.757 114.307L152.758 117.602C153.101 117.791 153.657 117.791 154 117.602Z" fill="url(#paint33_linear_473_10207)"/>
<path d="M146.754 113.905L155.53 109.086C155.873 108.898 156.429 108.898 156.772 109.086L162.773 112.382C162.879 112.44 162.948 112.51 162.989 112.583C163.079 112.419 163.01 112.233 162.773 112.103L156.772 108.807C156.429 108.619 155.873 108.619 155.53 108.807L146.754 113.626C146.517 113.756 146.448 113.942 146.538 114.107C146.579 114.033 146.648 113.963 146.754 113.905Z" fill="#9198DB"/>
<path d="M193.498 113.074L188.548 85.1391L188.946 84.9797L188.347 84.6537L188.348 84.6568C188.232 84.5833 188.068 84.5877 187.887 84.6871L148.319 106.413C147.994 106.592 147.748 107.049 147.805 107.369L152.796 135.526C152.822 135.673 152.898 135.77 153.004 135.813L153.004 135.813L153.589 136.135L153.69 135.615L153.656 135.625L192.985 114.03C193.309 113.852 193.556 113.394 193.498 113.074Z" fill="url(#paint34_linear_473_10207)"/>
<path d="M148.539 107.178L147.888 106.904C147.816 107.063 147.78 107.23 147.805 107.37L152.795 135.527C152.822 135.674 152.898 135.771 153.004 135.814L153.004 135.814L153.589 136.136L153.69 135.616L153.656 135.626L155.646 134.533L148.539 107.178Z" fill="url(#paint35_linear_473_10207)"/>
<path d="M193.609 114.369L154.041 136.095C153.735 136.263 153.474 136.166 153.42 135.865L148.43 107.708C148.373 107.388 148.619 106.931 148.944 106.752L188.512 85.0261C188.818 84.8583 189.079 84.9554 189.133 85.2559L194.123 113.413C194.18 113.733 193.934 114.191 193.609 114.369Z" fill="#453C9E"/>
<path d="M102.255 115.112C101.77 115.112 101.295 114.998 100.917 114.791L92.1765 109.991C91.6974 109.728 91.4219 109.337 91.4219 108.918C91.4219 108.536 91.6493 108.193 92.0456 107.975L134.106 84.8797C134.764 84.5183 135.813 84.5493 136.545 84.9516L145.287 89.7511C145.766 90.0147 146.041 90.4063 146.041 90.8254C146.041 91.2075 145.814 91.551 145.417 91.7681L103.357 114.863C103.063 115.023 102.672 115.112 102.255 115.112ZM135.206 85.0236C134.872 85.0236 134.552 85.088 134.313 85.2192L92.2522 108.314C91.9871 108.46 91.8349 108.68 91.8349 108.917C91.8353 109.192 92.0348 109.459 92.383 109.651L101.124 114.45C101.7 114.766 102.646 114.799 103.15 114.522L145.211 91.4277C145.476 91.2822 145.628 91.0628 145.628 90.825C145.628 90.5502 145.429 90.2823 145.08 90.0906L136.339 85.2912C136.016 85.1139 135.601 85.0236 135.206 85.0236Z" fill="#42E8E0"/>
<path opacity="0.6" d="M102.252 114.916C101.821 114.916 101.374 114.817 101.017 114.621L92.2764 109.821C91.8625 109.594 91.625 109.265 91.625 108.918C91.625 108.608 91.8148 108.326 92.1455 108.145L134.206 85.0497C134.796 84.7257 135.776 84.7575 136.439 85.1217L145.18 89.9211C145.594 90.1486 145.832 90.4782 145.832 90.8253C145.832 91.1346 145.642 91.4165 145.311 91.5982L103.25 114.693C102.977 114.843 102.621 114.916 102.252 114.916Z" fill="url(#paint36_linear_473_10207)" fill-opacity="0.5"/>
<path d="M128.219 71.7589C127.113 72.366 126.067 73.2213 125.136 74.2316C123.844 70.285 119.904 69.0604 115.241 71.6205C111.384 73.7386 108.022 77.9042 106.244 82.3176C105.655 82.3355 104.999 82.52 104.303 82.9017C101.786 84.2837 99.7455 87.645 99.7455 90.4092C99.7455 90.4688 99.7518 90.5233 99.7535 90.5809C99.0357 90.6278 98.2422 90.8692 97.4073 91.3276C94.1877 93.0953 91.5781 97.3942 91.5781 100.929C91.5781 104.465 94.1877 105.897 97.4073 104.13L128.219 87.2116C132.105 85.0777 135.255 79.8886 135.255 75.6216C135.255 71.3545 132.105 69.625 128.219 71.7589Z" fill="url(#paint37_linear_473_10207)"/>
<path d="M128.219 71.7588C127.578 72.1107 126.958 72.5484 126.368 73.049L122.922 71.1557L122.923 71.1565C121.03 69.8909 118.29 69.9462 115.241 71.6201C111.384 73.7381 108.022 77.9037 106.244 82.3171C105.655 82.335 104.998 82.5195 104.303 82.9012C101.786 84.2832 99.7451 87.6445 99.7451 90.4087C99.7451 90.4683 99.7514 90.5228 99.7535 90.5804C99.0357 90.6273 98.2422 90.8687 97.4073 91.3271C94.1877 93.0949 91.5781 97.3937 91.5781 100.929C91.5781 102.681 92.2203 103.914 93.2588 104.5L93.2563 104.501L93.283 104.516C93.2847 104.517 93.2864 104.518 93.2884 104.519L101.728 109.177L103.571 100.745L128.219 87.2108C132.105 85.0768 135.255 79.8882 135.255 75.6207C135.256 71.3545 132.105 69.6249 128.219 71.7588Z" fill="url(#paint38_radial_473_10207)"/>
<path d="M141.782 76.0358L133.232 71.3111L133.233 71.3131C131.956 70.5903 130.182 70.6809 128.219 71.7588C127.578 72.1107 126.958 72.5484 126.368 73.049L122.923 71.1557L122.923 71.1565C121.03 69.8909 118.29 69.9462 115.241 71.6201C111.384 73.7381 108.022 77.9037 106.244 82.3171C105.655 82.335 104.998 82.5195 104.303 82.9012C101.786 84.2832 99.7451 87.6445 99.7451 90.4087C99.7451 90.4683 99.7514 90.5228 99.7535 90.5804C99.0357 90.6273 98.2422 90.8687 97.4073 91.3271C94.1877 93.0949 91.5781 97.3937 91.5781 100.929C91.5781 102.681 92.2203 103.914 93.2588 104.5L93.2563 104.501L93.283 104.516C93.2847 104.517 93.2864 104.518 93.2885 104.519L101.728 109.177L103.571 100.745L128.219 87.2108C131.369 85.4812 134.034 81.7438 134.932 78.1172L141.782 76.0358Z" fill="url(#paint39_linear_473_10207)"/>
<path d="M136.688 76.432C135.582 77.0391 134.536 77.8944 133.605 78.9043C132.314 74.9577 128.373 73.7335 123.71 76.2932C119.853 78.4112 116.492 82.5769 114.713 86.9903C114.124 87.0081 113.467 87.1926 112.772 87.5743C110.255 88.9564 108.214 92.3177 108.214 95.0818C108.214 95.1415 108.221 95.1955 108.222 95.2536C107.504 95.3005 106.711 95.5419 105.876 96.0003C102.656 97.768 100.047 102.067 100.047 105.602C100.047 109.138 102.657 110.57 105.876 108.803L136.687 91.8851C140.573 89.7512 143.723 84.5621 143.723 80.2951C143.723 76.028 140.574 74.2985 136.688 76.432Z" fill="url(#paint40_linear_473_10207)"/>
<path d="M133.884 79.0664C134.815 78.0561 135.861 77.2013 136.966 76.5937C138.866 75.5504 140.589 75.4331 141.855 76.082C140.57 75.2582 138.729 75.3099 136.684 76.4327C135.642 77.0048 134.655 77.7988 133.766 78.7336C133.807 78.8426 133.847 78.9531 133.884 79.0664Z" fill="white"/>
<path d="M100.329 105.764C100.329 102.228 102.939 97.9293 106.159 96.1616C106.994 95.7032 107.787 95.4618 108.505 95.4149C108.503 95.3569 108.496 95.3024 108.496 95.2431C108.496 92.479 110.537 89.1177 113.054 87.7356C113.749 87.3539 114.405 87.1695 114.995 87.1516C116.773 82.7382 120.135 78.5722 123.992 76.4545C126.812 74.9063 129.367 74.7444 131.232 75.7293C129.347 74.5695 126.675 74.6653 123.71 76.2931C119.853 78.4111 116.491 82.5768 114.713 86.9901C114.123 87.008 113.467 87.1925 112.772 87.5742C110.254 88.9563 108.214 92.3176 108.214 95.0817C108.214 95.1414 108.221 95.1954 108.222 95.2535C107.504 95.3004 106.711 95.5421 105.876 96.0006C102.656 97.7683 100.047 102.067 100.047 105.603C100.047 107.418 100.736 108.677 101.842 109.235C100.902 108.615 100.329 107.42 100.329 105.764Z" fill="white"/>
<path d="M89.6455 141.296C89.0179 141.296 88.4 141.14 87.8586 140.842L52.321 121.329C51.9978 121.152 51.8047 120.834 51.8047 120.478C51.8047 120.122 51.9978 119.804 52.321 119.626L74.5757 107.407C74.6397 107.372 74.7183 107.372 74.7822 107.407L112.003 127.844C112.327 128.022 112.52 128.34 112.52 128.695C112.52 129.051 112.327 129.369 112.003 129.547L91.4319 140.842C90.8909 141.14 90.2734 141.296 89.6455 141.296ZM88.0656 140.502C89.0225 141.027 90.2692 141.027 91.2253 140.502L111.796 129.207C111.99 129.1 112.107 128.909 112.107 128.696C112.107 128.483 111.991 128.291 111.796 128.185L74.6794 107.804L52.5284 119.967C52.3344 120.074 52.2186 120.265 52.2186 120.478C52.2186 120.692 52.3344 120.883 52.5284 120.989L88.0656 140.502Z" fill="#42E8E0"/>
<path d="M49.6406 114.14L51.8 115.212L73.4526 103.323C73.8151 103.124 74.4476 103.149 74.8661 103.378L112.211 123.884C112.568 123.694 114.197 122.949 114.197 122.949L113.407 124.907L113.403 124.905C113.371 124.992 113.301 125.073 113.182 125.138L90.3778 137.66C90.0153 137.859 89.3828 137.834 88.9643 137.604L50.7489 116.621C50.5771 116.527 50.4717 116.413 50.4283 116.297L50.4253 116.299L49.6406 114.14Z" fill="url(#paint41_linear_473_10207)"/>
<path d="M49.9798 114.478L89.1454 135.983C89.5739 136.218 90.2228 136.243 90.594 136.04L113.966 123.207C114.337 123.003 114.291 122.647 113.862 122.412L74.6961 100.907C74.2675 100.671 73.6187 100.646 73.2475 100.849L49.8757 113.682C49.5044 113.886 49.5508 114.242 49.9798 114.478Z" fill="url(#paint42_linear_473_10207)"/>
<path d="M49.9756 114.263L89.1412 135.768C89.5697 136.004 90.2186 136.029 90.5898 135.825L113.962 122.993C114.083 122.926 114.156 122.842 114.189 122.752C114.248 122.92 114.177 123.089 113.962 123.207L90.5898 136.04C90.2186 136.244 89.5702 136.218 89.1412 135.983L49.9756 114.478C49.6871 114.32 49.5763 114.107 49.6445 113.923C49.6871 114.044 49.7954 114.164 49.9756 114.263Z" fill="white"/>
<path d="M100.954 131.33V130.922C100.954 130.883 100.929 130.866 100.898 130.882L99.3833 131.714C99.3528 131.731 99.3281 131.776 99.3281 131.815V132.223C99.3281 132.262 99.3528 132.28 99.3833 132.263L100.898 131.431C100.929 131.414 100.954 131.369 100.954 131.33Z" fill="#2842A2"/>
<path d="M98.6958 132.574V132.166C98.6958 132.128 98.6711 132.11 98.6406 132.126L97.1255 132.958C97.095 132.975 97.0703 133.02 97.0703 133.059V133.467C97.0703 133.506 97.095 133.524 97.1255 133.507L98.6406 132.675C98.6711 132.658 98.6958 132.613 98.6958 132.574Z" fill="#2842A2"/>
<path d="M100.79 126.124L68.2437 108.253C68.0267 108.134 67.7596 108.134 67.5426 108.254L55.9529 114.631C55.7865 114.722 55.7865 114.951 55.9533 115.042L88.485 132.905C88.7015 133.024 88.9687 133.024 89.1857 132.905L100.791 126.536C100.957 126.444 100.957 126.216 100.79 126.124Z" fill="#ADB1F2"/>
<path d="M100.791 126.537L100.674 126.601L68.244 108.794C68.027 108.674 67.7598 108.675 67.5429 108.794L56.0698 115.107L55.9531 115.043C55.7867 114.952 55.7863 114.723 55.9527 114.632L67.5424 108.255C67.7594 108.135 68.0266 108.135 68.2436 108.254L100.79 126.125C100.958 126.217 100.958 126.445 100.791 126.537Z" fill="#9198DB"/>
<path d="M66.6641 109.869L96.6439 126.33L98.1301 125.766L67.9212 109.179L66.6641 109.869Z" fill="#24126A"/>
<path d="M63.5781 111.561L90.0955 126.122L91.3526 125.432L64.8348 110.871L63.5781 111.561Z" fill="#24126A"/>
<path d="M61.5781 112.663L92.7996 129.806L94.0567 129.116L62.8353 111.973L61.5781 112.663Z" fill="#24126A"/>
<path d="M59.5703 113.764L90.7918 130.908L92.0489 130.218L60.8275 113.074L59.5703 113.764Z" fill="#24126A"/>
<path d="M57.5625 114.867L88.784 132.01L90.0411 131.32L58.8196 114.177L57.5625 114.867Z" fill="#24126A"/>
<path d="M96.6406 126.33L97.8973 127.02L99.1545 126.33L97.8973 125.64L96.6406 126.33Z" fill="#24126A"/>
<path d="M88.5781 125.284L94.8224 128.712L96.0796 128.022L89.7901 124.568L88.5781 125.284Z" fill="#24126A"/>
<path d="M89.205 118.115L80.4293 113.297C80.0861 113.108 80.0861 112.803 80.4293 112.615L86.4303 109.32C86.7735 109.132 87.3296 109.132 87.6724 109.32L96.4481 114.139C96.7909 114.327 96.7909 114.632 96.4481 114.82L90.4471 118.116C90.1043 118.304 89.5482 118.304 89.205 118.115Z" fill="url(#paint43_linear_473_10207)"/>
<path d="M96.4448 114.417L87.6691 109.599C87.3263 109.41 86.7698 109.41 86.427 109.599L80.4261 112.894C80.3203 112.952 80.2509 113.022 80.2103 113.096C80.1196 112.931 80.1886 112.745 80.4261 112.615L86.427 109.32C86.7698 109.132 87.3263 109.132 87.6691 109.32L96.4448 114.139C96.6819 114.269 96.7513 114.454 96.6605 114.619C96.62 114.545 96.5506 114.475 96.4448 114.417Z" fill="#9198DB"/>
<path d="M49.7191 113.587L54.6699 85.6518L54.2719 85.4924L54.8702 85.1664L54.8693 85.1695C54.9852 85.096 55.1495 85.1004 55.3305 85.1998L94.8987 106.926C95.2236 107.104 95.4694 107.562 95.4125 107.882L90.422 136.039C90.3957 136.186 90.3196 136.283 90.2134 136.326L89.6285 136.647L89.5282 136.128L89.5616 136.137L50.2334 114.543C49.9081 114.365 49.6623 113.907 49.7191 113.587Z" fill="url(#paint44_linear_473_10207)"/>
<path d="M94.6693 107.69L95.3198 107.416C95.393 107.574 95.4285 107.741 95.4034 107.882L90.4129 136.039C90.3866 136.186 90.3105 136.283 90.2043 136.326H90.2047L89.6194 136.647L89.5191 136.128L89.5525 136.137L87.5625 135.044L94.6693 107.69Z" fill="url(#paint45_linear_473_10207)"/>
<path d="M49.6076 114.882L89.1759 136.608C89.4815 136.776 89.7428 136.679 89.7967 136.378L94.7872 108.221C94.8445 107.901 94.5982 107.443 94.2734 107.265L54.7052 85.5388C54.3996 85.371 54.1383 85.4681 54.0843 85.7686L49.0943 113.926C49.037 114.246 49.2828 114.703 49.6076 114.882Z" fill="#453C9E"/>
</g>
<defs>
<linearGradient id="paint0_linear_473_10207" x1="266.828" y1="-367.623" x2="266.828" y2="312.377" gradientUnits="userSpaceOnUse">
<stop stop-color="#FFF0BC"/>
<stop offset="1" stop-color="#CFC2FF"/>
</linearGradient>
<linearGradient id="paint1_linear_473_10207" x1="148.483" y1="56.1391" x2="172.443" y2="100.176" gradientUnits="userSpaceOnUse">
<stop stop-color="#42E8E0"/>
<stop offset="0.0185" stop-color="#40DEDA"/>
<stop offset="0.1149" stop-color="#37ADBC"/>
<stop offset="0.2166" stop-color="#2E82A2"/>
<stop offset="0.3219" stop-color="#285E8C"/>
<stop offset="0.4319" stop-color="#A9ACB1"/>
<stop offset="0.5479" stop-color="#A4A4A4"/>
<stop offset="0.6729" stop-color="#B5B5B5"/>
<stop offset="0.813" stop-color="#E2E2E2"/>
<stop offset="1" stop-color="white"/>
</linearGradient>
<linearGradient id="paint2_linear_473_10207" x1="92.7275" y1="85.3472" x2="68.7674" y2="41.3106" gradientUnits="userSpaceOnUse">
<stop stop-color="#42E8E0"/>
<stop offset="0.0185" stop-color="#40DEDA"/>
<stop offset="0.1149" stop-color="#37ADBC"/>
<stop offset="0.2166" stop-color="#2E82A2"/>
<stop offset="0.3219" stop-color="#285E8C"/>
<stop offset="0.4319" stop-color="#A9ACB1"/>
<stop offset="0.5479" stop-color="#A4A4A4"/>
<stop offset="0.6729" stop-color="#B5B5B5"/>
<stop offset="0.813" stop-color="#E2E2E2"/>
<stop offset="1" stop-color="white"/>
</linearGradient>
<linearGradient id="paint3_linear_473_10207" x1="199.181" y1="50.2201" x2="152.664" y2="50.2201" gradientUnits="userSpaceOnUse">
<stop stop-color="#C0BFF6"/>
<stop offset="0.2938" stop-color="#C5C4F7"/>
<stop offset="0.6399" stop-color="#D3D2F9"/>
<stop offset="1" stop-color="#E9E9FD"/>
</linearGradient>
<linearGradient id="paint4_linear_473_10207" x1="199.183" y1="61.5655" x2="191.195" y2="61.5655" gradientUnits="userSpaceOnUse">
<stop stop-color="#5761D7"/>
<stop offset="0.1779" stop-color="#5C66D9"/>
<stop offset="0.3876" stop-color="#6A73DF"/>
<stop offset="0.6134" stop-color="#8289E8"/>
<stop offset="0.849" stop-color="#A3A7F5"/>
<stop offset="1" stop-color="#BCBEFF"/>
</linearGradient>
<linearGradient id="paint5_linear_473_10207" x1="192.948" y1="74.3204" x2="127.25" y2="74.3204" gradientUnits="userSpaceOnUse">
<stop stop-color="#5761D7"/>
<stop offset="0.1779" stop-color="#5C66D9"/>
<stop offset="0.3876" stop-color="#6A73DF"/>
<stop offset="0.6134" stop-color="#8289E8"/>
<stop offset="0.849" stop-color="#A3A7F5"/>
<stop offset="1" stop-color="#BCBEFF"/>
</linearGradient>
<linearGradient id="paint6_linear_473_10207" x1="170.879" y1="72.2362" x2="105.146" y2="72.2362" gradientUnits="userSpaceOnUse">
<stop stop-color="#C0BFF6"/>
<stop offset="0.2938" stop-color="#C5C4F7"/>
<stop offset="0.6399" stop-color="#D3D2F9"/>
<stop offset="1" stop-color="#E9E9FD"/>
</linearGradient>
<linearGradient id="paint7_linear_473_10207" x1="159.748" y1="75.7862" x2="142.922" y2="75.7862" gradientUnits="userSpaceOnUse">
<stop stop-color="#C0BFF6"/>
<stop offset="0.2938" stop-color="#C5C4F7"/>
<stop offset="0.6399" stop-color="#D3D2F9"/>
<stop offset="1" stop-color="#E9E9FD"/>
</linearGradient>
<linearGradient id="paint8_linear_473_10207" x1="195.988" y1="58.3795" x2="130.255" y2="58.3795" gradientUnits="userSpaceOnUse">
<stop stop-color="#C0BFF6"/>
<stop offset="0.2938" stop-color="#C5C4F7"/>
<stop offset="0.6399" stop-color="#D3D2F9"/>
<stop offset="1" stop-color="#E9E9FD"/>
</linearGradient>
<linearGradient id="paint9_linear_473_10207" x1="200.318" y1="53.7905" x2="183.492" y2="53.7905" gradientUnits="userSpaceOnUse">
<stop stop-color="#C0BFF6"/>
<stop offset="0.2938" stop-color="#C5C4F7"/>
<stop offset="0.6399" stop-color="#D3D2F9"/>
<stop offset="1" stop-color="#E9E9FD"/>
</linearGradient>
<linearGradient id="paint10_linear_473_10207" x1="83.779" y1="102.529" x2="42.7054" y2="132.226" gradientUnits="userSpaceOnUse">
<stop stop-color="#42E8E0"/>
<stop offset="0.0185" stop-color="#40DEDA"/>
<stop offset="0.1149" stop-color="#37ADBC"/>
<stop offset="0.2166" stop-color="#2E82A2"/>
<stop offset="0.3219" stop-color="#285E8C"/>
<stop offset="0.4319" stop-color="#A9ACB1"/>
<stop offset="0.5479" stop-color="#A4A4A4"/>
<stop offset="0.6729" stop-color="#B5B5B5"/>
<stop offset="0.813" stop-color="#E2E2E2"/>
<stop offset="1" stop-color="white"/>
</linearGradient>
<linearGradient id="paint11_linear_473_10207" x1="149.334" y1="117.631" x2="173.228" y2="161.146" gradientUnits="userSpaceOnUse">
<stop stop-color="#42E8E0"/>
<stop offset="0.0185" stop-color="#40DEDA"/>
<stop offset="0.1149" stop-color="#37ADBC"/>
<stop offset="0.2166" stop-color="#2E82A2"/>
<stop offset="0.3219" stop-color="#285E8C"/>
<stop offset="0.4319" stop-color="#A9ACB1"/>
<stop offset="0.5479" stop-color="#A4A4A4"/>
<stop offset="0.6729" stop-color="#B5B5B5"/>
<stop offset="0.813" stop-color="#E2E2E2"/>
<stop offset="1" stop-color="white"/>
</linearGradient>
<linearGradient id="paint12_linear_473_10207" x1="41.9849" y1="50.9797" x2="88.5025" y2="50.9797" gradientUnits="userSpaceOnUse">
<stop stop-color="#C0BFF6"/>
<stop offset="0.2938" stop-color="#C5C4F7"/>
<stop offset="0.6399" stop-color="#D3D2F9"/>
<stop offset="1" stop-color="#E9E9FD"/>
</linearGradient>
<linearGradient id="paint13_linear_473_10207" x1="41.9849" y1="62.3252" x2="49.9724" y2="62.3252" gradientUnits="userSpaceOnUse">
<stop stop-color="#5761D7"/>
<stop offset="0.1779" stop-color="#5C66D9"/>
<stop offset="0.3876" stop-color="#6A73DF"/>
<stop offset="0.6134" stop-color="#8289E8"/>
<stop offset="0.849" stop-color="#A3A7F5"/>
<stop offset="1" stop-color="#BCBEFF"/>
</linearGradient>
<linearGradient id="paint14_linear_473_10207" x1="48.2185" y1="75.0792" x2="113.916" y2="75.0792" gradientUnits="userSpaceOnUse">
<stop stop-color="#5761D7"/>
<stop offset="0.1779" stop-color="#5C66D9"/>
<stop offset="0.3876" stop-color="#6A73DF"/>
<stop offset="0.6134" stop-color="#8289E8"/>
<stop offset="0.849" stop-color="#A3A7F5"/>
<stop offset="1" stop-color="#BCBEFF"/>
</linearGradient>
<linearGradient id="paint15_linear_473_10207" x1="70.2914" y1="72.9948" x2="136.025" y2="72.9948" gradientUnits="userSpaceOnUse">
<stop stop-color="#C0BFF6"/>
<stop offset="0.2938" stop-color="#C5C4F7"/>
<stop offset="0.6399" stop-color="#D3D2F9"/>
<stop offset="1" stop-color="#E9E9FD"/>
</linearGradient>
<linearGradient id="paint16_linear_473_10207" x1="81.4222" y1="76.545" x2="98.2481" y2="76.545" gradientUnits="userSpaceOnUse">
<stop stop-color="#C0BFF6"/>
<stop offset="0.2938" stop-color="#C5C4F7"/>
<stop offset="0.6399" stop-color="#D3D2F9"/>
<stop offset="1" stop-color="#E9E9FD"/>
</linearGradient>
<linearGradient id="paint17_linear_473_10207" x1="45.1825" y1="59.1377" x2="110.916" y2="59.1377" gradientUnits="userSpaceOnUse">
<stop stop-color="#C0BFF6"/>
<stop offset="0.2938" stop-color="#C5C4F7"/>
<stop offset="0.6399" stop-color="#D3D2F9"/>
<stop offset="1" stop-color="#E9E9FD"/>
</linearGradient>
<linearGradient id="paint18_linear_473_10207" x1="40.8599" y1="54.5489" x2="57.6856" y2="54.5489" gradientUnits="userSpaceOnUse">
<stop stop-color="#C0BFF6"/>
<stop offset="0.2938" stop-color="#C5C4F7"/>
<stop offset="0.6399" stop-color="#D3D2F9"/>
<stop offset="1" stop-color="#E9E9FD"/>
</linearGradient>
<linearGradient id="paint19_linear_473_10207" x1="129.297" y1="120.013" x2="193.854" y2="120.013" gradientUnits="userSpaceOnUse">
<stop stop-color="#5761D7"/>
<stop offset="0.1779" stop-color="#5C66D9"/>
<stop offset="0.3876" stop-color="#6A73DF"/>
<stop offset="0.6134" stop-color="#8289E8"/>
<stop offset="0.849" stop-color="#A3A7F5"/>
<stop offset="1" stop-color="#BCBEFF"/>
</linearGradient>
<linearGradient id="paint20_linear_473_10207" x1="150.986" y1="117.967" x2="215.577" y2="117.967" gradientUnits="userSpaceOnUse">
<stop stop-color="#C0BFF6"/>
<stop offset="0.2938" stop-color="#C5C4F7"/>
<stop offset="0.6399" stop-color="#D3D2F9"/>
<stop offset="1" stop-color="#E9E9FD"/>
</linearGradient>
<linearGradient id="paint21_linear_473_10207" x1="146.797" y1="113.24" x2="163.33" y2="113.24" gradientUnits="userSpaceOnUse">
<stop stop-color="#C0BFF6"/>
<stop offset="0.2938" stop-color="#C5C4F7"/>
<stop offset="0.6399" stop-color="#D3D2F9"/>
<stop offset="1" stop-color="#E9E9FD"/>
</linearGradient>
<linearGradient id="paint22_linear_473_10207" x1="148.094" y1="110.406" x2="193.804" y2="110.406" gradientUnits="userSpaceOnUse">
<stop stop-color="#C0BFF6"/>
<stop offset="0.2938" stop-color="#C5C4F7"/>
<stop offset="0.6399" stop-color="#D3D2F9"/>
<stop offset="1" stop-color="#E9E9FD"/>
</linearGradient>
<linearGradient id="paint23_linear_473_10207" x1="148.093" y1="121.555" x2="155.942" y2="121.555" gradientUnits="userSpaceOnUse">
<stop stop-color="#5761D7"/>
<stop offset="0.1779" stop-color="#5C66D9"/>
<stop offset="0.3876" stop-color="#6A73DF"/>
<stop offset="0.6134" stop-color="#8289E8"/>
<stop offset="0.849" stop-color="#A3A7F5"/>
<stop offset="1" stop-color="#BCBEFF"/>
</linearGradient>
<linearGradient id="paint24_linear_473_10207" x1="41.9455" y1="50.889" x2="88.4632" y2="50.889" gradientUnits="userSpaceOnUse">
<stop stop-color="#C0BFF6"/>
<stop offset="0.2938" stop-color="#C5C4F7"/>
<stop offset="0.6399" stop-color="#D3D2F9"/>
<stop offset="1" stop-color="#E9E9FD"/>
</linearGradient>
<linearGradient id="paint25_linear_473_10207" x1="41.9451" y1="62.2344" x2="49.9326" y2="62.2344" gradientUnits="userSpaceOnUse">
<stop stop-color="#5761D7"/>
<stop offset="0.1779" stop-color="#5C66D9"/>
<stop offset="0.3876" stop-color="#6A73DF"/>
<stop offset="0.6134" stop-color="#8289E8"/>
<stop offset="0.849" stop-color="#A3A7F5"/>
<stop offset="1" stop-color="#BCBEFF"/>
</linearGradient>
<linearGradient id="paint26_linear_473_10207" x1="48.1713" y1="74.9893" x2="113.869" y2="74.9893" gradientUnits="userSpaceOnUse">
<stop stop-color="#5761D7"/>
<stop offset="0.1779" stop-color="#5C66D9"/>
<stop offset="0.3876" stop-color="#6A73DF"/>
<stop offset="0.6134" stop-color="#8289E8"/>
<stop offset="0.849" stop-color="#A3A7F5"/>
<stop offset="1" stop-color="#BCBEFF"/>
</linearGradient>
<linearGradient id="paint27_linear_473_10207" x1="70.2452" y1="72.905" x2="135.978" y2="72.905" gradientUnits="userSpaceOnUse">
<stop stop-color="#C0BFF6"/>
<stop offset="0.2938" stop-color="#C5C4F7"/>
<stop offset="0.6399" stop-color="#D3D2F9"/>
<stop offset="1" stop-color="#E9E9FD"/>
</linearGradient>
<linearGradient id="paint28_linear_473_10207" x1="81.3751" y1="76.4542" x2="98.2009" y2="76.4542" gradientUnits="userSpaceOnUse">
<stop stop-color="#C0BFF6"/>
<stop offset="0.2938" stop-color="#C5C4F7"/>
<stop offset="0.6399" stop-color="#D3D2F9"/>
<stop offset="1" stop-color="#E9E9FD"/>
</linearGradient>
<linearGradient id="paint29_linear_473_10207" x1="45.1359" y1="59.0484" x2="110.869" y2="59.0484" gradientUnits="userSpaceOnUse">
<stop stop-color="#C0BFF6"/>
<stop offset="0.2938" stop-color="#C5C4F7"/>
<stop offset="0.6399" stop-color="#D3D2F9"/>
<stop offset="1" stop-color="#E9E9FD"/>
</linearGradient>
<linearGradient id="paint30_linear_473_10207" x1="40.8127" y1="54.459" x2="57.6385" y2="54.459" gradientUnits="userSpaceOnUse">
<stop stop-color="#C0BFF6"/>
<stop offset="0.2938" stop-color="#C5C4F7"/>
<stop offset="0.6399" stop-color="#D3D2F9"/>
<stop offset="1" stop-color="#E9E9FD"/>
</linearGradient>
<linearGradient id="paint31_linear_473_10207" x1="129" y1="119.979" x2="193.557" y2="119.979" gradientUnits="userSpaceOnUse">
<stop stop-color="#5761D7"/>
<stop offset="0.1779" stop-color="#5C66D9"/>
<stop offset="0.3876" stop-color="#6A73DF"/>
<stop offset="0.6134" stop-color="#8289E8"/>
<stop offset="0.849" stop-color="#A3A7F5"/>
<stop offset="1" stop-color="#BCBEFF"/>
</linearGradient>
<linearGradient id="paint32_linear_473_10207" x1="150.689" y1="117.932" x2="215.28" y2="117.932" gradientUnits="userSpaceOnUse">
<stop stop-color="#C0BFF6"/>
<stop offset="0.2938" stop-color="#C5C4F7"/>
<stop offset="0.6399" stop-color="#D3D2F9"/>
<stop offset="1" stop-color="#E9E9FD"/>
</linearGradient>
<linearGradient id="paint33_linear_473_10207" x1="146.5" y1="113.204" x2="163.033" y2="113.204" gradientUnits="userSpaceOnUse">
<stop stop-color="#C0BFF6"/>
<stop offset="0.2938" stop-color="#C5C4F7"/>
<stop offset="0.6399" stop-color="#D3D2F9"/>
<stop offset="1" stop-color="#E9E9FD"/>
</linearGradient>
<linearGradient id="paint34_linear_473_10207" x1="147.797" y1="110.371" x2="193.507" y2="110.371" gradientUnits="userSpaceOnUse">
<stop stop-color="#C0BFF6"/>
<stop offset="0.2938" stop-color="#C5C4F7"/>
<stop offset="0.6399" stop-color="#D3D2F9"/>
<stop offset="1" stop-color="#E9E9FD"/>
</linearGradient>
<linearGradient id="paint35_linear_473_10207" x1="147.797" y1="121.52" x2="155.646" y2="121.52" gradientUnits="userSpaceOnUse">
<stop stop-color="#5761D7"/>
<stop offset="0.1779" stop-color="#5C66D9"/>
<stop offset="0.3876" stop-color="#6A73DF"/>
<stop offset="0.6134" stop-color="#8289E8"/>
<stop offset="0.849" stop-color="#A3A7F5"/>
<stop offset="1" stop-color="#BCBEFF"/>
</linearGradient>
<linearGradient id="paint36_linear_473_10207" x1="102.82" y1="91.2586" x2="117.367" y2="117.707" gradientUnits="userSpaceOnUse">
<stop stop-color="#42E8E0"/>
<stop offset="0.0185" stop-color="#40DEDA"/>
<stop offset="0.1149" stop-color="#37ADBC"/>
<stop offset="0.2166" stop-color="#2E82A2"/>
<stop offset="0.3219" stop-color="#285E8C"/>
<stop offset="0.4319" stop-color="#A9ACB1"/>
<stop offset="0.5479" stop-color="#A4A4A4"/>
<stop offset="0.6729" stop-color="#B5B5B5"/>
<stop offset="0.813" stop-color="#E2E2E2"/>
<stop offset="1" stop-color="white"/>
</linearGradient>
<linearGradient id="paint37_linear_473_10207" x1="91.5784" y1="95.9725" x2="135.255" y2="95.9725" gradientUnits="userSpaceOnUse">
<stop stop-color="#5761D7"/>
<stop offset="0.1779" stop-color="#5C66D9"/>
<stop offset="0.3876" stop-color="#6A73DF"/>
<stop offset="0.6134" stop-color="#8289E8"/>
<stop offset="0.849" stop-color="#A3A7F5"/>
<stop offset="1" stop-color="#BCBEFF"/>
</linearGradient>
<radialGradient id="paint38_radial_473_10207" cx="0" cy="0" r="1" gradientUnits="userSpaceOnUse" gradientTransform="translate(101.843 83.5041) scale(20.8345 19.8144)">
<stop stop-color="#2B237C"/>
<stop offset="1" stop-color="#180D5B"/>
</radialGradient>
<linearGradient id="paint39_linear_473_10207" x1="91.5784" y1="89.7279" x2="141.782" y2="89.7279" gradientUnits="userSpaceOnUse">
<stop stop-color="#5761D7"/>
<stop offset="0.1779" stop-color="#5C66D9"/>
<stop offset="0.3876" stop-color="#6A73DF"/>
<stop offset="0.6134" stop-color="#8289E8"/>
<stop offset="0.849" stop-color="#A3A7F5"/>
<stop offset="1" stop-color="#BCBEFF"/>
</linearGradient>
<linearGradient id="paint40_linear_473_10207" x1="100.048" y1="100.646" x2="143.724" y2="100.646" gradientUnits="userSpaceOnUse">
<stop stop-color="#C0BFF6"/>
<stop offset="0.2938" stop-color="#C5C4F7"/>
<stop offset="0.6399" stop-color="#D3D2F9"/>
<stop offset="1" stop-color="#E9E9FD"/>
</linearGradient>
<linearGradient id="paint41_linear_473_10207" x1="114.197" y1="120.491" x2="49.6407" y2="120.491" gradientUnits="userSpaceOnUse">
<stop stop-color="#5761D7"/>
<stop offset="0.1779" stop-color="#5C66D9"/>
<stop offset="0.3876" stop-color="#6A73DF"/>
<stop offset="0.6134" stop-color="#8289E8"/>
<stop offset="0.849" stop-color="#A3A7F5"/>
<stop offset="1" stop-color="#BCBEFF"/>
</linearGradient>
<linearGradient id="paint42_linear_473_10207" x1="92.5113" y1="118.444" x2="27.9202" y2="118.444" gradientUnits="userSpaceOnUse">
<stop stop-color="#C0BFF6"/>
<stop offset="0.2938" stop-color="#C5C4F7"/>
<stop offset="0.6399" stop-color="#D3D2F9"/>
<stop offset="1" stop-color="#E9E9FD"/>
</linearGradient>
<linearGradient id="paint43_linear_473_10207" x1="96.7057" y1="113.718" x2="80.1722" y2="113.718" gradientUnits="userSpaceOnUse">
<stop stop-color="#C0BFF6"/>
<stop offset="0.2938" stop-color="#C5C4F7"/>
<stop offset="0.6399" stop-color="#D3D2F9"/>
<stop offset="1" stop-color="#E9E9FD"/>
</linearGradient>
<linearGradient id="paint44_linear_473_10207" x1="95.4205" y1="110.883" x2="49.711" y2="110.883" gradientUnits="userSpaceOnUse">
<stop stop-color="#C0BFF6"/>
<stop offset="0.2938" stop-color="#C5C4F7"/>
<stop offset="0.6399" stop-color="#D3D2F9"/>
<stop offset="1" stop-color="#E9E9FD"/>
</linearGradient>
<linearGradient id="paint45_linear_473_10207" x1="95.4115" y1="122.031" x2="87.5627" y2="122.031" gradientUnits="userSpaceOnUse">
<stop stop-color="#5761D7"/>
<stop offset="0.1779" stop-color="#5C66D9"/>
<stop offset="0.3876" stop-color="#6A73DF"/>
<stop offset="0.6134" stop-color="#8289E8"/>
<stop offset="0.849" stop-color="#A3A7F5"/>
<stop offset="1" stop-color="#BCBEFF"/>
</linearGradient>
</defs>
</svg>
