<svg width="1216" height="1067" viewBox="0 0 1216 1067" fill="none" xmlns="http://www.w3.org/2000/svg">
<rect width="1216" height="1067" fill="white"/>
<line x1="1099" y1="91.5" x2="75" y2="91.5" stroke="black" stroke-opacity="0.2"/>
<line x1="1099" y1="131.5" x2="75" y2="131.5" stroke="black" stroke-opacity="0.2"/>
<line x1="1099" y1="171.5" x2="75" y2="171.5" stroke="black" stroke-opacity="0.2"/>
<line x1="1099" y1="211.5" x2="75" y2="211.5" stroke="black" stroke-opacity="0.2"/>
<line x1="1099" y1="251.5" x2="75" y2="251.5" stroke="black" stroke-opacity="0.4"/>
<line x1="75.5" y1="252" x2="75.5" y2="79" stroke="black" stroke-opacity="0.4"/>
<path fill-rule="evenodd" clip-rule="evenodd" d="M80 109H220V251H80V109Z" fill="#042440"/>
<path fill-rule="evenodd" clip-rule="evenodd" d="M220 198H361V251H220V198Z" fill="#D9C666"/>
<path fill-rule="evenodd" clip-rule="evenodd" d="M396 98H537V251H396V98Z" fill="#042440"/>
<path fill-rule="evenodd" clip-rule="evenodd" d="M537 182H677V251H537V182Z" fill="#D9C666"/>
<path fill-rule="evenodd" clip-rule="evenodd" d="M712 149H852V251H712V149Z" fill="#042440"/>
<path fill-rule="evenodd" clip-rule="evenodd" d="M852 166H993V251H852V166Z" fill="#D9C666"/>
<rect x="76" y="302" width="16" height="16" rx="4" fill="#AF52DE"/>
<rect x="100" y="301" width="152" height="18" rx="5.5" fill="url(#paint0_linear_491_18994)"/>
<rect x="314" y="302" width="16" height="16" rx="4" fill="#8CACFF"/>
<rect x="338" y="301" width="127" height="18" rx="5.5" fill="url(#paint1_linear_491_18994)"/>
<rect x="172" y="260" width="90" height="18" rx="5.5" fill="url(#paint2_linear_491_18994)"/>
<rect x="483" y="260" width="90" height="18" rx="5.5" fill="url(#paint3_linear_491_18994)"/>
<rect x="794" y="260" width="90" height="18" rx="5.5" fill="url(#paint4_linear_491_18994)"/>
<rect x="44" y="114" width="10" height="16" rx="5" transform="rotate(-90 44 114)" fill="url(#paint5_linear_491_18994)"/>
<rect x="44" y="156" width="10" height="16" rx="5" transform="rotate(-90 44 156)" fill="url(#paint6_linear_491_18994)"/>
<rect x="44" y="198" width="10" height="16" rx="5" transform="rotate(-90 44 198)" fill="url(#paint7_linear_491_18994)"/>
<rect x="44" y="240" width="10" height="16" rx="5" transform="rotate(-90 44 240)" fill="url(#paint8_linear_491_18994)"/>
<rect width="36" height="36" transform="translate(162 433)" fill="#CA484B"/>
<path d="M180.07 455.144C179.494 455.144 178.994 455.04 178.57 454.832C178.146 454.624 177.806 454.34 177.55 453.98C177.302 453.612 177.15 453.196 177.094 452.732H178.078C178.174 453.196 178.398 453.572 178.75 453.86C179.102 454.14 179.546 454.28 180.082 454.28C180.482 454.28 180.826 454.188 181.114 454.004C181.402 453.812 181.622 453.556 181.774 453.236C181.934 452.916 182.014 452.56 182.014 452.168C182.014 451.544 181.838 451.04 181.486 450.656C181.134 450.272 180.678 450.08 180.118 450.08C179.654 450.08 179.258 450.184 178.93 450.392C178.602 450.6 178.362 450.872 178.21 451.208H177.25L177.97 446.6H182.374V447.476H178.75L178.258 450.032C178.45 449.8 178.714 449.608 179.05 449.456C179.394 449.304 179.786 449.228 180.226 449.228C180.778 449.228 181.258 449.356 181.666 449.612C182.082 449.868 182.406 450.216 182.638 450.656C182.87 451.096 182.986 451.596 182.986 452.156C182.986 452.692 182.87 453.188 182.638 453.644C182.414 454.1 182.082 454.464 181.642 454.736C181.21 455.008 180.686 455.144 180.07 455.144Z" fill="black"/>
<rect width="36" height="36" transform="translate(198 433)" fill="#D68387"/>
<path d="M211.745 455V447.728L210.389 448.028V447.332L212.081 446.6H212.765V455H211.745ZM217.814 455.144C217.07 455.144 216.426 454.964 215.882 454.604C215.346 454.236 214.934 453.728 214.646 453.08C214.358 452.424 214.214 451.664 214.214 450.8C214.214 449.936 214.358 449.18 214.646 448.532C214.934 447.876 215.346 447.368 215.882 447.008C216.426 446.64 217.07 446.456 217.814 446.456C218.558 446.456 219.198 446.64 219.734 447.008C220.27 447.368 220.682 447.876 220.97 448.532C221.258 449.18 221.402 449.936 221.402 450.8C221.402 451.664 221.258 452.424 220.97 453.08C220.682 453.728 220.27 454.236 219.734 454.604C219.198 454.964 218.558 455.144 217.814 455.144ZM217.814 454.256C218.302 454.256 218.738 454.12 219.122 453.848C219.514 453.568 219.818 453.172 220.034 452.66C220.258 452.14 220.37 451.52 220.37 450.8C220.37 450.08 220.258 449.464 220.034 448.952C219.818 448.44 219.514 448.048 219.122 447.776C218.738 447.496 218.302 447.356 217.814 447.356C217.318 447.356 216.878 447.496 216.494 447.776C216.11 448.048 215.806 448.44 215.582 448.952C215.358 449.464 215.246 450.08 215.246 450.8C215.246 451.52 215.358 452.14 215.582 452.66C215.806 453.172 216.11 453.568 216.494 453.848C216.878 454.12 217.318 454.256 217.814 454.256Z" fill="black"/>
<rect width="36" height="36" transform="translate(234 433)" fill="#D68085"/>
<path d="M248.232 455V447.728L246.876 448.028V447.332L248.568 446.6H249.252V455H248.232ZM253.881 455.144C253.305 455.144 252.805 455.04 252.381 454.832C251.957 454.624 251.617 454.34 251.361 453.98C251.113 453.612 250.961 453.196 250.905 452.732H251.889C251.985 453.196 252.209 453.572 252.561 453.86C252.913 454.14 253.357 454.28 253.893 454.28C254.293 454.28 254.637 454.188 254.925 454.004C255.213 453.812 255.433 453.556 255.585 453.236C255.745 452.916 255.825 452.56 255.825 452.168C255.825 451.544 255.649 451.04 255.297 450.656C254.945 450.272 254.489 450.08 253.929 450.08C253.465 450.08 253.069 450.184 252.741 450.392C252.413 450.6 252.173 450.872 252.021 451.208H251.061L251.781 446.6H256.185V447.476H252.561L252.069 450.032C252.261 449.8 252.525 449.608 252.861 449.456C253.205 449.304 253.597 449.228 254.037 449.228C254.589 449.228 255.069 449.356 255.477 449.612C255.893 449.868 256.217 450.216 256.449 450.656C256.681 451.096 256.797 451.596 256.797 452.156C256.797 452.692 256.681 453.188 256.449 453.644C256.225 454.1 255.893 454.464 255.453 454.736C255.021 455.008 254.497 455.144 253.881 455.144Z" fill="black"/>
<rect width="36" height="36" transform="translate(270 433)" fill="#518093"/>
<path d="M281.221 455V454.292C281.789 453.844 282.325 453.392 282.829 452.936C283.341 452.472 283.793 452.016 284.185 451.568C284.585 451.12 284.897 450.68 285.121 450.248C285.353 449.816 285.469 449.4 285.469 449C285.469 448.704 285.417 448.428 285.313 448.172C285.217 447.916 285.057 447.712 284.833 447.56C284.609 447.4 284.305 447.32 283.921 447.32C283.553 447.32 283.245 447.404 282.997 447.572C282.749 447.732 282.561 447.948 282.433 448.22C282.313 448.492 282.253 448.784 282.253 449.096H281.281C281.281 448.544 281.397 448.072 281.629 447.68C281.861 447.28 282.177 446.976 282.577 446.768C282.977 446.56 283.429 446.456 283.933 446.456C284.677 446.456 285.285 446.668 285.757 447.092C286.237 447.508 286.477 448.132 286.477 448.964C286.477 449.46 286.353 449.952 286.105 450.44C285.857 450.92 285.541 451.388 285.157 451.844C284.773 452.292 284.361 452.712 283.921 453.104C283.489 453.496 283.085 453.848 282.709 454.16H286.765V455H281.221ZM291.379 455.144C290.635 455.144 289.991 454.964 289.447 454.604C288.911 454.236 288.499 453.728 288.211 453.08C287.923 452.424 287.779 451.664 287.779 450.8C287.779 449.936 287.923 449.18 288.211 448.532C288.499 447.876 288.911 447.368 289.447 447.008C289.991 446.64 290.635 446.456 291.379 446.456C292.123 446.456 292.763 446.64 293.299 447.008C293.835 447.368 294.247 447.876 294.535 448.532C294.823 449.18 294.967 449.936 294.967 450.8C294.967 451.664 294.823 452.424 294.535 453.08C294.247 453.728 293.835 454.236 293.299 454.604C292.763 454.964 292.123 455.144 291.379 455.144ZM291.379 454.256C291.867 454.256 292.303 454.12 292.687 453.848C293.079 453.568 293.383 453.172 293.599 452.66C293.823 452.14 293.935 451.52 293.935 450.8C293.935 450.08 293.823 449.464 293.599 448.952C293.383 448.44 293.079 448.048 292.687 447.776C292.303 447.496 291.867 447.356 291.379 447.356C290.883 447.356 290.443 447.496 290.059 447.776C289.675 448.048 289.371 448.44 289.147 448.952C288.923 449.464 288.811 450.08 288.811 450.8C288.811 451.52 288.923 452.14 289.147 452.66C289.371 453.172 289.675 453.568 290.059 453.848C290.443 454.12 290.883 454.256 291.379 454.256Z" fill="black"/>
<rect width="36" height="36" transform="translate(306 433)" fill="#89A9B5"/>
<path d="M317.649 455V454.292C318.217 453.844 318.753 453.392 319.257 452.936C319.769 452.472 320.221 452.016 320.613 451.568C321.013 451.12 321.325 450.68 321.549 450.248C321.781 449.816 321.897 449.4 321.897 449C321.897 448.704 321.845 448.428 321.741 448.172C321.645 447.916 321.485 447.712 321.261 447.56C321.037 447.4 320.733 447.32 320.349 447.32C319.981 447.32 319.673 447.404 319.425 447.572C319.177 447.732 318.989 447.948 318.861 448.22C318.741 448.492 318.681 448.784 318.681 449.096H317.709C317.709 448.544 317.825 448.072 318.057 447.68C318.289 447.28 318.605 446.976 319.005 446.768C319.405 446.56 319.857 446.456 320.361 446.456C321.105 446.456 321.713 446.668 322.185 447.092C322.665 447.508 322.905 448.132 322.905 448.964C322.905 449.46 322.781 449.952 322.533 450.44C322.285 450.92 321.969 451.388 321.585 451.844C321.201 452.292 320.789 452.712 320.349 453.104C319.917 453.496 319.513 453.848 319.137 454.16H323.193V455H317.649ZM327.504 455.144C326.928 455.144 326.428 455.04 326.004 454.832C325.58 454.624 325.24 454.34 324.984 453.98C324.736 453.612 324.584 453.196 324.528 452.732H325.512C325.608 453.196 325.832 453.572 326.184 453.86C326.536 454.14 326.98 454.28 327.516 454.28C327.916 454.28 328.26 454.188 328.548 454.004C328.836 453.812 329.056 453.556 329.208 453.236C329.368 452.916 329.448 452.56 329.448 452.168C329.448 451.544 329.272 451.04 328.92 450.656C328.568 450.272 328.112 450.08 327.552 450.08C327.088 450.08 326.692 450.184 326.364 450.392C326.036 450.6 325.796 450.872 325.644 451.208H324.684L325.404 446.6H329.808V447.476H326.184L325.692 450.032C325.884 449.8 326.148 449.608 326.484 449.456C326.828 449.304 327.22 449.228 327.66 449.228C328.212 449.228 328.692 449.356 329.1 449.612C329.516 449.868 329.84 450.216 330.072 450.656C330.304 451.096 330.42 451.596 330.42 452.156C330.42 452.692 330.304 453.188 330.072 453.644C329.848 454.1 329.516 454.464 329.076 454.736C328.644 455.008 328.12 455.144 327.504 455.144Z" fill="black"/>
<rect width="36" height="36" transform="translate(162 469)" fill="#D68387"/>
<path d="M181.059 491V489.2H176.799V488.42L180.879 482.6H182.055V488.312H183.303V489.2H182.055V491H181.059ZM177.915 488.312H181.107V483.716L177.915 488.312Z" fill="black"/>
<rect width="36" height="36" transform="translate(198 469)" fill="#CA484B"/>
<path d="M215.998 491.144C215.446 491.144 214.95 491.044 214.51 490.844C214.07 490.636 213.722 490.352 213.466 489.992C213.218 489.624 213.094 489.2 213.094 488.72C213.094 488.208 213.242 487.748 213.538 487.34C213.842 486.932 214.242 486.66 214.738 486.524C214.282 486.372 213.93 486.128 213.682 485.792C213.434 485.456 213.31 485.088 213.31 484.688C213.31 484.28 213.418 483.908 213.634 483.572C213.85 483.228 214.158 482.956 214.558 482.756C214.958 482.556 215.438 482.456 215.998 482.456C216.558 482.456 217.038 482.556 217.438 482.756C217.838 482.956 218.146 483.228 218.362 483.572C218.578 483.908 218.686 484.28 218.686 484.688C218.686 485.08 218.562 485.448 218.314 485.792C218.066 486.128 217.714 486.372 217.258 486.524C217.754 486.66 218.15 486.932 218.446 487.34C218.75 487.748 218.902 488.208 218.902 488.72C218.902 489.2 218.774 489.624 218.518 489.992C218.27 490.352 217.926 490.636 217.486 490.844C217.046 491.044 216.55 491.144 215.998 491.144ZM215.998 486.164C216.51 486.164 216.914 486.036 217.21 485.78C217.514 485.516 217.666 485.172 217.666 484.748C217.666 484.276 217.518 483.92 217.222 483.68C216.926 483.44 216.518 483.32 215.998 483.32C215.478 483.32 215.07 483.44 214.774 483.68C214.486 483.92 214.342 484.276 214.342 484.748C214.342 485.172 214.49 485.516 214.786 485.78C215.082 486.036 215.486 486.164 215.998 486.164ZM215.998 490.256C216.63 490.256 217.102 490.112 217.414 489.824C217.734 489.528 217.894 489.14 217.894 488.66C217.894 488.116 217.722 487.704 217.378 487.424C217.034 487.144 216.574 487.004 215.998 487.004C215.422 487.004 214.962 487.144 214.618 487.424C214.274 487.704 214.102 488.116 214.102 488.66C214.102 489.14 214.258 489.528 214.57 489.824C214.89 490.112 215.366 490.256 215.998 490.256Z" fill="black"/>
<rect width="36" height="36" transform="translate(234 469)" fill="#E3BABC"/>
<path d="M248.472 491V483.728L247.116 484.028V483.332L248.808 482.6H249.492V491H248.472ZM251.133 491V490.292C251.701 489.844 252.237 489.392 252.741 488.936C253.253 488.472 253.705 488.016 254.097 487.568C254.497 487.12 254.809 486.68 255.033 486.248C255.265 485.816 255.381 485.4 255.381 485C255.381 484.704 255.329 484.428 255.225 484.172C255.129 483.916 254.969 483.712 254.745 483.56C254.521 483.4 254.217 483.32 253.833 483.32C253.465 483.32 253.157 483.404 252.909 483.572C252.661 483.732 252.473 483.948 252.345 484.22C252.225 484.492 252.165 484.784 252.165 485.096H251.193C251.193 484.544 251.309 484.072 251.541 483.68C251.773 483.28 252.089 482.976 252.489 482.768C252.889 482.56 253.341 482.456 253.845 482.456C254.589 482.456 255.197 482.668 255.669 483.092C256.149 483.508 256.389 484.132 256.389 484.964C256.389 485.46 256.265 485.952 256.017 486.44C255.769 486.92 255.453 487.388 255.069 487.844C254.685 488.292 254.273 488.712 253.833 489.104C253.401 489.496 252.997 489.848 252.621 490.16H256.677V491H251.133Z" fill="black"/>
<rect width="36" height="36" transform="translate(270 469)" fill="#518093"/>
<path d="M284.126 491V483.728L282.77 484.028V483.332L284.462 482.6H285.146V491H284.126ZM289.943 491.144C289.335 491.144 288.823 491.032 288.407 490.808C287.991 490.576 287.655 490.268 287.399 489.884C287.151 489.5 286.967 489.072 286.847 488.6C286.735 488.12 286.679 487.632 286.679 487.136C286.679 486.208 286.807 485.396 287.063 484.7C287.319 483.996 287.687 483.448 288.167 483.056C288.655 482.656 289.243 482.456 289.931 482.456C290.459 482.456 290.911 482.56 291.287 482.768C291.663 482.976 291.959 483.256 292.175 483.608C292.399 483.952 292.539 484.336 292.595 484.76H291.659C291.571 484.304 291.375 483.952 291.071 483.704C290.767 483.456 290.383 483.332 289.919 483.332C289.287 483.332 288.755 483.632 288.323 484.232C287.899 484.824 287.671 485.752 287.639 487.016C287.831 486.64 288.135 486.316 288.551 486.044C288.975 485.764 289.483 485.624 290.075 485.624C290.555 485.624 291.003 485.736 291.419 485.96C291.843 486.184 292.187 486.5 292.451 486.908C292.715 487.308 292.847 487.78 292.847 488.324C292.847 488.796 292.731 489.248 292.499 489.68C292.267 490.112 291.931 490.464 291.491 490.736C291.059 491.008 290.543 491.144 289.943 491.144ZM289.871 490.256C290.247 490.256 290.583 490.176 290.879 490.016C291.175 489.856 291.407 489.636 291.575 489.356C291.743 489.068 291.827 488.74 291.827 488.372C291.827 487.804 291.639 487.352 291.263 487.016C290.895 486.672 290.431 486.5 289.871 486.5C289.495 486.5 289.159 486.588 288.863 486.764C288.567 486.932 288.331 487.16 288.155 487.448C287.987 487.736 287.903 488.048 287.903 488.384C287.903 488.744 287.987 489.068 288.155 489.356C288.331 489.636 288.567 489.856 288.863 490.016C289.159 490.176 289.495 490.256 289.871 490.256Z" fill="black"/>
<rect width="36" height="36" transform="translate(306 469)" fill="#89A9B5"/>
<path d="M317.221 491V490.292C317.789 489.844 318.325 489.392 318.829 488.936C319.341 488.472 319.793 488.016 320.185 487.568C320.585 487.12 320.897 486.68 321.121 486.248C321.353 485.816 321.469 485.4 321.469 485C321.469 484.704 321.417 484.428 321.313 484.172C321.217 483.916 321.057 483.712 320.833 483.56C320.609 483.4 320.305 483.32 319.921 483.32C319.553 483.32 319.245 483.404 318.997 483.572C318.749 483.732 318.561 483.948 318.433 484.22C318.313 484.492 318.253 484.784 318.253 485.096H317.281C317.281 484.544 317.397 484.072 317.629 483.68C317.861 483.28 318.177 482.976 318.577 482.768C318.977 482.56 319.429 482.456 319.933 482.456C320.677 482.456 321.285 482.668 321.757 483.092C322.237 483.508 322.477 484.132 322.477 484.964C322.477 485.46 322.353 485.952 322.105 486.44C321.857 486.92 321.541 487.388 321.157 487.844C320.773 488.292 320.361 488.712 319.921 489.104C319.489 489.496 319.085 489.848 318.709 490.16H322.765V491H317.221ZM327.379 491.144C326.635 491.144 325.991 490.964 325.447 490.604C324.911 490.236 324.499 489.728 324.211 489.08C323.923 488.424 323.779 487.664 323.779 486.8C323.779 485.936 323.923 485.18 324.211 484.532C324.499 483.876 324.911 483.368 325.447 483.008C325.991 482.64 326.635 482.456 327.379 482.456C328.123 482.456 328.763 482.64 329.299 483.008C329.835 483.368 330.247 483.876 330.535 484.532C330.823 485.18 330.967 485.936 330.967 486.8C330.967 487.664 330.823 488.424 330.535 489.08C330.247 489.728 329.835 490.236 329.299 490.604C328.763 490.964 328.123 491.144 327.379 491.144ZM327.379 490.256C327.867 490.256 328.303 490.12 328.687 489.848C329.079 489.568 329.383 489.172 329.599 488.66C329.823 488.14 329.935 487.52 329.935 486.8C329.935 486.08 329.823 485.464 329.599 484.952C329.383 484.44 329.079 484.048 328.687 483.776C328.303 483.496 327.867 483.356 327.379 483.356C326.883 483.356 326.443 483.496 326.059 483.776C325.675 484.048 325.371 484.44 325.147 484.952C324.923 485.464 324.811 486.08 324.811 486.8C324.811 487.52 324.923 488.14 325.147 488.66C325.371 489.172 325.675 489.568 326.059 489.848C326.443 490.12 326.883 490.256 327.379 490.256Z" fill="black"/>
<rect width="36" height="36" transform="translate(162 505)" fill="#D68085"/>
<path d="M179.977 527.144C179.441 527.144 178.957 527.048 178.525 526.856C178.093 526.656 177.745 526.36 177.481 525.968C177.225 525.576 177.089 525.088 177.073 524.504H178.093C178.101 524.984 178.269 525.4 178.597 525.752C178.925 526.096 179.385 526.268 179.977 526.268C180.569 526.268 181.013 526.104 181.309 525.776C181.613 525.448 181.765 525.052 181.765 524.588C181.765 524.196 181.669 523.876 181.477 523.628C181.293 523.38 181.041 523.196 180.721 523.076C180.409 522.956 180.065 522.896 179.689 522.896H179.065V522.044H179.689C180.233 522.044 180.657 521.92 180.961 521.672C181.273 521.424 181.429 521.076 181.429 520.628C181.429 520.252 181.305 519.944 181.057 519.704C180.817 519.456 180.457 519.332 179.977 519.332C179.513 519.332 179.141 519.472 178.861 519.752C178.581 520.024 178.425 520.368 178.393 520.784H177.373C177.397 520.328 177.517 519.924 177.733 519.572C177.957 519.22 178.261 518.948 178.645 518.756C179.029 518.556 179.473 518.456 179.977 518.456C180.521 518.456 180.973 518.552 181.333 518.744C181.701 518.936 181.977 519.192 182.161 519.512C182.353 519.832 182.449 520.184 182.449 520.568C182.449 520.992 182.333 521.38 182.101 521.732C181.869 522.076 181.521 522.308 181.057 522.428C181.553 522.532 181.965 522.768 182.293 523.136C182.621 523.504 182.785 523.988 182.785 524.588C182.785 525.052 182.677 525.48 182.461 525.872C182.253 526.256 181.941 526.564 181.525 526.796C181.109 527.028 180.593 527.144 179.977 527.144Z" fill="black"/>
<rect width="36" height="36" transform="translate(198 505)" fill="#E3BABC"/>
<path d="M216.133 527.144C215.525 527.144 215.013 527.032 214.597 526.808C214.181 526.576 213.845 526.268 213.589 525.884C213.341 525.5 213.157 525.072 213.037 524.6C212.925 524.12 212.869 523.632 212.869 523.136C212.869 522.208 212.997 521.396 213.253 520.7C213.509 519.996 213.877 519.448 214.357 519.056C214.845 518.656 215.433 518.456 216.121 518.456C216.649 518.456 217.101 518.56 217.477 518.768C217.853 518.976 218.149 519.256 218.365 519.608C218.589 519.952 218.729 520.336 218.785 520.76H217.849C217.761 520.304 217.565 519.952 217.261 519.704C216.957 519.456 216.573 519.332 216.109 519.332C215.477 519.332 214.945 519.632 214.513 520.232C214.089 520.824 213.861 521.752 213.829 523.016C214.021 522.64 214.325 522.316 214.741 522.044C215.165 521.764 215.673 521.624 216.265 521.624C216.745 521.624 217.193 521.736 217.609 521.96C218.033 522.184 218.377 522.5 218.641 522.908C218.905 523.308 219.037 523.78 219.037 524.324C219.037 524.796 218.921 525.248 218.689 525.68C218.457 526.112 218.121 526.464 217.681 526.736C217.249 527.008 216.733 527.144 216.133 527.144ZM216.061 526.256C216.437 526.256 216.773 526.176 217.069 526.016C217.365 525.856 217.597 525.636 217.765 525.356C217.933 525.068 218.017 524.74 218.017 524.372C218.017 523.804 217.829 523.352 217.453 523.016C217.085 522.672 216.621 522.5 216.061 522.5C215.685 522.5 215.349 522.588 215.053 522.764C214.757 522.932 214.521 523.16 214.345 523.448C214.177 523.736 214.093 524.048 214.093 524.384C214.093 524.744 214.177 525.068 214.345 525.356C214.521 525.636 214.757 525.856 215.053 526.016C215.349 526.176 215.685 526.256 216.061 526.256Z" fill="black"/>
<rect width="36" height="36" transform="translate(234 505)" fill="#CA484B"/>
<path d="M251.881 527.144C251.353 527.144 250.901 527.04 250.525 526.832C250.149 526.624 249.849 526.348 249.625 526.004C249.409 525.652 249.277 525.264 249.229 524.84H250.165C250.245 525.296 250.437 525.648 250.741 525.896C251.045 526.144 251.429 526.268 251.893 526.268C252.533 526.268 253.065 525.972 253.489 525.38C253.913 524.78 254.141 523.848 254.173 522.584C253.981 522.96 253.673 523.288 253.249 523.568C252.833 523.84 252.329 523.976 251.737 523.976C251.265 523.976 250.817 523.864 250.393 523.64C249.969 523.416 249.625 523.104 249.361 522.704C249.097 522.296 248.965 521.82 248.965 521.276C248.965 520.804 249.081 520.352 249.313 519.92C249.553 519.488 249.889 519.136 250.321 518.864C250.753 518.592 251.269 518.456 251.869 518.456C252.477 518.456 252.989 518.572 253.405 518.804C253.821 519.028 254.153 519.332 254.401 519.716C254.657 520.1 254.841 520.532 254.953 521.012C255.073 521.484 255.133 521.968 255.133 522.464C255.133 523.392 255.005 524.208 254.749 524.912C254.493 525.608 254.121 526.156 253.633 526.556C253.153 526.948 252.569 527.144 251.881 527.144ZM251.941 523.1C252.317 523.1 252.653 523.016 252.949 522.848C253.245 522.672 253.481 522.44 253.657 522.152C253.833 521.864 253.921 521.552 253.921 521.216C253.921 520.856 253.833 520.536 253.657 520.256C253.481 519.968 253.245 519.744 252.949 519.584C252.653 519.424 252.317 519.344 251.941 519.344C251.565 519.344 251.229 519.424 250.933 519.584C250.637 519.744 250.405 519.968 250.237 520.256C250.069 520.536 249.985 520.86 249.985 521.228C249.985 521.796 250.169 522.252 250.537 522.596C250.913 522.932 251.381 523.1 251.941 523.1Z" fill="black"/>
<rect width="36" height="36" transform="translate(270 505)" fill="#518093"/>
<path d="M284.472 527V519.728L283.116 520.028V519.332L284.808 518.6H285.492V527H284.472ZM287.133 527V526.292C287.701 525.844 288.237 525.392 288.741 524.936C289.253 524.472 289.705 524.016 290.097 523.568C290.497 523.12 290.809 522.68 291.033 522.248C291.265 521.816 291.381 521.4 291.381 521C291.381 520.704 291.329 520.428 291.225 520.172C291.129 519.916 290.969 519.712 290.745 519.56C290.521 519.4 290.217 519.32 289.833 519.32C289.465 519.32 289.157 519.404 288.909 519.572C288.661 519.732 288.473 519.948 288.345 520.22C288.225 520.492 288.165 520.784 288.165 521.096H287.193C287.193 520.544 287.309 520.072 287.541 519.68C287.773 519.28 288.089 518.976 288.489 518.768C288.889 518.56 289.341 518.456 289.845 518.456C290.589 518.456 291.197 518.668 291.669 519.092C292.149 519.508 292.389 520.132 292.389 520.964C292.389 521.46 292.265 521.952 292.017 522.44C291.769 522.92 291.453 523.388 291.069 523.844C290.685 524.292 290.273 524.712 289.833 525.104C289.401 525.496 288.997 525.848 288.621 526.16H292.677V527H287.133Z" fill="black"/>
<rect width="36" height="36" transform="translate(306 505)" fill="#96B2BD"/>
<path d="M320.232 527V519.728L318.876 520.028V519.332L320.568 518.6H321.252V527H320.232ZM325.881 527.144C325.305 527.144 324.805 527.04 324.381 526.832C323.957 526.624 323.617 526.34 323.361 525.98C323.113 525.612 322.961 525.196 322.905 524.732H323.889C323.985 525.196 324.209 525.572 324.561 525.86C324.913 526.14 325.357 526.28 325.893 526.28C326.293 526.28 326.637 526.188 326.925 526.004C327.213 525.812 327.433 525.556 327.585 525.236C327.745 524.916 327.825 524.56 327.825 524.168C327.825 523.544 327.649 523.04 327.297 522.656C326.945 522.272 326.489 522.08 325.929 522.08C325.465 522.08 325.069 522.184 324.741 522.392C324.413 522.6 324.173 522.872 324.021 523.208H323.061L323.781 518.6H328.185V519.476H324.561L324.069 522.032C324.261 521.8 324.525 521.608 324.861 521.456C325.205 521.304 325.597 521.228 326.037 521.228C326.589 521.228 327.069 521.356 327.477 521.612C327.893 521.868 328.217 522.216 328.449 522.656C328.681 523.096 328.797 523.596 328.797 524.156C328.797 524.692 328.681 525.188 328.449 525.644C328.225 526.1 327.893 526.464 327.453 526.736C327.021 527.008 326.497 527.144 325.881 527.144Z" fill="black"/>
<rect width="36" height="36" transform="translate(162 541)" fill="#518093"/>
<path d="M177.322 563V562.292C177.89 561.844 178.426 561.392 178.93 560.936C179.442 560.472 179.894 560.016 180.286 559.568C180.686 559.12 180.998 558.68 181.222 558.248C181.454 557.816 181.57 557.4 181.57 557C181.57 556.704 181.518 556.428 181.414 556.172C181.318 555.916 181.158 555.712 180.934 555.56C180.71 555.4 180.406 555.32 180.022 555.32C179.654 555.32 179.346 555.404 179.098 555.572C178.85 555.732 178.662 555.948 178.534 556.22C178.414 556.492 178.354 556.784 178.354 557.096H177.382C177.382 556.544 177.498 556.072 177.73 555.68C177.962 555.28 178.278 554.976 178.678 554.768C179.078 554.56 179.53 554.456 180.034 554.456C180.778 554.456 181.386 554.668 181.858 555.092C182.338 555.508 182.578 556.132 182.578 556.964C182.578 557.46 182.454 557.952 182.206 558.44C181.958 558.92 181.642 559.388 181.258 559.844C180.874 560.292 180.462 560.712 180.022 561.104C179.59 561.496 179.186 561.848 178.81 562.16H182.866V563H177.322Z" fill="black"/>
<rect width="36" height="36" transform="translate(198 541)" fill="#518093"/>
<path d="M217.059 563V561.2H212.799V560.42L216.879 554.6H218.055V560.312H219.303V561.2H218.055V563H217.059ZM213.915 560.312H217.107V555.716L213.915 560.312Z" fill="black"/>
<rect width="36" height="36" transform="translate(234 541)" fill="#518093"/>
<path d="M252.133 563.144C251.525 563.144 251.013 563.032 250.597 562.808C250.181 562.576 249.845 562.268 249.589 561.884C249.341 561.5 249.157 561.072 249.037 560.6C248.925 560.12 248.869 559.632 248.869 559.136C248.869 558.208 248.997 557.396 249.253 556.7C249.509 555.996 249.877 555.448 250.357 555.056C250.845 554.656 251.433 554.456 252.121 554.456C252.649 554.456 253.101 554.56 253.477 554.768C253.853 554.976 254.149 555.256 254.365 555.608C254.589 555.952 254.729 556.336 254.785 556.76H253.849C253.761 556.304 253.565 555.952 253.261 555.704C252.957 555.456 252.573 555.332 252.109 555.332C251.477 555.332 250.945 555.632 250.513 556.232C250.089 556.824 249.861 557.752 249.829 559.016C250.021 558.64 250.325 558.316 250.741 558.044C251.165 557.764 251.673 557.624 252.265 557.624C252.745 557.624 253.193 557.736 253.609 557.96C254.033 558.184 254.377 558.5 254.641 558.908C254.905 559.308 255.037 559.78 255.037 560.324C255.037 560.796 254.921 561.248 254.689 561.68C254.457 562.112 254.121 562.464 253.681 562.736C253.249 563.008 252.733 563.144 252.133 563.144ZM252.061 562.256C252.437 562.256 252.773 562.176 253.069 562.016C253.365 561.856 253.597 561.636 253.765 561.356C253.933 561.068 254.017 560.74 254.017 560.372C254.017 559.804 253.829 559.352 253.453 559.016C253.085 558.672 252.621 558.5 252.061 558.5C251.685 558.5 251.349 558.588 251.053 558.764C250.757 558.932 250.521 559.16 250.345 559.448C250.177 559.736 250.093 560.048 250.093 560.384C250.093 560.744 250.177 561.068 250.345 561.356C250.521 561.636 250.757 561.856 251.053 562.016C251.349 562.176 251.685 562.256 252.061 562.256Z" fill="black"/>
<rect width="36" height="36" transform="translate(270 541)" fill="#CA484B"/>
<path d="M287.998 563.144C287.446 563.144 286.95 563.044 286.51 562.844C286.07 562.636 285.722 562.352 285.466 561.992C285.218 561.624 285.094 561.2 285.094 560.72C285.094 560.208 285.242 559.748 285.538 559.34C285.842 558.932 286.242 558.66 286.738 558.524C286.282 558.372 285.93 558.128 285.682 557.792C285.434 557.456 285.31 557.088 285.31 556.688C285.31 556.28 285.418 555.908 285.634 555.572C285.85 555.228 286.158 554.956 286.558 554.756C286.958 554.556 287.438 554.456 287.998 554.456C288.558 554.456 289.038 554.556 289.438 554.756C289.838 554.956 290.146 555.228 290.362 555.572C290.578 555.908 290.686 556.28 290.686 556.688C290.686 557.08 290.562 557.448 290.314 557.792C290.066 558.128 289.714 558.372 289.258 558.524C289.754 558.66 290.15 558.932 290.446 559.34C290.75 559.748 290.902 560.208 290.902 560.72C290.902 561.2 290.774 561.624 290.518 561.992C290.27 562.352 289.926 562.636 289.486 562.844C289.046 563.044 288.55 563.144 287.998 563.144ZM287.998 558.164C288.51 558.164 288.914 558.036 289.21 557.78C289.514 557.516 289.666 557.172 289.666 556.748C289.666 556.276 289.518 555.92 289.222 555.68C288.926 555.44 288.518 555.32 287.998 555.32C287.478 555.32 287.07 555.44 286.774 555.68C286.486 555.92 286.342 556.276 286.342 556.748C286.342 557.172 286.49 557.516 286.786 557.78C287.082 558.036 287.486 558.164 287.998 558.164ZM287.998 562.256C288.63 562.256 289.102 562.112 289.414 561.824C289.734 561.528 289.894 561.14 289.894 560.66C289.894 560.116 289.722 559.704 289.378 559.424C289.034 559.144 288.574 559.004 287.998 559.004C287.422 559.004 286.962 559.144 286.618 559.424C286.274 559.704 286.102 560.116 286.102 560.66C286.102 561.14 286.258 561.528 286.57 561.824C286.89 562.112 287.366 562.256 287.998 562.256Z" fill="black"/>
<rect width="36" height="36" transform="translate(306 541)" fill="#6E96A5"/>
<path d="M319.745 563V555.728L318.389 556.028V555.332L320.081 554.6H320.765V563H319.745ZM325.814 563.144C325.07 563.144 324.426 562.964 323.882 562.604C323.346 562.236 322.934 561.728 322.646 561.08C322.358 560.424 322.214 559.664 322.214 558.8C322.214 557.936 322.358 557.18 322.646 556.532C322.934 555.876 323.346 555.368 323.882 555.008C324.426 554.64 325.07 554.456 325.814 554.456C326.558 554.456 327.198 554.64 327.734 555.008C328.27 555.368 328.682 555.876 328.97 556.532C329.258 557.18 329.402 557.936 329.402 558.8C329.402 559.664 329.258 560.424 328.97 561.08C328.682 561.728 328.27 562.236 327.734 562.604C327.198 562.964 326.558 563.144 325.814 563.144ZM325.814 562.256C326.302 562.256 326.738 562.12 327.122 561.848C327.514 561.568 327.818 561.172 328.034 560.66C328.258 560.14 328.37 559.52 328.37 558.8C328.37 558.08 328.258 557.464 328.034 556.952C327.818 556.44 327.514 556.048 327.122 555.776C326.738 555.496 326.302 555.356 325.814 555.356C325.318 555.356 324.878 555.496 324.494 555.776C324.11 556.048 323.806 556.44 323.582 556.952C323.358 557.464 323.246 558.08 323.246 558.8C323.246 559.52 323.358 560.14 323.582 560.66C323.806 561.172 324.11 561.568 324.494 561.848C324.878 562.12 325.318 562.256 325.814 562.256Z" fill="black"/>
<rect width="36" height="36" transform="translate(162 577)" fill="#89A9B5"/>
<path d="M179.905 599V591.728L178.549 592.028V591.332L180.241 590.6H180.925V599H179.905Z" fill="black"/>
<rect width="36" height="36" transform="translate(198 577)" fill="#89A9B5"/>
<path d="M213.322 599V598.292C213.89 597.844 214.426 597.392 214.93 596.936C215.442 596.472 215.894 596.016 216.286 595.568C216.686 595.12 216.998 594.68 217.222 594.248C217.454 593.816 217.57 593.4 217.57 593C217.57 592.704 217.518 592.428 217.414 592.172C217.318 591.916 217.158 591.712 216.934 591.56C216.71 591.4 216.406 591.32 216.022 591.32C215.654 591.32 215.346 591.404 215.098 591.572C214.85 591.732 214.662 591.948 214.534 592.22C214.414 592.492 214.354 592.784 214.354 593.096H213.382C213.382 592.544 213.498 592.072 213.73 591.68C213.962 591.28 214.278 590.976 214.678 590.768C215.078 590.56 215.53 590.456 216.034 590.456C216.778 590.456 217.386 590.668 217.858 591.092C218.338 591.508 218.578 592.132 218.578 592.964C218.578 593.46 218.454 593.952 218.206 594.44C217.958 594.92 217.642 595.388 217.258 595.844C216.874 596.292 216.462 596.712 216.022 597.104C215.59 597.496 215.186 597.848 214.81 598.16H218.866V599H213.322Z" fill="black"/>
<rect width="36" height="36" transform="translate(234 577)" fill="#96B2BD"/>
<path d="M251.977 599.144C251.441 599.144 250.957 599.048 250.525 598.856C250.093 598.656 249.745 598.36 249.481 597.968C249.225 597.576 249.089 597.088 249.073 596.504H250.093C250.101 596.984 250.269 597.4 250.597 597.752C250.925 598.096 251.385 598.268 251.977 598.268C252.569 598.268 253.013 598.104 253.309 597.776C253.613 597.448 253.765 597.052 253.765 596.588C253.765 596.196 253.669 595.876 253.477 595.628C253.293 595.38 253.041 595.196 252.721 595.076C252.409 594.956 252.065 594.896 251.689 594.896H251.065V594.044H251.689C252.233 594.044 252.657 593.92 252.961 593.672C253.273 593.424 253.429 593.076 253.429 592.628C253.429 592.252 253.305 591.944 253.057 591.704C252.817 591.456 252.457 591.332 251.977 591.332C251.513 591.332 251.141 591.472 250.861 591.752C250.581 592.024 250.425 592.368 250.393 592.784H249.373C249.397 592.328 249.517 591.924 249.733 591.572C249.957 591.22 250.261 590.948 250.645 590.756C251.029 590.556 251.473 590.456 251.977 590.456C252.521 590.456 252.973 590.552 253.333 590.744C253.701 590.936 253.977 591.192 254.161 591.512C254.353 591.832 254.449 592.184 254.449 592.568C254.449 592.992 254.333 593.38 254.101 593.732C253.869 594.076 253.521 594.308 253.057 594.428C253.553 594.532 253.965 594.768 254.293 595.136C254.621 595.504 254.785 595.988 254.785 596.588C254.785 597.052 254.677 597.48 254.461 597.872C254.253 598.256 253.941 598.564 253.525 598.796C253.109 599.028 252.593 599.144 251.977 599.144Z" fill="black"/>
<rect width="36" height="36" transform="translate(270 577)" fill="#518093"/>
<path d="M289.059 599V597.2H284.799V596.42L288.879 590.6H290.055V596.312H291.303V597.2H290.055V599H289.059ZM285.915 596.312H289.107V591.716L285.915 596.312Z" fill="black"/>
<rect width="36" height="36" transform="translate(306 577)" fill="#CA484B"/>
<path d="M324.07 599.144C323.494 599.144 322.994 599.04 322.57 598.832C322.146 598.624 321.806 598.34 321.55 597.98C321.302 597.612 321.15 597.196 321.094 596.732H322.078C322.174 597.196 322.398 597.572 322.75 597.86C323.102 598.14 323.546 598.28 324.082 598.28C324.482 598.28 324.826 598.188 325.114 598.004C325.402 597.812 325.622 597.556 325.774 597.236C325.934 596.916 326.014 596.56 326.014 596.168C326.014 595.544 325.838 595.04 325.486 594.656C325.134 594.272 324.678 594.08 324.118 594.08C323.654 594.08 323.258 594.184 322.93 594.392C322.602 594.6 322.362 594.872 322.21 595.208H321.25L321.97 590.6H326.374V591.476H322.75L322.258 594.032C322.45 593.8 322.714 593.608 323.05 593.456C323.394 593.304 323.786 593.228 324.226 593.228C324.778 593.228 325.258 593.356 325.666 593.612C326.082 593.868 326.406 594.216 326.638 594.656C326.87 595.096 326.986 595.596 326.986 596.156C326.986 596.692 326.87 597.188 326.638 597.644C326.414 598.1 326.082 598.464 325.642 598.736C325.21 599.008 324.686 599.144 324.07 599.144Z" fill="black"/>
<rect x="417" y="433" width="14" height="158" rx="7" fill="url(#paint9_linear_491_18994)"/>
<rect x="162" y="628" width="180" height="10" rx="5" fill="url(#paint10_linear_491_18994)"/>
<rect x="162" y="628" width="180" height="10" rx="5" fill="url(#paint11_linear_491_18994)"/>
<rect x="447" y="574" width="23" height="10" rx="5" fill="url(#paint12_linear_491_18994)"/>
<rect x="447" y="434" width="23" height="10" rx="5" fill="url(#paint13_linear_491_18994)"/>
<rect x="447" y="469" width="23" height="10" rx="5" fill="url(#paint14_linear_491_18994)"/>
<rect x="447" y="504" width="23" height="10" rx="5" fill="url(#paint15_linear_491_18994)"/>
<rect x="447" y="539" width="23" height="10" rx="5" fill="url(#paint16_linear_491_18994)"/>
<rect x="123" y="592" width="23" height="10" rx="5" fill="url(#paint17_linear_491_18994)"/>
<rect x="123" y="452" width="23" height="10" rx="5" fill="url(#paint18_linear_491_18994)"/>
<rect x="123" y="487" width="23" height="10" rx="5" fill="url(#paint19_linear_491_18994)"/>
<rect x="123" y="522" width="23" height="10" rx="5" fill="url(#paint20_linear_491_18994)"/>
<rect x="123" y="557" width="23" height="10" rx="5" fill="url(#paint21_linear_491_18994)"/>
<rect width="32" height="32" transform="translate(705 366)" fill="#CAFF74"/>
<path d="M721.07 386.144C720.494 386.144 719.994 386.04 719.57 385.832C719.146 385.624 718.806 385.34 718.55 384.98C718.302 384.612 718.15 384.196 718.094 383.732H719.078C719.174 384.196 719.398 384.572 719.75 384.86C720.102 385.14 720.546 385.28 721.082 385.28C721.482 385.28 721.826 385.188 722.114 385.004C722.402 384.812 722.622 384.556 722.774 384.236C722.934 383.916 723.014 383.56 723.014 383.168C723.014 382.544 722.838 382.04 722.486 381.656C722.134 381.272 721.678 381.08 721.118 381.08C720.654 381.08 720.258 381.184 719.93 381.392C719.602 381.6 719.362 381.872 719.21 382.208H718.25L718.97 377.6H723.374V378.476H719.75L719.258 381.032C719.45 380.8 719.714 380.608 720.05 380.456C720.394 380.304 720.786 380.228 721.226 380.228C721.778 380.228 722.258 380.356 722.666 380.612C723.082 380.868 723.406 381.216 723.638 381.656C723.87 382.096 723.986 382.596 723.986 383.156C723.986 383.692 723.87 384.188 723.638 384.644C723.414 385.1 723.082 385.464 722.642 385.736C722.21 386.008 721.686 386.144 721.07 386.144Z" fill="black"/>
<rect width="32" height="32" transform="translate(741 366)" fill="#FFDB5B"/>
<path d="M752.745 386V378.728L751.389 379.028V378.332L753.081 377.6H753.765V386H752.745ZM758.814 386.144C758.07 386.144 757.426 385.964 756.882 385.604C756.346 385.236 755.934 384.728 755.646 384.08C755.358 383.424 755.214 382.664 755.214 381.8C755.214 380.936 755.358 380.18 755.646 379.532C755.934 378.876 756.346 378.368 756.882 378.008C757.426 377.64 758.07 377.456 758.814 377.456C759.558 377.456 760.198 377.64 760.734 378.008C761.27 378.368 761.682 378.876 761.97 379.532C762.258 380.18 762.402 380.936 762.402 381.8C762.402 382.664 762.258 383.424 761.97 384.08C761.682 384.728 761.27 385.236 760.734 385.604C760.198 385.964 759.558 386.144 758.814 386.144ZM758.814 385.256C759.302 385.256 759.738 385.12 760.122 384.848C760.514 384.568 760.818 384.172 761.034 383.66C761.258 383.14 761.37 382.52 761.37 381.8C761.37 381.08 761.258 380.464 761.034 379.952C760.818 379.44 760.514 379.048 760.122 378.776C759.738 378.496 759.302 378.356 758.814 378.356C758.318 378.356 757.878 378.496 757.494 378.776C757.11 379.048 756.806 379.44 756.582 379.952C756.358 380.464 756.246 381.08 756.246 381.8C756.246 382.52 756.358 383.14 756.582 383.66C756.806 384.172 757.11 384.568 757.494 384.848C757.878 385.12 758.318 385.256 758.814 385.256Z" fill="black"/>
<rect width="32" height="32" transform="translate(777 366)" fill="#FFA63E"/>
<path d="M789.232 386V378.728L787.876 379.028V378.332L789.568 377.6H790.252V386H789.232ZM794.881 386.144C794.305 386.144 793.805 386.04 793.381 385.832C792.957 385.624 792.617 385.34 792.361 384.98C792.113 384.612 791.961 384.196 791.905 383.732H792.889C792.985 384.196 793.209 384.572 793.561 384.86C793.913 385.14 794.357 385.28 794.893 385.28C795.293 385.28 795.637 385.188 795.925 385.004C796.213 384.812 796.433 384.556 796.585 384.236C796.745 383.916 796.825 383.56 796.825 383.168C796.825 382.544 796.649 382.04 796.297 381.656C795.945 381.272 795.489 381.08 794.929 381.08C794.465 381.08 794.069 381.184 793.741 381.392C793.413 381.6 793.173 381.872 793.021 382.208H792.061L792.781 377.6H797.185V378.476H793.561L793.069 381.032C793.261 380.8 793.525 380.608 793.861 380.456C794.205 380.304 794.597 380.228 795.037 380.228C795.589 380.228 796.069 380.356 796.477 380.612C796.893 380.868 797.217 381.216 797.449 381.656C797.681 382.096 797.797 382.596 797.797 383.156C797.797 383.692 797.681 384.188 797.449 384.644C797.225 385.1 796.893 385.464 796.453 385.736C796.021 386.008 795.497 386.144 794.881 386.144Z" fill="black"/>
<rect width="32" height="32" transform="translate(813 366)" fill="#FF3636"/>
<path d="M822.221 386V385.292C822.789 384.844 823.325 384.392 823.829 383.936C824.341 383.472 824.793 383.016 825.185 382.568C825.585 382.12 825.897 381.68 826.121 381.248C826.353 380.816 826.469 380.4 826.469 380C826.469 379.704 826.417 379.428 826.313 379.172C826.217 378.916 826.057 378.712 825.833 378.56C825.609 378.4 825.305 378.32 824.921 378.32C824.553 378.32 824.245 378.404 823.997 378.572C823.749 378.732 823.561 378.948 823.433 379.22C823.313 379.492 823.253 379.784 823.253 380.096H822.281C822.281 379.544 822.397 379.072 822.629 378.68C822.861 378.28 823.177 377.976 823.577 377.768C823.977 377.56 824.429 377.456 824.933 377.456C825.677 377.456 826.285 377.668 826.757 378.092C827.237 378.508 827.477 379.132 827.477 379.964C827.477 380.46 827.353 380.952 827.105 381.44C826.857 381.92 826.541 382.388 826.157 382.844C825.773 383.292 825.361 383.712 824.921 384.104C824.489 384.496 824.085 384.848 823.709 385.16H827.765V386H822.221ZM832.379 386.144C831.635 386.144 830.991 385.964 830.447 385.604C829.911 385.236 829.499 384.728 829.211 384.08C828.923 383.424 828.779 382.664 828.779 381.8C828.779 380.936 828.923 380.18 829.211 379.532C829.499 378.876 829.911 378.368 830.447 378.008C830.991 377.64 831.635 377.456 832.379 377.456C833.123 377.456 833.763 377.64 834.299 378.008C834.835 378.368 835.247 378.876 835.535 379.532C835.823 380.18 835.967 380.936 835.967 381.8C835.967 382.664 835.823 383.424 835.535 384.08C835.247 384.728 834.835 385.236 834.299 385.604C833.763 385.964 833.123 386.144 832.379 386.144ZM832.379 385.256C832.867 385.256 833.303 385.12 833.687 384.848C834.079 384.568 834.383 384.172 834.599 383.66C834.823 383.14 834.935 382.52 834.935 381.8C834.935 381.08 834.823 380.464 834.599 379.952C834.383 379.44 834.079 379.048 833.687 378.776C833.303 378.496 832.867 378.356 832.379 378.356C831.883 378.356 831.443 378.496 831.059 378.776C830.675 379.048 830.371 379.44 830.147 379.952C829.923 380.464 829.811 381.08 829.811 381.8C829.811 382.52 829.923 383.14 830.147 383.66C830.371 384.172 830.675 384.568 831.059 384.848C831.443 385.12 831.883 385.256 832.379 385.256Z" fill="black"/>
<rect width="32" height="32" transform="translate(849 366)" fill="#FF3636"/>
<path d="M858.649 386V385.292C859.217 384.844 859.753 384.392 860.257 383.936C860.769 383.472 861.221 383.016 861.613 382.568C862.013 382.12 862.325 381.68 862.549 381.248C862.781 380.816 862.897 380.4 862.897 380C862.897 379.704 862.845 379.428 862.741 379.172C862.645 378.916 862.485 378.712 862.261 378.56C862.037 378.4 861.733 378.32 861.349 378.32C860.981 378.32 860.673 378.404 860.425 378.572C860.177 378.732 859.989 378.948 859.861 379.22C859.741 379.492 859.681 379.784 859.681 380.096H858.709C858.709 379.544 858.825 379.072 859.057 378.68C859.289 378.28 859.605 377.976 860.005 377.768C860.405 377.56 860.857 377.456 861.361 377.456C862.105 377.456 862.713 377.668 863.185 378.092C863.665 378.508 863.905 379.132 863.905 379.964C863.905 380.46 863.781 380.952 863.533 381.44C863.285 381.92 862.969 382.388 862.585 382.844C862.201 383.292 861.789 383.712 861.349 384.104C860.917 384.496 860.513 384.848 860.137 385.16H864.193V386H858.649ZM868.504 386.144C867.928 386.144 867.428 386.04 867.004 385.832C866.58 385.624 866.24 385.34 865.984 384.98C865.736 384.612 865.584 384.196 865.528 383.732H866.512C866.608 384.196 866.832 384.572 867.184 384.86C867.536 385.14 867.98 385.28 868.516 385.28C868.916 385.28 869.26 385.188 869.548 385.004C869.836 384.812 870.056 384.556 870.208 384.236C870.368 383.916 870.448 383.56 870.448 383.168C870.448 382.544 870.272 382.04 869.92 381.656C869.568 381.272 869.112 381.08 868.552 381.08C868.088 381.08 867.692 381.184 867.364 381.392C867.036 381.6 866.796 381.872 866.644 382.208H865.684L866.404 377.6H870.808V378.476H867.184L866.692 381.032C866.884 380.8 867.148 380.608 867.484 380.456C867.828 380.304 868.22 380.228 868.66 380.228C869.212 380.228 869.692 380.356 870.1 380.612C870.516 380.868 870.84 381.216 871.072 381.656C871.304 382.096 871.42 382.596 871.42 383.156C871.42 383.692 871.304 384.188 871.072 384.644C870.848 385.1 870.516 385.464 870.076 385.736C869.644 386.008 869.12 386.144 868.504 386.144Z" fill="black"/>
<rect width="32" height="32" transform="translate(705 402)" fill="#CAFF74"/>
<path d="M722.059 422V420.2H717.799V419.42L721.879 413.6H723.055V419.312H724.303V420.2H723.055V422H722.059ZM718.915 419.312H722.107V414.716L718.915 419.312Z" fill="black"/>
<rect width="32" height="32" transform="translate(741 402)" fill="#FFDB5B"/>
<path d="M756.998 422.144C756.446 422.144 755.95 422.044 755.51 421.844C755.07 421.636 754.722 421.352 754.466 420.992C754.218 420.624 754.094 420.2 754.094 419.72C754.094 419.208 754.242 418.748 754.538 418.34C754.842 417.932 755.242 417.66 755.738 417.524C755.282 417.372 754.93 417.128 754.682 416.792C754.434 416.456 754.31 416.088 754.31 415.688C754.31 415.28 754.418 414.908 754.634 414.572C754.85 414.228 755.158 413.956 755.558 413.756C755.958 413.556 756.438 413.456 756.998 413.456C757.558 413.456 758.038 413.556 758.438 413.756C758.838 413.956 759.146 414.228 759.362 414.572C759.578 414.908 759.686 415.28 759.686 415.688C759.686 416.08 759.562 416.448 759.314 416.792C759.066 417.128 758.714 417.372 758.258 417.524C758.754 417.66 759.15 417.932 759.446 418.34C759.75 418.748 759.902 419.208 759.902 419.72C759.902 420.2 759.774 420.624 759.518 420.992C759.27 421.352 758.926 421.636 758.486 421.844C758.046 422.044 757.55 422.144 756.998 422.144ZM756.998 417.164C757.51 417.164 757.914 417.036 758.21 416.78C758.514 416.516 758.666 416.172 758.666 415.748C758.666 415.276 758.518 414.92 758.222 414.68C757.926 414.44 757.518 414.32 756.998 414.32C756.478 414.32 756.07 414.44 755.774 414.68C755.486 414.92 755.342 415.276 755.342 415.748C755.342 416.172 755.49 416.516 755.786 416.78C756.082 417.036 756.486 417.164 756.998 417.164ZM756.998 421.256C757.63 421.256 758.102 421.112 758.414 420.824C758.734 420.528 758.894 420.14 758.894 419.66C758.894 419.116 758.722 418.704 758.378 418.424C758.034 418.144 757.574 418.004 756.998 418.004C756.422 418.004 755.962 418.144 755.618 418.424C755.274 418.704 755.102 419.116 755.102 419.66C755.102 420.14 755.258 420.528 755.57 420.824C755.89 421.112 756.366 421.256 756.998 421.256Z" fill="black"/>
<rect width="32" height="32" transform="translate(777 402)" fill="#FFDB5B"/>
<path d="M789.472 422V414.728L788.116 415.028V414.332L789.808 413.6H790.492V422H789.472ZM792.133 422V421.292C792.701 420.844 793.237 420.392 793.741 419.936C794.253 419.472 794.705 419.016 795.097 418.568C795.497 418.12 795.809 417.68 796.033 417.248C796.265 416.816 796.381 416.4 796.381 416C796.381 415.704 796.329 415.428 796.225 415.172C796.129 414.916 795.969 414.712 795.745 414.56C795.521 414.4 795.217 414.32 794.833 414.32C794.465 414.32 794.157 414.404 793.909 414.572C793.661 414.732 793.473 414.948 793.345 415.22C793.225 415.492 793.165 415.784 793.165 416.096H792.193C792.193 415.544 792.309 415.072 792.541 414.68C792.773 414.28 793.089 413.976 793.489 413.768C793.889 413.56 794.341 413.456 794.845 413.456C795.589 413.456 796.197 413.668 796.669 414.092C797.149 414.508 797.389 415.132 797.389 415.964C797.389 416.46 797.265 416.952 797.017 417.44C796.769 417.92 796.453 418.388 796.069 418.844C795.685 419.292 795.273 419.712 794.833 420.104C794.401 420.496 793.997 420.848 793.621 421.16H797.677V422H792.133Z" fill="black"/>
<rect width="32" height="32" transform="translate(813 402)" fill="#FF3636"/>
<path d="M825.126 422V414.728L823.77 415.028V414.332L825.462 413.6H826.146V422H825.126ZM830.943 422.144C830.335 422.144 829.823 422.032 829.407 421.808C828.991 421.576 828.655 421.268 828.399 420.884C828.151 420.5 827.967 420.072 827.847 419.6C827.735 419.12 827.679 418.632 827.679 418.136C827.679 417.208 827.807 416.396 828.063 415.7C828.319 414.996 828.687 414.448 829.167 414.056C829.655 413.656 830.243 413.456 830.931 413.456C831.459 413.456 831.911 413.56 832.287 413.768C832.663 413.976 832.959 414.256 833.175 414.608C833.399 414.952 833.539 415.336 833.595 415.76H832.659C832.571 415.304 832.375 414.952 832.071 414.704C831.767 414.456 831.383 414.332 830.919 414.332C830.287 414.332 829.755 414.632 829.323 415.232C828.899 415.824 828.671 416.752 828.639 418.016C828.831 417.64 829.135 417.316 829.551 417.044C829.975 416.764 830.483 416.624 831.075 416.624C831.555 416.624 832.003 416.736 832.419 416.96C832.843 417.184 833.187 417.5 833.451 417.908C833.715 418.308 833.847 418.78 833.847 419.324C833.847 419.796 833.731 420.248 833.499 420.68C833.267 421.112 832.931 421.464 832.491 421.736C832.059 422.008 831.543 422.144 830.943 422.144ZM830.871 421.256C831.247 421.256 831.583 421.176 831.879 421.016C832.175 420.856 832.407 420.636 832.575 420.356C832.743 420.068 832.827 419.74 832.827 419.372C832.827 418.804 832.639 418.352 832.263 418.016C831.895 417.672 831.431 417.5 830.871 417.5C830.495 417.5 830.159 417.588 829.863 417.764C829.567 417.932 829.331 418.16 829.155 418.448C828.987 418.736 828.903 419.048 828.903 419.384C828.903 419.744 828.987 420.068 829.155 420.356C829.331 420.636 829.567 420.856 829.863 421.016C830.159 421.176 830.495 421.256 830.871 421.256Z" fill="black"/>
<rect width="32" height="32" transform="translate(849 402)" fill="#FF3636"/>
<path d="M858.221 422V421.292C858.789 420.844 859.325 420.392 859.829 419.936C860.341 419.472 860.793 419.016 861.185 418.568C861.585 418.12 861.897 417.68 862.121 417.248C862.353 416.816 862.469 416.4 862.469 416C862.469 415.704 862.417 415.428 862.313 415.172C862.217 414.916 862.057 414.712 861.833 414.56C861.609 414.4 861.305 414.32 860.921 414.32C860.553 414.32 860.245 414.404 859.997 414.572C859.749 414.732 859.561 414.948 859.433 415.22C859.313 415.492 859.253 415.784 859.253 416.096H858.281C858.281 415.544 858.397 415.072 858.629 414.68C858.861 414.28 859.177 413.976 859.577 413.768C859.977 413.56 860.429 413.456 860.933 413.456C861.677 413.456 862.285 413.668 862.757 414.092C863.237 414.508 863.477 415.132 863.477 415.964C863.477 416.46 863.353 416.952 863.105 417.44C862.857 417.92 862.541 418.388 862.157 418.844C861.773 419.292 861.361 419.712 860.921 420.104C860.489 420.496 860.085 420.848 859.709 421.16H863.765V422H858.221ZM868.379 422.144C867.635 422.144 866.991 421.964 866.447 421.604C865.911 421.236 865.499 420.728 865.211 420.08C864.923 419.424 864.779 418.664 864.779 417.8C864.779 416.936 864.923 416.18 865.211 415.532C865.499 414.876 865.911 414.368 866.447 414.008C866.991 413.64 867.635 413.456 868.379 413.456C869.123 413.456 869.763 413.64 870.299 414.008C870.835 414.368 871.247 414.876 871.535 415.532C871.823 416.18 871.967 416.936 871.967 417.8C871.967 418.664 871.823 419.424 871.535 420.08C871.247 420.728 870.835 421.236 870.299 421.604C869.763 421.964 869.123 422.144 868.379 422.144ZM868.379 421.256C868.867 421.256 869.303 421.12 869.687 420.848C870.079 420.568 870.383 420.172 870.599 419.66C870.823 419.14 870.935 418.52 870.935 417.8C870.935 417.08 870.823 416.464 870.599 415.952C870.383 415.44 870.079 415.048 869.687 414.776C869.303 414.496 868.867 414.356 868.379 414.356C867.883 414.356 867.443 414.496 867.059 414.776C866.675 415.048 866.371 415.44 866.147 415.952C865.923 416.464 865.811 417.08 865.811 417.8C865.811 418.52 865.923 419.14 866.147 419.66C866.371 420.172 866.675 420.568 867.059 420.848C867.443 421.12 867.883 421.256 868.379 421.256Z" fill="black"/>
<rect width="32" height="32" transform="translate(705 438)" fill="#26AE5D"/>
<path d="M720.977 458.144C720.441 458.144 719.957 458.048 719.525 457.856C719.093 457.656 718.745 457.36 718.481 456.968C718.225 456.576 718.089 456.088 718.073 455.504H719.093C719.101 455.984 719.269 456.4 719.597 456.752C719.925 457.096 720.385 457.268 720.977 457.268C721.569 457.268 722.013 457.104 722.309 456.776C722.613 456.448 722.765 456.052 722.765 455.588C722.765 455.196 722.669 454.876 722.477 454.628C722.293 454.38 722.041 454.196 721.721 454.076C721.409 453.956 721.065 453.896 720.689 453.896H720.065V453.044H720.689C721.233 453.044 721.657 452.92 721.961 452.672C722.273 452.424 722.429 452.076 722.429 451.628C722.429 451.252 722.305 450.944 722.057 450.704C721.817 450.456 721.457 450.332 720.977 450.332C720.513 450.332 720.141 450.472 719.861 450.752C719.581 451.024 719.425 451.368 719.393 451.784H718.373C718.397 451.328 718.517 450.924 718.733 450.572C718.957 450.22 719.261 449.948 719.645 449.756C720.029 449.556 720.473 449.456 720.977 449.456C721.521 449.456 721.973 449.552 722.333 449.744C722.701 449.936 722.977 450.192 723.161 450.512C723.353 450.832 723.449 451.184 723.449 451.568C723.449 451.992 723.333 452.38 723.101 452.732C722.869 453.076 722.521 453.308 722.057 453.428C722.553 453.532 722.965 453.768 723.293 454.136C723.621 454.504 723.785 454.988 723.785 455.588C723.785 456.052 723.677 456.48 723.461 456.872C723.253 457.256 722.941 457.564 722.525 457.796C722.109 458.028 721.593 458.144 720.977 458.144Z" fill="black"/>
<rect width="32" height="32" transform="translate(741 438)" fill="#CAFF74"/>
<path d="M757.133 458.144C756.525 458.144 756.013 458.032 755.597 457.808C755.181 457.576 754.845 457.268 754.589 456.884C754.341 456.5 754.157 456.072 754.037 455.6C753.925 455.12 753.869 454.632 753.869 454.136C753.869 453.208 753.997 452.396 754.253 451.7C754.509 450.996 754.877 450.448 755.357 450.056C755.845 449.656 756.433 449.456 757.121 449.456C757.649 449.456 758.101 449.56 758.477 449.768C758.853 449.976 759.149 450.256 759.365 450.608C759.589 450.952 759.729 451.336 759.785 451.76H758.849C758.761 451.304 758.565 450.952 758.261 450.704C757.957 450.456 757.573 450.332 757.109 450.332C756.477 450.332 755.945 450.632 755.513 451.232C755.089 451.824 754.861 452.752 754.829 454.016C755.021 453.64 755.325 453.316 755.741 453.044C756.165 452.764 756.673 452.624 757.265 452.624C757.745 452.624 758.193 452.736 758.609 452.96C759.033 453.184 759.377 453.5 759.641 453.908C759.905 454.308 760.037 454.78 760.037 455.324C760.037 455.796 759.921 456.248 759.689 456.68C759.457 457.112 759.121 457.464 758.681 457.736C758.249 458.008 757.733 458.144 757.133 458.144ZM757.061 457.256C757.437 457.256 757.773 457.176 758.069 457.016C758.365 456.856 758.597 456.636 758.765 456.356C758.933 456.068 759.017 455.74 759.017 455.372C759.017 454.804 758.829 454.352 758.453 454.016C758.085 453.672 757.621 453.5 757.061 453.5C756.685 453.5 756.349 453.588 756.053 453.764C755.757 453.932 755.521 454.16 755.345 454.448C755.177 454.736 755.093 455.048 755.093 455.384C755.093 455.744 755.177 456.068 755.345 456.356C755.521 456.636 755.757 456.856 756.053 457.016C756.349 457.176 756.685 457.256 757.061 457.256Z" fill="black"/>
<rect width="32" height="32" transform="translate(777 438)" fill="#FFDB5B"/>
<path d="M792.881 458.144C792.353 458.144 791.901 458.04 791.525 457.832C791.149 457.624 790.849 457.348 790.625 457.004C790.409 456.652 790.277 456.264 790.229 455.84H791.165C791.245 456.296 791.437 456.648 791.741 456.896C792.045 457.144 792.429 457.268 792.893 457.268C793.533 457.268 794.065 456.972 794.489 456.38C794.913 455.78 795.141 454.848 795.173 453.584C794.981 453.96 794.673 454.288 794.249 454.568C793.833 454.84 793.329 454.976 792.737 454.976C792.265 454.976 791.817 454.864 791.393 454.64C790.969 454.416 790.625 454.104 790.361 453.704C790.097 453.296 789.965 452.82 789.965 452.276C789.965 451.804 790.081 451.352 790.313 450.92C790.553 450.488 790.889 450.136 791.321 449.864C791.753 449.592 792.269 449.456 792.869 449.456C793.477 449.456 793.989 449.572 794.405 449.804C794.821 450.028 795.153 450.332 795.401 450.716C795.657 451.1 795.841 451.532 795.953 452.012C796.073 452.484 796.133 452.968 796.133 453.464C796.133 454.392 796.005 455.208 795.749 455.912C795.493 456.608 795.121 457.156 794.633 457.556C794.153 457.948 793.569 458.144 792.881 458.144ZM792.941 454.1C793.317 454.1 793.653 454.016 793.949 453.848C794.245 453.672 794.481 453.44 794.657 453.152C794.833 452.864 794.921 452.552 794.921 452.216C794.921 451.856 794.833 451.536 794.657 451.256C794.481 450.968 794.245 450.744 793.949 450.584C793.653 450.424 793.317 450.344 792.941 450.344C792.565 450.344 792.229 450.424 791.933 450.584C791.637 450.744 791.405 450.968 791.237 451.256C791.069 451.536 790.985 451.86 790.985 452.228C790.985 452.796 791.169 453.252 791.537 453.596C791.913 453.932 792.381 454.1 792.941 454.1Z" fill="black"/>
<rect width="32" height="32" transform="translate(813 438)" fill="#FFDB5B"/>
<path d="M825.472 458V450.728L824.116 451.028V450.332L825.808 449.6H826.492V458H825.472ZM828.133 458V457.292C828.701 456.844 829.237 456.392 829.741 455.936C830.253 455.472 830.705 455.016 831.097 454.568C831.497 454.12 831.809 453.68 832.033 453.248C832.265 452.816 832.381 452.4 832.381 452C832.381 451.704 832.329 451.428 832.225 451.172C832.129 450.916 831.969 450.712 831.745 450.56C831.521 450.4 831.217 450.32 830.833 450.32C830.465 450.32 830.157 450.404 829.909 450.572C829.661 450.732 829.473 450.948 829.345 451.22C829.225 451.492 829.165 451.784 829.165 452.096H828.193C828.193 451.544 828.309 451.072 828.541 450.68C828.773 450.28 829.089 449.976 829.489 449.768C829.889 449.56 830.341 449.456 830.845 449.456C831.589 449.456 832.197 449.668 832.669 450.092C833.149 450.508 833.389 451.132 833.389 451.964C833.389 452.46 833.265 452.952 833.017 453.44C832.769 453.92 832.453 454.388 832.069 454.844C831.685 455.292 831.273 455.712 830.833 456.104C830.401 456.496 829.997 456.848 829.621 457.16H833.677V458H828.133Z" fill="black"/>
<rect width="32" height="32" transform="translate(849 438)" fill="#FFA63E"/>
<path d="M861.232 458V450.728L859.876 451.028V450.332L861.568 449.6H862.252V458H861.232ZM866.881 458.144C866.305 458.144 865.805 458.04 865.381 457.832C864.957 457.624 864.617 457.34 864.361 456.98C864.113 456.612 863.961 456.196 863.905 455.732H864.889C864.985 456.196 865.209 456.572 865.561 456.86C865.913 457.14 866.357 457.28 866.893 457.28C867.293 457.28 867.637 457.188 867.925 457.004C868.213 456.812 868.433 456.556 868.585 456.236C868.745 455.916 868.825 455.56 868.825 455.168C868.825 454.544 868.649 454.04 868.297 453.656C867.945 453.272 867.489 453.08 866.929 453.08C866.465 453.08 866.069 453.184 865.741 453.392C865.413 453.6 865.173 453.872 865.021 454.208H864.061L864.781 449.6H869.185V450.476H865.561L865.069 453.032C865.261 452.8 865.525 452.608 865.861 452.456C866.205 452.304 866.597 452.228 867.037 452.228C867.589 452.228 868.069 452.356 868.477 452.612C868.893 452.868 869.217 453.216 869.449 453.656C869.681 454.096 869.797 454.596 869.797 455.156C869.797 455.692 869.681 456.188 869.449 456.644C869.225 457.1 868.893 457.464 868.453 457.736C868.021 458.008 867.497 458.144 866.881 458.144Z" fill="black"/>
<rect width="32" height="32" transform="translate(705 474)" fill="#26AE5D"/>
<path d="M718.322 494V493.292C718.89 492.844 719.426 492.392 719.93 491.936C720.442 491.472 720.894 491.016 721.286 490.568C721.686 490.12 721.998 489.68 722.222 489.248C722.454 488.816 722.57 488.4 722.57 488C722.57 487.704 722.518 487.428 722.414 487.172C722.318 486.916 722.158 486.712 721.934 486.56C721.71 486.4 721.406 486.32 721.022 486.32C720.654 486.32 720.346 486.404 720.098 486.572C719.85 486.732 719.662 486.948 719.534 487.22C719.414 487.492 719.354 487.784 719.354 488.096H718.382C718.382 487.544 718.498 487.072 718.73 486.68C718.962 486.28 719.278 485.976 719.678 485.768C720.078 485.56 720.53 485.456 721.034 485.456C721.778 485.456 722.386 485.668 722.858 486.092C723.338 486.508 723.578 487.132 723.578 487.964C723.578 488.46 723.454 488.952 723.206 489.44C722.958 489.92 722.642 490.388 722.258 490.844C721.874 491.292 721.462 491.712 721.022 492.104C720.59 492.496 720.186 492.848 719.81 493.16H723.866V494H718.322Z" fill="black"/>
<rect width="32" height="32" transform="translate(741 474)" fill="#CAFF74"/>
<path d="M758.059 494V492.2H753.799V491.42L757.879 485.6H759.055V491.312H760.303V492.2H759.055V494H758.059ZM754.915 491.312H758.107V486.716L754.915 491.312Z" fill="black"/>
<rect width="32" height="32" transform="translate(777 474)" fill="#CAFF74"/>
<path d="M793.133 494.144C792.525 494.144 792.013 494.032 791.597 493.808C791.181 493.576 790.845 493.268 790.589 492.884C790.341 492.5 790.157 492.072 790.037 491.6C789.925 491.12 789.869 490.632 789.869 490.136C789.869 489.208 789.997 488.396 790.253 487.7C790.509 486.996 790.877 486.448 791.357 486.056C791.845 485.656 792.433 485.456 793.121 485.456C793.649 485.456 794.101 485.56 794.477 485.768C794.853 485.976 795.149 486.256 795.365 486.608C795.589 486.952 795.729 487.336 795.785 487.76H794.849C794.761 487.304 794.565 486.952 794.261 486.704C793.957 486.456 793.573 486.332 793.109 486.332C792.477 486.332 791.945 486.632 791.513 487.232C791.089 487.824 790.861 488.752 790.829 490.016C791.021 489.64 791.325 489.316 791.741 489.044C792.165 488.764 792.673 488.624 793.265 488.624C793.745 488.624 794.193 488.736 794.609 488.96C795.033 489.184 795.377 489.5 795.641 489.908C795.905 490.308 796.037 490.78 796.037 491.324C796.037 491.796 795.921 492.248 795.689 492.68C795.457 493.112 795.121 493.464 794.681 493.736C794.249 494.008 793.733 494.144 793.133 494.144ZM793.061 493.256C793.437 493.256 793.773 493.176 794.069 493.016C794.365 492.856 794.597 492.636 794.765 492.356C794.933 492.068 795.017 491.74 795.017 491.372C795.017 490.804 794.829 490.352 794.453 490.016C794.085 489.672 793.621 489.5 793.061 489.5C792.685 489.5 792.349 489.588 792.053 489.764C791.757 489.932 791.521 490.16 791.345 490.448C791.177 490.736 791.093 491.048 791.093 491.384C791.093 491.744 791.177 492.068 791.345 492.356C791.521 492.636 791.757 492.856 792.053 493.016C792.349 493.176 792.685 493.256 793.061 493.256Z" fill="black"/>
<rect width="32" height="32" transform="translate(813 474)" fill="#FFDB5B"/>
<path d="M828.998 494.144C828.446 494.144 827.95 494.044 827.51 493.844C827.07 493.636 826.722 493.352 826.466 492.992C826.218 492.624 826.094 492.2 826.094 491.72C826.094 491.208 826.242 490.748 826.538 490.34C826.842 489.932 827.242 489.66 827.738 489.524C827.282 489.372 826.93 489.128 826.682 488.792C826.434 488.456 826.31 488.088 826.31 487.688C826.31 487.28 826.418 486.908 826.634 486.572C826.85 486.228 827.158 485.956 827.558 485.756C827.958 485.556 828.438 485.456 828.998 485.456C829.558 485.456 830.038 485.556 830.438 485.756C830.838 485.956 831.146 486.228 831.362 486.572C831.578 486.908 831.686 487.28 831.686 487.688C831.686 488.08 831.562 488.448 831.314 488.792C831.066 489.128 830.714 489.372 830.258 489.524C830.754 489.66 831.15 489.932 831.446 490.34C831.75 490.748 831.902 491.208 831.902 491.72C831.902 492.2 831.774 492.624 831.518 492.992C831.27 493.352 830.926 493.636 830.486 493.844C830.046 494.044 829.55 494.144 828.998 494.144ZM828.998 489.164C829.51 489.164 829.914 489.036 830.21 488.78C830.514 488.516 830.666 488.172 830.666 487.748C830.666 487.276 830.518 486.92 830.222 486.68C829.926 486.44 829.518 486.32 828.998 486.32C828.478 486.32 828.07 486.44 827.774 486.68C827.486 486.92 827.342 487.276 827.342 487.748C827.342 488.172 827.49 488.516 827.786 488.78C828.082 489.036 828.486 489.164 828.998 489.164ZM828.998 493.256C829.63 493.256 830.102 493.112 830.414 492.824C830.734 492.528 830.894 492.14 830.894 491.66C830.894 491.116 830.722 490.704 830.378 490.424C830.034 490.144 829.574 490.004 828.998 490.004C828.422 490.004 827.962 490.144 827.618 490.424C827.274 490.704 827.102 491.116 827.102 491.66C827.102 492.14 827.258 492.528 827.57 492.824C827.89 493.112 828.366 493.256 828.998 493.256Z" fill="black"/>
<rect width="32" height="32" transform="translate(849 474)" fill="#FFDB5B"/>
<path d="M860.745 494V486.728L859.389 487.028V486.332L861.081 485.6H861.765V494H860.745ZM866.814 494.144C866.07 494.144 865.426 493.964 864.882 493.604C864.346 493.236 863.934 492.728 863.646 492.08C863.358 491.424 863.214 490.664 863.214 489.8C863.214 488.936 863.358 488.18 863.646 487.532C863.934 486.876 864.346 486.368 864.882 486.008C865.426 485.64 866.07 485.456 866.814 485.456C867.558 485.456 868.198 485.64 868.734 486.008C869.27 486.368 869.682 486.876 869.97 487.532C870.258 488.18 870.402 488.936 870.402 489.8C870.402 490.664 870.258 491.424 869.97 492.08C869.682 492.728 869.27 493.236 868.734 493.604C868.198 493.964 867.558 494.144 866.814 494.144ZM866.814 493.256C867.302 493.256 867.738 493.12 868.122 492.848C868.514 492.568 868.818 492.172 869.034 491.66C869.258 491.14 869.37 490.52 869.37 489.8C869.37 489.08 869.258 488.464 869.034 487.952C868.818 487.44 868.514 487.048 868.122 486.776C867.738 486.496 867.302 486.356 866.814 486.356C866.318 486.356 865.878 486.496 865.494 486.776C865.11 487.048 864.806 487.44 864.582 487.952C864.358 488.464 864.246 489.08 864.246 489.8C864.246 490.52 864.358 491.14 864.582 491.66C864.806 492.172 865.11 492.568 865.494 492.848C865.878 493.12 866.318 493.256 866.814 493.256Z" fill="black"/>
<rect width="32" height="32" transform="translate(705 510)" fill="#26AE5D"/>
<path d="M720.905 530V522.728L719.549 523.028V522.332L721.241 521.6H721.925V530H720.905Z" fill="black"/>
<rect width="32" height="32" transform="translate(741 510)" fill="#26AE5D"/>
<path d="M754.322 530V529.292C754.89 528.844 755.426 528.392 755.93 527.936C756.442 527.472 756.894 527.016 757.286 526.568C757.686 526.12 757.998 525.68 758.222 525.248C758.454 524.816 758.57 524.4 758.57 524C758.57 523.704 758.518 523.428 758.414 523.172C758.318 522.916 758.158 522.712 757.934 522.56C757.71 522.4 757.406 522.32 757.022 522.32C756.654 522.32 756.346 522.404 756.098 522.572C755.85 522.732 755.662 522.948 755.534 523.22C755.414 523.492 755.354 523.784 755.354 524.096H754.382C754.382 523.544 754.498 523.072 754.73 522.68C754.962 522.28 755.278 521.976 755.678 521.768C756.078 521.56 756.53 521.456 757.034 521.456C757.778 521.456 758.386 521.668 758.858 522.092C759.338 522.508 759.578 523.132 759.578 523.964C759.578 524.46 759.454 524.952 759.206 525.44C758.958 525.92 758.642 526.388 758.258 526.844C757.874 527.292 757.462 527.712 757.022 528.104C756.59 528.496 756.186 528.848 755.81 529.16H759.866V530H754.322Z" fill="black"/>
<rect width="32" height="32" transform="translate(777 510)" fill="#26AE5D"/>
<path d="M792.977 530.144C792.441 530.144 791.957 530.048 791.525 529.856C791.093 529.656 790.745 529.36 790.481 528.968C790.225 528.576 790.089 528.088 790.073 527.504H791.093C791.101 527.984 791.269 528.4 791.597 528.752C791.925 529.096 792.385 529.268 792.977 529.268C793.569 529.268 794.013 529.104 794.309 528.776C794.613 528.448 794.765 528.052 794.765 527.588C794.765 527.196 794.669 526.876 794.477 526.628C794.293 526.38 794.041 526.196 793.721 526.076C793.409 525.956 793.065 525.896 792.689 525.896H792.065V525.044H792.689C793.233 525.044 793.657 524.92 793.961 524.672C794.273 524.424 794.429 524.076 794.429 523.628C794.429 523.252 794.305 522.944 794.057 522.704C793.817 522.456 793.457 522.332 792.977 522.332C792.513 522.332 792.141 522.472 791.861 522.752C791.581 523.024 791.425 523.368 791.393 523.784H790.373C790.397 523.328 790.517 522.924 790.733 522.572C790.957 522.22 791.261 521.948 791.645 521.756C792.029 521.556 792.473 521.456 792.977 521.456C793.521 521.456 793.973 521.552 794.333 521.744C794.701 521.936 794.977 522.192 795.161 522.512C795.353 522.832 795.449 523.184 795.449 523.568C795.449 523.992 795.333 524.38 795.101 524.732C794.869 525.076 794.521 525.308 794.057 525.428C794.553 525.532 794.965 525.768 795.293 526.136C795.621 526.504 795.785 526.988 795.785 527.588C795.785 528.052 795.677 528.48 795.461 528.872C795.253 529.256 794.941 529.564 794.525 529.796C794.109 530.028 793.593 530.144 792.977 530.144Z" fill="black"/>
<rect width="32" height="32" transform="translate(813 510)" fill="#CAFF74"/>
<path d="M830.059 530V528.2H825.799V527.42L829.879 521.6H831.055V527.312H832.303V528.2H831.055V530H830.059ZM826.915 527.312H830.107V522.716L826.915 527.312Z" fill="black"/>
<rect width="32" height="32" transform="translate(849 510)" fill="#CAFF74"/>
<path d="M865.07 530.144C864.494 530.144 863.994 530.04 863.57 529.832C863.146 529.624 862.806 529.34 862.55 528.98C862.302 528.612 862.15 528.196 862.094 527.732H863.078C863.174 528.196 863.398 528.572 863.75 528.86C864.102 529.14 864.546 529.28 865.082 529.28C865.482 529.28 865.826 529.188 866.114 529.004C866.402 528.812 866.622 528.556 866.774 528.236C866.934 527.916 867.014 527.56 867.014 527.168C867.014 526.544 866.838 526.04 866.486 525.656C866.134 525.272 865.678 525.08 865.118 525.08C864.654 525.08 864.258 525.184 863.93 525.392C863.602 525.6 863.362 525.872 863.21 526.208H862.25L862.97 521.6H867.374V522.476H863.75L863.258 525.032C863.45 524.8 863.714 524.608 864.05 524.456C864.394 524.304 864.786 524.228 865.226 524.228C865.778 524.228 866.258 524.356 866.666 524.612C867.082 524.868 867.406 525.216 867.638 525.656C867.87 526.096 867.986 526.596 867.986 527.156C867.986 527.692 867.87 528.188 867.638 528.644C867.414 529.1 867.082 529.464 866.642 529.736C866.21 530.008 865.686 530.144 865.07 530.144Z" fill="black"/>
<rect x="984" y="364" width="16" height="16" rx="4" fill="#AE1414"/>
<rect x="1008" y="365.5" width="60" height="13" rx="5.5" fill="url(#paint22_linear_491_18994)"/>
<rect x="984" y="400" width="16" height="16" rx="4" fill="#FFA63E"/>
<rect x="1008" y="401.5" width="50" height="13" rx="5.5" fill="url(#paint23_linear_491_18994)"/>
<rect x="984" y="436" width="16" height="16" rx="4" fill="#FFDB5B"/>
<rect x="1008" y="437.5" width="86" height="13" rx="5.5" fill="url(#paint24_linear_491_18994)"/>
<rect x="984" y="472" width="16" height="16" rx="4" fill="#B7F159"/>
<rect x="1008" y="473.5" width="55" height="13" rx="5.5" fill="url(#paint25_linear_491_18994)"/>
<rect x="984" y="508" width="16" height="16" rx="4" fill="#00C667"/>
<rect x="1008" y="509.5" width="70" height="13" rx="5.5" fill="url(#paint26_linear_491_18994)"/>
<rect x="853" y="551" width="55" height="13" rx="5.5" fill="url(#paint27_linear_491_18994)"/>
<rect x="647" y="364" width="55" height="13" rx="5.5" fill="url(#paint28_linear_491_18994)"/>
<rect x="647" y="551" width="55" height="13" rx="5.5" fill="url(#paint29_linear_491_18994)"/>
<line x1="186.5" y1="810" x2="186.5" y2="1003" stroke="black" stroke-opacity="0.4"/>
<line x1="927" y1="810.5" x2="187" y2="810.5" stroke="black" stroke-opacity="0.04"/>
<line x1="927" y1="834.5" x2="187" y2="834.5" stroke="black" stroke-opacity="0.04"/>
<line x1="927" y1="858.5" x2="187" y2="858.5" stroke="black" stroke-opacity="0.04"/>
<line x1="927" y1="882.5" x2="187" y2="882.5" stroke="black" stroke-opacity="0.04"/>
<line x1="927" y1="906.5" x2="187" y2="906.5" stroke="black" stroke-opacity="0.04"/>
<line x1="927" y1="930.5" x2="187" y2="930.5" stroke="black" stroke-opacity="0.04"/>
<line x1="927" y1="954.5" x2="187" y2="954.5" stroke="black" stroke-opacity="0.04"/>
<line x1="927" y1="978.5" x2="187" y2="978.5" stroke="black" stroke-opacity="0.04"/>
<line x1="927" y1="1002.5" x2="187" y2="1002.5" stroke="black" stroke-opacity="0.4"/>
<rect x="666" y="810" width="10" height="479" transform="rotate(90 666 810)" fill="#D9C666"/>
<rect x="666" y="820" width="10" height="479" transform="rotate(90 666 820)" fill="#042440"/>
<rect x="602" y="842" width="10" height="415" transform="rotate(90 602 842)" fill="#D9C666"/>
<rect x="602" y="852" width="10" height="415" transform="rotate(90 602 852)" fill="#042440"/>
<rect x="547" y="874" width="10" height="360" transform="rotate(90 547 874)" fill="#D9C666"/>
<rect x="547" y="884" width="10" height="360" transform="rotate(90 547 884)" fill="#042440"/>
<rect x="494" y="906" width="10" height="307" transform="rotate(90 494 906)" fill="#D9C666"/>
<rect x="494" y="916" width="10" height="307" transform="rotate(90 494 916)" fill="#042440"/>
<rect x="443" y="938" width="10" height="256" transform="rotate(90 443 938)" fill="#D9C666"/>
<rect x="443" y="948" width="10" height="256" transform="rotate(90 443 948)" fill="#042440"/>
<rect x="391" y="970" width="10" height="204" transform="rotate(90 391 970)" fill="#D9C666"/>
<rect x="391" y="980" width="10" height="204" transform="rotate(90 391 980)" fill="#042440"/>
<path d="M191.543 1013.73V1021H190.442V1014.83H190.399L188.659 1015.96V1014.91L190.474 1013.73H191.543ZM196.269 1013.73V1021H195.169V1014.83H195.126L193.386 1015.96V1014.91L195.2 1013.73H196.269ZM201.021 1013.39L198.677 1022.09H197.729L200.073 1013.39H201.021ZM202.154 1021L205.328 1014.72V1014.67H201.656V1013.73H206.465V1014.7L203.301 1021H202.154Z" fill="black"/>
<path d="M262.137 1013.73V1021H261.036V1014.83H260.993L259.253 1015.96V1014.91L261.068 1013.73H262.137ZM264.104 1021V1020.2L266.565 1017.65C266.828 1017.38 267.044 1017.14 267.215 1016.93C267.387 1016.72 267.517 1016.52 267.602 1016.33C267.687 1016.14 267.73 1015.94 267.73 1015.72C267.73 1015.48 267.673 1015.27 267.559 1015.1C267.445 1014.92 267.29 1014.78 267.094 1014.69C266.897 1014.59 266.676 1014.54 266.43 1014.54C266.169 1014.54 265.942 1014.6 265.748 1014.7C265.554 1014.81 265.405 1014.96 265.301 1015.15C265.196 1015.35 265.144 1015.58 265.144 1015.84H264.097C264.097 1015.39 264.199 1015.01 264.402 1014.68C264.606 1014.34 264.885 1014.09 265.24 1013.9C265.595 1013.72 265.999 1013.63 266.451 1013.63C266.908 1013.63 267.311 1013.72 267.659 1013.9C268.009 1014.08 268.282 1014.33 268.479 1014.64C268.675 1014.95 268.774 1015.3 268.774 1015.69C268.774 1015.96 268.723 1016.22 268.621 1016.48C268.521 1016.74 268.347 1017.03 268.099 1017.35C267.85 1017.66 267.505 1018.04 267.062 1018.49L265.617 1020.01V1020.06H268.891V1021H264.104ZM273.021 1013.39L270.677 1022.09H269.729L272.073 1013.39H273.021ZM274.154 1021L277.328 1014.72V1014.67H273.656V1013.73H278.465V1014.7L275.301 1021H274.154Z" fill="black"/>
<path d="M333.824 1013.73V1021H332.723V1014.83H332.681L330.941 1015.96V1014.91L332.755 1013.73H333.824ZM338.323 1021.1C337.836 1021.1 337.4 1021.02 337.017 1020.85C336.635 1020.68 336.334 1020.45 336.111 1020.15C335.891 1019.85 335.772 1019.5 335.756 1019.1H336.871C336.885 1019.32 336.957 1019.51 337.088 1019.66C337.22 1019.82 337.393 1019.94 337.606 1020.03C337.819 1020.11 338.056 1020.15 338.316 1020.15C338.603 1020.15 338.856 1020.11 339.076 1020.01C339.299 1019.91 339.473 1019.77 339.598 1019.59C339.724 1019.41 339.786 1019.2 339.786 1018.97C339.786 1018.72 339.724 1018.51 339.598 1018.33C339.475 1018.14 339.294 1017.99 339.055 1017.89C338.818 1017.78 338.532 1017.73 338.195 1017.73H337.581V1016.83H338.195C338.465 1016.83 338.702 1016.78 338.906 1016.69C339.112 1016.59 339.273 1016.45 339.389 1016.28C339.505 1016.11 339.563 1015.9 339.563 1015.67C339.563 1015.44 339.512 1015.25 339.41 1015.08C339.311 1014.91 339.169 1014.78 338.984 1014.69C338.802 1014.59 338.586 1014.54 338.338 1014.54C338.101 1014.54 337.879 1014.59 337.673 1014.68C337.47 1014.76 337.304 1014.88 337.176 1015.04C337.048 1015.2 336.98 1015.39 336.97 1015.62H335.909C335.92 1015.22 336.036 1014.88 336.257 1014.58C336.479 1014.28 336.773 1014.05 337.137 1013.88C337.502 1013.71 337.907 1013.63 338.352 1013.63C338.818 1013.63 339.221 1013.72 339.559 1013.9C339.9 1014.08 340.163 1014.32 340.347 1014.62C340.535 1014.92 340.627 1015.25 340.624 1015.61C340.627 1016.02 340.513 1016.36 340.284 1016.65C340.056 1016.93 339.753 1017.12 339.374 1017.22V1017.27C339.857 1017.35 340.231 1017.54 340.497 1017.85C340.764 1018.16 340.897 1018.54 340.894 1019C340.897 1019.4 340.785 1019.76 340.561 1020.08C340.338 1020.4 340.034 1020.65 339.648 1020.83C339.262 1021.01 338.82 1021.1 338.323 1021.1ZM345.021 1013.39L342.677 1022.09H341.729L344.073 1013.39H345.021ZM346.154 1021L349.328 1014.72V1014.67H345.656V1013.73H350.465V1014.7L347.301 1021H346.154Z" fill="black"/>
<path d="M405.726 1013.73V1021H404.626V1014.83H404.583L402.843 1015.96V1014.91L404.657 1013.73H405.726ZM407.541 1019.58V1018.69L410.684 1013.73H411.383V1015.03H410.939L408.692 1018.59V1018.65H412.999V1019.58H407.541ZM410.989 1021V1019.31L410.996 1018.9V1013.73H412.037V1021H410.989ZM417.021 1013.39L414.677 1022.09H413.729L416.073 1013.39H417.021ZM418.154 1021L421.328 1014.72V1014.67H417.656V1013.73H422.465V1014.7L419.301 1021H418.154Z" fill="black"/>
<path d="M478.068 1013.73V1021H476.967V1014.83H476.925L475.185 1015.96V1014.91L476.999 1013.73H478.068ZM482.436 1021.1C481.991 1021.1 481.591 1021.01 481.236 1020.84C480.883 1020.67 480.601 1020.43 480.391 1020.13C480.18 1019.83 480.067 1019.49 480.053 1019.1H481.119C481.145 1019.42 481.283 1019.67 481.534 1019.87C481.785 1020.08 482.086 1020.18 482.436 1020.18C482.715 1020.18 482.963 1020.11 483.178 1019.98C483.396 1019.85 483.567 1019.68 483.69 1019.45C483.815 1019.22 483.878 1018.96 483.878 1018.67C483.878 1018.37 483.814 1018.11 483.686 1017.88C483.558 1017.65 483.382 1017.46 483.157 1017.33C482.934 1017.2 482.679 1017.13 482.39 1017.13C482.17 1017.13 481.948 1017.17 481.726 1017.24C481.503 1017.32 481.323 1017.42 481.186 1017.54L480.181 1017.39L480.589 1013.73H484.588V1014.67H481.502L481.271 1016.7H481.314C481.456 1016.57 481.644 1016.45 481.879 1016.36C482.115 1016.27 482.369 1016.22 482.638 1016.22C483.081 1016.22 483.475 1016.33 483.821 1016.54C484.169 1016.75 484.442 1017.03 484.641 1017.4C484.843 1017.76 484.942 1018.18 484.94 1018.65C484.942 1019.12 484.835 1019.54 484.62 1019.91C484.407 1020.28 484.111 1020.57 483.732 1020.78C483.356 1020.99 482.924 1021.1 482.436 1021.1ZM489.021 1013.39L486.677 1022.09H485.729L488.073 1013.39H489.021ZM490.154 1021L493.328 1014.72V1014.67H489.656V1013.73H494.465V1014.7L491.301 1021H490.154Z" fill="black"/>
<path d="M549.912 1013.73V1021H548.811V1014.83H548.768L547.028 1015.96V1014.91L548.843 1013.73H549.912ZM554.418 1021.1C554.094 1021.09 553.774 1021.04 553.46 1020.92C553.147 1020.81 552.863 1020.62 552.607 1020.35C552.352 1020.09 552.147 1019.73 551.993 1019.28C551.841 1018.84 551.766 1018.28 551.766 1017.61C551.766 1016.97 551.828 1016.41 551.954 1015.92C552.082 1015.43 552.265 1015.01 552.504 1014.67C552.743 1014.33 553.032 1014.07 553.371 1013.89C553.709 1013.72 554.089 1013.63 554.511 1013.63C554.944 1013.63 555.329 1013.71 555.665 1013.88C556.001 1014.05 556.273 1014.29 556.482 1014.59C556.692 1014.89 556.826 1015.23 556.883 1015.62H555.8C555.726 1015.31 555.581 1015.07 555.363 1014.87C555.145 1014.68 554.861 1014.59 554.511 1014.59C553.978 1014.59 553.563 1014.82 553.264 1015.28C552.968 1015.75 552.819 1016.39 552.817 1017.22H552.87C552.996 1017.01 553.149 1016.84 553.332 1016.69C553.516 1016.55 553.722 1016.43 553.95 1016.36C554.179 1016.27 554.421 1016.23 554.674 1016.23C555.095 1016.23 555.477 1016.34 555.817 1016.54C556.161 1016.75 556.434 1017.03 556.638 1017.39C556.841 1017.75 556.943 1018.16 556.943 1018.62C556.943 1019.09 556.838 1019.51 556.627 1019.88C556.419 1020.26 556.125 1020.56 555.746 1020.78C555.368 1021 554.925 1021.1 554.418 1021.1ZM554.415 1020.18C554.694 1020.18 554.944 1020.11 555.164 1019.97C555.384 1019.83 555.558 1019.65 555.686 1019.42C555.814 1019.18 555.878 1018.92 555.878 1018.64C555.878 1018.36 555.815 1018.1 555.69 1017.88C555.567 1017.65 555.396 1017.46 555.178 1017.33C554.963 1017.19 554.717 1017.13 554.44 1017.13C554.229 1017.13 554.034 1017.17 553.854 1017.25C553.676 1017.33 553.52 1017.44 553.385 1017.58C553.25 1017.72 553.143 1017.89 553.065 1018.07C552.99 1018.25 552.952 1018.45 552.952 1018.65C552.952 1018.92 553.014 1019.17 553.14 1019.41C553.268 1019.64 553.442 1019.82 553.662 1019.97C553.884 1020.11 554.135 1020.18 554.415 1020.18ZM561.021 1013.39L558.677 1022.09H557.729L560.073 1013.39H561.021ZM562.154 1021L565.328 1014.72V1014.67H561.656V1013.73H566.465V1014.7L563.301 1021H562.154Z" fill="black"/>
<path d="M622.478 1013.73V1021H621.377V1014.83H621.335L619.595 1015.96V1014.91L621.409 1013.73H622.478ZM624.691 1021L627.865 1014.72V1014.67H624.194V1013.73H629.002V1014.7L625.838 1021H624.691ZM633.021 1013.39L630.677 1022.09H629.729L632.073 1013.39H633.021ZM634.154 1021L637.328 1014.72V1014.67H633.656V1013.73H638.465V1014.7L635.301 1021H634.154Z" fill="black"/>
<path d="M693.951 1013.73V1021H692.85V1014.83H692.808L691.067 1015.96V1014.91L692.882 1013.73H693.951ZM698.376 1021.1C697.867 1021.1 697.417 1021.01 697.026 1020.84C696.638 1020.66 696.334 1020.42 696.114 1020.11C695.893 1019.8 695.785 1019.45 695.787 1019.06C695.785 1018.75 695.847 1018.47 695.975 1018.21C696.105 1017.95 696.282 1017.74 696.504 1017.56C696.727 1017.39 696.975 1017.28 697.25 1017.23V1017.19C696.888 1017.1 696.598 1016.9 696.38 1016.6C696.162 1016.3 696.054 1015.96 696.057 1015.57C696.054 1015.2 696.153 1014.86 696.352 1014.57C696.553 1014.28 696.829 1014.05 697.179 1013.88C697.529 1013.71 697.928 1013.63 698.376 1013.63C698.818 1013.63 699.214 1013.71 699.562 1013.88C699.912 1014.05 700.188 1014.28 700.389 1014.58C700.59 1014.87 700.692 1015.2 700.695 1015.57C700.692 1015.96 700.581 1016.3 700.361 1016.6C700.141 1016.9 699.854 1017.1 699.501 1017.19V1017.23C699.774 1017.28 700.019 1017.39 700.237 1017.56C700.457 1017.74 700.632 1017.95 700.762 1018.21C700.895 1018.47 700.962 1018.75 700.964 1019.06C700.962 1019.45 700.851 1019.8 700.631 1020.11C700.411 1020.42 700.105 1020.66 699.714 1020.84C699.326 1021.01 698.88 1021.1 698.376 1021.1ZM698.376 1020.2C698.676 1020.2 698.937 1020.15 699.157 1020.05C699.377 1019.95 699.548 1019.81 699.668 1019.63C699.789 1019.45 699.851 1019.23 699.853 1018.99C699.851 1018.74 699.784 1018.51 699.654 1018.32C699.526 1018.12 699.352 1017.97 699.132 1017.86C698.912 1017.75 698.66 1017.69 698.376 1017.69C698.089 1017.69 697.835 1017.75 697.612 1017.86C697.39 1017.97 697.214 1018.12 697.087 1018.32C696.959 1018.51 696.896 1018.74 696.898 1018.99C696.896 1019.23 696.954 1019.45 697.072 1019.63C697.193 1019.81 697.365 1019.95 697.587 1020.05C697.81 1020.15 698.073 1020.2 698.376 1020.2ZM698.376 1016.82C698.617 1016.82 698.831 1016.77 699.018 1016.67C699.205 1016.57 699.352 1016.44 699.459 1016.27C699.568 1016.09 699.623 1015.89 699.626 1015.66C699.623 1015.43 699.569 1015.23 699.462 1015.06C699.358 1014.89 699.213 1014.76 699.026 1014.67C698.839 1014.57 698.622 1014.53 698.376 1014.53C698.125 1014.53 697.905 1014.57 697.715 1014.67C697.528 1014.76 697.383 1014.89 697.278 1015.06C697.174 1015.23 697.123 1015.43 697.126 1015.66C697.123 1015.89 697.175 1016.09 697.282 1016.27C697.388 1016.44 697.535 1016.57 697.722 1016.67C697.912 1016.77 698.129 1016.82 698.376 1016.82ZM705.021 1013.39L702.677 1022.09H701.729L704.073 1013.39H705.021ZM706.154 1021L709.328 1014.72V1014.67H705.656V1013.73H710.465V1014.7L707.301 1021H706.154Z" fill="black"/>
<path d="M765.912 1013.73V1021H764.811V1014.83H764.768L763.028 1015.96V1014.91L764.843 1013.73H765.912ZM770.298 1013.63C770.622 1013.63 770.942 1013.69 771.256 1013.81C771.571 1013.92 771.855 1014.11 772.109 1014.37C772.364 1014.64 772.568 1014.99 772.719 1015.44C772.873 1015.88 772.951 1016.44 772.954 1017.1C772.954 1017.74 772.89 1018.3 772.762 1018.8C772.634 1019.3 772.451 1019.71 772.212 1020.06C771.975 1020.4 771.687 1020.66 771.349 1020.83C771.01 1021.01 770.629 1021.1 770.205 1021.1C769.772 1021.1 769.387 1021.01 769.051 1020.84C768.715 1020.67 768.442 1020.44 768.231 1020.14C768.02 1019.83 767.889 1019.49 767.837 1019.09H768.92C768.991 1019.41 769.135 1019.66 769.353 1019.85C769.573 1020.04 769.857 1020.14 770.205 1020.14C770.738 1020.14 771.153 1019.91 771.452 1019.44C771.75 1018.98 771.9 1018.33 771.903 1017.49H771.846C771.723 1017.7 771.569 1017.87 771.384 1018.02C771.202 1018.16 770.997 1018.28 770.77 1018.36C770.543 1018.44 770.3 1018.48 770.042 1018.48C769.623 1018.48 769.242 1018.38 768.898 1018.17C768.555 1017.96 768.282 1017.68 768.078 1017.32C767.875 1016.96 767.773 1016.55 767.773 1016.09C767.773 1015.63 767.877 1015.21 768.085 1014.84C768.296 1014.46 768.589 1014.17 768.966 1013.95C769.345 1013.73 769.789 1013.62 770.298 1013.63ZM770.301 1014.55C770.024 1014.55 769.774 1014.62 769.552 1014.76C769.332 1014.89 769.158 1015.08 769.03 1015.31C768.902 1015.54 768.838 1015.79 768.838 1016.07C768.838 1016.36 768.9 1016.61 769.023 1016.84C769.148 1017.07 769.319 1017.25 769.534 1017.38C769.752 1017.52 770 1017.58 770.28 1017.58C770.488 1017.58 770.682 1017.54 770.862 1017.46C771.042 1017.38 771.2 1017.27 771.335 1017.13C771.469 1016.98 771.575 1016.82 771.651 1016.64C771.726 1016.46 771.764 1016.27 771.764 1016.06C771.764 1015.8 771.7 1015.55 771.572 1015.32C771.447 1015.09 771.274 1014.9 771.054 1014.76C770.834 1014.62 770.583 1014.55 770.301 1014.55ZM777.021 1013.39L774.677 1022.09H773.729L776.073 1013.39H777.021ZM778.154 1021L781.328 1014.72V1014.67H777.656V1013.73H782.465V1014.7L779.301 1021H778.154Z" fill="black"/>
<path d="M833.649 1021V1020.2L836.11 1017.65C836.373 1017.38 836.589 1017.14 836.76 1016.93C836.932 1016.72 837.061 1016.52 837.147 1016.33C837.232 1016.14 837.275 1015.94 837.275 1015.72C837.275 1015.48 837.218 1015.27 837.104 1015.1C836.99 1014.92 836.835 1014.78 836.639 1014.69C836.442 1014.59 836.221 1014.54 835.975 1014.54C835.714 1014.54 835.487 1014.6 835.293 1014.7C835.099 1014.81 834.95 1014.96 834.846 1015.15C834.741 1015.35 834.689 1015.58 834.689 1015.84H833.642C833.642 1015.39 833.743 1015.01 833.947 1014.68C834.151 1014.34 834.43 1014.09 834.785 1013.9C835.14 1013.72 835.544 1013.63 835.996 1013.63C836.453 1013.63 836.855 1013.72 837.203 1013.9C837.554 1014.08 837.827 1014.33 838.024 1014.64C838.22 1014.95 838.319 1015.3 838.319 1015.69C838.319 1015.96 838.268 1016.22 838.166 1016.48C838.066 1016.74 837.892 1017.03 837.644 1017.35C837.395 1017.66 837.05 1018.04 836.607 1018.49L835.162 1020.01V1020.06H838.436V1021H833.649ZM842.314 1021.12C841.752 1021.12 841.273 1020.97 840.875 1020.68C840.478 1020.38 840.173 1019.96 839.963 1019.39C839.752 1018.83 839.647 1018.16 839.647 1017.37C839.647 1016.58 839.752 1015.91 839.963 1015.35C840.176 1014.79 840.481 1014.36 840.879 1014.07C841.279 1013.77 841.757 1013.63 842.314 1013.63C842.87 1013.63 843.347 1013.78 843.745 1014.07C844.142 1014.37 844.447 1014.79 844.657 1015.35C844.87 1015.91 844.977 1016.58 844.977 1017.37C844.977 1018.16 844.872 1018.84 844.661 1019.4C844.45 1019.96 844.146 1020.38 843.748 1020.68C843.35 1020.97 842.872 1021.12 842.314 1021.12ZM842.314 1020.17C842.806 1020.17 843.191 1019.93 843.468 1019.45C843.747 1018.97 843.887 1018.28 843.887 1017.37C843.887 1016.76 843.823 1016.25 843.695 1015.84C843.569 1015.42 843.388 1015.1 843.152 1014.88C842.917 1014.67 842.638 1014.56 842.314 1014.56C841.824 1014.56 841.439 1014.8 841.159 1015.28C840.88 1015.77 840.739 1016.46 840.737 1017.37C840.737 1017.97 840.8 1018.49 840.925 1018.9C841.053 1019.32 841.234 1019.64 841.468 1019.85C841.703 1020.07 841.984 1020.17 842.314 1020.17ZM849.021 1013.39L846.677 1022.09H845.729L848.073 1013.39H849.021ZM850.154 1021L853.328 1014.72V1014.67H849.656V1013.73H854.465V1014.7L851.301 1021H850.154Z" fill="black"/>
<path d="M907.377 1021V1020.2L909.838 1017.65C910.101 1017.38 910.318 1017.14 910.488 1016.93C910.661 1016.72 910.79 1016.52 910.875 1016.33C910.96 1016.14 911.003 1015.94 911.003 1015.72C911.003 1015.48 910.946 1015.27 910.833 1015.1C910.719 1014.92 910.564 1014.78 910.367 1014.69C910.171 1014.59 909.95 1014.54 909.703 1014.54C909.443 1014.54 909.216 1014.6 909.021 1014.7C908.827 1014.81 908.678 1014.96 908.574 1015.15C908.47 1015.35 908.418 1015.58 908.418 1015.84H907.37C907.37 1015.39 907.472 1015.01 907.676 1014.68C907.879 1014.34 908.159 1014.09 908.514 1013.9C908.869 1013.72 909.272 1013.63 909.725 1013.63C910.182 1013.63 910.584 1013.72 910.932 1013.9C911.282 1014.08 911.556 1014.33 911.752 1014.64C911.949 1014.95 912.047 1015.3 912.047 1015.69C912.047 1015.96 911.996 1016.22 911.894 1016.48C911.795 1016.74 911.621 1017.03 911.372 1017.35C911.124 1017.66 910.778 1018.04 910.335 1018.49L908.89 1020.01V1020.06H912.164V1021H907.377ZM916.269 1013.73V1021H915.169V1014.83H915.126L913.386 1015.96V1014.91L915.2 1013.73H916.269ZM921.021 1013.39L918.677 1022.09H917.729L920.073 1013.39H921.021ZM922.154 1021L925.328 1014.72V1014.67H921.656V1013.73H926.465V1014.7L923.301 1021H922.154Z" fill="black"/>
<rect x="186" y="1039" width="20" height="20" rx="4" fill="#D9C666"/>
<rect x="214" y="1042.5" width="70" height="13" rx="5.5" fill="url(#paint30_linear_491_18994)"/>
<rect x="316" y="1039" width="20" height="20" rx="4" fill="#042440"/>
<rect x="344" y="1042.5" width="70" height="13" rx="5.5" fill="url(#paint31_linear_491_18994)"/>
<rect x="92" y="811" width="84" height="13" rx="5.5" fill="url(#paint32_linear_491_18994)"/>
<rect x="92" y="842" width="69" height="13" rx="5.5" fill="url(#paint33_linear_491_18994)"/>
<rect x="92" y="874" width="59" height="13" rx="5.5" fill="url(#paint34_linear_491_18994)"/>
<rect x="92" y="907" width="69" height="13" rx="5.5" fill="url(#paint35_linear_491_18994)"/>
<rect x="92" y="938" width="69" height="13" rx="5.5" fill="url(#paint36_linear_491_18994)"/>
<rect x="92" y="970" width="59" height="13" rx="5.5" fill="url(#paint37_linear_491_18994)"/>
<circle cx="839.5" cy="716" r="90" stroke="#78FFAE" stroke-width="20"/>
<path d="M875.222 798.607C890 792.217 902.793 781.979 912.267 768.962C921.742 755.944 927.551 740.623 929.088 724.597" stroke="#FF6E6E" stroke-width="20" stroke-linecap="square"/>
<path d="M929.5 716C929.5 697.097 923.548 678.674 912.489 663.344C901.43 648.014 885.824 636.556 867.886 630.594" stroke="#FFC077" stroke-width="20" stroke-linecap="square"/>
<rect x="989.5" y="674" width="20" height="20" fill="#FF6E6E"/>
<rect x="1031.5" y="677.5" width="86" height="13" rx="5.5" fill="url(#paint38_linear_491_18994)"/>
<rect x="1139.5" y="678.5" width="21" height="11" rx="5.5" fill="url(#paint39_linear_491_18994)"/>
<rect x="989.5" y="706" width="20" height="20" fill="#FFC077"/>
<rect x="1031.5" y="709.5" width="86" height="13" rx="5.5" fill="url(#paint40_linear_491_18994)"/>
<rect x="1139.5" y="710.5" width="21" height="11" rx="5.5" fill="url(#paint41_linear_491_18994)"/>
<rect x="989.5" y="738" width="20" height="20" fill="#78FFAE"/>
<rect x="1031.5" y="741.5" width="86" height="13" rx="5.5" fill="url(#paint42_linear_491_18994)"/>
<rect x="1139.5" y="742.5" width="21" height="11" rx="5.5" fill="url(#paint43_linear_491_18994)"/>
<defs>
<linearGradient id="paint0_linear_491_18994" x1="100" y1="310" x2="252" y2="310" gradientUnits="userSpaceOnUse">
<stop stop-color="#7D7D7E"/>
<stop offset="0.595" stop-color="#BAC1DB"/>
</linearGradient>
<linearGradient id="paint1_linear_491_18994" x1="338" y1="310" x2="465" y2="310" gradientUnits="userSpaceOnUse">
<stop stop-color="#7D7D7E"/>
<stop offset="0.595" stop-color="#BAC1DB"/>
</linearGradient>
<linearGradient id="paint2_linear_491_18994" x1="172" y1="269" x2="262" y2="269" gradientUnits="userSpaceOnUse">
<stop stop-color="#7D7D7E"/>
<stop offset="0.595" stop-color="#BAC1DB"/>
</linearGradient>
<linearGradient id="paint3_linear_491_18994" x1="483" y1="269" x2="573" y2="269" gradientUnits="userSpaceOnUse">
<stop stop-color="#7D7D7E"/>
<stop offset="0.595" stop-color="#BAC1DB"/>
</linearGradient>
<linearGradient id="paint4_linear_491_18994" x1="794" y1="269" x2="884" y2="269" gradientUnits="userSpaceOnUse">
<stop stop-color="#7D7D7E"/>
<stop offset="0.595" stop-color="#BAC1DB"/>
</linearGradient>
<linearGradient id="paint5_linear_491_18994" x1="44" y1="122" x2="54" y2="122" gradientUnits="userSpaceOnUse">
<stop stop-color="#7D7D7E"/>
<stop offset="0.595" stop-color="#BAC1DB"/>
</linearGradient>
<linearGradient id="paint6_linear_491_18994" x1="44" y1="164" x2="54" y2="164" gradientUnits="userSpaceOnUse">
<stop stop-color="#7D7D7E"/>
<stop offset="0.595" stop-color="#BAC1DB"/>
</linearGradient>
<linearGradient id="paint7_linear_491_18994" x1="44" y1="206" x2="54" y2="206" gradientUnits="userSpaceOnUse">
<stop stop-color="#7D7D7E"/>
<stop offset="0.595" stop-color="#BAC1DB"/>
</linearGradient>
<linearGradient id="paint8_linear_491_18994" x1="44" y1="248" x2="54" y2="248" gradientUnits="userSpaceOnUse">
<stop stop-color="#7D7D7E"/>
<stop offset="0.595" stop-color="#BAC1DB"/>
</linearGradient>
<linearGradient id="paint9_linear_491_18994" x1="424" y1="433" x2="424" y2="591" gradientUnits="userSpaceOnUse">
<stop stop-color="#CA484B"/>
<stop offset="0.308" stop-color="#E3BABC"/>
<stop offset="0.495" stop-color="#D3D5D6"/>
<stop offset="0.715" stop-color="#96B2BD"/>
<stop offset="1" stop-color="#518093"/>
</linearGradient>
<linearGradient id="paint10_linear_491_18994" x1="162" y1="633" x2="342" y2="633" gradientUnits="userSpaceOnUse">
<stop stop-color="#7D7D7E"/>
<stop offset="0.595" stop-color="#BAC1DB"/>
</linearGradient>
<linearGradient id="paint11_linear_491_18994" x1="162" y1="633" x2="342" y2="633" gradientUnits="userSpaceOnUse">
<stop stop-color="#7D7D7E"/>
<stop offset="0.595" stop-color="#BAC1DB"/>
</linearGradient>
<linearGradient id="paint12_linear_491_18994" x1="447" y1="579" x2="470" y2="579" gradientUnits="userSpaceOnUse">
<stop stop-color="#7D7D7E"/>
<stop offset="0.595" stop-color="#BAC1DB"/>
</linearGradient>
<linearGradient id="paint13_linear_491_18994" x1="447" y1="439" x2="470" y2="439" gradientUnits="userSpaceOnUse">
<stop stop-color="#7D7D7E"/>
<stop offset="0.595" stop-color="#BAC1DB"/>
</linearGradient>
<linearGradient id="paint14_linear_491_18994" x1="447" y1="474" x2="470" y2="474" gradientUnits="userSpaceOnUse">
<stop stop-color="#7D7D7E"/>
<stop offset="0.595" stop-color="#BAC1DB"/>
</linearGradient>
<linearGradient id="paint15_linear_491_18994" x1="447" y1="509" x2="470" y2="509" gradientUnits="userSpaceOnUse">
<stop stop-color="#7D7D7E"/>
<stop offset="0.595" stop-color="#BAC1DB"/>
</linearGradient>
<linearGradient id="paint16_linear_491_18994" x1="447" y1="544" x2="470" y2="544" gradientUnits="userSpaceOnUse">
<stop stop-color="#7D7D7E"/>
<stop offset="0.595" stop-color="#BAC1DB"/>
</linearGradient>
<linearGradient id="paint17_linear_491_18994" x1="123" y1="597" x2="146" y2="597" gradientUnits="userSpaceOnUse">
<stop stop-color="#7D7D7E"/>
<stop offset="0.595" stop-color="#BAC1DB"/>
</linearGradient>
<linearGradient id="paint18_linear_491_18994" x1="123" y1="457" x2="146" y2="457" gradientUnits="userSpaceOnUse">
<stop stop-color="#7D7D7E"/>
<stop offset="0.595" stop-color="#BAC1DB"/>
</linearGradient>
<linearGradient id="paint19_linear_491_18994" x1="123" y1="492" x2="146" y2="492" gradientUnits="userSpaceOnUse">
<stop stop-color="#7D7D7E"/>
<stop offset="0.595" stop-color="#BAC1DB"/>
</linearGradient>
<linearGradient id="paint20_linear_491_18994" x1="123" y1="527" x2="146" y2="527" gradientUnits="userSpaceOnUse">
<stop stop-color="#7D7D7E"/>
<stop offset="0.595" stop-color="#BAC1DB"/>
</linearGradient>
<linearGradient id="paint21_linear_491_18994" x1="123" y1="562" x2="146" y2="562" gradientUnits="userSpaceOnUse">
<stop stop-color="#7D7D7E"/>
<stop offset="0.595" stop-color="#BAC1DB"/>
</linearGradient>
<linearGradient id="paint22_linear_491_18994" x1="1008" y1="372" x2="1068" y2="372" gradientUnits="userSpaceOnUse">
<stop stop-color="#7D7D7E"/>
<stop offset="0.595" stop-color="#BAC1DB"/>
</linearGradient>
<linearGradient id="paint23_linear_491_18994" x1="1008" y1="408" x2="1058" y2="408" gradientUnits="userSpaceOnUse">
<stop stop-color="#7D7D7E"/>
<stop offset="0.595" stop-color="#BAC1DB"/>
</linearGradient>
<linearGradient id="paint24_linear_491_18994" x1="1008" y1="444" x2="1094" y2="444" gradientUnits="userSpaceOnUse">
<stop stop-color="#7D7D7E"/>
<stop offset="0.595" stop-color="#BAC1DB"/>
</linearGradient>
<linearGradient id="paint25_linear_491_18994" x1="1008" y1="480" x2="1063" y2="480" gradientUnits="userSpaceOnUse">
<stop stop-color="#7D7D7E"/>
<stop offset="0.595" stop-color="#BAC1DB"/>
</linearGradient>
<linearGradient id="paint26_linear_491_18994" x1="1008" y1="516" x2="1078" y2="516" gradientUnits="userSpaceOnUse">
<stop stop-color="#7D7D7E"/>
<stop offset="0.595" stop-color="#BAC1DB"/>
</linearGradient>
<linearGradient id="paint27_linear_491_18994" x1="853" y1="557.5" x2="908" y2="557.5" gradientUnits="userSpaceOnUse">
<stop stop-color="#7D7D7E"/>
<stop offset="0.595" stop-color="#BAC1DB"/>
</linearGradient>
<linearGradient id="paint28_linear_491_18994" x1="647" y1="370.5" x2="702" y2="370.5" gradientUnits="userSpaceOnUse">
<stop stop-color="#7D7D7E"/>
<stop offset="0.595" stop-color="#BAC1DB"/>
</linearGradient>
<linearGradient id="paint29_linear_491_18994" x1="647" y1="557.5" x2="702" y2="557.5" gradientUnits="userSpaceOnUse">
<stop stop-color="#7D7D7E"/>
<stop offset="0.595" stop-color="#BAC1DB"/>
</linearGradient>
<linearGradient id="paint30_linear_491_18994" x1="214" y1="1049" x2="284" y2="1049" gradientUnits="userSpaceOnUse">
<stop stop-color="#7D7D7E"/>
<stop offset="0.595" stop-color="#BAC1DB"/>
</linearGradient>
<linearGradient id="paint31_linear_491_18994" x1="344" y1="1049" x2="414" y2="1049" gradientUnits="userSpaceOnUse">
<stop stop-color="#7D7D7E"/>
<stop offset="0.595" stop-color="#BAC1DB"/>
</linearGradient>
<linearGradient id="paint32_linear_491_18994" x1="92" y1="817.5" x2="176" y2="817.5" gradientUnits="userSpaceOnUse">
<stop stop-color="#7D7D7E"/>
<stop offset="0.595" stop-color="#BAC1DB"/>
</linearGradient>
<linearGradient id="paint33_linear_491_18994" x1="92" y1="848.5" x2="161" y2="848.5" gradientUnits="userSpaceOnUse">
<stop stop-color="#7D7D7E"/>
<stop offset="0.595" stop-color="#BAC1DB"/>
</linearGradient>
<linearGradient id="paint34_linear_491_18994" x1="92" y1="880.5" x2="151" y2="880.5" gradientUnits="userSpaceOnUse">
<stop stop-color="#7D7D7E"/>
<stop offset="0.595" stop-color="#BAC1DB"/>
</linearGradient>
<linearGradient id="paint35_linear_491_18994" x1="92" y1="913.5" x2="161" y2="913.5" gradientUnits="userSpaceOnUse">
<stop stop-color="#7D7D7E"/>
<stop offset="0.595" stop-color="#BAC1DB"/>
</linearGradient>
<linearGradient id="paint36_linear_491_18994" x1="92" y1="944.5" x2="161" y2="944.5" gradientUnits="userSpaceOnUse">
<stop stop-color="#7D7D7E"/>
<stop offset="0.595" stop-color="#BAC1DB"/>
</linearGradient>
<linearGradient id="paint37_linear_491_18994" x1="92" y1="976.5" x2="151" y2="976.5" gradientUnits="userSpaceOnUse">
<stop stop-color="#7D7D7E"/>
<stop offset="0.595" stop-color="#BAC1DB"/>
</linearGradient>
<linearGradient id="paint38_linear_491_18994" x1="1031.5" y1="684" x2="1117.5" y2="684" gradientUnits="userSpaceOnUse">
<stop stop-color="#7D7D7E"/>
<stop offset="0.595" stop-color="#BAC1DB"/>
</linearGradient>
<linearGradient id="paint39_linear_491_18994" x1="1139.5" y1="684" x2="1160.5" y2="684" gradientUnits="userSpaceOnUse">
<stop stop-color="#91A9FF"/>
<stop offset="0.595" stop-color="#BAC1DB"/>
</linearGradient>
<linearGradient id="paint40_linear_491_18994" x1="1031.5" y1="716" x2="1117.5" y2="716" gradientUnits="userSpaceOnUse">
<stop stop-color="#7D7D7E"/>
<stop offset="0.595" stop-color="#BAC1DB"/>
</linearGradient>
<linearGradient id="paint41_linear_491_18994" x1="1139.5" y1="716" x2="1160.5" y2="716" gradientUnits="userSpaceOnUse">
<stop stop-color="#91A9FF"/>
<stop offset="0.595" stop-color="#BAC1DB"/>
</linearGradient>
<linearGradient id="paint42_linear_491_18994" x1="1031.5" y1="748" x2="1117.5" y2="748" gradientUnits="userSpaceOnUse">
<stop stop-color="#7D7D7E"/>
<stop offset="0.595" stop-color="#BAC1DB"/>
</linearGradient>
<linearGradient id="paint43_linear_491_18994" x1="1139.5" y1="748" x2="1160.5" y2="748" gradientUnits="userSpaceOnUse">
<stop stop-color="#91A9FF"/>
<stop offset="0.595" stop-color="#BAC1DB"/>
</linearGradient>
</defs>
</svg>
