<svg width="244" height="176" viewBox="0 0 244 176" fill="none" xmlns="http://www.w3.org/2000/svg">
<mask id="mask0_473_10813" style="mask-type:alpha" maskUnits="userSpaceOnUse" x="0" y="0" width="244" height="176">
<rect width="244" height="176" rx="20" fill="#D9D9D9"/>
</mask>
<g mask="url(#mask0_473_10813)">
<rect opacity="0.8" x="-23.1719" y="-367.623" width="580" height="680" rx="20" fill="url(#paint0_linear_473_10813)" fill-opacity="0.6"/>
</g>
<path d="M129.606 155C128.502 155 127.397 154.749 126.411 154.245L53.5286 117.055C53.1589 116.866 52.9375 116.528 52.9375 116.151C52.9375 115.773 53.1583 115.436 53.5286 115.247L98.8144 92.1382C98.8745 92.1076 98.9483 92.1076 99.0084 92.1382L174.988 130.909C175.358 131.098 175.579 131.436 175.579 131.813C175.579 132.191 175.358 132.529 174.988 132.717L132.8 154.246C131.815 154.749 130.71 155 129.606 155ZM98.9118 92.484L53.7226 115.543C53.4737 115.67 53.3255 115.897 53.3255 116.151C53.3255 116.404 53.4737 116.632 53.7226 116.759L126.605 153.949C128.455 154.894 130.755 154.894 132.606 153.949L174.795 132.421C175.044 132.294 175.192 132.067 175.192 131.813C175.192 131.56 175.044 131.332 174.795 131.205L98.9118 92.484Z" fill="#262626"/>
<path d="M101.275 75.2571L111.429 22.015L110.612 21.7114L111.839 21.0896L111.837 21.096C112.074 20.9557 112.411 20.9644 112.782 21.1537L193.931 62.5618C194.597 62.9018 195.101 63.7741 194.984 64.3837L184.75 118.049C184.696 118.328 184.54 118.514 184.322 118.595L184.323 118.596L183.123 119.209L182.917 118.218L182.985 118.237L102.328 77.079C101.662 76.739 101.158 75.8667 101.275 75.2571Z" fill="url(#paint1_linear_473_10813)"/>
<path d="M193.481 64.017L194.815 63.4951C194.964 63.797 195.038 64.1145 194.987 64.383L184.753 118.048C184.699 118.328 184.542 118.513 184.325 118.594L184.326 118.595L183.126 119.208L182.919 118.217L182.988 118.236L178.906 116.153L193.481 64.017Z" fill="url(#paint2_linear_473_10813)"/>
<path d="M101.055 77.7252L182.203 119.133C182.829 119.453 183.365 119.268 183.476 118.695L193.71 65.0299C193.827 64.4203 193.323 63.5481 192.656 63.2081L111.508 21.8C110.882 21.4802 110.345 21.6649 110.235 22.2381L100.001 75.9034C99.8844 76.513 100.389 77.3852 101.055 77.7252Z" fill="#24126A"/>
<g opacity="0.51">
<path d="M112.569 25.2256L190.79 65.1397L181.09 115.681L102.922 75.7938L112.569 25.2256Z" fill="#453C9E"/>
</g>
<path d="M50.0469 103.131L54.4752 105.175L98.8812 82.5157C99.6239 82.1364 100.922 82.1843 101.78 82.6219L178.368 121.704C179.101 121.341 182.443 119.921 182.443 119.921L180.822 123.654C180.822 123.654 180.816 123.65 180.815 123.65C180.748 123.816 180.604 123.971 180.362 124.094L133.593 147.959C132.85 148.338 131.553 148.29 130.695 147.853L52.3205 107.86C51.9684 107.681 51.7522 107.463 51.6628 107.242L51.6569 107.246L50.0469 103.131Z" fill="url(#paint3_linear_473_10813)"/>
<path d="M50.7275 103.774L131.051 144.761C131.93 145.21 133.26 145.259 134.021 144.87L181.953 120.411C182.714 120.023 182.618 119.344 181.739 118.896L101.416 77.9083C100.537 77.4597 99.2072 77.4106 98.4457 77.7997L50.5139 102.259C49.7524 102.647 49.8484 103.325 50.7275 103.774Z" fill="url(#paint4_linear_473_10813)"/>
<path d="M155.28 135.896V135.117C155.28 135.043 155.229 135.009 155.166 135.042L152.059 136.627C151.996 136.658 151.945 136.744 151.945 136.818V137.597C151.945 137.671 151.996 137.705 152.059 137.673L155.166 136.088C155.229 136.056 155.28 135.97 155.28 135.896Z" fill="#2842A2"/>
<path d="M150.631 138.266V137.487C150.631 137.413 150.58 137.379 150.518 137.412L147.411 138.997C147.348 139.029 147.297 139.115 147.297 139.188V139.967C147.297 140.041 147.348 140.075 147.411 140.043L150.518 138.458C150.58 138.426 150.631 138.34 150.631 138.266Z" fill="#2842A2"/>
<path d="M169.453 118.121L102.705 84.0607C102.261 83.8338 101.712 83.8338 101.267 84.0613L77.4978 96.2157C77.1569 96.39 77.1569 96.8259 77.4985 97.0002L144.216 131.045C144.661 131.271 145.208 131.271 145.653 131.045L169.454 118.906C169.795 118.731 169.795 118.296 169.453 118.121Z" fill="#ADB1F2"/>
<path d="M169.454 118.906L169.214 119.028L102.705 85.0894C102.261 84.8625 101.712 84.8625 101.267 85.09L77.7375 97.122L77.4985 97.0002C77.1569 96.8259 77.1569 96.3906 77.4978 96.2157L101.267 84.0613C101.712 83.8338 102.261 83.8338 102.705 84.0607L169.454 118.121C169.795 118.296 169.795 118.731 169.454 118.906Z" fill="#9198DB"/>
<path d="M99.4688 87.1408L157.449 116.727L160.027 115.411L102.047 85.8252L99.4688 87.1408Z" fill="#24126A"/>
<path d="M93.1562 90.3664L147.54 118.117L150.118 116.801L95.7342 89.0508L93.1562 90.3664Z" fill="#24126A"/>
<path d="M89.0391 92.466L153.07 125.139L155.648 123.824L91.617 91.1504L89.0391 92.466Z" fill="#24126A"/>
<path d="M84.9219 94.5666L148.952 127.24L151.53 125.925L87.4998 93.251L84.9219 94.5666Z" fill="#24126A"/>
<path d="M80.8047 96.6672L144.835 129.341L147.413 128.026L83.3827 95.3516L80.8047 96.6672Z" fill="#24126A"/>
<path d="M160.961 118.516L163.539 119.831L166.117 118.516L163.539 117.2L160.961 118.516Z" fill="#24126A"/>
<path d="M151.859 120.325L157.211 123.055L159.789 121.74L154.437 119.01L151.859 120.325Z" fill="#24126A"/>
<path d="M100.135 126.363L82.137 117.18C81.4335 116.82 81.4335 116.239 82.137 115.879L94.4442 109.599C95.1476 109.24 96.288 109.24 96.9914 109.599L114.99 118.783C115.693 119.142 115.693 119.724 114.99 120.083L102.682 126.363C101.979 126.722 100.838 126.722 100.135 126.363Z" fill="url(#paint5_linear_473_10813)"/>
<path d="M114.998 119.315L97.0006 110.132C96.2971 109.773 95.1567 109.773 94.4533 110.132L82.1461 116.412C81.9292 116.523 81.7868 116.655 81.7039 116.796C81.5177 116.482 81.6595 116.128 82.1461 115.879L94.4533 109.599C95.1567 109.24 96.2971 109.24 97.0006 109.599L114.998 118.783C115.485 119.031 115.626 119.385 115.44 119.699C115.357 119.559 115.215 119.426 114.998 119.315Z" fill="#9198DB"/>
<g opacity="0.11">
<mask id="mask1_473_10813" style="mask-type:luminance" maskUnits="userSpaceOnUse" x="102" y="25" width="89" height="91">
<path d="M112.553 25.229L190.774 65.1431L181.074 115.685L102.906 75.7972L112.553 25.229Z" fill="white"/>
</mask>
<g mask="url(#mask1_473_10813)">
<path d="M101.321 77.8272L181.644 118.814C182.523 119.263 183.853 119.312 184.615 118.924L232.546 94.4652C233.308 94.0767 233.213 93.3979 232.333 92.9493L152.01 51.9621C151.131 51.5135 149.801 51.4645 149.039 51.853L101.107 76.3113C100.347 76.7003 100.442 77.3786 101.321 77.8272Z" fill="url(#paint6_linear_473_10813)"/>
<path d="M181.885 85.1758L163.887 75.992C163.184 75.6329 163.184 75.051 163.887 74.692L176.194 68.4119C176.898 68.0528 178.038 68.0528 178.741 68.4119L196.74 77.5956C197.443 77.9547 197.443 78.5366 196.74 78.8957L184.432 85.1758C183.729 85.5348 182.588 85.5348 181.885 85.1758Z" fill="url(#paint7_linear_473_10813)"/>
<path d="M196.741 78.1279L178.743 68.9441C178.039 68.5851 176.899 68.5851 176.195 68.9441L163.888 75.2242C163.671 75.3351 163.529 75.4678 163.446 75.6081C163.26 75.2941 163.402 74.9402 163.888 74.692L176.195 68.4119C176.899 68.0528 178.039 68.0528 178.743 68.4119L196.741 77.5956C197.227 77.8439 197.369 78.1977 197.183 78.5118C197.1 78.3721 196.958 78.2387 196.741 78.1279Z" fill="#9198DB"/>
<path d="M204.649 99.5266L137.901 65.466C137.456 65.2391 136.907 65.2391 136.463 65.4666L112.693 77.621C112.352 77.7953 112.352 78.2311 112.694 78.4055L179.412 112.45C179.856 112.677 180.404 112.677 180.848 112.45L204.65 100.311C204.991 100.137 204.991 99.7009 204.649 99.5266Z" fill="#ADB1F2"/>
<path d="M204.649 100.312L204.41 100.434L137.901 66.4957C137.456 66.2688 136.907 66.2688 136.462 66.4962L112.933 78.5282L112.694 78.4064C112.352 78.2321 112.352 77.7969 112.693 77.6219L136.462 65.4675C136.907 65.2401 137.456 65.2401 137.901 65.467L204.649 99.5276C204.99 99.7013 204.99 100.138 204.649 100.312Z" fill="#9198DB"/>
<path d="M118.913 76.793L177.063 106.466L174.759 107.641L116.609 77.9683L118.913 76.793Z" fill="#24126A"/>
<path d="M125.037 73.667L180.308 101.87L178.004 103.045L122.734 74.8423L125.037 73.667Z" fill="#24126A"/>
<path d="M184.436 103.976L189.598 106.61L187.295 107.786L182.133 105.151L184.436 103.976Z" fill="#24126A"/>
<path d="M179.881 107.902L183.475 109.736L181.172 110.912L177.578 109.078L179.881 107.902Z" fill="#24126A"/>
<path d="M128.874 71.707L193.433 104.651L191.13 105.826L126.57 72.8829L128.874 71.707Z" fill="#24126A"/>
<path d="M132.71 69.749L197.269 102.692L194.966 103.868L130.406 70.9243L132.71 69.749Z" fill="#24126A"/>
<path d="M136.554 67.79L201.113 100.734L198.81 101.909L134.25 68.9659L136.554 67.79Z" fill="#24126A"/>
</g>
</g>
<path opacity="0.42" d="M138.531 115.088L155.835 105.677L116.93 85.8252L98.5703 96.7327L138.531 115.088Z" fill="url(#paint8_radial_473_10813)"/>
<path opacity="0.42" d="M155.826 105.675L159.791 83.5457L123.281 65.0361V89.0234L155.826 105.675Z" fill="url(#paint9_radial_473_10813)"/>
<path d="M119.469 54.286L123.331 52.3198V52.3227C123.382 52.2932 123.45 52.2915 123.524 52.3296L171.922 77.0263C172.08 77.1072 172.208 77.3231 172.208 77.5095V85.5844C172.208 85.6738 172.178 85.7385 172.129 85.7743L172.131 85.7748L172.127 85.7766C172.123 85.7795 172.119 85.7806 172.116 85.7824L168.214 87.7687L168.184 83.8676L123.525 61.0793C123.367 60.9985 123.239 60.7826 123.239 60.5961V57.8246L119.469 54.286Z" fill="url(#paint10_linear_473_10813)"/>
<path d="M119.645 63.054L168.044 87.7501C168.202 87.831 168.33 87.7449 168.33 87.5591V79.4842C168.33 79.2983 168.202 79.0819 168.044 79.001L119.645 54.3049C119.487 54.2241 119.359 54.3095 119.359 54.496V62.5714C119.359 62.7573 119.487 62.9737 119.645 63.054Z" fill="url(#paint11_linear_473_10813)"/>
<path opacity="0.6" d="M126.323 61.4189L164.008 81.0028C162.843 81.8889 161.74 82.9037 160.728 84.0167L122.766 64.6453C123.858 63.4429 125.056 62.3535 126.323 61.4189Z" fill="#24126A"/>
<path d="M121.023 60.6292L166.66 83.9162C166.768 83.9711 166.855 83.9128 166.855 83.7858V81.7572C166.855 81.6297 166.768 81.4819 166.66 81.427L121.023 58.14C120.916 58.0846 120.828 58.1435 120.828 58.2705V60.299C120.827 60.4266 120.916 60.5743 121.023 60.6292Z" fill="#24126A"/>
<path d="M121.023 58.1401L121.952 58.6135V59.7085C121.952 59.8361 122.039 59.9839 122.147 60.0387L166.855 82.8524V83.7859C166.855 83.9134 166.768 83.9717 166.66 83.9163L121.023 60.6287C120.916 60.5733 120.828 60.4255 120.828 60.2985V58.27C120.827 58.143 120.916 58.0847 121.023 58.1401Z" fill="#453C9E"/>
<path opacity="0.96" d="M95.3879 148.004L57.4219 128.631C62.3198 126.132 66.4477 120.662 67.7089 115.431C68.2203 113.311 69.6879 111.47 71.812 110.386L100.501 95.7485C108.492 91.6712 113.672 84.3307 114.215 76.19C114.673 69.3165 120.553 62.5566 125.116 60.2285L163.083 79.6017C158.587 81.8957 153.637 88.3069 153.074 95.0638C152.396 103.204 147.386 110.572 139.388 114.652L109.779 129.76C107.655 130.844 106.187 132.685 105.676 134.805C104.414 140.035 100.286 145.504 95.3879 148.004Z" fill="url(#paint12_linear_473_10813)"/>
<g opacity="0.32">
<path d="M137.062 84.6236L141.983 87.1341V86.6492L137.062 84.1387V84.6236Z" fill="#4553C7"/>
<path d="M134.539 83.3339L136.311 84.2379V83.7536L134.539 82.8496V83.3339Z" fill="#4553C7"/>
<path d="M132.578 82.3369L133.782 82.9511V82.4668L132.578 81.8525V82.3369Z" fill="#4553C7"/>
<path d="M139.297 86.8716L141.977 88.2392V87.7548L139.297 86.3867V86.8716Z" fill="#4553C7"/>
<path d="M135.266 84.8105L138.551 86.4869V86.0026L135.266 84.3262V84.8105Z" fill="#4553C7"/>
<path d="M133.312 83.814L134.516 84.4282V83.9433L133.312 83.3291V83.814Z" fill="#4553C7"/>
<path d="M131.453 82.8648L132.657 83.479V82.9941L131.453 82.3799V82.8648Z" fill="#4553C7"/>
<path d="M140.047 88.3574L141.986 89.3474V88.8625L140.047 87.873V88.3574Z" fill="#4553C7"/>
<path d="M138.625 87.6343L139.288 87.9726V87.4877L138.625 87.1494V87.6343Z" fill="#4553C7"/>
<path d="M136.672 86.6367L137.876 87.2509V86.7666L136.672 86.1523V86.6367Z" fill="#4553C7"/>
<path d="M134.828 86.7994L141.987 90.4523V89.968L134.828 86.3145V86.7994Z" fill="#4553C7"/>
<path d="M132.297 85.5117L134.068 86.4157V85.9313L132.297 85.0273V85.5117Z" fill="#4553C7"/>
<path d="M140.047 90.5693L141.986 91.5593V91.0744L140.047 90.085V90.5693Z" fill="#4553C7"/>
<path d="M135.492 88.247L139.293 90.1866V89.7017L135.492 87.7627V88.247Z" fill="#4553C7"/>
<path d="M133.539 87.2486L134.743 87.8628V87.3779L133.539 86.7637V87.2486Z" fill="#4553C7"/>
<path d="M138.016 90.6425L141.984 92.6676V92.1833L138.016 90.1582V90.6425Z" fill="#4553C7"/>
<path d="M134.391 88.7945L137.261 90.2584V89.7741L134.391 88.3096V88.7945Z" fill="#4553C7"/>
<path d="M131.703 87.4214L133.642 88.4109V87.9265L131.703 86.9365V87.4214Z" fill="#4553C7"/>
<path d="M140.641 93.0894L141.981 93.7729V93.2886L140.641 92.6045V93.0894Z" fill="#4553C7"/>
<path d="M138.125 91.8027L139.896 92.7067V92.2224L138.125 91.3184V91.8027Z" fill="#4553C7"/>
<path d="M134.516 89.9634L137.37 91.4199V90.9355L134.516 89.4785V89.9634Z" fill="#4553C7"/>
<path d="M137.875 92.7847L141.981 94.8796V94.3947L137.875 92.2998V92.7847Z" fill="#4553C7"/>
<path d="M133.273 90.4394L137.12 92.4027V91.9184L133.273 89.9551V90.4394Z" fill="#4553C7"/>
<path d="M131.328 89.44L132.532 90.0542V89.5699L131.328 88.9551V89.44Z" fill="#4553C7"/>
<path d="M129.445 88.4814L130.649 89.0956V88.6113L129.445 87.9971V88.4814Z" fill="#4553C7"/>
<path d="M139.523 94.731L141.983 95.986V95.5017L139.523 94.2461V94.731Z" fill="#4553C7"/>
<path d="M127.083 79.5291L123.672 77.7886V77.3037L127.083 79.0447V79.5291Z" fill="#4553C7"/>
<path d="M126.352 80.2646L123.672 78.8964V78.4121L126.352 79.7797V80.2646Z" fill="#4553C7"/>
<path d="M125.612 80.9909L123.672 80.0009V79.5166L125.612 80.5066V80.9909Z" fill="#4553C7"/>
<path d="M126.493 82.549L123.672 81.1093V80.625L126.493 82.0641V82.549Z" fill="#4553C7"/>
<path d="M125.612 83.2058L123.672 82.2158V81.7314L125.612 82.7209V83.2058Z" fill="#4553C7"/>
<path d="M126.132 84.5768L123.672 83.3218V82.8369L126.132 84.0925V84.5768Z" fill="#4553C7"/>
<path d="M125.012 85.1127L123.672 84.4287V83.9443L125.012 84.6284V85.1127Z" fill="#4553C7"/>
<path d="M126.269 86.8621L123.672 85.5367V85.0518L126.269 86.3772V86.8621Z" fill="#4553C7"/>
<path d="M126.132 87.9L123.672 86.6445V86.1602L126.132 87.4151V87.9Z" fill="#4553C7"/>
<path d="M137.727 93.815L138.773 94.3484V93.8641L137.727 93.3301V93.815Z" fill="#4553C7"/>
<path d="M134.625 92.23L136.98 93.4313V92.947L134.625 91.7451V92.23Z" fill="#4553C7"/>
</g>
<path opacity="0.8" d="M125.121 60.2275L163.087 79.6007C162.782 79.756 162.481 79.9245 162.183 80.0989L162.18 80.0971L124.219 60.7246C124.517 60.5502 124.817 60.3822 125.121 60.2275Z" fill="#453C9E"/>
<path d="M88.7422 76.9551H100.853V99.8172C100.853 100.608 100.262 101.399 99.0795 102.002C96.7145 103.209 92.8805 103.209 90.5155 102.002C89.3333 101.399 88.7415 100.608 88.7422 99.8172V76.9551Z" fill="url(#paint13_linear_473_10813)"/>
<path d="M88.7422 76.9551H100.853V99.8172C100.853 100.608 100.262 101.399 99.0795 102.002C96.7145 103.209 92.8805 103.209 90.5155 102.002C89.3333 101.399 88.7415 100.608 88.7422 99.8172V76.9551Z" fill="url(#paint14_linear_473_10813)"/>
<path d="M90.516 79.1391C92.881 80.3456 96.715 80.3456 99.08 79.1391C101.445 77.9326 101.445 75.9756 99.08 74.7691C96.715 73.5626 92.881 73.5626 90.516 74.7691C88.1509 75.9756 88.1509 77.9326 90.516 79.1391Z" fill="url(#paint15_linear_473_10813)"/>
<path opacity="0.3" d="M92.0357 78.3651C93.5621 79.1444 96.0375 79.1439 97.5645 78.3651C99.0909 77.5858 99.0909 76.3227 97.5645 75.544C96.0381 74.7653 93.5627 74.7653 92.0357 75.544C90.5086 76.3227 90.5093 77.5858 92.0357 78.3651Z" fill="url(#paint16_linear_473_10813)"/>
<path opacity="0.5" d="M90.5171 78.9099C92.8821 80.1164 96.716 80.1164 99.0811 78.9099C100.206 78.3355 100.79 77.592 100.844 76.8398C100.904 77.6688 100.321 78.507 99.0811 79.1397C96.716 80.3467 92.8821 80.3467 90.5171 79.1397C89.2774 78.507 88.6941 77.6688 88.7542 76.8398C88.8084 77.5914 89.3917 78.3355 90.5171 78.9099Z" fill="white"/>
<path d="M88.7422 71.9873H100.853V74.0753C100.853 74.8661 100.262 75.657 99.0795 76.2602C96.7145 77.4667 92.8805 77.4673 90.5155 76.2602C89.3333 75.657 88.7415 74.8661 88.7422 74.0753V71.9873Z" fill="url(#paint17_linear_473_10813)"/>
<path d="M88.7422 71.9873H100.853V74.0753C100.853 74.8661 100.262 75.657 99.0795 76.2602C96.7145 77.4667 92.8805 77.4673 90.5155 76.2602C89.3333 75.657 88.7415 74.8661 88.7422 74.0753V71.9873Z" fill="url(#paint18_linear_473_10813)"/>
<path d="M90.516 74.1713C92.881 75.3778 96.715 75.3778 99.08 74.1713C101.445 72.9648 101.445 71.0078 99.08 69.8014C96.715 68.5949 92.881 68.5949 90.516 69.8014C88.1509 71.0078 88.1509 72.9648 90.516 74.1713Z" fill="url(#paint19_linear_473_10813)"/>
<path opacity="0.5" d="M90.5171 73.9418C92.8821 75.1483 96.716 75.1483 99.0811 73.9418C100.206 73.3674 100.79 72.6233 100.844 71.8711C100.904 72.6995 100.321 73.5383 99.0811 74.1709C96.716 75.3774 92.8821 75.378 90.5171 74.1709C89.2774 73.5383 88.6941 72.7001 88.7542 71.8711C88.8084 72.6233 89.3917 73.3674 90.5171 73.9418Z" fill="white"/>
<path d="M98.7507 89.6777H110.862V104.92C110.862 105.711 110.271 106.502 109.088 107.105C106.723 108.311 102.889 108.312 100.524 107.105C99.3418 106.502 98.75 105.711 98.75 104.92V89.6777H98.7507Z" fill="url(#paint20_linear_473_10813)"/>
<path d="M98.7507 89.6777H110.862V104.92C110.862 105.711 110.271 106.502 109.088 107.105C106.723 108.311 102.889 108.312 100.524 107.105C99.3418 106.502 98.75 105.711 98.75 104.92V89.6777H98.7507Z" fill="url(#paint21_linear_473_10813)"/>
<path d="M104.806 92.7681C108.151 92.7681 110.862 91.3846 110.862 89.678C110.862 87.9714 108.151 86.5879 104.806 86.5879C101.461 86.5879 98.75 87.9714 98.75 89.678C98.75 91.3846 101.461 92.7681 104.806 92.7681Z" fill="url(#paint22_linear_473_10813)"/>
<path opacity="0.5" d="M100.517 91.6332C102.882 92.8397 106.716 92.8397 109.081 91.6332C110.206 91.0588 110.79 90.3147 110.844 89.5625C110.904 90.3915 110.321 91.2297 109.081 91.8623C106.716 93.0688 102.882 93.0694 100.517 91.8623C99.2774 91.2297 98.6941 90.3915 98.7542 89.5625C98.8084 90.3153 99.3917 91.0594 100.517 91.6332Z" fill="white"/>
<path d="M108.774 86.9775H120.885V110.025C120.885 110.816 120.294 111.607 119.111 112.21C116.746 113.417 112.912 113.417 110.547 112.21C109.365 111.607 108.773 110.816 108.773 110.025V86.9775H108.774Z" fill="url(#paint23_linear_473_10813)"/>
<path d="M108.774 86.9775H120.885V110.025C120.885 110.816 120.294 111.607 119.111 112.21C116.746 113.417 112.912 113.417 110.547 112.21C109.365 111.607 108.773 110.816 108.773 110.025V86.9775H108.774Z" fill="url(#paint24_linear_473_10813)"/>
<path d="M110.547 89.1615C112.912 90.368 116.746 90.368 119.111 89.1615C121.476 87.9544 121.476 85.9981 119.111 84.7916C116.746 83.5851 112.912 83.5851 110.547 84.7916C108.182 85.9981 108.182 87.9544 110.547 89.1615Z" fill="url(#paint25_linear_473_10813)"/>
<path opacity="0.5" d="M110.548 88.932C112.913 90.1385 116.747 90.1385 119.112 88.932C120.238 88.3576 120.821 87.6135 120.875 86.8613C120.935 87.6903 120.352 88.5285 119.112 89.1612C116.747 90.3677 112.913 90.3677 110.548 89.1612C109.309 88.5285 108.725 87.6903 108.785 86.8613C108.84 87.6141 109.423 88.3582 110.548 88.932Z" fill="white"/>
<path d="M118.782 96.2363H130.893V115.129C130.893 115.919 130.302 116.71 129.119 117.314C126.754 118.521 122.92 118.521 120.555 117.314C119.373 116.71 118.781 115.919 118.781 115.129V96.2363H118.782Z" fill="url(#paint26_linear_473_10813)"/>
<path d="M118.782 96.2363H130.893V115.129C130.893 115.919 130.302 116.71 129.119 117.314C126.754 118.521 122.92 118.521 120.555 117.314C119.373 116.71 118.781 115.919 118.781 115.129V96.2363H118.782Z" fill="url(#paint27_linear_473_10813)"/>
<path d="M120.555 98.4213C122.92 99.6278 126.754 99.6278 129.119 98.4213C131.484 97.2148 131.484 95.2578 129.119 94.0514C126.754 92.8449 122.92 92.8449 120.555 94.0514C118.19 95.2578 118.19 97.2142 120.555 98.4213Z" fill="url(#paint28_linear_473_10813)"/>
<path opacity="0.5" d="M120.548 98.1902C122.913 99.3967 126.747 99.3967 129.112 98.1902C130.238 97.6158 130.821 96.8717 130.875 96.1201C130.935 96.9485 130.352 97.7873 129.112 98.4199C126.747 99.6264 122.913 99.627 120.548 98.4199C119.309 97.7873 118.725 96.9491 118.785 96.1201C118.84 96.8723 119.424 97.6164 120.548 98.1902Z" fill="white"/>
<path d="M128.797 105.997H140.908V120.232C140.908 121.023 140.317 121.814 139.134 122.417C136.769 123.623 132.935 123.624 130.57 122.417C129.388 121.814 128.797 121.023 128.797 120.232V105.997Z" fill="url(#paint29_linear_473_10813)"/>
<path d="M128.797 105.997H140.908V120.232C140.908 121.023 140.317 121.814 139.134 122.417C136.769 123.623 132.935 123.624 130.57 122.417C129.388 121.814 128.797 121.023 128.797 120.232V105.997Z" fill="url(#paint30_linear_473_10813)"/>
<path d="M130.571 108.181C132.936 109.388 136.77 109.388 139.135 108.181C141.5 106.975 141.5 105.018 139.135 103.811C136.77 102.605 132.936 102.605 130.571 103.811C128.206 105.018 128.206 106.975 130.571 108.181Z" fill="url(#paint31_linear_473_10813)"/>
<path opacity="0.5" d="M130.564 107.952C132.929 109.158 136.763 109.158 139.128 107.952C140.253 107.377 140.837 106.633 140.891 105.881C140.951 106.71 140.368 107.548 139.128 108.181C136.763 109.388 132.929 109.388 130.564 108.181C129.324 107.548 128.741 106.71 128.801 105.881C128.855 106.634 129.439 107.377 130.564 107.952Z" fill="white"/>
<path d="M183.344 67.6264L184.514 68.2845L184.653 67.5214L183.482 66.8633L183.344 67.6264Z" fill="#262626"/>
<path d="M182.406 72.7929L183.576 73.451L184.388 68.9817L183.217 68.3242L182.406 72.7929Z" fill="#262626"/>
<path d="M181.953 75.2622L183.124 75.9203L183.446 74.1458L182.276 73.4883L181.953 75.2622Z" fill="#262626"/>
<path d="M181.5 77.8218L182.67 78.4799L182.992 76.7059L181.822 76.0479L181.5 77.8218Z" fill="#262626"/>
<path d="M181.156 69.1157L182.326 69.7738L182.649 67.9999L181.478 67.3418L181.156 69.1157Z" fill="#262626"/>
<path d="M180.531 72.5076L181.702 73.1656L182.175 70.5604L181.004 69.9023L180.531 72.5076Z" fill="#262626"/>
<path d="M179.969 75.6301L181.139 76.2876L181.545 74.053L180.375 73.3955L179.969 75.6301Z" fill="#262626"/>
<path d="M181.031 80.3843L182.201 81.0424L182.523 79.2684L181.353 78.6104L181.031 80.3843Z" fill="#262626"/>
<path d="M181.602 66.6465L182.771 67.3046L182.91 66.5409L181.74 65.8828L181.602 66.6465Z" fill="#262626"/>
<path d="M179.711 82.3779L181.753 83.5267L181.888 82.7855L179.845 81.6367L179.711 82.3779Z" fill="#262626"/>
<defs>
<linearGradient id="paint0_linear_473_10813" x1="266.828" y1="-367.623" x2="266.828" y2="312.377" gradientUnits="userSpaceOnUse">
<stop stop-color="#FFF0BC"/>
<stop offset="1" stop-color="#CFC2FF"/>
</linearGradient>
<linearGradient id="paint1_linear_473_10813" x1="195.001" y1="70.1042" x2="101.258" y2="70.1042" gradientUnits="userSpaceOnUse">
<stop stop-color="#C0BFF6"/>
<stop offset="0.2938" stop-color="#C5C4F7"/>
<stop offset="0.6399" stop-color="#D3D2F9"/>
<stop offset="1" stop-color="#E9E9FD"/>
</linearGradient>
<linearGradient id="paint2_linear_473_10813" x1="195.002" y1="91.3515" x2="178.906" y2="91.3515" gradientUnits="userSpaceOnUse">
<stop stop-color="#5761D7"/>
<stop offset="0.1779" stop-color="#5C66D9"/>
<stop offset="0.3876" stop-color="#6A73DF"/>
<stop offset="0.6134" stop-color="#8289E8"/>
<stop offset="0.849" stop-color="#A3A7F5"/>
<stop offset="1" stop-color="#BCBEFF"/>
</linearGradient>
<linearGradient id="paint3_linear_473_10813" x1="182.443" y1="115.237" x2="50.0471" y2="115.237" gradientUnits="userSpaceOnUse">
<stop stop-color="#5761D7"/>
<stop offset="0.1779" stop-color="#5C66D9"/>
<stop offset="0.3876" stop-color="#6A73DF"/>
<stop offset="0.6134" stop-color="#8289E8"/>
<stop offset="0.849" stop-color="#A3A7F5"/>
<stop offset="1" stop-color="#BCBEFF"/>
</linearGradient>
<linearGradient id="paint4_linear_473_10813" x1="137.953" y1="111.335" x2="5.48649" y2="111.335" gradientUnits="userSpaceOnUse">
<stop stop-color="#C0BFF6"/>
<stop offset="0.2938" stop-color="#C5C4F7"/>
<stop offset="0.6399" stop-color="#D3D2F9"/>
<stop offset="1" stop-color="#E9E9FD"/>
</linearGradient>
<linearGradient id="paint5_linear_473_10813" x1="115.517" y1="117.981" x2="81.6095" y2="117.981" gradientUnits="userSpaceOnUse">
<stop stop-color="#C0BFF6"/>
<stop offset="0.2938" stop-color="#C5C4F7"/>
<stop offset="0.6399" stop-color="#D3D2F9"/>
<stop offset="1" stop-color="#E9E9FD"/>
</linearGradient>
<linearGradient id="paint6_linear_473_10813" x1="188.547" y1="85.3882" x2="56.0803" y2="85.3882" gradientUnits="userSpaceOnUse">
<stop stop-color="#C0BFF6"/>
<stop offset="0.2938" stop-color="#C5C4F7"/>
<stop offset="0.6399" stop-color="#D3D2F9"/>
<stop offset="1" stop-color="#E9E9FD"/>
</linearGradient>
<linearGradient id="paint7_linear_473_10813" x1="197.267" y1="76.7938" x2="163.36" y2="76.7938" gradientUnits="userSpaceOnUse">
<stop stop-color="#C0BFF6"/>
<stop offset="0.2938" stop-color="#C5C4F7"/>
<stop offset="0.6399" stop-color="#D3D2F9"/>
<stop offset="1" stop-color="#E9E9FD"/>
</linearGradient>
<radialGradient id="paint8_radial_473_10813" cx="0" cy="0" r="1" gradientUnits="userSpaceOnUse" gradientTransform="translate(143.857 100.457) rotate(180) scale(37.9754 33.5638)">
<stop stop-color="#2B237C"/>
<stop offset="1" stop-color="#180D5B"/>
</radialGradient>
<radialGradient id="paint9_radial_473_10813" cx="0" cy="0" r="1" gradientUnits="userSpaceOnUse" gradientTransform="translate(152.154 85.3555) rotate(180) scale(29.0679 25.6911)">
<stop stop-color="#2B237C"/>
<stop offset="1" stop-color="#180D5B"/>
</radialGradient>
<linearGradient id="paint10_linear_473_10813" x1="162.627" y1="92.7726" x2="141.538" y2="49.8058" gradientUnits="userSpaceOnUse">
<stop stop-color="#5761D7"/>
<stop offset="0.0398" stop-color="#5C66D9"/>
<stop offset="0.0867" stop-color="#6A73DF"/>
<stop offset="0.1372" stop-color="#8289E8"/>
<stop offset="0.1899" stop-color="#A3A7F5"/>
<stop offset="0.2237" stop-color="#BCBEFF"/>
</linearGradient>
<linearGradient id="paint11_linear_473_10813" x1="131.175" y1="92.917" x2="145.122" y2="62.0702" gradientUnits="userSpaceOnUse">
<stop stop-color="#C0BFF6"/>
<stop offset="0.2938" stop-color="#C5C4F7"/>
<stop offset="0.6399" stop-color="#D3D2F9"/>
<stop offset="1" stop-color="#E9E9FD"/>
</linearGradient>
<linearGradient id="paint12_linear_473_10813" x1="85.1094" y1="145.85" x2="129.784" y2="56.2866" gradientUnits="userSpaceOnUse">
<stop stop-color="#C0BFF6"/>
<stop offset="0.0775" stop-color="#C3C2F6"/>
<stop offset="0.1329" stop-color="#CCCBF8"/>
<stop offset="0.1813" stop-color="#DBDBFB"/>
<stop offset="0.2117" stop-color="#E9E9FD"/>
<stop offset="0.2579" stop-color="#D8D7FA"/>
<stop offset="0.3159" stop-color="#CACAF8"/>
<stop offset="0.3878" stop-color="#C2C1F6"/>
<stop offset="0.5143" stop-color="#C0BFF6"/>
<stop offset="0.6217" stop-color="#D0CFF9"/>
<stop offset="0.755" stop-color="#E9E9FD"/>
<stop offset="1" stop-color="#C0BFF6"/>
</linearGradient>
<linearGradient id="paint13_linear_473_10813" x1="100.854" y1="89.9313" x2="88.8113" y2="89.9313" gradientUnits="userSpaceOnUse">
<stop stop-color="#C0BFF6"/>
<stop offset="0.488" stop-color="#D2D1F9"/>
<stop offset="1" stop-color="#E9E9FD"/>
</linearGradient>
<linearGradient id="paint14_linear_473_10813" x1="114.349" y1="89.9313" x2="91.0778" y2="89.9313" gradientUnits="userSpaceOnUse">
<stop stop-color="#5761D7"/>
<stop offset="0.1779" stop-color="#5C66D9"/>
<stop offset="0.3876" stop-color="#6A73DF"/>
<stop offset="0.6134" stop-color="#8289E8"/>
<stop offset="0.849" stop-color="#A3A7F5"/>
<stop offset="1" stop-color="#BCBEFF"/>
</linearGradient>
<linearGradient id="paint15_linear_473_10813" x1="99.0799" y1="74.769" x2="95.5411" y2="81.7036" gradientUnits="userSpaceOnUse">
<stop stop-color="#C0BFF6"/>
<stop offset="0.2938" stop-color="#C5C4F7"/>
<stop offset="0.6399" stop-color="#D3D2F9"/>
<stop offset="1" stop-color="#E9E9FD"/>
</linearGradient>
<linearGradient id="paint16_linear_473_10813" x1="97.5645" y1="75.5437" x2="95.2801" y2="80.0204" gradientUnits="userSpaceOnUse">
<stop stop-color="#5761D7"/>
<stop offset="0.1779" stop-color="#5C66D9"/>
<stop offset="0.3876" stop-color="#6A73DF"/>
<stop offset="0.6134" stop-color="#8289E8"/>
<stop offset="0.849" stop-color="#A3A7F5"/>
<stop offset="1" stop-color="#BCBEFF"/>
</linearGradient>
<linearGradient id="paint17_linear_473_10813" x1="100.854" y1="74.5764" x2="88.8113" y2="74.5764" gradientUnits="userSpaceOnUse">
<stop stop-color="#C0BFF6"/>
<stop offset="0.488" stop-color="#D2D1F9"/>
<stop offset="1" stop-color="#E9E9FD"/>
</linearGradient>
<linearGradient id="paint18_linear_473_10813" x1="114.349" y1="74.5764" x2="91.0778" y2="74.5764" gradientUnits="userSpaceOnUse">
<stop stop-color="#5761D7"/>
<stop offset="0.1779" stop-color="#5C66D9"/>
<stop offset="0.3876" stop-color="#6A73DF"/>
<stop offset="0.6134" stop-color="#8289E8"/>
<stop offset="0.849" stop-color="#A3A7F5"/>
<stop offset="1" stop-color="#BCBEFF"/>
</linearGradient>
<linearGradient id="paint19_linear_473_10813" x1="99.0798" y1="69.8012" x2="95.5411" y2="76.7359" gradientUnits="userSpaceOnUse">
<stop stop-color="#C0BFF6"/>
<stop offset="0.2938" stop-color="#C5C4F7"/>
<stop offset="0.6399" stop-color="#D3D2F9"/>
<stop offset="1" stop-color="#E9E9FD"/>
</linearGradient>
<linearGradient id="paint20_linear_473_10813" x1="110.862" y1="98.8436" x2="98.82" y2="98.8436" gradientUnits="userSpaceOnUse">
<stop stop-color="#C0BFF6"/>
<stop offset="0.488" stop-color="#D2D1F9"/>
<stop offset="1" stop-color="#E9E9FD"/>
</linearGradient>
<linearGradient id="paint21_linear_473_10813" x1="124.358" y1="98.8436" x2="101.086" y2="98.8436" gradientUnits="userSpaceOnUse">
<stop stop-color="#5761D7"/>
<stop offset="0.1779" stop-color="#5C66D9"/>
<stop offset="0.3876" stop-color="#6A73DF"/>
<stop offset="0.6134" stop-color="#8289E8"/>
<stop offset="0.849" stop-color="#A3A7F5"/>
<stop offset="1" stop-color="#BCBEFF"/>
</linearGradient>
<linearGradient id="paint22_linear_473_10813" x1="109.088" y1="87.4927" x2="105.549" y2="94.4272" gradientUnits="userSpaceOnUse">
<stop stop-color="#C0BFF6"/>
<stop offset="0.2938" stop-color="#C5C4F7"/>
<stop offset="0.6399" stop-color="#D3D2F9"/>
<stop offset="1" stop-color="#E9E9FD"/>
</linearGradient>
<linearGradient id="paint23_linear_473_10813" x1="120.885" y1="100.046" x2="108.843" y2="100.046" gradientUnits="userSpaceOnUse">
<stop stop-color="#C0BFF6"/>
<stop offset="0.488" stop-color="#D2D1F9"/>
<stop offset="1" stop-color="#E9E9FD"/>
</linearGradient>
<linearGradient id="paint24_linear_473_10813" x1="134.381" y1="100.046" x2="111.109" y2="100.046" gradientUnits="userSpaceOnUse">
<stop stop-color="#5761D7"/>
<stop offset="0.1779" stop-color="#5C66D9"/>
<stop offset="0.3876" stop-color="#6A73DF"/>
<stop offset="0.6134" stop-color="#8289E8"/>
<stop offset="0.849" stop-color="#A3A7F5"/>
<stop offset="1" stop-color="#BCBEFF"/>
</linearGradient>
<linearGradient id="paint25_linear_473_10813" x1="119.111" y1="84.7912" x2="115.573" y2="91.7259" gradientUnits="userSpaceOnUse">
<stop stop-color="#C0BFF6"/>
<stop offset="0.2938" stop-color="#C5C4F7"/>
<stop offset="0.6399" stop-color="#D3D2F9"/>
<stop offset="1" stop-color="#E9E9FD"/>
</linearGradient>
<linearGradient id="paint26_linear_473_10813" x1="130.893" y1="107.228" x2="118.851" y2="107.228" gradientUnits="userSpaceOnUse">
<stop stop-color="#C0BFF6"/>
<stop offset="0.488" stop-color="#D2D1F9"/>
<stop offset="1" stop-color="#E9E9FD"/>
</linearGradient>
<linearGradient id="paint27_linear_473_10813" x1="144.389" y1="107.228" x2="121.117" y2="107.228" gradientUnits="userSpaceOnUse">
<stop stop-color="#5761D7"/>
<stop offset="0.1779" stop-color="#5C66D9"/>
<stop offset="0.3876" stop-color="#6A73DF"/>
<stop offset="0.6134" stop-color="#8289E8"/>
<stop offset="0.849" stop-color="#A3A7F5"/>
<stop offset="1" stop-color="#BCBEFF"/>
</linearGradient>
<linearGradient id="paint28_linear_473_10813" x1="129.119" y1="94.0509" x2="125.58" y2="100.986" gradientUnits="userSpaceOnUse">
<stop stop-color="#C0BFF6"/>
<stop offset="0.2938" stop-color="#C5C4F7"/>
<stop offset="0.6399" stop-color="#D3D2F9"/>
<stop offset="1" stop-color="#E9E9FD"/>
</linearGradient>
<linearGradient id="paint29_linear_473_10813" x1="140.908" y1="114.66" x2="128.866" y2="114.66" gradientUnits="userSpaceOnUse">
<stop stop-color="#C0BFF6"/>
<stop offset="0.488" stop-color="#D2D1F9"/>
<stop offset="1" stop-color="#E9E9FD"/>
</linearGradient>
<linearGradient id="paint30_linear_473_10813" x1="154.404" y1="114.66" x2="131.133" y2="114.66" gradientUnits="userSpaceOnUse">
<stop stop-color="#5761D7"/>
<stop offset="0.1779" stop-color="#5C66D9"/>
<stop offset="0.3876" stop-color="#6A73DF"/>
<stop offset="0.6134" stop-color="#8289E8"/>
<stop offset="0.849" stop-color="#A3A7F5"/>
<stop offset="1" stop-color="#BCBEFF"/>
</linearGradient>
<linearGradient id="paint31_linear_473_10813" x1="139.135" y1="103.811" x2="135.596" y2="110.746" gradientUnits="userSpaceOnUse">
<stop stop-color="#C0BFF6"/>
<stop offset="0.2938" stop-color="#C5C4F7"/>
<stop offset="0.6399" stop-color="#D3D2F9"/>
<stop offset="1" stop-color="#E9E9FD"/>
</linearGradient>
</defs>
</svg>
