<svg width="116" height="205" viewBox="0 0 116 205" fill="none" xmlns="http://www.w3.org/2000/svg">
<path d="M75.9167 35.1701L75.3677 34.0753C87.7164 28.1538 101.3 25.0897 115.061 25.1213L115.061 26.3379C101.49 26.3035 88.0931 29.3261 75.9167 35.1701Z" fill="black" fill-opacity="0.4"/>
<path d="M113.659 204.976C107.447 204.88 101.261 204.144 95.2003 202.779C94.642 202.643 94.0714 202.518 93.5131 202.382C88.4089 201.129 83.4269 199.422 78.6268 197.281C77.4276 196.752 76.2367 196.193 75.0541 195.606C74.4959 195.32 73.9376 195.035 73.3794 194.737C66.7143 191.239 60.513 186.92 54.9203 181.88C54.3497 181.371 53.8039 180.838 53.258 180.316C38.0857 165.989 28.3786 146.82 25.8066 126.106C23.2346 105.393 27.9585 84.43 39.1657 66.8242L40.2077 67.4943C29.2667 84.6874 24.5902 105.13 26.9678 125.372C29.3453 145.615 38.6312 164.416 53.258 178.604C53.8039 179.137 54.3497 179.671 54.9203 180.192C60.4917 185.341 66.6944 189.762 73.3794 193.347C73.9376 193.645 74.4959 193.918 75.0541 194.204C76.0217 194.7 76.9893 195.171 77.9693 195.618C79.2347 196.214 80.5248 196.772 81.8398 197.294C85.6355 198.846 89.5364 200.128 93.5131 201.128C94.0714 201.265 94.642 201.389 95.2003 201.513C101.258 202.903 107.445 203.652 113.659 203.747C114.131 203.747 114.59 203.747 115.061 203.747L115.061 204.988C114.59 205.013 114.131 204.988 113.659 204.976Z" fill="black" fill-opacity="0.4"/>
<path d="M115.062 187.871C114.59 187.867 114.12 187.825 113.656 187.746C111.804 187.414 110.125 186.447 108.909 185.011C107.692 183.576 107.012 181.761 106.987 179.879C103.041 179.411 99.1464 178.577 95.354 177.389C93.7739 176.891 92.2312 176.319 90.7133 175.709C85.0584 173.422 79.7489 170.36 74.9373 166.609C74.365 166.161 73.8051 165.701 73.2577 165.24C70.3272 162.793 67.617 160.094 65.1582 157.174C64.6854 156.626 64.2251 156.066 63.7772 155.493C60.0736 150.804 57.0341 145.627 54.7446 140.107C54.1349 138.663 53.5751 137.182 53.0774 135.688C49.7727 125.756 48.9078 115.173 50.5559 104.835C52.2039 94.4975 56.3165 84.709 62.5455 76.298C61.0108 74.818 60.1232 72.7911 60.0763 70.659C60.0294 68.5269 60.8269 66.4628 62.295 64.9167C63.7631 63.3706 65.7826 62.468 67.9132 62.4057C70.0438 62.3434 72.1125 63.1266 73.6683 64.5843C85.3267 54.9816 99.9607 49.7358 115.062 49.7461L115.062 50.9909C100.282 50.9772 85.9571 56.1037 74.5392 65.493C75.7982 67.0154 76.4559 68.9467 76.3879 70.9216C76.3199 72.8964 75.5308 74.7778 74.17 76.2098C72.8091 77.6419 70.971 78.5253 69.0031 78.6929C67.0353 78.8606 65.0742 78.3008 63.491 77.1196C56.8596 86.1108 52.6947 96.6814 51.4102 107.782C50.1256 118.882 51.766 130.125 56.1685 140.394C60.571 150.664 67.5823 159.602 76.5059 166.321C85.4296 173.04 95.955 177.307 107.037 178.696C107.307 176.768 108.263 175.002 109.731 173.724C111.199 172.445 113.078 171.74 115.024 171.738L115.024 172.983C113.209 172.983 111.469 173.704 110.186 174.988C108.902 176.272 108.181 178.013 108.181 179.829C108.181 181.645 108.902 183.387 110.186 184.67C111.469 185.954 113.209 186.676 115.024 186.676L115.024 187.921L115.062 187.871ZM68.2935 77.4183C69.6469 77.4183 70.9699 77.0168 72.0952 76.2645C73.2205 75.5122 74.0976 74.4429 74.6155 73.1918C75.1334 71.9408 75.2689 70.5642 75.0049 69.2362C74.7409 67.9081 74.0891 66.6881 73.1321 65.7306C72.1751 64.7731 70.9559 64.1211 69.6285 63.857C68.3011 63.5928 66.9252 63.7283 65.6748 64.2465C64.4245 64.7647 63.3558 65.6422 62.6039 66.7681C61.8519 67.894 61.4506 69.2177 61.4506 70.5718C61.4539 72.3866 62.1759 74.1261 63.4585 75.4094C64.7411 76.6927 66.4797 77.415 68.2935 77.4183Z" fill="black" fill-opacity="0.4"/>
<path d="M74.3618 115.063C74.3751 104.407 78.6672 94.1902 86.2968 86.6548C93.9264 79.1194 104.271 74.8803 115.06 74.8672L115.06 76.104C104.599 76.104 94.5653 80.2086 87.1677 87.5149C79.77 94.8212 75.6141 104.731 75.6141 115.063C75.6141 125.396 79.77 135.306 87.1677 142.612C94.5653 149.918 104.599 154.023 115.06 154.023L115.06 155.26C104.271 155.247 93.9264 151.007 86.2968 143.472C78.6672 135.937 74.3751 125.72 74.3618 115.063Z" fill="black" fill-opacity="0.4"/>
<path d="M115.061 129.132C111.196 129.132 107.49 127.623 104.758 124.938C102.025 122.252 100.49 118.61 100.49 114.812C100.49 111.014 102.025 107.372 104.758 104.686C107.49 102.001 111.196 100.492 115.061 100.492L115.061 129.132Z" fill="#267DFF"/>
<path d="M19.0931 165.56C19.0931 169.307 15.9437 172.344 12.0588 172.344C8.17379 172.344 5.02441 169.307 5.02441 165.56C5.02441 161.814 8.17379 158.777 12.0588 158.777C15.9437 158.777 19.0931 161.814 19.0931 165.56Z" fill="white"/>
<path d="M1.24409 114.786C1.21035 129.456 4.06306 143.989 9.64047 157.561C10.4427 157.296 11.2829 157.162 12.1283 157.164C14.1165 157.159 16.0375 157.882 17.5265 159.196C19.0155 160.51 19.9686 162.324 20.2049 164.294C20.4411 166.263 19.944 168.251 18.808 169.878C17.6719 171.506 15.9761 172.661 14.0427 173.123C12.1093 173.586 10.073 173.323 8.32068 172.386C6.56833 171.449 5.22203 169.903 4.53756 168.041C3.85308 166.179 3.87812 164.13 4.6079 162.285C5.33768 160.44 6.72136 158.927 8.49608 158.033C2.85927 144.31 -0.0270808 129.617 0.000186376 114.786C0.0363995 84.3543 12.1706 55.1789 33.7409 33.6601C55.3113 12.1412 84.5566 0.0361289 115.062 5.02951e-06L115.062 1.24094C84.8865 1.27706 55.9576 13.2515 34.6205 34.5376C13.2834 55.8237 1.28031 84.6834 1.24409 114.786ZM5.27436 165.231C5.27436 166.58 5.6756 167.9 6.42735 169.022C7.1791 170.145 8.24762 171.02 9.49774 171.536C10.7479 172.053 12.1234 172.188 13.4506 171.925C14.7777 171.661 15.9967 171.011 16.9535 170.057C17.9103 169.102 18.5619 167.886 18.8259 166.562C19.0899 165.238 18.9544 163.866 18.4366 162.619C17.9188 161.371 17.0419 160.306 15.9168 159.556C14.7917 158.806 13.469 158.405 12.1159 158.405C11.2137 158.407 10.3207 158.586 9.48815 158.933C8.65559 159.28 7.89982 159.787 7.2642 160.426C6.62859 161.064 6.12562 161.822 5.78416 162.655C5.4427 163.488 5.26945 164.38 5.27436 165.28L5.27436 165.231Z" fill="black" fill-opacity="0.4"/>
<path d="M115.062 186.41C113.196 186.41 111.407 185.695 110.088 184.423C108.768 183.151 108.027 181.426 108.027 179.627C108.027 177.828 108.768 176.103 110.088 174.831C111.407 173.558 113.196 172.844 115.062 172.844L115.062 186.41Z" fill="#00D085"/>
<path d="M74.867 70.5956C74.867 74.3418 71.8301 77.3787 68.0839 77.3787C64.3377 77.3787 61.3008 74.3418 61.3008 70.5956C61.3008 66.8494 64.3377 63.8125 68.0839 63.8125C71.8301 63.8125 74.867 66.8494 74.867 70.5956Z" fill="#9867FF"/>
</svg>
