<svg width="44" height="44" viewBox="0 0 44 44" fill="none" xmlns="http://www.w3.org/2000/svg">
<rect width="44" height="44" rx="8" fill="#F4F4F4"/>
<circle cx="22" cy="14" r="4" fill="#C49AFF"/>
<path d="M32.5 14.5V13H30.25V11.5H28.75V13H28C27.1728 13 26.5 13.6735 26.5 14.5V16C26.5 16.8273 27.1728 17.5 28 17.5H31V19H26.5V20.5H28.75V22H30.25V20.5H31C31.8272 20.5 32.5 19.8272 32.5 19V17.5C32.5 16.6735 31.8272 16 31 16H28V14.5H32.5ZM28 25V26.5H29.9395L27.25 29.1895L25.531 27.4697C25.3906 27.3293 25.2001 27.2502 25.0015 27.25H25C24.8014 27.2502 24.6109 27.3293 24.4705 27.4697L20.5 31.4395L21.5605 32.5L25.0007 29.0605L26.7197 30.7803C26.8604 30.9209 27.0511 30.9998 27.25 30.9998C27.4489 30.9998 27.6396 30.9209 27.7803 30.7803L31 27.5605V29.5H32.5V25H28ZM13 32.5H11.5V28.75C11.5 25.855 13.855 23.5 16.75 23.5H21.25C22.7417 23.5 24.1675 24.1375 25.1627 25.2498L24.0452 26.2502C23.6935 25.8569 23.2627 25.5423 22.7811 25.3268C22.2994 25.1114 21.7777 25 21.25 25H16.75C14.6823 25 13 26.6823 13 28.75V32.5ZM19 22C20.3924 22 21.7277 21.4469 22.7123 20.4623C23.6969 19.4777 24.25 18.1424 24.25 16.75C24.25 15.3576 23.6969 14.0223 22.7123 13.0377C21.7277 12.0531 20.3924 11.5 19 11.5C17.6076 11.5 16.2723 12.0531 15.2877 13.0377C14.3031 14.0223 13.75 15.3576 13.75 16.75C13.75 18.1424 14.3031 19.4777 15.2877 20.4623C16.2723 21.4469 17.6076 22 19 22ZM19 13C19.9946 13 20.9484 13.3951 21.6517 14.0983C22.3549 14.8016 22.75 15.7554 22.75 16.75C22.75 17.7446 22.3549 18.6984 21.6517 19.4017C20.9484 20.1049 19.9946 20.5 19 20.5C18.0054 20.5 17.0516 20.1049 16.3483 19.4017C15.6451 18.6984 15.25 17.7446 15.25 16.75C15.25 15.7554 15.6451 14.8016 16.3483 14.0983C17.0516 13.3951 18.0054 13 19 13Z" fill="#2E2E2E"/>
</svg>
