<svg width="44" height="44" viewBox="0 0 44 44" fill="none" xmlns="http://www.w3.org/2000/svg">
<rect x="0.5" y="0.5" width="43" height="43" rx="7.5" fill="url(#paint0_linear_853_10727)" stroke="#EAEAEA"/>
<path d="M22 12C16.486 12 12 16.486 12 22V26.143C12 27.167 12.897 28 14 28H15C15.2652 28 15.5196 27.8946 15.7071 27.7071C15.8946 27.5196 16 27.2652 16 27V21.857C16 21.5918 15.8946 21.3374 15.7071 21.1499C15.5196 20.9624 15.2652 20.857 15 20.857H14.092C14.648 16.987 17.978 14 22 14C26.022 14 29.352 16.987 29.908 20.857H29C28.7348 20.857 28.4804 20.9624 28.2929 21.1499C28.1054 21.3374 28 21.5918 28 21.857V28C28 29.103 27.103 30 26 30H24V29H20V32H26C28.206 32 30 30.206 30 28C31.103 28 32 27.167 32 26.143V22C32 16.486 27.514 12 22 12Z" fill="white"/>
<defs>
<linearGradient id="paint0_linear_853_10727" x1="-2.3375" y1="22" x2="53.075" y2="22" gradientUnits="userSpaceOnUse">
<stop stop-color="#B56AFF"/>
<stop offset="0.415" stop-color="#B56AFF"/>
<stop offset="1" stop-color="#FFE1B4"/>
</linearGradient>
</defs>
</svg>
