<svg width="44" height="44" viewBox="0 0 44 44" fill="none" xmlns="http://www.w3.org/2000/svg">
<rect x="0.5" y="0.5" width="43" height="43" rx="7.5" fill="#042440" stroke="#EAEAEA"/>
<path d="M21 27H23V21H21V27ZM22 19C22.2833 19 22.521 18.904 22.713 18.712C22.905 18.52 23.0007 18.2827 23 18C22.9993 17.7173 22.9033 17.48 22.712 17.288C22.5207 17.096 22.2833 17 22 17C21.7167 17 21.4793 17.096 21.288 17.288C21.0967 17.48 21.0007 17.7173 21 18C20.9993 18.2827 21.0953 18.5203 21.288 18.713C21.4807 18.9057 21.718 19.0013 22 19ZM22 32C20.6167 32 19.3167 31.7373 18.1 31.212C16.8833 30.6867 15.825 29.9743 14.925 29.075C14.025 28.1757 13.3127 27.1173 12.788 25.9C12.2633 24.6827 12.0007 23.3827 12 22C11.9993 20.6173 12.262 19.3173 12.788 18.1C13.314 16.8827 14.0263 15.8243 14.925 14.925C15.8237 14.0257 16.882 13.3133 18.1 12.788C19.318 12.2627 20.618 12 22 12C23.382 12 24.682 12.2627 25.9 12.788C27.118 13.3133 28.1763 14.0257 29.075 14.925C29.9737 15.8243 30.6863 16.8827 31.213 18.1C31.7397 19.3173 32.002 20.6173 32 22C31.998 23.3827 31.7353 24.6827 31.212 25.9C30.6887 27.1173 29.9763 28.1757 29.075 29.075C28.1737 29.9743 27.1153 30.687 25.9 31.213C24.6847 31.739 23.3847 32.0013 22 32ZM22 30C24.2333 30 26.125 29.225 27.675 27.675C29.225 26.125 30 24.2333 30 22C30 19.7667 29.225 17.875 27.675 16.325C26.125 14.775 24.2333 14 22 14C19.7667 14 17.875 14.775 16.325 16.325C14.775 17.875 14 19.7667 14 22C14 24.2333 14.775 26.125 16.325 27.675C17.875 29.225 19.7667 30 22 30Z" fill="white"/>
</svg>
