<svg width="44" height="44" viewBox="0 0 44 44" fill="none" xmlns="http://www.w3.org/2000/svg">
<rect width="44" height="44" rx="8" fill="#F4F4F4"/>
<g clip-path="url(#clip0_4372_24309)">
<circle cx="13" cy="23" r="4" fill="#C49AFF"/>
<path d="M25.0002 21.0002V22.9998M27.0003 21.0002H17M26 16.9998H18.0003V13.9998C18.0003 13.7347 18.1057 13.4804 18.2932 13.2928C18.4807 13.1053 18.735 13 19.0002 13H25.0002C25.2653 13 25.5196 13.1053 25.7072 13.2928C25.8947 13.4804 26 13.7347 26 13.9998V16.9998Z" stroke="#2E2E2E" stroke-width="2" stroke-linecap="round" stroke-linejoin="round"/>
<path d="M31 30.0003V18.0003C31 17.7351 30.8947 17.4807 30.7072 17.2932C30.5197 17.1056 30.2654 17.0001 30.0002 17H13.9998C13.4478 17 13 17.4478 13 18.0003V30.0003C13 30.5523 13.4478 31.0002 13.9998 31.0002H30.0002C30.5522 31.0002 31 30.5523 31 30.0003Z" stroke="#2E2E2E" stroke-width="2" stroke-linecap="round" stroke-linejoin="round"/>
</g>
<defs>
<clipPath id="clip0_4372_24309">
<rect width="24" height="24" fill="white" transform="translate(10 10)"/>
</clipPath>
</defs>
</svg>
