<svg width="874" height="284" viewBox="0 0 874 284" fill="none" xmlns="http://www.w3.org/2000/svg">
<path opacity="0.2" d="M823 1L0.999881 401.225" stroke="black"/>
<path opacity="0.2" d="M871.354 24.543L49.3534 424.768" stroke="black"/>
<path opacity="0.2" d="M919.706 48.084L97.7059 448.309" stroke="black"/>
<path opacity="0.2" d="M968.059 71.6289L146.058 471.854" stroke="black"/>
<path opacity="0.2" d="M1016.41 95.1699L194.412 495.395" stroke="black"/>
<path opacity="0.2" d="M1064.76 118.713L242.765 518.938" stroke="black"/>
<path opacity="0.2" d="M1113.12 142.256L291.117 542.481" stroke="black"/>
<path opacity="0.2" d="M1161.47 165.799L339.471 566.024" stroke="black"/>
<path opacity="0.2" d="M1209.82 189.342L387.824 589.567" stroke="black"/>
<path opacity="0.2" d="M1258.18 212.883L436.177 613.108" stroke="black"/>
<path opacity="0.2" d="M1306.53 236.426L484.53 636.651" stroke="black"/>
<path opacity="0.2" d="M1354.88 259.969L532.882 660.194" stroke="black"/>
<path opacity="0.2" d="M1403.24 283.512L581.235 683.737" stroke="black"/>
<path opacity="0.2" d="M726.294 48.084L1548.29 448.309" stroke="black"/>
<path opacity="0.2" d="M677.941 71.6289L1499.94 471.854" stroke="black"/>
<path opacity="0.2" d="M629.589 95.1699L1451.59 495.395" stroke="black"/>
<path opacity="0.2" d="M581.235 118.713L1403.24 518.938" stroke="black"/>
<path opacity="0.2" d="M532.883 142.256L1354.88 542.481" stroke="black"/>
<path opacity="0.2" d="M484.53 165.799L1306.53 566.024" stroke="black"/>
<path opacity="0.2" d="M436.177 189.342L1258.18 589.567" stroke="black"/>
<path opacity="0.2" d="M387.833 212.883L1209.83 613.108" stroke="black"/>
<path opacity="0.2" d="M339.48 236.426L1161.48 636.651" stroke="black"/>
<path opacity="0.2" d="M291.127 259.969L1113.13 660.194" stroke="black"/>
<path opacity="0.2" d="M242.774 283.512L1064.77 683.737" stroke="black"/>
</svg>
