<svg width="920" height="210" viewBox="0 0 920 210" fill="none" xmlns="http://www.w3.org/2000/svg">
<mask id="mask0_4445_12300" style="mask-type:luminance" maskUnits="userSpaceOnUse" x="0" y="0" width="920" height="210">
<path d="M920 0H0V210H920V0Z" fill="white"/>
</mask>
<g mask="url(#mask0_4445_12300)">
<g opacity="0.1">
<path d="M779.093 115.965H778.101H760.983H760.735H755.277H754.284H731.46H730.468H707.644H706.651H689.533H689.285H683.827H682.835H660.01H659.018H636.194H634.884V170.274V170.523V176.722H636.194H659.018H660.01H682.835H683.827H689.285H689.533H706.651H707.644H730.468H731.46H754.284H755.277H760.735H760.983H778.101H779.093H790.987V175.744V170.523V170.274V164.805V163.811V152.872V151.878V140.94V139.946V129.007V128.013V117.074V115.965H779.093ZM767.136 152.872H778.075V163.811H767.136V152.872ZM767.136 140.94H778.075V151.878H767.136V140.94ZM767.136 129.007H778.075V139.946H767.136V129.007ZM778.075 117.074V128.013H767.136V117.074H778.075ZM755.203 117.074H760.424H760.673H760.921H766.142V128.013H760.921H760.673H760.424H755.203V117.074ZM755.203 129.007H760.424H760.673H760.921H766.142V139.946H760.921H760.673H760.424H755.203V129.007ZM755.203 140.94H760.424H760.673H760.921H766.142V151.878H760.921H760.673H760.424H755.203V140.94ZM755.203 152.872H760.424H760.673H760.921H766.142V163.811H760.921H760.673H760.424H755.203V152.872ZM743.271 152.872H754.209V163.811H743.271V152.872ZM743.271 140.94H754.209V151.878H743.271V140.94ZM743.271 129.007H754.209V139.946H743.271V129.007ZM754.209 117.074V128.013H743.271V117.074H754.209ZM731.338 117.074H742.277V128.013H731.338V117.074ZM731.338 129.007H742.277V139.946H731.338V129.007ZM731.338 140.94H742.277V151.878H731.338V140.94ZM731.338 152.872H742.277V163.811H731.338V152.872ZM719.406 152.872H730.344V163.811H719.406V152.872ZM719.406 140.94H730.344V151.878H719.406V140.94ZM719.406 129.007H730.344V139.946H719.406V129.007ZM730.344 117.074V128.013H719.406V117.074H730.344ZM707.473 117.074H718.411V128.013H707.473V117.074ZM707.473 129.007H718.411V139.946H707.473V129.007ZM707.473 140.94H718.411V151.878H707.473V140.94ZM707.473 152.872H718.411V163.811H707.473V152.872ZM695.54 152.872H706.479V163.811H695.54V152.872ZM695.54 140.94H706.479V151.878H695.54V140.94ZM695.54 129.007H706.479V139.946H695.54V129.007ZM706.479 117.074V128.013H695.54V117.074H706.479ZM683.607 117.074H688.828H689.077H689.326H694.546V128.013H689.326H689.077H688.828H683.607V117.074ZM683.607 129.007H688.828H689.077H689.326H694.546V139.946H689.326H689.077H688.828H683.607V129.007ZM683.607 140.94H688.828H689.077H689.326H694.546V151.878H689.326H689.077H688.828H683.607V140.94ZM683.607 152.872H688.828H689.077H689.326H694.546V163.811H689.326H689.077H688.828H683.607V152.872ZM671.675 152.872H682.613V163.811H671.675V152.872ZM671.675 140.94H682.613V151.878H671.675V140.94ZM671.675 129.007H682.613V139.946H671.675V129.007ZM682.613 117.074V128.013H671.675V117.074H682.613ZM659.742 117.074H670.681V128.013H659.742V117.074ZM659.742 129.007H670.681V139.946H659.742V129.007ZM659.742 140.94H670.681V151.878H659.742V140.94ZM659.742 152.872H670.681V163.811H659.742V152.872ZM647.809 152.872H658.748V163.811H647.809V152.872ZM647.809 140.94H658.748V151.878H647.809V140.94ZM647.809 129.007H658.748V139.946H647.809V129.007ZM658.748 117.074V128.013H647.809V117.074H658.748ZM635.877 117.074H646.815V128.013H635.877V117.074ZM635.877 129.007H646.815V139.946H635.877V129.007ZM635.877 140.94H646.815V151.878H635.877V140.94ZM635.877 152.872H646.815V163.811H635.877V152.872ZM635.877 175.744V170.523V170.274V170.026V164.805H646.815V170.026V170.274V170.523V175.744H635.877ZM658.748 175.744H647.809V170.523V170.274V170.026V164.805H658.748V170.026V170.274V170.523V175.744ZM659.742 175.744V170.523V170.274V170.026V164.805H670.681V170.026V170.274V170.523V175.744H659.742ZM682.613 175.744H671.675V170.523V170.274V170.026V164.805H682.613V170.026V170.274V170.523V175.744ZM689.326 175.744H689.077H688.828H683.607V170.523V170.274V170.026V164.805H688.828H689.077H689.326H694.546V170.026V170.274V170.523V175.744H689.326ZM706.479 175.744H695.54V170.523V170.274V170.026V164.805H706.479V170.026V170.274V170.523V175.744ZM707.473 175.744V170.523V170.274V170.026V164.805H718.411V170.026V170.274V170.523V175.744H707.473ZM730.344 175.744H719.406V170.523V170.274V170.026V164.805H730.344V170.026V170.274V170.523V175.744ZM731.338 175.744V170.523V170.274V170.026V164.805H742.277V170.026V170.274V170.523V175.744H731.338ZM754.209 175.744H743.271V170.523V170.274V170.026V164.805H754.209V170.026V170.274V170.523V175.744ZM760.921 175.744H760.673H760.424H755.203V170.523V170.274V170.026V164.805H760.424H760.673H760.921H766.142V170.026V170.274V170.523V175.744H760.921ZM778.075 175.744H767.136V170.523V170.274V170.026V164.805H778.075V170.026V170.274V170.523V175.744ZM790.008 170.026V170.274V170.523V175.744H779.069V170.523V170.274V170.026V164.805H790.008V170.026ZM790.008 163.811H779.069V152.872H790.008V163.811ZM790.008 151.878H779.069V140.94H790.008V151.878ZM790.008 139.946H779.069V129.007H790.008V139.946ZM790.008 128.013H779.069V117.074H790.008V128.013Z" fill="#413241"/>
</g>
<path d="M786.41 120.571C786.41 133.238 776.142 143.505 763.475 143.505C750.809 143.505 740.541 133.238 740.541 120.571C740.541 107.905 750.809 97.6367 763.475 97.6367C776.142 97.6367 786.41 107.905 786.41 120.571Z" stroke="#262626" stroke-miterlimit="10"/>
<path d="M792.084 52.2925L773.768 57.258L768.802 38.9429L787.118 33.9767L792.084 52.2925Z" fill="#6CB2EE"/>
<path d="M792.084 52.2925L773.768 57.258L768.802 38.9429L787.118 33.9767L792.084 52.2925Z" stroke="#262626" stroke-linecap="round" stroke-linejoin="round"/>
<path d="M891.403 159.824L872.518 157.972L874.37 139.086L893.256 140.938L891.403 159.824Z" fill="#267DFF"/>
<path d="M891.403 159.824L872.518 157.972L874.37 139.086L893.256 140.938L891.403 159.824Z" stroke="#262626" stroke-linecap="round" stroke-linejoin="round"/>
<mask id="mask1_4445_12300" style="mask-type:luminance" maskUnits="userSpaceOnUse" x="0" y="-1" width="920" height="211">
<path d="M0 -0.5H920V209.5H0V-0.5Z" fill="white"/>
</mask>
<g mask="url(#mask1_4445_12300)">
<mask id="mask2_4445_12300" style="mask-type:luminance" maskUnits="userSpaceOnUse" x="0" y="-6" width="920" height="211">
<path d="M0 -5.10742H920V204.893H0V-5.10742Z" fill="white"/>
</mask>
<g mask="url(#mask2_4445_12300)">
<path d="M574.806 103.752H498.217C497.452 103.752 496.832 103.132 496.832 102.367V92.0608C496.832 91.2958 497.452 90.6758 498.217 90.6758H574.806C575.571 90.6758 576.192 91.2958 576.192 92.0608V102.367C576.192 103.132 575.571 103.752 574.806 103.752Z" fill="#9867FF"/>
<path d="M574.806 103.752H498.217C497.452 103.752 496.832 103.132 496.832 102.367V92.0608C496.832 91.2958 497.452 90.6758 498.217 90.6758H574.806C575.571 90.6758 576.192 91.2958 576.192 92.0608V102.367C576.192 103.132 575.571 103.752 574.806 103.752Z" stroke="#262626" stroke-linecap="round" stroke-linejoin="round"/>
<path d="M565.108 103.752H488.519C487.754 103.752 487.134 103.132 487.134 102.367V92.0608C487.134 91.2958 487.754 90.6758 488.519 90.6758H565.108C565.873 90.6758 566.494 91.2958 566.494 92.0608V102.367C566.494 103.132 565.873 103.752 565.108 103.752Z" fill="#B598EE"/>
<path d="M565.108 103.752H488.519C487.754 103.752 487.134 103.132 487.134 102.367V92.0608C487.134 91.2958 487.754 90.6758 488.519 90.6758H565.108C565.873 90.6758 566.494 91.2958 566.494 92.0608V102.367C566.494 103.132 565.873 103.752 565.108 103.752Z" stroke="#262626" stroke-linecap="round" stroke-linejoin="round"/>
<path d="M574.806 78.369H498.217C497.452 78.369 496.832 77.749 496.832 76.984V66.678C496.832 65.913 497.452 65.293 498.217 65.293H574.806C575.571 65.293 576.192 65.913 576.192 66.678V76.984C576.192 77.749 575.571 78.369 574.806 78.369Z" fill="#9867FF"/>
<path d="M574.806 78.369H498.217C497.452 78.369 496.832 77.749 496.832 76.984V66.678C496.832 65.913 497.452 65.293 498.217 65.293H574.806C575.571 65.293 576.192 65.913 576.192 66.678V76.984C576.192 77.749 575.571 78.369 574.806 78.369Z" stroke="#262626" stroke-linecap="round" stroke-linejoin="round"/>
<path d="M565.108 78.369H488.519C487.754 78.369 487.134 77.749 487.134 76.984V66.678C487.134 65.913 487.754 65.293 488.519 65.293H565.108C565.873 65.293 566.494 65.913 566.494 66.678V76.984C566.494 77.749 565.873 78.369 565.108 78.369Z" fill="#B598EE"/>
<path d="M565.108 78.369H488.519C487.754 78.369 487.134 77.749 487.134 76.984V66.678C487.134 65.913 487.754 65.293 488.519 65.293H565.108C565.873 65.293 566.494 65.913 566.494 66.678V76.984C566.494 77.749 565.873 78.369 565.108 78.369Z" stroke="#262626" stroke-linecap="round" stroke-linejoin="round"/>
<path d="M574.806 52.9867H498.217C497.452 52.9867 496.832 52.3662 496.832 51.6012V41.2957C496.832 40.5307 497.452 39.9102 498.217 39.9102H574.806C575.571 39.9102 576.192 40.5307 576.192 41.2957V51.6012C576.192 52.3662 575.571 52.9867 574.806 52.9867Z" fill="#9867FF"/>
<path d="M574.806 52.9867H498.217C497.452 52.9867 496.832 52.3662 496.832 51.6012V41.2957C496.832 40.5307 497.452 39.9102 498.217 39.9102H574.806C575.571 39.9102 576.192 40.5307 576.192 41.2957V51.6012C576.192 52.3662 575.571 52.9867 574.806 52.9867Z" stroke="#262626" stroke-linecap="round" stroke-linejoin="round"/>
<path d="M565.108 52.9867H488.519C487.754 52.9867 487.134 52.3662 487.134 51.6012V41.2957C487.134 40.5307 487.754 39.9102 488.519 39.9102H565.108C565.873 39.9102 566.494 40.5307 566.494 41.2957V51.6012C566.494 52.3662 565.873 52.9867 565.108 52.9867Z" fill="#B598EE"/>
<path d="M565.108 52.9867H488.519C487.754 52.9867 487.134 52.3662 487.134 51.6012V41.2957C487.134 40.5307 487.754 39.9102 488.519 39.9102H565.108C565.873 39.9102 566.494 40.5307 566.494 41.2957V51.6012C566.494 52.3662 565.873 52.9867 565.108 52.9867Z" stroke="#262626" stroke-linecap="round" stroke-linejoin="round"/>
</g>
<path d="M267.601 148.5H185C162.909 148.5 145 166.409 145 188.5V233.499" stroke="#262626" stroke-linecap="round" stroke-linejoin="round"/>
<path d="M125 233.5V188.5C125 155.416 151.917 128.5 185 128.5H267.601" stroke="#262626" stroke-linecap="round" stroke-linejoin="round"/>
<path d="M-26.6875 108.501L267.6 108.5" stroke="#262626" stroke-linecap="round" stroke-linejoin="round"/>
<path d="M-26.6875 88.5005L267.6 88.5" stroke="#262626" stroke-linecap="round" stroke-linejoin="round"/>
<path d="M-26.6875 70.5005L267.6 70.5" stroke="#262626" stroke-linecap="round" stroke-linejoin="round"/>
<path d="M457.409 192.56H592.638V142.627H457.409V192.56Z" fill="#EBEBEB"/>
<path d="M671.675 192.56H616.425V142.627H671.675V192.56Z" fill="#EBEBEB"/>
<path d="M672.285 192.56H616.425V142.627H672.285V192.56Z" fill="#B598EE"/>
<path d="M672.285 192.56H616.425V142.627H672.285V192.56Z" fill="#60D699"/>
<path d="M680.145 126.689H594.151V208.499H680.145C684.657 208.499 688.314 204.841 688.314 200.329V134.859C688.314 130.347 684.657 126.689 680.145 126.689ZM672.284 189.293C672.284 191.098 670.822 192.561 669.016 192.561H619.691C617.886 192.561 616.424 191.098 616.424 189.293V145.895C616.424 144.09 617.886 142.627 619.691 142.627H669.016C670.822 142.627 672.284 144.09 672.284 145.895V189.293Z" fill="#267DFF"/>
<path d="M680.145 126.689H594.151V208.499H680.145C684.657 208.499 688.314 204.841 688.314 200.329V134.859C688.314 130.347 684.657 126.689 680.145 126.689ZM672.284 189.293C672.284 191.098 670.822 192.561 669.016 192.561H619.691C617.886 192.561 616.424 191.098 616.424 189.293V145.895C616.424 144.09 617.886 142.627 619.691 142.627H669.016C670.822 142.627 672.284 144.09 672.284 145.895V189.293Z" stroke="#262626" stroke-linecap="round" stroke-linejoin="round"/>
<path d="M409.514 126.686H399.704V136.68H294.504V8.5H378.074C390.024 8.5 399.704 18.19 399.704 30.14V116.67C399.704 122.09 404.094 126.686 409.514 126.686Z" fill="#267DFF"/>
<path d="M409.514 126.686H399.704V136.68H294.504V8.5H378.074C390.024 8.5 399.704 18.19 399.704 30.14V116.67C399.704 122.09 404.094 126.686 409.514 126.686Z" stroke="#262626" stroke-linecap="round" stroke-linejoin="round"/>
<path d="M598.175 126.689H380.009C375.591 126.689 372.009 123.108 372.009 118.689V36.5C372.009 21.036 359.473 8.5 344.009 8.5H260.01C244.546 8.5 232.01 21.036 232.01 36.5V180.5C232.01 195.964 244.546 208.5 260.01 208.5H328.288H344.009H598.175C602.593 208.5 606.175 204.919 606.175 200.5V134.69C606.175 130.271 602.593 126.689 598.175 126.689ZM592.637 187.708C592.637 190.388 590.464 192.561 587.785 192.561H462.253C459.574 192.561 457.409 190.388 457.409 187.708V147.473C457.409 144.793 459.574 142.628 462.253 142.628H587.785C590.464 142.628 592.637 144.793 592.637 147.473V187.708Z" fill="white"/>
<path d="M598.175 126.689H380.009C375.591 126.689 372.009 123.108 372.009 118.689V36.5C372.009 21.036 359.473 8.5 344.009 8.5H260.01C244.546 8.5 232.01 21.036 232.01 36.5V180.5C232.01 195.964 244.546 208.5 260.01 208.5H328.288H344.009H598.175C602.593 208.5 606.175 204.919 606.175 200.5V134.69C606.175 130.272 602.593 126.689 598.175 126.689ZM592.637 187.708C592.637 190.388 590.464 192.561 587.785 192.561H462.253C459.574 192.561 457.409 190.388 457.409 187.708V147.473C457.409 144.793 459.574 142.628 462.253 142.628H587.785C590.464 142.628 592.637 144.793 592.637 147.473V187.708Z" stroke="#262626" stroke-miterlimit="10"/>
<path d="M462.253 192.562H454.459C451.78 192.562 449.615 190.389 449.615 187.709V147.474C449.615 144.794 451.78 142.629 454.459 142.629H462.253C459.574 142.629 457.409 144.794 457.409 147.474V187.709C457.409 190.389 459.574 192.562 462.253 192.562Z" fill="#262626"/>
<path d="M462.253 192.562H454.459C451.78 192.562 449.615 190.389 449.615 187.709V147.474C449.615 144.794 451.78 142.629 454.459 142.629H462.253C459.574 142.629 457.409 144.794 457.409 147.474V187.709C457.409 190.389 459.574 192.562 462.253 192.562Z" stroke="#262626" stroke-linecap="round" stroke-linejoin="round"/>
<path d="M678.285 145.897V189.294C678.285 191.1 676.823 192.562 675.017 192.562H669.017C670.822 192.562 672.284 191.1 672.284 189.294V145.897C672.284 144.091 670.822 142.629 669.017 142.629H675.017C676.823 142.629 678.285 144.091 678.285 145.897Z" fill="#262626"/>
<path d="M678.285 145.897V189.294C678.285 191.1 676.823 192.562 675.017 192.562H669.017C670.822 192.562 672.284 191.1 672.284 189.294V145.897C672.284 144.091 670.822 142.629 669.017 142.629H675.017C676.823 142.629 678.285 144.091 678.285 145.897Z" stroke="#262626" stroke-miterlimit="10"/>
<path d="M392.784 47.6562C400.245 47.6562 406.294 53.7043 406.294 61.1653C406.294 68.6263 400.245 74.6748 392.784 74.6748" stroke="#262626" stroke-linecap="round" stroke-linejoin="round"/>
<path d="M389.033 56.9294H386.734V42.1074H389.033C393.126 42.1074 396.444 45.4254 396.444 49.5184C396.444 53.6114 393.126 56.9294 389.033 56.9294Z" fill="#6CB2EE"/>
<path d="M389.033 56.9294H386.734V42.1074H389.033C393.126 42.1074 396.444 45.4254 396.444 49.5184C396.444 53.6114 393.126 56.9294 389.033 56.9294Z" stroke="#262626" stroke-linecap="round" stroke-linejoin="round"/>
<path d="M389.033 81.0061H386.734V66.1836H389.033C393.126 66.1836 396.444 69.5016 396.444 73.5946C396.444 77.6876 393.126 81.0061 389.033 81.0061Z" fill="#6CB2EE"/>
<path d="M389.033 81.0061H386.734V66.1836H389.033C393.126 66.1836 396.444 69.5016 396.444 73.5946C396.444 77.6876 393.126 81.0061 389.033 81.0061Z" stroke="#262626" stroke-linecap="round" stroke-linejoin="round"/>
<path d="M272.01 48.498H252.01V36.498C252.01 32.0795 255.591 28.498 260.01 28.498H272.01V48.498Z" fill="white"/>
<path d="M272.01 48.498H252.01V36.498C252.01 32.0795 255.591 28.498 260.01 28.498H272.01V48.498Z" stroke="#262626" stroke-linecap="round" stroke-linejoin="round"/>
<path d="M272.01 68.498H252.01V48.498H272.01V68.498Z" fill="white"/>
<path d="M272.01 68.498H252.01V48.498H272.01V68.498Z" stroke="#262626" stroke-linecap="round" stroke-linejoin="round"/>
<path d="M272.01 88.498H252.01V68.498H272.01V88.498Z" fill="white"/>
<path d="M272.01 88.498H252.01V68.498H272.01V88.498Z" stroke="#262626" stroke-linecap="round" stroke-linejoin="round"/>
<path d="M272.01 108.498H252.01V88.498H272.01V108.498Z" fill="white"/>
<path d="M272.01 108.498H252.01V88.498H272.01V108.498Z" stroke="#262626" stroke-linecap="round" stroke-linejoin="round"/>
<path d="M272.01 128.498H252.01V108.498H272.01V128.498Z" fill="white"/>
<path d="M272.01 128.498H252.01V108.498H272.01V128.498Z" stroke="#262626" stroke-linecap="round" stroke-linejoin="round"/>
<path d="M272.01 148.498H252.01V128.498H272.01V148.498Z" fill="white"/>
<path d="M272.01 148.498H252.01V128.498H272.01V148.498Z" stroke="#262626" stroke-linecap="round" stroke-linejoin="round"/>
<path d="M272.01 168.498H252.01V148.498H272.01V168.498Z" fill="white"/>
<path d="M272.01 168.498H252.01V148.498H272.01V168.498Z" stroke="#262626" stroke-linecap="round" stroke-linejoin="round"/>
<path d="M272.01 188.498H260.01C255.591 188.498 252.01 184.917 252.01 180.498V168.498H272.01V188.498Z" fill="white"/>
<path d="M272.01 188.498H260.01C255.591 188.498 252.01 184.917 252.01 180.498V168.498H272.01V188.498Z" stroke="#262626" stroke-linecap="round" stroke-linejoin="round"/>
<path d="M292.01 48.498H272.01V28.498H292.01V48.498Z" fill="white"/>
<path d="M292.01 48.498H272.01V28.498H292.01V48.498Z" stroke="#262626" stroke-linecap="round" stroke-linejoin="round"/>
<path d="M292.01 68.498H272.01V48.498H292.01V68.498Z" fill="white"/>
<path d="M292.01 68.498H272.01V48.498H292.01V68.498Z" stroke="#262626" stroke-linecap="round" stroke-linejoin="round"/>
<path d="M292.01 88.498H272.01V68.498H292.01V88.498Z" fill="white"/>
<path d="M292.01 88.498H272.01V68.498H292.01V88.498Z" stroke="#262626" stroke-linecap="round" stroke-linejoin="round"/>
<path d="M292.01 108.498H272.01V88.498H292.01V108.498Z" fill="white"/>
<path d="M292.01 108.498H272.01V88.498H292.01V108.498Z" stroke="#262626" stroke-linecap="round" stroke-linejoin="round"/>
<path d="M292.01 128.498H272.01V108.498H292.01V128.498Z" fill="white"/>
<path d="M292.01 128.498H272.01V108.498H292.01V128.498Z" stroke="#262626" stroke-linecap="round" stroke-linejoin="round"/>
<path d="M292.01 148.498H272.01V128.498H292.01V148.498Z" fill="white"/>
<path d="M292.01 148.498H272.01V128.498H292.01V148.498Z" stroke="#262626" stroke-linecap="round" stroke-linejoin="round"/>
<path d="M292.01 168.498H272.01V148.498H292.01V168.498Z" fill="white"/>
<path d="M292.01 168.498H272.01V148.498H292.01V168.498Z" stroke="#262626" stroke-linecap="round" stroke-linejoin="round"/>
<path d="M292.01 188.498H272.01V168.498H292.01V188.498Z" fill="white"/>
<path d="M292.01 188.498H272.01V168.498H292.01V188.498Z" stroke="#262626" stroke-linecap="round" stroke-linejoin="round"/>
<path d="M312.01 48.498H292.01V28.498H312.01V48.498Z" fill="white"/>
<path d="M312.01 48.498H292.01V28.498H312.01V48.498Z" stroke="#262626" stroke-linecap="round" stroke-linejoin="round"/>
<path d="M312.01 68.498H292.01V48.498H312.01V68.498Z" fill="white"/>
<path d="M312.01 68.498H292.01V48.498H312.01V68.498Z" stroke="#262626" stroke-linecap="round" stroke-linejoin="round"/>
<path d="M312.01 88.498H292.01V68.498H312.01V88.498Z" fill="white"/>
<path d="M312.01 88.498H292.01V68.498H312.01V88.498Z" stroke="#262626" stroke-linecap="round" stroke-linejoin="round"/>
<path d="M312.01 108.498H292.01V88.498H312.01V108.498Z" fill="white"/>
<path d="M312.01 108.498H292.01V88.498H312.01V108.498Z" stroke="#262626" stroke-linecap="round" stroke-linejoin="round"/>
<path d="M312.01 128.498H292.01V108.498H312.01V128.498Z" fill="white"/>
<path d="M312.01 128.498H292.01V108.498H312.01V128.498Z" stroke="#262626" stroke-linecap="round" stroke-linejoin="round"/>
<path d="M312.01 148.498H292.01V128.498H312.01V148.498Z" fill="white"/>
<path d="M312.01 148.498H292.01V128.498H312.01V148.498Z" stroke="#262626" stroke-linecap="round" stroke-linejoin="round"/>
<path d="M312.01 168.498H292.01V148.498H312.01V168.498Z" fill="white"/>
<path d="M312.01 168.498H292.01V148.498H312.01V168.498Z" stroke="#262626" stroke-linecap="round" stroke-linejoin="round"/>
<path d="M312.01 188.498H292.01V168.498H312.01V188.498Z" fill="white"/>
<path d="M312.01 188.498H292.01V168.498H312.01V188.498Z" stroke="#262626" stroke-linecap="round" stroke-linejoin="round"/>
<path d="M332.01 48.498H312.01V28.498H332.01V48.498Z" fill="white"/>
<path d="M332.01 48.498H312.01V28.498H332.01V48.498Z" stroke="#262626" stroke-linecap="round" stroke-linejoin="round"/>
<path d="M332.01 68.498H312.01V48.498H332.01V68.498Z" fill="white"/>
<path d="M332.01 68.498H312.01V48.498H332.01V68.498Z" stroke="#262626" stroke-linecap="round" stroke-linejoin="round"/>
<path d="M332.01 88.498H312.01V68.498H332.01V88.498Z" fill="white"/>
<path d="M332.01 88.498H312.01V68.498H332.01V88.498Z" stroke="#262626" stroke-linecap="round" stroke-linejoin="round"/>
<path d="M332.01 108.498H312.01V88.498H332.01V108.498Z" fill="white"/>
<path d="M332.01 108.498H312.01V88.498H332.01V108.498Z" stroke="#262626" stroke-linecap="round" stroke-linejoin="round"/>
<path d="M332.01 128.498H312.01V108.498H332.01V128.498Z" fill="white"/>
<path d="M332.01 128.498H312.01V108.498H332.01V128.498Z" stroke="#262626" stroke-linecap="round" stroke-linejoin="round"/>
<path d="M332.01 148.498H312.01V128.498H332.01V148.498Z" fill="white"/>
<path d="M332.01 148.498H312.01V128.498H332.01V148.498Z" stroke="#262626" stroke-linecap="round" stroke-linejoin="round"/>
<path d="M332.01 168.498H312.01V148.498H332.01V168.498Z" fill="white"/>
<path d="M332.01 168.498H312.01V148.498H332.01V168.498Z" stroke="#262626" stroke-linecap="round" stroke-linejoin="round"/>
<path d="M332.01 188.498H312.01V168.498H332.01V188.498Z" fill="white"/>
<path d="M332.01 188.498H312.01V168.498H332.01V188.498Z" stroke="#262626" stroke-linecap="round" stroke-linejoin="round"/>
<path d="M352.01 48.498H332.01V28.498H344.01C348.428 28.498 352.01 32.0795 352.01 36.498V48.498Z" fill="white"/>
<path d="M352.01 48.498H332.01V28.498H344.01C348.428 28.498 352.01 32.0795 352.01 36.498V48.498Z" stroke="#262626" stroke-linecap="round" stroke-linejoin="round"/>
<path d="M352.01 68.498H332.01V48.498H352.01V68.498Z" fill="white"/>
<path d="M352.01 68.498H332.01V48.498H352.01V68.498Z" stroke="#262626" stroke-linecap="round" stroke-linejoin="round"/>
<path d="M352.01 88.498H332.01V68.498H352.01V88.498Z" fill="white"/>
<path d="M352.01 88.498H332.01V68.498H352.01V88.498Z" stroke="#262626" stroke-linecap="round" stroke-linejoin="round"/>
<path d="M352.01 108.498H332.01V88.498H352.01V108.498Z" fill="white"/>
<path d="M352.01 108.498H332.01V88.498H352.01V108.498Z" stroke="#262626" stroke-linecap="round" stroke-linejoin="round"/>
<path d="M352.01 128.498H332.01V108.498H352.01V128.498Z" fill="white"/>
<path d="M352.01 128.498H332.01V108.498H352.01V128.498Z" stroke="#262626" stroke-linecap="round" stroke-linejoin="round"/>
<path d="M352.01 148.498H332.01V128.498H352.01V148.498Z" fill="white"/>
<path d="M352.01 148.498H332.01V128.498H352.01V148.498Z" stroke="#262626" stroke-linecap="round" stroke-linejoin="round"/>
<path d="M352.01 168.498H332.01V148.498H352.01V168.498Z" fill="white"/>
<path d="M352.01 168.498H332.01V148.498H352.01V168.498Z" stroke="#262626" stroke-linecap="round" stroke-linejoin="round"/>
<path d="M344.01 188.498H332.01V168.498H352.01V180.498C352.01 184.917 348.428 188.498 344.01 188.498Z" fill="white"/>
<path d="M344.01 188.498H332.01V168.498H352.01V180.498C352.01 184.917 348.428 188.498 344.01 188.498Z" stroke="#262626" stroke-linecap="round" stroke-linejoin="round"/>
<path d="M586.102 117.992H477.224C473.614 117.992 470.688 120.919 470.688 124.528V125.974H592.637V124.528C592.637 120.919 589.711 117.992 586.102 117.992Z" fill="#262626"/>
<path d="M586.102 117.992H477.224C473.614 117.992 470.688 120.919 470.688 124.528V125.974H592.637V124.528C592.637 120.919 589.711 117.992 586.102 117.992Z" stroke="#262626" stroke-linecap="round" stroke-linejoin="round"/>
<path d="M569.356 117.992H476.745C473.4 117.992 470.688 120.704 470.688 124.049V125.974H575.412V124.049C575.412 120.704 572.701 117.992 569.356 117.992Z" fill="#474747"/>
<path d="M569.356 117.992H476.745C473.4 117.992 470.688 120.704 470.688 124.049V125.974H575.412V124.049C575.412 120.704 572.701 117.992 569.356 117.992Z" stroke="#262626" stroke-linecap="round" stroke-linejoin="round"/>
<mask id="mask3_4445_12300" style="mask-type:alpha" maskUnits="userSpaceOnUse" x="447" y="184" width="101" height="23">
<path d="M547.537 184.016V206.14H447.537V184.016H547.537Z" fill="white"/>
</mask>
<g mask="url(#mask3_4445_12300)">
<path d="M503.582 183.81C503.977 183.58 504.297 183.27 504.532 182.875C504.772 182.48 504.972 182.035 505.137 181.535L507.802 173.555H506.242L504.377 179.855H504.577L502.662 173.555H501.082L503.642 181.055L503.457 181.615C503.372 181.865 503.262 182.09 503.122 182.29C502.987 182.485 502.817 182.64 502.617 182.755C502.422 182.865 502.182 182.92 501.907 182.92C501.752 182.92 501.607 182.915 501.462 182.895C501.322 182.875 501.222 182.85 501.157 182.825V184.065C501.197 184.08 501.297 184.1 501.462 184.125C501.627 184.145 501.812 184.155 502.012 184.155C502.662 184.155 503.182 184.04 503.582 183.81Z" fill="#262626"/>
</g>
<path d="M400.738 146.373H393.934V147.494C385.552 150.331 379.516 158.256 379.516 167.595C379.516 176.935 385.552 184.859 393.934 187.696V188.817H400.738C412.458 188.817 421.96 179.316 421.96 167.595C421.96 155.875 412.458 146.373 400.738 146.373Z" fill="#267DFF"/>
<path d="M400.738 146.373H393.934V147.494C385.552 150.331 379.516 158.256 379.516 167.595C379.516 176.935 385.552 184.859 393.934 187.696V188.817H400.738C412.458 188.817 421.96 179.316 421.96 167.595C421.96 155.875 412.458 146.373 400.738 146.373Z" stroke="#262626" stroke-linecap="round" stroke-linejoin="round"/>
<path d="M394.522 146.373C406.242 146.373 415.743 155.874 415.743 167.595C415.743 179.315 406.242 188.816 394.522 188.816C382.801 188.816 373.3 179.315 373.3 167.595C373.3 155.874 382.801 146.373 394.522 146.373Z" fill="#EBEBEB"/>
<path d="M394.522 146.373C406.242 146.373 415.743 155.874 415.743 167.595C415.743 179.315 406.242 188.816 394.522 188.816C382.801 188.816 373.3 179.315 373.3 167.595C373.3 155.874 382.801 146.373 394.522 146.373Z" stroke="#262626" stroke-linecap="round" stroke-linejoin="round"/>
<path d="M379.516 152.59L409.528 182.602L379.516 152.59Z" fill="white"/>
<path d="M379.516 152.59L409.528 182.602" stroke="#262626" stroke-linecap="round" stroke-linejoin="round"/>
<path d="M409.528 152.59L379.516 182.602L409.528 152.59Z" fill="white"/>
<path d="M409.528 152.59L379.516 182.602" stroke="#262626" stroke-linecap="round" stroke-linejoin="round"/>
<path d="M396.386 179.791C396.186 179.824 395.985 179.848 395.785 179.869C395.781 179.869 395.777 179.869 395.777 179.869C395.365 179.914 394.948 179.934 394.523 179.934C387.705 179.934 382.183 174.407 382.183 167.594C382.183 160.78 387.705 155.254 394.523 155.254C394.948 155.254 395.365 155.274 395.777 155.319C395.777 155.319 395.781 155.319 395.785 155.319C395.985 155.339 396.186 155.364 396.386 155.397C390.459 156.299 385.924 161.417 385.924 167.594C385.924 173.77 390.459 178.889 396.386 179.791Z" fill="#262626"/>
<path d="M396.386 179.791C396.186 179.824 395.985 179.848 395.785 179.869C395.781 179.869 395.777 179.869 395.777 179.869C395.365 179.914 394.948 179.934 394.523 179.934C387.705 179.934 382.183 174.407 382.183 167.594C382.183 160.78 387.705 155.254 394.523 155.254C394.948 155.254 395.365 155.274 395.777 155.319C395.777 155.319 395.781 155.319 395.785 155.319C395.985 155.339 396.186 155.364 396.386 155.397C390.459 156.299 385.924 161.417 385.924 167.594C385.924 173.77 390.459 178.889 396.386 179.791Z" stroke="#262626" stroke-linecap="round" stroke-linejoin="round"/>
<path d="M406.863 167.593C406.863 173.774 402.317 178.896 396.386 179.791C390.459 178.888 385.924 173.77 385.924 167.593C385.924 161.417 390.459 156.299 396.386 155.396C402.317 156.291 406.863 161.413 406.863 167.593Z" fill="white"/>
<path d="M406.863 167.593C406.863 173.774 402.317 178.896 396.386 179.791C390.459 178.888 385.924 173.77 385.924 167.593C385.924 161.417 390.459 156.299 396.386 155.396C402.317 156.291 406.863 161.413 406.863 167.593Z" stroke="#262626" stroke-linecap="round" stroke-linejoin="round"/>
<path d="M438.393 153.777C438.393 156.484 436.198 158.679 433.491 158.679C430.784 158.679 428.589 156.484 428.589 153.777C428.589 151.07 430.784 148.875 433.491 148.875C436.198 148.875 438.393 151.07 438.393 153.777Z" fill="#9867FF"/>
<path d="M438.393 153.777C438.393 156.484 436.198 158.679 433.491 158.679C430.784 158.679 428.589 156.484 428.589 153.777C428.589 151.07 430.784 148.875 433.491 148.875C436.198 148.875 438.393 151.07 438.393 153.777Z" stroke="#262626" stroke-miterlimit="10"/>
<path d="M438.393 167.798C438.393 170.505 436.198 172.7 433.491 172.7C430.784 172.7 428.589 170.505 428.589 167.798C428.589 165.091 430.784 162.896 433.491 162.896C436.198 162.896 438.393 165.091 438.393 167.798Z" fill="white"/>
<path d="M438.393 167.798C438.393 170.505 436.198 172.7 433.491 172.7C430.784 172.7 428.589 170.505 428.589 167.798C428.589 165.091 430.784 162.896 433.491 162.896C436.198 162.896 438.393 165.091 438.393 167.798Z" stroke="#262626" stroke-miterlimit="10"/>
<path d="M438.393 181.822C438.393 184.529 436.198 186.724 433.491 186.724C430.784 186.724 428.589 184.529 428.589 181.822C428.589 179.115 430.784 176.92 433.491 176.92C436.198 176.92 438.393 179.115 438.393 181.822Z" fill="white"/>
<path d="M438.393 181.822C438.393 184.529 436.198 186.724 433.491 186.724C430.784 186.724 428.589 184.529 428.589 181.822C428.589 179.115 430.784 176.92 433.491 176.92C436.198 176.92 438.393 179.115 438.393 181.822Z" stroke="#262626" stroke-miterlimit="10"/>
<path d="M438.393 167.798C438.393 170.505 436.198 172.7 433.491 172.7C430.784 172.7 428.589 170.505 428.589 167.798C428.589 165.091 430.784 162.896 433.491 162.896C436.198 162.896 438.393 165.091 438.393 167.798Z" fill="#267DFF"/>
<path d="M438.393 167.798C438.393 170.505 436.198 172.7 433.491 172.7C430.784 172.7 428.589 170.505 428.589 167.798C428.589 165.091 430.784 162.896 433.491 162.896C436.198 162.896 438.393 165.091 438.393 167.798Z" stroke="#262626" stroke-miterlimit="10"/>
<path d="M438.393 181.822C438.393 184.529 436.198 186.724 433.491 186.724C430.784 186.724 428.589 184.529 428.589 181.822C428.589 179.115 430.784 176.92 433.491 176.92C436.198 176.92 438.393 179.115 438.393 181.822Z" fill="#00D085"/>
<path d="M438.393 181.822C438.393 184.529 436.198 186.724 433.491 186.724C430.784 186.724 428.589 184.529 428.589 181.822C428.589 179.115 430.784 176.92 433.491 176.92C436.198 176.92 438.393 179.115 438.393 181.822Z" stroke="#262626" stroke-miterlimit="10"/>
<path d="M438.393 153.777C438.393 156.484 436.198 158.679 433.491 158.679C430.784 158.679 428.589 156.484 428.589 153.777C428.589 151.07 430.784 148.875 433.491 148.875C436.198 148.875 438.393 151.07 438.393 153.777Z" fill="white"/>
<path d="M438.393 153.777C438.393 156.484 436.198 158.679 433.491 158.679C430.784 158.679 428.589 156.484 428.589 153.777C428.589 151.07 430.784 148.875 433.491 148.875C436.198 148.875 438.393 151.07 438.393 153.777Z" stroke="#262626" stroke-miterlimit="10"/>
<path d="M438.393 167.798C438.393 170.505 436.198 172.7 433.491 172.7C430.784 172.7 428.589 170.505 428.589 167.798C428.589 165.091 430.784 162.896 433.491 162.896C436.198 162.896 438.393 165.091 438.393 167.798Z" fill="white"/>
<path d="M438.393 167.798C438.393 170.505 436.198 172.7 433.491 172.7C430.784 172.7 428.589 170.505 428.589 167.798C428.589 165.091 430.784 162.896 433.491 162.896C436.198 162.896 438.393 165.091 438.393 167.798Z" stroke="#262626" stroke-miterlimit="10"/>
<path d="M312.01 108.498H292.01V88.498H312.01V108.498Z" fill="#EBEBEB"/>
<path d="M312.01 108.498H292.01V88.498H312.01V108.498Z" stroke="#262626" stroke-linecap="round" stroke-linejoin="round"/>
<path d="M312.01 128.498H292.01V108.498H312.01V128.498Z" fill="#EBEBEB"/>
<path d="M312.01 128.498H292.01V108.498H312.01V128.498Z" stroke="#262626" stroke-linecap="round" stroke-linejoin="round"/>
<path d="M292.01 108.498H272.01V88.498H292.01V108.498Z" fill="#EBEBEB"/>
<path d="M292.01 108.498H272.01V88.498H292.01V108.498Z" stroke="#262626" stroke-linecap="round" stroke-linejoin="round"/>
<path d="M292.01 128.498H272.01V108.498H292.01V128.498Z" fill="#EBEBEB"/>
<path d="M292.01 128.498H272.01V108.498H292.01V128.498Z" stroke="#262626" stroke-linecap="round" stroke-linejoin="round"/>
<path d="M332.01 108.498H312.01V88.498H332.01V108.498Z" fill="#EBEBEB"/>
<path d="M332.01 108.498H312.01V88.498H332.01V108.498Z" stroke="#262626" stroke-linecap="round" stroke-linejoin="round"/>
<path d="M332.01 128.498H312.01V108.498H332.01V128.498Z" fill="#EBEBEB"/>
<path d="M332.01 128.498H312.01V108.498H332.01V128.498Z" stroke="#262626" stroke-linecap="round" stroke-linejoin="round"/>
<path d="M312.01 88.498H292.01V68.498H312.01V88.498Z" fill="#EBEBEB"/>
<path d="M312.01 88.498H292.01V68.498H312.01V88.498Z" stroke="#262626" stroke-linecap="round" stroke-linejoin="round"/>
<path d="M312.01 148.498H292.01V128.498H312.01V148.498Z" fill="#EBEBEB"/>
<path d="M312.01 148.498H292.01V128.498H312.01V148.498Z" stroke="#262626" stroke-linecap="round" stroke-linejoin="round"/>
<path d="M272.01 108.498H252.01V88.498H272.01V108.498Z" fill="#00D085"/>
<path d="M272.01 108.498H252.01V88.498H272.01V108.498Z" stroke="#262626" stroke-linecap="round" stroke-linejoin="round"/>
<path d="M272.01 128.498H252.01V108.498H272.01V128.498Z" fill="#00D085"/>
<path d="M272.01 128.498H252.01V108.498H272.01V128.498Z" stroke="#262626" stroke-linecap="round" stroke-linejoin="round"/>
<path d="M352.01 108.498H332.01V88.498H352.01V108.498Z" fill="#00D085"/>
<path d="M352.01 108.498H332.01V88.498H352.01V108.498Z" stroke="#262626" stroke-linecap="round" stroke-linejoin="round"/>
<path d="M352.01 128.498H332.01V108.498H352.01V128.498Z" fill="#00D085"/>
<path d="M352.01 128.498H332.01V108.498H352.01V128.498Z" stroke="#262626" stroke-linecap="round" stroke-linejoin="round"/>
<path d="M292.01 88.498H272.01V68.498H292.01V88.498Z" fill="#00D085"/>
<path d="M292.01 88.498H272.01V68.498H292.01V88.498Z" stroke="#262626" stroke-linecap="round" stroke-linejoin="round"/>
<path d="M292.01 148.498H272.01V128.498H292.01V148.498Z" fill="#00D085"/>
<path d="M292.01 148.498H272.01V128.498H292.01V148.498Z" stroke="#262626" stroke-linecap="round" stroke-linejoin="round"/>
<path d="M332.01 88.498H312.01V68.498H332.01V88.498Z" fill="#00D085"/>
<path d="M332.01 88.498H312.01V68.498H332.01V88.498Z" stroke="#262626" stroke-linecap="round" stroke-linejoin="round"/>
<path d="M332.01 148.498H312.01V128.498H332.01V148.498Z" fill="#00D085"/>
<path d="M332.01 148.498H312.01V128.498H332.01V148.498Z" stroke="#262626" stroke-linecap="round" stroke-linejoin="round"/>
<path d="M312.01 68.498H292.01V48.498H312.01V68.498Z" fill="#00D085"/>
<path d="M312.01 68.498H292.01V48.498H312.01V68.498Z" stroke="#262626" stroke-linecap="round" stroke-linejoin="round"/>
<path d="M312.01 168.498H292.01V148.498H312.01V168.498Z" fill="#00D085"/>
<path d="M312.01 168.498H292.01V148.498H312.01V168.498Z" stroke="#262626" stroke-linecap="round" stroke-linejoin="round"/>
<path d="M272.01 88.498H252.01V68.498H272.01V88.498Z" fill="#9CEDC3"/>
<path d="M272.01 88.498H252.01V68.498H272.01V88.498Z" stroke="#262626" stroke-linecap="round" stroke-linejoin="round"/>
<path d="M272.01 148.498H252.01V128.498H272.01V148.498Z" fill="#9CEDC3"/>
<path d="M272.01 148.498H252.01V128.498H272.01V148.498Z" stroke="#262626" stroke-linecap="round" stroke-linejoin="round"/>
<path d="M352.01 88.498H332.01V68.498H352.01V88.498Z" fill="#9CEDC3"/>
<path d="M352.01 88.498H332.01V68.498H352.01V88.498Z" stroke="#262626" stroke-linecap="round" stroke-linejoin="round"/>
<path d="M352.01 148.498H332.01V128.498H352.01V148.498Z" fill="#9CEDC3"/>
<path d="M352.01 148.498H332.01V128.498H352.01V148.498Z" stroke="#262626" stroke-linecap="round" stroke-linejoin="round"/>
<path d="M292.01 68.498H272.01V48.498H292.01V68.498Z" fill="#9CEDC3"/>
<path d="M292.01 68.498H272.01V48.498H292.01V68.498Z" stroke="#262626" stroke-linecap="round" stroke-linejoin="round"/>
<path d="M292.01 168.498H272.01V148.498H292.01V168.498Z" fill="#9CEDC3"/>
<path d="M292.01 168.498H272.01V148.498H292.01V168.498Z" stroke="#262626" stroke-linecap="round" stroke-linejoin="round"/>
<path d="M332.01 68.498H312.01V48.498H332.01V68.498Z" fill="#9CEDC3"/>
<path d="M332.01 68.498H312.01V48.498H332.01V68.498Z" stroke="#262626" stroke-linecap="round" stroke-linejoin="round"/>
<path d="M332.01 168.498H312.01V148.498H332.01V168.498Z" fill="#9CEDC3"/>
<path d="M332.01 168.498H312.01V148.498H332.01V168.498Z" stroke="#262626" stroke-linecap="round" stroke-linejoin="round"/>
<path d="M272.01 68.498H252.01V48.498H272.01V68.498Z" fill="#9CEDC3"/>
<path d="M272.01 68.498H252.01V48.498H272.01V68.498Z" stroke="#262626" stroke-linecap="round" stroke-linejoin="round"/>
<path d="M272.01 168.498H252.01V148.498H272.01V168.498Z" fill="#9CEDC3"/>
<path d="M272.01 168.498H252.01V148.498H272.01V168.498Z" stroke="#262626" stroke-linecap="round" stroke-linejoin="round"/>
<path d="M352.01 68.498H332.01V48.498H352.01V68.498Z" fill="#9CEDC3"/>
<path d="M352.01 68.498H332.01V48.498H352.01V68.498Z" stroke="#262626" stroke-linecap="round" stroke-linejoin="round"/>
<path d="M352.01 168.498H332.01V148.498H352.01V168.498Z" fill="#9CEDC3"/>
<path d="M352.01 168.498H332.01V148.498H352.01V168.498Z" stroke="#262626" stroke-linecap="round" stroke-linejoin="round"/>
<path d="M312.01 48.498H292.01V28.498H312.01V48.498Z" fill="#9CEDC3"/>
<path d="M312.01 48.498H292.01V28.498H312.01V48.498Z" stroke="#262626" stroke-linecap="round" stroke-linejoin="round"/>
<path d="M312.01 188.498H292.01V168.498H312.01V188.498Z" fill="#9CEDC3"/>
<path d="M312.01 188.498H292.01V168.498H312.01V188.498Z" stroke="#262626" stroke-linecap="round" stroke-linejoin="round"/>
<path d="M292.01 48.498H272.01V28.498H292.01V48.498Z" fill="#9CEDC3"/>
<path d="M292.01 48.498H272.01V28.498H292.01V48.498Z" stroke="#262626" stroke-linecap="round" stroke-linejoin="round"/>
<path d="M292.01 188.498H272.01V168.498H292.01V188.498Z" fill="#9CEDC3"/>
<path d="M292.01 188.498H272.01V168.498H292.01V188.498Z" stroke="#262626" stroke-linecap="round" stroke-linejoin="round"/>
<path d="M332.01 48.498H312.01V28.498H332.01V48.498Z" fill="#9CEDC3"/>
<path d="M332.01 48.498H312.01V28.498H332.01V48.498Z" stroke="#262626" stroke-linecap="round" stroke-linejoin="round"/>
<path d="M332.01 188.498H312.01V168.498H332.01V188.498Z" fill="#9CEDC3"/>
<path d="M332.01 188.498H312.01V168.498H332.01V188.498Z" stroke="#262626" stroke-linecap="round" stroke-linejoin="round"/>
<path d="M272.01 48.498H252.01V36.498C252.01 32.0795 255.591 28.498 260.01 28.498H272.01V48.498Z" fill="#9CEDC3"/>
<path d="M272.01 48.498H252.01V36.498C252.01 32.0795 255.591 28.498 260.01 28.498H272.01V48.498Z" stroke="#262626" stroke-linecap="round" stroke-linejoin="round"/>
<path d="M272.01 188.498H260.01C255.591 188.498 252.01 184.917 252.01 180.498V168.498H272.01V188.498Z" fill="#9CEDC3"/>
<path d="M272.01 188.498H260.01C255.591 188.498 252.01 184.917 252.01 180.498V168.498H272.01V188.498Z" stroke="#262626" stroke-linecap="round" stroke-linejoin="round"/>
<path d="M352.01 48.498H332.01V28.498H344.01C348.428 28.498 352.01 32.0795 352.01 36.498V48.498Z" fill="#9CEDC3"/>
<path d="M352.01 48.498H332.01V28.498H344.01C348.428 28.498 352.01 32.0795 352.01 36.498V48.498Z" stroke="#262626" stroke-linecap="round" stroke-linejoin="round"/>
<path d="M344.01 188.498H332.01V168.498H352.01V180.498C352.01 184.917 348.428 188.498 344.01 188.498Z" fill="#9CEDC3"/>
<path d="M344.01 188.498H332.01V168.498H352.01V180.498C352.01 184.917 348.428 188.498 344.01 188.498Z" stroke="#262626" stroke-linecap="round" stroke-linejoin="round"/>
</g>
</g>
</svg>
