<svg width="170" height="764" viewBox="0 0 170 764" fill="none" xmlns="http://www.w3.org/2000/svg">
<path d="M134.244 731.388C121.105 718.283 110.691 702.699 103.606 685.537C96.5203 668.375 92.904 649.976 92.966 631.405C92.904 612.834 96.5203 594.436 103.606 577.274C110.691 560.112 121.105 544.528 134.244 531.423L144.435 521.238C156.367 509.259 163.068 493.03 163.068 476.11C163.068 459.19 156.367 442.961 144.435 430.983L43.2653 329.687C16.8311 303.147 1.98618 267.191 1.98618 229.705C1.98617 192.219 16.8311 156.263 43.2653 129.723L62.7324 110.088C65.1949 112.228 68.3756 113.354 71.634 113.24C74.8924 113.126 77.9866 111.779 80.2933 109.472C82.6 107.164 83.948 104.067 84.0658 100.804C84.1836 97.5409 83.0625 94.3543 80.9282 91.886L170 2.82478L170 0L79.5774 90.5531C77.2503 88.5343 74.2734 87.4252 71.1946 87.4299C68.7263 87.4269 66.309 88.1336 64.23 89.466C62.1509 90.7983 60.4975 92.7004 59.4662 94.9462C58.4349 97.192 58.069 99.687 58.4121 102.135C58.7552 104.583 59.7927 106.881 61.4015 108.755L41.8748 128.31C15.0597 155.222 -8.16748e-05 191.687 -7.66894e-05 229.705C-7.17039e-05 267.723 15.0597 304.188 41.8748 331.1L143.024 432.355C148.764 438.102 153.317 444.925 156.423 452.434C159.529 459.944 161.128 467.992 161.128 476.12C161.128 484.248 159.529 492.297 156.423 499.806C153.317 507.315 148.764 514.138 143.024 519.885L132.854 530.07C119.519 543.365 108.951 559.179 101.763 576.594C94.5748 594.01 90.9096 612.68 90.9796 631.525C90.9412 650.329 94.6217 668.954 101.809 686.326C108.996 703.698 119.547 719.473 132.854 732.74L170 770L170 767.195L134.244 731.388ZM63.4674 108.099C61.94 106.568 60.8999 104.619 60.4788 102.497C60.0576 100.374 60.2743 98.1748 61.1014 96.1759C61.9284 94.1769 63.3288 92.4685 65.1253 91.2665C66.9219 90.0645 69.034 89.4228 71.1946 89.4228C73.3552 89.4228 75.4674 90.0645 77.2639 91.2665C79.0605 92.4685 80.4608 94.1769 81.2879 96.1759C82.115 98.1748 82.3316 100.374 81.9105 102.497C81.4893 104.619 80.4493 106.568 78.9219 108.099C76.8702 110.147 74.0915 111.297 71.1946 111.297C68.2978 111.297 65.519 110.147 63.4674 108.099Z" fill="black" fill-opacity="0.2"/>
<path d="M98.5126 184.274C86.6577 196.286 80 212.561 80 229.53C80 246.498 86.6577 262.774 98.5126 274.786L170 347L170 344.187L99.9139 273.369C94.2111 267.605 89.6873 260.761 86.6009 253.229C83.5145 245.696 81.926 237.623 81.9259 229.47C81.9259 221.317 83.5145 213.244 86.6009 205.712C89.6873 198.179 94.2111 191.336 99.9139 185.571L170 114.814L170 112L98.5126 184.274Z" fill="black" fill-opacity="0.2"/>
<path d="M169.882 724C168.442 724.018 167.013 723.743 165.68 723.19C164.346 722.637 163.136 721.817 162.121 720.781C160.098 718.713 158.962 715.916 158.962 713.001C158.962 710.087 160.098 707.29 162.121 705.222C163.136 704.185 164.346 703.366 165.68 702.813C167.013 702.26 168.442 701.984 169.882 702.003C169.882 702.003 169.882 702.003 170 702.003L170 700.003C166.922 699.963 163.933 701.057 161.589 703.082C143.164 684.051 132.867 658.416 132.929 631.731C132.907 618.306 135.508 605.01 140.579 592.612C145.651 580.213 153.093 568.959 162.475 559.499L170 551.84L170 549L161.018 558.139C141.947 577.528 131.164 603.761 131.002 631.16C130.84 658.56 141.311 684.922 160.151 704.542C158.144 706.889 157.038 709.893 157.039 713.001C157.037 714.711 157.369 716.404 158.015 717.982C158.66 719.561 159.607 720.995 160.801 722.2C161.985 723.411 163.394 724.37 164.946 725.022C166.498 725.675 168.163 726.007 169.842 726L170 726L170 724L169.882 724Z" fill="black" fill-opacity="0.2"/>
<path d="M70.2193 156.152C60.6386 165.778 53.0388 177.205 47.8537 189.782C42.6687 202.358 40 215.837 40 229.45C40 243.063 42.6687 256.542 47.8537 269.119C53.0388 281.695 60.6386 293.123 70.2193 302.748L170 403L170 400.193L71.6261 301.355C62.2275 291.912 54.7721 280.702 49.6857 268.365C44.5992 256.027 41.9812 242.804 41.9812 229.45C41.9812 216.096 44.5992 202.873 49.6856 190.536C54.7721 178.198 62.2275 166.988 71.6261 157.546L170 58.7073L170 56L70.2193 156.152Z" fill="black" fill-opacity="0.2"/>
<path d="M162.148 705.221C160.132 707.289 159 710.085 159 713C159 715.915 160.132 718.711 162.148 720.779C163.16 721.816 164.366 722.636 165.694 723.189C167.023 723.742 168.447 724.017 169.882 723.999L170 723.999L170 702.001C170 702.001 170 702.001 169.882 702.001C168.447 701.983 167.023 702.258 165.694 702.811C164.366 703.364 163.16 704.184 162.148 705.221Z" fill="#B078FF"/>
<path d="M78.78 107.769C80.3179 106.231 81.365 104.272 81.789 102.139C82.213 100.006 81.9949 97.7956 81.1622 95.7867C80.3295 93.7778 78.9196 92.0608 77.1107 90.8528C75.3019 89.6448 73.1754 89 71 89C68.8246 89 66.6981 89.6448 64.8893 90.8528C63.0804 92.0608 61.6705 93.7778 60.8378 95.7867C60.0051 97.7957 59.787 100.006 60.211 102.139C60.635 104.272 61.6821 106.231 63.22 107.769C64.2402 108.793 65.4526 109.606 66.7877 110.16C68.1228 110.715 69.5543 111 71 111C72.4457 111 73.8772 110.715 75.2123 110.16C76.5474 109.606 77.7598 108.793 78.78 107.769Z" fill="#FBEE81"/>
</svg>
