<svg width="21" height="20" viewBox="0 0 21 20" fill="none" xmlns="http://www.w3.org/2000/svg">
<path d="M13.8333 2.5C14.0543 2.5 14.2663 2.5878 14.4226 2.74408C14.5789 2.90036 14.6667 3.11232 14.6667 3.33333V4.16667H16.3333C16.7754 4.16667 17.1993 4.34226 17.5118 4.65482C17.8244 4.96738 18 5.39131 18 5.83333V15.8333C18 16.2754 17.8244 16.6993 17.5118 17.0118C17.1993 17.3244 16.7754 17.5 16.3333 17.5H4.66667C4.22464 17.5 3.80072 17.3244 3.48816 17.0118C3.17559 16.6993 3 16.2754 3 15.8333V5.83333C3 5.39131 3.17559 4.96738 3.48816 4.65482C3.80072 4.34226 4.22464 4.16667 4.66667 4.16667H6.33333V3.33333C6.33333 3.11232 6.42113 2.90036 6.57741 2.74408C6.73369 2.5878 6.94565 2.5 7.16667 2.5C7.38768 2.5 7.59964 2.5878 7.75592 2.74408C7.9122 2.90036 8 3.11232 8 3.33333V4.16667H13V3.33333C13 3.11232 13.0878 2.90036 13.2441 2.74408C13.4004 2.5878 13.6123 2.5 13.8333 2.5ZM16.3333 5.83333H4.66667V15.8333H16.3333V5.83333ZM12.8533 7.81583C13.0105 7.66403 13.221 7.58004 13.4395 7.58194C13.658 7.58384 13.867 7.67148 14.0215 7.82598C14.176 7.98049 14.2637 8.1895 14.2656 8.408C14.2675 8.6265 14.1835 8.837 14.0317 8.99417L9.91333 13.1133C9.83517 13.1916 9.74235 13.2536 9.64018 13.296C9.53802 13.3383 9.42851 13.3601 9.31792 13.3601C9.20732 13.3601 9.09781 13.3383 8.99565 13.296C8.89348 13.2536 8.80067 13.1916 8.7225 13.1133L6.96083 11.35C6.80903 11.1928 6.72504 10.9823 6.72694 10.7638C6.72884 10.5453 6.81648 10.3363 6.97098 10.1818C7.12549 10.0273 7.3345 9.93967 7.553 9.93777C7.7715 9.93587 7.982 10.0199 8.13917 10.1717L9.31833 11.35L12.8533 7.81583Z" fill="white"/>
</svg>
