<svg width="566" height="483" viewBox="0 0 566 483" fill="none" xmlns="http://www.w3.org/2000/svg">
<g clip-path="url(#clip0_3975_54302)">
<path opacity="0.19" d="M516.096 90.6318C497.52 66.9716 470.513 57.1651 455.791 68.7228C442.975 78.7887 443.714 101.722 456.387 123.113C454.156 127.173 450.083 132.232 443.195 134.112C443.195 134.112 457.723 138.951 468.451 138.717C473.289 143.724 477.298 146.98 477.298 146.98C493.59 159.602 511.893 163.195 523.087 154.4C537.81 142.855 534.684 114.305 516.096 90.6318Z" fill="#C372EE"/>
<path opacity="0.19" d="M425.061 55.0115C426.41 54.5446 427.668 53.883 428.81 52.988C437.423 46.2168 435.594 29.5094 424.724 15.6558C413.854 1.80215 398.041 -3.93129 389.428 2.83987C380.945 9.49429 382.605 25.7736 393.008 39.4846C397.198 44.7251 402.011 48.6425 402.011 48.6425C406.006 51.7427 410.209 53.9089 414.23 54.9986C422.233 67.7237 434.102 65.1812 434.102 65.1812C429.731 64.0916 426.799 59.1624 425.061 55.0115Z" fill="white"/>
<path opacity="0.19" d="M35.265 190.177C53.8403 166.517 80.8471 156.71 95.5698 168.268C108.386 178.334 107.646 201.267 94.9732 222.658C97.2043 226.718 101.277 231.777 108.165 233.657C108.165 233.657 93.6371 238.496 82.9096 238.262C78.0712 243.269 74.063 246.525 74.063 246.525C57.7707 259.147 39.4678 262.74 28.2733 253.945C13.5636 242.387 16.6897 213.837 35.265 190.177Z" fill="#C372EE"/>
<path opacity="0.19" d="M104.195 133.076C102.846 132.609 101.588 131.947 100.447 131.052C91.8335 124.281 93.6625 107.574 104.533 93.7202C115.403 79.8666 131.215 74.1332 139.828 80.9043C148.312 87.5587 146.651 103.838 136.248 117.549C132.058 122.79 127.246 126.707 127.246 126.707C123.251 129.807 119.048 131.973 115.027 133.063C107.023 145.788 95.1542 143.246 95.1542 143.246C99.5126 142.156 102.444 137.227 104.195 133.076Z" fill="#C372EE"/>
<path d="M424.22 421.303L298.396 335.081C293.311 332.215 290.172 326.818 276.215 323.602L278.537 34.9451C292.533 26.6174 297.242 22.1163 302.236 24.8922L432.509 97.3903C437.101 99.9457 439.968 104.758 440.02 110.012L443.029 407.826C443.068 411.821 424.22 421.303 424.22 421.303Z" fill="#C372EE" fill-opacity="0.53"/>
<path d="M424.22 421.303L298.396 335.081C293.311 332.215 290.172 326.818 276.215 323.602L278.537 34.9451C292.533 26.6174 297.242 22.1163 302.236 24.8922L432.509 97.3903C437.101 99.9457 439.968 104.758 440.02 110.012L443.029 407.826C443.068 411.821 424.22 421.303 424.22 421.303Z" fill="#C372EE" fill-opacity="0.53"/>
<path d="M420.315 421.252L283.452 343.941C278.367 341.074 275.228 335.678 275.254 329.841L276.149 40.2767C276.162 34.5692 282.298 30.9761 287.292 33.752L417.565 106.25C422.157 108.806 425.024 113.618 425.076 118.871L428.085 416.686C428.111 420.681 423.804 423.223 420.315 421.252Z" fill="#59569F"/>
<mask id="mask0_3975_54302" style="mask-type:luminance" maskUnits="userSpaceOnUse" x="275" y="32" width="154" height="390">
<path d="M420.315 421.252L283.452 343.941C278.367 341.074 275.228 335.678 275.254 329.841L276.149 40.2767C276.162 34.5692 282.298 30.9761 287.292 33.752L417.565 106.25C422.157 108.806 425.024 113.618 425.076 118.871L428.085 416.686C428.111 420.681 423.804 423.223 420.315 421.252Z" fill="white"/>
</mask>
<g mask="url(#mask0_3975_54302)">
<path d="M423.935 160.835L260.48 69.2168L260.363 291.537L446.817 392.403L445.156 167.1L423.935 160.835Z" fill="url(#paint0_linear_3975_54302)"/>
<path d="M423.935 160.835L260.48 69.2168L260.363 291.537L446.817 392.403L445.156 167.1L423.935 160.835Z" fill="#A700FF" fill-opacity="0.2"/>
</g>
<path opacity="0.77" d="M335.078 345.913C339.203 343.461 345.987 347.275 350.228 354.435C354.47 361.583 354.561 369.366 350.436 371.817C346.311 374.269 339.527 370.455 335.285 363.295C331.044 356.147 330.953 348.365 335.078 345.913Z" fill="#2E2E2E"/>
<path opacity="0.4" d="M384.812 178.373L386.058 134.62C386.213 129.042 392.206 125.605 397.11 128.277L497.328 184.197C501.855 186.662 504.67 191.396 504.67 196.546V220.933C504.67 227.47 497.678 231.647 491.919 228.521L392.349 173.145L384.812 178.373Z" fill="url(#paint1_linear_3975_54302)"/>
<path d="M470.372 204.459L474.251 204.368L478.869 208.792L478.752 203.629L481.943 201.618L477.325 197.195L475.263 191.436L472.098 194.73L466.922 194.198L470.256 198.648L470.372 204.459Z" fill="#FFD255"/>
<path d="M453.38 195.133L457.259 195.042L461.877 199.465L461.76 194.303L464.951 192.305L460.333 187.882L458.27 182.109L455.105 185.404L449.93 184.872L453.263 189.322L453.38 195.133Z" fill="#FFD255"/>
<path d="M436.376 185.157L440.255 185.079L444.873 189.502L444.756 184.34L447.947 182.329L443.329 177.906L441.266 172.146L438.114 175.441L432.926 174.896L436.259 179.359L436.376 185.157Z" fill="#FFD255"/>
<path d="M419.368 175.195L423.247 175.118L427.865 179.528L427.748 174.365L430.939 172.368L426.321 167.944L424.259 162.172L421.107 165.467L415.918 164.935L419.252 169.384L419.368 175.195Z" fill="#FFD255"/>
<path d="M401.728 165.246L405.593 165.155L410.211 169.579L410.094 164.416L413.285 162.405L408.668 157.982L406.605 152.223L403.453 155.517L398.277 154.986L401.598 159.435L401.728 165.246Z" fill="#FFD255"/>
<path d="M295.114 130.845L294.569 242.698C294.556 245.007 292.053 246.434 290.068 245.267L141.894 158.396C139.663 157.086 138.288 154.686 138.301 152.092L138.807 47.9044C138.833 42.2228 144.994 38.7075 149.897 41.5613L291.015 123.697C293.558 125.176 295.127 127.9 295.114 130.845Z" fill="url(#paint2_linear_3975_54302)"/>
<g opacity="0.35">
<path d="M263.775 169.812L263.723 181.253L255.512 176.389L255.577 164.961L263.775 169.812Z" fill="#FCFCFC"/>
<path d="M233.11 151.69L233.058 163.092L207.141 147.746L207.193 136.357L233.11 151.69Z" fill="#FCFCFC"/>
<path d="M192.42 145.087L192.407 149.264L182.898 143.648L182.924 139.471L192.42 145.087Z" fill="#FCFCFC"/>
<path d="M181.909 79.7763L181.871 88.143L162.867 76.8837L162.906 68.543L181.909 79.7763Z" fill="#FCFCFC"/>
<path d="M277.951 194.886L277.938 199.063L268.43 193.446L268.456 189.27L277.951 194.886Z" fill="#FCFCFC"/>
<path d="M159.522 108.184L204.663 134.867L204.611 146.243L159.418 119.482C159.016 119.249 158.77 118.821 158.77 118.354L158.821 108.586C158.808 108.223 159.198 108.002 159.522 108.184Z" fill="#FCFCFC"/>
<path d="M253.849 163.936L253.785 175.364L234.781 164.118L234.833 152.703L253.849 163.936Z" fill="#FCFCFC"/>
<path d="M280.274 179.566C280.728 179.825 281.014 180.318 281.014 180.85L280.962 190.514C280.962 190.929 280.508 191.188 280.158 190.968L265.461 182.264L265.513 170.836L280.274 179.566Z" fill="#FCFCFC"/>
</g>
<path d="M275.215 134.348L282.206 138.421C282.66 138.68 282.946 139.173 282.946 139.705L282.894 150.666L275.176 145.879L275.215 134.348Z" fill="#FFD255"/>
<path d="M282.882 151.676L282.843 159.758C282.843 160.173 282.389 160.432 282.039 160.212L275.125 156.152L275.164 146.877L282.882 151.676Z" fill="#FFD255"/>
<path d="M254.859 133.27L254.911 123.334C254.911 122.971 255.3 122.75 255.612 122.932L264.419 128.056L264.368 139.16L254.859 133.27Z" fill="#FFD255"/>
<path d="M265.227 139.705L265.278 128.562L274.346 133.842L274.294 145.335L265.227 139.705Z" fill="#FFD255"/>
<path d="M274.291 146.346L274.239 155.66L265.172 150.342L265.224 140.717L274.291 146.346Z" fill="#FFD255"/>
<path d="M264.357 140.184L264.305 149.835L255.445 144.646C255.043 144.413 254.797 143.985 254.797 143.518L254.836 134.295L264.357 140.184Z" fill="#FFD255"/>
<path d="M165.683 145.71C155.5 132.751 140.713 127.381 132.657 133.711C124.719 139.937 126.275 155.166 136.004 168.008C139.921 172.911 144.422 176.582 144.422 176.582C153.347 183.496 163.374 185.468 169.509 180.655C177.565 174.312 175.852 158.668 165.683 145.71Z" fill="url(#paint3_linear_3975_54302)"/>
<path d="M163.738 162.909C159.937 164.22 156.137 165.53 152.336 166.84C153.062 167.138 153.789 167.437 154.515 167.722C149.599 159.926 144.696 152.143 139.78 144.347C138.456 142.246 135.11 144.191 136.446 146.293C141.362 154.089 146.265 161.872 151.182 169.668C151.61 170.355 152.544 170.835 153.361 170.55C157.161 169.24 160.962 167.929 164.763 166.619C167.111 165.828 166.099 162.105 163.738 162.909Z" fill="white"/>
<path d="M234.446 29.8731C234.407 25.5795 232.085 21.6232 228.336 19.5088L197.451 2.02312C194.74 0.4795 191.367 2.45118 191.367 5.56436V31.0405C191.367 33.2716 192.561 35.3341 194.493 36.4497L209.45 45.0758L220.553 63.9883V51.4707L227.584 55.5308C230.736 57.3469 234.666 55.0509 234.627 51.4189L234.446 29.8731Z" fill="url(#paint4_linear_3975_54302)"/>
<path d="M204.882 25.6956C204.882 28.4845 203.702 30.7545 202.236 30.7545C200.77 30.7545 199.59 28.4975 199.59 25.6956C199.59 22.9067 200.77 20.6367 202.236 20.6367C203.702 20.6497 204.882 22.9067 204.882 25.6956Z" fill="white"/>
<path d="M215.507 30.8597C215.507 33.6486 214.327 35.9186 212.861 35.9186C211.395 35.9186 210.215 33.6616 210.215 30.8597C210.215 28.0708 211.395 25.8008 212.861 25.8008C214.314 25.8008 215.507 28.0578 215.507 30.8597Z" fill="white"/>
<path d="M226.027 36.8656C226.027 39.6544 224.846 41.9245 223.381 41.9245C221.915 41.9245 220.734 39.6674 220.734 36.8656C220.734 34.0767 221.915 31.8066 223.381 31.8066C224.833 31.8066 226.027 34.0767 226.027 36.8656Z" fill="white"/>
<path opacity="0.55" d="M413.531 207.622L410.794 322.083C410.664 327.363 404.957 330.593 400.365 327.973C375.849 313.924 314.221 278.655 298.668 269.925C296.437 268.68 295.088 266.306 295.114 263.763L296.592 150.21C296.657 144.931 302.339 141.636 306.944 144.217C327.4 155.632 374.5 181.861 409.912 201.37C412.208 202.615 413.596 205.028 413.531 207.622Z" fill="#6998E1"/>
<path d="M407.965 211.333L405.228 325.794C405.098 331.074 399.39 334.304 394.799 331.684C370.282 317.635 308.654 282.366 293.101 273.636C290.87 272.39 289.521 270.017 289.547 267.474L291.026 153.921C291.091 148.642 296.772 145.347 301.377 147.928C321.833 159.343 368.933 185.572 404.346 205.081C406.655 206.326 408.03 208.739 407.965 211.333Z" fill="url(#paint5_linear_3975_54302)"/>
<path d="M435.569 226.833L434.648 265.333C434.609 267.11 432.689 268.2 431.146 267.317C422.896 262.596 402.167 250.727 396.94 247.795C396.187 247.38 395.733 246.576 395.746 245.72L396.239 207.519C396.265 205.741 398.172 204.639 399.729 205.495C406.604 209.335 422.455 218.155 434.363 224.719C435.128 225.147 435.595 225.951 435.569 226.833Z" fill="url(#paint6_linear_3975_54302)"/>
<path d="M427.154 231.531C425.921 229.131 423.094 226.005 420.058 227.276C416.751 228.664 417.464 233.373 418.761 235.902C419.993 238.315 422.912 241.376 425.895 239.975C429.099 238.483 428.282 234.073 427.154 231.531C426.622 230.337 424.871 231.375 425.403 232.555C426.012 233.93 427.011 237.51 424.871 238.211C422.99 238.834 421.213 236.265 420.512 234.877C419.825 233.502 418.761 229.572 421.109 229.079C423.042 228.664 424.663 231.141 425.39 232.555C425.999 233.723 427.75 232.685 427.154 231.531Z" fill="#FEFFFF"/>
<path d="M411.392 238.288C410.328 235.81 407.682 232.529 404.569 233.644C401.326 234.799 401.611 239.391 402.662 241.933C403.713 244.488 406.372 247.861 409.537 246.733C412.793 245.578 412.43 241.103 411.496 238.547C411.055 237.328 409.083 237.86 409.537 239.092C410.069 240.558 410.925 244.034 408.862 244.813C406.982 245.513 405.308 242.88 404.673 241.479C404.037 240.078 403.116 236.057 405.438 235.512C407.448 235.045 409.031 237.886 409.641 239.326C410.147 240.519 411.898 239.481 411.392 238.288Z" fill="#FEFFFF"/>
<path d="M409.396 225.264C412.509 233.514 415.622 241.751 418.735 250.001C419.189 251.207 421.161 250.689 420.694 249.456C417.581 241.206 414.468 232.969 411.354 224.72C410.887 223.513 408.929 224.032 409.396 225.264Z" fill="#FEFFFF"/>
<path d="M433.325 99.5835C422.455 85.7299 406.643 79.9964 398.03 86.7676C389.546 93.422 391.207 109.701 401.61 123.412C405.8 128.653 410.612 132.57 410.612 132.57C420.146 139.964 430.861 142.065 437.411 136.916C446.038 130.145 444.209 113.437 433.325 99.5835Z" fill="url(#paint7_linear_3975_54302)"/>
<path d="M417.098 113.124C411.767 105.912 408.9 101.891 407.344 99.6211L407.915 114.318L427.878 126.498L428.397 126.2V111.166L417.358 113.462L417.098 113.124Z" fill="white"/>
<path d="M427.787 109.921L408.355 98.7266C410.613 101.982 414.88 107.846 417.928 111.971L427.787 109.921Z" fill="white"/>
<path opacity="0.38" d="M357.974 213.188C355.951 216.742 352.825 219.22 349.05 219.816C341.319 221.01 333.795 213.849 332.239 203.796C331.953 201.941 331.889 200.112 332.031 198.361L298.098 178.969V207.286L317.918 218.299V283.74L368.884 312.057V246.615L387.29 256.837V229.934L357.974 213.188Z" fill="#2D4E7F"/>
<path d="M343.521 215.237C341.498 218.791 338.372 221.268 334.597 221.865C326.866 223.058 319.342 215.898 317.786 205.845C317.5 203.99 317.435 202.161 317.578 200.41L283.645 181.018V209.335L303.465 220.347V285.789L354.43 314.106V248.664L372.837 258.886V231.983L343.521 215.237Z" fill="url(#paint8_linear_3975_54302)"/>
<path d="M507.51 332.227L468.258 309.553V314.91L507.51 337.571V332.227Z" fill="#C372EE" fill-opacity="0.2"/>
<path d="M508.248 341.517L468.256 319.595L462.912 316.663L441.496 304.924V310.203L462.912 321.943L468.256 324.874L508.365 346.861L508.248 341.517Z" fill="#C372EE" fill-opacity="0.2"/>
<path d="M436.151 307.271V301.992L379.984 271.197L380.101 276.555L436.151 307.271Z" fill="#C372EE" fill-opacity="0.4"/>
<path d="M441.496 315.625L436.151 312.693L379.984 281.898L380.101 287.256L436.151 317.972L441.496 320.917L462.912 332.643L468.256 335.575V330.295L462.912 327.364L441.496 315.625Z" fill="#C372EE" fill-opacity="0.2"/>
<path d="M427.226 290.408V285.855L380.84 259.068V264.426L427.226 291.212V290.408Z" fill="#C372EE" fill-opacity="0.6"/>
<path d="M462.911 306.467L432.57 288.955V290.187V293.495V294.299L462.911 311.824V306.467Z" fill="#C372EE" fill-opacity="0.2"/>
<path d="M110.954 294.441C110.487 290.899 106.622 259.638 116.415 253.476C119.009 251.842 121.033 252.296 122.291 252.97C129.036 256.602 130.463 276.605 130.71 288.214L127.687 288.279C127.298 270.469 124.613 257.666 120.851 255.63C120.345 255.357 119.489 255.098 118.024 256.032C111.11 260.39 112.731 284.945 113.95 294.038L110.954 294.441Z" fill="url(#paint9_linear_3975_54302)"/>
<path d="M167.54 249.572L171.224 279.77L157.215 261.908L167.54 249.572Z" fill="url(#paint10_linear_3975_54302)"/>
<path opacity="0.7" d="M167.54 249.572L171.224 279.77L157.215 261.908L167.54 249.572Z" fill="url(#paint11_linear_3975_54302)"/>
<path d="M105.794 403.818L101.383 409.966L79.9414 398.318L83.8848 301.342L106.455 294.805L105.794 403.818Z" fill="url(#paint12_linear_3975_54302)"/>
<mask id="mask1_3975_54302" style="mask-type:luminance" maskUnits="userSpaceOnUse" x="79" y="294" width="28" height="116">
<path d="M105.794 403.818L101.383 409.966L79.9414 398.318L83.8848 301.342L106.455 294.805L105.794 403.818Z" fill="white"/>
</mask>
<g mask="url(#mask1_3975_54302)">
<path opacity="0.21" d="M97.5062 301.057L91.9414 393.518L109.245 423.417L105.172 305.428L97.5062 301.057Z" fill="url(#paint13_linear_3975_54302)"/>
</g>
<mask id="mask2_3975_54302" style="mask-type:luminance" maskUnits="userSpaceOnUse" x="79" y="294" width="28" height="116">
<path d="M105.794 403.818L101.383 409.966L79.9414 398.318L83.8848 301.342L106.455 294.805L105.794 403.818Z" fill="white"/>
</mask>
<g mask="url(#mask2_3975_54302)">
<path opacity="0.34" d="M76.9453 399.9L91.9404 393.518L104.536 415.958L76.9453 399.9Z" fill="url(#paint14_linear_3975_54302)"/>
</g>
<path d="M99.2801 313.12L97.503 301.056L83.8828 301.342L167.536 249.572L161.712 260.3L182.934 261.35L99.2801 313.12Z" fill="url(#paint15_linear_3975_54302)"/>
<mask id="mask3_3975_54302" style="mask-type:luminance" maskUnits="userSpaceOnUse" x="83" y="249" width="100" height="65">
<path d="M99.2801 313.12L97.503 301.056L83.8828 301.342L167.536 249.572L161.712 260.3L182.934 261.35L99.2801 313.12Z" fill="white"/>
</mask>
<g mask="url(#mask3_3975_54302)">
<path opacity="0.43" d="M161.711 260.3L161.867 261.804L167.431 314.677L196.643 265.592L178.263 255.396" fill="url(#paint16_linear_3975_54302)"/>
</g>
<g opacity="0.55">
<path d="M99.2801 313.12L97.503 301.056L83.8828 301.342L167.536 249.572L161.712 260.3L182.934 261.35L99.2801 313.12Z" fill="url(#paint17_linear_3975_54302)"/>
<mask id="mask4_3975_54302" style="mask-type:luminance" maskUnits="userSpaceOnUse" x="83" y="249" width="100" height="65">
<path d="M99.2801 313.12L97.503 301.056L83.8828 301.342L167.536 249.572L161.712 260.3L182.934 261.35L99.2801 313.12Z" fill="white"/>
</mask>
<g mask="url(#mask4_3975_54302)">
<path opacity="0.43" d="M161.711 260.3L161.867 261.804L167.431 314.677L196.643 265.592L178.263 255.396" fill="url(#paint18_linear_3975_54302)"/>
</g>
</g>
<path d="M145.461 284.506C144.592 274.025 142.504 262.635 137.575 259.976C136.316 259.302 134.293 258.848 131.698 260.482C123.786 265.463 124.785 286.84 125.706 296.725L99.2695 313.134L101.371 409.98L185.051 359.715L182.91 261.364L145.461 284.506ZM128.611 294.922C127.729 283.857 127.638 266.618 133.32 263.038C134.786 262.117 135.642 262.363 136.148 262.635C139.235 264.296 141.596 273.259 142.556 286.296L132.139 292.73L128.611 294.922Z" fill="url(#paint19_linear_3975_54302)"/>
<path d="M90.0954 355.343C89.7322 352.619 86.7747 328.635 94.2853 323.9C96.2699 322.642 97.8395 322.992 98.7994 323.511C103.975 326.3 105.078 341.658 105.259 350.557L102.937 350.609C102.639 336.937 100.576 327.104 97.6968 325.548C97.3076 325.34 96.6591 325.145 95.5305 325.846C90.2252 329.193 91.4704 348.04 92.4044 355.019L90.0954 355.343Z" fill="url(#paint20_linear_3975_54302)"/>
<path d="M133.539 320.904L136.367 344.085L125.613 330.374L133.539 320.904Z" fill="url(#paint21_linear_3975_54302)"/>
<path d="M133.539 320.904L136.367 344.085L125.613 330.374L133.539 320.904Z" fill="url(#paint22_linear_3975_54302)"/>
<path d="M86.1395 439.295L82.7539 444.016L66.293 435.079L69.3283 360.648L86.6454 355.615L86.1395 439.295Z" fill="url(#paint23_linear_3975_54302)"/>
<mask id="mask5_3975_54302" style="mask-type:luminance" maskUnits="userSpaceOnUse" x="66" y="355" width="21" height="90">
<path d="M86.1395 439.295L82.7539 444.016L66.293 435.079L69.3283 360.648L86.6454 355.615L86.1395 439.295Z" fill="white"/>
</mask>
<g mask="url(#mask5_3975_54302)">
<path opacity="0.21" d="M79.7833 360.414L75.5156 431.395L88.7855 454.341L85.6594 363.774L79.7833 360.414Z" fill="url(#paint24_linear_3975_54302)"/>
</g>
<mask id="mask6_3975_54302" style="mask-type:luminance" maskUnits="userSpaceOnUse" x="66" y="355" width="21" height="90">
<path d="M86.1395 439.295L82.7539 444.016L66.293 435.079L69.3283 360.648L86.6454 355.615L86.1395 439.295Z" fill="white"/>
</mask>
<g mask="url(#mask6_3975_54302)">
<path opacity="0.34" d="M63.9961 436.285L75.5148 431.395L85.1787 448.608L63.9961 436.285Z" fill="url(#paint25_linear_3975_54302)"/>
</g>
<path d="M81.1452 369.677L79.7832 360.416L69.3281 360.649L133.537 320.904L129.062 329.128L145.354 329.945L81.1452 369.677Z" fill="url(#paint26_linear_3975_54302)"/>
<mask id="mask7_3975_54302" style="mask-type:luminance" maskUnits="userSpaceOnUse" x="69" y="320" width="77" height="50">
<path d="M81.1452 369.677L79.7832 360.416L69.3281 360.649L133.537 320.904L129.062 329.128L145.354 329.945L81.1452 369.677Z" fill="white"/>
</mask>
<g mask="url(#mask7_3975_54302)">
<path opacity="0.43" d="M129.062 329.129L129.192 330.296L133.46 370.871L155.875 333.202L141.762 325.367" fill="url(#paint27_linear_3975_54302)"/>
</g>
<g opacity="0.35">
<path d="M81.1452 369.677L79.7832 360.416L69.3281 360.649L133.537 320.904L129.062 329.128L145.354 329.945L81.1452 369.677Z" fill="#5E1C3A"/>
<mask id="mask8_3975_54302" style="mask-type:luminance" maskUnits="userSpaceOnUse" x="69" y="320" width="77" height="50">
<path d="M81.1452 369.677L79.7832 360.416L69.3281 360.649L133.537 320.904L129.062 329.128L145.354 329.945L81.1452 369.677Z" fill="white"/>
</mask>
<g mask="url(#mask8_3975_54302)">
<path opacity="0.43" d="M129.062 329.129L129.192 330.296L133.46 370.871L155.875 333.202L141.762 325.367" fill="#5E1C3A"/>
</g>
</g>
<path d="M116.583 347.717C115.921 339.675 114.313 330.932 110.538 328.896C109.578 328.377 108.022 328.027 106.024 329.285C99.9533 333.112 100.719 349.521 101.432 357.096L81.1445 369.691L82.753 444.018L146.988 405.441L145.354 329.946L116.583 347.717ZM103.65 355.708C102.976 347.212 102.898 333.981 107.269 331.231C108.398 330.517 109.046 330.712 109.436 330.932C111.809 332.203 113.625 339.091 114.352 349.092L106.361 354.035L103.65 355.708Z" fill="url(#paint28_linear_3975_54302)"/>
<path d="M225.377 471.762C225.377 471.762 223.833 475.511 224.754 477.366C225.688 479.221 230.332 481.089 234.055 479.221C237.778 477.366 251.722 469.92 251.722 466.198C251.722 462.475 237.778 466.198 237.778 466.198L225.377 471.762Z" fill="#412D64"/>
<path d="M217.009 460.608C217.009 460.608 215.466 464.357 216.387 466.212C217.321 468.067 221.965 469.935 225.687 468.067C229.41 466.212 243.355 458.766 243.355 455.043C243.355 451.32 229.41 455.043 229.41 455.043L217.009 460.608Z" fill="#412D64"/>
<path d="M206.156 342.515C206.156 342.515 206.156 357.393 210.8 366.694C215.457 375.994 207.077 408.54 209.866 425.286C212.655 442.033 216.378 461.555 216.378 461.555C216.378 461.555 224.745 462.489 226.612 459.7L236.847 374.139L229.401 349.026C229.414 349.026 212.668 336.003 206.156 342.515Z" fill="url(#paint29_linear_3975_54302)"/>
<mask id="mask9_3975_54302" style="mask-type:luminance" maskUnits="userSpaceOnUse" x="206" y="340" width="31" height="122">
<path d="M206.156 342.515C206.156 342.515 206.156 357.393 210.8 366.694C215.457 375.994 207.077 408.54 209.866 425.286C212.655 442.033 216.378 461.555 216.378 461.555C216.378 461.555 224.745 462.489 226.612 459.7L236.847 374.139L229.401 349.026C229.414 349.026 212.668 336.003 206.156 342.515Z" fill="white"/>
</mask>
<g mask="url(#mask9_3975_54302)">
<path opacity="0.31" d="M222.879 362.764C222.879 362.764 209.894 474.086 226.29 468.767C237.731 465.057 237.602 366.383 222.879 362.764Z" fill="#4572B5"/>
</g>
<path d="M213.368 343.825C213.368 343.825 211.941 361.013 219.179 371.351C226.417 381.689 221.631 463.721 225.769 473.022C225.769 473.022 237.132 474.06 241.27 467.859C241.27 467.859 240.232 426.519 242.308 418.243C244.37 409.98 252.438 360.26 246.238 344.759C240.038 329.245 213.368 343.825 213.368 343.825Z" fill="url(#paint30_linear_3975_54302)"/>
<path d="M259.168 302.522C259.168 302.522 280.558 296.944 285.215 293.221C289.859 289.499 310.328 269.042 310.328 269.042C310.328 269.042 322.417 263.465 321.483 258.808C320.549 254.151 315.905 252.296 315.905 252.296C315.905 252.296 324.272 242.996 321.483 241.141C321.483 241.141 313.117 250.441 312.183 250.441C311.249 250.441 304.737 255.098 304.737 262.531C304.737 262.531 280.558 281.132 278.703 281.132C276.848 281.132 249.867 286.71 249.867 286.71L259.168 302.522Z" fill="url(#paint31_linear_3975_54302)"/>
<path d="M214.534 267.175C214.534 267.175 200.59 263.453 196.867 272.753C193.144 282.054 199.656 304.378 202.445 310.89C205.234 317.401 204.3 342.514 204.3 342.514C204.3 342.514 217.323 361.116 229.413 353.67C241.502 346.224 248.014 350.881 248.014 350.881C248.014 350.881 253.592 293.222 246.159 285.777C238.713 278.344 225.69 267.175 214.534 267.175Z" fill="url(#paint32_linear_3975_54302)"/>
<path d="M258.236 282.988C258.236 282.988 246.147 282.988 241.49 282.988C236.833 282.988 232.19 284.843 231.256 287.632C230.322 290.421 227.533 303.444 239.622 305.299C251.712 307.154 261.946 303.444 261.946 303.444L258.236 282.988Z" fill="url(#paint33_linear_3975_54302)"/>
<path d="M214.535 262.532C214.535 263.466 214.535 269.043 212.68 270.898C212.68 270.898 221.046 281.133 232.215 274.621C232.215 274.621 230.97 266.254 232.993 262.532C234.991 258.809 214.535 262.532 214.535 262.532Z" fill="url(#paint34_linear_3975_54302)"/>
<path d="M237.78 250.91C237.78 259.38 232.579 266.255 226.158 266.255C219.737 266.255 214.535 259.38 214.535 250.91C214.535 242.439 222.993 232.775 229.414 232.775C235.834 232.775 237.78 242.426 237.78 250.91Z" fill="url(#paint35_linear_3975_54302)"/>
<path d="M234.056 255.086C234.056 255.086 235.911 248.574 234.056 245.785C234.056 245.785 233.122 241.141 235.911 239.273C238.7 237.418 235.911 220.672 219.165 228.118C219.165 228.118 217.31 229.973 219.165 230.907C221.019 231.841 219.165 232.762 218.231 233.696C217.297 234.63 219.165 232.762 219.165 232.762C219.165 232.762 201.497 239.273 206.141 253.218C206.141 253.218 208.93 264.373 218.231 266.241C218.231 266.241 222.874 267.175 226.597 264.386C230.32 261.597 229.386 257.875 229.386 257.875C229.386 257.875 226.597 255.086 228.452 252.297C230.333 249.508 234.056 255.086 234.056 255.086Z" fill="url(#paint36_linear_3975_54302)"/>
<path d="M234.612 252.492C234.612 252.492 234.988 255.086 237.777 254.152C237.777 254.152 241.5 263.453 237.777 266.242C234.055 269.03 231.266 266.242 231.266 266.242C231.266 266.242 234.988 256.007 233.121 252.297C231.266 248.587 234.612 252.492 234.612 252.492Z" fill="url(#paint37_linear_3975_54302)"/>
</g>
<defs>
<linearGradient id="paint0_linear_3975_54302" x1="448.802" y1="391.225" x2="258.494" y2="70.4024" gradientUnits="userSpaceOnUse">
<stop offset="0.00232873" stop-color="#7CABDB"/>
<stop offset="1" stop-color="#80C7D7"/>
</linearGradient>
<linearGradient id="paint1_linear_3975_54302" x1="384.807" y1="178.469" x2="504.663" y2="178.469" gradientUnits="userSpaceOnUse">
<stop offset="0.00086388" stop-color="#C1E4FF"/>
<stop offset="1" stop-color="#E7FFE3"/>
</linearGradient>
<linearGradient id="paint2_linear_3975_54302" x1="138.305" y1="143.111" x2="295.108" y2="143.111" gradientUnits="userSpaceOnUse">
<stop offset="0.013" stop-color="#902793"/>
<stop offset="1" stop-color="#D822D3"/>
</linearGradient>
<linearGradient id="paint3_linear_3975_54302" x1="127.574" y1="157.172" x2="174.591" y2="157.172" gradientUnits="userSpaceOnUse">
<stop offset="0.00766226" stop-color="#00C28B"/>
<stop offset="1" stop-color="#00FC90"/>
</linearGradient>
<linearGradient id="paint4_linear_3975_54302" x1="191.361" y1="32.7323" x2="234.623" y2="32.7323" gradientUnits="userSpaceOnUse">
<stop offset="0.00914588" stop-color="#FFB141"/>
<stop offset="1" stop-color="#FFD822"/>
</linearGradient>
<linearGradient id="paint5_linear_3975_54302" x1="275.78" y1="166.371" x2="421.582" y2="312.173" gradientUnits="userSpaceOnUse">
<stop offset="0.00914588" stop-color="#0061D2"/>
<stop offset="1" stop-color="#00D8D0"/>
</linearGradient>
<linearGradient id="paint6_linear_3975_54302" x1="395.742" y1="236.411" x2="435.571" y2="236.411" gradientUnits="userSpaceOnUse">
<stop offset="0.00212215" stop-color="#935DF2"/>
<stop offset="1" stop-color="#5E61EC"/>
</linearGradient>
<linearGradient id="paint7_linear_3975_54302" x1="392.609" y1="111.833" x2="442.851" y2="111.833" gradientUnits="userSpaceOnUse">
<stop offset="0.00766226" stop-color="#00C28B"/>
<stop offset="1" stop-color="#00FC90"/>
</linearGradient>
<linearGradient id="paint8_linear_3975_54302" x1="283.643" y1="247.556" x2="372.835" y2="247.556" gradientUnits="userSpaceOnUse">
<stop offset="0.00212215" stop-color="white"/>
<stop offset="0.9968" stop-color="#D7E7FB"/>
</linearGradient>
<linearGradient id="paint9_linear_3975_54302" x1="109.702" y1="273.525" x2="130.383" y2="273.076" gradientUnits="userSpaceOnUse">
<stop offset="0.00212215" stop-color="#935DF2"/>
<stop offset="1" stop-color="#5E61EC"/>
</linearGradient>
<linearGradient id="paint10_linear_3975_54302" x1="163.757" y1="249.655" x2="164.414" y2="279.918" gradientUnits="userSpaceOnUse">
<stop offset="0.00212215" stop-color="#935DF2"/>
<stop offset="1" stop-color="#5E61EC"/>
</linearGradient>
<linearGradient id="paint11_linear_3975_54302" x1="163.757" y1="249.655" x2="164.414" y2="279.918" gradientUnits="userSpaceOnUse">
<stop offset="0.00212215" stop-color="#935DF2"/>
<stop offset="1" stop-color="#5E61EC"/>
</linearGradient>
<linearGradient id="paint12_linear_3975_54302" x1="92.0774" y1="295.115" x2="94.5734" y2="410.115" gradientUnits="userSpaceOnUse">
<stop offset="0.00212215" stop-color="#935DF2"/>
<stop offset="1" stop-color="#5E61EC"/>
</linearGradient>
<linearGradient id="paint13_linear_3975_54302" x1="98.2639" y1="301.036" x2="100.924" y2="423.601" gradientUnits="userSpaceOnUse">
<stop offset="0.00212215" stop-color="#935DF2"/>
<stop offset="1" stop-color="#5E61EC"/>
</linearGradient>
<linearGradient id="paint14_linear_3975_54302" x1="90.4309" y1="393.552" x2="90.9235" y2="416.249" gradientUnits="userSpaceOnUse">
<stop offset="0.00212215" stop-color="#935DF2"/>
<stop offset="1" stop-color="#5E61EC"/>
</linearGradient>
<linearGradient id="paint15_linear_3975_54302" x1="83.4732" y1="282.432" x2="183.341" y2="280.265" gradientUnits="userSpaceOnUse">
<stop offset="0.00212215" stop-color="#935DF2"/>
<stop offset="1" stop-color="#5E61EC"/>
</linearGradient>
<linearGradient id="paint16_linear_3975_54302" x1="162.254" y1="285.263" x2="197.057" y2="284.508" gradientUnits="userSpaceOnUse">
<stop offset="0.00212215" stop-color="#935DF2"/>
<stop offset="1" stop-color="#5E61EC"/>
</linearGradient>
<linearGradient id="paint17_linear_3975_54302" x1="83.4732" y1="282.432" x2="183.341" y2="280.265" gradientUnits="userSpaceOnUse">
<stop offset="0.00212215" stop-color="#935DF2"/>
<stop offset="1" stop-color="#5E61EC"/>
</linearGradient>
<linearGradient id="paint18_linear_3975_54302" x1="162.254" y1="285.263" x2="197.057" y2="284.508" gradientUnits="userSpaceOnUse">
<stop offset="0.00212215" stop-color="#935DF2"/>
<stop offset="1" stop-color="#5E61EC"/>
</linearGradient>
<linearGradient id="paint19_linear_3975_54302" x1="99.7568" y1="335.066" x2="184.495" y2="333.227" gradientUnits="userSpaceOnUse">
<stop offset="0.00212215" stop-color="#935DF2"/>
<stop offset="1" stop-color="#5E61EC"/>
</linearGradient>
<linearGradient id="paint20_linear_3975_54302" x1="89.143" y1="339.288" x2="105.017" y2="338.944" gradientUnits="userSpaceOnUse">
<stop offset="0.00531476" stop-color="#F88A72"/>
<stop offset="1" stop-color="#F261EC"/>
</linearGradient>
<linearGradient id="paint21_linear_3975_54302" x1="130.632" y1="320.967" x2="131.136" y2="344.195" gradientUnits="userSpaceOnUse">
<stop offset="0.00212215" stop-color="#935DF2"/>
<stop offset="1" stop-color="#5E61EC"/>
</linearGradient>
<linearGradient id="paint22_linear_3975_54302" x1="130.632" y1="320.967" x2="131.136" y2="344.195" gradientUnits="userSpaceOnUse">
<stop offset="0.00531476" stop-color="#F88A72"/>
<stop offset="1" stop-color="#F261EC"/>
</linearGradient>
<linearGradient id="paint23_linear_3975_54302" x1="75.6133" y1="355.858" x2="77.5292" y2="444.128" gradientUnits="userSpaceOnUse">
<stop offset="0.00531476" stop-color="#F88A72"/>
<stop offset="1" stop-color="#F261EC"/>
</linearGradient>
<linearGradient id="paint24_linear_3975_54302" x1="80.3608" y1="360.403" x2="82.4027" y2="454.48" gradientUnits="userSpaceOnUse">
<stop offset="0.00212215" stop-color="#935DF2"/>
<stop offset="1" stop-color="#5E61EC"/>
</linearGradient>
<linearGradient id="paint25_linear_3975_54302" x1="74.3484" y1="431.415" x2="74.7265" y2="448.837" gradientUnits="userSpaceOnUse">
<stop offset="0.00212215" stop-color="#935DF2"/>
<stop offset="1" stop-color="#5E61EC"/>
</linearGradient>
<linearGradient id="paint26_linear_3975_54302" x1="69.0105" y1="346.125" x2="145.666" y2="344.462" gradientUnits="userSpaceOnUse">
<stop offset="0.00531476" stop-color="#F88A72"/>
<stop offset="1" stop-color="#F261EC"/>
</linearGradient>
<linearGradient id="paint27_linear_3975_54302" x1="129.481" y1="348.299" x2="156.194" y2="347.719" gradientUnits="userSpaceOnUse">
<stop offset="0.00531476" stop-color="#F88A72"/>
<stop offset="1" stop-color="#F261EC"/>
</linearGradient>
<linearGradient id="paint28_linear_3975_54302" x1="81.0881" y1="354.014" x2="139.749" y2="412.678" gradientUnits="userSpaceOnUse">
<stop offset="0.00531476" stop-color="#F88A72"/>
<stop offset="1" stop-color="#F261EC"/>
</linearGradient>
<linearGradient id="paint29_linear_3975_54302" x1="221.505" y1="340.691" x2="221.505" y2="461.705" gradientUnits="userSpaceOnUse">
<stop offset="0.00850736" stop-color="#203D93"/>
<stop offset="1" stop-color="#0073D0"/>
</linearGradient>
<linearGradient id="paint30_linear_3975_54302" x1="230.896" y1="337.614" x2="230.896" y2="473.085" gradientUnits="userSpaceOnUse">
<stop offset="0.00850736" stop-color="#203D93"/>
<stop offset="1" stop-color="#0073D0"/>
</linearGradient>
<linearGradient id="paint31_linear_3975_54302" x1="249.867" y1="271.831" x2="322.048" y2="271.831" gradientUnits="userSpaceOnUse">
<stop offset="0.00531476" stop-color="#F88A72"/>
<stop offset="1" stop-color="#E6A584"/>
</linearGradient>
<linearGradient id="paint32_linear_3975_54302" x1="195.738" y1="310.938" x2="250.017" y2="310.938" gradientUnits="userSpaceOnUse">
<stop offset="0.00212215" stop-color="white"/>
<stop offset="0.9968" stop-color="#D7E7FB"/>
</linearGradient>
<linearGradient id="paint33_linear_3975_54302" x1="230.321" y1="294.413" x2="261.96" y2="294.413" gradientUnits="userSpaceOnUse">
<stop offset="0.00212215" stop-color="white"/>
<stop offset="0.9968" stop-color="#D7E7FB"/>
</linearGradient>
<linearGradient id="paint34_linear_3975_54302" x1="212.668" y1="268.834" x2="233.113" y2="268.834" gradientUnits="userSpaceOnUse">
<stop offset="0.00531476" stop-color="#F88A72"/>
<stop offset="1" stop-color="#E6A584"/>
</linearGradient>
<linearGradient id="paint35_linear_3975_54302" x1="214.529" y1="249.512" x2="237.779" y2="249.512" gradientUnits="userSpaceOnUse">
<stop offset="0.00531476" stop-color="#F88A72"/>
<stop offset="1" stop-color="#E6A584"/>
</linearGradient>
<linearGradient id="paint36_linear_3975_54302" x1="205.378" y1="246.313" x2="236.86" y2="246.313" gradientUnits="userSpaceOnUse">
<stop offset="0.00212215" stop-color="#935DF2"/>
<stop offset="1" stop-color="#5E61EC"/>
</linearGradient>
<linearGradient id="paint37_linear_3975_54302" x1="231.266" y1="259.094" x2="239.43" y2="259.094" gradientUnits="userSpaceOnUse">
<stop offset="0.00212215" stop-color="#935DF2"/>
<stop offset="1" stop-color="#5E61EC"/>
</linearGradient>
<clipPath id="clip0_3975_54302">
<rect width="513.363" height="480" fill="white" transform="translate(19)"/>
</clipPath>
</defs>
</svg>
