<svg width="52" height="52" viewBox="0 0 52 52" fill="none" xmlns="http://www.w3.org/2000/svg">
<path opacity="0.2" fill-rule="evenodd" clip-rule="evenodd" d="M26 50C39.2548 50 50 39.2548 50 26C50 12.7452 39.2548 2 26 2C12.7452 2 2 12.7452 2 26C2 39.2548 12.7452 50 26 50Z" stroke="white" stroke-width="2.12091"/>
<path d="M28.1849 19.8573H30.3907C30.5936 19.8573 30.7583 19.7021 30.7583 19.5109V17.4324C30.7583 17.2411 30.5936 17.0859 30.3907 17.0859H28.1849C25.9556 17.0859 24.141 18.7952 24.141 20.8966V23.3215H21.5676C21.3646 23.3215 21.2 23.4767 21.2 23.6679V25.7464C21.2 25.9377 21.3646 26.0929 21.5676 26.0929H24.141V33.3677C24.141 33.5589 24.3057 33.7141 24.5086 33.7141H26.7144C26.9173 33.7141 27.082 33.5589 27.082 33.3677V26.0929H29.6554C29.8135 26.0929 29.9539 25.9972 30.0047 25.8559L30.7399 23.7774C30.7774 23.6721 30.7583 23.5557 30.6892 23.4649C30.6194 23.3748 30.5091 23.3215 30.3907 23.3215H27.082V20.8966C27.082 20.3236 27.5768 19.8573 28.1849 19.8573Z" fill="white"/>
</svg>
