<svg width="52" height="52" viewBox="0 0 52 52" fill="none" xmlns="http://www.w3.org/2000/svg">
<path opacity="0.2" fill-rule="evenodd" clip-rule="evenodd" d="M26 50C39.2548 50 50 39.2548 50 26C50 12.7452 39.2548 2 26 2C12.7452 2 2 12.7452 2 26C2 39.2548 12.7452 50 26 50Z" stroke="black" stroke-width="2.12091"/>
<path d="M28.1852 19.8573H30.3909C30.5939 19.8573 30.7586 19.7021 30.7586 19.5109V17.4324C30.7586 17.2411 30.5939 17.0859 30.3909 17.0859H28.1852C25.9558 17.0859 24.1412 18.7952 24.1412 20.8966V23.3215H21.5678C21.3649 23.3215 21.2002 23.4767 21.2002 23.6679V25.7464C21.2002 25.9377 21.3649 26.0929 21.5678 26.0929H24.1412V33.3677C24.1412 33.5589 24.3059 33.7141 24.5089 33.7141H26.7146C26.9176 33.7141 27.0823 33.5589 27.0823 33.3677V26.0929H29.6557C29.8138 26.0929 29.9542 25.9972 30.0049 25.8559L30.7402 23.7774C30.7777 23.6721 30.7586 23.5557 30.6894 23.4649C30.6196 23.3748 30.5093 23.3215 30.3909 23.3215H27.0823V20.8966C27.0823 20.3236 27.5771 19.8573 28.1852 19.8573Z" fill="black"/>
</svg>
