<svg width="475" height="350" viewBox="0 0 475 350" fill="none" xmlns="http://www.w3.org/2000/svg">
<path opacity="0.6" d="M475 113.138L381.879 56.5312L260.201 130.495C258.87 131.304 258.87 133.326 260.201 134.135L346.632 186.674C348.919 188.064 351.738 188.064 354.025 186.674L475 113.138Z" fill="url(#paint0_linear_491_21674)" fill-opacity="0.5"/>
<path opacity="0.6" d="M215.797 132.878L122.675 189.484L0.997812 115.521C-0.332846 114.712 -0.332846 112.689 0.997812 111.88L87.4282 59.342C89.7159 57.9515 92.5342 57.9515 94.8219 59.342L215.797 132.878Z" fill="url(#paint1_linear_491_21674)" fill-opacity="0.5"/>
<path d="M350.066 188.126C348.548 188.126 347.054 187.706 345.748 186.912L259.779 134.654C259 134.18 258.535 133.33 258.535 132.383C258.535 131.434 259 130.584 259.779 130.11L313.615 97.3855C313.767 97.2934 313.954 97.2934 314.106 97.3855L404.146 152.118C404.926 152.592 405.392 153.443 405.392 154.391C405.392 155.339 404.926 156.189 404.146 156.663L354.383 186.913C353.076 187.706 351.583 188.126 350.066 188.126ZM346.239 186.018C348.555 187.424 351.577 187.424 353.892 186.018L403.655 155.768C404.128 155.48 404.41 154.964 404.41 154.391C404.41 153.816 404.128 153.301 403.655 153.014L313.86 98.4307L313.689 98.5354L260.271 131.007C259.799 131.293 259.518 131.809 259.518 132.384C259.518 132.958 259.8 133.473 260.271 133.761L346.239 186.018Z" fill="#42E8E0"/>
<path d="M313.75 76.2394L325.727 1.42706L324.764 1.00017L326.211 0.1265L326.209 0.134866C326.49 -0.0618407 326.887 -0.0503276 327.324 0.215436L423.043 58.3998C423.829 58.878 424.424 60.1032 424.286 60.9601L412.214 136.368C412.15 136.761 411.966 137.021 411.71 137.136L411.711 137.137L410.295 137.998L410.051 136.606L410.132 136.633L314.993 78.7998C314.207 78.3216 313.612 77.0953 313.75 76.2394Z" fill="url(#paint2_linear_491_21674)"/>
<path d="M422.508 60.4483L424.082 59.7148C424.259 60.1396 424.345 60.5854 424.285 60.962L412.212 136.37C412.149 136.763 411.965 137.023 411.708 137.138L411.709 137.139L410.293 138L410.05 136.608L410.13 136.634L405.316 133.708L422.508 60.4483Z" fill="url(#paint3_linear_491_21674)"/>
<path d="M313.49 79.7055L409.208 137.89C409.947 138.339 410.579 138.079 410.71 137.274L422.782 61.8659C422.92 61.0089 422.325 59.7837 421.539 59.3055L325.82 1.12117C325.081 0.672301 324.449 0.931792 324.319 1.73641L312.247 77.1441C312.108 78.0021 312.704 79.2273 313.49 79.7055Z" fill="#24126A"/>
<g opacity="0.51">
<path d="M327.071 5.93359L419.336 62.0191L407.895 133.037L315.691 76.9897L327.071 5.93359Z" fill="#453C9E"/>
</g>
<path d="M253.32 115.41L258.544 118.282L310.922 86.4415C311.799 85.9089 313.329 85.9759 314.341 86.5911L404.681 141.506C405.545 140.996 409.487 139.001 409.487 139.001L407.575 144.246L407.567 144.24C407.487 144.473 407.317 144.691 407.032 144.864L351.866 178.398C350.989 178.93 349.459 178.863 348.447 178.248L256.002 122.053C255.586 121.801 255.332 121.494 255.226 121.184L255.219 121.19L253.32 115.41Z" fill="url(#paint4_linear_491_21674)"/>
<path d="M254.127 116.313L348.873 173.906C349.909 174.536 351.478 174.605 352.377 174.059L408.914 139.69C409.813 139.144 409.699 138.191 408.663 137.56L313.918 79.967C312.88 79.3361 311.312 79.268 310.414 79.8142L253.876 114.182C252.977 114.729 253.091 115.682 254.127 116.313Z" fill="url(#paint5_linear_491_21674)"/>
<path d="M254.129 115.736L348.875 173.329C349.911 173.96 351.48 174.028 352.379 173.482L408.916 139.113C409.211 138.934 409.386 138.71 409.466 138.47C409.608 138.918 409.438 139.372 408.916 139.689L352.379 174.057C351.48 174.603 349.912 174.534 348.875 173.904L254.129 116.311C253.432 115.887 253.163 115.318 253.328 114.824C253.432 115.149 253.694 115.471 254.129 115.736Z" fill="white"/>
<path d="M377.449 161.449V160.354C377.449 160.25 377.389 160.202 377.315 160.247L373.65 162.475C373.576 162.52 373.516 162.64 373.516 162.744V163.838C373.516 163.942 373.575 163.99 373.65 163.945L377.315 161.717C377.389 161.672 377.449 161.552 377.449 161.449Z" fill="#2842A2"/>
<path d="M371.972 164.777V163.682C371.972 163.579 371.913 163.53 371.838 163.575L368.173 165.803C368.1 165.848 368.039 165.968 368.039 166.072V167.166C368.039 167.27 368.099 167.318 368.173 167.273L371.838 165.046C371.913 165.002 371.972 164.881 371.972 164.777Z" fill="#2842A2"/>
<path d="M394.173 136.474L315.441 88.6142C314.916 88.2951 314.269 88.2951 313.744 88.6153L285.708 105.694C285.306 105.939 285.306 106.551 285.708 106.796L364.404 154.633C364.929 154.952 365.575 154.952 366.098 154.633L394.172 137.576C394.577 137.331 394.577 136.718 394.173 136.474Z" fill="#ADB1F2"/>
<path d="M394.174 137.576L393.892 137.748L315.44 90.0598C314.915 89.7407 314.269 89.7407 313.744 90.0609L285.99 106.967L285.708 106.796C285.306 106.551 285.305 105.939 285.708 105.694L313.745 88.6149C314.27 88.2957 314.916 88.2947 315.441 88.6138L394.174 136.473C394.577 136.719 394.577 137.331 394.174 137.576Z" fill="#9198DB"/>
<path d="M311.629 92.9387L380.019 134.512L383.06 132.663L314.67 91.0898L311.629 92.9387Z" fill="#24126A"/>
<path d="M304.172 97.4689L368.32 136.463L371.361 134.614L307.213 95.6211L304.172 97.4689Z" fill="#24126A"/>
<path d="M299.316 100.422L374.844 146.333L377.884 144.484L302.357 98.5742L299.316 100.422Z" fill="#24126A"/>
<path d="M294.461 103.375L369.988 149.286L373.029 147.437L297.502 101.527L294.461 103.375Z" fill="#24126A"/>
<path d="M289.605 106.324L365.132 152.235L368.173 150.387L292.646 104.477L289.605 106.324Z" fill="#24126A"/>
<path d="M384.148 137.025L387.189 138.872L390.23 137.025L387.189 135.176L384.148 137.025Z" fill="#24126A"/>
<path d="M373.426 139.568L379.738 143.403L382.779 141.556L376.467 137.719L373.426 139.568Z" fill="#24126A"/>
<path d="M312.41 148.055L291.181 135.151C290.351 134.646 290.351 133.828 291.181 133.324L305.698 124.499C306.528 123.995 307.873 123.995 308.703 124.499L329.932 137.405C330.762 137.909 330.762 138.727 329.932 139.231L315.415 148.056C314.585 148.559 313.24 148.559 312.41 148.055Z" fill="url(#paint6_linear_491_21674)"/>
<path d="M329.932 138.151L308.703 125.246C307.873 124.742 306.528 124.742 305.698 125.246L291.181 134.071C290.925 134.227 290.758 134.413 290.659 134.611C290.44 134.169 290.608 133.672 291.181 133.324L305.698 124.499C306.528 123.995 307.873 123.995 308.703 124.499L329.932 137.405C330.506 137.753 330.674 138.25 330.454 138.692C330.356 138.494 330.189 138.306 329.932 138.151Z" fill="#9198DB"/>
<g opacity="0.11">
<mask id="mask0_491_21674" style="mask-type:luminance" maskUnits="userSpaceOnUse" x="315" y="5" width="105" height="129">
<path d="M327.071 5.93359L419.336 62.0191L407.895 133.037L315.691 76.9897L327.071 5.93359Z" fill="white"/>
</mask>
<g mask="url(#mask0_491_21674)">
<path d="M313.827 79.844L408.572 137.437C409.609 138.068 411.178 138.136 412.076 137.59L468.614 103.222C469.512 102.676 469.399 101.722 468.362 101.091L373.617 43.4982C372.58 42.8673 371.011 42.7993 370.113 43.3455L313.575 77.7137C312.677 78.2609 312.789 79.2141 313.827 79.844Z" fill="url(#paint7_linear_491_21674)"/>
<path d="M408.851 90.1693L387.622 77.2641C386.793 76.7597 386.793 75.9415 387.622 75.4372L402.139 66.6126C402.969 66.1083 404.315 66.1083 405.144 66.6126L426.373 79.5178C427.202 80.0222 427.202 80.8404 426.373 81.3447L411.855 90.1693C411.027 90.6736 409.681 90.6736 408.851 90.1693Z" fill="url(#paint8_linear_491_21674)"/>
<path d="M426.374 80.2638L405.145 67.3597C404.315 66.8554 402.969 66.8554 402.14 67.3597L387.622 76.1843C387.366 76.3402 387.199 76.5275 387.101 76.7242C386.881 76.2826 387.049 75.7856 387.622 75.4372L402.14 66.6126C402.969 66.1083 404.315 66.1083 405.145 66.6126L426.374 79.5178C426.947 79.8663 427.115 80.3632 426.895 80.8048C426.797 80.607 426.63 80.4197 426.374 80.2638Z" fill="#9198DB"/>
<path d="M435.705 110.337L356.972 62.4775C356.447 62.1584 355.8 62.1584 355.276 62.4785L327.239 79.5575C326.837 79.8023 326.837 80.4144 327.239 80.6593L405.935 128.497C406.46 128.816 407.106 128.816 407.63 128.497L435.704 111.44C436.107 111.195 436.107 110.582 435.705 110.337Z" fill="#ADB1F2"/>
<path d="M435.706 111.44L435.423 111.612L356.972 63.9231C356.447 63.604 355.8 63.604 355.276 63.9242L327.522 80.8305L327.239 80.6589C326.837 80.414 326.837 79.8019 327.239 79.5571L355.276 62.4782C355.8 62.159 356.447 62.158 356.972 62.4771L435.706 110.336C436.108 110.582 436.108 111.195 435.706 111.44Z" fill="#9198DB"/>
<path d="M334.576 78.3945L403.167 120.089L400.45 121.741L331.859 80.0467L334.576 78.3945Z" fill="#24126A"/>
<path d="M341.803 74L406.996 113.629L404.279 115.281L339.086 75.6511L341.803 74Z" fill="#24126A"/>
<path d="M411.865 116.59L417.954 120.292L415.237 121.943L409.148 118.242L411.865 116.59Z" fill="#24126A"/>
<path d="M406.486 122.105L410.726 124.683L408.009 126.335L403.77 123.758L406.486 122.105Z" fill="#24126A"/>
<path d="M346.33 71.2461L422.481 117.536L419.764 119.188L343.613 72.8972L346.33 71.2461Z" fill="#24126A"/>
<path d="M350.858 68.4961L427.008 114.786L424.291 116.438L348.141 70.1472L350.858 68.4961Z" fill="#24126A"/>
<path d="M355.389 65.7422L431.54 112.032L428.823 113.684L352.672 67.3943L355.389 65.7422Z" fill="#24126A"/>
</g>
</g>
<path d="M347.789 32.1886L355.253 36.7307L355.473 35.3663L348.008 30.8242L347.789 32.1886Z" fill="#42E8E0"/>
<path d="M356.453 37.4542L360.521 39.9298L360.739 38.5654L356.672 36.0898L356.453 37.4542Z" fill="#42E8E0"/>
<path d="M366.852 43.7785L369.794 45.5697L370.014 44.2043L367.07 42.4141L366.852 43.7785Z" fill="#42E8E0"/>
<path d="M364.703 42.4699L365.709 43.082L365.927 41.7176L364.922 41.1055L364.703 42.4699Z" fill="#42E8E0"/>
<path d="M361.734 40.6662L363.561 41.7774L363.78 40.413L361.953 39.3008L361.734 40.6662Z" fill="#42E8E0"/>
<path d="M353.695 42.6261L356.638 44.4163L356.858 43.052L353.914 41.2617L353.695 42.6261Z" fill="#42E8E0"/>
<path d="M346.789 38.423L352.555 41.9323L352.775 40.5669L347.009 37.0586L346.789 38.423Z" fill="#42E8E0"/>
<path d="M355.055 60.5402L360.821 64.0495L361.039 62.6841L355.273 59.1758L355.055 60.5402Z" fill="#42E8E0"/>
<path d="M352.09 58.7355L353.915 59.8467L354.135 58.4823L352.308 57.3711L352.09 58.7355Z" fill="#42E8E0"/>
<path d="M356.016 54.298L361.781 57.8073L362 56.4419L356.234 52.9336L356.016 54.298Z" fill="#42E8E0"/>
<path d="M353.051 52.4943L354.877 53.6055L355.096 52.2411L353.269 51.1289L353.051 52.4943Z" fill="#42E8E0"/>
<path d="M350.799 87.4846L339.937 80.875L339.719 82.2394L350.581 88.85L350.799 87.4846Z" fill="#42E8E0"/>
<path d="M354.626 89.814L351.938 88.1797L351.719 89.5441L354.407 91.1795L354.626 89.814Z" fill="#42E8E0"/>
<path d="M373.713 91.1408L362.851 84.5312L362.633 85.8956L373.495 92.5052L373.713 91.1408Z" fill="#42E8E0"/>
<path d="M377.543 93.4713L374.855 91.8359L374.637 93.2014L377.324 94.8368L377.543 93.4713Z" fill="#42E8E0"/>
<path d="M343.38 79.5481L340.437 77.7578L340.219 79.1222L343.161 80.9135L343.38 79.5481Z" fill="#42E8E0"/>
<path d="M361.286 83.5921L358.344 81.8008L358.125 83.1652L361.068 84.9564L361.286 83.5921Z" fill="#42E8E0"/>
<path d="M350.285 83.7505L344.519 80.2422L344.301 81.6066L350.067 85.1149L350.285 83.7505Z" fill="#42E8E0"/>
<path d="M353.252 85.5565L351.427 84.4453L351.207 85.8097L353.034 86.9219L353.252 85.5565Z" fill="#42E8E0"/>
<path d="M360.211 89.7867L354.445 86.2773L354.227 87.6428L359.992 91.1511L360.211 89.7867Z" fill="#42E8E0"/>
<path d="M363.177 91.5877L361.351 90.4766L361.133 91.841L362.958 92.9532L363.177 91.5877Z" fill="#42E8E0"/>
<path d="M360.783 86.7132L357.84 84.9219L357.621 86.2863L360.564 88.0776L360.783 86.7132Z" fill="#42E8E0"/>
<path d="M367.692 90.9145L361.926 87.4062L361.707 88.7706L367.473 92.28L367.692 90.9145Z" fill="#42E8E0"/>
<path d="M370.658 92.7206L368.832 91.6094L368.613 92.9738L370.439 94.0849L370.658 92.7206Z" fill="#42E8E0"/>
<path d="M346.959 78.3048L340.937 74.6406L340.719 76.0061L346.74 79.6703L346.959 78.3048Z" fill="#42E8E0"/>
<path d="M352.455 81.6503L348.101 79L347.883 80.3654L352.237 83.0147L352.455 81.6503Z" fill="#42E8E0"/>
<path d="M356.536 84.135L353.594 82.3438L353.375 83.7081L356.318 85.4994L356.536 84.135Z" fill="#42E8E0"/>
<path d="M385.076 98.0431L379.056 94.3789L378.836 95.7433L384.857 99.4075L385.076 98.0431Z" fill="#42E8E0"/>
<path d="M390.573 101.385L386.219 98.7344L386 100.1L390.355 102.749L390.573 101.385Z" fill="#42E8E0"/>
<path d="M394.654 103.868L391.711 102.078L391.492 103.443L394.435 105.234L394.654 103.868Z" fill="#42E8E0"/>
<path d="M382.727 56.8488L388.748 60.513L388.966 59.1486L382.945 55.4844L382.727 56.8488Z" fill="#42E8E0"/>
<path d="M377.23 53.505L381.585 56.1553L381.804 54.7899L377.449 52.1406L377.23 53.505Z" fill="#42E8E0"/>
<path d="M373.148 51.0206L376.091 52.8119L376.311 51.4475L373.367 49.6562L373.148 51.0206Z" fill="#42E8E0"/>
<path d="M380.727 52.2003L386.748 55.8645L386.966 54.5001L380.945 50.8359L380.727 52.2003Z" fill="#42E8E0"/>
<path d="M375.234 48.8566L379.588 51.5069L379.808 50.1425L375.453 47.4922L375.234 48.8566Z" fill="#42E8E0"/>
<path d="M371.148 46.3693L374.091 48.1596L374.311 46.7952L371.367 45.0039L371.148 46.3693Z" fill="#42E8E0"/>
<path d="M356.414 57.962L358.447 59.1998L358.666 57.8354L356.633 56.5977L356.414 57.962Z" fill="#42E8E0"/>
<path d="M352.586 55.6339L355.274 57.2693L355.493 55.9049L352.806 54.2695L352.586 55.6339Z" fill="#42E8E0"/>
<path d="M347.499 75.2072L341.477 71.543L341.258 72.9084L347.279 76.5726L347.499 75.2072Z" fill="#42E8E0"/>
<path d="M352.991 78.5516L348.637 75.9023L348.418 77.2667L352.773 79.916L352.991 78.5516Z" fill="#42E8E0"/>
<path d="M357.076 81.0335L354.133 79.2422L353.914 80.6076L356.857 82.3979L357.076 81.0335Z" fill="#42E8E0"/>
<path d="M344.01 69.6636L341.976 68.4258L341.758 69.7902L343.791 71.028L344.01 69.6636Z" fill="#42E8E0"/>
<path d="M347.835 71.9909L345.148 70.3555L344.93 71.7209L347.617 73.3563L347.835 71.9909Z" fill="#42E8E0"/>
<path d="M353.307 75.3193L348.976 72.6836L348.758 74.049L353.088 76.6837L353.307 75.3193Z" fill="#42E8E0"/>
<path d="M359.18 49.3683L361.213 50.6061L361.432 49.2407L359.398 48.0039L359.18 49.3683Z" fill="#42E8E0"/>
<path d="M355.352 47.0373L358.04 48.6727L358.258 47.3073L355.571 45.6719L355.352 47.0373Z" fill="#42E8E0"/>
<path d="M349.883 43.7081L354.214 46.3428L354.432 44.9784L350.102 42.3438L349.883 43.7081Z" fill="#42E8E0"/>
<path d="M362.281 54.4308L366.611 57.0665L366.83 55.701L362.5 53.0664L362.281 54.4308Z" fill="#42E8E0"/>
<path d="M355.195 50.3644L361.032 53.9166L361.25 52.5512L355.414 49L355.195 50.3644Z" fill="#42E8E0"/>
<path d="M352.23 48.5608L354.057 49.6719L354.276 48.3075L352.449 47.1953L352.23 48.5608Z" fill="#42E8E0"/>
<path d="M349.383 46.8264L351.209 47.9376L351.428 46.5732L349.601 45.4609L349.383 46.8264Z" fill="#42E8E0"/>
<path d="M349.773 64.4397L355.539 67.9479L355.758 66.5836L349.992 63.0742L349.773 64.4397Z" fill="#42E8E0"/>
<path d="M346.809 62.6339L348.634 63.7461L348.853 62.3807L347.027 61.2695L346.809 62.6339Z" fill="#42E8E0"/>
<path d="M350.172 68.1066L352.206 69.3444L352.425 67.98L350.391 66.7422L350.172 68.1066Z" fill="#42E8E0"/>
<path d="M357.352 65.6105L359.385 66.8483L359.604 65.4828L357.57 64.2461L357.352 65.6105Z" fill="#42E8E0"/>
<path d="M360.25 67.3722L365.13 70.3395L365.349 68.9752L360.47 66.0078L360.25 67.3722Z" fill="#42E8E0"/>
<path d="M365.996 70.8654L368.899 72.6306L369.118 71.2662L366.215 69.5L365.996 70.8654Z" fill="#42E8E0"/>
<path d="M346.344 65.7785L349.031 67.4138L349.251 66.0484L346.562 64.4141L346.344 65.7785Z" fill="#42E8E0"/>
<path d="M346.09 68.9816L348.123 70.2194L348.343 68.855L346.309 67.6172L346.09 68.9816Z" fill="#42E8E0"/>
<path d="M342.262 66.6506L344.949 68.286L345.169 66.9216L342.48 65.2852L342.262 66.6506Z" fill="#42E8E0"/>
<path d="M354.398 63.8175L356.225 64.9287L356.445 63.5643L354.618 62.4531L354.398 63.8175Z" fill="#42E8E0"/>
<path d="M351.555 62.0831L353.38 63.1943L353.6 61.8299L351.773 60.7188L351.555 62.0831Z" fill="#42E8E0"/>
<path d="M365.578 46.4152L371.808 50.206L372.027 48.8416L365.798 45.0508L365.578 46.4152Z" fill="#42E8E0"/>
<path d="M358.602 42.1691L364.439 45.7213L364.658 44.3559L358.821 40.8047L358.602 42.1691Z" fill="#42E8E0"/>
<path d="M355.637 40.3654L357.463 41.4766L357.682 40.1122L355.855 39L355.637 40.3654Z" fill="#42E8E0"/>
<path d="M352.789 38.6311L354.616 39.7422L354.834 38.3779L353.008 37.2656L352.789 38.6311Z" fill="#42E8E0"/>
<path d="M351.233 37.6844L347.293 35.2863L347.512 33.9219L351.452 36.319L351.233 37.6844Z" fill="#42E8E0"/>
<path opacity="0.6" d="M217.914 275.484L126.35 219.824L6.70751 292.551C5.39871 293.346 5.39871 295.335 6.70752 296.131L95.3272 350L217.914 275.484Z" fill="url(#paint9_linear_491_21674)" fill-opacity="0.5"/>
<path opacity="0.6" d="M474.152 293.084L382.588 348.743L262.946 276.015C261.638 275.22 261.638 273.232 262.946 272.436L351.566 218.566L474.152 293.084Z" fill="url(#paint10_linear_491_21674)" fill-opacity="0.5"/>
<path d="M161.176 78.2394L149.2 3.42707L150.162 3.00017L148.716 2.1265L148.718 2.13487C148.436 1.93816 148.04 1.94967 147.603 2.21543L51.8843 60.3998C51.0982 60.878 50.503 62.1032 50.6411 62.9601L62.7134 138.368C62.777 138.761 62.9609 139.021 63.2173 139.136H63.2153L64.6314 139.997L64.8749 138.605L64.7944 138.632L159.933 80.7998C160.72 80.3216 161.315 79.0963 161.176 78.2394Z" fill="url(#paint11_linear_491_21674)"/>
<path d="M52.4172 62.4483L50.8431 61.7148C50.6662 62.1386 50.5797 62.5854 50.6404 62.962L62.7117 138.37C62.7753 138.763 62.9592 139.023 63.2156 139.138L63.2136 139.139L64.6297 140L64.8732 138.608L64.7927 138.634L69.6065 135.708L52.4172 62.4483Z" fill="url(#paint12_linear_491_21674)"/>
<path d="M161.436 81.7054L65.7179 139.89C64.9786 140.339 64.3465 140.079 64.2164 139.274L52.145 63.8658C52.0069 63.0089 52.6021 61.7837 53.3882 61.3055L149.106 3.12113C149.846 2.67227 150.478 2.93175 150.608 3.73741L162.68 79.1451C162.817 80.002 162.222 81.2273 161.436 81.7054Z" fill="#24126A"/>
<g opacity="0.51">
<path d="M147.855 7.9375L55.5898 64.023L67.0312 135.041L159.234 78.9936L147.855 7.9375Z" fill="#453C9E"/>
</g>
<path d="M221.604 117.41L216.381 120.282L164.002 88.4415C163.125 87.9089 161.595 87.9759 160.583 88.5911L70.2434 143.506C69.3788 142.997 65.4375 141.001 65.4375 141.001L67.3495 146.246L67.3575 146.24C67.437 146.473 67.6069 146.691 67.8921 146.864L123.058 180.398C123.935 180.93 125.465 180.863 126.477 180.248L218.923 124.053C219.338 123.799 219.593 123.494 219.698 123.184L219.705 123.189L221.604 117.41Z" fill="url(#paint13_linear_491_21674)"/>
<path d="M220.799 118.312L126.054 175.906C125.017 176.535 123.449 176.605 122.55 176.058L66.0125 141.69C65.1142 141.144 65.2275 140.191 66.264 139.56L161.009 81.9666C162.047 81.3368 163.615 81.2677 164.513 81.8139L221.051 116.182C221.947 116.728 221.835 117.681 220.799 118.312Z" fill="url(#paint14_linear_491_21674)"/>
<path d="M220.798 117.737L126.053 175.33C125.016 175.961 123.448 176.029 122.549 175.483L66.0116 141.114C65.7174 140.935 65.5425 140.712 65.462 140.471C65.3199 140.919 65.4908 141.373 66.0116 141.689L122.549 176.057C123.448 176.603 125.016 176.534 126.053 175.904L220.798 118.311C221.495 117.887 221.764 117.318 221.599 116.824C221.495 117.15 221.233 117.472 220.798 117.737Z" fill="white"/>
<path d="M97.4766 163.449V162.354C97.4766 162.25 97.5362 162.202 97.6107 162.247L101.276 164.475C101.349 164.52 101.41 164.64 101.41 164.744V165.838C101.41 165.942 101.35 165.99 101.276 165.945L97.6107 163.717C97.5362 163.672 97.4766 163.552 97.4766 163.449Z" fill="#2842A2"/>
<path d="M102.957 166.777V165.682C102.957 165.579 103.017 165.53 103.091 165.575L106.756 167.803C106.83 167.848 106.89 167.968 106.89 168.072V169.166C106.89 169.27 106.831 169.318 106.756 169.273L103.091 167.046C103.017 167.002 102.957 166.88 102.957 166.777Z" fill="#2842A2"/>
<path d="M80.7511 138.47L159.484 90.6103C160.008 90.2912 160.655 90.2912 161.18 90.6114L189.216 107.69C189.619 107.935 189.619 108.547 189.215 108.792L110.52 156.629C109.995 156.949 109.349 156.949 108.825 156.629L80.7511 139.572C80.3486 139.328 80.3486 138.716 80.7511 138.47Z" fill="#ADB1F2"/>
<path d="M80.7518 139.576L81.0341 139.748L159.485 92.0588C160.01 91.7396 160.657 91.7397 161.182 92.0598L188.936 108.967L189.217 108.796C189.62 108.551 189.621 107.939 189.217 107.694L161.181 90.6149C160.656 90.2957 160.009 90.2947 159.484 90.6138L80.7518 138.473C80.3484 138.719 80.3484 139.331 80.7518 139.576Z" fill="#9198DB"/>
<path d="M163.299 94.9387L94.9081 136.512L91.8672 134.663L160.258 93.0898L163.299 94.9387Z" fill="#24126A"/>
<path d="M170.751 99.4699L106.603 138.464L103.562 136.615L167.711 97.6211L170.751 99.4699Z" fill="#24126A"/>
<path d="M175.608 102.423L100.08 148.334L97.0391 146.485L172.567 100.574L175.608 102.423Z" fill="#24126A"/>
<path d="M180.463 105.372L104.935 151.283L101.895 149.435L177.422 103.523L180.463 105.372Z" fill="#24126A"/>
<path d="M185.319 108.325L109.791 154.237L106.75 152.388L182.278 106.477L185.319 108.325Z" fill="#24126A"/>
<path d="M90.7733 139.025L87.7333 140.872L84.6914 139.024L87.7323 137.176L90.7733 139.025Z" fill="#24126A"/>
<path d="M101.502 141.568L95.1894 145.403L92.1484 143.556L98.4609 139.719L101.502 141.568Z" fill="#24126A"/>
<path d="M162.516 150.055L183.745 137.151C184.574 136.646 184.574 135.828 183.745 135.324L169.228 126.499C168.398 125.995 167.052 125.995 166.222 126.499L144.993 139.403C144.164 139.908 144.164 140.726 144.993 141.23L159.51 150.055C160.341 150.559 161.686 150.559 162.516 150.055Z" fill="url(#paint15_linear_491_21674)"/>
<path d="M144.994 140.151L166.223 127.246C167.052 126.742 168.398 126.742 169.228 127.246L183.745 136.071C184.001 136.227 184.168 136.413 184.266 136.611C184.486 136.169 184.319 135.672 183.745 135.324L169.228 126.499C168.398 125.995 167.052 125.995 166.223 126.499L144.994 139.403C144.42 139.752 144.252 140.249 144.472 140.69C144.57 140.494 144.737 140.306 144.994 140.151Z" fill="#9198DB"/>
<g opacity="0.11">
<mask id="mask1_491_21674" style="mask-type:luminance" maskUnits="userSpaceOnUse" x="55" y="7" width="105" height="129">
<path d="M147.855 7.93359L55.5898 64.0191L67.0312 135.038L159.234 78.9897L147.855 7.93359Z" fill="white"/>
</mask>
<g mask="url(#mask1_491_21674)">
<path d="M161.1 81.844L66.3551 139.437C65.3176 140.068 63.7494 140.136 62.8511 139.59L6.31333 105.222C5.41496 104.676 5.52825 103.722 6.56476 103.091L101.31 45.4982C102.348 44.8673 103.916 44.7993 104.814 45.3455L161.352 79.7137C162.25 80.2599 162.137 81.2141 161.1 81.844Z" fill="url(#paint16_linear_491_21674)"/>
<path d="M66.0742 92.1721L87.3032 79.268C88.133 78.7636 88.133 77.9454 87.3032 77.4411L72.7862 68.6165C71.9564 68.1122 70.6108 68.1122 69.781 68.6165L48.552 81.5207C47.7222 82.025 47.7222 82.8432 48.552 83.3475L63.0691 92.1721C63.8999 92.6765 65.2454 92.6765 66.0742 92.1721Z" fill="url(#paint17_linear_491_21674)"/>
<path d="M48.5522 82.2678L69.7811 69.3636C70.6109 68.8593 71.9565 68.8593 72.7863 69.3636L87.3034 78.1882C87.5597 78.3441 87.7267 78.5303 87.8251 78.7281C88.0447 78.2865 87.8778 77.7895 87.3034 77.4411L72.7863 68.6165C71.9565 68.1122 70.6109 68.1122 69.7811 68.6165L48.5522 81.5207C47.9788 81.8691 47.8108 82.3661 48.0304 82.8077C48.1288 82.611 48.2958 82.4237 48.5522 82.2678Z" fill="#9198DB"/>
<path d="M39.2202 112.337L117.953 64.4775C118.478 64.1584 119.125 64.1584 119.649 64.4785L147.686 81.5575C148.088 81.8023 148.088 82.4144 147.685 82.6593L68.9887 130.497C68.4639 130.816 67.818 130.816 67.2943 130.497L39.2202 113.44C38.8177 113.195 38.8167 112.582 39.2202 112.337Z" fill="#ADB1F2"/>
<path d="M39.2201 113.439L39.5023 113.611L117.954 65.9231C118.478 65.604 119.125 65.604 119.65 65.9242L147.404 82.8305L147.685 82.6589C148.088 82.414 148.089 81.8019 147.686 81.5571L119.65 64.4781C119.125 64.159 118.478 64.158 117.954 64.4771L39.2211 112.336C38.8166 112.581 38.8176 113.194 39.2201 113.439Z" fill="#9198DB"/>
<path d="M140.348 80.3945L71.7578 122.089L74.4748 123.74L143.064 82.0467L140.348 80.3945Z" fill="#24126A"/>
<path d="M133.123 76L67.9297 115.63L70.6467 117.282L135.84 77.6521L133.123 76Z" fill="#24126A"/>
<path d="M63.0615 118.59L56.9727 122.292L59.6896 123.943L65.7785 120.242L63.0615 118.59Z" fill="#24126A"/>
<path d="M68.4396 124.105L64.1992 126.683L66.9162 128.335L71.1566 125.758L68.4396 124.105Z" fill="#24126A"/>
<path d="M128.596 73.2461L52.4453 119.536L55.1623 121.187L131.314 74.8972L128.596 73.2461Z" fill="#24126A"/>
<path d="M124.065 70.4961L47.9141 116.786L50.631 118.438L126.782 72.1472L124.065 70.4961Z" fill="#24126A"/>
<path d="M119.538 67.7422L43.3867 114.032L46.1037 115.684L122.255 69.3943L119.538 67.7422Z" fill="#24126A"/>
</g>
</g>
<path d="M90.332 107.965L97.7962 103.422L98.0149 104.786L90.5506 109.329L90.332 107.965Z" fill="#42E8E0"/>
<path d="M99 102.698L103.068 100.223L103.286 101.588L99.2186 104.063L99 102.698Z" fill="#42E8E0"/>
<path d="M109.395 96.3772L112.337 94.5859L112.556 95.9514L109.613 97.7416L109.395 96.3772Z" fill="#42E8E0"/>
<path d="M107.246 97.6824L108.252 97.0703L108.47 98.4358L107.466 99.0468L107.246 97.6824Z" fill="#42E8E0"/>
<path d="M104.281 99.4872L106.108 98.375L106.326 99.7404L104.5 100.852L104.281 99.4872Z" fill="#42E8E0"/>
<path d="M96.2383 97.5257L99.1808 95.7344L99.3995 97.0988L96.4569 98.89L96.2383 97.5257Z" fill="#42E8E0"/>
<path d="M89.332 101.731L95.0979 98.2227L95.3165 99.587L89.5507 103.095L89.332 101.731Z" fill="#42E8E0"/>
<path d="M97.6016 79.6099L103.368 76.1016L103.587 77.466L97.8212 80.9743L97.6016 79.6099Z" fill="#42E8E0"/>
<path d="M94.6328 81.4159L96.4594 80.3047L96.678 81.6691L94.8524 82.7813L94.6328 81.4159Z" fill="#42E8E0"/>
<path d="M98.5625 85.8559L104.328 82.3477L104.547 83.712L98.7811 87.2214L98.5625 85.8559Z" fill="#42E8E0"/>
<path d="M95.5938 87.6581L97.4193 86.5469L97.6379 87.9123L95.8124 89.0235L95.5938 87.6581Z" fill="#42E8E0"/>
<path d="M93.3433 52.6691L82.4814 59.2786L82.2617 57.9142L93.1237 51.3047L93.3433 52.6691Z" fill="#42E8E0"/>
<path d="M97.1724 50.3381L94.4843 51.9735L94.2656 50.608L96.9528 48.9727L97.1724 50.3381Z" fill="#42E8E0"/>
<path d="M116.26 49.0128L105.398 55.6224L105.18 54.258L116.042 47.6484L116.26 49.0128Z" fill="#42E8E0"/>
<path d="M120.086 46.6847L117.398 48.3201L117.18 46.9557L119.868 45.3203L120.086 46.6847Z" fill="#42E8E0"/>
<path d="M85.9239 60.6027L82.9813 62.3929L82.7617 61.0285L85.7053 59.2383L85.9239 60.6027Z" fill="#42E8E0"/>
<path d="M103.826 56.5597L100.883 58.351L100.664 56.9866L103.607 55.1953L103.826 56.5597Z" fill="#42E8E0"/>
<path d="M92.8293 56.3995L87.0634 59.9089L86.8438 58.5434L92.6096 55.0352L92.8293 56.3995Z" fill="#42E8E0"/>
<path d="M95.7952 54.5949L93.9686 55.706L93.75 54.3416L95.5766 53.2305L95.7952 54.5949Z" fill="#42E8E0"/>
<path d="M102.758 50.3683L96.9921 53.8776L96.7734 52.5132L102.539 49.0039L102.758 50.3683Z" fill="#42E8E0"/>
<path d="M105.725 48.5636L103.899 49.6748L103.68 48.3104L105.506 47.1992L105.725 48.5636Z" fill="#42E8E0"/>
<path d="M103.329 53.4425L100.387 55.2338L100.168 53.8694L103.111 52.0781L103.329 53.4425Z" fill="#42E8E0"/>
<path d="M110.235 49.2394L104.469 52.7477L104.25 51.3833L110.016 47.875L110.235 49.2394Z" fill="#42E8E0"/>
<path d="M113.201 47.4358L111.375 48.5469L111.156 47.1815L112.983 46.0703L113.201 47.4358Z" fill="#42E8E0"/>
<path d="M89.5016 61.8488L83.4804 65.513L83.2617 64.1486L89.283 60.4844L89.5016 61.8488Z" fill="#42E8E0"/>
<path d="M94.9952 58.505L90.6405 61.1553L90.4219 59.7899L94.7766 57.1406L94.9952 58.505Z" fill="#42E8E0"/>
<path d="M99.0801 56.0206L96.1376 57.8119L95.918 56.4475L98.8615 54.6562L99.0801 56.0206Z" fill="#42E8E0"/>
<path d="M127.623 42.1105L121.601 45.7747L121.383 44.4103L127.404 40.7461L127.623 42.1105Z" fill="#42E8E0"/>
<path d="M133.116 38.7667L128.763 41.417L128.543 40.0526L132.898 37.4023L133.116 38.7667Z" fill="#42E8E0"/>
<path d="M137.2 36.2834L134.258 38.0736L134.039 36.7093L136.982 34.918L137.2 36.2834Z" fill="#42E8E0"/>
<path d="M125.27 83.3038L131.291 79.6406L131.509 81.005L125.488 84.6692L125.27 83.3038Z" fill="#42E8E0"/>
<path d="M119.773 86.6493L124.127 84L124.347 85.3644L119.992 88.0137L119.773 86.6493Z" fill="#42E8E0"/>
<path d="M115.691 89.1311L118.634 87.3398L118.853 88.7053L115.91 90.4955L115.691 89.1311Z" fill="#42E8E0"/>
<path d="M123.27 87.9532L129.291 84.2891L129.509 85.6535L123.488 89.3176L123.27 87.9532Z" fill="#42E8E0"/>
<path d="M117.773 91.2988L122.128 88.6484L122.347 90.0139L117.993 92.6631L117.773 91.2988Z" fill="#42E8E0"/>
<path d="M113.691 93.7835L116.634 91.9922L116.853 93.3566L113.91 95.1479L113.691 93.7835Z" fill="#42E8E0"/>
<path d="M98.957 82.1909L100.991 80.9531L101.21 82.3175L99.1756 83.5553L98.957 82.1909Z" fill="#42E8E0"/>
<path d="M95.1289 84.5182L97.8161 82.8828L98.0357 84.2472L95.3475 85.8826L95.1289 84.5182Z" fill="#42E8E0"/>
<path d="M90.0407 64.9464L84.0194 68.6106L83.8008 67.2462L89.8221 63.582L90.0407 64.9464Z" fill="#42E8E0"/>
<path d="M95.5333 61.6027L91.1796 64.253L90.9609 62.8875L95.3147 60.2383L95.5333 61.6027Z" fill="#42E8E0"/>
<path d="M99.6182 59.1183L96.6757 60.9096L96.457 59.5452L99.3996 57.7539L99.6182 59.1183Z" fill="#42E8E0"/>
<path d="M86.5537 70.4894L84.5204 71.7272L84.3008 70.3628L86.334 69.125L86.5537 70.4894Z" fill="#42E8E0"/>
<path d="M90.3834 68.1613L87.6962 69.7967L87.4766 68.4323L90.1647 66.7969L90.3834 68.1613Z" fill="#42E8E0"/>
<path d="M95.8542 64.8331L91.5243 67.4688L91.3047 66.1034L95.6356 63.4688L95.8542 64.8331Z" fill="#42E8E0"/>
<path d="M101.727 90.7847L103.76 89.5469L103.979 90.9123L101.945 92.1491L101.727 90.7847Z" fill="#42E8E0"/>
<path d="M97.8984 93.1148L100.586 91.4805L100.805 92.8449L98.1171 94.4803L97.8984 93.1148Z" fill="#42E8E0"/>
<path d="M92.4258 96.4432L96.7566 93.8086L96.9753 95.173L92.6444 97.8086L92.4258 96.4432Z" fill="#42E8E0"/>
<path d="M104.82 85.7255L109.151 83.0898L109.37 84.4553L105.039 87.0899L104.82 85.7255Z" fill="#42E8E0"/>
<path d="M97.7422 89.7905L103.58 86.2383L103.798 87.6037L97.9608 91.1549L97.7422 89.7905Z" fill="#42E8E0"/>
<path d="M94.7734 91.5966L96.6 90.4844L96.8186 91.8498L94.9921 92.961L94.7734 91.5966Z" fill="#42E8E0"/>
<path d="M91.9258 93.326L93.7523 92.2148L93.971 93.5792L92.1444 94.6915L91.9258 93.326Z" fill="#42E8E0"/>
<path d="M92.3164 75.7114L98.0823 72.2031L98.3019 73.5675L92.536 77.0769L92.3164 75.7114Z" fill="#42E8E0"/>
<path d="M89.3516 77.5174L91.1781 76.4062L91.3968 77.7706L89.5702 78.8818L89.3516 77.5174Z" fill="#42E8E0"/>
<path d="M92.7148 72.0464L94.7481 70.8086L94.9667 72.173L92.9335 73.4108L92.7148 72.0464Z" fill="#42E8E0"/>
<path d="M99.8945 74.5425L101.928 73.3047L102.146 74.6701L100.113 75.9079L99.8945 74.5425Z" fill="#42E8E0"/>
<path d="M102.793 72.7799L107.672 69.8125L107.892 71.1769L103.012 74.1442L102.793 72.7799Z" fill="#42E8E0"/>
<path d="M108.539 69.2886L111.441 67.5234L111.661 68.8878L108.758 70.654L108.539 69.2886Z" fill="#42E8E0"/>
<path d="M88.8867 74.3737L91.5739 72.7383L91.7925 74.1037L89.1054 75.7391L88.8867 74.3737Z" fill="#42E8E0"/>
<path d="M88.6328 71.1714L90.6661 69.9336L90.8847 71.299L88.8514 72.5358L88.6328 71.1714Z" fill="#42E8E0"/>
<path d="M84.8047 73.4987L87.4918 71.8633L87.7105 73.2287L85.0233 74.8641L84.8047 73.4987Z" fill="#42E8E0"/>
<path d="M96.9414 76.3377L98.768 75.2266L98.9866 76.591L97.16 77.7032L96.9414 76.3377Z" fill="#42E8E0"/>
<path d="M94.0938 78.0682L95.9203 76.957L96.1389 78.3214L94.3124 79.4326L94.0938 78.0682Z" fill="#42E8E0"/>
<path d="M108.125 93.7361L114.354 89.9453L114.574 91.3107L108.344 95.1015L108.125 93.7361Z" fill="#42E8E0"/>
<path d="M101.148 97.9809L106.985 94.4297L107.203 95.7941L101.367 99.3453L101.148 97.9809Z" fill="#42E8E0"/>
<path d="M98.1797 99.787L100.005 98.6758L100.224 100.04L98.3983 101.151L98.1797 99.787Z" fill="#42E8E0"/>
<path d="M95.332 101.522L97.1586 100.41L97.3782 101.775L95.5516 102.887L95.332 101.522Z" fill="#42E8E0"/>
<path d="M93.7762 102.469L89.8359 104.866L90.0556 106.231L93.9959 103.833L93.7762 102.469Z" fill="#42E8E0"/>
<path d="M411.615 235.946L406.482 238.769L355.012 207.482C354.151 206.959 352.647 207.024 351.652 207.629L262.883 261.59C262.033 261.09 258.16 259.129 258.16 259.129L260.039 264.283C260.039 264.283 260.045 264.278 260.047 264.277C260.125 264.506 260.292 264.72 260.573 264.89L314.78 297.842C315.642 298.365 317.146 298.3 318.139 297.695L408.979 242.476C409.388 242.228 409.638 241.927 409.741 241.624L409.748 241.629L411.615 235.946Z" fill="url(#paint18_linear_491_21674)"/>
<path d="M410.823 236.834L317.724 293.426C316.705 294.046 315.163 294.113 314.281 293.577L258.725 259.806C257.842 259.269 257.953 258.333 258.972 257.714L352.071 201.122C353.089 200.502 354.632 200.435 355.514 200.971L411.07 234.742C411.953 235.278 411.841 236.214 410.823 236.834Z" fill="url(#paint19_linear_491_21674)"/>
<path d="M410.822 236.267L317.723 292.859C316.704 293.478 315.162 293.545 314.28 293.009L258.724 259.239C258.435 259.063 258.263 258.842 258.184 258.607C258.044 259.047 258.212 259.493 258.724 259.804L314.28 293.574C315.162 294.111 316.703 294.043 317.723 293.424L410.822 236.832C411.507 236.415 411.771 235.857 411.609 235.371C411.507 235.69 411.25 236.007 410.822 236.267Z" fill="white"/>
<path d="M289.645 281.184V280.109C289.645 280.008 289.703 279.961 289.776 280.005L293.377 282.194C293.45 282.238 293.508 282.356 293.508 282.458V283.533C293.508 283.634 293.45 283.681 293.377 283.638L289.776 281.449C289.703 281.404 289.645 281.285 289.645 281.184Z" fill="#2842A2"/>
<path d="M295.027 284.457V283.383C295.027 283.281 295.086 283.234 295.159 283.278L298.76 285.467C298.833 285.511 298.891 285.629 298.891 285.732V286.806C298.891 286.908 298.833 286.955 298.76 286.911L295.159 284.722C295.087 284.678 295.027 284.56 295.027 284.457Z" fill="#2842A2"/>
<path d="M290.047 267.482L367.412 220.454C367.928 220.14 368.564 220.141 369.079 220.455L396.628 237.236C397.023 237.477 397.023 238.079 396.628 238.319L319.298 285.326C318.784 285.639 318.149 285.639 317.633 285.326L290.046 268.565C289.651 268.325 289.651 267.723 290.047 267.482Z" fill="#ADB1F2"/>
<path d="M290.047 268.565L290.324 268.733L367.412 221.873C367.928 221.559 368.564 221.56 369.078 221.874L396.351 238.487L396.628 238.319C397.023 238.078 397.023 237.477 396.628 237.236L369.078 220.454C368.563 220.14 367.928 220.14 367.412 220.453L290.047 267.482C289.651 267.722 289.651 268.324 290.047 268.565Z" fill="#9198DB"/>
<path d="M371.156 224.703L299.892 268.023L296.359 266.537L368.167 222.887L371.156 224.703Z" fill="#24126A"/>
<path d="M378.482 229.156L315.449 267.472L312.461 265.656L375.494 227.34L378.482 229.156Z" fill="#24126A"/>
<path d="M383.253 232.055L309.038 277.167L306.051 275.351L380.266 230.238L383.253 232.055Z" fill="#24126A"/>
<path d="M388.027 234.957L313.812 280.07L310.824 278.253L385.039 233.141L388.027 234.957Z" fill="#24126A"/>
<path d="M392.797 237.855L318.582 282.968L315.594 281.152L389.809 236.039L392.797 237.855Z" fill="#24126A"/>
<path d="M299.895 268.023L296.906 269.839L293.918 268.023L296.906 266.207L299.895 268.023Z" fill="#24126A"/>
<path d="M319.072 265.268L304.23 274.291L301.242 272.474L316.193 263.387L319.072 265.268Z" fill="#24126A"/>
<path d="M317.59 246.409L338.45 233.729C339.265 233.233 339.265 232.429 338.45 231.934L324.186 223.263C323.371 222.767 322.048 222.767 321.233 223.263L300.373 235.943C299.558 236.439 299.558 237.242 300.373 237.737L314.638 246.409C315.452 246.905 316.775 246.905 317.59 246.409Z" fill="url(#paint20_linear_491_21674)"/>
<path d="M300.374 236.678L321.234 223.998C322.049 223.502 323.371 223.502 324.186 223.998L338.451 232.669C338.702 232.822 338.867 233.006 338.964 233.199C339.179 232.766 339.015 232.278 338.451 231.934L324.186 223.263C323.371 222.767 322.049 222.767 321.234 223.263L300.374 235.943C299.81 236.285 299.645 236.774 299.861 237.208C299.957 237.014 300.122 236.831 300.374 236.678Z" fill="#9198DB"/>
<path d="M411.467 234.493L399.699 160.98L400.645 160.56L399.223 159.702L399.225 159.711C398.949 159.517 398.559 159.529 398.129 159.79L304.073 216.964C303.301 217.434 302.716 218.637 302.852 219.479L314.713 293.577C314.776 293.963 314.957 294.219 315.209 294.331L316.6 295.178L316.838 293.81L316.759 293.835L410.244 237.008C411.019 236.539 411.603 235.335 411.467 234.493Z" fill="url(#paint21_linear_491_21674)"/>
<path d="M304.6 218.974L303.054 218.254C302.881 218.67 302.795 219.11 302.855 219.479L314.717 293.577C314.779 293.963 314.96 294.219 315.212 294.331H315.211L316.603 295.178L316.842 293.81L316.763 293.835L321.493 290.96L304.6 218.974Z" fill="url(#paint22_linear_491_21674)"/>
<path d="M411.722 237.902L317.667 295.075C316.94 295.517 316.319 295.262 316.191 294.471L304.328 220.373C304.193 219.531 304.777 218.327 305.549 217.858L399.605 160.684C400.332 160.242 400.953 160.498 401.081 161.289L412.943 235.387C413.08 236.229 412.494 237.433 411.722 237.902Z" fill="#453C9E"/>
<path d="M124.759 189.888C123.241 189.888 121.748 189.469 120.442 188.674L70.6788 158.424C69.8987 157.95 69.4336 157.1 69.4336 156.152C69.4336 155.204 69.8997 154.354 70.6788 153.88L160.719 99.1477C160.871 99.0556 161.056 99.0546 161.21 99.1467L161.628 99.3999L215.045 131.871C215.825 132.345 216.29 133.195 216.29 134.144C216.29 135.093 215.824 135.942 215.045 136.415L129.078 188.673C127.769 189.469 126.276 189.888 124.759 189.888ZM160.964 100.192L71.1697 154.775C70.6967 155.063 70.4154 155.577 70.4154 156.152C70.4154 156.727 70.6977 157.242 71.1697 157.529L120.933 187.779C123.247 189.185 126.268 189.185 128.586 187.779L214.554 135.521C215.026 135.234 215.309 134.719 215.309 134.145C215.309 133.569 215.026 133.055 214.554 132.768L160.964 100.192Z" fill="#42E8E0"/>
<path d="M161.075 78.0011L149.098 3.18878L150.061 2.76188L148.614 1.88821L148.616 1.89659C148.335 1.69988 147.938 1.71139 147.501 1.97715L51.7827 60.1615C50.9967 60.6397 50.4014 61.8649 50.5395 62.7218L62.6119 138.13C62.6755 138.523 62.8593 138.784 63.1167 138.898H63.1147L64.5308 139.759L64.7743 138.367L64.6938 138.393L159.833 80.5615C160.618 80.0823 161.213 78.857 161.075 78.0011Z" fill="url(#paint23_linear_491_21674)"/>
<path d="M52.3186 62.21L50.7454 61.4766C50.5685 61.9014 50.4821 62.3471 50.5427 62.7238L62.6151 138.131C62.6787 138.525 62.8625 138.785 63.1189 138.899L64.534 139.761L64.7775 138.369L64.697 138.395L69.5108 135.469L52.3186 62.21Z" fill="url(#paint24_linear_491_21674)"/>
<path d="M161.335 81.4672L65.6164 139.652C64.877 140.1 64.245 139.841 64.1148 139.035L52.0434 63.6275C51.9053 62.7706 52.5006 61.5454 53.2866 61.0672L149.005 2.88285C149.744 2.43398 150.376 2.69347 150.506 3.49913L162.579 78.9068C162.716 79.7638 162.121 80.989 161.335 81.4672Z" fill="#24126A"/>
<g opacity="0.51">
<path d="M147.749 7.69922L55.4844 63.7847L66.9267 134.803L159.129 78.7553L147.749 7.69922Z" fill="#453C9E"/>
</g>
<path d="M221.502 117.171L216.279 120.044L163.9 88.2032C163.024 87.6706 161.493 87.7376 160.482 88.3528L70.1418 143.267C69.2773 142.758 65.3359 140.763 65.3359 140.763L67.248 146.008L67.2559 146.001C67.3354 146.235 67.5053 146.452 67.7906 146.626L122.957 180.159C123.833 180.692 125.364 180.625 126.375 180.011L218.821 123.815C219.237 123.563 219.491 123.257 219.596 122.947L219.603 122.952L221.502 117.171Z" fill="url(#paint25_linear_491_21674)"/>
<path d="M220.694 118.074L125.949 175.667C124.912 176.298 123.343 176.366 122.445 175.82L65.9071 141.452C65.0087 140.906 65.122 139.952 66.1585 139.322L160.904 81.7283C161.941 81.0985 163.509 81.0294 164.408 81.5756L220.946 115.944C221.844 116.49 221.732 117.443 220.694 118.074Z" fill="url(#paint26_linear_491_21674)"/>
<path d="M220.696 117.498L125.952 175.092C124.914 175.721 123.346 175.79 122.448 175.244L65.91 140.876C65.6159 140.697 65.441 140.473 65.3605 140.233C65.2184 140.68 65.3893 141.135 65.91 141.45L122.448 175.819C123.346 176.365 124.914 176.296 125.952 175.666L220.696 118.073C221.394 117.649 221.662 117.08 221.497 116.586C221.394 116.911 221.131 117.234 220.696 117.498Z" fill="white"/>
<path d="M97.3711 163.21V162.116C97.3711 162.012 97.4307 161.964 97.5043 162.009L101.169 164.237C101.243 164.282 101.303 164.402 101.303 164.506V165.6C101.303 165.704 101.244 165.752 101.169 165.707L97.5043 163.479C97.4307 163.434 97.3711 163.314 97.3711 163.21Z" fill="#2842A2"/>
<path d="M102.852 166.538V165.444C102.852 165.34 102.911 165.292 102.986 165.337L106.651 167.565C106.724 167.61 106.785 167.73 106.785 167.834V168.928C106.785 169.032 106.725 169.08 106.651 169.035L102.986 166.807C102.912 166.763 102.852 166.642 102.852 166.538Z" fill="#2842A2"/>
<path d="M80.6464 138.235L159.379 90.3759C159.904 90.0568 160.551 90.0568 161.075 90.377L189.112 107.456C189.514 107.701 189.514 108.313 189.111 108.558L110.415 156.395C109.89 156.714 109.244 156.714 108.72 156.395L80.6464 139.338C80.2429 139.092 80.2429 138.48 80.6464 138.235Z" fill="#ADB1F2"/>
<path d="M80.6462 139.338L80.9285 139.509L159.38 91.8215C159.905 91.5024 160.552 91.5024 161.076 91.8226L188.83 108.729L189.112 108.557C189.514 108.312 189.515 107.7 189.113 107.456L161.076 90.3766C160.552 90.0575 159.905 90.0564 159.38 90.3755L80.6472 138.235C80.2428 138.481 80.2428 139.093 80.6462 139.338Z" fill="#9198DB"/>
<path d="M163.189 94.7004L94.7988 136.274L91.7578 134.425L160.148 92.8516L163.189 94.7004Z" fill="#24126A"/>
<path d="M170.646 99.2306L106.498 138.225L103.457 136.376L167.605 97.3828L170.646 99.2306Z" fill="#24126A"/>
<path d="M175.501 102.185L99.9745 148.096L96.9336 146.247L172.46 100.336L175.501 102.185Z" fill="#24126A"/>
<path d="M180.357 105.134L104.83 151.045L101.789 149.196L177.316 103.285L180.357 105.134Z" fill="#24126A"/>
<path d="M185.212 108.087L109.685 153.998L106.645 152.149L182.171 106.238L185.212 108.087Z" fill="#24126A"/>
<path d="M90.6678 138.786L87.6269 140.634L84.5859 138.786L87.6269 136.938L90.6678 138.786Z" fill="#24126A"/>
<path d="M101.391 141.329L95.08 145.165L92.0391 143.317L98.3505 139.48L101.391 141.329Z" fill="#24126A"/>
<path d="M162.41 149.817L183.639 136.913C184.469 136.408 184.469 135.59 183.639 135.086L169.122 126.261C168.292 125.757 166.947 125.757 166.117 126.261L144.888 139.165C144.058 139.67 144.058 140.488 144.888 140.992L159.405 149.817C160.235 150.321 161.58 150.321 162.41 149.817Z" fill="url(#paint27_linear_491_21674)"/>
<path d="M144.892 139.909L166.121 127.004C166.951 126.5 168.296 126.5 169.126 127.004L183.643 135.829C183.9 135.985 184.067 136.171 184.165 136.369C184.385 135.927 184.217 135.43 183.643 135.082L169.126 126.257C168.296 125.753 166.951 125.753 166.121 126.257L144.892 139.161C144.319 139.51 144.151 140.007 144.37 140.448C144.469 140.253 144.636 140.065 144.892 139.909Z" fill="#9198DB"/>
<g opacity="0.11">
<mask id="mask2_491_21674" style="mask-type:luminance" maskUnits="userSpaceOnUse" x="55" y="7" width="105" height="128">
<path d="M147.749 7.69922L55.4844 63.7847L66.9267 134.803L159.129 78.7553L147.749 7.69922Z" fill="white"/>
</mask>
<g mask="url(#mask2_491_21674)">
<path d="M160.995 81.6096L66.2496 139.203C65.2131 139.833 63.644 139.902 62.7456 139.356L6.20787 104.987C5.30949 104.441 5.42278 103.488 6.45929 102.857L101.205 45.2639C102.242 44.6329 103.81 44.5649 104.709 45.1111L161.246 79.4793C162.145 80.0255 162.032 80.9797 160.995 81.6096Z" fill="url(#paint28_linear_491_21674)"/>
<path d="M65.9688 91.9339L87.1978 79.0297C88.0275 78.5254 88.0275 77.7072 87.1978 77.2028L72.6807 68.3782C71.8509 67.8739 70.5053 67.8739 69.6755 68.3782L48.4466 81.2835C47.6168 81.7878 47.6168 82.606 48.4466 83.1103L62.9636 91.9349C63.7934 92.4382 65.139 92.4382 65.9688 91.9339Z" fill="url(#paint29_linear_491_21674)"/>
<path d="M48.4467 82.0305L69.6757 69.1253C70.5055 68.621 71.8511 68.621 72.6799 69.1253L87.1969 77.9499C87.4533 78.1058 87.6202 78.2921 87.7186 78.4898C87.9382 78.0483 87.7713 77.5512 87.1969 77.2028L72.6799 68.3782C71.8501 67.8739 70.5045 67.8739 69.6757 68.3782L48.4467 81.2835C47.8733 81.6319 47.7053 82.1289 47.925 82.5704C48.0234 82.3737 48.1913 82.1864 48.4467 82.0305Z" fill="#9198DB"/>
<path d="M39.115 112.102L117.848 64.2431C118.372 63.924 119.019 63.924 119.544 64.2442L147.58 81.3231C147.983 81.568 147.983 82.1801 147.58 82.4249L68.8844 130.262C68.3597 130.581 67.7138 130.581 67.1901 130.262L39.116 113.205C38.7115 112.96 38.7115 112.347 39.115 112.102Z" fill="#ADB1F2"/>
<path d="M39.1151 113.204L39.3973 113.375L117.849 65.6877C118.373 65.3686 119.02 65.3686 119.545 65.6887L147.299 82.5961L147.58 82.4245C147.983 82.1797 147.984 81.5676 147.58 81.3227L119.544 64.2438C119.019 63.9247 118.372 63.9236 117.848 64.2427L39.1151 112.102C38.7116 112.346 38.7116 112.959 39.1151 113.204Z" fill="#9198DB"/>
<path d="M140.246 80.1602L71.6562 121.855L74.3732 123.506L142.963 81.8123L140.246 80.1602Z" fill="#24126A"/>
<path d="M133.019 75.7656L67.8242 115.395L70.5412 117.047L135.736 77.4167L133.019 75.7656Z" fill="#24126A"/>
<path d="M62.956 118.355L56.8672 122.057L59.5842 123.708L65.673 120.008L62.956 118.355Z" fill="#24126A"/>
<path d="M68.3332 123.871L64.0938 126.448L66.8107 128.1L71.0502 125.523L68.3332 123.871Z" fill="#24126A"/>
<path d="M128.491 73.0117L52.3398 119.302L55.0568 120.953L131.208 74.6628L128.491 73.0117Z" fill="#24126A"/>
<path d="M123.959 70.2617L47.8086 116.552L50.5256 118.204L126.676 71.9128L123.959 70.2617Z" fill="#24126A"/>
<path d="M119.432 67.5078L43.2812 113.798L45.9982 115.45L122.149 69.1599L119.432 67.5078Z" fill="#24126A"/>
</g>
</g>
<path d="M90.2266 107.722L97.6908 103.18L97.9104 104.544L90.4452 109.087L90.2266 107.722Z" fill="#42E8E0"/>
<path d="M98.8906 102.456L102.958 99.9805L103.177 101.346L99.1103 103.82L98.8906 102.456Z" fill="#42E8E0"/>
<path d="M109.289 96.135L112.232 94.3438L112.451 95.7092L109.509 97.4994L109.289 96.135Z" fill="#42E8E0"/>
<path d="M107.141 97.4402L108.146 96.8281L108.365 98.1925L107.359 98.8046L107.141 97.4402Z" fill="#42E8E0"/>
<path d="M104.176 99.245L106.002 98.1328L106.221 99.4972L104.394 100.609L104.176 99.245Z" fill="#42E8E0"/>
<path d="M96.1328 97.2824L99.0754 95.4922L99.295 96.8566L96.3514 98.6479L96.1328 97.2824Z" fill="#42E8E0"/>
<path d="M89.2266 101.485L94.9934 97.9766L95.2121 99.341L89.4462 102.849L89.2266 101.485Z" fill="#42E8E0"/>
<path d="M97.4922 79.3677L103.258 75.8594L103.477 77.2238L97.7108 80.732L97.4922 79.3677Z" fill="#42E8E0"/>
<path d="M94.5273 81.1737L96.3529 80.0625L96.5715 81.4279L94.746 82.5391L94.5273 81.1737Z" fill="#42E8E0"/>
<path d="M98.4531 85.6137L104.219 82.1055L104.438 83.4699L98.6718 86.9792L98.4531 85.6137Z" fill="#42E8E0"/>
<path d="M95.4883 87.4169L97.3148 86.3047L97.5335 87.6701L95.7069 88.7813L95.4883 87.4169Z" fill="#42E8E0"/>
<path d="M93.2368 52.4269L82.3749 59.0364L82.1562 57.6721L93.0182 51.0625L93.2368 52.4269Z" fill="#42E8E0"/>
<path d="M97.063 50.0959L94.3759 51.7313L94.1562 50.3659L96.8444 48.7305L97.063 50.0959Z" fill="#42E8E0"/>
<path d="M116.151 48.7706L105.289 55.3802L105.07 54.0158L115.932 47.4062L116.151 48.7706Z" fill="#42E8E0"/>
<path d="M119.98 46.4425L117.293 48.0779L117.074 46.7135L119.761 45.0781L119.98 46.4425Z" fill="#42E8E0"/>
<path d="M85.8174 60.3605L82.8749 62.1518L82.6562 60.7863L85.5988 58.9961L85.8174 60.3605Z" fill="#42E8E0"/>
<path d="M103.724 56.3175L100.781 58.1088L100.562 56.7444L103.505 54.9531L103.724 56.3175Z" fill="#42E8E0"/>
<path d="M92.7267 56.1574L86.9608 59.6667L86.7422 58.3012L92.5081 54.793L92.7267 56.1574Z" fill="#42E8E0"/>
<path d="M95.6897 54.3527L93.8641 55.4639L93.6445 54.0995L95.4711 52.9883L95.6897 54.3527Z" fill="#42E8E0"/>
<path d="M102.649 50.1261L96.8827 53.6354L96.6641 52.271L102.43 48.7617L102.649 50.1261Z" fill="#42E8E0"/>
<path d="M105.615 48.3214L103.789 49.4326L103.57 48.0682L105.396 46.957L105.615 48.3214Z" fill="#42E8E0"/>
<path d="M103.221 53.2003L100.277 54.9916L100.059 53.6272L103.001 51.8359L103.221 53.2003Z" fill="#42E8E0"/>
<path d="M110.129 48.9972L104.363 52.5055L104.145 51.1411L109.91 47.6328L110.129 48.9972Z" fill="#42E8E0"/>
<path d="M113.096 47.1936L111.269 48.3047L111.051 46.9393L112.876 45.8281L113.096 47.1936Z" fill="#42E8E0"/>
<path d="M89.3962 61.6066L83.3749 65.2708L83.1562 63.9064L89.1775 60.2422L89.3962 61.6066Z" fill="#42E8E0"/>
<path d="M94.8937 58.2628L90.5389 60.9131L90.3203 59.5477L94.674 56.8984L94.8937 58.2628Z" fill="#42E8E0"/>
<path d="M98.9737 55.7795L96.0311 57.5697L95.8125 56.2054L98.7551 54.4141L98.9737 55.7795Z" fill="#42E8E0"/>
<path d="M127.514 41.8683L121.492 45.5325L121.273 44.1681L127.295 40.5039L127.514 41.8683Z" fill="#42E8E0"/>
<path d="M133.011 38.5256L128.656 41.1749L128.438 39.8105L132.791 37.1602L133.011 38.5256Z" fill="#42E8E0"/>
<path d="M137.092 36.0412L134.148 37.8315L133.93 36.4671L136.872 34.6758L137.092 36.0412Z" fill="#42E8E0"/>
<path d="M125.164 83.0616L131.185 79.3984L131.404 80.7628L125.383 84.427L125.164 83.0616Z" fill="#42E8E0"/>
<path d="M119.668 86.4071L124.023 83.7578L124.241 85.1222L119.887 87.7715L119.668 86.4071Z" fill="#42E8E0"/>
<path d="M115.586 88.8889L118.529 87.0977L118.748 88.4631L115.805 90.2533L115.586 88.8889Z" fill="#42E8E0"/>
<path d="M123.164 87.7111L129.185 84.0469L129.404 85.4113L123.383 89.0755L123.164 87.7111Z" fill="#42E8E0"/>
<path d="M117.672 91.0566L122.026 88.4062L122.245 89.7717L117.891 92.421L117.672 91.0566Z" fill="#42E8E0"/>
<path d="M113.586 93.5402L116.528 91.75L116.748 93.1144L113.805 94.9057L113.586 93.5402Z" fill="#42E8E0"/>
<path d="M98.8516 81.9448L100.886 80.707L101.104 82.0714L99.0712 83.3092L98.8516 81.9448Z" fill="#42E8E0"/>
<path d="M95.0234 84.276L97.7116 82.6406L97.9302 84.0061L95.2431 85.6404L95.0234 84.276Z" fill="#42E8E0"/>
<path d="M89.9362 64.7053L83.9149 68.3695L83.6953 67.004L89.7166 63.3398L89.9362 64.7053Z" fill="#42E8E0"/>
<path d="M95.4288 61.3605L91.0741 64.0108L90.8555 62.6454L95.2102 59.9961L95.4288 61.3605Z" fill="#42E8E0"/>
<path d="M99.5138 58.8761L96.5702 60.6674L96.3516 59.303L99.2951 57.5117L99.5138 58.8761Z" fill="#42E8E0"/>
<path d="M86.4472 70.2472L84.4139 71.485L84.1953 70.1206L86.2286 68.8828L86.4472 70.2472Z" fill="#42E8E0"/>
<path d="M90.273 67.9191L87.5858 69.5545L87.3672 68.1901L90.0543 66.5547L90.273 67.9191Z" fill="#42E8E0"/>
<path d="M95.7438 64.591L91.4139 67.2266L91.1953 65.8612L95.5252 63.2266L95.7438 64.591Z" fill="#42E8E0"/>
<path d="M101.617 90.5425L103.65 89.3047L103.869 90.6701L101.836 91.9069L101.617 90.5425Z" fill="#42E8E0"/>
<path d="M97.7891 92.8737L100.477 91.2383L100.696 92.6027L98.0087 94.238L97.7891 92.8737Z" fill="#42E8E0"/>
<path d="M92.3203 96.201L96.6512 93.5664L96.8698 94.9308L92.5399 97.5654L92.3203 96.201Z" fill="#42E8E0"/>
<path d="M104.715 85.4823L109.046 82.8477L109.264 84.212L104.934 86.8467L104.715 85.4823Z" fill="#42E8E0"/>
<path d="M97.6328 89.5473L103.47 85.9961L103.689 87.3605L97.8524 90.9117L97.6328 89.5473Z" fill="#42E8E0"/>
<path d="M94.668 91.3534L96.4945 90.2422L96.7132 91.6066L94.8876 92.7178L94.668 91.3534Z" fill="#42E8E0"/>
<path d="M91.8203 93.0849L93.6469 91.9727L93.8655 93.337L92.0399 94.4493L91.8203 93.0849Z" fill="#42E8E0"/>
<path d="M92.207 75.4692L97.9729 71.9609L98.1915 73.3253L92.4257 76.8347L92.207 75.4692Z" fill="#42E8E0"/>
<path d="M89.2422 77.2752L91.0678 76.1641L91.2864 77.5285L89.4608 78.6396L89.2422 77.2752Z" fill="#42E8E0"/>
<path d="M92.6055 71.8042L94.6387 70.5664L94.8584 71.9318L92.8241 73.1686L92.6055 71.8042Z" fill="#42E8E0"/>
<path d="M99.7852 74.3003L101.818 73.0625L102.038 74.4279L100.004 75.6647L99.7852 74.3003Z" fill="#42E8E0"/>
<path d="M102.684 72.5377L107.564 69.5703L107.783 70.9347L102.903 73.902L102.684 72.5377Z" fill="#42E8E0"/>
<path d="M108.43 69.0474L111.333 67.2812L111.551 68.6456L108.648 70.4118L108.43 69.0474Z" fill="#42E8E0"/>
<path d="M88.7773 74.1315L91.4645 72.4961L91.6841 73.8615L88.996 75.4969L88.7773 74.1315Z" fill="#42E8E0"/>
<path d="M88.5234 70.9292L90.5567 69.6914L90.7763 71.0569L88.7421 72.2936L88.5234 70.9292Z" fill="#42E8E0"/>
<path d="M84.6953 73.2594L87.3825 71.625L87.6021 72.9894L84.9139 74.6248L84.6953 73.2594Z" fill="#42E8E0"/>
<path d="M96.8359 76.0956L98.6625 74.9844L98.8811 76.3488L97.0556 77.461L96.8359 76.0956Z" fill="#42E8E0"/>
<path d="M93.9883 77.826L95.8138 76.7148L96.0335 78.0792L94.2069 79.1915L93.9883 77.826Z" fill="#42E8E0"/>
<path d="M108.016 93.4929L114.246 89.7031L114.464 91.0675L108.235 94.8583L108.016 93.4929Z" fill="#42E8E0"/>
<path d="M101.039 97.7387L106.876 94.1875L107.095 95.5519L101.259 99.1041L101.039 97.7387Z" fill="#42E8E0"/>
<path d="M98.0742 99.5448L99.9008 98.4336L100.119 99.798L98.2929 100.909L98.0742 99.5448Z" fill="#42E8E0"/>
<path d="M95.2266 101.28L97.0531 100.168L97.2717 101.533L95.4452 102.645L95.2266 101.28Z" fill="#42E8E0"/>
<path d="M93.6708 102.227L89.7305 104.624L89.9491 105.989L93.8894 103.591L93.6708 102.227Z" fill="#42E8E0"/>
<path d="M298.118 240.045C298.034 240.045 297.95 240.022 297.872 239.976L246.277 208.613C246.042 208.47 245.962 208.154 246.097 207.907C246.232 207.66 246.533 207.575 246.768 207.717L298.363 239.081C298.598 239.224 298.678 239.54 298.543 239.787C298.453 239.953 298.288 240.045 298.118 240.045Z" fill="#42E8E0"/>
<path d="M248.328 190.276C248.158 190.276 247.993 190.183 247.902 190.018C247.766 189.771 247.847 189.455 248.082 189.312L299.678 157.948C299.912 157.805 300.213 157.891 300.349 158.138C300.485 158.385 300.404 158.701 300.169 158.844L248.573 190.208C248.495 190.254 248.411 190.276 248.328 190.276Z" fill="#42E8E0"/>
<path d="M128.285 263.609C128.115 263.609 127.95 263.516 127.859 263.351C127.723 263.104 127.804 262.788 128.039 262.644L179.635 231.28C179.868 231.138 180.17 231.222 180.306 231.47C180.442 231.717 180.361 232.032 180.126 232.176L128.53 263.54C128.451 263.586 128.367 263.609 128.285 263.609Z" fill="#42E8E0"/>
<path d="M221.501 195.393C221.417 195.393 221.333 195.371 221.255 195.324L169.659 163.961C169.425 163.817 169.344 163.502 169.48 163.255C169.615 163.008 169.917 162.923 170.15 163.065L221.746 194.428C221.981 194.572 222.061 194.887 221.926 195.135C221.836 195.3 221.671 195.393 221.501 195.393Z" fill="#42E8E0"/>
<path d="M315.846 307.321C314.352 307.321 312.884 306.907 311.6 306.127L262.701 276.402C261.932 275.935 261.473 275.096 261.473 274.161C261.473 273.226 261.932 272.389 262.701 271.921L351.176 218.139C351.328 218.047 351.514 218.047 351.666 218.139L352.078 218.388L404.568 250.295C405.336 250.762 405.795 251.6 405.795 252.536C405.795 253.472 405.337 254.308 404.568 254.776L320.093 306.127C318.808 306.909 317.34 307.321 315.846 307.321ZM351.423 219.185L263.193 272.818C262.731 273.099 262.455 273.601 262.455 274.162C262.455 274.723 262.731 275.226 263.194 275.508L312.091 305.232C314.362 306.611 317.331 306.611 319.603 305.232L404.078 253.881C404.539 253.601 404.814 253.099 404.814 252.537C404.814 251.975 404.539 251.472 404.078 251.191L351.423 219.185Z" fill="#42E8E0"/>
<path d="M410.908 235.857L405.775 238.679L354.305 207.392C353.444 206.869 351.94 206.934 350.945 207.539L262.176 261.5C261.326 261 257.453 259.04 257.453 259.04L259.332 264.194C259.332 264.194 259.338 264.188 259.34 264.187C259.418 264.417 259.585 264.63 259.866 264.801L314.073 297.752C314.935 298.275 316.439 298.21 317.433 297.606L408.273 242.386C408.682 242.138 408.932 241.838 409.035 241.534L409.042 241.539L410.908 235.857Z" fill="url(#paint30_linear_491_21674)"/>
<path d="M410.116 236.745L317.017 293.337C315.998 293.956 314.456 294.023 313.574 293.487L258.018 259.716C257.135 259.18 257.246 258.243 258.265 257.624L351.364 201.032C352.382 200.412 353.925 200.346 354.807 200.881L410.363 234.652C411.245 235.188 411.134 236.125 410.116 236.745Z" fill="url(#paint31_linear_491_21674)"/>
<path d="M410.115 236.181L317.016 292.773C315.997 293.392 314.455 293.459 313.573 292.923L258.017 259.153C257.728 258.977 257.556 258.756 257.477 258.521C257.337 258.961 257.505 259.407 258.017 259.718L313.573 293.488C314.455 294.025 315.996 293.957 317.016 293.338L410.115 236.746C410.8 236.329 411.064 235.771 410.902 235.285C410.8 235.604 410.542 235.92 410.115 236.181Z" fill="white"/>
<path d="M288.938 281.094V280.02C288.938 279.918 288.996 279.871 289.069 279.915L292.67 282.104C292.743 282.148 292.801 282.266 292.801 282.369V283.443C292.801 283.545 292.743 283.592 292.67 283.548L289.069 281.359C288.997 281.314 288.938 281.196 288.938 281.094Z" fill="#2842A2"/>
<path d="M294.32 284.368V283.293C294.32 283.191 294.379 283.144 294.452 283.188L298.053 285.377C298.125 285.421 298.184 285.539 298.184 285.642V286.716C298.184 286.818 298.125 286.865 298.053 286.821L294.452 284.632C294.379 284.588 294.32 284.47 294.32 284.368Z" fill="#2842A2"/>
<path d="M289.34 267.392L366.705 220.364C367.221 220.05 367.857 220.051 368.372 220.365L395.921 237.147C396.316 237.387 396.316 237.989 395.921 238.23L318.591 285.236C318.077 285.549 317.442 285.549 316.926 285.236L289.339 268.475C288.944 268.236 288.944 267.634 289.34 267.392Z" fill="#ADB1F2"/>
<path d="M289.34 268.475L289.617 268.643L366.705 221.783C367.221 221.469 367.857 221.47 368.371 221.784L395.643 238.398L395.921 238.229C396.316 237.989 396.316 237.387 395.921 237.146L368.371 220.364C367.856 220.051 367.221 220.051 366.705 220.363L289.34 267.392C288.944 267.633 288.944 268.234 289.34 268.475Z" fill="#9198DB"/>
<path d="M370.452 224.617L299.189 267.936L295.656 266.451L367.464 222.801L370.452 224.617Z" fill="#24126A"/>
<path d="M377.775 229.07L314.741 267.386L311.754 265.57L374.787 227.254L377.775 229.07Z" fill="#24126A"/>
<path d="M382.547 231.973L308.332 277.085L305.344 275.269L379.559 230.156L382.547 231.973Z" fill="#24126A"/>
<path d="M387.32 234.871L313.105 279.984L310.117 278.167L384.333 233.055L387.32 234.871Z" fill="#24126A"/>
<path d="M392.089 237.773L317.875 282.886L314.887 281.07L389.102 235.957L392.089 237.773Z" fill="#24126A"/>
<path d="M299.187 267.934L296.199 269.75L293.211 267.934L296.199 266.117L299.187 267.934Z" fill="#24126A"/>
<path d="M318.369 265.182L303.527 274.204L300.539 272.388L315.489 263.301L318.369 265.182Z" fill="#24126A"/>
<path d="M316.883 246.319L337.743 233.639C338.558 233.143 338.558 232.339 337.743 231.845L323.479 223.173C322.664 222.677 321.341 222.677 320.526 223.173L299.666 235.853C298.851 236.349 298.851 237.153 299.666 237.647L313.93 246.319C314.745 246.815 316.068 246.815 316.883 246.319Z" fill="url(#paint32_linear_491_21674)"/>
<path d="M299.667 236.588L320.527 223.907C321.342 223.411 322.664 223.411 323.479 223.907L337.744 232.579C337.995 232.732 338.16 232.916 338.257 233.11C338.472 232.676 338.308 232.188 337.744 231.845L323.479 223.173C322.664 222.677 321.342 222.677 320.527 223.173L299.667 235.853C299.103 236.196 298.938 236.684 299.154 237.118C299.25 236.924 299.414 236.74 299.667 236.588Z" fill="#9198DB"/>
<path d="M410.76 234.403L398.992 160.89L399.938 160.471L398.516 159.613L398.518 159.621C398.241 159.427 397.852 159.439 397.421 159.7L303.366 216.874C302.594 217.344 302.009 218.548 302.145 219.389L314.007 293.487C314.07 293.873 314.251 294.13 314.503 294.242L314.502 294.243L315.893 295.089L316.133 293.721L316.053 293.747L409.539 236.919C410.311 236.45 410.896 235.245 410.76 234.403Z" fill="url(#paint33_linear_491_21674)"/>
<path d="M303.889 218.884L302.343 218.164C302.17 218.58 302.084 219.02 302.144 219.389L314.007 293.487C314.069 293.873 314.25 294.129 314.502 294.241L314.501 294.242L315.893 295.089L316.132 293.721L316.053 293.747L320.783 290.871L303.889 218.884Z" fill="url(#paint34_linear_491_21674)"/>
<path d="M411.014 237.812L316.959 294.986C316.232 295.427 315.611 295.172 315.483 294.381L303.621 220.283C303.485 219.441 304.07 218.238 304.843 217.768L398.898 160.594C399.625 160.153 400.246 160.408 400.374 161.199L412.236 235.297C412.371 236.138 411.787 237.342 411.014 237.812Z" fill="#453C9E"/>
<path d="M193.883 239.769C192.732 239.769 191.603 239.469 190.704 238.922L169.927 226.292C168.788 225.6 168.133 224.57 168.133 223.467C168.133 222.463 168.673 221.559 169.616 220.985L269.595 160.209C271.159 159.258 273.653 159.34 275.394 160.399L296.172 173.029C297.312 173.722 297.966 174.753 297.966 175.856C297.966 176.861 297.426 177.765 296.483 178.337L196.503 239.112C195.805 239.534 194.875 239.769 193.883 239.769ZM272.21 160.588C271.416 160.588 270.655 160.758 270.086 161.103L170.106 221.879C169.476 222.262 169.115 222.841 169.115 223.466C169.116 224.189 169.59 224.892 170.418 225.397L191.195 238.027C192.565 238.857 194.814 238.944 196.012 238.216L295.993 177.441C296.623 177.058 296.984 176.481 296.984 175.855C296.984 175.132 296.509 174.427 295.682 173.922L274.903 161.292C274.136 160.826 273.15 160.588 272.21 160.588Z" fill="#42E8E0"/>
<path opacity="0.6" d="M193.885 239.251C192.862 239.251 191.798 238.988 190.951 238.473L170.173 225.843C169.189 225.246 168.625 224.378 168.625 223.465C168.625 222.651 169.076 221.909 169.862 221.431L269.842 160.655C271.245 159.802 273.574 159.886 275.15 160.844L295.928 173.474C296.912 174.073 297.477 174.94 297.477 175.853C297.477 176.668 297.026 177.409 296.239 177.888L196.259 238.663C195.61 239.057 194.764 239.251 193.885 239.251Z" fill="url(#paint35_linear_491_21674)" fill-opacity="0.5"/>
<path d="M255.596 125.68C252.968 127.278 250.482 129.528 248.269 132.187C245.198 121.801 235.831 118.579 224.749 125.316C215.58 130.89 207.589 141.852 203.363 153.466C201.961 153.513 200.401 153.999 198.748 155.003C192.765 158.64 187.914 167.485 187.914 174.759C187.914 174.916 187.929 175.06 187.933 175.211C186.227 175.335 184.341 175.97 182.356 177.176C174.703 181.828 168.5 193.141 168.5 202.444C168.5 211.748 174.703 215.517 182.356 210.866L255.596 166.345C264.833 160.729 272.321 147.074 272.321 135.845C272.322 124.616 264.833 120.065 255.596 125.68Z" fill="url(#paint36_linear_491_21674)"/>
<path d="M255.597 125.68C254.073 126.606 252.6 127.758 251.197 129.075L243.007 124.093L243.008 124.095C238.509 120.764 231.996 120.91 224.749 125.315C215.58 130.888 207.589 141.851 203.362 153.465C201.96 153.512 200.4 153.997 198.747 155.002C192.764 158.639 187.913 167.484 187.913 174.758C187.913 174.915 187.928 175.058 187.933 175.21C186.227 175.334 184.341 175.969 182.356 177.175C174.703 181.827 168.5 193.14 168.5 202.443C168.5 207.054 170.026 210.299 172.495 211.84L172.489 211.844L172.553 211.882C172.557 211.884 172.561 211.888 172.566 211.89L192.626 224.149L197.007 201.958L255.596 166.343C264.833 160.727 272.321 147.073 272.321 135.843C272.323 124.616 264.834 120.064 255.597 125.68Z" fill="url(#paint37_radial_491_21674)"/>
<path d="M287.838 136.935L267.514 124.502L267.515 124.507C264.481 122.605 260.263 122.843 255.597 125.68C254.073 126.606 252.6 127.758 251.197 129.075L243.007 124.093L243.008 124.095C238.509 120.764 231.996 120.91 224.749 125.315C215.58 130.888 207.589 141.851 203.362 153.465C201.96 153.512 200.4 153.997 198.747 155.002C192.764 158.639 187.913 167.484 187.913 174.758C187.913 174.915 187.928 175.058 187.933 175.21C186.227 175.334 184.341 175.969 182.356 177.175C174.703 181.827 168.5 193.14 168.5 202.443C168.5 207.054 170.026 210.299 172.495 211.84L172.489 211.844L172.553 211.882C172.557 211.884 172.561 211.888 172.566 211.89L192.626 224.149L197.007 201.958L255.596 166.343C263.084 161.791 269.421 151.956 271.553 142.412L287.838 136.935Z" fill="url(#paint38_linear_491_21674)"/>
<path d="M275.722 137.978C273.094 139.575 270.608 141.826 268.395 144.484C265.324 134.098 255.957 130.876 244.875 137.612C235.706 143.186 227.715 154.148 223.488 165.762C222.086 165.809 220.526 166.295 218.873 167.299C212.89 170.936 208.039 179.782 208.039 187.056C208.039 187.213 208.054 187.355 208.058 187.508C206.352 187.631 204.466 188.266 202.481 189.473C194.828 194.125 188.625 205.437 188.625 214.741C188.625 224.045 194.829 227.815 202.481 223.164L275.721 178.643C284.958 173.028 292.446 159.373 292.446 148.144C292.446 136.914 284.959 132.363 275.722 137.978Z" fill="url(#paint39_linear_491_21674)"/>
<path d="M269.066 144.908C271.28 142.249 273.765 140 276.393 138.401C280.91 135.655 285.006 135.347 288.015 137.054C284.959 134.886 280.583 135.022 275.723 137.977C273.246 139.483 270.899 141.572 268.785 144.032C268.884 144.319 268.979 144.61 269.066 144.908Z" fill="white"/>
<path d="M189.297 215.167C189.297 205.863 195.501 194.551 203.153 189.899C205.138 188.692 207.023 188.057 208.73 187.934C208.725 187.781 208.71 187.638 208.71 187.482C208.71 180.208 213.561 171.362 219.543 167.725C221.196 166.721 222.756 166.235 224.157 166.188C228.385 154.574 236.376 143.611 245.544 138.038C252.247 133.964 258.319 133.538 262.754 136.13C258.273 133.078 251.921 133.33 244.874 137.613C235.705 143.187 227.714 154.149 223.487 165.763C222.085 165.81 220.525 166.296 218.872 167.3C212.889 170.937 208.039 179.783 208.039 187.057C208.039 187.214 208.054 187.356 208.058 187.509C206.352 187.632 204.466 188.269 202.481 189.475C194.828 194.127 188.625 205.44 188.625 214.743C188.625 219.521 190.264 222.834 192.892 224.302C190.658 222.67 189.297 219.526 189.297 215.167Z" fill="white"/>
<path d="M163.91 308.668C162.419 308.668 160.95 308.256 159.663 307.474L75.1882 256.124C74.4201 255.657 73.9609 254.82 73.9609 253.883C73.9609 252.948 74.4201 252.111 75.1882 251.642L128.089 219.487C128.241 219.395 128.428 219.395 128.58 219.487L217.055 273.267C217.824 273.736 218.284 274.573 218.284 275.509C218.284 276.444 217.824 277.28 217.056 277.75L168.157 307.474C166.871 308.256 165.403 308.668 163.91 308.668ZM160.155 306.579C162.43 307.959 165.393 307.959 167.666 306.579L216.564 276.855C217.025 276.574 217.302 276.071 217.302 275.51C217.302 274.949 217.026 274.445 216.564 274.164L128.335 220.532L75.6811 252.539C75.22 252.82 74.9448 253.323 74.9448 253.885C74.9448 254.446 75.22 254.95 75.6811 255.229L160.155 306.579Z" fill="#42E8E0"/>
<path d="M68.8516 237.205L73.9844 240.027L125.454 208.74C126.315 208.217 127.819 208.282 128.814 208.887L217.584 262.848C218.433 262.348 222.306 260.387 222.306 260.387L220.427 265.541L220.419 265.535C220.341 265.764 220.174 265.978 219.893 266.149L165.686 299.101C164.824 299.624 163.321 299.559 162.326 298.954L71.4861 243.735C71.0776 243.487 70.8272 243.187 70.7238 242.882L70.7169 242.888L68.8516 237.205Z" fill="url(#paint40_linear_491_21674)"/>
<path d="M69.6441 238.096L162.743 294.688C163.761 295.307 165.304 295.374 166.186 294.839L221.742 261.068C222.625 260.531 222.514 259.595 221.495 258.975L128.396 202.383C127.377 201.764 125.835 201.697 124.953 202.233L69.3966 236.004C68.5142 236.539 68.6245 237.477 69.6441 238.096Z" fill="url(#paint41_linear_491_21674)"/>
<path d="M69.6458 237.532L162.744 294.124C163.763 294.744 165.305 294.811 166.188 294.275L221.744 260.504C222.033 260.328 222.205 260.108 222.283 259.872C222.424 260.313 222.256 260.758 221.744 261.069L166.188 294.84C165.305 295.377 163.764 295.309 162.744 294.689L69.6458 238.097C68.9601 237.681 68.6968 237.122 68.8588 236.637C68.9602 236.955 69.2175 237.272 69.6458 237.532Z" fill="white"/>
<path d="M190.825 282.446V281.371C190.825 281.27 190.766 281.223 190.694 281.266L187.092 283.455C187.02 283.499 186.961 283.618 186.961 283.72V284.796C186.961 284.897 187.02 284.944 187.092 284.9L190.694 282.711C190.766 282.666 190.825 282.548 190.825 282.446Z" fill="#2842A2"/>
<path d="M185.438 285.719V284.645C185.438 284.543 185.379 284.496 185.307 284.54L181.705 286.729C181.633 286.773 181.574 286.891 181.574 286.994V288.068C181.574 288.17 181.633 288.217 181.705 288.173L185.307 285.984C185.379 285.939 185.438 285.821 185.438 285.719Z" fill="#2842A2"/>
<path d="M190.421 268.744L113.055 221.715C112.54 221.401 111.905 221.403 111.389 221.716L83.8395 238.498C83.444 238.739 83.444 239.341 83.8405 239.581L161.17 286.588C161.685 286.901 162.32 286.901 162.835 286.588L190.423 269.827C190.817 269.586 190.817 268.985 190.421 268.744Z" fill="#ADB1F2"/>
<path d="M190.421 269.827L190.144 269.995L113.056 223.135C112.54 222.821 111.905 222.822 111.389 223.136L84.1174 239.749L83.8401 239.581C83.4446 239.34 83.4436 238.738 83.8391 238.498L111.388 221.716C111.904 221.402 112.539 221.402 113.055 221.715L190.42 268.744C190.818 268.984 190.818 269.586 190.421 269.827Z" fill="#9198DB"/>
<path d="M109.312 225.965L180.576 269.284L184.109 267.798L112.301 224.148L109.312 225.965Z" fill="#24126A"/>
<path d="M101.984 230.418L165.017 268.735L168.006 266.919L104.972 228.602L101.984 230.418Z" fill="#24126A"/>
<path d="M97.2148 233.32L171.43 278.434L174.418 276.618L100.203 231.504L97.2148 233.32Z" fill="#24126A"/>
<path d="M92.4453 236.219L166.66 281.333L169.649 279.516L95.4336 234.402L92.4453 236.219Z" fill="#24126A"/>
<path d="M87.6719 239.117L161.887 284.231L164.875 282.415L90.6602 237.301L87.6719 239.117Z" fill="#24126A"/>
<path d="M180.574 269.285L183.561 271.102L186.55 269.285L183.561 267.469L180.574 269.285Z" fill="#24126A"/>
<path d="M161.395 266.531L176.238 275.553L179.226 273.737L164.275 264.648L161.395 266.531Z" fill="#24126A"/>
<path d="M162.875 247.67L142.014 234.99C141.198 234.494 141.198 233.69 142.014 233.195L156.279 224.524C157.095 224.028 158.416 224.028 159.231 224.524L180.092 237.205C180.907 237.701 180.907 238.504 180.092 238.999L165.827 247.671C165.012 248.166 163.69 248.166 162.875 247.67Z" fill="url(#paint42_linear_491_21674)"/>
<path d="M180.092 237.938L159.231 225.258C158.417 224.762 157.094 224.762 156.279 225.258L142.014 233.93C141.763 234.082 141.598 234.267 141.502 234.46C141.286 234.027 141.45 233.538 142.014 233.195L156.279 224.524C157.094 224.028 158.417 224.028 159.231 224.524L180.092 237.205C180.655 237.547 180.82 238.035 180.605 238.47C180.508 238.274 180.343 238.091 180.092 237.938Z" fill="#9198DB"/>
<path d="M68.9961 235.751L80.7643 162.238L79.8183 161.818L81.2403 160.96L81.2384 160.969C81.5136 160.775 81.9042 160.787 82.3345 161.048L176.39 218.222C177.162 218.692 177.747 219.896 177.611 220.737L165.749 294.835C165.686 295.221 165.505 295.477 165.253 295.589L163.863 296.436L163.624 295.068L163.704 295.093L70.2184 238.266C69.4452 237.797 68.8609 236.593 68.9961 235.751Z" fill="url(#paint43_linear_491_21674)"/>
<path d="M175.87 220.232L177.416 219.512C177.59 219.928 177.674 220.368 177.615 220.737L165.752 294.835C165.69 295.221 165.509 295.477 165.256 295.589H165.257L163.866 296.436L163.627 295.068L163.707 295.093L158.977 292.218L175.87 220.232Z" fill="url(#paint44_linear_491_21674)"/>
<path d="M68.744 239.16L162.8 296.333C163.526 296.775 164.147 296.52 164.275 295.729L176.138 221.631C176.274 220.789 175.689 219.585 174.917 219.115L80.8611 161.942C80.1347 161.5 79.5136 161.756 79.3854 162.547L67.5237 236.644C67.3875 237.486 67.9719 238.69 68.744 239.16Z" fill="#453C9E"/>
<defs>
<linearGradient id="paint0_linear_491_21674" x1="303.77" y1="84.575" x2="370.153" y2="194.781" gradientUnits="userSpaceOnUse">
<stop stop-color="#42E8E0"/>
<stop offset="0.0185" stop-color="#40DEDA"/>
<stop offset="0.1149" stop-color="#37ADBC"/>
<stop offset="0.2166" stop-color="#2E82A2"/>
<stop offset="0.3219" stop-color="#285E8C"/>
<stop offset="0.4319" stop-color="#A9ACB1"/>
<stop offset="0.5479" stop-color="#A4A4A4"/>
<stop offset="0.6729" stop-color="#B5B5B5"/>
<stop offset="0.813" stop-color="#E2E2E2"/>
<stop offset="1" stop-color="white"/>
</linearGradient>
<linearGradient id="paint1_linear_491_21674" x1="171.23" y1="161.441" x2="104.847" y2="51.2347" gradientUnits="userSpaceOnUse">
<stop stop-color="#42E8E0"/>
<stop offset="0.0185" stop-color="#40DEDA"/>
<stop offset="0.1149" stop-color="#37ADBC"/>
<stop offset="0.2166" stop-color="#2E82A2"/>
<stop offset="0.3219" stop-color="#285E8C"/>
<stop offset="0.4319" stop-color="#A9ACB1"/>
<stop offset="0.5479" stop-color="#A4A4A4"/>
<stop offset="0.6729" stop-color="#B5B5B5"/>
<stop offset="0.813" stop-color="#E2E2E2"/>
<stop offset="1" stop-color="white"/>
</linearGradient>
<linearGradient id="paint2_linear_491_21674" x1="424.305" y1="68.9985" x2="313.73" y2="68.9985" gradientUnits="userSpaceOnUse">
<stop stop-color="#C0BFF6"/>
<stop offset="0.2938" stop-color="#C5C4F7"/>
<stop offset="0.6399" stop-color="#D3D2F9"/>
<stop offset="1" stop-color="#E9E9FD"/>
</linearGradient>
<linearGradient id="paint3_linear_491_21674" x1="424.304" y1="98.8571" x2="405.317" y2="98.8571" gradientUnits="userSpaceOnUse">
<stop stop-color="#5761D7"/>
<stop offset="0.1779" stop-color="#5C66D9"/>
<stop offset="0.3876" stop-color="#6A73DF"/>
<stop offset="0.6134" stop-color="#8289E8"/>
<stop offset="0.849" stop-color="#A3A7F5"/>
<stop offset="1" stop-color="#BCBEFF"/>
</linearGradient>
<linearGradient id="paint4_linear_491_21674" x1="409.487" y1="132.42" x2="253.32" y2="132.42" gradientUnits="userSpaceOnUse">
<stop stop-color="#5761D7"/>
<stop offset="0.1779" stop-color="#5C66D9"/>
<stop offset="0.3876" stop-color="#6A73DF"/>
<stop offset="0.6134" stop-color="#8289E8"/>
<stop offset="0.849" stop-color="#A3A7F5"/>
<stop offset="1" stop-color="#BCBEFF"/>
</linearGradient>
<linearGradient id="paint5_linear_491_21674" x1="357.015" y1="126.937" x2="200.764" y2="126.937" gradientUnits="userSpaceOnUse">
<stop stop-color="#C0BFF6"/>
<stop offset="0.2938" stop-color="#C5C4F7"/>
<stop offset="0.6399" stop-color="#D3D2F9"/>
<stop offset="1" stop-color="#E9E9FD"/>
</linearGradient>
<linearGradient id="paint6_linear_491_21674" x1="330.555" y1="136.277" x2="290.559" y2="136.277" gradientUnits="userSpaceOnUse">
<stop stop-color="#C0BFF6"/>
<stop offset="0.2938" stop-color="#C5C4F7"/>
<stop offset="0.6399" stop-color="#D3D2F9"/>
<stop offset="1" stop-color="#E9E9FD"/>
</linearGradient>
<linearGradient id="paint7_linear_491_21674" x1="416.714" y1="90.4683" x2="260.463" y2="90.4683" gradientUnits="userSpaceOnUse">
<stop stop-color="#C0BFF6"/>
<stop offset="0.2938" stop-color="#C5C4F7"/>
<stop offset="0.6399" stop-color="#D3D2F9"/>
<stop offset="1" stop-color="#E9E9FD"/>
</linearGradient>
<linearGradient id="paint8_linear_491_21674" x1="426.996" y1="78.3913" x2="387" y2="78.3913" gradientUnits="userSpaceOnUse">
<stop stop-color="#C0BFF6"/>
<stop offset="0.2938" stop-color="#C5C4F7"/>
<stop offset="0.6399" stop-color="#D3D2F9"/>
<stop offset="1" stop-color="#E9E9FD"/>
</linearGradient>
<linearGradient id="paint9_linear_491_21674" x1="149.959" y1="206.656" x2="45.7385" y2="274.721" gradientUnits="userSpaceOnUse">
<stop stop-color="#42E8E0"/>
<stop offset="0.0185" stop-color="#40DEDA"/>
<stop offset="0.1149" stop-color="#37ADBC"/>
<stop offset="0.2166" stop-color="#2E82A2"/>
<stop offset="0.3219" stop-color="#285E8C"/>
<stop offset="0.4319" stop-color="#A9ACB1"/>
<stop offset="0.5479" stop-color="#A4A4A4"/>
<stop offset="0.6729" stop-color="#B5B5B5"/>
<stop offset="0.813" stop-color="#E2E2E2"/>
<stop offset="1" stop-color="white"/>
</linearGradient>
<linearGradient id="paint10_linear_491_21674" x1="305.787" y1="246.395" x2="371.94" y2="355.218" gradientUnits="userSpaceOnUse">
<stop stop-color="#42E8E0"/>
<stop offset="0.0185" stop-color="#40DEDA"/>
<stop offset="0.1149" stop-color="#37ADBC"/>
<stop offset="0.2166" stop-color="#2E82A2"/>
<stop offset="0.3219" stop-color="#285E8C"/>
<stop offset="0.4319" stop-color="#A9ACB1"/>
<stop offset="0.5479" stop-color="#A4A4A4"/>
<stop offset="0.6729" stop-color="#B5B5B5"/>
<stop offset="0.813" stop-color="#E2E2E2"/>
<stop offset="1" stop-color="white"/>
</linearGradient>
<linearGradient id="paint11_linear_491_21674" x1="50.6223" y1="70.9995" x2="161.197" y2="70.9995" gradientUnits="userSpaceOnUse">
<stop stop-color="#C0BFF6"/>
<stop offset="0.2938" stop-color="#C5C4F7"/>
<stop offset="0.6399" stop-color="#D3D2F9"/>
<stop offset="1" stop-color="#E9E9FD"/>
</linearGradient>
<linearGradient id="paint12_linear_491_21674" x1="50.6223" y1="100.857" x2="69.609" y2="100.857" gradientUnits="userSpaceOnUse">
<stop stop-color="#5761D7"/>
<stop offset="0.1779" stop-color="#5C66D9"/>
<stop offset="0.3876" stop-color="#6A73DF"/>
<stop offset="0.6134" stop-color="#8289E8"/>
<stop offset="0.849" stop-color="#A3A7F5"/>
<stop offset="1" stop-color="#BCBEFF"/>
</linearGradient>
<linearGradient id="paint13_linear_491_21674" x1="65.4368" y1="134.42" x2="221.604" y2="134.42" gradientUnits="userSpaceOnUse">
<stop stop-color="#5761D7"/>
<stop offset="0.1779" stop-color="#5C66D9"/>
<stop offset="0.3876" stop-color="#6A73DF"/>
<stop offset="0.6134" stop-color="#8289E8"/>
<stop offset="0.849" stop-color="#A3A7F5"/>
<stop offset="1" stop-color="#BCBEFF"/>
</linearGradient>
<linearGradient id="paint14_linear_491_21674" x1="117.911" y1="128.936" x2="274.162" y2="128.936" gradientUnits="userSpaceOnUse">
<stop stop-color="#C0BFF6"/>
<stop offset="0.2938" stop-color="#C5C4F7"/>
<stop offset="0.6399" stop-color="#D3D2F9"/>
<stop offset="1" stop-color="#E9E9FD"/>
</linearGradient>
<linearGradient id="paint15_linear_491_21674" x1="144.372" y1="138.277" x2="184.368" y2="138.277" gradientUnits="userSpaceOnUse">
<stop stop-color="#C0BFF6"/>
<stop offset="0.2938" stop-color="#C5C4F7"/>
<stop offset="0.6399" stop-color="#D3D2F9"/>
<stop offset="1" stop-color="#E9E9FD"/>
</linearGradient>
<linearGradient id="paint16_linear_491_21674" x1="58.2131" y1="92.4682" x2="214.464" y2="92.4682" gradientUnits="userSpaceOnUse">
<stop stop-color="#C0BFF6"/>
<stop offset="0.2938" stop-color="#C5C4F7"/>
<stop offset="0.6399" stop-color="#D3D2F9"/>
<stop offset="1" stop-color="#E9E9FD"/>
</linearGradient>
<linearGradient id="paint17_linear_491_21674" x1="47.9308" y1="80.394" x2="87.9265" y2="80.394" gradientUnits="userSpaceOnUse">
<stop stop-color="#C0BFF6"/>
<stop offset="0.2938" stop-color="#C5C4F7"/>
<stop offset="0.6399" stop-color="#D3D2F9"/>
<stop offset="1" stop-color="#E9E9FD"/>
</linearGradient>
<linearGradient id="paint18_linear_491_21674" x1="258.16" y1="252.662" x2="411.615" y2="252.662" gradientUnits="userSpaceOnUse">
<stop stop-color="#5761D7"/>
<stop offset="0.1779" stop-color="#5C66D9"/>
<stop offset="0.3876" stop-color="#6A73DF"/>
<stop offset="0.6134" stop-color="#8289E8"/>
<stop offset="0.849" stop-color="#A3A7F5"/>
<stop offset="1" stop-color="#BCBEFF"/>
</linearGradient>
<linearGradient id="paint19_linear_491_21674" x1="309.723" y1="247.273" x2="463.259" y2="247.273" gradientUnits="userSpaceOnUse">
<stop stop-color="#C0BFF6"/>
<stop offset="0.2938" stop-color="#C5C4F7"/>
<stop offset="0.6399" stop-color="#D3D2F9"/>
<stop offset="1" stop-color="#E9E9FD"/>
</linearGradient>
<linearGradient id="paint20_linear_491_21674" x1="299.761" y1="234.836" x2="339.062" y2="234.836" gradientUnits="userSpaceOnUse">
<stop stop-color="#C0BFF6"/>
<stop offset="0.2938" stop-color="#C5C4F7"/>
<stop offset="0.6399" stop-color="#D3D2F9"/>
<stop offset="1" stop-color="#E9E9FD"/>
</linearGradient>
<linearGradient id="paint21_linear_491_21674" x1="302.833" y1="227.378" x2="411.487" y2="227.378" gradientUnits="userSpaceOnUse">
<stop stop-color="#C0BFF6"/>
<stop offset="0.2938" stop-color="#C5C4F7"/>
<stop offset="0.6399" stop-color="#D3D2F9"/>
<stop offset="1" stop-color="#E9E9FD"/>
</linearGradient>
<linearGradient id="paint22_linear_491_21674" x1="302.835" y1="256.715" x2="321.492" y2="256.715" gradientUnits="userSpaceOnUse">
<stop stop-color="#5761D7"/>
<stop offset="0.1779" stop-color="#5C66D9"/>
<stop offset="0.3876" stop-color="#6A73DF"/>
<stop offset="0.6134" stop-color="#8289E8"/>
<stop offset="0.849" stop-color="#A3A7F5"/>
<stop offset="1" stop-color="#BCBEFF"/>
</linearGradient>
<linearGradient id="paint23_linear_491_21674" x1="50.52" y1="70.7601" x2="161.095" y2="70.7601" gradientUnits="userSpaceOnUse">
<stop stop-color="#C0BFF6"/>
<stop offset="0.2938" stop-color="#C5C4F7"/>
<stop offset="0.6399" stop-color="#D3D2F9"/>
<stop offset="1" stop-color="#E9E9FD"/>
</linearGradient>
<linearGradient id="paint24_linear_491_21674" x1="50.5229" y1="100.619" x2="69.5097" y2="100.619" gradientUnits="userSpaceOnUse">
<stop stop-color="#5761D7"/>
<stop offset="0.1779" stop-color="#5C66D9"/>
<stop offset="0.3876" stop-color="#6A73DF"/>
<stop offset="0.6134" stop-color="#8289E8"/>
<stop offset="0.849" stop-color="#A3A7F5"/>
<stop offset="1" stop-color="#BCBEFF"/>
</linearGradient>
<linearGradient id="paint25_linear_491_21674" x1="65.3345" y1="134.182" x2="221.502" y2="134.182" gradientUnits="userSpaceOnUse">
<stop stop-color="#5761D7"/>
<stop offset="0.1779" stop-color="#5C66D9"/>
<stop offset="0.3876" stop-color="#6A73DF"/>
<stop offset="0.6134" stop-color="#8289E8"/>
<stop offset="0.849" stop-color="#A3A7F5"/>
<stop offset="1" stop-color="#BCBEFF"/>
</linearGradient>
<linearGradient id="paint26_linear_491_21674" x1="117.807" y1="128.698" x2="274.058" y2="128.698" gradientUnits="userSpaceOnUse">
<stop stop-color="#C0BFF6"/>
<stop offset="0.2938" stop-color="#C5C4F7"/>
<stop offset="0.6399" stop-color="#D3D2F9"/>
<stop offset="1" stop-color="#E9E9FD"/>
</linearGradient>
<linearGradient id="paint27_linear_491_21674" x1="144.266" y1="138.039" x2="184.262" y2="138.039" gradientUnits="userSpaceOnUse">
<stop stop-color="#C0BFF6"/>
<stop offset="0.2938" stop-color="#C5C4F7"/>
<stop offset="0.6399" stop-color="#D3D2F9"/>
<stop offset="1" stop-color="#E9E9FD"/>
</linearGradient>
<linearGradient id="paint28_linear_491_21674" x1="58.1083" y1="92.2339" x2="214.359" y2="92.2339" gradientUnits="userSpaceOnUse">
<stop stop-color="#C0BFF6"/>
<stop offset="0.2938" stop-color="#C5C4F7"/>
<stop offset="0.6399" stop-color="#D3D2F9"/>
<stop offset="1" stop-color="#E9E9FD"/>
</linearGradient>
<linearGradient id="paint29_linear_491_21674" x1="47.8247" y1="80.1557" x2="87.8203" y2="80.1557" gradientUnits="userSpaceOnUse">
<stop stop-color="#C0BFF6"/>
<stop offset="0.2938" stop-color="#C5C4F7"/>
<stop offset="0.6399" stop-color="#D3D2F9"/>
<stop offset="1" stop-color="#E9E9FD"/>
</linearGradient>
<linearGradient id="paint30_linear_491_21674" x1="257.453" y1="252.573" x2="410.908" y2="252.573" gradientUnits="userSpaceOnUse">
<stop stop-color="#5761D7"/>
<stop offset="0.1779" stop-color="#5C66D9"/>
<stop offset="0.3876" stop-color="#6A73DF"/>
<stop offset="0.6134" stop-color="#8289E8"/>
<stop offset="0.849" stop-color="#A3A7F5"/>
<stop offset="1" stop-color="#BCBEFF"/>
</linearGradient>
<linearGradient id="paint31_linear_491_21674" x1="309.015" y1="247.184" x2="462.552" y2="247.184" gradientUnits="userSpaceOnUse">
<stop stop-color="#C0BFF6"/>
<stop offset="0.2938" stop-color="#C5C4F7"/>
<stop offset="0.6399" stop-color="#D3D2F9"/>
<stop offset="1" stop-color="#E9E9FD"/>
</linearGradient>
<linearGradient id="paint32_linear_491_21674" x1="299.054" y1="234.746" x2="338.355" y2="234.746" gradientUnits="userSpaceOnUse">
<stop stop-color="#C0BFF6"/>
<stop offset="0.2938" stop-color="#C5C4F7"/>
<stop offset="0.6399" stop-color="#D3D2F9"/>
<stop offset="1" stop-color="#E9E9FD"/>
</linearGradient>
<linearGradient id="paint33_linear_491_21674" x1="302.126" y1="227.288" x2="410.779" y2="227.288" gradientUnits="userSpaceOnUse">
<stop stop-color="#C0BFF6"/>
<stop offset="0.2938" stop-color="#C5C4F7"/>
<stop offset="0.6399" stop-color="#D3D2F9"/>
<stop offset="1" stop-color="#E9E9FD"/>
</linearGradient>
<linearGradient id="paint34_linear_491_21674" x1="302.125" y1="256.626" x2="320.782" y2="256.626" gradientUnits="userSpaceOnUse">
<stop stop-color="#5761D7"/>
<stop offset="0.1779" stop-color="#5C66D9"/>
<stop offset="0.3876" stop-color="#6A73DF"/>
<stop offset="0.6134" stop-color="#8289E8"/>
<stop offset="0.849" stop-color="#A3A7F5"/>
<stop offset="1" stop-color="#BCBEFF"/>
</linearGradient>
<linearGradient id="paint35_linear_491_21674" x1="195.236" y1="176.994" x2="235.507" y2="243.129" gradientUnits="userSpaceOnUse">
<stop stop-color="#42E8E0"/>
<stop offset="0.0185" stop-color="#40DEDA"/>
<stop offset="0.1149" stop-color="#37ADBC"/>
<stop offset="0.2166" stop-color="#2E82A2"/>
<stop offset="0.3219" stop-color="#285E8C"/>
<stop offset="0.4319" stop-color="#A9ACB1"/>
<stop offset="0.5479" stop-color="#A4A4A4"/>
<stop offset="0.6729" stop-color="#B5B5B5"/>
<stop offset="0.813" stop-color="#E2E2E2"/>
<stop offset="1" stop-color="white"/>
</linearGradient>
<linearGradient id="paint36_linear_491_21674" x1="168.501" y1="189.4" x2="272.322" y2="189.4" gradientUnits="userSpaceOnUse">
<stop stop-color="#5761D7"/>
<stop offset="0.1779" stop-color="#5C66D9"/>
<stop offset="0.3876" stop-color="#6A73DF"/>
<stop offset="0.6134" stop-color="#8289E8"/>
<stop offset="0.849" stop-color="#A3A7F5"/>
<stop offset="1" stop-color="#BCBEFF"/>
</linearGradient>
<radialGradient id="paint37_radial_491_21674" cx="0" cy="0" r="1" gradientUnits="userSpaceOnUse" gradientTransform="translate(192.901 156.588) scale(49.5247 52.143)">
<stop stop-color="#2B237C"/>
<stop offset="1" stop-color="#180D5B"/>
</radialGradient>
<linearGradient id="paint38_linear_491_21674" x1="168.501" y1="172.967" x2="287.838" y2="172.967" gradientUnits="userSpaceOnUse">
<stop stop-color="#5761D7"/>
<stop offset="0.1779" stop-color="#5C66D9"/>
<stop offset="0.3876" stop-color="#6A73DF"/>
<stop offset="0.6134" stop-color="#8289E8"/>
<stop offset="0.849" stop-color="#A3A7F5"/>
<stop offset="1" stop-color="#BCBEFF"/>
</linearGradient>
<linearGradient id="paint39_linear_491_21674" x1="188.627" y1="201.698" x2="292.448" y2="201.698" gradientUnits="userSpaceOnUse">
<stop stop-color="#C0BFF6"/>
<stop offset="0.2938" stop-color="#C5C4F7"/>
<stop offset="0.6399" stop-color="#D3D2F9"/>
<stop offset="1" stop-color="#E9E9FD"/>
</linearGradient>
<linearGradient id="paint40_linear_491_21674" x1="222.306" y1="253.921" x2="68.8519" y2="253.921" gradientUnits="userSpaceOnUse">
<stop stop-color="#5761D7"/>
<stop offset="0.1779" stop-color="#5C66D9"/>
<stop offset="0.3876" stop-color="#6A73DF"/>
<stop offset="0.6134" stop-color="#8289E8"/>
<stop offset="0.849" stop-color="#A3A7F5"/>
<stop offset="1" stop-color="#BCBEFF"/>
</linearGradient>
<linearGradient id="paint41_linear_491_21674" x1="170.744" y1="248.535" x2="17.2075" y2="248.535" gradientUnits="userSpaceOnUse">
<stop stop-color="#C0BFF6"/>
<stop offset="0.2938" stop-color="#C5C4F7"/>
<stop offset="0.6399" stop-color="#D3D2F9"/>
<stop offset="1" stop-color="#E9E9FD"/>
</linearGradient>
<linearGradient id="paint42_linear_491_21674" x1="180.704" y1="236.097" x2="141.403" y2="236.097" gradientUnits="userSpaceOnUse">
<stop stop-color="#C0BFF6"/>
<stop offset="0.2938" stop-color="#C5C4F7"/>
<stop offset="0.6399" stop-color="#D3D2F9"/>
<stop offset="1" stop-color="#E9E9FD"/>
</linearGradient>
<linearGradient id="paint43_linear_491_21674" x1="177.63" y1="228.636" x2="68.9768" y2="228.636" gradientUnits="userSpaceOnUse">
<stop stop-color="#C0BFF6"/>
<stop offset="0.2938" stop-color="#C5C4F7"/>
<stop offset="0.6399" stop-color="#D3D2F9"/>
<stop offset="1" stop-color="#E9E9FD"/>
</linearGradient>
<linearGradient id="paint44_linear_491_21674" x1="177.634" y1="257.973" x2="158.977" y2="257.973" gradientUnits="userSpaceOnUse">
<stop stop-color="#5761D7"/>
<stop offset="0.1779" stop-color="#5C66D9"/>
<stop offset="0.3876" stop-color="#6A73DF"/>
<stop offset="0.6134" stop-color="#8289E8"/>
<stop offset="0.849" stop-color="#A3A7F5"/>
<stop offset="1" stop-color="#BCBEFF"/>
</linearGradient>
</defs>
</svg>
