<svg width="800" height="560" viewBox="0 0 800 560" fill="none" xmlns="http://www.w3.org/2000/svg">
<path opacity="0.6" d="M799.812 180.939L643.013 90.4102L438.13 208.698C435.889 209.992 435.889 213.226 438.13 214.52L583.663 298.543C587.515 300.767 592.26 300.767 596.112 298.543L799.812 180.939Z" fill="url(#paint0_linear_5323_17681)" fill-opacity="0.5"/>
<path opacity="0.6" d="M363.363 212.506L206.564 303.035L1.68065 184.747C-0.559947 183.454 -0.559947 180.219 1.68065 178.926L147.214 94.9026C151.066 92.6788 155.811 92.6788 159.663 94.9026L363.363 212.506Z" fill="url(#paint1_linear_5323_17681)" fill-opacity="0.5"/>
<path d="M589.443 300.865C586.888 300.865 584.373 300.194 582.172 298.924L437.417 215.35C436.105 214.592 435.322 213.233 435.322 211.717C435.322 210.199 436.105 208.84 437.417 208.082L528.067 155.747C528.323 155.6 528.637 155.6 528.893 155.747L680.504 243.279C681.818 244.037 682.602 245.398 682.602 246.914C682.602 248.43 681.818 249.79 680.504 250.548L596.712 298.926C594.511 300.194 591.998 300.865 589.443 300.865ZM582.999 297.494C586.899 299.743 591.988 299.743 595.885 297.494L679.677 249.116C680.474 248.656 680.949 247.831 680.949 246.914C680.949 245.995 680.474 245.172 679.677 244.712L528.48 157.419L528.191 157.586L438.246 209.516C437.451 209.975 436.977 210.8 436.977 211.718C436.977 212.637 437.452 213.46 438.246 213.921L582.999 297.494Z" fill="#42E8E0"/>
<path d="M528.293 121.927L548.46 2.28225L546.839 1.59954L549.275 0.202308L549.272 0.215687C549.744 -0.0988998 550.413 -0.0804874 551.15 0.344539L712.322 93.3969C713.645 94.1617 714.648 96.1211 714.415 97.4916L694.087 218.089C693.98 218.718 693.671 219.133 693.239 219.317L693.241 219.319L690.856 220.696L690.446 218.47L690.582 218.512L530.385 126.022C529.062 125.257 528.061 123.296 528.293 121.927Z" fill="url(#paint2_linear_5323_17681)"/>
<path d="M711.424 96.6691L714.074 95.4961C714.372 96.1755 714.518 96.8883 714.415 97.4907L694.088 218.088C693.981 218.717 693.671 219.132 693.239 219.316L693.241 219.318L690.857 220.695L690.447 218.469L690.582 218.511L682.477 213.831L711.424 96.6691Z" fill="url(#paint3_linear_5323_17681)"/>
<path d="M527.857 127.473L689.03 220.525C690.275 221.243 691.339 220.828 691.558 219.539L711.886 98.9423C712.118 97.5719 711.116 95.6124 709.792 94.8477L548.62 1.79527C547.375 1.07741 546.311 1.49241 546.092 2.7792L525.764 123.376C525.532 124.748 526.534 126.708 527.857 127.473Z" fill="#24126A"/>
<g opacity="0.51">
<path d="M550.728 9.49219L706.085 99.1879L686.82 212.765L531.566 123.13L550.728 9.49219Z" fill="#453C9E"/>
</g>
<path d="M426.547 184.567L435.342 189.16L523.538 138.239C525.014 137.387 527.591 137.494 529.295 138.478L681.411 226.301C682.866 225.486 689.503 222.295 689.503 222.295L686.283 230.684L686.27 230.674C686.136 231.047 685.85 231.395 685.37 231.673L592.48 285.301C591.004 286.153 588.427 286.046 586.723 285.062L431.062 195.191C430.362 194.788 429.934 194.297 429.756 193.802L429.745 193.81L426.547 184.567Z" fill="url(#paint4_linear_5323_17681)"/>
<path d="M427.905 186.012L587.439 278.119C589.184 279.126 591.827 279.236 593.339 278.363L688.539 223.399C690.051 222.525 689.861 221.001 688.115 219.992L528.581 127.885C526.834 126.876 524.194 126.767 522.681 127.641L427.482 182.605C425.969 183.478 426.16 185.003 427.905 186.012Z" fill="url(#paint5_linear_5323_17681)"/>
<path d="M427.905 185.09L587.439 277.197C589.184 278.206 591.826 278.315 593.339 277.442L688.538 222.478C689.033 222.191 689.328 221.833 689.463 221.448C689.703 222.165 689.416 222.891 688.538 223.398L593.339 278.362C591.826 279.235 589.186 279.125 587.439 278.118L427.905 186.011C426.73 185.333 426.278 184.423 426.556 183.633C426.73 184.152 427.172 184.667 427.905 185.09Z" fill="white"/>
<path d="M635.557 258.194V256.444C635.557 256.278 635.456 256.201 635.331 256.273L629.159 259.836C629.036 259.908 628.934 260.1 628.934 260.266V262.016C628.934 262.182 629.034 262.259 629.159 262.187L635.331 258.624C635.456 258.552 635.557 258.36 635.557 258.194Z" fill="#2842A2"/>
<path d="M626.33 263.522V261.772C626.33 261.606 626.23 261.529 626.104 261.601L619.933 265.164C619.809 265.236 619.707 265.428 619.707 265.594V267.344C619.707 267.51 619.807 267.587 619.933 267.515L626.104 263.952C626.23 263.882 626.33 263.69 626.33 263.522Z" fill="#2842A2"/>
<path d="M663.718 218.251L531.147 141.711C530.263 141.2 529.174 141.2 528.291 141.712L481.082 169.026C480.405 169.418 480.405 170.397 481.082 170.788L613.592 247.293C614.476 247.803 615.563 247.803 616.445 247.293L663.717 220.014C664.398 219.621 664.398 218.642 663.718 218.251Z" fill="#ADB1F2"/>
<path d="M663.717 220.014L663.242 220.288L531.144 144.023C530.26 143.512 529.171 143.512 528.288 144.024L481.555 171.062L481.081 170.788C480.403 170.396 480.402 169.417 481.081 169.026L528.289 141.712C529.173 141.201 530.262 141.2 531.146 141.71L663.717 218.25C664.396 218.643 664.396 219.622 663.717 220.014Z" fill="#9198DB"/>
<path d="M524.729 148.629L639.886 215.115L645.006 212.158L529.849 145.672L524.729 148.629Z" fill="#24126A"/>
<path d="M512.174 155.877L620.187 218.239L625.308 215.282L517.294 152.922L512.174 155.877Z" fill="#24126A"/>
<path d="M503.998 160.596L631.173 234.02L636.292 231.063L509.118 157.641L503.998 160.596Z" fill="#24126A"/>
<path d="M495.822 165.318L622.996 238.743L628.116 235.786L500.943 162.363L495.822 165.318Z" fill="#24126A"/>
<path d="M487.646 170.037L614.82 243.461L619.94 240.505L492.767 167.082L487.646 170.037Z" fill="#24126A"/>
<path d="M646.844 219.133L651.964 222.088L657.085 219.133L651.964 216.176L646.844 219.133Z" fill="#24126A"/>
<path d="M628.781 223.199L639.41 229.333L644.531 226.378L633.902 220.242L628.781 223.199Z" fill="#24126A"/>
<path d="M526.042 236.773L490.296 216.136C488.899 215.329 488.899 214.02 490.296 213.214L514.74 199.101C516.137 198.294 518.403 198.294 519.8 199.101L555.546 219.74C556.943 220.546 556.943 221.855 555.546 222.662L531.102 236.774C529.705 237.579 527.439 237.579 526.042 236.773Z" fill="url(#paint6_linear_5323_17681)"/>
<path d="M555.545 220.933L519.799 200.296C518.402 199.489 516.136 199.489 514.739 200.296L490.295 214.409C489.863 214.658 489.582 214.956 489.416 215.272C489.046 214.566 489.329 213.771 490.295 213.214L514.739 199.101C516.136 198.294 518.402 198.294 519.799 199.101L555.545 219.74C556.51 220.297 556.793 221.092 556.423 221.798C556.258 221.482 555.976 221.182 555.545 220.933Z" fill="#9198DB"/>
<g opacity="0.11">
<mask id="mask0_5323_17681" style="mask-type:luminance" maskUnits="userSpaceOnUse" x="531" y="9" width="176" height="204">
<path d="M550.728 9.49219L706.085 99.1879L686.82 212.765L531.566 123.13L550.728 9.49219Z" fill="white"/>
</mask>
<g mask="url(#mask0_5323_17681)">
<path d="M528.423 127.695L687.957 219.802C689.703 220.811 692.345 220.92 693.857 220.046L789.057 165.083C790.569 164.209 790.379 162.685 788.633 161.676L629.099 69.5687C627.352 68.5596 624.712 68.4509 623.199 69.3244L528 124.288C526.487 125.163 526.676 126.688 528.423 127.695Z" fill="url(#paint7_linear_5323_17681)"/>
<path d="M688.43 144.208L652.685 123.569C651.287 122.763 651.287 121.454 652.685 120.647L677.129 106.535C678.526 105.728 680.792 105.728 682.187 106.535L717.933 127.173C719.33 127.98 719.33 129.289 717.933 130.095L693.489 144.208C692.093 145.015 689.828 145.015 688.43 144.208Z" fill="url(#paint8_linear_5323_17681)"/>
<path d="M717.933 128.37L682.188 107.733C680.79 106.927 678.525 106.927 677.127 107.733L652.683 121.846C652.252 122.095 651.971 122.395 651.805 122.71C651.435 122.003 651.718 121.209 652.683 120.651L677.127 106.539C678.525 105.732 680.79 105.732 682.188 106.539L717.933 127.177C718.899 127.735 719.182 128.529 718.812 129.236C718.646 128.919 718.365 128.62 717.933 128.37Z" fill="#9198DB"/>
<path d="M733.65 176.462L601.079 99.9216C600.195 99.4113 599.106 99.4113 598.222 99.9233L551.014 127.237C550.336 127.629 550.336 128.608 551.014 128.999L683.524 205.504C684.407 206.014 685.495 206.014 686.377 205.504L733.648 178.225C734.328 177.834 734.328 176.853 733.65 176.462Z" fill="#ADB1F2"/>
<path d="M733.65 178.226L733.175 178.501L601.077 102.234C600.193 101.723 599.104 101.723 598.22 102.235L551.487 129.273L551.012 128.999C550.334 128.607 550.334 127.628 551.012 127.236L598.22 99.9227C599.104 99.4123 600.193 99.4106 601.077 99.921L733.65 176.461C734.328 176.854 734.328 177.835 733.65 178.226Z" fill="#9198DB"/>
<path d="M563.366 125.371L678.859 192.052L674.284 194.694L558.791 128.013L563.366 125.371Z" fill="#24126A"/>
<path d="M575.536 118.348L685.31 181.725L680.735 184.367L570.961 120.988L575.536 118.348Z" fill="#24126A"/>
<path d="M693.509 186.457L703.761 192.377L699.186 195.018L688.934 189.099L693.509 186.457Z" fill="#24126A"/>
<path d="M684.45 195.281L691.588 199.403L687.013 202.045L679.875 197.923L684.45 195.281Z" fill="#24126A"/>
<path d="M583.159 113.945L711.383 187.975L706.808 190.617L578.584 116.586L583.159 113.945Z" fill="#24126A"/>
<path d="M590.786 109.543L719.01 183.573L714.435 186.215L586.211 112.183L590.786 109.543Z" fill="#24126A"/>
<path d="M598.411 105.141L726.635 179.171L722.06 181.813L593.836 107.783L598.411 105.141Z" fill="#24126A"/>
</g>
</g>
<path d="M585.609 51.4789L598.178 58.7428L598.548 56.5608L585.978 49.2969L585.609 51.4789Z" fill="#42E8E0"/>
<path d="M600.199 59.9008L607.048 63.8599L607.416 61.6779L600.567 57.7188L600.199 59.9008Z" fill="#42E8E0"/>
<path d="M617.703 70.0102L622.658 72.8749L623.028 70.6912L618.071 67.8281L617.703 70.0102Z" fill="#42E8E0"/>
<path d="M614.09 67.9242L615.783 68.9031L616.151 66.7211L614.458 65.7422L614.09 67.9242Z" fill="#42E8E0"/>
<path d="M609.094 65.0353L612.169 66.8123L612.537 64.6303L609.462 62.8516L609.094 65.0353Z" fill="#42E8E0"/>
<path d="M595.553 68.1703L600.507 71.0334L600.877 68.8514L595.921 65.9883L595.553 68.1703Z" fill="#42E8E0"/>
<path d="M583.924 61.4516L593.633 67.0639L594.002 64.8802L584.294 59.2695L583.924 61.4516Z" fill="#42E8E0"/>
<path d="M597.844 96.8227L607.552 102.435L607.921 100.251L598.212 94.6406L597.844 96.8227Z" fill="#42E8E0"/>
<path d="M592.85 93.9359L595.924 95.713L596.293 93.531L593.218 91.7539L592.85 93.9359Z" fill="#42E8E0"/>
<path d="M599.465 86.8383L609.174 92.4506L609.542 90.2669L599.833 84.6562L599.465 86.8383Z" fill="#42E8E0"/>
<path d="M594.469 83.9532L597.544 85.7303L597.912 83.5483L594.837 81.7695L594.469 83.9532Z" fill="#42E8E0"/>
<path d="M590.677 139.914L572.388 129.344L572.02 131.526L590.309 142.098L590.677 139.914Z" fill="#42E8E0"/>
<path d="M597.123 143.637L592.598 141.023L592.229 143.205L596.755 145.821L597.123 143.637Z" fill="#42E8E0"/>
<path d="M629.263 145.758L610.974 135.188L610.605 137.37L628.895 147.94L629.263 145.758Z" fill="#42E8E0"/>
<path d="M635.709 149.483L631.185 146.867L630.816 149.051L635.341 151.666L635.709 149.483Z" fill="#42E8E0"/>
<path d="M578.184 127.222L573.229 124.359L572.861 126.541L577.816 129.406L578.184 127.222Z" fill="#42E8E0"/>
<path d="M608.333 133.689L603.378 130.824L603.01 133.006L607.965 135.871L608.333 133.689Z" fill="#42E8E0"/>
<path d="M589.813 133.943L580.104 128.332L579.736 130.514L589.445 136.125L589.813 133.943Z" fill="#42E8E0"/>
<path d="M594.809 136.828L591.735 135.051L591.365 137.233L594.441 139.012L594.809 136.828Z" fill="#42E8E0"/>
<path d="M606.528 143.593L596.819 137.98L596.451 140.164L606.16 145.775L606.528 143.593Z" fill="#42E8E0"/>
<path d="M611.522 146.476L608.448 144.699L608.08 146.881L611.154 148.66L611.522 146.476Z" fill="#42E8E0"/>
<path d="M607.491 138.677L602.534 135.812L602.166 137.995L607.121 140.859L607.491 138.677Z" fill="#42E8E0"/>
<path d="M619.12 145.396L609.411 139.785L609.043 141.967L618.752 147.58L619.12 145.396Z" fill="#42E8E0"/>
<path d="M624.116 148.285L621.04 146.508L620.672 148.69L623.746 150.467L624.116 148.285Z" fill="#42E8E0"/>
<path d="M584.21 125.231L574.071 119.371L573.703 121.555L583.842 127.415L584.21 125.231Z" fill="#42E8E0"/>
<path d="M593.461 130.578L586.13 126.34L585.762 128.524L593.093 132.76L593.461 130.578Z" fill="#42E8E0"/>
<path d="M600.337 134.552L595.382 131.688L595.014 133.87L599.968 136.734L600.337 134.552Z" fill="#42E8E0"/>
<path d="M648.394 156.794L638.256 150.934L637.887 153.116L648.025 158.976L648.394 156.794Z" fill="#42E8E0"/>
<path d="M657.646 162.145L650.313 157.906L649.945 160.09L657.278 164.327L657.646 162.145Z" fill="#42E8E0"/>
<path d="M664.524 166.117L659.567 163.254L659.199 165.436L664.154 168.301L664.524 166.117Z" fill="#42E8E0"/>
<path d="M644.434 90.9164L654.572 96.7764L654.94 94.5944L644.802 88.7344L644.434 90.9164Z" fill="#42E8E0"/>
<path d="M635.184 85.5687L642.516 89.8073L642.884 87.6236L635.552 83.3867L635.184 85.5687Z" fill="#42E8E0"/>
<path d="M628.309 81.5961L633.263 84.4608L633.633 82.2788L628.677 79.4141L628.309 81.5961Z" fill="#42E8E0"/>
<path d="M641.07 83.4789L651.209 89.3389L651.577 87.1569L641.438 81.2969L641.07 83.4789Z" fill="#42E8E0"/>
<path d="M631.816 78.1312L639.147 82.3698L639.517 80.1878L632.185 75.9492L631.816 78.1312Z" fill="#42E8E0"/>
<path d="M624.941 74.1603L629.896 77.0233L630.266 74.8413L625.31 71.9766L624.941 74.1603Z" fill="#42E8E0"/>
<path d="M600.133 92.7016L603.556 94.6811L603.925 92.4991L600.501 90.5195L600.133 92.7016Z" fill="#42E8E0"/>
<path d="M593.686 88.975L598.212 91.5904L598.58 89.4084L594.055 86.793L593.686 88.975Z" fill="#42E8E0"/>
<path d="M585.118 120.274L574.979 114.414L574.609 116.598L584.748 122.458L585.118 120.274Z" fill="#42E8E0"/>
<path d="M594.371 125.624L587.038 121.387L586.67 123.569L594.002 127.806L594.371 125.624Z" fill="#42E8E0"/>
<path d="M601.246 129.595L596.29 126.73L595.922 128.914L600.877 131.777L601.246 129.595Z" fill="#42E8E0"/>
<path d="M579.245 111.409L575.821 109.43L575.453 111.612L578.877 113.591L579.245 111.409Z" fill="#42E8E0"/>
<path d="M585.69 115.135L581.165 112.52L580.797 114.703L585.322 117.319L585.69 115.135Z" fill="#42E8E0"/>
<path d="M594.905 120.457L587.612 116.242L587.244 118.426L594.535 122.639L594.905 120.457Z" fill="#42E8E0"/>
<path d="M604.791 78.9516L608.215 80.9311L608.583 78.7474L605.159 76.7695L604.791 78.9516Z" fill="#42E8E0"/>
<path d="M598.344 75.2267L602.87 77.8421L603.238 75.6584L598.714 73.043L598.344 75.2267Z" fill="#42E8E0"/>
<path d="M589.133 69.9047L596.425 74.1181L596.793 71.9361L589.503 67.7227L589.133 69.9047Z" fill="#42E8E0"/>
<path d="M610.008 87.0492L617.299 91.2643L617.667 89.0806L610.376 84.8672L610.008 87.0492Z" fill="#42E8E0"/>
<path d="M598.082 80.5453L607.91 86.2263L608.278 84.0426L598.45 78.3633L598.082 80.5453Z" fill="#42E8E0"/>
<path d="M593.086 77.6603L596.162 79.4373L596.53 77.2553L593.454 75.4766L593.086 77.6603Z" fill="#42E8E0"/>
<path d="M588.291 74.8907L591.367 76.6678L591.735 74.4858L588.659 72.707L588.291 74.8907Z" fill="#42E8E0"/>
<path d="M588.951 103.059L598.66 108.669L599.028 106.487L589.319 100.875L588.951 103.059Z" fill="#42E8E0"/>
<path d="M583.957 100.17L587.031 101.949L587.399 99.7654L584.325 97.9883L583.957 100.17Z" fill="#42E8E0"/>
<path d="M589.619 108.92L593.044 110.9L593.413 108.718L589.987 106.738L589.619 108.92Z" fill="#42E8E0"/>
<path d="M601.709 104.928L605.133 106.908L605.502 104.724L602.077 102.746L601.709 104.928Z" fill="#42E8E0"/>
<path d="M606.59 107.745L614.808 112.49L615.176 110.308L606.96 105.562L606.59 107.745Z" fill="#42E8E0"/>
<path d="M616.266 113.328L621.153 116.151L621.522 113.969L616.634 111.145L616.266 113.328Z" fill="#42E8E0"/>
<path d="M583.174 105.198L587.699 107.813L588.068 105.629L583.542 103.016L583.174 105.198Z" fill="#42E8E0"/>
<path d="M582.746 110.319L586.17 112.298L586.54 110.116L583.116 108.137L582.746 110.319Z" fill="#42E8E0"/>
<path d="M576.301 106.594L580.825 109.209L581.195 107.027L576.669 104.41L576.301 106.594Z" fill="#42E8E0"/>
<path d="M596.738 102.057L599.814 103.834L600.184 101.652L597.108 99.875L596.738 102.057Z" fill="#42E8E0"/>
<path d="M591.947 99.2875L595.021 101.065L595.391 98.8826L592.315 97.1055L591.947 99.2875Z" fill="#42E8E0"/>
<path d="M615.564 74.2328L626.055 80.2953L626.423 78.1133L615.934 72.0508L615.564 74.2328Z" fill="#42E8E0"/>
<path d="M603.816 67.4437L613.646 73.1247L614.014 70.941L604.186 65.2617L603.816 67.4437Z" fill="#42E8E0"/>
<path d="M598.822 64.5548L601.898 66.3319L602.266 64.1498L599.19 62.3711L598.822 64.5548Z" fill="#42E8E0"/>
<path d="M594.027 61.7853L597.103 63.5623L597.471 61.3803L594.395 59.6016L594.027 61.7853Z" fill="#42E8E0"/>
<path d="M591.406 60.2712L584.771 56.4359L585.14 54.2539L591.774 58.0875L591.406 60.2712Z" fill="#42E8E0"/>
<path opacity="0.6" d="M366.926 440.575L212.748 351.56L11.2923 467.87C9.08846 469.142 9.08846 472.323 11.2923 473.595L160.512 559.746L366.926 440.575Z" fill="url(#paint9_linear_5323_17681)" fill-opacity="0.5"/>
<path opacity="0.6" d="M798.386 468.724L644.209 557.739L442.754 441.427C440.551 440.155 440.551 436.976 442.754 435.702L591.974 349.551L798.386 468.724Z" fill="url(#paint10_linear_5323_17681)" fill-opacity="0.5"/>
<path d="M271.395 125.123L251.228 5.47757L252.85 4.79484L250.413 3.39761L250.417 3.411C249.943 3.09642 249.276 3.11482 248.539 3.53984L87.3672 96.5922C86.0436 97.3569 85.0413 99.3164 85.2739 100.687L105.602 221.284C105.709 221.913 106.018 222.328 106.45 222.512H106.447L108.831 223.889L109.241 221.664L109.106 221.706L269.302 129.217C270.627 128.453 271.628 126.493 271.395 125.123Z" fill="url(#paint11_linear_5323_17681)"/>
<path d="M88.2665 99.8683L85.616 98.6953C85.3181 99.373 85.1726 100.088 85.2746 100.69L105.601 221.287C105.708 221.916 106.017 222.331 106.449 222.515L106.446 222.517L108.83 223.894L109.24 221.669L109.105 221.71L117.21 217.03L88.2665 99.8683Z" fill="url(#paint12_linear_5323_17681)"/>
<path d="M271.832 130.668L110.66 223.72C109.415 224.438 108.35 224.023 108.131 222.735L87.8051 102.138C87.5726 100.767 88.5749 98.8076 89.8985 98.0429L251.071 4.99053C252.316 4.27267 253.38 4.68765 253.599 5.97612L273.927 126.573C274.156 127.944 273.155 129.903 271.832 130.668Z" fill="#24126A"/>
<g opacity="0.51">
<path d="M248.963 12.6914L93.6055 102.387L112.871 215.965L268.124 126.329L248.963 12.6914Z" fill="#453C9E"/>
</g>
<path d="M373.143 187.766L364.348 192.359L276.152 141.438C274.676 140.586 272.099 140.693 270.396 141.677L118.28 229.501C116.824 228.687 110.188 225.495 110.188 225.495L113.407 233.883L113.42 233.873C113.554 234.246 113.84 234.594 114.321 234.872L207.211 288.501C208.687 289.352 211.264 289.245 212.967 288.261L368.629 198.39C369.328 197.985 369.757 197.496 369.934 197.001L369.946 197.01L373.143 187.766Z" fill="url(#paint13_linear_5323_17681)"/>
<path d="M371.785 189.21L212.253 281.317C210.506 282.325 207.866 282.435 206.353 281.562L111.154 226.598C109.641 225.724 109.832 224.2 111.577 223.191L271.111 131.084C272.858 130.076 275.498 129.966 277.011 130.839L372.21 185.803C373.72 186.677 373.531 188.201 371.785 189.21Z" fill="url(#paint14_linear_5323_17681)"/>
<path d="M371.786 188.291L212.254 280.398C210.507 281.407 207.867 281.516 206.354 280.642L111.155 225.678C110.659 225.392 110.365 225.034 110.229 224.649C109.99 225.366 110.278 226.092 111.155 226.597L206.354 281.561C207.867 282.435 210.507 282.324 212.254 281.317L371.786 189.21C372.961 188.532 373.413 187.622 373.135 186.832C372.961 187.352 372.519 187.868 371.786 188.291Z" fill="white"/>
<path d="M164.133 261.393V259.643C164.133 259.477 164.233 259.4 164.359 259.472L170.53 263.035C170.654 263.107 170.756 263.299 170.756 263.465V265.215C170.756 265.381 170.655 265.458 170.53 265.386L164.359 261.823C164.233 261.751 164.133 261.559 164.133 261.393Z" fill="#2842A2"/>
<path d="M173.359 266.717V264.967C173.359 264.802 173.46 264.725 173.585 264.797L179.757 268.359C179.88 268.431 179.982 268.623 179.982 268.789V270.539C179.982 270.705 179.882 270.782 179.757 270.71L173.585 267.148C173.46 267.077 173.359 266.883 173.359 266.717Z" fill="#2842A2"/>
<path d="M135.971 221.45L268.543 144.91C269.426 144.4 270.516 144.4 271.399 144.912L318.607 172.225C319.285 172.617 319.285 173.596 318.605 173.987L186.096 250.492C185.212 251.003 184.125 251.003 183.243 250.492L135.971 223.214C135.293 222.822 135.293 221.843 135.971 221.45Z" fill="#ADB1F2"/>
<path d="M135.972 223.213L136.448 223.487L268.546 147.22C269.429 146.71 270.518 146.71 271.402 147.222L318.135 174.261L318.608 173.987C319.286 173.595 319.288 172.616 318.608 172.225L271.4 144.911C270.517 144.401 269.427 144.399 268.544 144.909L135.972 221.449C135.293 221.842 135.293 222.821 135.972 223.213Z" fill="#9198DB"/>
<path d="M274.963 151.828L159.806 218.314L154.686 215.358L269.843 148.871L274.963 151.828Z" fill="#24126A"/>
<path d="M287.517 159.074L179.503 221.436L174.383 218.479L282.396 156.117L287.517 159.074Z" fill="#24126A"/>
<path d="M295.692 163.797L168.517 237.221L163.396 234.264L290.572 160.84L295.692 163.797Z" fill="#24126A"/>
<path d="M303.868 168.515L176.693 241.94L171.572 238.983L298.747 165.559L303.868 168.515Z" fill="#24126A"/>
<path d="M312.043 173.238L184.868 246.662L179.748 243.705L306.923 170.281L312.043 173.238Z" fill="#24126A"/>
<path d="M152.846 222.332L147.728 225.287L142.605 222.33L147.726 219.375L152.846 222.332Z" fill="#24126A"/>
<path d="M170.908 226.398L160.279 232.533L155.158 229.578L165.787 223.441L170.908 226.398Z" fill="#24126A"/>
<path d="M273.648 239.972L309.394 219.335C310.791 218.528 310.791 217.22 309.394 216.413L284.95 202.3C283.552 201.494 281.287 201.494 279.889 202.3L244.144 222.937C242.746 223.744 242.746 225.053 244.144 225.859L268.588 239.972C269.987 240.779 272.251 240.779 273.648 239.972Z" fill="url(#paint15_linear_5323_17681)"/>
<path d="M244.144 224.132L279.89 203.495C281.287 202.688 283.553 202.688 284.95 203.495L309.394 217.608C309.826 217.857 310.107 218.155 310.273 218.471C310.643 217.765 310.362 216.97 309.394 216.413L284.95 202.3C283.553 201.494 281.287 201.494 279.89 202.3L244.144 222.937C243.179 223.495 242.896 224.29 243.266 224.996C243.432 224.681 243.713 224.382 244.144 224.132Z" fill="#9198DB"/>
<g opacity="0.11">
<mask id="mask1_5323_17681" style="mask-type:luminance" maskUnits="userSpaceOnUse" x="93" y="12" width="176" height="204">
<path d="M248.963 12.6914L93.6055 102.387L112.871 215.965L268.124 126.329L248.963 12.6914Z" fill="white"/>
</mask>
<g mask="url(#mask1_5323_17681)">
<path d="M271.268 130.894L111.734 223.001C109.987 224.01 107.346 224.119 105.833 223.246L10.6342 168.282C9.12149 167.408 9.31225 165.884 11.0575 164.875L170.591 72.7679C172.338 71.7589 174.979 71.6501 176.492 72.5236L271.691 127.488C273.204 128.361 273.013 129.887 271.268 130.894Z" fill="url(#paint16_linear_5323_17681)"/>
<path d="M111.259 147.409L147.005 126.772C148.402 125.966 148.402 124.657 147.005 123.851L122.561 109.738C121.164 108.931 118.898 108.931 117.501 109.738L81.755 130.375C80.3577 131.181 80.3577 132.49 81.755 133.297L106.199 147.409C107.598 148.216 109.864 148.216 111.259 147.409Z" fill="url(#paint17_linear_5323_17681)"/>
<path d="M81.7557 131.57L117.501 110.932C118.899 110.126 121.164 110.126 122.562 110.932L147.006 125.045C147.437 125.295 147.718 125.593 147.884 125.909C148.254 125.203 147.973 124.408 147.006 123.851L122.562 109.738C121.164 108.931 118.899 108.931 117.501 109.738L81.7557 130.375C80.7902 130.932 80.5074 131.727 80.8772 132.433C81.0429 132.119 81.324 131.819 81.7557 131.57Z" fill="#9198DB"/>
<path d="M66.0421 179.661L198.614 103.121C199.497 102.61 200.586 102.61 201.47 103.123L248.678 130.436C249.356 130.828 249.356 131.807 248.676 132.198L116.167 208.703C115.283 209.214 114.196 209.214 113.314 208.703L66.0421 181.424C65.3644 181.033 65.3627 180.052 66.0421 179.661Z" fill="#ADB1F2"/>
<path d="M66.0419 181.424L66.5171 181.698L198.615 105.433C199.499 104.922 200.588 104.922 201.471 105.434L248.204 132.472L248.678 132.198C249.356 131.806 249.357 130.827 248.68 130.436L201.471 103.122C200.588 102.612 199.499 102.61 198.615 103.12L66.0436 179.66C65.3625 180.052 65.3642 181.032 66.0419 181.424Z" fill="#9198DB"/>
<path d="M236.325 128.57L120.832 195.251L125.407 197.891L240.899 131.212L236.325 128.57Z" fill="#24126A"/>
<path d="M224.155 121.547L114.381 184.926L118.956 187.568L228.73 124.189L224.155 121.547Z" fill="#24126A"/>
<path d="M106.184 189.656L95.9316 195.576L100.507 198.217L110.759 192.298L106.184 189.656Z" fill="#24126A"/>
<path d="M115.24 198.48L108.1 202.602L112.675 205.244L119.815 201.123L115.24 198.48Z" fill="#24126A"/>
<path d="M216.531 117.145L88.3066 191.174L92.8815 193.815L221.107 119.785L216.531 117.145Z" fill="#24126A"/>
<path d="M208.906 112.742L80.6816 186.772L85.2565 189.414L213.481 115.383L208.906 112.742Z" fill="#24126A"/>
<path d="M201.281 108.34L73.0566 182.37L77.6315 185.012L205.856 110.982L201.281 108.34Z" fill="#24126A"/>
</g>
</g>
<path d="M152.105 172.66L164.674 165.395L165.042 167.577L152.474 174.842L152.105 172.66Z" fill="#42E8E0"/>
<path d="M166.693 164.236L173.542 160.277L173.91 162.461L167.061 166.418L166.693 164.236Z" fill="#42E8E0"/>
<path d="M184.199 154.126L189.154 151.262L189.522 153.445L184.567 156.309L184.199 154.126Z" fill="#42E8E0"/>
<path d="M180.584 156.217L182.277 155.238L182.646 157.422L180.954 158.399L180.584 156.217Z" fill="#42E8E0"/>
<path d="M175.59 159.103L178.665 157.324L179.034 159.508L175.958 161.285L175.59 159.103Z" fill="#42E8E0"/>
<path d="M162.049 155.97L167.004 153.105L167.372 155.287L162.417 158.152L162.049 155.97Z" fill="#42E8E0"/>
<path d="M150.42 162.689L160.129 157.078L160.497 159.26L150.788 164.871L150.42 162.689Z" fill="#42E8E0"/>
<path d="M164.338 127.318L174.048 121.707L174.416 123.889L164.708 129.5L164.338 127.318Z" fill="#42E8E0"/>
<path d="M159.344 130.203L162.419 128.426L162.787 130.608L159.714 132.387L159.344 130.203Z" fill="#42E8E0"/>
<path d="M165.959 137.302L175.668 131.691L176.036 133.873L166.327 139.486L165.959 137.302Z" fill="#42E8E0"/>
<path d="M160.965 140.187L164.039 138.41L164.407 140.594L161.333 142.371L160.965 140.187Z" fill="#42E8E0"/>
<path d="M157.173 84.225L138.883 94.7954L138.514 92.6134L156.803 82.043L157.173 84.225Z" fill="#42E8E0"/>
<path d="M163.619 80.5001L159.093 83.1155L158.725 80.9318L163.249 78.3164L163.619 80.5001Z" fill="#42E8E0"/>
<path d="M195.759 78.3812L177.47 88.9517L177.102 86.7697L195.391 76.1992L195.759 78.3812Z" fill="#42E8E0"/>
<path d="M202.205 74.6547L197.679 77.2701L197.311 75.0881L201.837 72.4727L202.205 74.6547Z" fill="#42E8E0"/>
<path d="M144.68 96.9203L139.725 99.7834L139.355 97.6014L144.312 94.7383L144.68 96.9203Z" fill="#42E8E0"/>
<path d="M174.828 90.4516L169.872 93.3163L169.504 91.1343L174.459 88.2695L174.828 90.4516Z" fill="#42E8E0"/>
<path d="M156.309 90.1977L146.6 95.81L146.23 93.6263L155.939 88.0156L156.309 90.1977Z" fill="#42E8E0"/>
<path d="M161.305 87.3109L158.229 89.088L157.861 86.906L160.937 85.1289L161.305 87.3109Z" fill="#42E8E0"/>
<path d="M173.022 80.5492L163.313 86.1616L162.945 83.9795L172.654 78.3672L173.022 80.5492Z" fill="#42E8E0"/>
<path d="M178.018 77.6625L174.944 79.4396L174.574 77.2575L177.65 75.4805L178.018 77.6625Z" fill="#42E8E0"/>
<path d="M173.985 85.4633L169.03 88.328L168.662 86.146L173.617 83.2812L173.985 85.4633Z" fill="#42E8E0"/>
<path d="M185.614 78.7445L175.905 84.3552L175.537 82.1732L185.246 76.5625L185.614 78.7445Z" fill="#42E8E0"/>
<path d="M190.61 75.8556L187.534 77.6326L187.166 75.4489L190.242 73.6719L190.61 75.8556Z" fill="#42E8E0"/>
<path d="M150.706 98.9086L140.567 104.769L140.199 102.587L150.338 96.7266L150.706 98.9086Z" fill="#42E8E0"/>
<path d="M159.957 93.5609L152.624 97.7995L152.256 95.6158L159.588 91.3789L159.957 93.5609Z" fill="#42E8E0"/>
<path d="M166.832 89.5844L161.878 92.4491L161.508 90.2671L166.464 87.4023L166.832 89.5844Z" fill="#42E8E0"/>
<path d="M214.89 67.3422L204.751 73.2022L204.383 71.0202L214.522 65.1602L214.89 67.3422Z" fill="#42E8E0"/>
<path d="M224.142 61.9945L216.811 66.2331L216.441 64.051L223.774 59.8125L224.142 61.9945Z" fill="#42E8E0"/>
<path d="M231.018 58.0235L226.063 60.8866L225.695 58.7046L230.65 55.8398L231.018 58.0235Z" fill="#42E8E0"/>
<path d="M210.93 133.222L221.068 127.363L221.437 129.545L211.298 135.405L210.93 133.222Z" fill="#42E8E0"/>
<path d="M201.678 138.569L209.009 134.332L209.378 136.514L202.046 140.751L201.678 138.569Z" fill="#42E8E0"/>
<path d="M194.803 142.544L199.757 139.68L200.126 141.863L195.171 144.726L194.803 142.544Z" fill="#42E8E0"/>
<path d="M207.566 140.661L217.705 134.801L218.073 136.983L207.935 142.843L207.566 140.661Z" fill="#42E8E0"/>
<path d="M198.312 146.008L205.645 141.77L206.013 143.953L198.682 148.19L198.312 146.008Z" fill="#42E8E0"/>
<path d="M191.438 149.982L196.392 147.117L196.76 149.299L191.806 152.164L191.438 149.982Z" fill="#42E8E0"/>
<path d="M166.627 131.44L170.052 129.461L170.42 131.643L166.995 133.623L166.627 131.44Z" fill="#42E8E0"/>
<path d="M160.182 135.162L164.706 132.547L165.076 134.729L160.55 137.344L160.182 135.162Z" fill="#42E8E0"/>
<path d="M151.612 103.866L141.474 109.726L141.105 107.544L151.244 101.684L151.612 103.866Z" fill="#42E8E0"/>
<path d="M160.865 98.518L153.534 102.757L153.166 100.573L160.497 96.3359L160.865 98.518Z" fill="#42E8E0"/>
<path d="M167.741 94.5414L162.786 97.4061L162.418 95.2241L167.373 92.3594L167.741 94.5414Z" fill="#42E8E0"/>
<path d="M145.741 112.729L142.317 114.708L141.947 112.526L145.371 110.547L145.741 112.729Z" fill="#42E8E0"/>
<path d="M152.186 109.006L147.661 111.622L147.291 109.44L151.817 106.824L152.186 109.006Z" fill="#42E8E0"/>
<path d="M161.399 103.682L154.108 107.897L153.738 105.713L161.031 101.5L161.399 103.682Z" fill="#42E8E0"/>
<path d="M171.285 145.187L174.709 143.207L175.079 145.391L171.653 147.369L171.285 145.187Z" fill="#42E8E0"/>
<path d="M164.84 148.911L169.365 146.297L169.734 148.479L165.208 151.094L164.84 148.911Z" fill="#42E8E0"/>
<path d="M155.629 154.237L162.921 150.023L163.289 152.205L155.997 156.421L155.629 154.237Z" fill="#42E8E0"/>
<path d="M176.502 137.09L183.794 132.875L184.162 135.059L176.87 139.272L176.502 137.09Z" fill="#42E8E0"/>
<path d="M164.576 143.591L174.405 137.91L174.773 140.094L164.944 145.773L164.576 143.591Z" fill="#42E8E0"/>
<path d="M159.58 146.482L162.656 144.703L163.024 146.887L159.948 148.664L159.58 146.482Z" fill="#42E8E0"/>
<path d="M154.787 149.25L157.863 147.473L158.231 149.655L155.155 151.433L154.787 149.25Z" fill="#42E8E0"/>
<path d="M155.443 121.079L165.152 115.469L165.522 117.651L155.813 123.263L155.443 121.079Z" fill="#42E8E0"/>
<path d="M150.449 123.965L153.525 122.188L153.893 124.37L150.817 126.147L150.449 123.965Z" fill="#42E8E0"/>
<path d="M156.113 115.218L159.537 113.238L159.905 115.42L156.481 117.4L156.113 115.218Z" fill="#42E8E0"/>
<path d="M168.203 119.21L171.627 117.23L171.995 119.414L168.571 121.394L168.203 119.21Z" fill="#42E8E0"/>
<path d="M173.084 116.394L181.3 111.648L181.67 113.83L173.452 118.576L173.084 116.394Z" fill="#42E8E0"/>
<path d="M182.76 110.807L187.646 107.984L188.016 110.166L183.128 112.991L182.76 110.807Z" fill="#42E8E0"/>
<path d="M149.668 118.94L154.193 116.324L154.561 118.508L150.036 121.123L149.668 118.94Z" fill="#42E8E0"/>
<path d="M149.24 113.819L152.664 111.84L153.032 114.024L149.608 116.001L149.24 113.819Z" fill="#42E8E0"/>
<path d="M142.795 117.545L147.32 114.93L147.688 117.113L143.163 119.729L142.795 117.545Z" fill="#42E8E0"/>
<path d="M163.232 122.078L166.308 120.301L166.676 122.483L163.601 124.262L163.232 122.078Z" fill="#42E8E0"/>
<path d="M158.439 124.851L161.515 123.074L161.883 125.256L158.808 127.033L158.439 124.851Z" fill="#42E8E0"/>
<path d="M182.061 149.906L192.549 143.844L192.919 146.027L182.429 152.09L182.061 149.906Z" fill="#42E8E0"/>
<path d="M170.312 156.695L180.14 151.016L180.508 153.198L170.681 158.877L170.312 156.695Z" fill="#42E8E0"/>
<path d="M165.316 159.586L168.39 157.809L168.758 159.991L165.685 161.768L165.316 159.586Z" fill="#42E8E0"/>
<path d="M160.521 162.357L163.597 160.578L163.967 162.76L160.891 164.539L160.521 162.357Z" fill="#42E8E0"/>
<path d="M157.9 163.871L151.266 167.705L151.635 169.888L158.27 166.053L157.9 163.871Z" fill="#42E8E0"/>
<path d="M693.089 377.344L684.446 381.859L597.781 331.823C596.33 330.986 593.798 331.09 592.123 332.057L442.651 418.356C441.22 417.556 434.699 414.42 434.699 414.42L437.863 422.663C437.863 422.663 437.874 422.655 437.877 422.653C438.007 423.02 438.288 423.361 438.762 423.634L530.037 476.332C531.488 477.169 534.02 477.065 535.693 476.098L688.651 387.788C689.339 387.391 689.76 386.909 689.934 386.424L689.946 386.432L693.089 377.344Z" fill="url(#paint18_linear_5323_17681)"/>
<path d="M691.753 378.766L534.992 469.271C533.277 470.262 530.68 470.369 529.194 469.512L435.648 415.504C434.162 414.645 434.348 413.148 436.064 412.157L592.826 321.651C594.541 320.661 597.138 320.554 598.624 321.41L692.17 375.419C693.656 376.276 693.468 377.773 691.753 378.766Z" fill="url(#paint19_linear_5323_17681)"/>
<path d="M691.754 377.862L534.993 468.368C533.278 469.358 530.68 469.465 529.195 468.609L435.649 414.6C435.162 414.319 434.872 413.966 434.74 413.589C434.504 414.294 434.787 415.007 435.649 415.504L529.195 469.512C530.68 470.371 533.276 470.262 534.993 469.271L691.754 378.766C692.908 378.1 693.352 377.206 693.079 376.43C692.909 376.94 692.475 377.447 691.754 377.862Z" fill="white"/>
<path d="M487.709 449.693V447.975C487.709 447.813 487.808 447.737 487.93 447.808L493.994 451.308C494.116 451.378 494.215 451.568 494.215 451.732V453.45C494.215 453.612 494.116 453.688 493.994 453.617L487.93 450.117C487.808 450.045 487.709 449.856 487.709 449.693Z" fill="#2842A2"/>
<path d="M496.775 454.928V453.209C496.775 453.047 496.874 452.972 496.996 453.042L503.06 456.543C503.183 456.613 503.281 456.802 503.281 456.966V458.684C503.281 458.847 503.183 458.922 503.06 458.852L496.996 455.351C496.876 455.281 496.775 455.092 496.775 454.928Z" fill="#2842A2"/>
<path d="M488.388 427.782L618.657 352.571C619.526 352.069 620.597 352.071 621.464 352.573L667.852 379.411C668.518 379.796 668.518 380.758 667.852 381.143L537.643 456.319C536.776 456.82 535.707 456.82 534.838 456.319L488.387 429.514C487.722 429.129 487.722 428.167 488.388 427.782Z" fill="#ADB1F2"/>
<path d="M488.388 429.514L488.855 429.783L618.657 354.841C619.526 354.339 620.597 354.341 621.463 354.843L667.385 381.412L667.851 381.143C668.517 380.758 668.517 379.795 667.851 379.411L621.463 352.572C620.595 352.07 619.526 352.07 618.657 352.57L488.388 427.782C487.722 428.167 487.722 429.129 488.388 429.514Z" fill="#9198DB"/>
<path d="M624.967 359.37L504.972 428.649L499.023 426.273L619.935 356.465L624.967 359.37Z" fill="#24126A"/>
<path d="M637.301 366.491L531.165 427.768L526.133 424.863L632.269 363.586L637.301 366.491Z" fill="#24126A"/>
<path d="M645.334 371.131L520.37 443.279L515.34 440.374L640.304 368.227L645.334 371.131Z" fill="#24126A"/>
<path d="M653.369 375.768L528.403 447.916L523.373 445.011L648.338 372.863L653.369 375.768Z" fill="#24126A"/>
<path d="M661.402 380.409L536.438 452.556L531.406 449.651L656.371 377.504L661.402 380.409Z" fill="#24126A"/>
<path d="M504.972 428.651L499.94 431.554L494.908 428.651L499.94 425.746L504.972 428.651Z" fill="#24126A"/>
<path d="M537.267 424.243L512.276 438.674L507.244 435.767L532.418 421.234L537.267 424.243Z" fill="#24126A"/>
<path d="M534.766 394.073L569.891 373.794C571.263 373.001 571.263 371.716 569.891 370.924L545.872 357.056C544.499 356.263 542.272 356.263 540.9 357.056L505.775 377.335C504.403 378.128 504.403 379.413 505.775 380.205L529.794 394.073C531.166 394.866 533.394 394.866 534.766 394.073Z" fill="url(#paint20_linear_5323_17681)"/>
<path d="M505.775 378.511L540.9 358.232C542.272 357.439 544.499 357.439 545.871 358.232L569.89 372.099C570.314 372.343 570.591 372.638 570.754 372.947C571.117 372.255 570.841 371.473 569.89 370.924L545.871 357.056C544.499 356.263 542.272 356.263 540.9 357.056L505.775 377.335C504.826 377.882 504.548 378.664 504.911 379.358C505.074 379.048 505.352 378.756 505.775 378.511Z" fill="#9198DB"/>
<path d="M692.84 375.02L673.024 257.453L674.617 256.782L672.223 255.41L672.226 255.423C671.761 255.113 671.105 255.132 670.38 255.55L512.008 346.986C510.708 347.737 509.722 349.662 509.951 351.009L529.924 469.511C530.03 470.128 530.334 470.538 530.759 470.717L533.1 472.071L533.502 469.884L533.368 469.924L690.78 379.042C692.085 378.293 693.069 376.367 692.84 375.02Z" fill="url(#paint21_linear_5323_17681)"/>
<path d="M512.892 350.202L510.288 349.051C509.997 349.717 509.853 350.42 509.954 351.01L529.927 469.512C530.032 470.13 530.337 470.54 530.762 470.719H530.76L533.103 472.073L533.506 469.886L533.372 469.926L541.337 465.327L512.892 350.202Z" fill="url(#paint22_linear_5323_17681)"/>
<path d="M693.267 380.469L534.895 471.905C533.671 472.611 532.626 472.203 532.41 470.938L512.435 352.436C512.208 351.089 513.192 349.164 514.492 348.413L672.864 256.977C674.088 256.271 675.133 256.679 675.349 257.944L695.324 376.446C695.553 377.793 694.567 379.719 693.267 380.469Z" fill="#453C9E"/>
<path d="M210.07 303.679C207.515 303.679 205 303.008 202.801 301.738L119.009 253.36C117.695 252.602 116.912 251.241 116.912 249.725C116.912 248.209 117.697 246.851 119.009 246.093L270.619 158.561C270.876 158.413 271.188 158.412 271.446 158.559L272.151 158.964L362.096 210.894C363.409 211.652 364.192 213.011 364.192 214.528C364.192 216.046 363.407 217.405 362.096 218.161L217.342 301.736C215.138 303.008 212.625 303.679 210.07 303.679ZM271.033 160.23L119.835 247.523C119.039 247.983 118.565 248.807 118.565 249.725C118.565 250.646 119.041 251.469 119.835 251.927L203.628 300.305C207.525 302.554 212.612 302.554 216.514 300.305L361.269 216.731C362.064 216.272 362.539 215.449 362.539 214.53C362.539 213.61 362.064 212.787 361.269 212.328L271.033 160.23Z" fill="#42E8E0"/>
<path d="M271.218 124.744L251.051 5.09867L252.672 4.41594L250.236 3.01871L250.239 3.0321C249.766 2.71751 249.098 2.73591 248.362 3.16094L87.1895 96.2133C85.8659 96.978 84.8636 98.9375 85.0962 100.308L105.424 220.905C105.531 221.534 105.84 221.951 106.274 222.133H106.271L108.655 223.51L109.065 221.285L108.929 221.327L269.126 128.838C270.448 128.072 271.45 126.112 271.218 124.744Z" fill="url(#paint23_linear_5323_17681)"/>
<path d="M88.0871 99.4855L85.4383 98.3125C85.1404 98.9919 84.9948 99.7047 85.0969 100.307L105.425 220.904C105.532 221.533 105.841 221.95 106.273 222.132L108.656 223.51L109.066 221.284L108.93 221.326L117.036 216.646L88.0871 99.4855Z" fill="url(#paint24_linear_5323_17681)"/>
<path d="M271.652 130.289L110.48 223.341C109.235 224.059 108.171 223.644 107.951 222.356L87.6255 101.759C87.3929 100.388 88.3952 98.4287 89.7188 97.664L250.891 4.61162C252.136 3.89376 253.2 4.30875 253.419 5.59722L273.747 126.194C273.978 127.565 272.976 129.524 271.652 130.289Z" fill="#24126A"/>
<g opacity="0.51">
<path d="M248.783 12.3086L93.4258 102.004L112.693 215.582L267.944 125.946L248.783 12.3086Z" fill="#453C9E"/>
</g>
<path d="M372.966 187.383L364.171 191.977L275.974 141.055C274.498 140.204 271.922 140.311 270.218 141.295L118.102 229.118C116.646 228.303 110.01 225.112 110.01 225.112L113.229 233.5L113.243 233.49C113.377 233.863 113.663 234.211 114.143 234.489L207.033 288.118C208.509 288.97 211.086 288.863 212.789 287.88L368.451 198.009C369.151 197.606 369.579 197.115 369.756 196.62L369.768 196.628L372.966 187.383Z" fill="url(#paint25_linear_5323_17681)"/>
<path d="M371.605 188.827L212.072 280.934C210.326 281.943 207.684 282.052 206.171 281.179L110.972 226.215C109.459 225.341 109.65 223.817 111.395 222.808L270.929 130.701C272.676 129.694 275.317 129.583 276.83 130.457L372.029 185.421C373.541 186.294 373.352 187.818 371.605 188.827Z" fill="url(#paint26_linear_5323_17681)"/>
<path d="M371.605 187.908L212.072 280.015C210.325 281.023 207.685 281.133 206.172 280.26L110.973 225.296C110.478 225.01 110.183 224.651 110.048 224.267C109.808 224.983 110.096 225.709 110.973 226.214L206.172 281.178C207.685 282.052 210.325 281.941 212.072 280.934L371.605 188.827C372.779 188.149 373.231 187.239 372.953 186.449C372.779 186.97 372.338 187.485 371.605 187.908Z" fill="white"/>
<path d="M163.953 261.01V259.26C163.953 259.095 164.054 259.018 164.177 259.089L170.349 262.652C170.472 262.724 170.575 262.916 170.575 263.082V264.832C170.575 264.998 170.474 265.075 170.349 265.003L164.177 261.441C164.054 261.369 163.953 261.176 163.953 261.01Z" fill="#2842A2"/>
<path d="M173.18 266.335V264.584C173.18 264.419 173.28 264.342 173.406 264.414L179.577 267.976C179.701 268.048 179.803 268.241 179.803 268.406V270.157C179.803 270.322 179.702 270.399 179.577 270.327L173.406 266.765C173.282 266.694 173.18 266.5 173.18 266.335Z" fill="#2842A2"/>
<path d="M135.793 221.067L268.364 144.527C269.248 144.017 270.337 144.017 271.221 144.529L318.429 171.843C319.106 172.234 319.106 173.213 318.427 173.605L185.917 250.109C185.034 250.62 183.946 250.62 183.064 250.109L135.793 222.831C135.113 222.438 135.113 221.459 135.793 221.067Z" fill="#ADB1F2"/>
<path d="M135.793 222.83L136.268 223.105L268.366 146.839C269.249 146.329 270.339 146.329 271.222 146.841L317.955 173.878L318.429 173.604C319.106 173.212 319.108 172.234 318.43 171.842L271.222 144.528C270.339 144.018 269.249 144.016 268.366 144.526L135.794 221.066C135.113 221.46 135.113 222.439 135.793 222.83Z" fill="#9198DB"/>
<path d="M274.783 151.445L159.626 217.932L154.506 214.975L269.663 148.488L274.783 151.445Z" fill="#24126A"/>
<path d="M287.337 158.693L179.324 221.055L174.203 218.098L282.217 155.738L287.337 158.693Z" fill="#24126A"/>
<path d="M295.512 163.414L168.339 236.838L163.219 233.881L290.392 160.457L295.512 163.414Z" fill="#24126A"/>
<path d="M303.688 168.133L176.515 241.557L171.395 238.6L298.568 165.176L303.688 168.133Z" fill="#24126A"/>
<path d="M311.864 172.855L184.691 246.279L179.57 243.323L306.744 169.898L311.864 172.855Z" fill="#24126A"/>
<path d="M152.669 221.949L147.548 224.904L142.428 221.949L147.548 218.992L152.669 221.949Z" fill="#24126A"/>
<path d="M170.728 226.015L160.101 232.15L154.98 229.195L165.608 223.059L170.728 226.015Z" fill="#24126A"/>
<path d="M273.47 239.589L309.216 218.952C310.613 218.145 310.613 216.837 309.216 216.03L284.772 201.917C283.375 201.111 281.109 201.111 279.712 201.917L243.966 222.555C242.569 223.361 242.569 224.67 243.966 225.476L268.41 239.589C269.807 240.396 272.073 240.396 273.47 239.589Z" fill="url(#paint27_linear_5323_17681)"/>
<path d="M243.965 223.751L279.71 203.112C281.108 202.306 283.373 202.306 284.771 203.112L309.215 217.225C309.646 217.474 309.927 217.772 310.093 218.089C310.463 217.382 310.18 216.588 309.215 216.03L284.771 201.917C283.373 201.111 281.108 201.111 279.71 201.917L243.965 222.555C242.999 223.112 242.716 223.907 243.086 224.613C243.252 224.3 243.533 224 243.965 223.751Z" fill="#9198DB"/>
<g opacity="0.11">
<mask id="mask2_5323_17681" style="mask-type:luminance" maskUnits="userSpaceOnUse" x="93" y="12" width="175" height="204">
<path d="M248.783 12.3086L93.4258 102.004L112.693 215.582L267.944 125.946L248.783 12.3086Z" fill="white"/>
</mask>
<g mask="url(#mask2_5323_17681)">
<path d="M271.088 130.512L111.554 222.619C109.809 223.626 107.166 223.736 105.654 222.863L10.4545 167.899C8.9418 167.025 9.13256 165.501 10.8778 164.492L170.412 72.3851C172.159 71.3761 174.799 71.2673 176.312 72.1408L271.511 127.105C273.024 127.978 272.835 129.504 271.088 130.512Z" fill="url(#paint28_linear_5323_17681)"/>
<path d="M111.079 147.027L146.825 126.389C148.222 125.583 148.222 124.274 146.825 123.468L122.381 109.355C120.984 108.548 118.718 108.548 117.321 109.355L81.5753 129.994C80.178 130.8 80.178 132.109 81.5753 132.915L106.019 147.028C107.417 147.833 109.682 147.833 111.079 147.027Z" fill="url(#paint29_linear_5323_17681)"/>
<path d="M81.576 131.185L117.322 110.546C118.719 109.739 120.985 109.739 122.38 110.546L146.824 124.659C147.256 124.908 147.537 125.206 147.703 125.522C148.073 124.816 147.791 124.021 146.824 123.464L122.38 109.351C120.983 108.544 118.717 108.544 117.322 109.351L81.576 129.99C80.6105 130.547 80.3277 131.342 80.6975 132.048C80.8632 131.734 81.146 131.434 81.576 131.185Z" fill="#9198DB"/>
<path d="M65.8628 179.278L198.434 102.738C199.318 102.228 200.407 102.228 201.291 102.74L248.499 130.054C249.176 130.445 249.176 131.424 248.499 131.816L115.989 208.32C115.106 208.831 114.018 208.831 113.136 208.32L65.8645 181.042C65.1835 180.65 65.1835 179.67 65.8628 179.278Z" fill="#ADB1F2"/>
<path d="M65.863 181.043L66.3383 181.318L198.436 105.052C199.32 104.542 200.409 104.542 201.293 105.054L248.025 132.093L248.499 131.819C249.177 131.427 249.178 130.448 248.499 130.057L201.291 102.743C200.407 102.233 199.318 102.231 198.435 102.741L65.863 179.281C65.1837 179.671 65.1837 180.652 65.863 181.043Z" fill="#9198DB"/>
<path d="M236.146 128.188L120.652 194.868L125.227 197.509L240.721 130.83L236.146 128.188Z" fill="#24126A"/>
<path d="M223.977 121.164L114.201 184.542L118.776 187.184L228.552 123.805L223.977 121.164Z" fill="#24126A"/>
<path d="M106.006 189.273L95.7539 195.194L100.329 197.834L110.581 191.916L106.006 189.273Z" fill="#24126A"/>
<path d="M115.06 198.098L107.922 202.219L112.497 204.861L119.635 200.74L115.06 198.098Z" fill="#24126A"/>
<path d="M216.351 116.762L88.127 190.792L92.7018 193.432L220.926 119.402L216.351 116.762Z" fill="#24126A"/>
<path d="M208.726 112.359L80.502 186.389L85.0768 189.031L213.301 115L208.726 112.359Z" fill="#24126A"/>
<path d="M201.101 107.957L72.877 181.987L77.4518 184.629L205.676 110.599L201.101 107.957Z" fill="#24126A"/>
</g>
</g>
<path d="M151.926 172.276L164.494 165.012L164.864 167.194L152.294 174.459L151.926 172.276Z" fill="#42E8E0"/>
<path d="M166.516 163.854L173.365 159.895L173.733 162.078L166.885 166.036L166.516 163.854Z" fill="#42E8E0"/>
<path d="M184.02 153.744L188.974 150.879L189.344 153.063L184.389 155.926L184.02 153.744Z" fill="#42E8E0"/>
<path d="M180.406 155.834L182.1 154.855L182.468 157.037L180.774 158.016L180.406 155.834Z" fill="#42E8E0"/>
<path d="M175.41 158.72L178.486 156.941L178.854 159.123L175.778 160.902L175.41 158.72Z" fill="#42E8E0"/>
<path d="M161.869 155.586L166.824 152.723L167.194 154.905L162.237 157.769L161.869 155.586Z" fill="#42E8E0"/>
<path d="M150.24 162.306L159.951 156.695L160.319 158.877L150.61 164.488L150.24 162.306Z" fill="#42E8E0"/>
<path d="M164.16 126.935L173.869 121.324L174.237 123.506L164.528 129.117L164.16 126.935Z" fill="#42E8E0"/>
<path d="M159.166 129.82L162.24 128.043L162.608 130.227L159.534 132.004L159.166 129.82Z" fill="#42E8E0"/>
<path d="M165.781 136.919L175.49 131.309L175.858 133.491L166.149 139.103L165.781 136.919Z" fill="#42E8E0"/>
<path d="M160.785 139.806L163.861 138.027L164.229 140.211L161.153 141.988L160.785 139.806Z" fill="#42E8E0"/>
<path d="M156.994 83.8422L138.704 94.4126L138.336 92.2306L156.625 81.6602L156.994 83.8422Z" fill="#42E8E0"/>
<path d="M163.439 80.1173L158.915 82.7327L158.545 80.549L163.071 77.9336L163.439 80.1173Z" fill="#42E8E0"/>
<path d="M195.58 77.9984L177.29 88.5689L176.922 86.3869L195.211 75.8164L195.58 77.9984Z" fill="#42E8E0"/>
<path d="M202.026 74.2719L197.501 76.8873L197.133 74.7053L201.658 72.0898L202.026 74.2719Z" fill="#42E8E0"/>
<path d="M144.501 96.5375L139.546 99.4023L139.178 97.2185L144.132 94.3555L144.501 96.5375Z" fill="#42E8E0"/>
<path d="M174.649 90.0687L169.694 92.9335L169.326 90.7515L174.281 87.8867L174.649 90.0687Z" fill="#42E8E0"/>
<path d="M156.13 89.8148L146.421 95.4272L146.053 93.2435L155.761 87.6328L156.13 89.8148Z" fill="#42E8E0"/>
<path d="M161.125 86.9281L158.051 88.7052L157.682 86.5232L160.757 84.7461L161.125 86.9281Z" fill="#42E8E0"/>
<path d="M172.842 80.1664L163.134 85.7788L162.766 83.5967L172.474 77.9844L172.842 80.1664Z" fill="#42E8E0"/>
<path d="M177.84 77.2797L174.765 79.0568L174.396 76.8747L177.47 75.0977L177.84 77.2797Z" fill="#42E8E0"/>
<path d="M173.807 85.0805L168.851 87.9452L168.482 85.7632L173.437 82.8984L173.807 85.0805Z" fill="#42E8E0"/>
<path d="M185.436 78.3617L175.728 83.9724L175.359 81.7904L185.068 76.1797L185.436 78.3617Z" fill="#42E8E0"/>
<path d="M190.432 75.4728L187.356 77.2498L186.988 75.0661L190.062 73.2891L190.432 75.4728Z" fill="#42E8E0"/>
<path d="M150.526 98.5258L140.388 104.386L140.02 102.204L150.158 96.3438L150.526 98.5258Z" fill="#42E8E0"/>
<path d="M159.779 93.1781L152.446 97.4167L152.078 95.233L159.409 90.9961L159.779 93.1781Z" fill="#42E8E0"/>
<path d="M166.653 89.2032L161.698 92.0663L161.33 89.8843L166.285 87.0195L166.653 89.2032Z" fill="#42E8E0"/>
<path d="M214.712 66.9594L204.571 72.8194L204.203 70.6374L214.342 64.7773L214.712 66.9594Z" fill="#42E8E0"/>
<path d="M223.964 61.6134L216.632 65.8503L216.264 63.6682L223.595 59.4297L223.964 61.6134Z" fill="#42E8E0"/>
<path d="M230.84 57.6407L225.884 60.5038L225.516 58.3218L230.47 55.457L230.84 57.6407Z" fill="#42E8E0"/>
<path d="M210.752 132.839L220.891 126.98L221.259 129.162L211.12 135.023L210.752 132.839Z" fill="#42E8E0"/>
<path d="M201.5 138.186L208.833 133.949L209.201 136.131L201.868 140.368L201.5 138.186Z" fill="#42E8E0"/>
<path d="M194.623 142.162L199.579 139.297L199.948 141.481L194.991 144.344L194.623 142.162Z" fill="#42E8E0"/>
<path d="M207.387 140.278L217.525 134.418L217.894 136.6L207.755 142.46L207.387 140.278Z" fill="#42E8E0"/>
<path d="M198.135 145.625L205.466 141.387L205.835 143.57L198.503 147.807L198.135 145.625Z" fill="#42E8E0"/>
<path d="M191.258 149.597L196.213 146.734L196.582 148.916L191.626 151.781L191.258 149.597Z" fill="#42E8E0"/>
<path d="M166.447 131.058L169.873 129.078L170.241 131.26L166.817 133.24L166.447 131.058Z" fill="#42E8E0"/>
<path d="M160.002 134.779L164.528 132.164L164.896 134.348L160.372 136.962L160.002 134.779Z" fill="#42E8E0"/>
<path d="M151.434 103.481L141.296 109.341L140.926 107.157L151.064 101.297L151.434 103.481Z" fill="#42E8E0"/>
<path d="M160.687 98.1352L153.354 102.374L152.986 100.19L160.319 95.9531L160.687 98.1352Z" fill="#42E8E0"/>
<path d="M167.563 94.1586L162.606 97.0233L162.238 94.8413L167.195 91.9766L167.563 94.1586Z" fill="#42E8E0"/>
<path d="M145.561 112.346L142.138 114.326L141.77 112.144L145.193 110.164L145.561 112.346Z" fill="#42E8E0"/>
<path d="M152.006 108.623L147.481 111.239L147.113 109.057L151.638 106.441L152.006 108.623Z" fill="#42E8E0"/>
<path d="M161.219 103.299L153.929 107.514L153.561 105.331L160.851 101.117L161.219 103.299Z" fill="#42E8E0"/>
<path d="M171.107 144.804L174.531 142.824L174.899 145.008L171.476 146.986L171.107 144.804Z" fill="#42E8E0"/>
<path d="M164.66 148.529L169.187 145.914L169.555 148.096L165.03 150.711L164.66 148.529Z" fill="#42E8E0"/>
<path d="M155.449 153.854L162.742 149.641L163.11 151.823L155.819 156.036L155.449 153.854Z" fill="#42E8E0"/>
<path d="M176.322 136.71L183.615 132.496L183.983 134.678L176.692 138.892L176.322 136.71Z" fill="#42E8E0"/>
<path d="M164.396 143.211L174.226 137.531L174.594 139.713L164.766 145.393L164.396 143.211Z" fill="#42E8E0"/>
<path d="M159.402 146.097L162.478 144.32L162.846 146.502L159.772 148.279L159.402 146.097Z" fill="#42E8E0"/>
<path d="M154.607 148.869L157.683 147.09L158.051 149.272L154.977 151.051L154.607 148.869Z" fill="#42E8E0"/>
<path d="M155.268 120.697L164.976 115.086L165.344 117.268L155.636 122.88L155.268 120.697Z" fill="#42E8E0"/>
<path d="M150.273 123.582L153.347 121.805L153.715 123.987L150.642 125.764L150.273 123.582Z" fill="#42E8E0"/>
<path d="M155.936 114.835L159.359 112.855L159.729 115.039L156.304 117.017L155.936 114.835Z" fill="#42E8E0"/>
<path d="M168.025 118.827L171.449 116.848L171.819 119.031L168.394 121.009L168.025 118.827Z" fill="#42E8E0"/>
<path d="M172.906 116.011L181.124 111.266L181.492 113.448L173.276 118.193L172.906 116.011Z" fill="#42E8E0"/>
<path d="M182.582 110.426L187.47 107.602L187.838 109.784L182.95 112.608L182.582 110.426Z" fill="#42E8E0"/>
<path d="M149.49 118.557L154.015 115.941L154.385 118.125L149.858 120.741L149.49 118.557Z" fill="#42E8E0"/>
<path d="M149.062 113.437L152.486 111.457L152.856 113.641L149.431 115.619L149.062 113.437Z" fill="#42E8E0"/>
<path d="M142.617 117.161L147.142 114.547L147.512 116.729L142.985 119.344L142.617 117.161Z" fill="#42E8E0"/>
<path d="M163.055 121.695L166.13 119.918L166.498 122.1L163.424 123.879L163.055 121.695Z" fill="#42E8E0"/>
<path d="M158.264 124.468L161.338 122.691L161.707 124.873L158.632 126.652L158.264 124.468Z" fill="#42E8E0"/>
<path d="M181.881 149.522L192.371 143.461L192.739 145.643L182.251 151.705L181.881 149.522Z" fill="#42E8E0"/>
<path d="M170.133 156.312L179.962 150.633L180.33 152.815L170.503 158.496L170.133 156.312Z" fill="#42E8E0"/>
<path d="M165.139 159.203L168.214 157.426L168.582 159.608L165.507 161.385L165.139 159.203Z" fill="#42E8E0"/>
<path d="M160.344 161.974L163.419 160.195L163.787 162.379L160.712 164.156L160.344 161.974Z" fill="#42E8E0"/>
<path d="M157.723 163.488L151.088 167.322L151.456 169.506L158.091 165.67L157.723 163.488Z" fill="#42E8E0"/>
<path d="M501.976 383.897C501.835 383.897 501.693 383.86 501.563 383.787L414.685 333.629C414.29 333.399 414.154 332.894 414.382 332.499C414.609 332.104 415.116 331.969 415.511 332.196L502.389 382.355C502.784 382.584 502.92 383.089 502.692 383.484C502.54 383.75 502.262 383.897 501.976 383.897Z" fill="#42E8E0"/>
<path d="M418.134 304.3C417.848 304.3 417.57 304.151 417.418 303.887C417.189 303.492 417.324 302.987 417.721 302.758L504.599 252.599C504.994 252.37 505.501 252.507 505.728 252.902C505.958 253.297 505.822 253.803 505.425 254.032L418.548 304.192C418.417 304.265 418.275 304.3 418.134 304.3Z" fill="#42E8E0"/>
<path d="M216.007 421.583C215.721 421.583 215.443 421.434 215.291 421.17C215.062 420.775 215.197 420.269 215.594 420.04L302.472 369.88C302.865 369.653 303.374 369.787 303.601 370.183C303.831 370.578 303.695 371.083 303.298 371.313L216.421 421.473C216.289 421.546 216.146 421.583 216.007 421.583Z" fill="#42E8E0"/>
<path d="M372.964 312.483C372.824 312.483 372.681 312.448 372.551 312.373L285.673 262.215C285.278 261.985 285.143 261.482 285.37 261.085C285.598 260.69 286.106 260.555 286.5 260.782L373.377 310.94C373.772 311.17 373.908 311.673 373.68 312.07C373.528 312.334 373.25 312.483 372.964 312.483Z" fill="#42E8E0"/>
<path d="M531.83 491.485C529.315 491.485 526.844 490.824 524.68 489.576L442.344 442.038C441.048 441.29 440.275 439.95 440.275 438.454C440.275 436.958 441.048 435.619 442.344 434.871L591.319 348.86C591.575 348.713 591.889 348.713 592.145 348.86L592.838 349.259L681.222 400.285C682.515 401.033 683.289 402.374 683.289 403.87C683.289 405.367 682.517 406.704 681.222 407.452L538.982 489.576C536.818 490.826 534.345 491.485 531.83 491.485ZM591.735 350.532L443.172 436.305C442.394 436.756 441.93 437.559 441.93 438.456C441.93 439.353 442.394 440.158 443.174 440.608L525.508 488.145C529.332 490.351 534.33 490.351 538.157 488.145L680.397 406.022C681.173 405.573 681.637 404.77 681.637 403.871C681.637 402.973 681.173 402.168 680.397 401.719L591.735 350.532Z" fill="#42E8E0"/>
<path d="M691.897 377.198L683.254 381.711L596.589 331.675C595.138 330.838 592.607 330.942 590.932 331.909L441.459 418.208C440.029 417.408 433.508 414.272 433.508 414.272L436.672 422.515C436.672 422.515 436.682 422.506 436.685 422.505C436.816 422.871 437.097 423.213 437.571 423.485L528.846 476.184C530.297 477.02 532.828 476.917 534.503 475.949L687.461 387.639C688.149 387.243 688.571 386.762 688.745 386.275L688.756 386.284L691.897 377.198Z" fill="url(#paint30_linear_5323_17681)"/>
<path d="M690.562 378.617L533.801 469.123C532.085 470.113 529.488 470.22 528.003 469.364L434.456 415.355C432.971 414.497 433.156 412.999 434.873 412.009L591.634 321.503C593.349 320.512 595.947 320.405 597.432 321.262L690.978 375.271C692.463 376.127 692.277 377.627 690.562 378.617Z" fill="url(#paint31_linear_5323_17681)"/>
<path d="M690.562 377.714L533.801 468.219C532.086 469.21 529.489 469.317 528.003 468.46L434.457 414.452C433.97 414.171 433.681 413.817 433.549 413.441C433.313 414.145 433.595 414.858 434.457 415.355L528.003 469.364C529.489 470.222 532.084 470.113 533.801 469.123L690.562 378.617C691.717 377.951 692.161 377.058 691.888 376.281C691.717 376.792 691.282 377.297 690.562 377.714Z" fill="white"/>
<path d="M486.516 449.545V447.826C486.516 447.664 486.614 447.589 486.736 447.659L492.801 451.16C492.923 451.23 493.021 451.419 493.021 451.583V453.302C493.021 453.464 492.923 453.539 492.801 453.469L486.736 449.968C486.616 449.896 486.516 449.707 486.516 449.545Z" fill="#2842A2"/>
<path d="M495.584 454.779V453.061C495.584 452.899 495.683 452.823 495.805 452.894L501.869 456.394C501.991 456.464 502.09 456.654 502.09 456.817V458.536C502.09 458.698 501.991 458.774 501.869 458.703L495.805 455.203C495.683 455.132 495.584 454.943 495.584 454.779Z" fill="#2842A2"/>
<path d="M487.197 427.634L617.466 352.423C618.334 351.921 619.405 351.922 620.272 352.424L666.66 379.263C667.326 379.648 667.326 380.61 666.66 380.995L536.452 456.171C535.585 456.671 534.515 456.671 533.647 456.171L487.195 429.366C486.531 428.983 486.531 428.02 487.197 427.634Z" fill="#ADB1F2"/>
<path d="M487.197 429.369L487.664 429.638L617.466 354.697C618.334 354.195 619.405 354.196 620.272 354.698L666.193 381.267L666.66 380.998C667.326 380.613 667.326 379.651 666.66 379.266L620.272 352.427C619.403 351.925 618.334 351.926 617.466 352.426L487.197 427.637C486.531 428.022 486.531 428.984 487.197 429.369Z" fill="#9198DB"/>
<path d="M623.774 359.221L503.781 428.499L497.832 426.125L618.744 356.316L623.774 359.221Z" fill="#24126A"/>
<path d="M636.109 366.342L529.971 427.62L524.941 424.715L631.078 363.438L636.109 366.342Z" fill="#24126A"/>
<path d="M644.143 370.983L519.178 443.131L514.146 440.226L639.111 368.078L644.143 370.983Z" fill="#24126A"/>
<path d="M652.176 375.62L527.211 447.767L522.18 444.862L647.146 372.715L652.176 375.62Z" fill="#24126A"/>
<path d="M660.209 380.26L535.247 452.408L530.215 449.503L655.179 377.355L660.209 380.26Z" fill="#24126A"/>
<path d="M503.78 428.499L498.749 431.404L493.717 428.499L498.749 425.594L503.78 428.499Z" fill="#24126A"/>
<path d="M536.076 424.095L511.084 438.524L506.053 435.619L531.226 421.086L536.076 424.095Z" fill="#24126A"/>
<path d="M533.574 393.929L568.699 373.65C570.071 372.857 570.071 371.571 568.699 370.78L544.68 356.911C543.308 356.118 541.081 356.118 539.709 356.911L504.584 377.19C503.212 377.984 503.212 379.269 504.584 380.06L528.603 393.929C529.975 394.722 532.202 394.722 533.574 393.929Z" fill="url(#paint32_linear_5323_17681)"/>
<path d="M504.583 378.365L539.708 358.086C541.081 357.293 543.308 357.293 544.68 358.086L568.699 371.955C569.122 372.199 569.4 372.493 569.562 372.803C569.925 372.11 569.649 371.329 568.699 370.78L544.68 356.911C543.308 356.118 541.081 356.118 539.708 356.911L504.583 377.19C503.635 377.739 503.357 378.519 503.72 379.213C503.882 378.904 504.158 378.609 504.583 378.365Z" fill="#9198DB"/>
<path d="M691.648 374.871L671.832 257.304L673.425 256.633L671.031 255.261L671.034 255.275C670.569 254.965 669.913 254.983 669.189 255.402L510.816 346.838C509.516 347.589 508.532 349.515 508.759 350.86L528.734 469.363C528.839 469.98 529.144 470.39 529.569 470.569L529.567 470.571L531.91 471.924L532.313 469.737L532.179 469.778L689.591 378.895C690.892 378.144 691.877 376.218 691.648 374.871Z" fill="url(#paint33_linear_5323_17681)"/>
<path d="M511.699 350.054L509.095 348.902C508.804 349.568 508.66 350.271 508.76 350.862L528.735 469.364C528.84 469.981 529.145 470.391 529.57 470.57L529.568 470.572L531.911 471.926L532.314 469.739L532.18 469.779L540.145 465.181L511.699 350.054Z" fill="url(#paint34_linear_5323_17681)"/>
<path d="M692.077 380.321L533.704 471.757C532.481 472.463 531.435 472.054 531.219 470.789L511.246 352.287C511.017 350.94 512.002 349.016 513.303 348.265L671.675 256.829C672.898 256.122 673.944 256.531 674.16 257.796L694.133 376.298C694.361 377.643 693.377 379.569 692.077 380.321Z" fill="#453C9E"/>
<path d="M326.463 383.453C324.524 383.453 322.623 382.972 321.11 382.099L286.124 361.9C284.206 360.792 283.104 359.146 283.104 357.382C283.104 355.776 284.014 354.33 285.6 353.413L453.948 256.216C456.581 254.695 460.78 254.825 463.711 256.519L498.699 276.717C500.618 277.827 501.72 279.475 501.72 281.239C501.72 282.847 500.809 284.293 499.221 285.206L330.874 382.402C329.699 383.078 328.133 383.453 326.463 383.453ZM458.35 256.821C457.013 256.821 455.733 257.093 454.774 257.645L286.427 354.842C285.366 355.454 284.757 356.38 284.757 357.38C284.758 358.537 285.557 359.661 286.951 360.468L321.937 380.667C324.242 381.995 328.029 382.134 330.047 380.969L498.396 283.774C499.457 283.161 500.066 282.238 500.066 281.237C500.066 280.081 499.266 278.953 497.873 278.146L462.885 257.948C461.593 257.201 459.933 256.821 458.35 256.821Z" fill="#42E8E0"/>
<path opacity="0.6" d="M326.462 382.625C324.741 382.625 322.948 382.205 321.523 381.382L286.537 361.183C284.88 360.227 283.93 358.84 283.93 357.379C283.93 356.078 284.689 354.891 286.013 354.126L454.36 256.929C456.723 255.565 460.645 255.699 463.298 257.232L498.285 277.431C499.942 278.388 500.892 279.775 500.892 281.236C500.892 282.538 500.134 283.724 498.809 284.489L330.46 381.685C329.367 382.315 327.943 382.625 326.462 382.625Z" fill="url(#paint35_linear_5323_17681)" fill-opacity="0.5"/>
<path d="M430.375 200.997C425.949 203.552 421.764 207.152 418.038 211.403C412.867 194.794 397.094 189.64 378.433 200.415C362.995 209.329 349.54 226.86 342.423 245.434C340.064 245.509 337.436 246.286 334.654 247.892C324.578 253.709 316.411 267.855 316.411 279.488C316.411 279.739 316.436 279.968 316.443 280.211C313.57 280.408 310.394 281.424 307.052 283.353C294.166 290.793 283.721 308.885 283.721 323.763C283.721 338.642 294.166 344.671 307.052 337.231L430.375 266.031C445.929 257.05 458.537 235.212 458.537 217.253C458.539 199.295 445.929 192.016 430.375 200.997Z" fill="url(#paint36_linear_5323_17681)"/>
<path d="M430.375 200.997C427.808 202.478 425.328 204.32 422.965 206.427L409.175 198.458L409.177 198.462C401.602 193.135 390.635 193.368 378.431 200.413C362.993 209.326 349.538 226.858 342.419 245.432C340.06 245.507 337.433 246.284 334.65 247.89C324.575 253.707 316.407 267.853 316.407 279.486C316.407 279.737 316.432 279.966 316.441 280.209C313.568 280.406 310.392 281.422 307.05 283.351C294.164 290.791 283.719 308.883 283.719 323.761C283.719 331.135 286.289 336.326 290.446 338.791L290.435 338.796L290.543 338.858C290.549 338.861 290.556 338.866 290.564 338.869L324.342 358.476L331.72 322.986L430.373 266.027C445.927 257.047 458.535 235.21 458.535 217.25C458.539 199.295 445.928 192.016 430.375 200.997Z" fill="url(#paint37_radial_5323_17681)"/>
<path d="M484.665 218.997L450.442 199.112L450.443 199.121C445.335 196.079 438.233 196.46 430.377 200.997C427.81 202.478 425.33 204.32 422.967 206.427L409.177 198.458L409.179 198.462C401.604 193.135 390.637 193.368 378.433 200.413C362.995 209.326 349.54 226.858 342.421 245.432C340.062 245.507 337.435 246.284 334.652 247.89C324.577 253.707 316.409 267.853 316.409 279.486C316.409 279.737 316.434 279.966 316.443 280.209C313.57 280.406 310.394 281.422 307.052 283.351C294.166 290.791 283.721 308.883 283.721 323.761C283.721 331.135 286.291 336.326 290.448 338.791L290.437 338.796L290.545 338.858C290.551 338.861 290.558 338.866 290.566 338.869L324.344 358.476L331.722 322.986L430.375 266.027C442.984 258.748 453.653 243.019 457.244 227.757L484.665 218.997Z" fill="url(#paint38_linear_5323_17681)"/>
<path d="M464.261 220.666C459.835 223.221 455.65 226.82 451.924 231.071C446.753 214.461 430.98 209.309 412.319 220.082C396.881 228.996 383.426 246.527 376.308 265.101C373.948 265.177 371.321 265.953 368.538 267.559C358.463 273.376 350.296 287.522 350.296 299.155C350.296 299.406 350.321 299.634 350.327 299.878C347.454 300.076 344.278 301.091 340.937 303.021C328.05 310.46 317.605 328.552 317.605 343.432C317.605 358.311 328.052 364.34 340.937 356.902L464.26 285.702C479.813 276.721 492.422 254.882 492.422 236.924C492.422 218.966 479.815 211.687 464.261 220.666Z" fill="url(#paint39_linear_5323_17681)"/>
<path d="M453.054 231.748C456.78 227.496 460.965 223.898 465.391 221.341C472.996 216.95 479.892 216.457 484.959 219.188C479.814 215.72 472.446 215.938 464.262 220.663C460.092 223.071 456.139 226.413 452.58 230.347C452.746 230.806 452.906 231.271 453.054 231.748Z" fill="white"/>
<path d="M318.739 344.11C318.739 329.231 329.185 311.139 342.07 303.699C345.412 301.77 348.586 300.754 351.461 300.557C351.452 300.313 351.427 300.083 351.427 299.834C351.427 288.201 359.595 274.055 369.668 268.238C372.451 266.632 375.078 265.855 377.437 265.78C384.556 247.206 398.011 229.673 413.449 220.761C424.736 214.245 434.96 213.564 442.428 217.708C434.881 212.827 424.187 213.231 412.32 220.081C396.882 228.995 383.426 246.527 376.308 265.101C373.949 265.176 371.321 265.952 368.539 267.559C358.463 273.375 350.298 287.522 350.298 299.155C350.298 299.406 350.323 299.633 350.329 299.877C347.456 300.075 344.28 301.092 340.939 303.022C328.052 310.461 317.607 328.553 317.607 343.433C317.607 351.073 320.367 356.373 324.793 358.72C321.031 356.11 318.739 351.081 318.739 344.11Z" fill="white"/>
<path d="M276.001 493.646C273.49 493.646 271.017 492.986 268.85 491.735L126.61 409.612C125.316 408.866 124.543 407.527 124.543 406.03C124.543 404.534 125.316 403.195 126.61 402.445L215.684 351.021C215.94 350.873 216.255 350.873 216.511 351.021L365.488 437.03C366.783 437.78 367.556 439.118 367.556 440.614C367.556 442.11 366.783 443.447 365.49 444.198L283.152 491.735C280.986 492.986 278.515 493.646 276.001 493.646ZM269.678 490.304C273.508 492.511 278.498 492.511 282.325 490.304L364.661 442.768C365.438 442.318 365.903 441.513 365.903 440.616C365.903 439.719 365.439 438.912 364.661 438.464L216.099 352.692L127.439 403.88C126.663 404.33 126.2 405.133 126.2 406.031C126.2 406.93 126.663 407.735 127.439 408.182L269.678 490.304Z" fill="#42E8E0"/>
<path d="M115.932 379.35L124.574 383.863L211.24 333.827C212.69 332.99 215.222 333.094 216.897 334.061L366.369 420.36C367.8 419.56 374.321 416.424 374.321 416.424L371.157 424.667L371.143 424.657C371.013 425.024 370.732 425.365 370.258 425.639L278.983 478.338C277.532 479.174 275 479.071 273.325 478.103L120.368 389.793C119.68 389.397 119.258 388.916 119.084 388.43L119.072 388.438L115.932 379.35Z" fill="url(#paint40_linear_5323_17681)"/>
<path d="M117.27 380.773L274.031 471.279C275.746 472.27 278.343 472.377 279.829 471.52L373.375 417.511C374.861 416.653 374.675 415.155 372.958 414.165L216.197 323.659C214.482 322.669 211.885 322.562 210.399 323.418L116.853 377.427C115.367 378.284 115.553 379.783 117.27 380.773Z" fill="url(#paint41_linear_5323_17681)"/>
<path d="M117.27 379.87L274.032 470.375C275.747 471.366 278.344 471.473 279.83 470.616L373.376 416.608C373.863 416.327 374.152 415.974 374.284 415.597C374.52 416.302 374.238 417.015 373.376 417.512L279.83 471.52C278.344 472.378 275.748 472.27 274.032 471.279L117.27 380.774C116.116 380.108 115.672 379.214 115.945 378.438C116.116 378.946 116.549 379.453 117.27 379.87Z" fill="white"/>
<path d="M321.315 451.701V449.983C321.315 449.82 321.216 449.745 321.094 449.815L315.029 453.316C314.907 453.386 314.809 453.575 314.809 453.739V455.46C314.809 455.622 314.907 455.697 315.029 455.627L321.094 452.126C321.216 452.054 321.315 451.865 321.315 451.701Z" fill="#2842A2"/>
<path d="M312.246 456.936V455.217C312.246 455.055 312.147 454.979 312.025 455.05L305.961 458.55C305.839 458.621 305.74 458.81 305.74 458.974V460.692C305.74 460.855 305.839 460.93 305.961 460.86L312.025 457.359C312.147 457.287 312.246 457.098 312.246 456.936Z" fill="#2842A2"/>
<path d="M320.634 429.79L190.365 354.579C189.497 354.077 188.428 354.078 187.559 354.58L141.171 381.419C140.505 381.804 140.505 382.766 141.173 383.151L271.382 458.327C272.248 458.827 273.318 458.827 274.186 458.327L320.638 431.522C321.302 431.137 321.302 430.175 320.634 429.79Z" fill="#ADB1F2"/>
<path d="M320.634 431.521L320.167 431.791L190.365 356.849C189.496 356.347 188.427 356.349 187.558 356.851L141.637 383.42L141.17 383.15C140.504 382.765 140.503 381.803 141.169 381.418L187.557 354.58C188.425 354.078 189.494 354.078 190.363 354.578L320.632 429.79C321.301 430.174 321.301 431.137 320.634 431.521Z" fill="#9198DB"/>
<path d="M184.059 361.378L304.053 430.657L310.002 428.281L189.09 358.473L184.059 361.378Z" fill="#24126A"/>
<path d="M171.725 368.499L277.861 429.778L282.893 426.873L176.755 365.594L171.725 368.499Z" fill="#24126A"/>
<path d="M163.688 373.139L288.652 445.288L293.684 442.383L168.719 370.234L163.688 373.139Z" fill="#24126A"/>
<path d="M155.654 377.776L280.619 449.925L285.651 447.02L160.686 374.871L155.654 377.776Z" fill="#24126A"/>
<path d="M147.621 382.417L272.586 454.566L277.617 451.661L152.653 379.512L147.621 382.417Z" fill="#24126A"/>
<path d="M304.053 430.659L309.083 433.564L314.114 430.659L309.083 427.754L304.053 430.659Z" fill="#24126A"/>
<path d="M271.756 426.253L296.749 440.682L301.78 437.777L276.607 423.242L271.756 426.253Z" fill="#24126A"/>
<path d="M274.255 396.083L239.13 375.804C237.756 375.011 237.756 373.726 239.13 372.934L263.149 359.068C264.523 358.274 266.748 358.274 268.12 359.068L303.245 379.347C304.618 380.14 304.618 381.425 303.245 382.216L279.226 396.085C277.854 396.877 275.629 396.876 274.255 396.083Z" fill="url(#paint42_linear_5323_17681)"/>
<path d="M303.248 380.52L268.123 360.241C266.751 359.447 264.524 359.447 263.152 360.241L239.133 374.109C238.709 374.353 238.431 374.648 238.269 374.958C237.906 374.265 238.182 373.483 239.133 372.934L263.152 359.068C264.524 358.274 266.751 358.274 268.123 359.068L303.248 379.347C304.197 379.894 304.475 380.675 304.111 381.37C303.949 381.057 303.671 380.764 303.248 380.52Z" fill="#9198DB"/>
<path d="M116.183 377.027L135.999 259.461L134.406 258.79L136.8 257.417L136.797 257.431C137.261 257.121 137.918 257.14 138.643 257.558L297.015 348.994C298.316 349.745 299.299 351.671 299.072 353.017L279.097 471.519C278.992 472.136 278.687 472.546 278.262 472.725L275.921 474.079L275.52 471.892L275.654 471.932L118.241 381.05C116.94 380.3 115.956 378.374 116.183 377.027Z" fill="url(#paint43_linear_5323_17681)"/>
<path d="M296.131 352.21L298.734 351.059C299.027 351.725 299.169 352.427 299.069 353.018L279.094 471.52C278.989 472.138 278.684 472.548 278.259 472.727H278.261L275.918 474.08L275.517 471.893L275.651 471.934L267.686 467.335L296.131 352.21Z" fill="url(#paint44_linear_5323_17681)"/>
<path d="M115.754 382.477L274.127 473.913C275.35 474.619 276.396 474.211 276.612 472.946L296.586 354.444C296.816 353.096 295.83 351.172 294.53 350.421L136.157 258.985C134.934 258.279 133.888 258.687 133.672 259.952L113.699 378.454C113.47 379.8 114.454 381.726 115.754 382.477Z" fill="#453C9E"/>
<defs>
<linearGradient id="paint0_linear_5323_17681" x1="511.493" y1="135.26" x2="615.024" y2="316.225" gradientUnits="userSpaceOnUse">
<stop stop-color="#42E8E0"/>
<stop offset="0.0185" stop-color="#40DEDA"/>
<stop offset="0.1149" stop-color="#37ADBC"/>
<stop offset="0.2166" stop-color="#2E82A2"/>
<stop offset="0.3219" stop-color="#285E8C"/>
<stop offset="0.4319" stop-color="#A9ACB1"/>
<stop offset="0.5479" stop-color="#A4A4A4"/>
<stop offset="0.6729" stop-color="#B5B5B5"/>
<stop offset="0.813" stop-color="#E2E2E2"/>
<stop offset="1" stop-color="white"/>
</linearGradient>
<linearGradient id="paint1_linear_5323_17681" x1="288.32" y1="258.186" x2="184.788" y2="77.2199" gradientUnits="userSpaceOnUse">
<stop stop-color="#42E8E0"/>
<stop offset="0.0185" stop-color="#40DEDA"/>
<stop offset="0.1149" stop-color="#37ADBC"/>
<stop offset="0.2166" stop-color="#2E82A2"/>
<stop offset="0.3219" stop-color="#285E8C"/>
<stop offset="0.4319" stop-color="#A9ACB1"/>
<stop offset="0.5479" stop-color="#A4A4A4"/>
<stop offset="0.6729" stop-color="#B5B5B5"/>
<stop offset="0.813" stop-color="#E2E2E2"/>
<stop offset="1" stop-color="white"/>
</linearGradient>
<linearGradient id="paint2_linear_5323_17681" x1="714.447" y1="110.347" x2="528.259" y2="110.347" gradientUnits="userSpaceOnUse">
<stop stop-color="#C0BFF6"/>
<stop offset="0.2938" stop-color="#C5C4F7"/>
<stop offset="0.6399" stop-color="#D3D2F9"/>
<stop offset="1" stop-color="#E9E9FD"/>
</linearGradient>
<linearGradient id="paint3_linear_5323_17681" x1="714.448" y1="158.095" x2="682.477" y2="158.095" gradientUnits="userSpaceOnUse">
<stop stop-color="#5761D7"/>
<stop offset="0.1779" stop-color="#5C66D9"/>
<stop offset="0.3876" stop-color="#6A73DF"/>
<stop offset="0.6134" stop-color="#8289E8"/>
<stop offset="0.849" stop-color="#A3A7F5"/>
<stop offset="1" stop-color="#BCBEFF"/>
</linearGradient>
<linearGradient id="paint4_linear_5323_17681" x1="689.504" y1="211.771" x2="426.546" y2="211.771" gradientUnits="userSpaceOnUse">
<stop stop-color="#5761D7"/>
<stop offset="0.1779" stop-color="#5C66D9"/>
<stop offset="0.3876" stop-color="#6A73DF"/>
<stop offset="0.6134" stop-color="#8289E8"/>
<stop offset="0.849" stop-color="#A3A7F5"/>
<stop offset="1" stop-color="#BCBEFF"/>
</linearGradient>
<linearGradient id="paint5_linear_5323_17681" x1="601.149" y1="203.002" x2="338.051" y2="203.002" gradientUnits="userSpaceOnUse">
<stop stop-color="#C0BFF6"/>
<stop offset="0.2938" stop-color="#C5C4F7"/>
<stop offset="0.6399" stop-color="#D3D2F9"/>
<stop offset="1" stop-color="#E9E9FD"/>
</linearGradient>
<linearGradient id="paint6_linear_5323_17681" x1="556.594" y1="217.937" x2="489.248" y2="217.937" gradientUnits="userSpaceOnUse">
<stop stop-color="#C0BFF6"/>
<stop offset="0.2938" stop-color="#C5C4F7"/>
<stop offset="0.6399" stop-color="#D3D2F9"/>
<stop offset="1" stop-color="#E9E9FD"/>
</linearGradient>
<linearGradient id="paint7_linear_5323_17681" x1="701.667" y1="144.686" x2="438.569" y2="144.686" gradientUnits="userSpaceOnUse">
<stop stop-color="#C0BFF6"/>
<stop offset="0.2938" stop-color="#C5C4F7"/>
<stop offset="0.6399" stop-color="#D3D2F9"/>
<stop offset="1" stop-color="#E9E9FD"/>
</linearGradient>
<linearGradient id="paint8_linear_5323_17681" x1="718.982" y1="125.372" x2="651.637" y2="125.372" gradientUnits="userSpaceOnUse">
<stop stop-color="#C0BFF6"/>
<stop offset="0.2938" stop-color="#C5C4F7"/>
<stop offset="0.6399" stop-color="#D3D2F9"/>
<stop offset="1" stop-color="#E9E9FD"/>
</linearGradient>
<linearGradient id="paint9_linear_5323_17681" x1="252.501" y1="330.5" x2="82.529" y2="447.375" gradientUnits="userSpaceOnUse">
<stop stop-color="#42E8E0"/>
<stop offset="0.0185" stop-color="#40DEDA"/>
<stop offset="0.1149" stop-color="#37ADBC"/>
<stop offset="0.2166" stop-color="#2E82A2"/>
<stop offset="0.3219" stop-color="#285E8C"/>
<stop offset="0.4319" stop-color="#A9ACB1"/>
<stop offset="0.5479" stop-color="#A4A4A4"/>
<stop offset="0.6729" stop-color="#B5B5B5"/>
<stop offset="0.813" stop-color="#E2E2E2"/>
<stop offset="1" stop-color="white"/>
</linearGradient>
<linearGradient id="paint10_linear_5323_17681" x1="514.89" y1="394.055" x2="618.1" y2="572.816" gradientUnits="userSpaceOnUse">
<stop stop-color="#42E8E0"/>
<stop offset="0.0185" stop-color="#40DEDA"/>
<stop offset="0.1149" stop-color="#37ADBC"/>
<stop offset="0.2166" stop-color="#2E82A2"/>
<stop offset="0.3219" stop-color="#285E8C"/>
<stop offset="0.4319" stop-color="#A9ACB1"/>
<stop offset="0.5479" stop-color="#A4A4A4"/>
<stop offset="0.6729" stop-color="#B5B5B5"/>
<stop offset="0.813" stop-color="#E2E2E2"/>
<stop offset="1" stop-color="white"/>
</linearGradient>
<linearGradient id="paint11_linear_5323_17681" x1="85.2423" y1="113.544" x2="271.43" y2="113.544" gradientUnits="userSpaceOnUse">
<stop stop-color="#C0BFF6"/>
<stop offset="0.2938" stop-color="#C5C4F7"/>
<stop offset="0.6399" stop-color="#D3D2F9"/>
<stop offset="1" stop-color="#E9E9FD"/>
</linearGradient>
<linearGradient id="paint12_linear_5323_17681" x1="85.2442" y1="161.294" x2="117.214" y2="161.294" gradientUnits="userSpaceOnUse">
<stop stop-color="#5761D7"/>
<stop offset="0.1779" stop-color="#5C66D9"/>
<stop offset="0.3876" stop-color="#6A73DF"/>
<stop offset="0.6134" stop-color="#8289E8"/>
<stop offset="0.849" stop-color="#A3A7F5"/>
<stop offset="1" stop-color="#BCBEFF"/>
</linearGradient>
<linearGradient id="paint13_linear_5323_17681" x1="110.186" y1="214.97" x2="373.144" y2="214.97" gradientUnits="userSpaceOnUse">
<stop stop-color="#5761D7"/>
<stop offset="0.1779" stop-color="#5C66D9"/>
<stop offset="0.3876" stop-color="#6A73DF"/>
<stop offset="0.6134" stop-color="#8289E8"/>
<stop offset="0.849" stop-color="#A3A7F5"/>
<stop offset="1" stop-color="#BCBEFF"/>
</linearGradient>
<linearGradient id="paint14_linear_5323_17681" x1="198.542" y1="206.201" x2="461.64" y2="206.201" gradientUnits="userSpaceOnUse">
<stop stop-color="#C0BFF6"/>
<stop offset="0.2938" stop-color="#C5C4F7"/>
<stop offset="0.6399" stop-color="#D3D2F9"/>
<stop offset="1" stop-color="#E9E9FD"/>
</linearGradient>
<linearGradient id="paint15_linear_5323_17681" x1="243.097" y1="221.136" x2="310.443" y2="221.136" gradientUnits="userSpaceOnUse">
<stop stop-color="#C0BFF6"/>
<stop offset="0.2938" stop-color="#C5C4F7"/>
<stop offset="0.6399" stop-color="#D3D2F9"/>
<stop offset="1" stop-color="#E9E9FD"/>
</linearGradient>
<linearGradient id="paint16_linear_5323_17681" x1="98.024" y1="147.885" x2="361.122" y2="147.885" gradientUnits="userSpaceOnUse">
<stop stop-color="#C0BFF6"/>
<stop offset="0.2938" stop-color="#C5C4F7"/>
<stop offset="0.6399" stop-color="#D3D2F9"/>
<stop offset="1" stop-color="#E9E9FD"/>
</linearGradient>
<linearGradient id="paint17_linear_5323_17681" x1="80.709" y1="128.573" x2="148.054" y2="128.573" gradientUnits="userSpaceOnUse">
<stop stop-color="#C0BFF6"/>
<stop offset="0.2938" stop-color="#C5C4F7"/>
<stop offset="0.6399" stop-color="#D3D2F9"/>
<stop offset="1" stop-color="#E9E9FD"/>
</linearGradient>
<linearGradient id="paint18_linear_5323_17681" x1="434.7" y1="404.077" x2="693.089" y2="404.077" gradientUnits="userSpaceOnUse">
<stop stop-color="#5761D7"/>
<stop offset="0.1779" stop-color="#5C66D9"/>
<stop offset="0.3876" stop-color="#6A73DF"/>
<stop offset="0.6134" stop-color="#8289E8"/>
<stop offset="0.849" stop-color="#A3A7F5"/>
<stop offset="1" stop-color="#BCBEFF"/>
</linearGradient>
<linearGradient id="paint19_linear_5323_17681" x1="521.519" y1="395.46" x2="780.046" y2="395.46" gradientUnits="userSpaceOnUse">
<stop stop-color="#C0BFF6"/>
<stop offset="0.2938" stop-color="#C5C4F7"/>
<stop offset="0.6399" stop-color="#D3D2F9"/>
<stop offset="1" stop-color="#E9E9FD"/>
</linearGradient>
<linearGradient id="paint20_linear_5323_17681" x1="504.745" y1="375.565" x2="570.921" y2="375.565" gradientUnits="userSpaceOnUse">
<stop stop-color="#C0BFF6"/>
<stop offset="0.2938" stop-color="#C5C4F7"/>
<stop offset="0.6399" stop-color="#D3D2F9"/>
<stop offset="1" stop-color="#E9E9FD"/>
</linearGradient>
<linearGradient id="paint21_linear_5323_17681" x1="509.92" y1="363.642" x2="692.873" y2="363.642" gradientUnits="userSpaceOnUse">
<stop stop-color="#C0BFF6"/>
<stop offset="0.2938" stop-color="#C5C4F7"/>
<stop offset="0.6399" stop-color="#D3D2F9"/>
<stop offset="1" stop-color="#E9E9FD"/>
</linearGradient>
<linearGradient id="paint22_linear_5323_17681" x1="509.921" y1="410.561" x2="541.335" y2="410.561" gradientUnits="userSpaceOnUse">
<stop stop-color="#5761D7"/>
<stop offset="0.1779" stop-color="#5C66D9"/>
<stop offset="0.3876" stop-color="#6A73DF"/>
<stop offset="0.6134" stop-color="#8289E8"/>
<stop offset="0.849" stop-color="#A3A7F5"/>
<stop offset="1" stop-color="#BCBEFF"/>
</linearGradient>
<linearGradient id="paint23_linear_5323_17681" x1="85.0634" y1="113.163" x2="271.251" y2="113.163" gradientUnits="userSpaceOnUse">
<stop stop-color="#C0BFF6"/>
<stop offset="0.2938" stop-color="#C5C4F7"/>
<stop offset="0.6399" stop-color="#D3D2F9"/>
<stop offset="1" stop-color="#E9E9FD"/>
</linearGradient>
<linearGradient id="paint24_linear_5323_17681" x1="85.0636" y1="160.911" x2="117.034" y2="160.911" gradientUnits="userSpaceOnUse">
<stop stop-color="#5761D7"/>
<stop offset="0.1779" stop-color="#5C66D9"/>
<stop offset="0.3876" stop-color="#6A73DF"/>
<stop offset="0.6134" stop-color="#8289E8"/>
<stop offset="0.849" stop-color="#A3A7F5"/>
<stop offset="1" stop-color="#BCBEFF"/>
</linearGradient>
<linearGradient id="paint25_linear_5323_17681" x1="110.007" y1="214.587" x2="372.966" y2="214.587" gradientUnits="userSpaceOnUse">
<stop stop-color="#5761D7"/>
<stop offset="0.1779" stop-color="#5C66D9"/>
<stop offset="0.3876" stop-color="#6A73DF"/>
<stop offset="0.6134" stop-color="#8289E8"/>
<stop offset="0.849" stop-color="#A3A7F5"/>
<stop offset="1" stop-color="#BCBEFF"/>
</linearGradient>
<linearGradient id="paint26_linear_5323_17681" x1="198.363" y1="205.818" x2="461.46" y2="205.818" gradientUnits="userSpaceOnUse">
<stop stop-color="#C0BFF6"/>
<stop offset="0.2938" stop-color="#C5C4F7"/>
<stop offset="0.6399" stop-color="#D3D2F9"/>
<stop offset="1" stop-color="#E9E9FD"/>
</linearGradient>
<linearGradient id="paint27_linear_5323_17681" x1="242.919" y1="220.753" x2="310.264" y2="220.753" gradientUnits="userSpaceOnUse">
<stop stop-color="#C0BFF6"/>
<stop offset="0.2938" stop-color="#C5C4F7"/>
<stop offset="0.6399" stop-color="#D3D2F9"/>
<stop offset="1" stop-color="#E9E9FD"/>
</linearGradient>
<linearGradient id="paint28_linear_5323_17681" x1="97.8453" y1="147.503" x2="360.943" y2="147.503" gradientUnits="userSpaceOnUse">
<stop stop-color="#C0BFF6"/>
<stop offset="0.2938" stop-color="#C5C4F7"/>
<stop offset="0.6399" stop-color="#D3D2F9"/>
<stop offset="1" stop-color="#E9E9FD"/>
</linearGradient>
<linearGradient id="paint29_linear_5323_17681" x1="80.5281" y1="128.19" x2="147.874" y2="128.19" gradientUnits="userSpaceOnUse">
<stop stop-color="#C0BFF6"/>
<stop offset="0.2938" stop-color="#C5C4F7"/>
<stop offset="0.6399" stop-color="#D3D2F9"/>
<stop offset="1" stop-color="#E9E9FD"/>
</linearGradient>
<linearGradient id="paint30_linear_5323_17681" x1="433.508" y1="403.93" x2="691.897" y2="403.93" gradientUnits="userSpaceOnUse">
<stop stop-color="#5761D7"/>
<stop offset="0.1779" stop-color="#5C66D9"/>
<stop offset="0.3876" stop-color="#6A73DF"/>
<stop offset="0.6134" stop-color="#8289E8"/>
<stop offset="0.849" stop-color="#A3A7F5"/>
<stop offset="1" stop-color="#BCBEFF"/>
</linearGradient>
<linearGradient id="paint31_linear_5323_17681" x1="520.327" y1="395.313" x2="778.855" y2="395.313" gradientUnits="userSpaceOnUse">
<stop stop-color="#C0BFF6"/>
<stop offset="0.2938" stop-color="#C5C4F7"/>
<stop offset="0.6399" stop-color="#D3D2F9"/>
<stop offset="1" stop-color="#E9E9FD"/>
</linearGradient>
<linearGradient id="paint32_linear_5323_17681" x1="503.553" y1="375.42" x2="569.729" y2="375.42" gradientUnits="userSpaceOnUse">
<stop stop-color="#C0BFF6"/>
<stop offset="0.2938" stop-color="#C5C4F7"/>
<stop offset="0.6399" stop-color="#D3D2F9"/>
<stop offset="1" stop-color="#E9E9FD"/>
</linearGradient>
<linearGradient id="paint33_linear_5323_17681" x1="508.728" y1="363.493" x2="691.681" y2="363.493" gradientUnits="userSpaceOnUse">
<stop stop-color="#C0BFF6"/>
<stop offset="0.2938" stop-color="#C5C4F7"/>
<stop offset="0.6399" stop-color="#D3D2F9"/>
<stop offset="1" stop-color="#E9E9FD"/>
</linearGradient>
<linearGradient id="paint34_linear_5323_17681" x1="508.729" y1="410.414" x2="540.143" y2="410.414" gradientUnits="userSpaceOnUse">
<stop stop-color="#5761D7"/>
<stop offset="0.1779" stop-color="#5C66D9"/>
<stop offset="0.3876" stop-color="#6A73DF"/>
<stop offset="0.6134" stop-color="#8289E8"/>
<stop offset="0.849" stop-color="#A3A7F5"/>
<stop offset="1" stop-color="#BCBEFF"/>
</linearGradient>
<linearGradient id="paint35_linear_5323_17681" x1="328.738" y1="283.06" x2="391.572" y2="391.704" gradientUnits="userSpaceOnUse">
<stop stop-color="#42E8E0"/>
<stop offset="0.0185" stop-color="#40DEDA"/>
<stop offset="0.1149" stop-color="#37ADBC"/>
<stop offset="0.2166" stop-color="#2E82A2"/>
<stop offset="0.3219" stop-color="#285E8C"/>
<stop offset="0.4319" stop-color="#A9ACB1"/>
<stop offset="0.5479" stop-color="#A4A4A4"/>
<stop offset="0.6729" stop-color="#B5B5B5"/>
<stop offset="0.813" stop-color="#E2E2E2"/>
<stop offset="1" stop-color="white"/>
</linearGradient>
<linearGradient id="paint36_linear_5323_17681" x1="283.722" y1="302.902" x2="458.538" y2="302.902" gradientUnits="userSpaceOnUse">
<stop stop-color="#5761D7"/>
<stop offset="0.1779" stop-color="#5C66D9"/>
<stop offset="0.3876" stop-color="#6A73DF"/>
<stop offset="0.6134" stop-color="#8289E8"/>
<stop offset="0.849" stop-color="#A3A7F5"/>
<stop offset="1" stop-color="#BCBEFF"/>
</linearGradient>
<radialGradient id="paint37_radial_5323_17681" cx="0" cy="0" r="1" gradientUnits="userSpaceOnUse" gradientTransform="translate(324.806 250.427) scale(83.3906 83.3906)">
<stop stop-color="#2B237C"/>
<stop offset="1" stop-color="#180D5B"/>
</radialGradient>
<linearGradient id="paint38_linear_5323_17681" x1="283.722" y1="276.621" x2="484.665" y2="276.621" gradientUnits="userSpaceOnUse">
<stop stop-color="#5761D7"/>
<stop offset="0.1779" stop-color="#5C66D9"/>
<stop offset="0.3876" stop-color="#6A73DF"/>
<stop offset="0.6134" stop-color="#8289E8"/>
<stop offset="0.849" stop-color="#A3A7F5"/>
<stop offset="1" stop-color="#BCBEFF"/>
</linearGradient>
<linearGradient id="paint39_linear_5323_17681" x1="317.608" y1="322.572" x2="492.425" y2="322.572" gradientUnits="userSpaceOnUse">
<stop stop-color="#C0BFF6"/>
<stop offset="0.2938" stop-color="#C5C4F7"/>
<stop offset="0.6399" stop-color="#D3D2F9"/>
<stop offset="1" stop-color="#E9E9FD"/>
</linearGradient>
<linearGradient id="paint40_linear_5323_17681" x1="374.321" y1="406.083" x2="115.932" y2="406.083" gradientUnits="userSpaceOnUse">
<stop stop-color="#5761D7"/>
<stop offset="0.1779" stop-color="#5C66D9"/>
<stop offset="0.3876" stop-color="#6A73DF"/>
<stop offset="0.6134" stop-color="#8289E8"/>
<stop offset="0.849" stop-color="#A3A7F5"/>
<stop offset="1" stop-color="#BCBEFF"/>
</linearGradient>
<linearGradient id="paint41_linear_5323_17681" x1="287.503" y1="397.468" x2="28.9758" y2="397.468" gradientUnits="userSpaceOnUse">
<stop stop-color="#C0BFF6"/>
<stop offset="0.2938" stop-color="#C5C4F7"/>
<stop offset="0.6399" stop-color="#D3D2F9"/>
<stop offset="1" stop-color="#E9E9FD"/>
</linearGradient>
<linearGradient id="paint42_linear_5323_17681" x1="304.277" y1="377.575" x2="238.101" y2="377.575" gradientUnits="userSpaceOnUse">
<stop stop-color="#C0BFF6"/>
<stop offset="0.2938" stop-color="#C5C4F7"/>
<stop offset="0.6399" stop-color="#D3D2F9"/>
<stop offset="1" stop-color="#E9E9FD"/>
</linearGradient>
<linearGradient id="paint43_linear_5323_17681" x1="299.104" y1="365.65" x2="116.151" y2="365.65" gradientUnits="userSpaceOnUse">
<stop stop-color="#C0BFF6"/>
<stop offset="0.2938" stop-color="#C5C4F7"/>
<stop offset="0.6399" stop-color="#D3D2F9"/>
<stop offset="1" stop-color="#E9E9FD"/>
</linearGradient>
<linearGradient id="paint44_linear_5323_17681" x1="299.101" y1="412.569" x2="267.686" y2="412.569" gradientUnits="userSpaceOnUse">
<stop stop-color="#5761D7"/>
<stop offset="0.1779" stop-color="#5C66D9"/>
<stop offset="0.3876" stop-color="#6A73DF"/>
<stop offset="0.6134" stop-color="#8289E8"/>
<stop offset="0.849" stop-color="#A3A7F5"/>
<stop offset="1" stop-color="#BCBEFF"/>
</linearGradient>
</defs>
</svg>
