<svg width="40" height="40" viewBox="0 0 40 40" fill="none" xmlns="http://www.w3.org/2000/svg">
<g clip-path="url(#clip0_5185_5589)">
<path d="M2.00093 21.3327C2.26361 21.3331 2.52378 21.2817 2.76654 21.1813C3.0093 21.081 3.22987 20.9338 3.4156 20.748L6.6676 17.502L8.3096 19.1453C8.61916 19.4552 8.98675 19.7009 9.39135 19.8686C9.79595 20.0363 10.2296 20.1226 10.6676 20.1226C11.1056 20.1226 11.5392 20.0363 11.9438 19.8686C12.3484 19.7009 12.716 19.4552 13.0256 19.1453L22.8069 9.36068L25.7816 12.3367C26.4074 12.9615 27.2556 13.3124 28.1399 13.3124C29.0243 13.3124 29.8724 12.9615 30.4983 12.3367L36.4529 6.37401L36.9476 6.86868C37.1633 7.08419 37.4364 7.2333 37.7343 7.29832C38.0322 7.36334 38.3425 7.34153 38.6284 7.23549C38.9144 7.12945 39.1639 6.94363 39.3473 6.70006C39.5308 6.45649 39.6406 6.16541 39.6636 5.86134L39.9969 1.56734V1.56068C40.0112 1.3526 39.9808 1.14387 39.9076 0.94854C39.8345 0.75321 39.7204 0.575806 39.573 0.428262C39.4256 0.280718 39.2483 0.166455 39.053 0.093161C38.8577 0.0198667 38.649 -0.0107594 38.4409 0.00334277L34.1429 0.336676C33.839 0.358414 33.5477 0.467104 33.3038 0.649789C33.0599 0.832473 32.8737 1.08144 32.7674 1.36701C32.6611 1.65258 32.6392 1.9627 32.7042 2.2604C32.7693 2.55809 32.9185 2.8308 33.1343 3.04601L33.6289 3.54201L28.1389 9.03468L25.1649 6.05868C24.8554 5.74885 24.4878 5.50308 24.0832 5.33539C23.6786 5.1677 23.2449 5.08139 22.8069 5.08139C22.369 5.08139 21.9353 5.1677 21.5307 5.33539C21.1261 5.50308 20.7585 5.74885 20.4489 6.05868L10.6676 15.844L9.02693 14.1993C8.40118 13.5744 7.55297 13.2234 6.6686 13.2234C5.78423 13.2234 4.93601 13.5744 4.31026 14.1993L0.593598 17.926C0.314291 18.2047 0.123911 18.56 0.0465395 18.9469C-0.0308319 19.3338 0.00828097 19.7349 0.158931 20.0996C0.309581 20.4643 0.564999 20.7761 0.892879 20.9956C1.22076 21.2151 1.60637 21.3324 2.00093 21.3327ZM1.53426 18.866L5.2536 15.1387C5.43934 14.9527 5.65992 14.8052 5.90272 14.7046C6.14551 14.6039 6.40577 14.5521 6.6686 14.5521C6.93143 14.5521 7.19168 14.6039 7.43448 14.7046C7.67727 14.8052 7.89785 14.9527 8.0836 15.1387L10.1963 17.2527C10.2582 17.3147 10.3317 17.3638 10.4126 17.3974C10.4936 17.4309 10.5803 17.4482 10.6679 17.4482C10.7555 17.4482 10.8423 17.4309 10.9232 17.3974C11.0042 17.3638 11.0777 17.3147 11.1396 17.2527L21.3916 6.99934C21.7728 6.63511 22.2797 6.43185 22.8069 6.43185C23.3342 6.43185 23.8411 6.63511 24.2223 6.99934L27.1969 9.97534C27.4509 10.2179 27.7887 10.3533 28.1399 10.3533C28.4912 10.3533 28.8289 10.2179 29.0829 9.97534L35.0436 4.01134C35.1684 3.88635 35.2385 3.71696 35.2385 3.54034C35.2385 3.36373 35.1684 3.19433 35.0436 3.06934L34.0749 2.10068C34.0392 2.06749 34.0144 2.02413 34.0041 1.97645C33.9937 1.92877 33.9982 1.87906 34.0169 1.83401C34.0334 1.78611 34.0638 1.74428 34.1044 1.71395C34.1449 1.68363 34.1937 1.66623 34.2443 1.66401L38.5396 1.33268C38.5729 1.33134 38.6063 1.34401 38.6289 1.36868C38.6556 1.39401 38.6689 1.42934 38.6676 1.46601L38.3343 5.75934C38.3307 5.80914 38.3129 5.85687 38.283 5.89685C38.2531 5.93683 38.2123 5.96738 38.1656 5.98487C38.1188 6.00235 38.068 6.00604 38.0192 5.99548C37.9704 5.98493 37.9256 5.96059 37.8903 5.92534L36.9243 4.95801C36.7968 4.83752 36.628 4.77038 36.4526 4.77038C36.2772 4.77038 36.1084 4.83752 35.9809 4.95801L29.5549 11.3933C29.1734 11.7566 28.6668 11.9592 28.1399 11.9592C27.6131 11.9592 27.1065 11.7566 26.7249 11.3933L23.7503 8.41734C23.6267 8.29297 23.4797 8.19434 23.3178 8.12716C23.1559 8.05999 22.9822 8.02561 22.8069 8.02601C22.4536 8.02601 22.1143 8.16601 21.8649 8.41668L12.0836 18.2027C11.7023 18.5668 11.1954 18.7699 10.6683 18.7699C10.1411 18.7699 9.63419 18.5668 9.25293 18.2027L7.61093 16.5593C7.36092 16.3096 7.02199 16.1693 6.6686 16.1693C6.31521 16.1693 5.97627 16.3096 5.72626 16.5593L2.47093 19.8093C2.34535 19.9322 2.17664 20.001 2.00093 20.001C1.82523 20.001 1.65651 19.9322 1.53093 19.8093C1.46852 19.7487 1.4189 19.6762 1.38502 19.596C1.35114 19.5158 1.33368 19.4297 1.33368 19.3427C1.33368 19.2557 1.35114 19.1695 1.38502 19.0894C1.4189 19.0092 1.46852 18.9367 1.53093 18.876L1.53426 18.866ZM26.6676 25.3327C26.6697 24.1949 26.3806 23.0755 25.8278 22.081C25.275 21.0866 24.4768 20.2502 23.5093 19.6514C22.5418 19.0526 21.4372 18.7114 20.3006 18.6603C19.1639 18.6092 18.0331 18.8498 17.0158 19.3592C15.9984 19.8687 15.1284 20.6301 14.4885 21.5709C13.8486 22.5117 13.4602 23.6006 13.3601 24.734C13.26 25.8673 13.4517 27.0075 13.9169 28.0458C14.3821 29.0842 15.1052 29.9862 16.0176 30.666H16.0009C15.6141 30.6643 15.2352 30.7753 14.9104 30.9854C14.5856 31.1955 14.3291 31.4957 14.1721 31.8492C14.0151 32.2028 13.9645 32.5944 14.0265 32.9762C14.0884 33.358 14.2602 33.7136 14.5209 33.9993C14.1865 34.3629 14.0009 34.8387 14.0009 35.3327C14.0009 35.8266 14.1865 36.3025 14.5209 36.666C14.2602 36.9518 14.0884 37.3073 14.0265 37.6891C13.9645 38.071 14.0151 38.4626 14.1721 38.8161C14.3291 39.1697 14.5856 39.4698 14.9104 39.6799C15.2352 39.8901 15.6141 40.0011 16.0009 39.9993H24.0009C24.3877 40.0011 24.7667 39.8901 25.0915 39.6799C25.4162 39.4698 25.6728 39.1697 25.8297 38.8161C25.9867 38.4626 26.0373 38.071 25.9754 37.6891C25.9134 37.3073 25.7416 36.9518 25.4809 36.666C25.8153 36.3025 26.001 35.8266 26.001 35.3327C26.001 34.8387 25.8153 34.3629 25.4809 33.9993C25.7416 33.7136 25.9134 33.358 25.9754 32.9762C26.0373 32.5944 25.9867 32.2028 25.8297 31.8492C25.6728 31.4957 25.4162 31.1955 25.0915 30.9854C24.7667 30.7753 24.3877 30.6643 24.0009 30.666H23.9843C24.816 30.0474 25.4917 29.2431 25.9576 28.3172C26.4235 27.3912 26.6666 26.3692 26.6676 25.3327ZM24.6676 35.3327C24.6676 35.5095 24.5974 35.6791 24.4723 35.8041C24.3473 35.9291 24.1777 35.9993 24.0009 35.9993H16.0009C15.8241 35.9993 15.6546 35.9291 15.5295 35.8041C15.4045 35.6791 15.3343 35.5095 15.3343 35.3327C15.3343 35.1559 15.4045 34.9863 15.5295 34.8613C15.6546 34.7362 15.8241 34.666 16.0009 34.666H24.0009C24.1777 34.666 24.3473 34.7362 24.4723 34.8613C24.5974 34.9863 24.6676 35.1559 24.6676 35.3327ZM24.0009 38.666H16.0009C15.8241 38.666 15.6546 38.5958 15.5295 38.4707C15.4045 38.3457 15.3343 38.1762 15.3343 37.9993C15.3343 37.8225 15.4045 37.653 15.5295 37.5279C15.6546 37.4029 15.8241 37.3327 16.0009 37.3327H24.0009C24.1777 37.3327 24.3473 37.4029 24.4723 37.5279C24.5974 37.653 24.6676 37.8225 24.6676 37.9993C24.6676 38.1762 24.5974 38.3457 24.4723 38.4707C24.3473 38.5958 24.1777 38.666 24.0009 38.666ZM24.0009 31.9993C24.1777 31.9993 24.3473 32.0696 24.4723 32.1946C24.5974 32.3196 24.6676 32.4892 24.6676 32.666C24.6676 32.8428 24.5974 33.0124 24.4723 33.1374C24.3473 33.2624 24.1777 33.3327 24.0009 33.3327H16.0009C15.8241 33.3327 15.6546 33.2624 15.5295 33.1374C15.4045 33.0124 15.3343 32.8428 15.3343 32.666C15.3343 32.4892 15.4045 32.3196 15.5295 32.1946C15.6546 32.0696 15.8241 31.9993 16.0009 31.9993H24.0009ZM14.6676 25.3327C14.6676 24.2778 14.9804 23.2467 15.5664 22.3696C16.1525 21.4926 16.9854 20.809 17.96 20.4053C18.9345 20.0017 20.0068 19.896 21.0414 20.1018C22.076 20.3076 23.0263 20.8156 23.7722 21.5614C24.518 22.3073 25.026 23.2576 25.2318 24.2922C25.4376 25.3268 25.332 26.3991 24.9283 27.3737C24.5246 28.3482 23.841 29.1811 22.964 29.7672C22.0869 30.3532 21.0558 30.666 20.0009 30.666C18.5869 30.6644 17.2313 30.102 16.2314 29.1022C15.2316 28.1023 14.6692 26.7467 14.6676 25.3327Z" fill="currentColor"/>
<path fill-rule="evenodd" clip-rule="evenodd" d="M19.9991 24.6654C19.8821 24.6653 19.7672 24.6344 19.6659 24.5758C19.5647 24.5172 19.4806 24.433 19.4222 24.3316C19.3638 24.2302 19.333 24.1153 19.3331 23.9983C19.3332 23.8813 19.364 23.7664 19.4226 23.6651C19.4811 23.5638 19.5653 23.4797 19.6666 23.4212C19.768 23.3628 19.8829 23.332 19.9999 23.332C20.1169 23.3321 20.2319 23.3629 20.3332 23.4214C20.4345 23.4799 20.5186 23.564 20.5771 23.6654C20.6194 23.7439 20.677 23.8132 20.7466 23.8691C20.8162 23.925 20.8963 23.9664 20.9821 23.9908C21.068 24.0151 21.1578 24.022 21.2464 24.011C21.3349 24 21.4204 23.9713 21.4977 23.9267C21.5749 23.8821 21.6425 23.8224 21.6962 23.7511C21.75 23.6799 21.7889 23.5986 21.8107 23.5121C21.8325 23.4255 21.8366 23.3355 21.823 23.2473C21.8093 23.1591 21.7781 23.0746 21.7311 22.9987C21.4894 22.5931 21.1121 22.2861 20.6658 22.132V21.9987C20.6658 21.8219 20.5955 21.6523 20.4705 21.5273C20.3455 21.4023 20.1759 21.332 19.9991 21.332C19.8223 21.332 19.6527 21.4023 19.5277 21.5273C19.4027 21.6523 19.3325 21.8219 19.3325 21.9987V22.1214C18.888 22.2779 18.5133 22.5867 18.2747 22.9931C18.0361 23.3994 17.949 23.8771 18.0289 24.3415C18.1087 24.8059 18.3503 25.227 18.711 25.5304C19.0716 25.8337 19.5279 25.9996 19.9991 25.9987C20.1161 25.9988 20.231 26.0297 20.3323 26.0883C20.4336 26.1469 20.5176 26.2311 20.5761 26.3325C20.6345 26.4338 20.6652 26.5488 20.6651 26.6658C20.6651 26.7828 20.6342 26.8977 20.5757 26.999C20.5171 27.1003 20.4329 27.1844 20.3316 27.2428C20.2302 27.3013 20.1153 27.3321 19.9983 27.332C19.8813 27.332 19.7664 27.3012 19.6651 27.2427C19.5638 27.1842 19.4796 27.1 19.4211 26.9987C19.3299 26.8513 19.1849 26.7452 19.0168 26.7029C18.8487 26.6606 18.6708 26.6855 18.5207 26.7722C18.3706 26.8589 18.2602 27.0006 18.2129 27.1674C18.1655 27.3341 18.185 27.5127 18.2671 27.6654C18.5091 28.0712 18.887 28.3782 19.3338 28.532V28.6654C19.3338 28.8422 19.404 29.0117 19.529 29.1368C19.6541 29.2618 19.8236 29.332 20.0005 29.332C20.1773 29.332 20.3468 29.2618 20.4719 29.1368C20.5969 29.0117 20.6671 28.8422 20.6671 28.6654V28.5427C21.1117 28.3861 21.4865 28.0772 21.7251 27.6707C21.9636 27.2642 22.0506 26.7864 21.9706 26.3219C21.8906 25.8574 21.6487 25.4363 21.2879 25.133C20.927 24.8298 20.4705 24.6642 19.9991 24.6654Z" fill="currentColor"/>
<path d="M33.334 13.332C31.9338 13.3305 30.5687 13.7704 29.4329 14.5892C28.297 15.408 27.4482 16.564 27.007 17.8929C26.5659 19.2219 26.5549 20.656 26.9757 21.9916C27.3964 23.3271 28.2275 24.496 29.3507 25.332H29.334C28.9472 25.3303 28.5683 25.4413 28.2435 25.6514C27.9187 25.8616 27.6622 26.1617 27.5052 26.5153C27.3483 26.8688 27.2977 27.2604 27.3596 27.6422C27.4215 28.0241 27.5934 28.3796 27.854 28.6654C27.5196 29.0289 27.334 29.5048 27.334 29.9987C27.334 30.4926 27.5196 30.9685 27.854 31.332C27.5196 31.6955 27.334 32.1714 27.334 32.6654C27.334 33.1593 27.5196 33.6352 27.854 33.9987C27.5196 34.3622 27.334 34.8381 27.334 35.332C27.334 35.826 27.5196 36.3019 27.854 36.6654C27.5934 36.9512 27.4215 37.3067 27.3596 37.6885C27.2977 38.0703 27.3483 38.4619 27.5052 38.8155C27.6622 39.169 27.9187 39.4692 28.2435 39.6793C28.5683 39.8894 28.9472 40.0004 29.334 39.9987H37.334C37.7209 40.0004 38.0998 39.8894 38.4246 39.6793C38.7493 39.4692 39.0059 39.169 39.1629 38.8155C39.3198 38.4619 39.3704 38.0703 39.3085 37.6885C39.2465 37.3067 39.0747 36.9512 38.814 36.6654C39.1485 36.3019 39.3341 35.826 39.3341 35.332C39.3341 34.8381 39.1485 34.3622 38.814 33.9987C39.1485 33.6352 39.3341 33.1593 39.3341 32.6654C39.3341 32.1714 39.1485 31.6955 38.814 31.332C39.1485 30.9685 39.3341 30.4926 39.3341 29.9987C39.3341 29.5048 39.1485 29.0289 38.814 28.6654C39.0747 28.3796 39.2465 28.0241 39.3085 27.6422C39.3704 27.2604 39.3198 26.8688 39.1629 26.5153C39.0059 26.1617 38.7493 25.8616 38.4246 25.6514C38.0998 25.4413 37.7209 25.3303 37.334 25.332H37.3167C38.4403 24.4962 39.2717 23.3274 39.6928 21.9918C40.1138 20.6562 40.103 19.2219 39.6619 17.8928C39.2208 16.5637 38.3718 15.4076 37.2358 14.5888C36.0997 13.7699 34.7344 13.3302 33.334 13.332ZM38.0007 29.9987C38.0007 30.1755 37.9305 30.3451 37.8055 30.4701C37.6804 30.5951 37.5109 30.6654 37.334 30.6654H29.334C29.1572 30.6654 28.9877 30.5951 28.8626 30.4701C28.7376 30.3451 28.6674 30.1755 28.6674 29.9987C28.6674 29.8219 28.7376 29.6523 28.8626 29.5273C28.9877 29.4023 29.1572 29.332 29.334 29.332H37.334C37.5109 29.332 37.6804 29.4023 37.8055 29.5273C37.9305 29.6523 38.0007 29.8219 38.0007 29.9987ZM38.0007 32.6654C38.0007 32.8422 37.9305 33.0118 37.8055 33.1368C37.6804 33.2618 37.5109 33.332 37.334 33.332H29.334C29.1572 33.332 28.9877 33.2618 28.8626 33.1368C28.7376 33.0118 28.6674 32.8422 28.6674 32.6654C28.6674 32.4886 28.7376 32.319 28.8626 32.194C28.9877 32.0689 29.1572 31.9987 29.334 31.9987H37.334C37.5109 31.9987 37.6804 32.0689 37.8055 32.194C37.9305 32.319 38.0007 32.4886 38.0007 32.6654ZM38.0007 35.332C38.0007 35.5088 37.9305 35.6784 37.8055 35.8034C37.6804 35.9285 37.5109 35.9987 37.334 35.9987H29.334C29.1572 35.9987 28.9877 35.9285 28.8626 35.8034C28.7376 35.6784 28.6674 35.5088 28.6674 35.332C28.6674 35.1552 28.7376 34.9857 28.8626 34.8606C28.9877 34.7356 29.1572 34.6654 29.334 34.6654H37.334C37.5109 34.6654 37.6804 34.7356 37.8055 34.8606C37.9305 34.9857 38.0007 35.1552 38.0007 35.332ZM37.334 38.6654H29.334C29.1572 38.6654 28.9877 38.5951 28.8626 38.4701C28.7376 38.3451 28.6674 38.1755 28.6674 37.9987C28.6674 37.8219 28.7376 37.6523 28.8626 37.5273C28.9877 37.4023 29.1572 37.332 29.334 37.332H37.334C37.5109 37.332 37.6804 37.4023 37.8055 37.5273C37.9305 37.6523 38.0007 37.8219 38.0007 37.9987C38.0007 38.1755 37.9305 38.3451 37.8055 38.4701C37.6804 38.5951 37.5109 38.6654 37.334 38.6654ZM37.334 26.6654C37.5109 26.6654 37.6804 26.7356 37.8055 26.8606C37.9305 26.9857 38.0007 27.1552 38.0007 27.332C38.0007 27.5088 37.9305 27.6784 37.8055 27.8034C37.6804 27.9285 37.5109 27.9987 37.334 27.9987H29.334C29.1572 27.9987 28.9877 27.9285 28.8626 27.8034C28.7376 27.6784 28.6674 27.5088 28.6674 27.332C28.6674 27.1552 28.7376 26.9857 28.8626 26.8606C28.9877 26.7356 29.1572 26.6654 29.334 26.6654H37.334ZM33.334 25.332C32.2792 25.332 31.2481 25.0192 30.371 24.4332C29.4939 23.8472 28.8104 23.0142 28.4067 22.0397C28.003 21.0651 27.8974 19.9928 28.1032 18.9582C28.309 17.9237 28.8169 16.9733 29.5628 16.2275C30.3087 15.4816 31.259 14.9736 32.2936 14.7678C33.3281 14.5621 34.4005 14.6677 35.375 15.0713C36.3496 15.475 37.1825 16.1586 37.7686 17.0357C38.3546 17.9127 38.6674 18.9439 38.6674 19.9987C38.6658 21.4127 38.1034 22.7683 37.1035 23.7682C36.1037 24.768 34.748 25.3305 33.334 25.332Z" fill="currentColor"/>
<path fill-rule="evenodd" clip-rule="evenodd" d="M33.3331 19.3333C33.2161 19.3332 33.1012 19.3023 32.9999 19.2437C32.8987 19.1851 32.8146 19.1009 32.7562 18.9996C32.6977 18.8982 32.667 18.7833 32.6671 18.6663C32.6672 18.5493 32.698 18.4343 32.7566 18.3331C32.8151 18.2318 32.8993 18.1477 33.0006 18.0892C33.102 18.0307 33.2169 18 33.3339 18C33.4509 18 33.5658 18.0308 33.6672 18.0894C33.7685 18.1479 33.8526 18.232 33.9111 18.3333C34.0023 18.4807 34.1473 18.5868 34.3154 18.6291C34.4835 18.6714 34.6614 18.6466 34.8115 18.5599C34.9616 18.4731 35.072 18.3314 35.1194 18.1647C35.1667 17.9979 35.1472 17.8193 35.0651 17.6667C34.8237 17.2608 34.4462 16.9537 33.9998 16.8V16.6667C33.9998 16.4899 33.9295 16.3203 33.8045 16.1953C33.6795 16.0702 33.5099 16 33.3331 16C33.1563 16 32.9867 16.0702 32.8617 16.1953C32.7367 16.3203 32.6664 16.4899 32.6664 16.6667V16.7893C32.222 16.9459 31.8473 17.2547 31.6087 17.661C31.3701 18.0674 31.283 18.545 31.3628 19.0095C31.4427 19.4739 31.6843 19.895 32.0449 20.1983C32.4056 20.5017 32.8619 20.6676 33.3331 20.6667C33.4501 20.6668 33.565 20.6977 33.6663 20.7563C33.7676 20.8149 33.8516 20.8991 33.91 21.0004C33.9685 21.1018 33.9992 21.2167 33.9991 21.3337C33.999 21.4507 33.9682 21.5657 33.9096 21.6669C33.8511 21.7682 33.7669 21.8523 33.6656 21.9108C33.5642 21.9693 33.4493 22 33.3323 22C33.2153 22 33.1004 21.9692 32.999 21.9106C32.8977 21.8521 32.8136 21.768 32.7551 21.6667C32.6639 21.5193 32.5189 21.4132 32.3508 21.3709C32.1827 21.3286 32.0048 21.3534 31.8547 21.4402C31.7046 21.5269 31.5942 21.6686 31.5468 21.8353C31.4995 22.0021 31.519 22.1807 31.6011 22.3333C31.8431 22.74 32.2211 23.0467 32.6678 23.2V23.3333C32.6678 23.5101 32.738 23.6797 32.863 23.8047C32.9881 23.9298 33.1576 24 33.3344 24C33.5112 24 33.6808 23.9298 33.8058 23.8047C33.9309 23.6797 34.0011 23.5101 34.0011 23.3333V23.2107C34.4457 23.0541 34.8204 22.7452 35.059 22.3387C35.2976 21.9322 35.3846 21.4544 35.3046 20.9899C35.2246 20.5254 34.9827 20.1042 34.6218 19.801C34.261 19.4978 33.8044 19.3321 33.3331 19.3333Z" fill="currentColor"/>
<path d="M2.68333 36.0007H2.66667C2.13623 36.0007 1.62753 36.2115 1.25245 36.5865C0.87738 36.9616 0.666667 37.4703 0.666667 38.0007C0.666667 38.5312 0.87738 39.0399 1.25245 39.415C1.62753 39.79 2.13623 40.0007 2.66667 40.0007H10.6667C11.1971 40.0007 11.7058 39.79 12.0809 39.415C12.456 39.0399 12.6667 38.5312 12.6667 38.0007C12.6667 37.4703 12.456 36.9616 12.0809 36.5865C11.7058 36.2115 11.1971 36.0007 10.6667 36.0007H10.65C11.7734 35.1636 12.6046 33.9939 13.0254 32.6576C13.4463 31.3213 13.4355 29.8864 12.9945 28.5566C12.5535 27.2268 11.7049 26.0698 10.569 25.2497C9.43305 24.4296 8.06766 23.9883 6.66667 23.9883C5.26567 23.9883 3.90028 24.4296 2.76438 25.2497C1.62847 26.0698 0.779787 27.2268 0.338829 28.5566C-0.102129 29.8864 -0.112946 31.3213 0.307914 32.6576C0.728774 33.9939 1.55992 35.1636 2.68333 36.0007ZM10.6667 37.3341C10.8435 37.3341 11.013 37.4043 11.1381 37.5293C11.2631 37.6544 11.3333 37.8239 11.3333 38.0007C11.3333 38.1776 11.2631 38.3471 11.1381 38.4721C11.013 38.5972 10.8435 38.6674 10.6667 38.6674H2.66667C2.48986 38.6674 2.32029 38.5972 2.19526 38.4721C2.07024 38.3471 2 38.1776 2 38.0007C2 37.8239 2.07024 37.6544 2.19526 37.5293C2.32029 37.4043 2.48986 37.3341 2.66667 37.3341H10.6667ZM6.66667 25.3341C7.7215 25.3341 8.75265 25.6469 9.62971 26.2329C10.5068 26.8189 11.1904 27.6519 11.594 28.6264C11.9977 29.601 12.1033 30.6733 11.8975 31.7079C11.6917 32.7425 11.1838 33.6928 10.4379 34.4386C9.69202 35.1845 8.74171 35.6925 7.70715 35.8983C6.67258 36.1041 5.60023 35.9984 4.62569 35.5948C3.65115 35.1911 2.8182 34.5075 2.23216 33.6304C1.64613 32.7534 1.33333 31.7222 1.33333 30.6674C1.33492 29.2534 1.89733 27.8978 2.89718 26.8979C3.89703 25.8981 5.25267 25.3357 6.66667 25.3341Z" fill="currentColor"/>
<path fill-rule="evenodd" clip-rule="evenodd" d="M6.66709 31.3307C6.78408 31.3308 6.89899 31.3617 7.00026 31.4203C7.10154 31.4789 7.18561 31.5631 7.24403 31.6645C7.30245 31.7659 7.33318 31.8808 7.3331 31.9978C7.33303 32.1148 7.30217 32.2297 7.24363 32.331C7.18508 32.4323 7.1009 32.5164 6.99956 32.5749C6.89822 32.6333 6.78327 32.6641 6.66628 32.6641C6.54928 32.664 6.43435 32.6332 6.33303 32.5747C6.23172 32.5162 6.14759 32.4321 6.08909 32.3307C6.0468 32.2521 5.98916 32.1829 5.91959 32.127C5.85003 32.0711 5.76995 32.0297 5.6841 32.0053C5.59825 31.981 5.50838 31.9741 5.41982 31.9851C5.33126 31.9961 5.24582 32.0247 5.16854 32.0694C5.09127 32.114 5.02375 32.1737 4.96997 32.2449C4.9162 32.3162 4.87728 32.3975 4.85551 32.484C4.83373 32.5706 4.82956 32.6606 4.84323 32.7488C4.8569 32.837 4.88814 32.9215 4.93509 32.9974C5.1771 33.4032 5.55498 33.7102 6.00175 33.8641V33.9974C6.00175 34.1742 6.07199 34.3438 6.19702 34.4688C6.32204 34.5938 6.49161 34.6641 6.66842 34.6641C6.84523 34.6641 7.0148 34.5938 7.13982 34.4688C7.26485 34.3438 7.33509 34.1742 7.33509 33.9974V33.8747C7.77965 33.7181 8.15443 33.4092 8.39302 33.0028C8.63161 32.5963 8.7186 32.1184 8.63857 31.654C8.55855 31.1895 8.31668 30.7683 7.95582 30.4651C7.59496 30.1619 7.13842 29.9962 6.66709 29.9974C6.55009 29.9973 6.43518 29.9664 6.33391 29.9078C6.23264 29.8492 6.14857 29.765 6.09014 29.6636C6.03172 29.5623 6.001 29.4473 6.00107 29.3303C6.00114 29.2133 6.032 29.0984 6.09055 28.9971C6.1491 28.8958 6.23327 28.8117 6.33461 28.7533C6.43596 28.6948 6.5509 28.664 6.6679 28.6641C6.7849 28.6641 6.89982 28.6949 7.00114 28.7534C7.10246 28.8119 7.18659 28.8961 7.24509 28.9974C7.28738 29.076 7.34501 29.1453 7.41458 29.2012C7.48415 29.2571 7.56423 29.2984 7.65008 29.3228C7.73592 29.3472 7.82579 29.3541 7.91435 29.3431C8.00291 29.332 8.08836 29.3034 8.16563 29.2587C8.2429 29.2141 8.31043 29.1544 8.3642 29.0832C8.41797 29.012 8.4569 28.9307 8.47867 28.8441C8.50044 28.7576 8.50461 28.6675 8.49094 28.5794C8.47727 28.4912 8.44604 28.4066 8.39909 28.3307C8.1574 27.9252 7.78003 27.6182 7.33375 27.4641V27.3307C7.33375 27.1539 7.26352 26.9843 7.13849 26.8593C7.01347 26.7343 6.8439 26.6641 6.66709 26.6641C6.49028 26.6641 6.32071 26.7343 6.19568 26.8593C6.07066 26.9843 6.00042 27.1539 6.00042 27.3307V27.4534C5.55597 27.6099 5.18126 27.9187 4.94266 28.3251C4.70406 28.7314 4.61698 29.2091 4.69683 29.6735C4.77668 30.1379 5.01831 30.5591 5.37893 30.8624C5.73954 31.1657 6.19587 31.3316 6.66709 31.3307Z" fill="currentColor"/>
</g>
<defs>
<clipPath id="clip0_5185_5589">
<rect width="40" height="40" fill="currentColor"/>
</clipPath>
</defs>
</svg>
