<svg width="292" height="40" viewBox="0 0 292 40" fill="none" xmlns="http://www.w3.org/2000/svg">
<path d="M23.3124 11.5512L16.238 0L0 28.0665L6.97948 39.9995L23.3124 11.5512Z" fill="white"/>
<path d="M43.2943 11.5512L36.2199 0L19.9819 28.0665L26.9614 39.9995L43.2943 11.5512Z" fill="white"/>
<path d="M46.7732 16.2168L53.8407 28.1567L46.7732 40.0003L39.4092 28.1567L46.7732 16.2168Z" fill="#FFDB5B"/>
<path d="M64.9966 37.7172V2.22656H70.7142L82.1494 30.1871L93.5846 2.22656H99.3021V37.7172H94.7281V11.0992L83.7142 37.7172H80.5244L69.5707 11.0992V37.7172H64.9966Z" fill="white"/>
<path d="M104.1 24.4082C104.1 20.2443 105.143 16.917 107.229 14.4265C109.316 11.9359 112.084 10.6906 115.535 10.6906C118.986 10.6906 121.754 11.9359 123.841 14.4265C125.927 16.917 126.97 20.2443 126.97 24.4082V25.7508H108.192C108.192 28.4359 108.854 30.5763 110.179 32.1718C111.543 33.8062 113.328 34.6235 115.535 34.6235C117.461 34.6235 119.046 34.137 120.29 33.1641C121.534 32.1913 122.236 30.9071 122.396 29.3115H126.489C126.248 31.9967 125.125 34.137 123.118 35.7325C121.152 37.3281 118.625 38.1258 115.535 38.1258C112.084 38.1258 109.316 36.8805 107.229 34.39C105.143 31.8994 104.1 28.5721 104.1 24.4082ZM108.192 22.1901H122.817C122.617 19.7773 121.854 17.851 120.53 16.4111C119.206 14.9713 117.541 14.2514 115.535 14.2514C113.529 14.2514 111.864 14.9713 110.54 16.4111C109.175 17.851 108.393 19.7773 108.192 22.1901Z" fill="white"/>
<path d="M132.435 11.5662V3.97775H136.528V11.5662H140.68V15.1269H136.528V31.9967C136.528 32.4637 136.708 32.8723 137.069 33.2225C137.43 33.5727 137.852 33.7479 138.333 33.7479H140.68V37.7172H137.009C135.765 37.7172 134.682 37.2891 133.759 36.433C132.876 35.538 132.435 34.4872 132.435 33.2809V15.1269H128.764V11.5662H132.435Z" fill="white"/>
<path d="M144.72 37.7172V11.5662H148.813V16.1777C149.414 14.5821 150.498 13.3368 152.063 12.4418C153.547 11.5468 155.212 11.0992 157.058 11.0992H158.863V15.1269H157.058C154.731 15.1269 152.765 16.022 151.16 17.8121C149.595 19.5244 148.813 21.5869 148.813 23.9996V37.7172H144.72Z" fill="white"/>
<path d="M162.415 37.7172V11.0992H166.508V37.7172H162.415ZM162.415 6.25428V2.22656H166.508V6.25428H162.415Z" fill="white"/>
<path d="M171.272 24.4082C171.272 20.2443 172.356 16.917 174.522 14.4265C176.689 11.9359 179.578 10.6906 183.189 10.6906C186.359 10.6906 188.987 11.5857 191.073 13.3758C193.119 15.1269 194.283 17.4813 194.564 20.4389H190.471C190.311 18.5709 189.569 17.0727 188.244 15.9442C186.92 14.8156 185.235 14.2514 183.189 14.2514C180.822 14.2514 178.936 15.1853 177.532 17.0532C176.087 18.8823 175.365 21.3339 175.365 24.4082C175.365 27.4825 176.087 29.9536 177.532 31.8216C178.936 33.6895 180.822 34.6235 183.189 34.6235C185.195 34.6235 186.86 34.0203 188.184 32.8139C189.508 31.6075 190.271 29.9925 190.471 27.969H194.564C194.283 31.0433 193.099 33.4949 191.013 35.3239C188.967 37.1919 186.359 38.1258 183.189 38.1258C179.578 38.1258 176.689 36.8805 174.522 34.39C172.356 31.8994 171.272 28.5721 171.272 24.4082Z" fill="white"/>
<path d="M196.319 11.5662H200.411L206.791 32.4053L212.749 11.5662H216.421L222.8 32.4053L228.759 11.5662H232.911L224.666 37.7172H220.092L214.615 17.7537L209.078 37.7172H204.504L196.319 11.5662Z" fill="white"/>
<path d="M236.603 37.7172V11.0992H240.695V37.7172H236.603ZM236.603 6.25428V2.22656H240.695V6.25428H236.603Z" fill="white"/>
<path d="M245.039 27.969H249.131C249.131 29.8369 249.713 31.3351 250.877 32.4637C252.04 33.5922 253.585 34.1565 255.511 34.1565C257.477 34.1565 259.042 33.8062 260.205 33.1058C261.369 32.4053 261.951 31.4908 261.951 30.3622C261.951 28.8056 261.128 27.5798 259.483 26.6848C258.119 25.9454 256.353 25.4784 254.187 25.2838C251.9 25.0892 249.974 24.272 248.409 22.8322C246.764 21.3534 245.941 19.5827 245.941 17.5202C245.941 15.3021 246.784 13.5314 248.469 12.2083C250.114 10.8852 252.321 10.2236 255.09 10.2236C258.139 10.2236 260.566 11.0409 262.372 12.6753C264.218 14.2708 265.14 16.4111 265.14 19.0963H261.048C261.048 17.5008 260.506 16.2166 259.423 15.2437C258.34 14.2708 256.895 13.7844 255.09 13.7844C253.565 13.7844 252.341 14.1152 251.418 14.7767C250.495 15.4772 250.034 16.3917 250.034 17.5202C250.034 18.8823 250.776 19.9135 252.261 20.614C253.384 21.1977 254.949 21.5674 256.955 21.7231C259.443 21.9176 261.569 22.7349 263.335 24.1747C265.181 25.6924 266.103 27.5409 266.103 29.7201C266.103 32.1329 265.181 34.0592 263.335 35.499C261.489 36.9389 259.042 37.6588 255.992 37.6588C252.662 37.6588 250.014 36.7832 248.048 35.0321C246.042 33.242 245.039 30.8876 245.039 27.969Z" fill="white"/>
<path d="M269.13 24.4082C269.13 20.2443 270.173 16.917 272.259 14.4265C274.346 11.9359 277.114 10.6906 280.565 10.6906C284.015 10.6906 286.784 11.9359 288.87 14.4265C290.957 16.917 292 20.2443 292 24.4082V25.7508H273.222C273.222 28.4359 273.884 30.5763 275.208 32.1718C276.572 33.8062 278.358 34.6235 280.565 34.6235C282.491 34.6235 284.076 34.137 285.319 33.1641C286.563 32.1913 287.265 30.9071 287.426 29.3115H291.518C291.278 31.9967 290.154 34.137 288.148 35.7325C286.182 37.3281 283.654 38.1258 280.565 38.1258C277.114 38.1258 274.346 36.8805 272.259 34.39C270.173 31.8994 269.13 28.5721 269.13 24.4082ZM273.222 22.1901H287.847C287.647 19.7773 286.884 17.851 285.56 16.4111C284.236 14.9713 282.571 14.2514 280.565 14.2514C278.559 14.2514 276.893 14.9713 275.569 16.4111C274.205 17.851 273.423 19.7773 273.222 22.1901Z" fill="white"/>
</svg>
