<svg width="234" height="32" viewBox="0 0 234 32" fill="none" xmlns="http://www.w3.org/2000/svg">
<path d="M18.6499 9.24094L12.9904 0L0 22.4532L5.58358 31.9996L18.6499 9.24094Z" fill="black"/>
<path d="M34.6353 9.24094L28.9757 0L15.9854 22.4532L21.5689 31.9996L34.6353 9.24094Z" fill="black"/>
<path d="M37.4186 12.9736L43.0725 22.5255L37.4186 32.0004L31.5273 22.5255L37.4186 12.9736Z" fill="#FFDB5B"/>
<path d="M51.9971 30.1738V1.78125H56.5711L65.7193 24.1497L74.8674 1.78125H79.4415V30.1738H75.7823V8.87938L66.9711 30.1738H64.4193L55.6563 8.87938V30.1738H51.9971Z" fill="black"/>
<path d="M83.2797 19.5266C83.2797 16.1954 84.1143 13.5336 85.7834 11.5412C87.4525 9.54872 89.6673 8.55249 92.4278 8.55249C95.1883 8.55249 97.4032 9.54872 99.0723 11.5412C100.741 13.5336 101.576 16.1954 101.576 19.5266V20.6006H86.5538C86.5538 22.7488 87.0834 24.461 88.1427 25.7374C89.234 27.045 90.6624 27.6988 92.4278 27.6988C93.9686 27.6988 95.2365 27.3096 96.2315 26.5313C97.2266 25.753 97.7883 24.7256 97.9167 23.4492H101.191C100.998 25.5973 100.099 27.3096 98.4945 28.586C96.9217 29.8624 94.8994 30.5007 92.4278 30.5007C89.6673 30.5007 87.4525 29.5044 85.7834 27.512C84.1143 25.5195 83.2797 22.8577 83.2797 19.5266ZM86.5538 17.752H98.2538C98.0933 15.8218 97.4834 14.2808 96.4241 13.1289C95.3649 11.977 94.0328 11.4011 92.4278 11.4011C90.8229 11.4011 89.4908 11.977 88.4315 13.1289C87.3402 14.2808 86.7143 15.8218 86.5538 17.752Z" fill="black"/>
<path d="M105.948 9.25297V3.1822H109.222V9.25297H112.544V12.1016H109.222V25.5973C109.222 25.9709 109.366 26.2978 109.655 26.578C109.944 26.8582 110.281 26.9983 110.666 26.9983H112.544V30.1738H109.607C108.612 30.1738 107.745 29.8313 107.007 29.1464C106.301 28.4304 105.948 27.5898 105.948 26.6247V12.1016H103.011V9.25297H105.948Z" fill="black"/>
<path d="M115.776 30.1738V9.25297H119.05V12.9421C119.531 11.6657 120.398 10.6695 121.65 9.95344C122.837 9.2374 124.17 8.87938 125.646 8.87938H127.091V12.1016H125.646C123.784 12.1016 122.212 12.8176 120.928 14.2497C119.676 15.6195 119.05 17.2695 119.05 19.1997V30.1738H115.776Z" fill="black"/>
<path d="M129.932 30.1738V8.87938H133.206V30.1738H129.932ZM129.932 5.00343V1.78125H133.206V5.00343H129.932Z" fill="black"/>
<path d="M137.018 19.5266C137.018 16.1954 137.884 13.5336 139.618 11.5412C141.351 9.54872 143.662 8.55249 146.551 8.55249C149.087 8.55249 151.189 9.26853 152.858 10.7006C154.495 12.1016 155.426 13.9851 155.651 16.3511H152.377C152.248 14.8568 151.655 13.6582 150.595 12.7553C149.536 11.8525 148.188 11.4011 146.551 11.4011C144.657 11.4011 143.148 12.1483 142.025 13.6426C140.869 15.1058 140.292 17.0671 140.292 19.5266C140.292 21.986 140.869 23.9629 142.025 25.4572C143.148 26.9516 144.657 27.6988 146.551 27.6988C148.156 27.6988 149.488 27.2162 150.547 26.2511C151.606 25.286 152.216 23.994 152.377 22.3752H155.651C155.426 24.8346 154.479 26.7959 152.81 28.2591C151.173 29.7535 149.087 30.5007 146.551 30.5007C143.662 30.5007 141.351 29.5044 139.618 27.512C137.884 25.5195 137.018 22.8577 137.018 19.5266Z" fill="black"/>
<path d="M157.055 9.25297H160.329L165.433 25.9242L170.199 9.25297H173.136L178.24 25.9242L183.007 9.25297H186.329L179.733 30.1738H176.073L171.692 14.203L167.262 30.1738H163.603L157.055 9.25297Z" fill="black"/>
<path d="M189.282 30.1738V8.87938H192.556V30.1738H189.282ZM189.282 5.00343V1.78125H192.556V5.00343H189.282Z" fill="black"/>
<path d="M196.031 22.3752H199.305C199.305 23.8695 199.77 25.0681 200.701 25.9709C201.632 26.8738 202.868 27.3252 204.408 27.3252C205.981 27.3252 207.233 27.045 208.164 26.4846C209.095 25.9242 209.56 25.1926 209.56 24.2898C209.56 23.0445 208.902 22.0638 207.586 21.3478C206.495 20.7563 205.083 20.3827 203.349 20.227C201.52 20.0714 199.979 19.4176 198.727 18.2657C197.411 17.0827 196.753 15.6662 196.753 14.0162C196.753 12.2417 197.427 10.8251 198.775 9.76665C200.091 8.70815 201.857 8.17891 204.071 8.17891C206.511 8.17891 208.453 8.83268 209.897 10.1402C211.374 11.4166 212.112 13.1289 212.112 15.277H208.838C208.838 14.0006 208.405 12.9733 207.538 12.195C206.671 11.4166 205.516 11.0275 204.071 11.0275C202.852 11.0275 201.873 11.2921 201.134 11.8214C200.396 12.3817 200.027 13.1133 200.027 14.0162C200.027 15.1058 200.621 15.9308 201.808 16.4912C202.707 16.9582 203.959 17.2539 205.564 17.3785C207.554 17.5341 209.255 18.1879 210.668 19.3398C212.144 20.5539 212.883 22.0327 212.883 23.7761C212.883 25.7063 212.144 27.2473 210.668 28.3992C209.191 29.5511 207.233 30.1271 204.794 30.1271C202.129 30.1271 200.011 29.4266 198.438 28.0256C196.833 26.5936 196.031 24.7101 196.031 22.3752Z" fill="black"/>
<path d="M215.303 19.5266C215.303 16.1954 216.138 13.5336 217.807 11.5412C219.476 9.54872 221.691 8.55249 224.452 8.55249C227.212 8.55249 229.427 9.54872 231.096 11.5412C232.765 13.5336 233.6 16.1954 233.6 19.5266V20.6006H218.578C218.578 22.7488 219.107 24.461 220.166 25.7374C221.258 27.045 222.686 27.6988 224.452 27.6988C225.992 27.6988 227.26 27.3096 228.255 26.5313C229.25 25.753 229.812 24.7256 229.941 23.4492H233.215C233.022 25.5973 232.123 27.3096 230.518 28.586C228.945 29.8624 226.923 30.5007 224.452 30.5007C221.691 30.5007 219.476 29.5044 217.807 27.512C216.138 25.5195 215.303 22.8577 215.303 19.5266ZM218.578 17.752H230.278C230.117 15.8218 229.507 14.2808 228.448 13.1289C227.389 11.977 226.057 11.4011 224.452 11.4011C222.847 11.4011 221.515 11.977 220.455 13.1289C219.364 14.2808 218.738 15.8218 218.578 17.752Z" fill="black"/>
</svg>
