<svg width="450" height="365" viewBox="0 0 450 365" fill="none" xmlns="http://www.w3.org/2000/svg">
<path d="M311.192 330.76L199.316 275.683V272.935L450.004 259.678V262.414L311.192 330.76Z" fill="#093B66"/>
<path d="M311.192 328.013L199.316 272.936L338.129 204.59L450.004 259.679L311.192 328.013Z" fill="#135E9C"/>
<path d="M222.306 269.821L343.6 210.111L437.957 256.564L316.663 316.285L222.306 269.821Z" fill="white"/>
<g style="mix-blend-mode:multiply">
<path d="M359.704 223.141L369.596 218.271L413.523 239.892L403.632 244.762L359.704 223.141Z" fill="white"/>
</g>
<path d="M403.633 244.761C388.99 237.558 374.348 230.343 359.705 223.14C360.08 222.346 361.039 222.678 361.039 222.678C375.681 229.881 388.949 236.421 403.591 243.636C403.591 243.636 402.938 243.944 403.619 244.773L403.633 244.761Z" fill="#49A7FB"/>
<path d="M369.663 228.045C366.343 226.41 363.023 224.776 359.703 223.141C359.689 220.44 364.12 218.26 369.594 218.272C372.914 219.906 376.234 221.541 379.555 223.176C374.067 223.176 369.649 225.344 369.663 228.045Z" fill="#82CAFC"/>
<path d="M403.632 244.76C400.312 243.125 396.992 241.49 393.671 239.856C393.657 237.154 398.089 234.975 403.563 234.986C406.883 236.621 410.203 238.256 413.523 239.891C408.05 239.891 403.618 242.059 403.632 244.76Z" fill="#82CAFC"/>
<path d="M404.966 242.297C390.323 235.094 375.681 227.88 361.038 220.677C362.747 219.231 365.942 218.26 369.596 218.272C384.238 225.475 398.881 232.689 413.523 239.893C409.87 239.893 406.688 240.852 404.966 242.297Z" fill="#A4E3FF"/>
<path d="M364.345 219.078C364.818 219.018 365.318 218.971 365.846 218.947L408.051 240.319C407.745 240.45 407.44 240.592 407.162 240.746L364.345 219.078Z" fill="white"/>
<path d="M429.76 286.563C429.76 286.622 429.704 286.658 429.648 286.622C429.579 286.587 429.537 286.515 429.537 286.456C429.537 286.397 429.593 286.361 429.648 286.397C429.704 286.433 429.76 286.504 429.773 286.563C429.704 286.527 429.621 286.527 429.607 286.527C429.607 286.527 429.704 286.527 429.773 286.563H429.76Z" fill="#FFA15C"/>
<path d="M429.076 287.557C428.979 287.628 428.826 287.628 428.659 287.557C428.353 287.414 428.103 287.047 428.089 286.739C428.089 286.561 428.173 286.455 428.298 286.407C428.909 286.218 429.229 286.206 429.381 286.23C429.784 286.301 429.826 286.573 429.84 286.656C429.77 286.49 429.715 286.419 429.645 286.384C429.576 286.348 429.534 286.384 429.534 286.443C429.534 286.502 429.59 286.585 429.645 286.609C429.715 286.644 429.756 286.609 429.756 286.55C429.826 286.893 429.59 287.166 429.076 287.545V287.557Z" fill="#FFA15C"/>
<path d="M429.84 286.668C429.84 286.763 429.84 287.035 429.076 287.568C429.159 287.509 429.201 287.402 429.201 287.272C429.701 286.952 429.84 286.775 429.84 286.668Z" fill="#217FD5"/>
<path d="M428.298 286.407C428.52 286.336 429.048 286.17 429.395 286.229C429.826 286.3 429.84 286.62 429.84 286.656C429.84 286.762 429.701 286.94 429.201 287.26C429.201 286.952 428.951 286.597 428.631 286.443C428.506 286.383 428.395 286.372 428.298 286.395V286.407Z" fill="#49A7FB"/>
<path d="M427.161 288.953C427.008 289.06 426.758 289.072 426.494 288.953C426.008 288.728 425.605 288.148 425.605 287.674C425.605 287.401 425.73 287.212 425.925 287.152C425.966 287.141 426.869 286.88 428.3 286.418C428.175 286.454 428.092 286.572 428.092 286.75C428.092 287.058 428.342 287.413 428.661 287.567C428.828 287.65 428.981 287.65 429.078 287.567C427.897 288.396 427.189 288.93 427.161 288.965V288.953Z" fill="#FFA15C"/>
<path d="M429.078 287.555C428.856 287.709 428.578 287.91 428.147 288.218C427.995 288.325 427.842 288.443 427.689 288.55C427.508 288.68 427.342 288.811 427.161 288.941C427.203 288.917 427.897 288.372 429.078 287.543V287.555Z" fill="#FFA15C"/>
<path d="M427.175 288.953C427.175 288.953 427.897 288.396 429.078 287.566C428.814 287.756 428.55 287.946 428.286 288.135C428.092 288.277 427.883 288.419 427.689 288.562L427.161 288.953H427.175Z" fill="#FFA15C"/>
<path d="M428.301 286.406C426.87 286.868 425.981 287.129 425.925 287.141C426.161 287.07 426.384 287.01 426.606 286.939C426.856 286.868 427.092 286.785 427.342 286.714C427.662 286.62 427.981 286.513 428.301 286.406Z" fill="#FFA15C"/>
<path d="M425.937 287.141C425.937 287.141 426.549 286.963 426.59 286.951C426.896 286.856 427.202 286.762 427.493 286.667C427.757 286.584 428.021 286.501 428.285 286.418C426.868 286.88 425.979 287.129 425.923 287.141H425.937Z" fill="#FFA15C"/>
<path d="M429.092 287.556C427.911 288.385 427.217 288.918 427.175 288.954C427.3 288.859 427.369 288.705 427.355 288.504C427.397 288.48 428.064 288.018 429.203 287.271C429.203 287.402 429.161 287.497 429.092 287.556Z" fill="#217FD5"/>
<path d="M427.352 288.493C427.352 288.967 426.976 289.168 426.49 288.943C426.004 288.718 425.601 288.137 425.601 287.663C425.601 287.19 425.976 286.988 426.462 287.213C426.949 287.438 427.352 288.019 427.352 288.493ZM427.31 288.469C427.31 288.007 426.921 287.462 426.462 287.249C426.004 287.024 425.629 287.225 425.643 287.675C425.643 288.137 426.032 288.682 426.49 288.896C426.949 289.109 427.324 288.919 427.31 288.469Z" fill="#FFA15C"/>
<path d="M427.312 288.479C427.312 288.929 426.951 289.131 426.493 288.906C426.034 288.68 425.645 288.135 425.645 287.685C425.645 287.223 426.007 287.034 426.465 287.259C426.924 287.484 427.312 288.029 427.312 288.479Z" fill="#FFA15C"/>
<path d="M425.938 287.142C425.938 287.142 426.883 286.87 428.3 286.408C428.397 286.384 428.509 286.396 428.634 286.455C428.939 286.597 429.189 286.965 429.203 287.273C428.064 288.007 427.397 288.481 427.355 288.505C427.355 288.031 426.953 287.45 426.466 287.225C426.272 287.131 426.077 287.107 425.938 287.154V287.142Z" fill="#49A7FB"/>
<path d="M427.316 288.481C427.316 288.931 426.955 289.133 426.497 288.907C426.038 288.682 425.649 288.137 425.649 287.687C425.649 287.225 426.011 287.036 426.469 287.261C426.927 287.486 427.316 288.031 427.316 288.481Z" fill="#FFC69C"/>
<path d="M415.576 298.718C414.895 299.203 413.867 299.227 412.7 298.67C410.616 297.675 408.893 295.199 408.866 293.138C408.852 291.953 409.394 291.171 410.241 290.898C412.325 290.235 414.409 289.572 416.493 288.908C419.234 288.039 420.799 287.55 421.188 287.439C422.925 286.965 423.772 286.882 424.05 286.859C425.175 286.74 425.87 286.823 426.426 287.119C426.717 287.273 426.981 287.558 427.106 287.747C427.19 287.866 427.19 287.877 427.259 287.996C427.259 287.996 427.301 288.079 427.329 288.174C427.412 288.399 427.412 288.553 427.426 288.671C427.426 288.576 427.384 288.517 427.315 288.482C427.315 288.02 426.926 287.475 426.467 287.261C426.009 287.036 425.634 287.238 425.648 287.688C425.648 288.15 426.037 288.695 426.495 288.908C426.953 289.121 427.329 288.932 427.315 288.482C427.384 288.517 427.426 288.576 427.426 288.671C427.426 289.074 427.273 289.477 426.87 290.022C426.481 290.579 425.773 291.254 425.272 291.669C424.578 292.261 424.231 292.51 423.494 293.043C423.453 293.066 415.617 298.658 415.548 298.718H415.576Z" fill="#FFC69C"/>
<path d="M423.524 293.053C421.815 294.285 419.175 296.157 418.661 296.524C417.633 297.259 416.605 297.993 415.577 298.728C416.119 298.337 416.439 297.662 416.425 296.75C416.675 296.584 421.551 293.397 424.093 291.738C426.733 290.009 427.441 289.073 427.441 288.682C427.441 288.942 427.414 289.487 426.497 290.518C425.816 291.276 424.816 292.129 423.524 293.053Z" fill="#2895EE"/>
<path d="M410.243 290.898C410.521 290.815 410.798 290.72 411.062 290.637C411.299 290.566 411.632 290.459 411.868 290.376C412.382 290.211 412.91 290.045 413.424 289.879C413.827 289.749 414.216 289.63 414.619 289.5C414.799 289.441 415.049 289.358 415.244 289.298C416.814 288.801 418.384 288.303 419.953 287.806C422.204 287.095 423.399 286.941 423.982 286.858C424.274 286.822 424.871 286.763 425.51 286.834C425.997 286.882 426.33 287.047 426.427 287.107C426.927 287.367 427.428 287.983 427.441 288.659C427.441 289.05 426.733 289.985 424.093 291.715C421.551 293.374 416.689 296.561 416.425 296.726C416.397 294.665 414.674 292.189 412.591 291.194C411.701 290.767 410.882 290.684 410.243 290.886V290.898Z" fill="#135E9C"/>
<path d="M415.285 293.564C414.868 292.83 414.91 293.09 414.299 292.474L420.8 289.737C422.717 289.133 423.746 288.979 424.273 288.908C423.898 289.204 423.37 289.595 422.634 290.081C421.328 290.934 416.883 292.522 415.299 293.564H415.285Z" fill="#2895EE"/>
<path d="M416.425 296.739C416.453 298.8 414.786 299.665 412.702 298.682C410.618 297.687 408.896 295.211 408.868 293.149C408.84 291.088 410.507 290.223 412.591 291.206C414.675 292.202 416.398 294.678 416.425 296.739Z" fill="#FFC69C"/>
<path d="M416.425 296.739C416.453 298.8 414.786 299.665 412.702 298.682C410.618 297.687 408.896 295.211 408.868 293.149C408.84 291.088 410.507 290.223 412.591 291.206C414.675 292.202 416.398 294.678 416.425 296.739Z" fill="#217FD5"/>
<path d="M381.344 316.44C380.579 316.831 379.51 316.795 378.329 316.227C375.953 315.101 373.995 312.27 373.953 309.924C373.939 308.716 374.425 307.863 375.231 307.483C379.287 305.529 384.497 303.053 390.721 300.091C392.888 299.06 395.069 298.029 397.236 296.999C400.154 295.625 403.071 294.238 405.989 292.864C407.322 292.236 408.656 291.608 409.976 290.98C409.267 291.312 408.823 292.059 408.836 293.125C408.864 295.186 410.587 297.662 412.671 298.657C413.713 299.155 414.657 299.179 415.324 298.835C414.032 299.51 412.726 300.186 411.434 300.861C408.92 302.176 402.946 305.28 402.891 305.304C399.279 307.175 395.68 309.047 392.068 310.907C387.22 313.407 384.261 314.923 381.316 316.428L381.344 316.44Z" fill="#217FD5"/>
<path d="M382.582 314.026C382.61 316.384 380.72 317.367 378.331 316.241C375.955 315.116 373.996 312.285 373.955 309.939C373.927 307.581 375.816 306.598 378.206 307.723C380.581 308.849 382.54 311.68 382.582 314.026Z" fill="#FFA15C"/>
<path d="M382.582 314.026C382.61 316.384 380.72 317.367 378.331 316.241C375.955 315.116 373.996 312.285 373.955 309.939C373.927 307.581 375.816 306.598 378.206 307.723C380.581 308.849 382.54 311.68 382.582 314.026Z" fill="#217FD5"/>
<path d="M377.219 318.538C376.441 318.929 375.372 318.893 374.177 318.324C371.774 317.187 369.801 314.332 369.773 311.963C369.759 310.742 370.245 309.889 371.065 309.498C371.732 309.178 372.399 308.859 373.066 308.527C373.496 308.314 373.927 308.112 374.358 307.911C374.51 307.84 374.649 307.769 374.802 307.698C374.872 307.662 374.955 307.627 375.024 307.591C375.094 307.555 375.177 307.484 375.247 307.484C374.441 307.875 373.955 308.716 373.969 309.925C373.996 312.282 375.955 315.102 378.345 316.228C379.526 316.784 380.595 316.832 381.359 316.441C379.984 317.14 378.609 317.839 377.233 318.538H377.219Z" fill="#FFA15C"/>
<path d="M415.356 298.847C413.837 299.645 412.068 300.565 410.049 301.608C408.951 302.176 407.84 302.757 406.742 303.325C405.464 303.989 404.2 304.652 402.922 305.304C396.379 308.704 394.948 309.438 389.863 312.057C388.141 312.945 384.737 314.699 381.347 316.428C382.125 316.025 382.598 315.196 382.584 314.011C395.754 307.342 415.384 297.26 416.425 296.727C416.439 297.757 416.036 298.492 415.356 298.847Z" fill="#217FD5"/>
<path d="M375.251 307.486C377.932 306.194 381.28 304.595 388.477 301.171C391.408 299.785 394.325 298.399 397.256 297.013C400.063 295.686 404.55 293.565 407.259 292.286C408.176 291.859 409.079 291.433 409.996 290.994C410.663 290.675 411.58 290.722 412.58 291.208C414.664 292.203 416.386 294.679 416.414 296.74C415.386 297.273 395.756 307.355 382.572 314.025C382.544 311.668 380.586 308.848 378.196 307.723C377.043 307.178 375.987 307.118 375.223 307.486H375.251Z" fill="#49A7FB"/>
<path d="M381.074 310.246C380.726 309.724 380.337 309.227 379.907 308.753C381.713 307.888 387.7 305.471 390.437 304.168C393.368 302.782 396.286 301.396 399.217 300.01C402.023 298.683 406.511 296.562 409.22 295.295L414.026 292.605C414.262 292.795 414.499 293.044 414.707 293.316C409.525 295.982 390.937 305.246 381.074 310.258V310.246Z" fill="#A4E3FF"/>
<path d="M381.345 316.442C379.97 317.141 378.595 317.84 377.219 318.539C378.011 318.136 378.484 317.295 378.47 316.099C379.72 315.471 381.109 314.772 382.582 314.025C382.596 315.21 382.123 316.051 381.345 316.442Z" fill="#2895EE"/>
<path d="M378.472 316.097C378.5 318.467 376.583 319.474 374.18 318.325C371.776 317.187 369.804 314.332 369.776 311.963C369.748 309.593 371.665 308.586 374.068 309.735C376.472 310.873 378.445 313.728 378.472 316.097Z" fill="#217FD5"/>
<path d="M378.472 316.097C378.5 318.467 376.583 319.474 374.18 318.325C371.776 317.187 369.804 314.332 369.776 311.963C369.748 309.593 371.665 308.586 374.068 309.735C376.472 310.873 378.445 313.728 378.472 316.097Z" fill="#FFA15C"/>
<path d="M371.071 309.499C371.071 309.499 374.572 307.805 375.252 307.485C376.017 307.118 377.058 307.165 378.225 307.71C380.601 308.836 382.56 311.667 382.602 314.013C381.129 314.759 379.74 315.458 378.489 316.086C378.462 313.717 376.475 310.862 374.086 309.724C372.919 309.168 371.863 309.12 371.085 309.499H371.071Z" fill="#135E9C"/>
<path d="M339.916 336.237C339.249 336.545 338.332 336.509 337.332 336.024C335.248 335.029 333.525 332.552 333.497 330.491C333.483 329.46 333.886 328.726 334.567 328.382C338.374 326.392 342.18 324.402 346 322.411C347.945 321.393 349.89 320.386 351.821 319.367C353.169 318.668 354.53 317.957 355.878 317.258C357.67 316.322 362.421 313.846 365.589 312.211C365.589 312.211 366.575 311.713 366.589 311.702C367.006 311.488 367.422 311.287 367.853 311.074C368.353 310.825 368.853 310.576 369.354 310.339C369.923 310.055 370.507 309.782 371.076 309.498C370.27 309.889 369.77 310.742 369.798 311.962C369.826 314.332 371.812 317.187 374.202 318.324C375.397 318.893 376.466 318.928 377.23 318.537C376.661 318.822 376.091 319.118 375.522 319.402C375.022 319.651 374.521 319.9 374.021 320.149C373.605 320.362 373.174 320.563 372.757 320.776C372.577 320.859 372.132 321.085 371.757 321.262C368.437 322.826 365.13 324.402 361.81 325.966C358.434 327.553 355.044 329.152 351.669 330.74C348.987 331.996 346.292 333.263 343.611 334.519C342.388 335.1 341.152 335.668 339.93 336.249L339.916 336.237Z" fill="#217FD5"/>
<path d="M371.75 321.263C371.75 321.263 366.985 323.526 359.719 326.938C357.038 328.205 354.343 329.461 351.662 330.729C351.592 330.764 340.784 335.835 339.923 336.238C340.645 335.906 341.076 335.16 341.062 334.082C342.048 333.608 360.9 324.628 373.056 318.787C374.181 318.242 376.085 317.294 378.488 316.098C378.502 317.294 378.03 318.147 377.238 318.538C376.418 318.953 375.293 319.521 374.029 320.149C373.209 320.564 372.57 320.872 372.542 320.884C372.278 321.014 372.014 321.133 371.764 321.263H371.75Z" fill="#217FD5"/>
<path d="M334.561 328.382C336.187 327.529 337.812 326.676 339.451 325.823C342.091 324.437 343.563 323.667 345.995 322.399C348.967 320.847 354.816 317.791 357.9 316.191C361.346 314.403 365.166 312.412 365.583 312.199C366.055 311.95 366.458 311.761 366.805 311.583C367.153 311.417 367.486 311.239 367.833 311.074C368.445 310.777 369.056 310.469 369.667 310.173C370.126 309.948 370.598 309.723 371.056 309.498C371.834 309.119 372.89 309.166 374.057 309.723C376.46 310.86 378.433 313.715 378.461 316.085C376.071 317.293 374.168 318.229 373.029 318.774C360.873 324.615 342.035 333.595 341.035 334.069C341.007 332.007 339.284 329.531 337.201 328.536C336.159 328.039 335.214 328.015 334.533 328.358L334.561 328.382Z" fill="#49A7FB"/>
<path d="M340.271 330.715C340.049 330.407 339.827 330.111 339.576 329.839C341.591 328.784 346.023 326.427 348.093 325.337C351.065 323.785 356.914 320.728 359.998 319.129C363.444 317.34 367.25 315.362 367.667 315.148C368.125 314.911 368.514 314.722 368.848 314.556C369.181 314.39 369.514 314.224 369.848 314.058C370.459 313.762 371.057 313.466 371.668 313.17C371.876 313.063 375.849 311.298 376.058 311.191C376.627 311.535 377.183 312.127 377.586 312.779C376.405 313.371 371.723 315.492 371.057 315.812C362.263 320.041 346.787 327.611 340.257 330.727L340.271 330.715Z" fill="#82CAFC"/>
<path d="M341.058 334.081C341.086 336.142 339.419 337.007 337.335 336.024C335.251 335.029 333.529 332.552 333.501 330.491C333.473 328.43 335.14 327.565 337.224 328.548C339.308 329.543 341.03 332.019 341.058 334.081Z" fill="#217FD5"/>
<path d="M341.058 334.081C341.086 336.142 339.419 337.007 337.335 336.024C335.251 335.029 333.529 332.552 333.501 330.491C333.473 328.43 335.14 327.565 337.224 328.548C339.308 329.543 341.03 332.019 341.058 334.081Z" fill="#F4B082"/>
<path d="M329.637 341.332C328.97 341.664 328.04 341.628 327.012 341.142C324.928 340.147 323.205 337.671 323.177 335.61C323.163 334.567 323.58 333.821 324.275 333.477L334.583 328.371C333.888 328.715 333.471 329.449 333.485 330.504C333.513 332.565 335.236 335.041 337.32 336.036C338.348 336.522 339.265 336.557 339.945 336.226C336.847 337.754 332.721 339.804 329.637 341.332Z" fill="#F4B082"/>
<path d="M327.223 338.251C327.223 338.796 326.792 339.033 326.222 338.772C325.667 338.512 325.208 337.848 325.194 337.303C325.194 336.758 325.625 336.521 326.195 336.782C326.75 337.042 327.209 337.706 327.223 338.263V338.251Z" fill="#F4B082"/>
<path d="M339.961 336.213L329.653 341.319C330.347 340.975 330.764 340.229 330.75 339.186L341.058 334.08C341.072 335.134 340.655 335.869 339.961 336.213Z" fill="#3295E6"/>
<path d="M327.221 338.25C328.193 338.712 329.416 339.044 330.75 339.198C330.777 341.259 329.11 342.124 327.027 341.141C324.943 340.146 323.22 337.67 323.192 335.608C323.164 333.547 324.832 332.682 326.915 333.665C328.999 334.661 330.722 337.137 330.75 339.198C329.416 339.044 328.193 338.724 327.221 338.25C327.221 337.705 326.749 337.042 326.193 336.769C325.637 336.509 325.193 336.734 325.193 337.291C325.193 337.836 325.665 338.499 326.221 338.76C326.776 339.02 327.221 338.795 327.221 338.238V338.25Z" fill="#3295E6"/>
<path d="M324.291 333.478L334.599 328.372C335.265 328.04 336.196 328.076 337.224 328.561C339.308 329.557 341.031 332.033 341.059 334.094L330.75 339.2C330.723 337.139 329 334.663 326.916 333.668C325.888 333.182 324.971 333.146 324.291 333.478Z" fill="#135E9C"/>
<path d="M427.353 287.45C427.353 287.45 429.034 286.419 429.062 286.668C429.103 286.916 427.561 287.841 427.561 287.841L427.353 287.45Z" fill="white"/>
<path d="M330.751 339.706V337.68L340.351 335.606C340.351 335.606 357.911 328.119 360.675 326.757C363.426 325.394 363.468 324.743 363.468 324.743C362.301 324.174 362.37 322.563 363.523 321.994L363.898 323.392C365.051 322.823 369.816 322.219 369.816 322.219V324.245C369.816 324.245 358.98 329.671 352.909 332.574C348.422 334.706 340.587 338.189 336.78 339.871C335.475 340.452 333.543 340.535 332.029 340.085L330.765 339.706H330.751Z" fill="#135E9C"/>
<path d="M330.749 337.681L338.64 333.795L340.571 334.743C340.571 334.743 357.908 326.936 360.673 325.585C363.424 324.223 364.48 323.714 364.48 323.714L363.91 323.429C362.743 322.861 362.743 321.937 363.91 321.368C365.063 320.799 366.938 320.799 368.105 321.368L369.828 322.221C369.828 322.221 358.992 327.647 352.921 330.549C348.434 332.682 340.599 336.165 336.792 337.847C335.486 338.428 333.555 338.511 332.041 338.06L330.777 337.681H330.749Z" fill="#2895EE"/>
<path d="M352.877 330.549C351.21 331.378 349.529 332.184 347.848 332.977C346.167 333.771 344.458 334.541 342.763 335.323C341.054 336.081 339.346 336.851 337.637 337.598C337.206 337.776 336.789 337.989 336.317 338.131C335.845 338.273 335.358 338.356 334.872 338.392C333.9 338.451 332.913 338.356 332.01 338.06C332.941 338.285 333.914 338.344 334.858 338.226C335.331 338.166 335.789 338.084 336.234 337.93C336.664 337.787 337.081 337.562 337.498 337.361C339.179 336.567 340.888 335.797 342.582 335.015C344.291 334.257 346 333.487 347.709 332.741C349.431 331.994 351.154 331.248 352.891 330.549H352.877Z" fill="white"/>
<path d="M324.008 226.804L369.825 248.662L380.633 243.331L334.83 221.473L324.008 226.804Z" fill="#A4E3FF"/>
<path d="M308.433 234.48L354.236 256.326L365.059 251.006L319.256 229.148L308.433 234.48Z" fill="#A4E3FF"/>
<path d="M373.369 283.467L387.387 276.56L371.688 268.836L357.671 275.743L373.369 283.467ZM380.996 276.56L373.369 280.316L364.075 275.743L371.702 271.987L380.996 276.56Z" fill="#A4E3FF"/>
<path d="M292.85 242.144L347.127 268.977L357.949 263.646L303.672 236.824L292.85 242.144Z" fill="#A4E3FF"/>
<path d="M357.783 291.147L371.801 284.24L356.102 276.516L342.085 283.422L357.783 291.147ZM365.41 284.24L357.783 287.995L348.489 283.422L356.116 279.667L365.41 284.24Z" fill="#A4E3FF"/>
<path d="M277.278 249.823L331.541 276.657L342.363 271.326L288.086 244.492L277.278 249.823Z" fill="#A4E3FF"/>
<path d="M342.217 298.811L356.234 291.904L340.536 284.18L326.519 291.087L342.217 298.811ZM349.844 291.904L342.217 295.659L332.923 291.087L340.55 287.331L349.844 291.904Z" fill="#A4E3FF"/>
<path d="M261.697 257.487L315.975 284.321L326.797 278.99L272.519 252.168L261.697 257.487Z" fill="#A4E3FF"/>
<path d="M326.615 306.487L340.633 299.58L324.934 291.855L310.917 298.762L326.615 306.487ZM334.242 299.58L326.615 303.335L317.321 298.762L324.948 295.007L334.242 299.58Z" fill="#A4E3FF"/>
<path d="M246.096 265.163L300.373 291.997L311.195 286.666L256.918 259.832L246.096 265.163Z" fill="#A4E3FF"/>
<g clip-path="url(#clip0_5233_22944)">
<path style="mix-blend-mode:color-dodge" opacity="0.5" d="M205.995 358.489C319.765 358.489 411.994 278.238 411.994 179.244C411.994 80.2504 319.765 0 205.995 0C92.225 0 -0.00390625 80.2504 -0.00390625 179.244C-0.00390625 278.238 92.225 358.489 205.995 358.489Z" fill="url(#paint0_radial_5233_22944)"/>
<path opacity="0.2" d="M302.997 280.259C302.997 282.118 301.42 284.071 298.31 285.603L253.435 322.139C247.763 324.932 239.167 325.241 234.25 322.821L152.615 282.37C150.239 281.203 149.165 279.605 149.319 277.961C149.308 278.036 149.297 278.138 149.297 278.251V283.51C149.33 285.023 150.425 286.462 152.615 287.536L234.25 327.987C239.167 330.407 247.752 330.108 253.435 327.305L298.31 290.769C301.464 289.218 303.052 287.228 303.008 285.341C303.008 285.023 303.063 281.558 302.997 280.259Z" fill="url(#paint1_linear_5233_22944)"/>
<g opacity="0.2">
<path opacity="0.09" d="M150.886 265.332L222.534 241.818C226.575 239.828 231.656 238.763 236.748 238.81C238.938 238.829 241.019 239.081 242.946 239.483C244.775 239.875 246.899 240.622 248.377 241.351L301.334 267.826C301.334 267.826 302.9 268.611 302.932 268.639C307.126 270.778 309.032 274.132 308.813 277.747C308.583 281.447 305.309 285.557 300.611 287.865L256.546 323.738C252.593 325.69 247.633 326.755 242.618 326.765C238.248 326.765 234.262 325.961 231.141 324.42L149.506 283.969C145.389 281.942 143.056 278.756 143.078 275.225C143.1 271.367 145.936 267.761 150.886 265.323V265.332Z" fill="#2E2E2E"/>
<path opacity="0.18" d="M151.193 265.789L222.841 242.276C226.86 240.295 231.963 239.258 236.989 239.352C239.168 239.389 241.238 239.688 243.132 240.108C244.775 240.473 247.173 241.379 248.498 242.033L301.17 268.358C301.268 268.405 302.681 269.124 302.757 269.18C306.853 271.357 308.222 274.683 307.762 278.242C307.335 281.549 303.721 285.996 299.494 288.079L256.24 323.298C252.375 325.204 247.535 326.241 242.651 326.251C238.391 326.251 234.493 325.475 231.448 323.98L149.813 283.53C145.86 281.587 143.659 278.55 143.692 275.206C143.736 271.563 146.44 268.134 151.193 265.799V265.789Z" fill="#2E2E2E"/>
<path opacity="0.27" d="M151.51 266.256L223.158 242.742C227.166 240.771 232.269 239.771 237.24 239.902C239.419 239.967 241.456 240.304 243.318 240.743C244.774 241.088 247.435 242.135 248.618 242.723L301.005 268.909C301.158 268.984 302.461 269.656 302.581 269.74C306.589 271.954 307.411 275.215 306.721 278.746C306.14 281.661 302.132 286.444 298.376 288.293L255.933 322.849C252.166 324.708 247.435 325.717 242.694 325.727C238.543 325.736 234.744 324.989 231.776 323.522L150.141 283.071C146.363 281.212 144.282 278.326 144.337 275.168C144.403 271.739 146.987 268.488 151.52 266.256H151.51Z" fill="#2E2E2E"/>
<path opacity="0.36" d="M151.815 266.714L223.463 243.2C227.449 241.239 232.574 240.267 237.48 240.444C239.648 240.529 241.663 240.912 243.503 241.369C244.773 241.678 247.708 242.892 248.748 243.397L300.85 269.433C301.047 269.535 302.252 270.152 302.405 270.264C306.314 272.506 307.497 275.944 305.668 279.214C305.668 281.801 300.543 286.855 297.258 288.472L255.625 322.374C251.956 324.186 247.335 325.167 242.725 325.185C238.695 325.204 234.972 324.475 232.081 323.055L150.446 282.605C146.832 280.82 144.872 278.102 144.96 275.122C145.036 271.899 147.5 268.844 151.826 266.714H151.815Z" fill="#2E2E2E"/>
<path opacity="0.45" d="M152.134 267.171L223.783 243.657C227.747 241.705 232.882 240.761 237.734 240.986C239.891 241.088 241.884 241.518 243.701 241.985C244.786 242.265 247.983 243.629 248.881 244.068L300.687 269.964C300.939 270.086 302.045 270.665 302.231 270.805C306.053 273.085 306.918 276.541 304.63 279.699C304.63 281.922 298.957 287.284 296.143 288.676L255.32 321.915C251.739 323.681 247.238 324.634 242.76 324.652C238.84 324.671 235.204 323.97 232.401 322.588L150.765 282.137C147.327 280.437 145.487 277.868 145.586 275.074C145.684 272.066 148.017 269.189 152.134 267.162V267.171Z" fill="#2E2E2E"/>
<path opacity="0.55" d="M152.439 267.63L224.088 244.116C228.041 242.173 233.187 241.267 237.973 241.529C240.119 241.65 242.09 242.126 243.875 242.612C244.773 242.855 248.244 244.378 248.989 244.742L300.511 270.489C300.817 270.638 301.814 271.171 302.033 271.339C305.756 273.646 306.303 277.14 303.555 280.176C303.555 282.026 297.346 287.706 295.003 288.864L254.99 321.44C251.507 323.159 247.116 324.083 242.78 324.102C238.969 324.121 235.421 323.458 232.695 322.112L151.059 281.662C147.785 280.045 146.077 277.635 146.197 275.019C146.318 272.226 148.53 269.536 152.439 267.611V267.63Z" fill="#2E2E2E"/>
<path opacity="0.64" d="M152.747 268.097L224.396 244.584C228.327 242.65 233.495 241.772 238.226 242.08C240.361 242.22 242.31 242.743 244.073 243.248C244.785 243.453 248.53 245.144 249.122 245.434L300.359 271.04C300.709 271.217 301.607 271.694 301.87 271.899C305.505 274.244 305.735 277.757 302.527 280.681C302.527 282.157 295.781 288.154 293.898 289.089L254.695 321.01C251.312 322.682 247.03 323.579 242.825 323.607C239.124 323.635 235.664 322.991 233.025 321.692L151.389 281.241C148.279 279.709 146.702 277.449 146.845 275.02C146.987 272.441 149.068 269.928 152.769 268.107L152.747 268.097Z" fill="#2E2E2E"/>
<path opacity="0.73" d="M153.063 268.555L224.711 245.041C228.632 243.117 233.8 242.267 238.476 242.622C240.611 242.79 242.517 243.35 244.269 243.874C244.805 244.032 248.802 245.892 249.251 246.106L300.193 271.573C300.598 271.769 301.386 272.208 301.693 272.432C305.23 274.805 305.142 278.346 301.474 281.157C301.474 282.269 294.181 288.584 292.779 289.276L254.387 320.534C251.091 322.159 246.93 323.019 242.856 323.056C239.275 323.084 235.892 322.468 233.329 321.206L151.694 280.756C148.759 279.308 147.303 277.206 147.456 274.964C147.621 272.6 149.57 270.274 153.063 268.546V268.555Z" fill="#2E2E2E"/>
<path opacity="0.82" d="M153.371 269.013L225.019 245.499C228.918 243.574 234.108 242.771 238.718 243.163C240.843 243.35 242.726 243.957 244.445 244.49C244.796 244.602 249.066 246.639 249.362 246.779L300.019 272.095C300.468 272.32 301.158 272.712 301.497 272.964C304.946 275.374 304.53 278.934 300.413 281.643C300.413 282.381 292.583 289.014 291.642 289.471L254.06 320.066C250.862 321.645 246.811 322.486 242.879 322.523C239.408 322.561 236.112 321.972 233.637 320.748L152.002 280.298C149.232 278.934 147.907 276.981 148.082 274.926C148.268 272.777 150.097 270.629 153.382 269.013H153.371Z" fill="#2E2E2E"/>
<path opacity="0.91" d="M153.687 269.478L225.336 245.965C229.223 244.05 234.424 243.274 238.969 243.713C241.082 243.919 242.933 244.573 244.641 245.124C244.816 245.18 249.35 247.394 249.492 247.469L299.864 272.645C300.368 272.898 300.948 273.234 301.331 273.523C304.693 275.962 303.959 279.549 299.371 282.146C299.371 282.52 290.994 289.461 290.523 289.694L253.752 319.635C250.653 321.167 246.711 321.971 242.911 322.018C239.549 322.055 236.341 321.494 233.943 320.317L152.307 279.867C149.701 278.587 148.507 276.793 148.705 274.915C148.913 272.972 150.61 271.01 153.687 269.497V269.478Z" fill="#2E2E2E"/>
<path d="M234.26 319.832L152.625 279.381C147.708 276.962 148.321 272.73 154.005 269.937L225.653 246.423C231.326 243.63 239.922 243.321 244.838 245.741L299.7 273.169C304.617 275.588 304.003 279.82 298.32 282.614L253.445 319.15C247.773 321.943 239.177 322.252 234.26 319.832Z" fill="#2E2E2E"/>
</g>
<path d="M234.258 319.73L152.623 279.28C150.433 278.205 149.338 276.767 149.305 275.253V269.994C149.348 268.153 150.936 271.348 154.002 269.835L225.651 246.321C231.323 243.528 239.919 243.22 244.836 245.639L299.698 273.067C301.34 273.871 302.534 270.442 302.95 271.535C303.092 271.9 303.005 276.711 303.016 277.094C303.059 278.971 301.472 280.961 298.318 282.512L253.443 319.048C247.771 321.842 239.175 322.15 234.258 319.73Z" fill="url(#paint2_linear_5233_22944)"/>
<path d="M234.26 314.572L152.625 274.121C147.708 271.702 148.321 267.47 154.005 264.677L225.653 241.163C231.326 238.37 239.922 238.061 244.838 240.481L299.7 267.9C304.617 270.319 304.003 274.551 298.32 277.344L253.445 313.881C247.773 316.674 239.177 316.982 234.26 314.563V314.572Z" fill="url(#paint3_linear_5233_22944)"/>
<path style="mix-blend-mode:multiply" opacity="0.82" d="M299.69 267.909L244.828 240.49C239.912 238.07 231.327 238.369 225.643 241.172L189.551 253.018C189.89 253.251 190.252 253.466 190.668 253.681L272.303 294.132C273.431 294.692 274.767 295.094 276.201 295.365L298.299 277.372C303.983 274.579 304.596 270.347 299.679 267.927L299.69 267.909Z" fill="url(#paint4_linear_5233_22944)"/>
<path style="mix-blend-mode:screen" opacity="0.6" d="M298.309 276.475L253.434 313.012C247.762 315.805 239.166 316.113 234.249 313.684L152.614 273.234C150.577 272.225 149.504 270.908 149.329 269.516C149.077 271.225 150.15 272.897 152.614 274.112L234.249 314.563C239.166 316.982 247.751 316.683 253.434 313.881L298.309 277.344C301.638 275.709 303.204 273.579 302.974 271.618C302.722 273.327 301.145 275.074 298.309 276.466V276.475Z" fill="url(#paint5_radial_5233_22944)"/>
<path style="mix-blend-mode:color-dodge" opacity="0.5" d="M320.122 337.329C313.048 355.341 265.074 357.872 212.972 342.981C160.87 328.09 124.361 301.419 131.435 283.407C138.509 265.396 186.483 262.864 238.585 277.756C290.687 292.647 327.196 319.318 320.122 337.329Z" fill="url(#paint6_radial_5233_22944)"/>
<path d="M340.915 314.798L140.413 215.969C130.163 210.924 121.852 197.369 121.852 185.71V54.8854C121.852 43.2266 130.163 37.8643 140.413 42.9183L340.915 141.756C351.164 146.801 359.475 160.347 359.475 172.006V302.821C359.475 314.48 351.164 319.842 340.915 314.788V314.798Z" fill="url(#paint7_linear_5233_22944)"/>
<path d="M343.303 305.688L145.626 208.26C137.369 203.785 132.277 194.845 132.277 185.709V54.0244C132.277 51.8571 135.037 50.5119 137.227 51.6049C137.479 51.7357 137.687 51.8384 137.807 51.8945L335.692 149.443C345.515 154.273 349.041 162.858 349.041 171.995V303.259C349.041 305.585 346.095 307.042 343.73 305.884C343.544 305.79 343.39 305.725 343.292 305.669L343.303 305.688Z" fill="#0E6CBE"/>
<g style="mix-blend-mode:multiply">
<path d="M335.693 149.453L137.819 51.9042C137.699 51.8388 137.491 51.7454 137.239 51.6146C135.049 50.5216 132.289 51.8669 132.289 54.0342V185.709C132.289 194.855 137.392 203.786 145.638 208.261L343.314 305.688C343.413 305.735 343.555 305.81 343.753 305.903C346.118 307.052 349.063 305.595 349.063 303.278V172.014C349.063 162.868 345.526 154.292 335.715 149.462L335.693 149.453ZM346.961 303.269C346.961 304.044 346.194 304.52 345.483 304.52C345.231 304.52 344.99 304.464 344.76 304.352L146.667 206.719C139.221 202.684 134.359 194.416 134.359 185.709V54.0249C134.359 53.3896 134.994 52.9972 135.574 52.9972C135.782 52.9972 135.99 53.044 136.176 53.1467L334.653 150.994C344.826 156.002 346.961 165.185 346.961 172.014V303.278V303.269Z" fill="#BCBEC0"/>
</g>
<path d="M346.171 139.373L145.68 40.5355C141.628 38.5363 137.872 38.172 134.817 39.1715C134.434 39.3023 129.254 41.6472 128.893 41.8153C128.893 41.8153 128.871 41.8247 128.871 41.834C132.047 40.5168 136.055 40.7597 140.424 42.9177L340.926 141.756C351.175 146.8 359.487 160.346 359.487 172.005V302.821C359.487 310.098 356.245 314.918 351.318 316.292C351.723 316.31 352.216 316.18 352.949 315.815C353.179 315.703 358.797 312.994 359.027 312.863C362.553 310.761 364.754 306.427 364.754 300.438V169.623C364.754 157.964 356.443 144.418 346.193 139.373H346.171Z" fill="url(#paint8_linear_5233_22944)"/>
<path style="mix-blend-mode:screen" opacity="0.6" d="M341.804 141.373L141.313 42.5443C137.108 40.4704 133.243 40.1808 130.133 41.3299C132.794 40.9749 135.838 41.5167 139.09 43.1235L339.592 141.962C349.842 147.006 358.153 160.552 358.153 172.211V303.026C358.153 309.902 355.251 314.564 350.773 316.217C356.5 315.442 360.376 310.425 360.376 302.457V171.641C360.376 159.982 352.065 146.436 341.815 141.392L341.804 141.373Z" fill="url(#paint9_radial_5233_22944)"/>
<path style="mix-blend-mode:color-dodge" d="M219.772 82.7607C235.552 115.523 218.359 152.592 181.369 165.559C144.378 178.525 101.595 162.485 85.8157 129.723C70.0361 96.9605 87.2283 59.8916 124.219 46.9249C161.209 33.9583 203.993 49.9984 219.772 82.7607Z" fill="url(#paint10_radial_5233_22944)"/>
<path style="mix-blend-mode:screen" d="M343.597 109.955C343.597 117.765 336.183 124.089 327.029 124.089C317.874 124.089 310.461 117.765 310.461 109.955C310.461 102.145 317.874 95.8203 327.029 95.8203C336.183 95.8203 343.597 102.145 343.597 109.955Z" fill="url(#paint11_radial_5233_22944)"/>
<path style="mix-blend-mode:screen" d="M261.863 337.367C261.863 345.177 254.449 351.501 245.295 351.501C236.14 351.501 228.727 345.177 228.727 337.367C228.727 329.557 236.14 323.232 245.295 323.232C254.449 323.232 261.863 329.557 261.863 337.367Z" fill="url(#paint12_radial_5233_22944)"/>
<path style="mix-blend-mode:color-dodge" d="M384.88 289.629H383.774V158.813C383.774 147.323 375.573 133.936 365.487 128.966L164.996 30.137L165.544 29.3242L366.035 128.162C376.427 133.272 384.869 147.033 384.869 158.823V289.638L384.88 289.629Z" fill="url(#paint13_radial_5233_22944)"/>
<path style="mix-blend-mode:color-dodge" d="M242.582 337.87C239.363 337.87 236.275 337.319 233.975 336.179L152.34 295.729L152.898 294.916L234.534 335.367C239.275 337.702 247.587 337.403 253.106 334.713L297.937 298.214L298.703 298.896L253.719 335.498C250.543 337.067 246.459 337.87 242.593 337.87H242.582Z" fill="url(#paint14_radial_5233_22944)"/>
<g style="mix-blend-mode:color-dodge">
<path d="M94.0391 25.1113V192.949L398.658 345.074V177.152L94.0391 25.1113Z" fill="#172B66"/>
</g>
<path style="mix-blend-mode:color-dodge" opacity="0.5" d="M237.096 365C327.691 365 401.133 284.662 401.133 185.56C401.133 86.4574 327.691 6.11914 237.096 6.11914C146.501 6.11914 73.0586 86.4574 73.0586 185.56C73.0586 284.662 146.501 365 237.096 365Z" fill="url(#paint15_radial_5233_22944)"/>
<path style="mix-blend-mode:color-dodge" d="M341.419 242.901C341.419 242.901 341.397 242.901 341.386 242.901C341.113 242.883 340.894 242.705 340.872 242.471L330.973 136.253L324.227 193.931C324.205 194.164 323.975 194.342 323.702 194.351C323.45 194.36 323.187 194.192 323.143 193.968L319.967 179.198L318.106 182.225C318.04 182.337 317.92 182.421 317.777 182.459C317.635 182.496 317.482 182.477 317.35 182.412L276.691 162.383L277.239 161.57L317.405 181.356L319.737 177.563C319.847 177.386 320.066 177.293 320.307 177.321C320.537 177.349 320.723 177.498 320.767 177.694L323.526 190.549L330.502 130.975C330.535 130.732 330.754 130.573 331.049 130.555C331.334 130.555 331.564 130.742 331.586 130.984L341.66 239.127L352.994 192.399C353.049 192.174 353.268 191.997 353.552 192.025C353.826 192.034 354.045 192.212 354.067 192.436L356.443 209.887L359.52 204.375C359.586 204.253 359.706 204.169 359.849 204.132C359.991 204.095 360.155 204.104 360.287 204.169L388.835 218.229L388.287 219.042L360.254 205.234L356.618 211.755C356.509 211.942 356.268 212.054 356.038 212.017C355.797 211.979 355.611 211.82 355.578 211.606L353.377 195.416L341.956 242.509C341.901 242.724 341.682 242.882 341.419 242.882V242.901Z" fill="url(#paint16_radial_5233_22944)"/>
<path style="mix-blend-mode:color-dodge" d="M152.372 200.936C152.372 200.936 152.35 200.936 152.339 200.936C152.066 200.917 151.847 200.74 151.825 200.506L144.313 119.876L139.254 163.12C139.232 163.353 139.002 163.531 138.728 163.54C138.487 163.559 138.213 163.391 138.169 163.157L135.793 152.087L134.534 154.142C134.468 154.254 134.348 154.338 134.205 154.376C134.063 154.413 133.91 154.394 133.778 154.329L102.449 138.896L102.997 138.083L133.833 153.273L135.563 150.443C135.673 150.265 135.892 150.172 136.133 150.2C136.363 150.228 136.549 150.387 136.593 150.574L138.564 159.729L143.842 114.588C143.875 114.345 144.105 114.168 144.389 114.168C144.674 114.168 144.904 114.355 144.926 114.598L152.624 197.162L161.176 161.896C161.231 161.672 161.45 161.541 161.735 161.522C162.009 161.532 162.228 161.709 162.249 161.933L164.023 175.003L166.203 171.098C166.268 170.976 166.389 170.892 166.531 170.855C166.673 170.818 166.838 170.827 166.969 170.892L188.968 181.729L188.421 182.542L166.936 171.957L164.188 176.871C164.078 177.058 163.837 177.17 163.607 177.133C163.366 177.095 163.18 176.937 163.147 176.722L161.538 164.914L152.898 200.544C152.843 200.759 152.624 200.917 152.361 200.917L152.372 200.936Z" fill="url(#paint17_radial_5233_22944)"/>
<path style="mix-blend-mode:screen" d="M343.063 277.148L274.141 243.236L253.719 253.98V277.755L322.575 311.554V311.563H322.586H322.597V311.554L343.063 300.914V277.148Z" fill="url(#paint18_linear_5233_22944)"/>
<g opacity="0.9">
<path d="M322.574 287.939V311.565L331.291 307.277V283.502L322.574 287.939Z" fill="url(#paint19_linear_5233_22944)"/>
<path d="M322.597 287.939V311.564L253.719 277.756V253.98L322.597 287.939Z" fill="url(#paint20_linear_5233_22944)"/>
<path d="M253.719 253.981L322.597 287.939L331.291 283.501L262.381 249.59L253.719 253.981Z" fill="url(#paint21_linear_5233_22944)"/>
</g>
<path d="M278.02 271.916V274.046L316.631 293.066V290.936L278.02 271.916Z" fill="white"/>
<path d="M304.421 293.795L278.02 280.781V282.911L304.421 295.925V293.795Z" fill="white"/>
<path d="M278.02 278.483L316.631 297.494V295.364L278.02 276.344V278.483Z" fill="white"/>
<path d="M270.329 275.755C269.486 275.148 268.73 274.363 268.128 273.513C267.766 272.99 267.777 272.43 268.128 272.252C268.588 272.028 268.982 271.664 269.245 271.187C269.628 271.281 270.11 271.159 270.11 270.711C270.11 270.262 269.869 269.748 269.551 269.496C269.453 267.525 268.664 265.507 266.014 264.199C263.364 262.891 262.576 264.134 262.477 266.012C262.16 265.946 261.919 266.217 261.919 266.675C261.919 267.133 262.401 267.721 262.784 268.002C263.047 268.74 263.452 269.496 263.901 270.178C264.251 270.701 264.262 271.281 263.901 271.439C263.299 271.701 262.543 271.738 261.7 271.514C260.583 271.225 259.762 271.804 259.762 272.971V274.999C259.762 275.391 260.09 275.867 260.484 276.073L271.512 281.501C271.917 281.697 272.234 281.538 272.234 281.146V279.118C272.234 277.951 271.402 276.559 270.296 275.755H270.329Z" fill="white"/>
<path style="mix-blend-mode:screen" d="M281.861 201.17L201.003 161.289L168.699 177.647V211.138L249.491 250.916V250.935L249.502 250.925L249.513 250.935V250.916L281.861 234.661V201.17Z" fill="url(#paint22_linear_5233_22944)"/>
<g opacity="0.9">
<path d="M249.492 217.584V250.935L258.209 246.637V213.146L249.492 217.584Z" fill="url(#paint23_linear_5233_22944)"/>
<path d="M249.513 217.583V250.934L168.699 211.137V177.646L249.513 217.583Z" fill="url(#paint24_linear_5233_22944)"/>
<path d="M168.699 177.647L249.513 217.584L258.208 213.146L177.35 173.266L168.699 177.647Z" fill="url(#paint25_linear_5233_22944)"/>
</g>
<path d="M197.816 206.85V208.98L243.545 231.494V229.364L197.816 206.85Z" fill="white"/>
<path d="M231.336 232.224L197.816 215.707V217.837L231.336 234.354V232.224Z" fill="white"/>
<path d="M197.816 213.407L243.545 235.931V233.791L197.816 211.277V213.407Z" fill="white"/>
<path d="M197.816 197.984V200.114L243.545 222.638V220.499L197.816 197.984Z" fill="white"/>
<path d="M197.816 204.542L243.545 227.066V224.936L197.816 202.412V204.542Z" fill="white"/>
<path d="M189.299 208.961C188.444 208.345 187.656 207.616 186.944 206.803L183.199 208.625L179.454 203.113C178.742 203.225 177.954 203.179 177.1 202.954C175.611 202.571 174.57 203.347 174.57 204.851V206.467C174.57 206.85 174.888 207.326 175.282 207.513L191.116 215.314C191.511 215.51 191.828 215.351 191.828 214.968V213.352C191.828 211.848 190.788 210.045 189.299 208.952V208.961Z" fill="white"/>
<path d="M188.315 200.096L178.087 195.061C177.835 195.107 177.66 195.388 177.66 195.808C177.66 196.284 178.241 196.976 178.657 197.284L178.81 197.405L178.876 197.583C179.215 198.554 179.752 199.582 180.42 200.572C180.737 201.039 180.912 201.553 180.901 201.983C180.901 202.403 180.726 202.712 180.42 202.842C180.288 202.898 180.146 202.955 180.004 203.001L183.212 207.719L186.42 206.159C186.278 205.972 186.136 205.785 186.004 205.598C185.698 205.159 185.523 204.683 185.523 204.262C185.523 203.823 185.698 203.487 186.004 203.328C186.672 203.001 187.198 202.487 187.548 201.861L187.614 201.749L187.767 201.787C188.183 201.88 188.764 201.768 188.764 201.292C188.764 200.871 188.578 200.413 188.337 200.124L188.315 200.096Z" fill="white"/>
<path d="M187.647 193.341C187.603 192.902 187.242 192.398 186.815 192.183L179.588 188.624C179.15 188.409 178.788 188.558 178.755 188.96L178.219 194.584L188.195 199.498L187.658 193.341H187.647ZM185.556 195.667L184.022 194.911V196.415L182.391 195.611V194.107L180.858 193.351V191.753L182.391 192.51V191.006L184.022 191.809V193.313L185.556 194.07V195.667Z" fill="white"/>
<path style="mix-blend-mode:screen" d="M179.77 68.5885L210.617 53.6133L254.101 93.3914L248.112 110.151L266.749 158.991L226.145 176.918L175.324 136.411L185.201 105.928L179.77 68.5885Z" fill="url(#paint26_linear_5233_22944)"/>
<path d="M196.919 118.447C185.344 112.711 172.795 113.132 163.772 117.541C154.76 121.951 153.643 153.807 157.881 156.292C162.118 158.777 195.966 174.705 201.704 177.619C208.34 180.992 233.198 176.76 233.198 170.874C233.198 167.362 234.249 139.588 225.291 133.161C219.805 129.219 208.592 124.23 196.93 118.457L196.919 118.447Z" fill="url(#paint27_radial_5233_22944)"/>
<path d="M187.994 127.424L182.727 133.216L184.512 139.466L180.395 167.51L186.406 170.434L188.082 140.839L194.247 135.122L192.101 127.891L187.994 127.424Z" fill="url(#paint28_linear_5233_22944)"/>
<path style="mix-blend-mode:multiply" d="M215.402 133.628C213.431 140.625 201.747 144.221 189.307 141.671C176.867 139.111 168.392 131.376 170.363 124.379C172.334 117.382 184.018 113.785 196.458 116.336C208.897 118.886 217.373 126.63 215.402 133.628Z" fill="url(#paint29_radial_5233_22944)"/>
<path style="mix-blend-mode:multiply" opacity="0.5" d="M177.556 142.437C176.264 127.434 182.024 118.363 183.908 114.439C180.469 113.907 177.173 113.785 174.118 114.112C172.158 118.129 168.183 128.237 170.231 140.821C171.818 150.555 175.158 160.019 177.611 166.1C178.673 166.614 179.757 167.147 180.874 167.698C179.09 161.607 178.257 150.658 177.546 142.428L177.556 142.437Z" fill="url(#paint30_linear_5233_22944)"/>
<path d="M176.637 142.082C175.302 126.556 180.853 118.895 182.518 115.205C185.485 115.28 182.551 113.907 185.584 114.551C176.736 112.664 168.633 113.524 162.785 117.111C156.949 120.698 154.901 129.059 154.561 138.112C154.266 145.819 155.12 154.526 156.894 155.861C159.631 157.926 168.6 161.71 179.966 167.361C178.181 161.27 177.349 150.322 176.637 142.091V142.082Z" fill="url(#paint31_radial_5233_22944)"/>
<path d="M226.121 133.188C221.818 130.096 213.134 126.313 204.33 122.053C207.035 123.361 207.144 124.313 209.586 125.519C207.648 130.703 203.706 134.132 198.822 141.045C193.095 149.154 188.058 164.372 186.766 170.752C193.73 174.209 199.654 177.133 201.702 178.179C210.364 182.598 233.852 176.75 233.852 170.865C233.852 167.352 235.068 139.625 226.11 133.188H226.121Z" fill="url(#paint32_radial_5233_22944)"/>
<g style="mix-blend-mode:multiply">
<path d="M176.637 142.082C175.302 126.556 180.853 118.895 182.518 115.205C185.485 115.28 182.551 113.907 185.584 114.551C176.736 112.664 168.633 113.524 162.785 117.111C156.949 120.698 154.901 129.059 154.561 138.112C154.266 145.819 155.12 154.526 156.894 155.861C159.631 157.926 168.6 161.71 179.966 167.361C178.181 161.27 177.349 150.322 176.637 142.091V142.082Z" fill="url(#paint33_radial_5233_22944)"/>
<path style="mix-blend-mode:multiply" opacity="0.5" d="M160.266 135.626C160.857 128.115 162.379 121.025 165.555 115.887C161.241 119.885 159.28 127.022 158.525 134.72C157.78 142.409 158.109 151.134 159.795 152.545C160.014 152.731 160.299 152.937 160.605 153.142C159.872 148.705 159.773 141.895 160.266 135.626Z" fill="url(#paint34_linear_5233_22944)"/>
<path d="M226.121 133.188C221.818 130.096 213.134 126.313 204.33 122.053C207.035 123.361 207.144 124.313 209.586 125.519C207.648 130.703 203.706 134.132 198.822 141.045C193.095 149.154 188.058 164.372 186.766 170.752C193.73 174.209 199.654 177.133 201.702 178.179C210.364 182.598 233.852 176.75 233.852 170.865C233.852 167.352 235.068 139.625 226.11 133.188H226.121Z" fill="url(#paint35_radial_5233_22944)"/>
</g>
<path d="M184.182 116.718C180.853 117.662 178.159 122.202 178.521 127.788C178.959 134.505 181.401 136.775 181.401 136.775L188.617 127.788L192.91 139.232C192.91 139.232 199.513 137.71 203.707 134.132C207.901 130.554 211.701 127.125 209.478 124.108C206.817 120.492 188.453 115.504 184.182 116.709V116.718Z" fill="url(#paint36_radial_5233_22944)"/>
<path style="mix-blend-mode:multiply" opacity="0.5" d="M210.114 124.5C208.033 129.442 203.916 134.916 199.24 141.54C193.513 149.649 188.476 164.867 187.184 171.247C187.83 171.565 188.465 171.882 189.089 172.191C190.6 167.921 193.688 160.401 198.911 152.423C205.996 141.596 216.213 130.946 218.436 128.76C216.038 127.564 212.895 125.817 210.114 124.5Z" fill="url(#paint37_linear_5233_22944)"/>
<path d="M209.696 124.006C207.615 128.948 203.498 134.422 198.822 141.046C193.095 149.154 188.058 164.372 186.766 170.753C187.412 171.071 188.047 171.388 188.671 171.697C190.182 167.427 193.27 159.907 198.494 151.929C205.578 141.102 215.795 130.461 218.018 128.266C215.62 127.07 212.466 125.314 209.696 124.006Z" fill="url(#paint38_radial_5233_22944)"/>
<path d="M203.717 155.907H200.935C200.935 147.452 204.034 138.662 210.144 129.796C212.028 127.068 208.319 123.363 199.019 118.679L198.438 118.39C183.513 110.879 174.424 112.42 171.183 116.035C168.062 119.501 168.073 134.916 168.336 140.558L165.554 140.652C165.456 138.484 164.678 119.361 168.971 114.587C173.099 109.991 183.382 108.048 199.851 116.344L200.42 116.633C214.579 123.761 216.759 124.864 212.532 131.001C206.673 139.493 203.706 147.873 203.706 155.907H203.717Z" fill="#311B61"/>
<path d="M201.537 154.815C201.701 146.706 204.756 138.289 210.626 129.778C213.867 125.07 213.319 124.799 199.204 117.69L198.624 117.4C191.539 113.832 184.991 111.945 179.691 111.945C175.519 111.945 172.179 113.112 170.273 115.224C166.758 119.138 167.109 135.832 167.229 139.503L166.112 139.541C165.795 131.656 166.156 118.25 169.386 114.654C171.511 112.281 175.157 110.982 179.647 110.982C185.21 110.982 191.78 112.869 199.182 116.597L199.752 116.887C214.272 124.201 215.291 124.883 211.567 130.274C205.808 138.625 202.807 146.884 202.632 154.824H201.515L201.537 154.815Z" fill="#3F237D"/>
<path d="M201.845 154.31C202.097 146.378 205.13 138.139 210.868 129.815C214.328 124.798 213.474 124.378 199.304 117.241L198.724 116.951C191.573 113.345 184.959 111.449 179.583 111.449C175.279 111.449 171.819 112.663 169.837 114.868C166.387 118.707 166.541 133.879 166.694 139.017H166.409C166.136 131.45 166.508 118.175 169.618 114.718C171.665 112.439 175.192 111.178 179.55 111.178C185.036 111.178 191.54 113.046 198.877 116.746L199.447 117.035C214.142 124.434 214.58 124.91 211.12 129.936C205.415 138.223 202.392 146.425 202.14 154.319H201.867L201.845 154.31Z" fill="#522EA3"/>
<path d="M176.637 142.082C175.345 127.079 181.105 118.008 182.988 114.093C179.55 113.561 176.254 113.449 173.199 113.766C171.25 117.783 167.275 127.901 169.311 140.475C170.899 150.209 174.239 159.673 176.692 165.754C177.754 166.268 178.838 166.801 179.955 167.361C178.17 161.27 177.338 150.322 176.626 142.091L176.637 142.082Z" fill="url(#paint39_radial_5233_22944)"/>
<path d="M163.258 139.717C163.258 137.755 164.878 136.971 166.882 137.952C168.886 138.932 170.507 141.324 170.507 143.286C170.507 145.248 168.886 146.032 166.882 145.051C164.878 144.071 163.258 141.679 163.258 139.717Z" fill="#311B61"/>
<path d="M223.286 132.478C218.129 133.468 211.69 138.018 210.639 146.435C209.664 154.245 210.135 172.985 210.135 172.985C210.135 172.985 206.675 148.34 210.299 140.615C214.187 132.328 221.118 131.385 221.118 131.385L223.286 132.468V132.478Z" fill="#E6E7E8"/>
<path d="M210.345 183.122H208.254V165.905C208.254 162.327 205.275 157.955 201.618 156.152C200.03 155.376 198.606 155.217 197.588 155.722C196.58 156.217 196.033 157.329 196.033 158.861V176.087H193.941V158.861C193.941 156.665 194.861 155.002 196.548 154.18C198.234 153.349 200.402 153.498 202.669 154.61C206.972 156.731 210.345 161.691 210.345 165.905V183.122Z" fill="#6B24D6"/>
<path d="M194.991 177.563C194.027 177.563 193.25 176.9 193.25 176.078V175.06C193.25 174.237 194.027 173.574 194.991 173.574C195.955 173.574 196.732 174.237 196.732 175.06V176.078C196.732 176.9 195.955 177.563 194.991 177.563Z" fill="#6B24D6"/>
<path d="M209.304 184.606C208.34 184.606 207.562 183.943 207.562 183.121V182.103C207.562 181.28 208.34 180.617 209.304 180.617C210.267 180.617 211.045 181.28 211.045 182.103V183.121C211.045 183.943 210.267 184.606 209.304 184.606Z" fill="#6B24D6"/>
<path d="M209.305 167.09C208.539 167.09 207.915 166.557 207.915 165.904C207.915 162.484 204.958 158.131 201.454 156.403C200.008 155.693 198.661 155.534 197.774 155.973C196.898 156.403 196.395 157.458 196.395 158.86C196.395 159.514 195.771 160.046 195.004 160.046C194.237 160.046 193.613 159.514 193.613 158.86C193.613 156.562 194.599 154.805 196.384 153.918C198.191 153.03 200.479 153.189 202.844 154.348C207.247 156.515 210.696 161.588 210.696 165.904C210.696 166.557 210.072 167.09 209.305 167.09Z" fill="#311B61"/>
<path d="M208.953 166.277C208.646 166.277 208.394 166.062 208.394 165.801C208.394 162.157 205.24 157.524 201.517 155.683C200.488 155.179 199.481 154.908 198.583 154.908C197.991 154.908 197.455 155.02 196.995 155.244C195.856 155.805 195.199 157.085 195.199 158.747C195.199 159.009 194.947 159.224 194.64 159.224C194.334 159.224 194.082 159.009 194.082 158.747C194.082 156.711 194.925 155.17 196.436 154.422C197.071 154.114 197.794 153.955 198.572 153.955C199.667 153.955 200.838 154.263 202.065 154.861C206.237 156.916 209.5 161.718 209.5 165.801C209.5 166.062 209.248 166.277 208.942 166.277H208.953Z" fill="#3F237D"/>
<path d="M208.955 165.922C208.878 165.922 208.812 165.866 208.812 165.801C208.812 162.045 205.571 157.272 201.727 155.375C200.632 154.843 199.548 154.553 198.585 154.553C197.917 154.553 197.314 154.684 196.8 154.936C195.518 155.562 194.785 156.954 194.785 158.748C194.785 158.813 194.719 158.869 194.642 158.869C194.566 158.869 194.5 158.813 194.5 158.748C194.5 156.842 195.267 155.412 196.646 154.731C197.216 154.45 197.873 154.301 198.574 154.301C199.592 154.301 200.698 154.59 201.859 155.16C205.91 157.159 209.086 161.821 209.086 165.791C209.086 165.857 209.02 165.913 208.944 165.913L208.955 165.922Z" fill="#522EA3"/>
<path d="M194.991 177.563C194.027 177.563 193.25 176.9 193.25 176.078V175.06C193.25 174.237 194.027 173.574 194.991 173.574C195.955 173.574 196.732 174.237 196.732 175.06V176.078C196.732 176.9 195.955 177.563 194.991 177.563Z" fill="#311B61"/>
<path d="M194.708 176.432C194.281 176.432 193.941 176.142 193.941 175.778V174.759C193.941 174.395 194.281 174.105 194.708 174.105C195.135 174.105 195.474 174.395 195.474 174.759V175.778C195.474 176.142 195.135 176.432 194.708 176.432Z" fill="#3F237D"/>
<path d="M194.411 175.787C194.291 175.787 194.203 175.713 194.203 175.61V174.592C194.203 174.489 194.291 174.414 194.411 174.414C194.532 174.414 194.619 174.489 194.619 174.592V175.61C194.619 175.703 194.532 175.787 194.411 175.787Z" fill="#522EA3"/>
<path d="M209.304 184.606C208.34 184.606 207.562 183.943 207.562 183.121V182.103C207.562 181.28 208.34 180.617 209.304 180.617C210.267 180.617 211.045 181.28 211.045 182.103V183.121C211.045 183.943 210.267 184.606 209.304 184.606Z" fill="#311B61"/>
<path d="M209.009 183.484C208.582 183.484 208.242 183.195 208.242 182.83V181.812C208.242 181.448 208.582 181.158 209.009 181.158C209.436 181.158 209.775 181.448 209.775 181.812V182.83C209.775 183.195 209.436 183.484 209.009 183.484Z" fill="#3F237D"/>
<path d="M208.724 182.83C208.603 182.83 208.516 182.756 208.516 182.653V181.635C208.516 181.541 208.603 181.457 208.724 181.457C208.844 181.457 208.932 181.532 208.932 181.635V182.653C208.932 182.756 208.844 182.83 208.724 182.83Z" fill="#522EA3"/>
<path d="M168.654 141.474C168.654 142.669 167.669 143.146 166.442 142.548C165.227 141.95 164.23 140.493 164.23 139.297C164.23 138.101 165.216 137.625 166.442 138.223C167.658 138.821 168.654 140.278 168.654 141.474Z" fill="#3F237D"/>
<path d="M168.229 140.567C168.229 141.763 167.243 142.24 166.017 141.642C164.801 141.044 163.805 139.586 163.805 138.391C163.805 137.195 164.79 136.718 166.017 137.316C167.232 137.914 168.229 139.372 168.229 140.567Z" fill="#522EA3"/>
<path style="mix-blend-mode:screen" d="M192.91 139.243L188.617 127.789L181.401 136.786L180.766 135.347L188.595 127.107L193.829 138.888L192.91 139.243Z" fill="url(#paint40_radial_5233_22944)"/>
<path d="M170.394 85.8711C168.708 92.0929 169.037 110.711 174.523 114.691C178.87 117.839 182.768 115.765 183.031 120.334C183.294 124.902 181.038 125.332 184.323 127.34C187.466 129.265 205.578 127.873 205.14 122.977C204.724 118.381 203.53 116.737 206.027 112.468C208.524 108.198 215.762 101.341 214.689 95.2505C213.616 89.1502 176.373 63.8615 170.383 85.8805L170.394 85.8711Z" fill="url(#paint41_radial_5233_22944)"/>
<path d="M167.538 85.0685C164.669 84.1249 164.274 77.38 178.849 69.0657C190.052 62.6758 212.051 63.9463 218.567 76.7915C225.334 90.1505 219.169 97.5026 214.033 107.162C210.934 112.982 205.404 113.832 205.404 113.832C205.404 113.832 207.704 107.919 209.697 105.752C212.61 102.594 214.723 98.4275 212.467 96.0079C211.219 94.6627 209.248 93.934 206.521 96.2601C201.999 100.118 197.235 87.4693 185.847 85.4795C176.243 83.8073 170.429 86.0027 167.538 85.0591V85.0685Z" fill="url(#paint42_linear_5233_22944)"/>
<path style="mix-blend-mode:multiply" opacity="0.8" d="M186.166 118.055C184.841 118.092 183.516 118.045 181.512 117.531C182.399 117.989 182.957 118.765 183.045 120.325C183.308 124.893 181.052 125.323 184.337 127.331C185.465 128.022 188.575 128.415 192.068 128.415C197.149 124.033 196.755 116.803 196.755 116.803C196.755 116.803 190.184 117.952 186.177 118.064L186.166 118.055Z" fill="url(#paint43_linear_5233_22944)"/>
<path style="mix-blend-mode:screen" opacity="0.6" d="M171.197 86.3374C171.197 86.3374 169.642 99.304 171.865 104.517C174.088 109.72 187.064 97.6038 188.509 92.6806C189.955 87.7574 184.512 83.3106 171.197 86.3374Z" fill="url(#paint44_linear_5233_22944)"/>
<path style="mix-blend-mode:multiply" opacity="0.5" d="M205.405 113.831C205.405 113.831 210.935 112.971 214.034 107.161C219.181 97.5104 226.244 90.1396 219.466 76.7806C219.017 75.9024 218.491 75.0616 217.9 74.2676C214.439 75.1831 210.497 77.0235 208.701 80.7509C206.763 84.7773 201.726 88.9718 197.543 91.9613C201.365 95.3991 203.982 98.4352 206.533 96.2679C209.26 93.9418 211.231 94.6704 212.479 96.0157C214.724 98.4259 212.611 102.602 209.709 105.759C207.716 107.917 205.416 113.84 205.416 113.84L205.405 113.831Z" fill="url(#paint45_linear_5233_22944)"/>
<path style="mix-blend-mode:multiply" opacity="0.5" d="M208.734 102.192C208.734 102.192 212.644 98.7172 211.231 96.9423C209.818 95.1673 207.398 97.8671 207.398 97.8671L208.734 102.202V102.192Z" fill="url(#paint46_linear_5233_22944)"/>
<path style="mix-blend-mode:multiply" opacity="0.5" d="M187.433 83.8149C181.487 82.6098 170.307 84.3848 166.047 82.6191C166.189 83.927 166.759 84.8145 167.547 85.0667C170.438 86.0103 176.253 83.8056 185.856 85.4871C194.266 86.9538 199.062 94.2405 202.818 96.3892C202.03 94.9319 193.565 85.0481 187.433 83.8149Z" fill="url(#paint47_linear_5233_22944)"/>
<path style="mix-blend-mode:screen" d="M298.955 170.724L277.065 159.85L252.887 171.602V192.126L274.711 202.879V202.888H274.722H274.733V202.879L298.955 191.239V170.724Z" fill="url(#paint48_linear_5233_22944)"/>
<g opacity="0.9">
<path d="M274.711 182.533V202.889L284.632 198.013V177.488L274.711 182.533Z" fill="#0A5791"/>
<path d="M274.733 182.532V202.888L252.887 192.126V171.602L274.733 182.532Z" fill="#0A5791"/>
<path d="M252.887 171.602L274.733 182.532L284.632 177.487L262.731 166.613L252.887 171.602Z" fill="#0E85DA"/>
</g>
<path d="M268.118 192.024C268.118 194.341 266.202 195.266 263.836 194.107C261.471 192.94 259.555 190.128 259.555 187.811C259.555 185.494 263.836 180.842 263.836 180.842C263.836 180.842 268.118 189.707 268.118 192.024Z" fill="white"/>
<path style="mix-blend-mode:screen" d="M298.955 143.417L277.065 132.543L252.887 144.305V164.819L274.711 175.572V175.591L274.722 175.581L274.733 175.591V175.572L298.955 163.941V143.417Z" fill="url(#paint49_linear_5233_22944)"/>
<g opacity="0.9">
<path d="M274.711 155.236V175.592L284.632 170.706V150.182L274.711 155.236Z" fill="#0E85DA"/>
<path d="M274.733 155.235V175.591L252.887 164.82V144.305L274.733 155.235Z" fill="#0A5791"/>
<path d="M252.887 144.305L274.733 155.235L284.632 150.181L262.731 139.307L252.887 144.305Z" fill="#0E85DA"/>
</g>
<path d="M267.121 156.272C265.763 155.599 264.58 155.824 263.989 156.711C263.398 155.244 262.215 153.862 260.857 153.189C258.908 152.227 257.32 153.096 257.32 155.132C257.32 158.85 263.989 166.735 263.989 166.735C263.989 166.735 270.658 165.418 270.658 161.7C270.658 159.663 269.07 157.234 267.121 156.272Z" fill="white"/>
<path style="mix-blend-mode:screen" d="M298.955 115.466L277.065 104.592L252.887 116.344V136.868L274.711 147.621V147.63H274.722H274.733V147.621L298.955 135.981V115.466Z" fill="url(#paint50_linear_5233_22944)"/>
<g opacity="0.9">
<path d="M274.711 127.275V147.631L284.632 142.755V122.23L274.711 127.275Z" fill="#0A5791"/>
<path d="M274.733 127.274V147.63L252.887 136.868V116.344L274.733 127.274Z" fill="#0E85DA"/>
<path d="M252.887 116.344L274.733 127.274L284.632 122.23L262.731 111.355L252.887 116.344Z" fill="#0E85DA"/>
</g>
<path d="M270.45 133.206L266.146 131.086V126.873L261.58 124.621V128.834L257.266 126.714V131.188L261.58 133.309V137.532L266.146 139.774V135.561L270.45 137.681V133.206Z" fill="white"/>
<path style="mix-blend-mode:color-dodge" d="M209.421 67.2812C213.549 74.2223 201.515 86.507 182.549 94.7279C163.582 102.939 144.846 103.967 140.718 97.026C136.59 90.0849 148.613 77.8002 167.59 69.5793C186.556 61.3677 205.293 60.3401 209.421 67.2812Z" fill="url(#paint51_radial_5233_22944)"/>
<path style="mix-blend-mode:color-dodge" d="M238.562 147.995C240.171 158.065 236.043 166.866 229.342 167.65C222.64 168.435 215.894 160.905 214.274 150.835C212.664 140.764 216.792 131.964 223.494 131.179C230.196 130.394 236.941 137.924 238.562 148.004V147.995Z" fill="url(#paint52_radial_5233_22944)"/>
</g>
<path d="M310.028 330.76L198.197 275.683V272.935L448.785 259.678V262.414L310.028 330.76Z" fill="#093B66"/>
<path d="M310.028 328.013L198.197 272.936L336.954 204.59L448.785 259.679L310.028 328.013Z" fill="#135E9C"/>
<path d="M221.177 269.821L342.423 210.111L436.742 256.564L315.496 316.285L221.177 269.821Z" fill="white"/>
<g style="mix-blend-mode:multiply">
<path d="M358.519 223.141L368.406 218.271L412.316 239.892L402.429 244.762L358.519 223.141Z" fill="white"/>
</g>
<path d="M402.43 244.761C387.793 237.558 373.156 230.343 358.519 223.14C358.894 222.346 359.853 222.678 359.853 222.678C374.489 229.881 387.751 236.421 402.388 243.636C402.388 243.636 401.735 243.944 402.416 244.773L402.43 244.761Z" fill="#49A7FB"/>
<path d="M368.472 228.045C365.153 226.41 361.834 224.776 358.515 223.141C358.501 220.44 362.931 218.26 368.403 218.272C371.721 219.906 375.04 221.541 378.359 223.176C372.874 223.176 368.458 225.344 368.472 228.045Z" fill="#82CAFC"/>
<path d="M402.429 244.76C399.11 243.125 395.791 241.49 392.472 239.856C392.458 237.154 396.888 234.975 402.36 234.986C405.678 236.621 408.997 238.256 412.316 239.891C406.845 239.891 402.415 242.059 402.429 244.76Z" fill="#82CAFC"/>
<path d="M403.762 242.297C389.125 235.094 374.489 227.88 359.852 220.677C361.56 219.231 364.754 218.26 368.406 218.272C383.043 225.475 397.68 232.689 412.316 239.893C408.664 239.893 405.484 240.852 403.762 242.297Z" fill="#A4E3FF"/>
<path d="M363.16 219.078C363.632 219.018 364.132 218.971 364.659 218.947L406.848 240.319C406.542 240.45 406.237 240.592 405.959 240.746L363.16 219.078Z" fill="white"/>
<path d="M428.549 286.563C428.549 286.622 428.493 286.658 428.438 286.622C428.368 286.587 428.326 286.515 428.326 286.456C428.326 286.397 428.382 286.361 428.438 286.397C428.493 286.433 428.549 286.504 428.562 286.563C428.493 286.527 428.41 286.527 428.396 286.527C428.396 286.527 428.493 286.527 428.562 286.563H428.549Z" fill="#FFA15C"/>
<path d="M427.869 287.557C427.772 287.628 427.619 287.628 427.452 287.557C427.147 287.414 426.897 287.047 426.883 286.739C426.883 286.561 426.966 286.455 427.091 286.407C427.702 286.218 428.022 286.206 428.175 286.23C428.577 286.301 428.619 286.573 428.633 286.656C428.563 286.49 428.508 286.419 428.438 286.384C428.369 286.348 428.327 286.384 428.327 286.443C428.327 286.502 428.383 286.585 428.438 286.609C428.508 286.644 428.549 286.609 428.549 286.55C428.619 286.893 428.383 287.166 427.869 287.545V287.557Z" fill="#FFA15C"/>
<path d="M428.633 286.668C428.633 286.763 428.633 287.035 427.869 287.568C427.952 287.509 427.994 287.402 427.994 287.272C428.494 286.952 428.633 286.775 428.633 286.668Z" fill="#217FD5"/>
<path d="M427.091 286.407C427.314 286.336 427.841 286.17 428.188 286.229C428.619 286.3 428.633 286.62 428.633 286.656C428.633 286.762 428.494 286.94 427.994 287.26C427.994 286.952 427.744 286.597 427.425 286.443C427.3 286.383 427.189 286.372 427.091 286.395V286.407Z" fill="#49A7FB"/>
<path d="M425.959 288.953C425.806 289.06 425.556 289.072 425.292 288.953C424.806 288.728 424.403 288.148 424.403 287.674C424.403 287.401 424.528 287.212 424.723 287.152C424.764 287.141 425.667 286.88 427.097 286.418C426.972 286.454 426.889 286.572 426.889 286.75C426.889 287.058 427.139 287.413 427.458 287.567C427.625 287.65 427.778 287.65 427.875 287.567C426.695 288.396 425.986 288.93 425.959 288.965V288.953Z" fill="#FFA15C"/>
<path d="M427.875 287.555C427.653 287.709 427.375 287.91 426.945 288.218C426.792 288.325 426.639 288.443 426.486 288.55C426.306 288.68 426.139 288.811 425.959 288.941C426 288.917 426.695 288.372 427.875 287.543V287.555Z" fill="#FFA15C"/>
<path d="M425.973 288.953C425.973 288.953 426.695 288.396 427.875 287.566C427.611 287.756 427.347 287.946 427.083 288.135C426.889 288.277 426.681 288.419 426.486 288.562L425.959 288.953H425.973Z" fill="#FFA15C"/>
<path d="M427.098 286.406C425.667 286.868 424.779 287.129 424.723 287.141C424.959 287.07 425.181 287.01 425.403 286.939C425.653 286.868 425.889 286.785 426.139 286.714C426.459 286.62 426.778 286.513 427.098 286.406Z" fill="#FFA15C"/>
<path d="M424.731 287.141C424.731 287.141 425.342 286.963 425.384 286.951C425.689 286.856 425.995 286.762 426.287 286.667C426.55 286.584 426.814 286.501 427.078 286.418C425.662 286.88 424.773 287.129 424.717 287.141H424.731Z" fill="#FFA15C"/>
<path d="M427.885 287.556C426.705 288.385 426.01 288.918 425.969 288.954C426.094 288.859 426.163 288.705 426.149 288.504C426.191 288.48 426.857 288.018 427.996 287.271C427.996 287.402 427.954 287.497 427.885 287.556Z" fill="#217FD5"/>
<path d="M426.145 288.493C426.145 288.967 425.77 289.168 425.284 288.943C424.798 288.718 424.395 288.137 424.395 287.663C424.395 287.19 424.77 286.988 425.256 287.213C425.742 287.438 426.145 288.019 426.145 288.493ZM426.103 288.469C426.103 288.007 425.714 287.462 425.256 287.249C424.798 287.024 424.423 287.225 424.436 287.675C424.436 288.137 424.825 288.682 425.284 288.896C425.742 289.109 426.117 288.919 426.103 288.469Z" fill="#FFA15C"/>
<path d="M426.105 288.479C426.105 288.929 425.744 289.131 425.286 288.906C424.828 288.68 424.439 288.135 424.439 287.685C424.439 287.223 424.8 287.034 425.258 287.259C425.717 287.484 426.105 288.029 426.105 288.479Z" fill="#FFA15C"/>
<path d="M424.733 287.142C424.733 287.142 425.677 286.87 427.093 286.408C427.191 286.384 427.302 286.396 427.427 286.455C427.732 286.597 427.982 286.965 427.996 287.273C426.857 288.007 426.191 288.481 426.149 288.505C426.149 288.031 425.746 287.45 425.26 287.225C425.066 287.131 424.872 287.107 424.733 287.154V287.142Z" fill="#49A7FB"/>
<path d="M426.109 288.481C426.109 288.931 425.748 289.133 425.29 288.907C424.832 288.682 424.443 288.137 424.443 287.687C424.443 287.225 424.804 287.036 425.262 287.261C425.721 287.486 426.109 288.031 426.109 288.481Z" fill="#FFC69C"/>
<path d="M414.377 298.718C413.697 299.203 412.669 299.227 411.503 298.67C409.42 297.675 407.698 295.199 407.67 293.138C407.656 291.953 408.198 291.171 409.045 290.898C411.128 290.235 413.211 289.572 415.294 288.908C418.034 288.039 419.599 287.55 419.987 287.439C421.723 286.965 422.57 286.882 422.848 286.859C423.973 286.74 424.667 286.823 425.223 287.119C425.514 287.273 425.778 287.558 425.903 287.747C425.987 287.866 425.987 287.877 426.056 287.996C426.056 287.996 426.098 288.079 426.125 288.174C426.209 288.399 426.209 288.553 426.223 288.671C426.223 288.576 426.181 288.517 426.112 288.482C426.112 288.02 425.723 287.475 425.264 287.261C424.806 287.036 424.431 287.238 424.445 287.688C424.445 288.15 424.834 288.695 425.292 288.908C425.751 289.121 426.125 288.932 426.112 288.482C426.181 288.517 426.223 288.576 426.223 288.671C426.223 289.074 426.07 289.477 425.667 290.022C425.278 290.579 424.57 291.254 424.07 291.669C423.376 292.261 423.029 292.51 422.293 293.043C422.251 293.066 414.419 298.658 414.349 298.718H414.377Z" fill="#FFC69C"/>
<path d="M422.326 293.053C420.618 294.285 417.98 296.157 417.466 296.524C416.438 297.259 415.41 297.993 414.383 298.728C414.924 298.337 415.244 297.662 415.23 296.75C415.48 296.584 420.354 293.397 422.895 291.738C425.534 290.009 426.242 289.073 426.242 288.682C426.242 288.942 426.214 289.487 425.298 290.518C424.617 291.276 423.618 292.129 422.326 293.053Z" fill="#2895EE"/>
<path d="M409.05 290.898C409.328 290.815 409.606 290.72 409.87 290.637C410.106 290.566 410.439 290.459 410.675 290.376C411.189 290.211 411.717 290.045 412.23 289.879C412.633 289.749 413.022 289.63 413.425 289.5C413.605 289.441 413.855 289.358 414.05 289.298C415.619 288.801 417.188 288.303 418.757 287.806C421.007 287.095 422.201 286.941 422.784 286.858C423.076 286.822 423.673 286.763 424.312 286.834C424.798 286.882 425.131 287.047 425.228 287.107C425.728 287.367 426.228 287.983 426.242 288.659C426.242 289.05 425.534 289.985 422.895 291.715C420.354 293.374 415.494 296.561 415.23 296.726C415.202 294.665 413.48 292.189 411.397 291.194C410.508 290.767 409.689 290.684 409.05 290.886V290.898Z" fill="#135E9C"/>
<path d="M414.089 293.564C413.673 292.83 413.714 293.09 413.103 292.474L419.603 289.737C421.519 289.133 422.547 288.979 423.074 288.908C422.699 289.204 422.172 289.595 421.436 290.081C420.13 290.934 415.686 292.522 414.103 293.564H414.089Z" fill="#2895EE"/>
<path d="M415.226 296.739C415.254 298.8 413.588 299.665 411.505 298.682C409.422 297.687 407.7 295.211 407.672 293.149C407.644 291.088 409.31 290.223 411.393 291.206C413.476 292.202 415.198 294.678 415.226 296.739Z" fill="#FFC69C"/>
<path d="M415.218 296.739C415.246 298.8 413.58 299.665 411.497 298.682C409.414 297.687 407.692 295.211 407.664 293.149C407.636 291.088 409.303 290.223 411.386 291.206C413.469 292.202 415.191 294.678 415.218 296.739Z" fill="#217FD5"/>
<path d="M380.15 316.44C379.386 316.831 378.317 316.795 377.137 316.227C374.762 315.101 372.804 312.27 372.762 309.924C372.748 308.716 373.234 307.863 374.04 307.483C378.095 305.529 383.302 303.053 389.524 300.091C391.69 299.06 393.87 298.029 396.037 296.999C398.953 295.625 401.869 294.238 404.785 292.864C406.118 292.236 407.452 291.608 408.771 290.98C408.063 291.312 407.618 292.059 407.632 293.125C407.66 295.186 409.382 297.662 411.465 298.657C412.506 299.155 413.451 299.179 414.117 298.835C412.826 299.51 411.52 300.186 410.229 300.861C407.715 302.176 401.744 305.28 401.688 305.304C398.078 307.175 394.481 309.047 390.871 310.907C386.024 313.407 383.066 314.923 380.122 316.428L380.15 316.44Z" fill="#217FD5"/>
<path d="M381.39 314.026C381.418 316.384 379.529 317.367 377.141 316.241C374.766 315.116 372.808 312.285 372.767 309.939C372.739 307.581 374.627 306.598 377.016 307.723C379.391 308.849 381.349 311.68 381.39 314.026Z" fill="#FFA15C"/>
<path d="M381.39 314.026C381.418 316.384 379.529 317.367 377.141 316.241C374.766 315.116 372.808 312.285 372.767 309.939C372.739 307.581 374.627 306.598 377.016 307.723C379.391 308.849 381.349 311.68 381.39 314.026Z" fill="#217FD5"/>
<path d="M376.034 318.538C375.256 318.929 374.187 318.893 372.992 318.324C370.59 317.187 368.618 314.332 368.59 311.963C368.576 310.742 369.062 309.889 369.882 309.498C370.548 309.178 371.215 308.859 371.881 308.527C372.312 308.314 372.742 308.112 373.173 307.911C373.326 307.84 373.465 307.769 373.617 307.698C373.687 307.662 373.77 307.627 373.839 307.591C373.909 307.555 373.992 307.484 374.062 307.484C373.256 307.875 372.77 308.716 372.784 309.925C372.812 312.282 374.77 315.102 377.158 316.228C378.339 316.784 379.408 316.832 380.172 316.441C378.797 317.14 377.422 317.839 376.047 318.538H376.034Z" fill="#FFA15C"/>
<path d="M414.149 298.847C412.631 299.645 410.863 300.565 408.844 301.608C407.747 302.176 406.636 302.757 405.539 303.325C404.262 303.989 402.998 304.652 401.72 305.304C395.18 308.704 393.749 309.438 388.667 312.057C386.945 312.945 383.542 314.699 380.154 316.428C380.932 316.025 381.404 315.196 381.39 314.011C394.555 307.342 414.177 297.26 415.218 296.727C415.232 297.757 414.83 298.492 414.149 298.847Z" fill="#217FD5"/>
<path d="M374.052 307.486C376.733 306.194 380.079 304.595 387.273 301.171C390.203 299.785 393.119 298.399 396.049 297.013C398.854 295.686 403.34 293.565 406.048 292.286C406.964 291.859 407.867 291.433 408.783 290.994C409.45 290.675 410.367 290.722 411.366 291.208C413.449 292.203 415.171 294.679 415.199 296.74C414.172 297.273 394.549 307.355 381.371 314.025C381.343 311.668 379.385 308.848 376.996 307.723C375.844 307.178 374.788 307.118 374.025 307.486H374.052Z" fill="#49A7FB"/>
<path d="M379.876 310.246C379.529 309.724 379.14 309.227 378.71 308.753C380.515 307.888 386.5 305.471 389.236 304.168C392.166 302.782 395.082 301.396 398.012 300.01C400.817 298.683 405.303 296.562 408.011 295.295L412.816 292.605C413.052 292.795 413.288 293.044 413.496 293.316C408.316 295.982 389.736 305.246 379.876 310.258V310.246Z" fill="#A4E3FF"/>
<path d="M380.154 316.442C378.78 317.141 377.405 317.84 376.03 318.539C376.822 318.136 377.294 317.295 377.28 316.099C378.53 315.471 379.918 314.772 381.39 314.025C381.404 315.21 380.932 316.051 380.154 316.442Z" fill="#2895EE"/>
<path d="M377.285 316.097C377.313 318.467 375.396 319.474 372.994 318.325C370.591 317.187 368.619 314.332 368.592 311.963C368.564 309.593 370.48 308.586 372.883 309.735C375.285 310.873 377.257 313.728 377.285 316.097Z" fill="#217FD5"/>
<path d="M377.285 316.097C377.313 318.467 375.396 319.474 372.994 318.325C370.591 317.187 368.619 314.332 368.592 311.963C368.564 309.593 370.48 308.586 372.883 309.735C375.285 310.873 377.257 313.728 377.285 316.097Z" fill="#FFA15C"/>
<path d="M369.88 309.499C369.88 309.499 373.38 307.805 374.06 307.485C374.824 307.118 375.865 307.165 377.032 307.71C379.407 308.836 381.365 311.667 381.406 314.013C379.934 314.759 378.546 315.458 377.296 316.086C377.268 313.717 375.282 310.862 372.894 309.724C371.727 309.168 370.672 309.12 369.894 309.499H369.88Z" fill="#135E9C"/>
<path d="M338.743 336.237C338.076 336.545 337.16 336.509 336.16 336.024C334.077 335.029 332.355 332.552 332.327 330.491C332.313 329.46 332.716 328.726 333.396 328.382C337.201 326.392 341.006 324.402 344.825 322.411C346.77 321.393 348.714 320.386 350.644 319.367C351.991 318.668 353.352 317.957 354.699 317.258C356.49 316.322 361.24 313.846 364.406 312.211C364.406 312.211 365.392 311.713 365.406 311.702C365.822 311.488 366.239 311.287 366.669 311.074C367.169 310.825 367.669 310.576 368.169 310.339C368.739 310.055 369.322 309.782 369.891 309.498C369.086 309.889 368.586 310.742 368.613 311.962C368.641 314.332 370.627 317.187 373.016 318.324C374.21 318.893 375.279 318.928 376.043 318.537C375.474 318.822 374.904 319.118 374.335 319.402C373.835 319.651 373.335 319.9 372.835 320.149C372.419 320.362 371.988 320.563 371.571 320.776C371.391 320.859 370.946 321.085 370.572 321.262C367.253 322.826 363.948 324.402 360.629 325.966C357.254 327.553 353.866 329.152 350.491 330.74C347.811 331.996 345.117 333.263 342.437 334.519C341.215 335.1 339.979 335.668 338.757 336.249L338.743 336.237Z" fill="#217FD5"/>
<path d="M370.558 321.263C370.558 321.263 365.794 323.526 358.532 326.938C355.851 328.205 353.157 329.461 350.477 330.729C350.408 330.764 339.604 335.835 338.743 336.238C339.465 335.906 339.895 335.16 339.882 334.082C340.867 333.608 359.712 324.628 371.863 318.787C372.988 318.242 374.89 317.294 377.293 316.098C377.307 317.294 376.834 318.147 376.043 318.538C375.224 318.953 374.099 319.521 372.835 320.149C372.016 320.564 371.377 320.872 371.349 320.884C371.085 321.014 370.821 321.133 370.571 321.263H370.558Z" fill="#217FD5"/>
<path d="M333.383 328.382C335.008 327.529 336.633 326.676 338.271 325.823C340.91 324.437 342.382 323.667 344.812 322.399C347.784 320.847 353.63 317.791 356.713 316.191C360.157 314.403 363.976 312.412 364.393 312.199C364.865 311.95 365.267 311.761 365.615 311.583C365.962 311.417 366.295 311.239 366.642 311.074C367.253 310.777 367.864 310.469 368.475 310.173C368.934 309.948 369.406 309.723 369.864 309.498C370.642 309.119 371.697 309.166 372.863 309.723C375.266 310.86 377.238 313.715 377.266 316.085C374.877 317.293 372.975 318.229 371.836 318.774C359.685 324.615 340.854 333.595 339.854 334.069C339.827 332.007 338.105 329.531 336.022 328.536C334.98 328.039 334.036 328.015 333.355 328.358L333.383 328.382Z" fill="#49A7FB"/>
<path d="M339.094 330.715C338.872 330.407 338.65 330.111 338.4 329.839C340.414 328.784 344.844 326.427 346.913 325.337C349.885 323.785 355.731 320.728 358.814 319.129C362.258 317.34 366.063 315.362 366.479 315.148C366.938 314.911 367.326 314.722 367.66 314.556C367.993 314.39 368.326 314.224 368.66 314.058C369.271 313.762 369.868 313.466 370.479 313.17C370.687 313.063 374.659 311.298 374.867 311.191C375.436 311.535 375.992 312.127 376.395 312.779C375.214 313.371 370.534 315.492 369.868 315.812C361.077 320.041 345.607 327.611 339.081 330.727L339.094 330.715Z" fill="#82CAFC"/>
<path d="M339.882 334.081C339.91 336.142 338.244 337.007 336.161 336.024C334.078 335.029 332.356 332.552 332.328 330.491C332.3 328.43 333.967 327.565 336.05 328.548C338.133 329.543 339.855 332.019 339.882 334.081Z" fill="#217FD5"/>
<path d="M339.882 334.081C339.91 336.142 338.244 337.007 336.161 336.024C334.078 335.029 332.356 332.552 332.328 330.491C332.3 328.43 333.967 327.565 336.05 328.548C338.133 329.543 339.855 332.019 339.882 334.081Z" fill="#F4B082"/>
<path d="M328.465 341.332C327.799 341.664 326.869 341.628 325.841 341.142C323.758 340.147 322.036 337.671 322.008 335.61C321.994 334.567 322.411 333.821 323.105 333.477L333.409 328.371C332.715 328.715 332.298 329.449 332.312 330.504C332.34 332.565 334.062 335.041 336.145 336.036C337.173 336.522 338.089 336.557 338.77 336.226C335.673 337.754 331.548 339.804 328.465 341.332Z" fill="#F4B082"/>
<path d="M326.051 338.251C326.051 338.796 325.62 339.033 325.051 338.772C324.495 338.512 324.037 337.848 324.023 337.303C324.023 336.758 324.454 336.521 325.023 336.782C325.579 337.042 326.037 337.706 326.051 338.263V338.251Z" fill="#F4B082"/>
<path d="M338.785 336.213L328.481 341.319C329.176 340.975 329.592 340.229 329.578 339.186L339.882 334.08C339.896 335.134 339.48 335.869 338.785 336.213Z" fill="#3295E6"/>
<path d="M326.051 338.25C327.023 338.712 328.245 339.044 329.578 339.198C329.606 341.259 327.939 342.124 325.856 341.141C323.773 340.146 322.051 337.67 322.023 335.608C321.996 333.547 323.662 332.682 325.745 333.665C327.828 334.661 329.55 337.137 329.578 339.198C328.245 339.044 327.023 338.724 326.051 338.25C326.051 337.705 325.578 337.042 325.023 336.769C324.467 336.509 324.023 336.734 324.023 337.291C324.023 337.836 324.495 338.499 325.051 338.76C325.606 339.02 326.051 338.795 326.051 338.238V338.25Z" fill="#3295E6"/>
<path d="M323.121 333.478L333.425 328.372C334.092 328.04 335.022 328.076 336.05 328.561C338.133 329.557 339.855 332.033 339.883 334.094L329.579 339.2C329.551 337.139 327.829 334.663 325.746 333.668C324.718 333.182 323.802 333.146 323.121 333.478Z" fill="#135E9C"/>
<path d="M426.147 287.45C426.147 287.45 427.827 286.419 427.855 286.668C427.896 286.916 426.355 287.841 426.355 287.841L426.147 287.45Z" fill="white"/>
<path d="M329.575 339.706V337.68L339.171 335.606C339.171 335.606 356.724 328.119 359.487 326.757C362.237 325.394 362.279 324.743 362.279 324.743C361.112 324.174 361.182 322.563 362.334 321.994L362.709 323.392C363.862 322.823 368.625 322.219 368.625 322.219V324.245C368.625 324.245 357.793 329.671 351.725 332.574C347.239 334.706 339.407 338.189 335.602 339.871C334.297 340.452 332.366 340.535 330.853 340.085L329.589 339.706H329.575Z" fill="#135E9C"/>
<path d="M329.577 337.681L337.465 333.795L339.395 334.743C339.395 334.743 356.726 326.936 359.489 325.585C362.239 324.223 363.294 323.714 363.294 323.714L362.725 323.429C361.558 322.861 361.558 321.937 362.725 321.368C363.877 320.799 365.752 320.799 366.919 321.368L368.641 322.221C368.641 322.221 357.809 327.647 351.74 330.549C347.255 332.682 339.423 336.165 335.618 337.847C334.312 338.428 332.382 338.511 330.868 338.06L329.605 337.681H329.577Z" fill="#2895EE"/>
<path d="M351.697 330.549C350.031 331.378 348.35 332.184 346.67 332.977C344.99 333.771 343.282 334.541 341.587 335.323C339.879 336.081 338.171 336.851 336.463 337.598C336.033 337.776 335.616 337.989 335.144 338.131C334.672 338.273 334.186 338.356 333.7 338.392C332.728 338.451 331.742 338.356 330.839 338.06C331.769 338.285 332.741 338.344 333.686 338.226C334.158 338.166 334.616 338.084 335.061 337.93C335.491 337.787 335.908 337.562 336.324 337.361C338.005 336.567 339.713 335.797 341.407 335.015C343.115 334.257 344.823 333.487 346.531 332.741C348.253 331.994 349.975 331.248 351.711 330.549H351.697Z" fill="white"/>
<path d="M322.843 226.804L368.641 248.662L379.445 243.331L333.66 221.473L322.843 226.804Z" fill="#A4E3FF"/>
<path d="M307.276 234.48L353.061 256.326L363.879 251.006L318.094 229.148L307.276 234.48Z" fill="#A4E3FF"/>
<path d="M372.183 283.467L386.195 276.56L370.503 268.836L356.491 275.743L372.183 283.467ZM379.807 276.56L372.183 280.316L362.893 275.743L370.517 271.987L379.807 276.56Z" fill="#A4E3FF"/>
<path d="M291.692 242.144L345.948 268.977L356.766 263.646L302.51 236.824L291.692 242.144Z" fill="#A4E3FF"/>
<path d="M356.605 291.147L370.617 284.24L354.925 276.516L340.913 283.422L356.605 291.147ZM364.229 284.24L356.605 287.995L347.315 283.422L354.939 279.667L364.229 284.24Z" fill="#A4E3FF"/>
<path d="M276.128 249.823L330.37 276.657L341.188 271.326L286.932 244.492L276.128 249.823Z" fill="#A4E3FF"/>
<path d="M341.039 298.811L355.051 291.904L339.359 284.18L325.347 291.087L341.039 298.811ZM348.663 291.904L341.039 295.659L331.749 291.087L339.373 287.331L348.663 291.904Z" fill="#A4E3FF"/>
<path d="M260.547 257.487L314.803 284.321L325.621 278.99L271.365 252.168L260.547 257.487Z" fill="#A4E3FF"/>
<path d="M325.449 306.487L339.461 299.58L323.769 291.855L309.757 298.762L325.449 306.487ZM333.073 299.58L325.449 303.335L316.159 298.762L323.783 295.007L333.073 299.58Z" fill="#A4E3FF"/>
<path d="M244.957 265.163L299.213 291.997L310.031 286.666L255.775 259.832L244.957 265.163Z" fill="#A4E3FF"/>
<defs>
<radialGradient id="paint0_radial_5233_22944" cx="0" cy="0" r="1" gradientUnits="userSpaceOnUse" gradientTransform="translate(206.039 179.422) scale(206.159 179.541)">
<stop stop-color="#FA45C1"/>
<stop offset="0.21" stop-color="#CB389D"/>
<stop offset="0.67" stop-color="#571843"/>
<stop offset="1"/>
</radialGradient>
<linearGradient id="paint1_linear_5233_22944" x1="155.462" y1="303.782" x2="317.583" y2="303.782" gradientUnits="userSpaceOnUse">
<stop offset="0.06" stop-color="#200041"/>
<stop offset="0.26" stop-color="#210143"/>
<stop offset="0.36" stop-color="#25084A"/>
<stop offset="0.43" stop-color="#2C1357"/>
<stop offset="0.47" stop-color="#311B61"/>
<stop offset="0.48" stop-color="#351F65"/>
<stop offset="0.5" stop-color="#422C72"/>
<stop offset="0.51" stop-color="#574188"/>
<stop offset="0.52" stop-color="#755FA6"/>
<stop offset="0.53" stop-color="#8770B8"/>
<stop offset="0.54" stop-color="#7D66AE"/>
<stop offset="0.56" stop-color="#5C458C"/>
<stop offset="0.59" stop-color="#442E74"/>
<stop offset="0.61" stop-color="#351F66"/>
<stop offset="0.63" stop-color="#311B61"/>
<stop offset="0.67" stop-color="#2A1054"/>
<stop offset="0.75" stop-color="#220446"/>
<stop offset="0.81" stop-color="#200041"/>
<stop offset="1" stop-color="#200041"/>
</linearGradient>
<linearGradient id="paint2_linear_5233_22944" x1="155.459" y1="282.689" x2="317.58" y2="282.689" gradientUnits="userSpaceOnUse">
<stop offset="0.06" stop-color="#200041"/>
<stop offset="0.26" stop-color="#210143"/>
<stop offset="0.36" stop-color="#25084A"/>
<stop offset="0.43" stop-color="#2C1357"/>
<stop offset="0.47" stop-color="#311B61"/>
<stop offset="0.48" stop-color="#351F65"/>
<stop offset="0.5" stop-color="#422C72"/>
<stop offset="0.51" stop-color="#574188"/>
<stop offset="0.52" stop-color="#755FA6"/>
<stop offset="0.53" stop-color="#8770B8"/>
<stop offset="0.54" stop-color="#7D66AE"/>
<stop offset="0.56" stop-color="#5C458C"/>
<stop offset="0.59" stop-color="#442E74"/>
<stop offset="0.61" stop-color="#351F66"/>
<stop offset="0.63" stop-color="#311B61"/>
<stop offset="0.67" stop-color="#2A1054"/>
<stop offset="0.75" stop-color="#220446"/>
<stop offset="0.81" stop-color="#200041"/>
<stop offset="1" stop-color="#200041"/>
</linearGradient>
<linearGradient id="paint3_linear_5233_22944" x1="198.847" y1="291.582" x2="266.415" y2="247.773" gradientUnits="userSpaceOnUse">
<stop stop-color="#311B61"/>
<stop offset="0.2" stop-color="#290E52"/>
<stop offset="0.49" stop-color="#200041"/>
<stop offset="1" stop-color="#0F001F"/>
</linearGradient>
<linearGradient id="paint4_linear_5233_22944" x1="237.82" y1="275.186" x2="249.123" y2="252.963" gradientUnits="userSpaceOnUse">
<stop stop-color="white"/>
<stop offset="1"/>
</linearGradient>
<radialGradient id="paint5_radial_5233_22944" cx="0" cy="0" r="1" gradientUnits="userSpaceOnUse" gradientTransform="translate(238.301 303.231) scale(57.6758 49.2041)">
<stop stop-color="#AF8AFC"/>
<stop offset="1" stop-color="#10054D"/>
</radialGradient>
<radialGradient id="paint6_radial_5233_22944" cx="0" cy="0" r="1" gradientUnits="userSpaceOnUse" gradientTransform="translate(229.162 304.42) rotate(15.9489) scale(98.0502 35.0412)">
<stop stop-color="#4F18AD"/>
<stop offset="0.29" stop-color="#39117E"/>
<stop offset="0.94" stop-color="#04010A"/>
<stop offset="1"/>
</radialGradient>
<linearGradient id="paint7_linear_5233_22944" x1="356.793" y1="315.947" x2="157.621" y2="-7.10189" gradientUnits="userSpaceOnUse">
<stop stop-color="#311B61"/>
<stop offset="0.2" stop-color="#290E52"/>
<stop offset="0.49" stop-color="#200041"/>
<stop offset="1" stop-color="#0F001F"/>
</linearGradient>
<linearGradient id="paint8_linear_5233_22944" x1="409.497" y1="322.308" x2="255.582" y2="34.0247" gradientUnits="userSpaceOnUse">
<stop offset="0.06" stop-color="#200041"/>
<stop offset="0.26" stop-color="#210143"/>
<stop offset="0.36" stop-color="#25084A"/>
<stop offset="0.43" stop-color="#2C1357"/>
<stop offset="0.47" stop-color="#311B61"/>
<stop offset="0.48" stop-color="#351F65"/>
<stop offset="0.5" stop-color="#422C72"/>
<stop offset="0.51" stop-color="#574188"/>
<stop offset="0.52" stop-color="#755FA6"/>
<stop offset="0.53" stop-color="#8770B8"/>
<stop offset="0.54" stop-color="#7D66AE"/>
<stop offset="0.56" stop-color="#5C458C"/>
<stop offset="0.59" stop-color="#442E74"/>
<stop offset="0.61" stop-color="#351F66"/>
<stop offset="0.63" stop-color="#311B61"/>
<stop offset="0.67" stop-color="#2A1054"/>
<stop offset="0.75" stop-color="#220446"/>
<stop offset="0.81" stop-color="#200041"/>
<stop offset="1" stop-color="#200041"/>
</linearGradient>
<radialGradient id="paint9_radial_5233_22944" cx="0" cy="0" r="1" gradientUnits="userSpaceOnUse" gradientTransform="translate(354.102 170.707) scale(33.2345 28.3529)">
<stop stop-color="#AF8AFC"/>
<stop offset="1" stop-color="#10054D"/>
</radialGradient>
<radialGradient id="paint10_radial_5233_22944" cx="0" cy="0" r="1" gradientUnits="userSpaceOnUse" gradientTransform="translate(155.158 111.467) rotate(-19.3199) scale(71.0331 65.0514)">
<stop stop-color="#172B66"/>
<stop offset="0.04" stop-color="#172B66"/>
<stop offset="0.19" stop-color="#172B66"/>
<stop offset="0.35" stop-color="#172B66"/>
<stop offset="0.51" stop-color="#172B66"/>
<stop offset="0.67" stop-color="#172B66"/>
<stop offset="0.83" stop-color="#030102"/>
<stop offset="1"/>
</radialGradient>
<radialGradient id="paint11_radial_5233_22944" cx="0" cy="0" r="1" gradientUnits="userSpaceOnUse" gradientTransform="translate(327.029 109.955) scale(16.568 14.1344)">
<stop offset="0.09" stop-color="#B8109B"/>
<stop offset="0.13" stop-color="#5B0663"/>
<stop offset="0.15" stop-color="#500557"/>
<stop offset="0.21" stop-color="#37033C"/>
<stop offset="0.29" stop-color="#230226"/>
<stop offset="0.37" stop-color="#130114"/>
<stop offset="0.48" stop-color="#080008"/>
<stop offset="0.62" stop-color="#010001"/>
<stop offset="1"/>
</radialGradient>
<radialGradient id="paint12_radial_5233_22944" cx="0" cy="0" r="1" gradientUnits="userSpaceOnUse" gradientTransform="translate(245.295 337.367) scale(16.568 14.1344)">
<stop offset="0.09" stop-color="#B8109B"/>
<stop offset="0.13" stop-color="#5B0663"/>
<stop offset="0.15" stop-color="#500557"/>
<stop offset="0.21" stop-color="#37033C"/>
<stop offset="0.29" stop-color="#230226"/>
<stop offset="0.37" stop-color="#130114"/>
<stop offset="0.48" stop-color="#080008"/>
<stop offset="0.62" stop-color="#010001"/>
<stop offset="1"/>
</radialGradient>
<radialGradient id="paint13_radial_5233_22944" cx="0" cy="0" r="1" gradientUnits="userSpaceOnUse" gradientTransform="translate(298.131 140.942) scale(132.971 113.44)">
<stop stop-color="#FA45C1"/>
<stop offset="0.21" stop-color="#CB389D"/>
<stop offset="0.67" stop-color="#571843"/>
<stop offset="1"/>
</radialGradient>
<radialGradient id="paint14_radial_5233_22944" cx="0" cy="0" r="1" gradientUnits="userSpaceOnUse" gradientTransform="translate(243.184 313.88) scale(54.7192 46.6818)">
<stop stop-color="#FA45C1"/>
<stop offset="0.21" stop-color="#CB389D"/>
<stop offset="0.67" stop-color="#571843"/>
<stop offset="1"/>
</radialGradient>
<radialGradient id="paint15_radial_5233_22944" cx="0" cy="0" r="1" gradientUnits="userSpaceOnUse" gradientTransform="translate(242.513 186.024) scale(163.148 178.951)">
<stop stop-color="#2250D9"/>
<stop offset="0.21" stop-color="#1E40A6"/>
<stop offset="0.67" stop-color="#172B66"/>
<stop offset="1" stop-color="#172B66"/>
</radialGradient>
<radialGradient id="paint16_radial_5233_22944" cx="0" cy="0" r="1" gradientUnits="userSpaceOnUse" gradientTransform="translate(332.768 186.728) scale(61.1581 52.1749)">
<stop stop-color="#43E8E1"/>
<stop offset="0.28" stop-color="#2FA29D"/>
<stop offset="0.78" stop-color="#0D2E2D"/>
<stop offset="1"/>
</radialGradient>
<radialGradient id="paint17_radial_5233_22944" cx="0" cy="0" r="1" gradientUnits="userSpaceOnUse" gradientTransform="translate(145.703 157.552) scale(47.2072 40.2732)">
<stop stop-color="#43E8E1"/>
<stop offset="0.28" stop-color="#2FA29D"/>
<stop offset="0.78" stop-color="#0D2E2D"/>
<stop offset="1"/>
</radialGradient>
<linearGradient id="paint18_linear_5233_22944" x1="286.734" y1="289.049" x2="306.643" y2="261.827" gradientUnits="userSpaceOnUse">
<stop stop-color="#FDD65B"/>
<stop offset="0.01" stop-color="#F6D058"/>
<stop offset="0.13" stop-color="#BDA044"/>
<stop offset="0.25" stop-color="#8B7532"/>
<stop offset="0.37" stop-color="#605122"/>
<stop offset="0.49" stop-color="#3D3416"/>
<stop offset="0.62" stop-color="#221D0C"/>
<stop offset="0.74" stop-color="#0F0C05"/>
<stop offset="0.87" stop-color="#030301"/>
<stop offset="1"/>
</linearGradient>
<linearGradient id="paint19_linear_5233_22944" x1="322.103" y1="298.767" x2="353.837" y2="287.634" gradientUnits="userSpaceOnUse">
<stop offset="0.04" stop-color="#FFA98C"/>
<stop offset="0.32" stop-color="#FEB892"/>
<stop offset="0.86" stop-color="#FEE0A3"/>
<stop offset="1" stop-color="#FEECA8"/>
</linearGradient>
<linearGradient id="paint20_linear_5233_22944" x1="187.162" y1="302.092" x2="389.97" y2="248.801" gradientUnits="userSpaceOnUse">
<stop offset="0.04" stop-color="#FFA98C"/>
<stop offset="0.32" stop-color="#FEB892"/>
<stop offset="0.86" stop-color="#FEE0A3"/>
<stop offset="1" stop-color="#FEECA8"/>
</linearGradient>
<linearGradient id="paint21_linear_5233_22944" x1="303.74" y1="250.477" x2="293.808" y2="272.661" gradientUnits="userSpaceOnUse">
<stop offset="0.04" stop-color="#FFA98C"/>
<stop offset="0.32" stop-color="#FEB892"/>
<stop offset="0.86" stop-color="#FEE0A3"/>
<stop offset="1" stop-color="#FEECA8"/>
</linearGradient>
<linearGradient id="paint22_linear_5233_22944" x1="208.887" y1="222.47" x2="236.876" y2="184.193" gradientUnits="userSpaceOnUse">
<stop stop-color="#43E8E1"/>
<stop offset="0.09" stop-color="#36BCB6"/>
<stop offset="0.22" stop-color="#288B86"/>
<stop offset="0.34" stop-color="#1B605D"/>
<stop offset="0.47" stop-color="#113D3B"/>
<stop offset="0.6" stop-color="#092221"/>
<stop offset="0.73" stop-color="#040F0E"/>
<stop offset="0.86" stop-color="#010303"/>
<stop offset="1"/>
</linearGradient>
<linearGradient id="paint23_linear_5233_22944" x1="248.123" y1="233.503" x2="285.688" y2="220.315" gradientUnits="userSpaceOnUse">
<stop offset="0.04" stop-color="#138BBD"/>
<stop offset="0.23" stop-color="#169AC6"/>
<stop offset="0.59" stop-color="#1EC2DF"/>
<stop offset="1" stop-color="#2AF6FF"/>
</linearGradient>
<linearGradient id="paint24_linear_5233_22944" x1="88.3999" y1="237.379" x2="330.797" y2="173.685" gradientUnits="userSpaceOnUse">
<stop offset="0.04" stop-color="#138BBD"/>
<stop offset="0.23" stop-color="#169AC6"/>
<stop offset="0.59" stop-color="#1EC2DF"/>
<stop offset="1" stop-color="#2AF6FF"/>
</linearGradient>
<linearGradient id="paint25_linear_5233_22944" x1="225.313" y1="176.115" x2="214.831" y2="199.538" gradientUnits="userSpaceOnUse">
<stop offset="0.04" stop-color="#138BBD"/>
<stop offset="0.23" stop-color="#169AC6"/>
<stop offset="0.59" stop-color="#1EC2DF"/>
<stop offset="1" stop-color="#2AF6FF"/>
</linearGradient>
<linearGradient id="paint26_linear_5233_22944" x1="175.149" y1="132.646" x2="237.686" y2="98.1037" gradientUnits="userSpaceOnUse">
<stop stop-color="#43E8E1"/>
<stop offset="0.09" stop-color="#36BCB6"/>
<stop offset="0.22" stop-color="#288B86"/>
<stop offset="0.34" stop-color="#1B605D"/>
<stop offset="0.47" stop-color="#113D3B"/>
<stop offset="0.6" stop-color="#092221"/>
<stop offset="0.73" stop-color="#040F0E"/>
<stop offset="0.86" stop-color="#010303"/>
<stop offset="1"/>
</linearGradient>
<radialGradient id="paint27_radial_5233_22944" cx="0" cy="0" r="1" gradientUnits="userSpaceOnUse" gradientTransform="translate(198.014 127.621) scale(53.876 45.9625)">
<stop stop-color="#2AF6FF"/>
<stop offset="1" stop-color="#138BBD"/>
</radialGradient>
<linearGradient id="paint28_linear_5233_22944" x1="188.793" y1="169.238" x2="186.288" y2="127.256" gradientUnits="userSpaceOnUse">
<stop offset="0.04" stop-color="#6B24D6"/>
<stop offset="0.29" stop-color="#7733DC"/>
<stop offset="0.79" stop-color="#965BEC"/>
<stop offset="1" stop-color="#A56EF4"/>
</linearGradient>
<radialGradient id="paint29_radial_5233_22944" cx="0" cy="0" r="1" gradientUnits="userSpaceOnUse" gradientTransform="translate(191.162 124.82) rotate(11.6009) scale(22.9693 13.1489)">
<stop offset="0.19" stop-color="#5F5C5D"/>
<stop offset="1" stop-color="white"/>
</radialGradient>
<linearGradient id="paint30_linear_5233_22944" x1="169.661" y1="140.83" x2="183.908" y2="140.83" gradientUnits="userSpaceOnUse">
<stop stop-color="white"/>
<stop offset="1" stop-color="#BCBEC0"/>
</linearGradient>
<radialGradient id="paint31_radial_5233_22944" cx="0" cy="0" r="1" gradientUnits="userSpaceOnUse" gradientTransform="translate(188.059 131.143) scale(40.9545 34.939)">
<stop stop-color="white"/>
<stop offset="0.73" stop-color="#D4D1D8"/>
<stop offset="0.98" stop-color="#C2C0CC"/>
</radialGradient>
<radialGradient id="paint32_radial_5233_22944" cx="0" cy="0" r="1" gradientUnits="userSpaceOnUse" gradientTransform="translate(206.498 140.092) scale(48.138 41.0673)">
<stop stop-color="white"/>
<stop offset="0.73" stop-color="#D4D1D8"/>
<stop offset="0.98" stop-color="#C2C0CC"/>
</radialGradient>
<radialGradient id="paint33_radial_5233_22944" cx="0" cy="0" r="1" gradientUnits="userSpaceOnUse" gradientTransform="translate(190.84 119.372) scale(106.274 90.6638)">
<stop offset="0.38" stop-color="white"/>
<stop offset="0.46" stop-color="#F8F7FB"/>
<stop offset="0.58" stop-color="#E7E3F1"/>
<stop offset="0.73" stop-color="#CBC1E0"/>
<stop offset="0.89" stop-color="#A493C9"/>
<stop offset="1" stop-color="#8770B8"/>
</radialGradient>
<linearGradient id="paint34_linear_5233_22944" x1="161.306" y1="152.451" x2="161.912" y2="116.527" gradientUnits="userSpaceOnUse">
<stop stop-color="white"/>
<stop offset="1" stop-color="#BCBEC0"/>
</linearGradient>
<radialGradient id="paint35_radial_5233_22944" cx="0" cy="0" r="1" gradientUnits="userSpaceOnUse" gradientTransform="translate(190.839 119.372) scale(106.263 90.6545)">
<stop offset="0.38" stop-color="white"/>
<stop offset="0.46" stop-color="#F8F7FB"/>
<stop offset="0.58" stop-color="#E7E3F1"/>
<stop offset="0.73" stop-color="#CBC1E0"/>
<stop offset="0.89" stop-color="#A493C9"/>
<stop offset="1" stop-color="#8770B8"/>
</radialGradient>
<radialGradient id="paint36_radial_5233_22944" cx="0" cy="0" r="1" gradientUnits="userSpaceOnUse" gradientTransform="translate(190.479 126.705) scale(48.8607 41.6838)">
<stop stop-color="#2AF6FF"/>
<stop offset="1" stop-color="#138BBD"/>
</radialGradient>
<linearGradient id="paint37_linear_5233_22944" x1="187.184" y1="148.35" x2="218.436" y2="148.35" gradientUnits="userSpaceOnUse">
<stop stop-color="white"/>
<stop offset="1" stop-color="#BCBEC0"/>
</linearGradient>
<radialGradient id="paint38_radial_5233_22944" cx="0" cy="0" r="1" gradientUnits="userSpaceOnUse" gradientTransform="translate(204.374 130.863) scale(66.5676 56.7898)">
<stop stop-color="white"/>
<stop offset="0.73" stop-color="#D4D1D8"/>
<stop offset="0.98" stop-color="#C2C0CC"/>
</radialGradient>
<radialGradient id="paint39_radial_5233_22944" cx="0" cy="0" r="1" gradientUnits="userSpaceOnUse" gradientTransform="translate(185.398 119.381) scale(105.88 90.3275)">
<stop stop-color="white"/>
<stop offset="0.73" stop-color="#D4D1D8"/>
<stop offset="0.98" stop-color="#C2C0CC"/>
</radialGradient>
<radialGradient id="paint40_radial_5233_22944" cx="0" cy="0" r="1" gradientUnits="userSpaceOnUse" gradientTransform="translate(187.916 129.63) scale(9.85537 8.40777)">
<stop stop-color="white"/>
<stop offset="1"/>
</radialGradient>
<radialGradient id="paint41_radial_5233_22944" cx="0" cy="0" r="1" gradientUnits="userSpaceOnUse" gradientTransform="translate(185.791 97.1749) scale(29.3471 25.0365)">
<stop offset="0.03" stop-color="#FEDFCB"/>
<stop offset="1" stop-color="#F9B69E"/>
</radialGradient>
<linearGradient id="paint42_linear_5233_22944" x1="200.323" y1="116.373" x2="191.276" y2="55.8882" gradientUnits="userSpaceOnUse">
<stop offset="0.04" stop-color="#25054D"/>
<stop offset="0.16" stop-color="#2D075C"/>
<stop offset="0.4" stop-color="#420F84"/>
<stop offset="0.43" stop-color="#45108A"/>
<stop offset="1" stop-color="#A56EF4"/>
</linearGradient>
<linearGradient id="paint43_linear_5233_22944" x1="193.524" y1="124.65" x2="184.095" y2="113.739" gradientUnits="userSpaceOnUse">
<stop stop-color="white"/>
<stop offset="1" stop-color="#DBAC9B"/>
</linearGradient>
<linearGradient id="paint44_linear_5233_22944" x1="170.846" y1="89.2614" x2="181.1" y2="100.648" gradientUnits="userSpaceOnUse">
<stop stop-color="white"/>
<stop offset="1"/>
</linearGradient>
<linearGradient id="paint45_linear_5233_22944" x1="205.022" y1="84.441" x2="210.756" y2="95.8444" gradientUnits="userSpaceOnUse">
<stop stop-color="white"/>
<stop offset="1" stop-color="#BCBEC0"/>
</linearGradient>
<linearGradient id="paint46_linear_5233_22944" x1="207.574" y1="99.913" x2="212.199" y2="97.3643" gradientUnits="userSpaceOnUse">
<stop stop-color="white"/>
<stop offset="1" stop-color="#BCBEC0"/>
</linearGradient>
<linearGradient id="paint47_linear_5233_22944" x1="186.469" y1="99.5094" x2="183.022" y2="76.444" gradientUnits="userSpaceOnUse">
<stop stop-color="white"/>
<stop offset="1" stop-color="#BCBEC0"/>
</linearGradient>
<linearGradient id="paint48_linear_5233_22944" x1="265.403" y1="187.483" x2="294.016" y2="164.836" gradientUnits="userSpaceOnUse">
<stop stop-color="#C211A1"/>
<stop offset="0.01" stop-color="#BC109C"/>
<stop offset="0.15" stop-color="#8B0C73"/>
<stop offset="0.29" stop-color="#60084F"/>
<stop offset="0.42" stop-color="#3D0533"/>
<stop offset="0.56" stop-color="#22031C"/>
<stop offset="0.7" stop-color="#0F010C"/>
<stop offset="0.85" stop-color="#030003"/>
<stop offset="1"/>
</linearGradient>
<linearGradient id="paint49_linear_5233_22944" x1="265.403" y1="160.177" x2="294.018" y2="137.539" gradientUnits="userSpaceOnUse">
<stop stop-color="#C211A1"/>
<stop offset="0.01" stop-color="#BC109C"/>
<stop offset="0.15" stop-color="#8B0C73"/>
<stop offset="0.29" stop-color="#60084F"/>
<stop offset="0.42" stop-color="#3D0533"/>
<stop offset="0.56" stop-color="#22031C"/>
<stop offset="0.7" stop-color="#0F010C"/>
<stop offset="0.85" stop-color="#030003"/>
<stop offset="1"/>
</linearGradient>
<linearGradient id="paint50_linear_5233_22944" x1="265.403" y1="132.225" x2="294.016" y2="109.578" gradientUnits="userSpaceOnUse">
<stop stop-color="#C211A1"/>
<stop offset="0.01" stop-color="#BC109C"/>
<stop offset="0.15" stop-color="#8B0C73"/>
<stop offset="0.29" stop-color="#60084F"/>
<stop offset="0.42" stop-color="#3D0533"/>
<stop offset="0.56" stop-color="#22031C"/>
<stop offset="0.7" stop-color="#0F010C"/>
<stop offset="0.85" stop-color="#030003"/>
<stop offset="1"/>
</linearGradient>
<radialGradient id="paint51_radial_5233_22944" cx="0" cy="0" r="1" gradientUnits="userSpaceOnUse" gradientTransform="translate(132.167 7.71949) rotate(-23.4035) scale(37.5375 14.8888)">
<stop stop-color="#972A74"/>
<stop offset="0.04" stop-color="#8A266A"/>
<stop offset="0.19" stop-color="#601A49"/>
<stop offset="0.35" stop-color="#3D112F"/>
<stop offset="0.51" stop-color="#22091A"/>
<stop offset="0.67" stop-color="#0F040B"/>
<stop offset="0.83" stop-color="#030102"/>
<stop offset="1"/>
</radialGradient>
<radialGradient id="paint52_radial_5233_22944" cx="0" cy="0" r="1" gradientUnits="userSpaceOnUse" gradientTransform="translate(216.48 154.73) rotate(-6.65691) scale(12.3194 18.3457)">
<stop stop-color="#271273"/>
<stop offset="0.08" stop-color="#200F5F"/>
<stop offset="0.26" stop-color="#14093D"/>
<stop offset="0.44" stop-color="#0B0522"/>
<stop offset="0.62" stop-color="#05020F"/>
<stop offset="0.81" stop-color="#010003"/>
<stop offset="1"/>
</radialGradient>
<clipPath id="clip0_5233_22944">
<rect width="411.998" height="365" fill="white" transform="translate(-0.00390625)"/>
</clipPath>
</defs>
</svg>
