<svg width="60" height="60" viewBox="0 0 60 60" fill="none" xmlns="http://www.w3.org/2000/svg">
<rect width="60" height="60" rx="30" fill="#6542E4" fill-opacity="0.3"/>
<path d="M18.3359 13.752C17.0459 14.0337 16.0709 14.502 15.2893 15.2854C13.3359 17.237 13.3359 20.3804 13.3359 26.6654V28.332C13.3359 33.0454 13.3359 35.4037 14.8009 36.867C16.2643 38.332 18.6226 38.332 23.3359 38.332H36.6693C41.3826 38.332 43.7409 38.332 45.2043 36.867C46.6693 35.4037 46.6693 33.0454 46.6693 28.332V26.6654C46.6693 20.3804 46.6693 17.237 44.7159 15.2854C42.7626 13.3337 39.6209 13.332 33.3359 13.332H25.0026M36.6693 46.6654H23.3359M30.0026 38.332V46.6654M46.6693 31.6654H36.6693M13.3359 31.6654H30.0026" stroke="black" stroke-width="2" stroke-linecap="round"/>
</svg>
