<svg width="60" height="60" viewBox="0 0 60 60" fill="none" xmlns="http://www.w3.org/2000/svg">
<rect width="60" height="60" rx="30" fill="#E442D7" fill-opacity="0.3"/>
<path d="M30 38.6394L27.3693 37.3935L30 38.6394ZM30 38.6394L32.6307 37.3947C32.6308 37.3947 32.6309 37.3947 32.631 37.3946C33.682 36.8939 34.57 36.1062 35.1926 35.1226C35.8153 34.1388 36.1472 32.999 36.15 31.8348V23.85H23.85L23.85 31.8335L23.85 31.8337M30 38.6394L24.7229 35.1748C24.0901 34.1751 23.7528 33.0169 23.75 31.8337H23.85M23.85 31.8337C23.8528 32.9979 24.1847 34.1376 24.8074 35.1213C25.43 36.105 26.318 36.8926 27.3691 37.3934L23.85 31.8337ZM38.6793 44.5582L38.75 44.6289L38.8207 44.5582L46.9875 36.3914L48.6086 38.0125L38.75 47.8711L33.8914 43.0125L35.5125 41.3914L38.6793 44.5582ZM26.25 26.15H26.15V26.25V31.835L26.15 31.8353C26.152 32.5637 26.3599 33.2767 26.7497 33.892C27.1396 34.5074 27.6955 34.9999 28.3533 35.3128L28.3534 35.3129L29.9572 36.0729L30 36.0931L30.0428 36.0729L31.6465 35.3141L31.6467 35.3141C32.3047 35.0011 32.8607 34.5083 33.2506 33.8927C33.6405 33.2772 33.8483 32.5639 33.85 31.8352V31.835V26.25V26.15H33.75H26.25ZM15.094 31.9872L15.0425 32.0219L15.0509 32.0835C15.4338 34.8949 16.6055 37.5406 18.4282 39.715C20.2296 41.8638 22.5954 43.4656 25.258 44.3405L24.5518 46.5302C21.4497 45.5126 18.6971 43.6395 16.6118 41.1258C14.5052 38.5864 13.1669 35.4985 12.7542 32.225L12.7475 32.1715L12.6991 32.1477C11.9013 31.7561 11.35 30.9459 11.35 30L11.35 30C11.3498 29.5858 11.4568 29.1787 11.6605 28.8181C11.8642 28.4575 12.1578 28.1558 12.5126 27.9423C12.8675 27.7288 13.2716 27.6108 13.6856 27.5996C14.0996 27.5885 14.5094 27.6847 14.8752 27.8789C15.241 28.073 15.5503 28.3585 15.7731 28.7076C15.9959 29.0567 16.1246 29.4576 16.1466 29.8711C16.1686 30.2847 16.0833 30.6969 15.8988 31.0677C15.7144 31.4385 15.4371 31.7552 15.094 31.9872ZM47.247 27.775L47.2538 27.8289L47.3027 27.8525C47.7063 28.0478 48.0467 28.3529 48.2849 28.7327C48.5232 29.1125 48.6497 29.5517 48.65 30C48.6502 30.4142 48.5432 30.8213 48.3395 31.1819C48.1358 31.5425 47.8422 31.8442 47.4874 32.0577C47.1325 32.2712 46.7284 32.3892 46.3144 32.4004C45.9005 32.4115 45.4906 32.3153 45.1248 32.1211C44.759 31.927 44.4497 31.6415 44.2269 31.2924C44.0041 30.9433 43.8754 30.5424 43.8534 30.1289C43.8314 29.7153 43.9167 29.3031 44.1012 28.9323C44.2856 28.5615 44.5629 28.2448 44.906 28.0128L44.9575 27.9781L44.9491 27.9165C44.5662 25.1051 43.3958 22.4594 41.573 20.285C39.7717 18.1362 37.4059 16.5344 34.7433 15.6595L35.4494 13.4698C38.5516 14.4874 41.3041 16.3604 43.3895 18.8742C45.4961 21.4136 46.8343 24.5015 47.247 27.775ZM27.775 12.7542L27.8285 12.7475L27.8523 12.6991C28.2439 11.9013 29.0541 11.35 30 11.35C30.4141 11.3499 30.8211 11.457 31.1815 11.6608C31.5419 11.8645 31.8435 12.1581 32.057 12.5129C32.2704 12.8677 32.3884 13.2716 32.3995 13.6855C32.4106 14.0994 32.3145 14.5092 32.1204 14.8749C31.9264 15.2406 31.641 15.55 31.292 15.7728C30.943 15.9956 30.5424 16.1244 30.1289 16.1466C29.7155 16.1687 29.3033 16.0836 28.9325 15.8993C28.5617 15.7151 28.2449 15.4381 28.0128 15.0952L27.978 15.0438L27.9165 15.0522C25.105 15.4351 22.4591 16.6057 20.2847 18.4287C18.1359 20.2303 16.5342 22.5963 15.6595 25.2591L13.4698 24.5507C14.4875 21.4487 16.3607 18.6964 18.8745 16.6113C21.4139 14.5049 24.5016 13.1668 27.775 12.7542Z" fill="black" stroke="#F7C6F3" stroke-width="0.2"/>
</svg>
