<svg width="60" height="60" viewBox="0 0 60 60" fill="none" xmlns="http://www.w3.org/2000/svg">
<rect width="60" height="60" rx="30" fill="#E49E42" fill-opacity="0.3"/>
<path d="M38.2233 28.332C39.1917 37.2904 43 39.9987 43 39.9987H13C13 39.9987 18 36.4437 18 23.9987C18 21.1704 19.0533 18.457 20.9283 16.457C22.8033 14.457 25.35 13.332 28 13.332C28.5633 13.332 29.1189 13.382 29.6667 13.482M30.8833 44.9987C30.5903 45.5038 30.1697 45.9231 29.6637 46.2146C29.1577 46.506 28.584 46.6595 28 46.6595C27.416 46.6595 26.8423 46.506 26.3363 46.2146C25.8303 45.9231 25.4097 45.5038 25.1167 44.9987M39.6667 23.332C40.9927 23.332 42.2645 22.8052 43.2022 21.8676C44.1399 20.9299 44.6667 19.6581 44.6667 18.332C44.6667 17.0059 44.1399 15.7342 43.2022 14.7965C42.2645 13.8588 40.9927 13.332 39.6667 13.332C38.3406 13.332 37.0688 13.8588 36.1311 14.7965C35.1934 15.7342 34.6667 17.0059 34.6667 18.332C34.6667 19.6581 35.1934 20.9299 36.1311 21.8676C37.0688 22.8052 38.3406 23.332 39.6667 23.332Z" stroke="black" stroke-width="2" stroke-linecap="round" stroke-linejoin="round"/>
</svg>
