<svg width="60" height="60" viewBox="0 0 60 60" fill="none" xmlns="http://www.w3.org/2000/svg">
<rect width="60" height="60" rx="30" fill="#58E442" fill-opacity="0.3"/>
<path d="M30.0026 16.2513C29.6196 16.2513 29.2403 16.3267 28.8864 16.4733C28.5326 16.6199 28.211 16.8347 27.9402 17.1056C27.6694 17.3764 27.4545 17.6979 27.308 18.0518C27.1614 18.4057 27.0859 18.7849 27.0859 19.168C27.0859 19.551 27.1614 19.9303 27.308 20.2841C27.4545 20.638 27.6694 20.9595 27.9402 21.2304C28.211 21.5012 28.5326 21.716 28.8864 21.8626C29.2403 22.0092 29.6196 22.0846 30.0026 22.0846C30.7762 22.0846 31.518 21.7773 32.065 21.2304C32.612 20.6834 32.9193 19.9415 32.9193 19.168C32.9193 18.3944 32.612 17.6526 32.065 17.1056C31.518 16.5586 30.7762 16.2513 30.0026 16.2513ZM25.0026 19.168C25.0026 17.8419 25.5294 16.5701 26.4671 15.6324C27.4048 14.6948 28.6765 14.168 30.0026 14.168C31.3287 14.168 32.6005 14.6948 33.5381 15.6324C34.4758 16.5701 35.0026 17.8419 35.0026 19.168C35.0026 20.4941 34.4758 21.7658 33.5381 22.7035C32.6005 23.6412 31.3287 24.168 30.0026 24.168C28.6765 24.168 27.4048 23.6412 26.4671 22.7035C25.5294 21.7658 25.0026 20.4941 25.0026 19.168ZM40.8359 17.918C40.2834 17.918 39.7535 18.1375 39.3628 18.5282C38.9721 18.9189 38.7526 19.4488 38.7526 20.0013C38.7526 20.5538 38.9721 21.0837 39.3628 21.4744C39.7535 21.8651 40.2834 22.0846 40.8359 22.0846C41.3885 22.0846 41.9184 21.8651 42.3091 21.4744C42.6998 21.0837 42.9193 20.5538 42.9193 20.0013C42.9193 19.4488 42.6998 18.9189 42.3091 18.5282C41.9184 18.1375 41.3885 17.918 40.8359 17.918ZM36.6693 20.0013C36.6693 18.8962 37.1083 17.8364 37.8897 17.055C38.6711 16.2736 39.7309 15.8346 40.8359 15.8346C41.941 15.8346 43.0008 16.2736 43.7822 17.055C44.5636 17.8364 45.0026 18.8962 45.0026 20.0013C45.0026 21.1064 44.5636 22.1662 43.7822 22.9476C43.0008 23.729 41.941 24.168 40.8359 24.168C39.7309 24.168 38.6711 23.729 37.8897 22.9476C37.1083 22.1662 36.6693 21.1064 36.6693 20.0013ZM17.0859 20.0013C17.0859 19.4488 17.3054 18.9189 17.6961 18.5282C18.0868 18.1375 18.6167 17.918 19.1693 17.918C19.7218 17.918 20.2517 18.1375 20.6424 18.5282C21.0331 18.9189 21.2526 19.4488 21.2526 20.0013C21.2526 20.5538 21.0331 21.0837 20.6424 21.4744C20.2517 21.8651 19.7218 22.0846 19.1693 22.0846C18.6167 22.0846 18.0868 21.8651 17.6961 21.4744C17.3054 21.0837 17.0859 20.5538 17.0859 20.0013ZM19.1693 15.8346C18.0642 15.8346 17.0044 16.2736 16.223 17.055C15.4416 17.8364 15.0026 18.8962 15.0026 20.0013C15.0026 21.1064 15.4416 22.1662 16.223 22.9476C17.0044 23.729 18.0642 24.168 19.1693 24.168C20.2743 24.168 21.3341 23.729 22.1155 22.9476C22.897 22.1662 23.3359 21.1064 23.3359 20.0013C23.3359 18.8962 22.897 17.8364 22.1155 17.055C21.3341 16.2736 20.2743 15.8346 19.1693 15.8346ZM22.5026 29.3763C22.5026 28.437 22.8757 27.5362 23.5399 26.872C24.2041 26.2078 25.105 25.8346 26.0443 25.8346H33.9609C34.9002 25.8346 35.8011 26.2078 36.4653 26.872C37.1295 27.5362 37.5026 28.437 37.5026 29.3763V38.3346C37.5026 40.3238 36.7124 42.2314 35.3059 43.6379C33.8994 45.0445 31.9917 45.8346 30.0026 45.8346C28.0135 45.8346 26.1058 45.0445 24.6993 43.6379C23.2928 42.2314 22.5026 40.3238 22.5026 38.3346V29.3763ZM30.0026 43.7513C31.4392 43.7513 32.8169 43.1806 33.8328 42.1648C34.8486 41.149 35.4193 39.7712 35.4193 38.3346V29.3763C35.4193 28.9895 35.2656 28.6186 34.9921 28.3451C34.7186 28.0716 34.3477 27.918 33.9609 27.918H26.0443C25.6575 27.918 25.2866 28.0716 25.0131 28.3451C24.7396 28.6186 24.5859 28.9895 24.5859 29.3763V38.3346C24.5859 39.7712 25.1566 41.149 26.1724 42.1648C27.1883 43.1806 28.566 43.7513 30.0026 43.7513ZM19.1693 41.2513C19.866 41.2515 20.5491 41.0576 21.1418 40.6913C21.3243 41.3796 21.5851 42.0355 21.9134 42.6496C21.0246 43.1235 20.0281 43.3591 19.0211 43.3335C18.0141 43.3079 17.0309 43.022 16.1673 42.5037C15.3036 41.9853 14.5889 41.2521 14.0927 40.3754C13.5965 39.4988 13.3358 38.5086 13.3359 37.5013V29.3771C13.3358 28.912 13.4274 28.4513 13.6053 28.0215C13.7832 27.5918 14.0441 27.2012 14.373 26.8723C14.7019 26.5433 15.0923 26.2823 15.5221 26.1043C15.9518 25.9263 16.4124 25.8346 16.8776 25.8346H21.4609C21.7015 25.8352 21.9351 25.8582 22.1618 25.9038C21.6428 26.483 21.2603 27.1713 21.0426 27.918H16.8776C16.4908 27.918 16.1199 28.0716 15.8464 28.3451C15.5729 28.6186 15.4193 28.9895 15.4193 29.3763V37.5013C15.4193 38.4959 15.8144 39.4497 16.5176 40.153C17.2209 40.8562 18.1747 41.2513 19.1693 41.2513ZM40.8359 43.3346C39.8789 43.3351 38.9365 43.1002 38.0918 42.6505C38.4201 42.0355 38.6809 41.3796 38.8634 40.6913C39.4315 41.0426 40.0831 41.2359 40.7509 41.251C41.4187 41.2662 42.0784 41.1027 42.6618 40.7774C43.2453 40.4522 43.7312 39.977 44.0695 39.4011C44.4078 38.8251 44.5861 38.1693 44.5859 37.5013V29.3763C44.5859 28.9895 44.4323 28.6186 44.1588 28.3451C43.8853 28.0716 43.5144 27.918 43.1276 27.918H38.9626C38.7446 27.1713 38.3619 26.483 37.8426 25.9038C38.0704 25.8582 38.3043 25.8352 38.5443 25.8346H43.1276C44.0669 25.8346 44.9677 26.2078 45.6319 26.872C46.2961 27.5362 46.6693 28.437 46.6693 29.3763V37.5013C46.6693 39.0484 46.0547 40.5321 44.9607 41.6261C43.8668 42.7201 42.383 43.3346 40.8359 43.3346Z" fill="black"/>
</svg>
