<svg width="50" height="50" viewBox="0 0 50 50" fill="none" xmlns="http://www.w3.org/2000/svg">
<path opacity="0.2" fill-rule="evenodd" clip-rule="evenodd" d="M25 49C38.2548 49 49 38.2548 49 25C49 11.7452 38.2548 1 25 1C11.7452 1 1 11.7452 1 25C1 38.2548 11.7452 49 25 49Z" stroke="white" stroke-width="2"/>
<path d="M19.4919 20.1551C20.6155 20.1551 21.5264 19.2442 21.5264 18.1205C21.5264 16.9969 20.6155 16.0859 19.4919 16.0859C18.3682 16.0859 17.4573 16.9969 17.4573 18.1205C17.4573 19.2442 18.3682 20.1551 19.4919 20.1551Z" fill="white"/>
<path d="M21.1873 21.5137H17.7964C17.6092 21.5137 17.4573 21.6656 17.4573 21.8528V32.0257C17.4573 32.2129 17.6092 32.3648 17.7964 32.3648H21.1873C21.3745 32.3648 21.5264 32.2129 21.5264 32.0257V21.8528C21.5264 21.6656 21.3745 21.5137 21.1873 21.5137Z" fill="white"/>
<path d="M31.2923 20.9492C29.843 20.4528 28.0302 20.8889 26.9431 21.6708C26.9058 21.525 26.7729 21.4165 26.6148 21.4165H23.2239C23.0367 21.4165 22.8848 21.5684 22.8848 21.7556V31.9285C22.8848 32.1157 23.0367 32.2676 23.2239 32.2676H26.6148C26.802 32.2676 26.9539 32.1157 26.9539 31.9285V24.6176C27.5019 24.1456 28.2079 23.995 28.7857 24.2405C29.3459 24.4772 29.6667 25.055 29.6667 25.8248V31.9285C29.6667 32.1157 29.8186 32.2676 30.0058 32.2676H33.3968C33.584 32.2676 33.7359 32.1157 33.7359 31.9285V25.1418C33.6972 22.3551 32.3863 21.3236 31.2923 20.9492Z" fill="white"/>
</svg>
