<svg width="184" height="26" viewBox="0 0 184 26" fill="none" xmlns="http://www.w3.org/2000/svg">
<path d="M14.69 7.47439L10.2321 0L0 18.1609L4.39803 25.8824L14.69 7.47439Z" fill="#1D2856"/>
<path d="M27.2798 7.47439L22.822 0L12.5898 18.1609L16.9879 25.8824L27.2798 7.47439Z" fill="#1D2856"/>
<path d="M29.4724 10.4922L33.9258 18.2181L29.4724 25.8817L24.832 18.2181L29.4724 10.4922Z" fill="#FFDB5B"/>
<path d="M40.957 24.4043V1.43945H44.5599L51.7656 19.5318L58.9714 1.43945H62.5742V24.4043H59.6919V7.18066L52.7517 24.4043H50.7417L43.8393 7.18066V24.4043H40.957Z" fill="#1D2856"/>
<path d="M65.5974 15.7925C65.5974 13.0981 66.2548 10.9452 67.5695 9.33362C68.8843 7.72205 70.6288 6.91626 72.8032 6.91626C74.9775 6.91626 76.7221 7.72205 78.0368 9.33362C79.3516 10.9452 80.0089 13.0981 80.0089 15.7925V16.6612H68.1763C68.1763 18.3987 68.5935 19.7836 69.4279 20.816C70.2875 21.8736 71.4126 22.4024 72.8032 22.4024C74.0168 22.4024 75.0155 22.0877 75.7993 21.4581C76.583 20.8286 77.0255 19.9977 77.1266 18.9652H79.7055C79.5538 20.7027 78.8459 22.0877 77.5817 23.1201C76.3428 24.1525 74.75 24.6687 72.8032 24.6687C70.6288 24.6687 68.8843 23.8629 67.5695 22.2513C66.2548 20.6398 65.5974 18.4868 65.5974 15.7925ZM68.1763 14.3572H77.3921C77.2657 12.796 76.7853 11.5495 75.951 10.6178C75.1166 9.68615 74.0673 9.2203 72.8032 9.2203C71.539 9.2203 70.4898 9.68615 69.6554 10.6178C68.7958 11.5495 68.3028 12.796 68.1763 14.3572Z" fill="#1D2856"/>
<path d="M83.4525 7.48283V2.57259H86.0314V7.48283H88.6482V9.78687H86.0314V20.7027C86.0314 21.0049 86.1452 21.2693 86.3727 21.4959C86.6003 21.7225 86.8658 21.8359 87.1692 21.8359H88.6482V24.4043H86.3348C85.551 24.4043 84.8684 24.1273 84.2869 23.5733C83.7306 22.9942 83.4525 22.3143 83.4525 21.5337V9.78687H81.1391V7.48283H83.4525Z" fill="#1D2856"/>
<path d="M91.1937 24.4043V7.48283H93.7725V10.4667C94.1518 9.43434 94.8344 8.62856 95.8205 8.0494C96.756 7.47024 97.8052 7.18066 98.9683 7.18066H100.106V9.78687H98.9683C97.5018 9.78687 96.263 10.366 95.2516 11.5243C94.2656 12.6323 93.7725 13.9669 93.7725 15.5281V24.4043H91.1937Z" fill="#1D2856"/>
<path d="M102.344 24.4043V7.18066H104.923V24.4043H102.344ZM102.344 4.04566V1.43945H104.923V4.04566H102.344Z" fill="#1D2856"/>
<path d="M107.925 15.7925C107.925 13.0981 108.608 10.9452 109.973 9.33362C111.338 7.72205 113.159 6.91626 115.434 6.91626C117.432 6.91626 119.088 7.49542 120.403 8.65374C121.692 9.78687 122.425 11.3103 122.602 13.224H120.023C119.922 12.0154 119.454 11.0459 118.62 10.3157C117.786 9.58542 116.724 9.2203 115.434 9.2203C113.943 9.2203 112.754 9.82464 111.869 11.0333C110.959 12.2168 110.504 13.8032 110.504 15.7925C110.504 17.7818 110.959 19.3807 111.869 20.5894C112.754 21.7981 113.943 22.4024 115.434 22.4024C116.699 22.4024 117.748 22.0121 118.582 21.2315C119.416 20.4509 119.897 19.4059 120.023 18.0965H122.602C122.425 20.0858 121.679 21.6722 120.365 22.8557C119.075 24.0643 117.432 24.6687 115.434 24.6687C113.159 24.6687 111.338 23.8629 109.973 22.2513C108.608 20.6398 107.925 18.4868 107.925 15.7925Z" fill="#1D2856"/>
<path d="M123.708 7.48283H126.287L130.307 20.9671L134.062 7.48283H136.375L140.395 20.9671L144.15 7.48283H146.766L141.571 24.4043H138.688L135.237 11.4866L131.748 24.4043H128.866L123.708 7.48283Z" fill="#1D2856"/>
<path d="M149.092 24.4043V7.18066H151.671V24.4043H149.092ZM149.092 4.04566V1.43945H151.671V4.04566H149.092Z" fill="#1D2856"/>
<path d="M154.408 18.0965H156.987C156.987 19.3052 157.354 20.2746 158.087 21.0049C158.82 21.7351 159.793 22.1003 161.007 22.1003C162.246 22.1003 163.232 21.8736 163.965 21.4204C164.698 20.9671 165.065 20.3754 165.065 19.6451C165.065 18.6379 164.547 17.8447 163.51 17.2655C162.65 16.7871 161.538 16.4849 160.173 16.359C158.732 16.2331 157.518 15.7043 156.532 14.7727C155.495 13.8158 154.977 12.6701 154.977 11.3355C154.977 9.90018 155.508 8.75446 156.57 7.89831C157.606 7.04217 158.997 6.6141 160.742 6.6141C162.663 6.6141 164.193 7.14289 165.331 8.20048C166.494 9.23289 167.075 10.6178 167.075 12.3553H164.496C164.496 11.3229 164.155 10.4919 163.472 9.86241C162.79 9.23289 161.879 8.91813 160.742 8.91813C159.781 8.91813 159.01 9.13217 158.428 9.56024C157.847 10.0135 157.556 10.6052 157.556 11.3355C157.556 12.2168 158.024 12.8841 158.959 13.3374C159.667 13.7151 160.653 13.9543 161.917 14.055C163.485 14.1809 164.825 14.7097 165.937 15.6414C167.1 16.6234 167.682 17.8195 167.682 19.2296C167.682 20.7909 167.1 22.0373 165.937 22.969C164.774 23.9007 163.232 24.3665 161.31 24.3665C159.212 24.3665 157.543 23.7999 156.304 22.6668C155.04 21.5085 154.408 19.9851 154.408 18.0965Z" fill="#1D2856"/>
<path d="M169.589 15.7925C169.589 13.0981 170.246 10.9452 171.561 9.33362C172.876 7.72205 174.62 6.91626 176.794 6.91626C178.969 6.91626 180.713 7.72205 182.028 9.33362C183.343 10.9452 184 13.0981 184 15.7925V16.6612H172.168C172.168 18.3987 172.585 19.7836 173.419 20.816C174.279 21.8736 175.404 22.4024 176.794 22.4024C178.008 22.4024 179.007 22.0877 179.791 21.4581C180.574 20.8286 181.017 19.9977 181.118 18.9652H183.697C183.545 20.7027 182.837 22.0877 181.573 23.1201C180.334 24.1525 178.741 24.6687 176.794 24.6687C174.62 24.6687 172.876 23.8629 171.561 22.2513C170.246 20.6398 169.589 18.4868 169.589 15.7925ZM172.168 14.3572H181.383C181.257 12.796 180.777 11.5495 179.942 10.6178C179.108 9.68615 178.059 9.2203 176.794 9.2203C175.53 9.2203 174.481 9.68615 173.647 10.6178C172.787 11.5495 172.294 12.796 172.168 14.3572Z" fill="#1D2856"/>
</svg>
