<svg width="184" height="26" viewBox="0 0 184 26" fill="none" xmlns="http://www.w3.org/2000/svg">
<path d="M14.69 7.50826L10.2321 0L0 18.2432L4.39803 25.9997L14.69 7.50826Z" fill="#2E2E2E"/>
<path d="M27.2814 7.50826L22.8235 0L12.5914 18.2432L16.9894 25.9997L27.2814 7.50826Z" fill="#2E2E2E"/>
<path d="M29.4733 10.541L33.9268 18.3019L29.4733 26.0003L24.833 18.3019L29.4733 10.541Z" fill="#FFDB5B"/>
<path d="M40.957 24.5162V1.44727H44.5599L51.7656 19.6216L58.9714 1.44727H62.5742V24.5162H59.6919V7.2145L52.7517 24.5162H50.7417L43.8393 7.2145V24.5162H40.957Z" fill="#2E2E2E"/>
<path d="M65.5974 15.8653C65.5974 13.1588 66.2548 10.9961 67.5695 9.37721C68.8843 7.75834 70.6288 6.9489 72.8032 6.9489C74.9775 6.9489 76.7221 7.75834 78.0368 9.37721C79.3516 10.9961 80.0089 13.1588 80.0089 15.8653V16.738H68.1763C68.1763 18.4834 68.5935 19.8746 69.4279 20.9117C70.2875 21.9741 71.4126 22.5052 72.8032 22.5052C74.0168 22.5052 75.0155 22.1891 75.7993 21.5567C76.583 20.9243 77.0255 20.0896 77.1266 19.0525H79.7055C79.5538 20.7978 78.8459 22.1891 77.5817 23.2261C76.3428 24.2632 74.75 24.7818 72.8032 24.7818C70.6288 24.7818 68.8843 23.9723 67.5695 22.3535C66.2548 20.7346 65.5974 18.5719 65.5974 15.8653ZM68.1763 14.4235H77.3921C77.2657 12.8553 76.7853 11.6032 75.951 10.6672C75.1166 9.73134 74.0673 9.26338 72.8032 9.26338C71.539 9.26338 70.4898 9.73134 69.6554 10.6672C68.7958 11.6032 68.3028 12.8553 68.1763 14.4235Z" fill="#2E2E2E"/>
<path d="M83.4525 7.51803V2.58554H86.0314V7.51803H88.6482V9.83251H86.0314V20.7978C86.0314 21.1014 86.1452 21.367 86.3727 21.5946C86.6003 21.8223 86.8658 21.9361 87.1692 21.9361H88.6482V24.5162H86.3348C85.551 24.5162 84.8684 24.2379 84.2869 23.6815C83.7306 23.0997 83.4525 22.4167 83.4525 21.6326V9.83251H81.1391V7.51803H83.4525Z" fill="#2E2E2E"/>
<path d="M91.1937 24.5162V7.51803H93.7725V10.5155C94.1518 9.47839 94.8344 8.66895 95.8205 8.08717C96.756 7.50539 97.8052 7.2145 98.9683 7.2145H100.106V9.83251H98.9683C97.5018 9.83251 96.263 10.4143 95.2516 11.5779C94.2656 12.6908 93.7725 14.0315 93.7725 15.5997V24.5162H91.1937Z" fill="#2E2E2E"/>
<path d="M102.344 24.5162V7.2145H104.923V24.5162H102.344ZM102.344 4.06528V1.44727H104.923V4.06528H102.344Z" fill="#2E2E2E"/>
<path d="M107.925 15.8653C107.925 13.1588 108.608 10.9961 109.973 9.37721C111.338 7.75834 113.159 6.9489 115.434 6.9489C117.432 6.9489 119.088 7.53068 120.403 8.69425C121.692 9.83252 122.425 11.3629 122.602 13.2853H120.023C119.922 12.0711 119.454 11.0973 118.62 10.3637C117.786 9.63016 116.724 9.26338 115.434 9.26338C113.943 9.26338 112.754 9.87046 111.869 11.0846C110.959 12.2735 110.504 13.867 110.504 15.8653C110.504 17.8636 110.959 19.4699 111.869 20.684C112.754 21.8982 113.943 22.5052 115.434 22.5052C116.699 22.5052 117.748 22.1132 118.582 21.329C119.416 20.5449 119.897 19.4952 120.023 18.1798H122.602C122.425 20.1781 121.679 21.7717 120.365 22.9606C119.075 24.1747 117.432 24.7818 115.434 24.7818C113.159 24.7818 111.338 23.9723 109.973 22.3535C108.608 20.7346 107.925 18.5719 107.925 15.8653Z" fill="#2E2E2E"/>
<path d="M123.708 7.51803H126.287L130.307 21.0634L134.062 7.51803H136.375L140.395 21.0634L144.15 7.51803H146.766L141.571 24.5162H138.688L135.237 11.5399L131.748 24.5162H128.866L123.708 7.51803Z" fill="#2E2E2E"/>
<path d="M149.092 24.5162V7.2145H151.671V24.5162H149.092ZM149.092 4.06528V1.44727H151.671V4.06528H149.092Z" fill="#2E2E2E"/>
<path d="M154.408 18.1798H156.987C156.987 19.394 157.354 20.3678 158.087 21.1014C158.82 21.8349 159.793 22.2017 161.007 22.2017C162.246 22.2017 163.232 21.9741 163.965 21.5187C164.698 21.0634 165.065 20.469 165.065 19.7355C165.065 18.7237 164.547 17.9269 163.51 17.3451C162.65 16.8645 161.538 16.561 160.173 16.4345C158.732 16.308 157.518 15.7768 156.532 14.8409C155.495 13.8797 154.977 12.7288 154.977 11.3881C154.977 9.94634 155.508 8.79543 156.57 7.9354C157.606 7.07537 158.997 6.64536 160.742 6.64536C162.663 6.64536 164.193 7.17655 165.331 8.23894C166.494 9.27603 167.075 10.6672 167.075 12.4126H164.496C164.496 11.3755 164.155 10.5408 163.472 9.9084C162.79 9.27603 161.879 8.95984 160.742 8.95984C159.781 8.95984 159.01 9.17485 158.428 9.60486C157.847 10.0602 157.556 10.6546 157.556 11.3881C157.556 12.2735 158.024 12.9438 158.959 13.3991C159.667 13.7785 160.653 14.0188 161.917 14.12C163.485 14.2465 164.825 14.7777 165.937 15.7136C167.1 16.7001 167.682 17.9016 167.682 19.3181C167.682 20.8864 167.1 22.1385 165.937 23.0744C164.774 24.0103 163.232 24.4782 161.31 24.4782C159.212 24.4782 157.543 23.9091 156.304 22.7708C155.04 21.6073 154.408 20.0769 154.408 18.1798Z" fill="#2E2E2E"/>
<path d="M169.589 15.8653C169.589 13.1588 170.246 10.9961 171.561 9.37721C172.876 7.75834 174.62 6.9489 176.794 6.9489C178.969 6.9489 180.713 7.75834 182.028 9.37721C183.343 10.9961 184 13.1588 184 15.8653V16.738H172.168C172.168 18.4834 172.585 19.8746 173.419 20.9117C174.279 21.9741 175.404 22.5052 176.794 22.5052C178.008 22.5052 179.007 22.1891 179.791 21.5567C180.574 20.9243 181.017 20.0896 181.118 19.0525H183.697C183.545 20.7978 182.837 22.1891 181.573 23.2261C180.334 24.2632 178.741 24.7818 176.794 24.7818C174.62 24.7818 172.876 23.9723 171.561 22.3535C170.246 20.7346 169.589 18.5719 169.589 15.8653ZM172.168 14.4235H181.383C181.257 12.8553 180.777 11.6032 179.942 10.6672C179.108 9.73134 178.059 9.26338 176.794 9.26338C175.53 9.26338 174.481 9.73134 173.647 10.6672C172.787 11.6032 172.294 12.8553 172.168 14.4235Z" fill="#2E2E2E"/>
</svg>
