<svg width="1214" height="535" viewBox="0 0 1214 535" fill="none" xmlns="http://www.w3.org/2000/svg">
<path d="M509.857 322.695L327.613 429.041L400.341 472.04L401.147 471.578L335.207 511.494" stroke="#E5E5E5" stroke-width="5.06" stroke-miterlimit="10"/>
<path d="M400.341 386.968L353.578 359.922L300.034 391.824L290.039 386.044" stroke="#E5E5E5" stroke-width="5.06" stroke-miterlimit="10"/>
<path d="M510.65 364.773L427.922 413.554L464.687 433.894L437.911 450.309" stroke="#E5E5E5" stroke-width="5.06" stroke-miterlimit="10"/>
<path d="M529.035 376.336L593.381 413.555L621.758 397.141L686.1 434.363" stroke="#E5E5E5" stroke-width="5.06" stroke-miterlimit="10"/>
<path d="M509.059 397.598L593.376 445.455L557.411 466.259L584.19 481.75" stroke="#E5E5E5" stroke-width="5.06" stroke-miterlimit="10"/>
<path d="M612.57 328.016L693.695 375.87L713.681 365.238L764.684 395.667" stroke="#E5E5E5" stroke-width="5.06" stroke-miterlimit="10"/>
<path d="M739.65 434.359L657.723 386.967L684.726 370.547" stroke="#E5E5E5" stroke-width="5.06" stroke-miterlimit="10"/>
<path d="M257.828 362.136L300.036 338.651L326.009 354.603L400.343 312.526L419.523 323.625L447.109 306.746" stroke="#E5E5E5" stroke-width="5.06" stroke-miterlimit="10"/>
<path d="M583.391 301.43L603.371 312.062L629.345 296.109L704.482 338.646L721.264 328.011L768.83 354.598" stroke="#E5E5E5" stroke-width="5.06" stroke-miterlimit="10"/>
<path d="M612.57 285.481L675.312 248.262L705.789 265.89L737.773 244.035" stroke="#E5E5E5" stroke-width="5.06" stroke-miterlimit="10"/>
<path d="M565 280.161L612.563 253.576L593.374 243.404L630.143 222.137" stroke="#E5E5E5" stroke-width="5.06" stroke-miterlimit="10"/>
<path d="M520.641 253.573L557.409 232.306L539.026 221.671L584.183 194.625" stroke="#E5E5E5" stroke-width="5.06" stroke-miterlimit="10"/>
<path d="M630.15 199.941L592.579 221.673L566.605 205.721" stroke="#E5E5E5" stroke-width="5.06" stroke-miterlimit="10"/>
<path d="M575.803 168.5L529.034 194.625L538.225 199.943L501.457 222.136L541.742 244.508" stroke="#E5E5E5" stroke-width="5.06" stroke-miterlimit="10"/>
<path d="M525.017 256.105L428.722 200.402L464.69 179.598L422.328 155.094" stroke="#E5E5E5" stroke-width="5.06" stroke-miterlimit="10"/>
<path d="M482.281 275.764L390.353 221.671L372.771 232.768L327.617 206.648" stroke="#E5E5E5" stroke-width="5.06" stroke-miterlimit="10"/>
<path d="M454.703 312.063L354.386 254.036L317.609 274.379L257.828 240.727" stroke="#E5E5E5" stroke-width="5.06" stroke-miterlimit="10"/>
<path d="M400.351 258.43L381.168 269.527" stroke="#E5E5E5" stroke-width="5.06" stroke-miterlimit="10"/>
<path d="M381.961 194.625L427.921 222.136L407.929 232.771" stroke="#E5E5E5" stroke-width="5.06" stroke-miterlimit="10"/>
<path d="M263.47 243.575C260.417 244.863 255.397 244.812 252.253 243.46C249.109 242.108 249.097 240.017 252.253 238.791C255.409 237.566 260.417 237.62 263.47 238.909C266.522 240.197 266.522 242.286 263.47 243.575Z" fill="#E5E5E5"/>
<path d="M337.549 209.019C334.497 210.305 329.474 210.253 326.332 208.902C323.191 207.55 323.191 205.458 326.332 204.233C329.474 203.007 334.497 203.062 337.549 204.35C340.602 205.639 340.604 207.728 337.549 209.019Z" fill="#E5E5E5"/>
<path d="M386.806 196.989C383.751 198.278 378.725 198.226 375.584 196.872C372.443 195.517 372.428 193.428 375.584 192.206C378.74 190.983 383.751 191.032 386.806 192.32C389.862 193.609 389.856 195.701 386.806 196.989Z" fill="#E5E5E5"/>
<path d="M429.372 157.462C426.32 158.75 421.299 158.698 418.158 157.347C415.017 155.995 415.003 153.903 418.158 152.678C421.314 151.453 426.32 151.507 429.372 152.796C432.424 154.084 432.43 156.173 429.372 157.462Z" fill="#E5E5E5"/>
<path d="M581.448 170.403C578.39 171.692 573.37 171.64 570.226 170.286C567.082 168.931 567.07 166.842 570.226 165.62C573.381 164.397 578.39 164.446 581.448 165.734C584.506 167.023 584.5 169.112 581.448 170.403Z" fill="#E5E5E5"/>
<path d="M589.027 197.454C585.972 198.745 580.952 198.693 577.808 197.339C574.664 195.985 574.652 193.895 577.808 192.67C580.963 191.445 585.972 191.499 589.027 192.788C592.082 194.076 592.08 196.165 589.027 197.454Z" fill="#E5E5E5"/>
<path d="M634.675 202.422C631.622 203.711 626.596 203.659 623.458 202.305C620.32 200.95 620.302 198.861 623.458 197.639C626.613 196.416 631.622 196.465 634.675 197.756C637.727 199.048 637.727 201.134 634.675 202.422Z" fill="#E5E5E5"/>
<path d="M635.785 223.583C632.73 224.871 627.71 224.82 624.566 223.465C621.422 222.111 621.43 220.022 624.566 218.799C627.701 217.577 632.733 217.626 635.785 218.914C638.838 220.203 638.843 222.286 635.785 223.583Z" fill="#E5E5E5"/>
<path d="M743.41 245.311C740.352 246.599 735.332 246.55 732.191 245.196C729.05 243.841 729.052 241.752 732.191 240.53C735.329 239.307 740.355 239.356 743.407 240.645C746.46 241.933 746.466 244.022 743.41 245.311Z" fill="#E5E5E5"/>
<path d="M774.478 356.502C771.423 357.79 766.4 357.741 763.258 356.387C760.117 355.032 760.117 352.943 763.258 351.718C766.4 350.493 771.423 350.544 774.478 351.836C777.533 353.127 777.522 355.213 774.478 356.502Z" fill="#E5E5E5"/>
<path d="M770.33 399.047C767.272 400.336 762.249 400.287 759.11 398.93C755.972 397.572 755.955 395.486 759.11 394.264C762.266 393.041 767.275 393.09 770.33 394.381C773.385 395.673 773.379 397.77 770.33 399.047Z" fill="#E5E5E5"/>
<path d="M743.41 437.192C740.352 438.481 735.332 438.429 732.191 437.075C729.05 435.72 729.052 433.631 732.191 432.409C735.329 431.186 740.355 431.235 743.407 432.523C746.46 433.812 746.466 435.901 743.41 437.192Z" fill="#E5E5E5"/>
<path d="M691.445 436.725C688.39 438.01 683.37 437.961 680.229 436.607C677.087 435.252 677.073 433.163 680.229 431.941C683.384 430.718 688.393 430.764 691.445 432.056C694.498 433.347 694.498 435.433 691.445 436.725Z" fill="#E5E5E5"/>
<path d="M589.019 484.114C585.967 485.403 580.944 485.351 577.806 483.997C574.667 482.642 574.65 480.553 577.806 479.331C580.961 478.108 585.97 478.157 589.019 479.445C592.069 480.734 592.077 482.823 589.019 484.114Z" fill="#E5E5E5"/>
<path d="M443.559 452.674C440.503 453.962 435.483 453.914 432.339 452.559C429.195 451.205 429.183 449.115 432.339 447.893C435.495 446.671 440.503 446.719 443.559 448.008C446.614 449.296 446.611 451.385 443.559 452.674Z" fill="#E5E5E5"/>
<path d="M341.639 512.723C338.587 514.012 333.564 513.96 330.42 512.606C327.275 511.251 327.278 509.162 330.42 507.94C333.561 506.717 338.584 506.766 341.636 508.057C344.689 509.349 344.694 511.435 341.639 512.723Z" fill="#E5E5E5"/>
<path d="M296.491 389.337C293.433 390.625 288.413 390.576 285.269 389.222C282.125 387.867 282.113 385.778 285.269 384.553C288.424 383.328 293.433 383.382 296.488 384.671C299.543 385.959 299.541 388.045 296.491 389.337Z" fill="#E5E5E5"/>
<path d="M263.47 364.502C260.417 365.793 255.397 365.741 252.253 364.387C249.109 363.032 249.097 360.943 252.253 359.718C255.409 358.493 260.417 358.544 263.47 359.836C266.522 361.127 266.522 363.213 263.47 364.502Z" fill="#E5E5E5"/>
<path d="M406.794 260.794C403.739 262.082 398.716 262.03 395.572 260.676C392.428 259.321 392.431 257.232 395.572 256.01C398.713 254.787 403.736 254.836 406.791 256.128C409.847 257.419 409.864 259.505 406.794 260.794Z" fill="#E5E5E5"/>
<path d="M364.531 278.656L518.923 189.305L673.547 278.656L519.038 369.219L364.531 278.656Z" fill="#E5E5E5"/>
<path d="M364.531 278.656V324.889L519.038 413.552V367.893L364.531 278.656Z" fill="#92BED6"/>
<path d="M673.544 278.656V324.889L519.035 413.552V367.893L673.544 278.656Z" fill="#BFD8E8"/>
<path d="M364.531 290.703V309.158L519.038 396.558V378.327L364.531 290.703Z" fill="url(#paint0_linear_491_19877)"/>
<path d="M673.544 290.703V309.158L519.035 396.558V378.327L673.544 290.703Z" fill="url(#paint1_linear_491_19877)"/>
<g opacity="0.6">
<path d="M581.237 302.517C547.564 316.722 492.194 316.148 457.56 301.231C422.926 286.315 422.929 263.277 457.56 249.782C492.192 236.286 547.566 236.868 581.228 251.07C614.89 265.272 614.898 288.306 581.237 302.517Z" fill="#A2D9F6"/>
</g>
<path d="M540.199 120.508L554.004 130.942C554.004 130.942 556.164 132.606 557.159 134.024C558.594 136.033 558.834 138.127 557.159 139.307C557.159 139.307 558.2 142.337 537.262 130.316L540.199 120.508Z" fill="#F7B18A"/>
<path d="M552.379 128.025L537.597 117.906C537.597 117.906 533.07 114.276 528.741 117.246C524.842 119.927 526.607 125.91 528.907 127.652C530.517 128.871 539.981 134.372 547.861 136.918C547.861 136.921 552.964 132.651 552.379 128.025Z" fill="#008E8E"/>
<path d="M522.512 275.425L525.275 274.631L522.897 272.797L522.168 274.447L522.512 275.425Z" fill="#1F181A"/>
<path d="M522.497 274.812V275.424L517.786 273.702C517.786 273.702 516.713 266.528 518.331 262.863L527.511 263.741L528.86 267.412C528.86 267.412 534.517 272.069 538.349 274.465C538.349 274.465 540.879 275.926 540.644 277.871C540.644 277.871 539.91 281.433 534.118 279.542C534.118 279.542 530.013 278.107 527.13 276.899C527.147 276.896 524.011 274.577 522.497 274.812Z" fill="#302546"/>
<path d="M522.501 274.811C524.016 274.576 527.151 276.895 527.151 276.895C530.034 278.1 534.139 279.538 534.139 279.538C539.931 281.429 540.666 277.868 540.666 277.868C540.704 277.45 540.63 277.03 540.45 276.651C538.302 279.718 520.757 269.692 523.605 269.692C525.266 269.692 527.596 268.742 529.42 267.855L528.875 267.408L527.527 263.737L518.347 262.859C516.729 266.535 517.802 273.698 517.802 273.698L522.512 275.42L522.501 274.811Z" fill="#281E33"/>
<path d="M517.456 197.422C517.456 197.422 521.223 218.158 521.759 220.187C522.296 222.216 522.855 230.403 522.855 230.403C522.855 230.403 520.371 238.989 520.095 241.095C519.82 243.202 516.902 264.735 516.902 264.735C516.902 264.735 518.254 269.149 529.074 264.486C529.074 264.486 532.778 242.065 534.731 233.207C536.849 223.639 536.286 198.117 536.524 192.007C536.687 187.05 536.538 182.087 536.077 177.148L517.456 197.422Z" fill="#182039"/>
<path d="M509.477 285.519L512.243 284.727L509.864 282.891L509.133 284.538L509.477 285.519Z" fill="#1F181A"/>
<path d="M504.12 284.91V285.521L499.41 283.8C499.41 283.8 498.34 276.625 499.955 272.961L509.135 273.839L510.48 277.509C510.48 277.509 516.135 282.161 519.97 284.56C519.97 284.56 522.5 286.021 522.265 287.972C522.265 287.972 521.531 291.53 515.73 289.639C515.73 289.639 511.628 288.204 508.742 286.993C508.765 287.002 505.632 284.672 504.12 284.91Z" fill="#302546"/>
<path d="M504.118 284.909C505.63 284.671 508.762 286.99 508.762 286.99C511.648 288.2 515.75 289.635 515.75 289.635C521.551 291.526 522.285 287.968 522.285 287.968C522.324 287.548 522.248 287.125 522.065 286.746C519.919 289.813 502.374 279.787 505.222 279.787C506.88 279.787 509.21 278.843 511.037 277.95L510.492 277.505L509.147 273.835L499.967 272.957C498.352 276.63 499.422 283.796 499.422 283.796L504.132 285.517L504.118 284.909Z" fill="#281E33"/>
<path d="M496.801 275.423C496.801 275.423 501.287 278.456 510.688 275.423C510.688 275.423 510.017 246.887 513.333 237.432C513.333 237.432 518.285 228.487 518.738 225.11C519.191 221.732 526.458 195.047 527.78 191.925C528.598 190.003 532.826 177.043 532.602 174.24C532.379 171.436 504.231 179.514 504.231 179.514C504.231 179.514 504.805 181.342 504.486 190.665C504.116 201.544 502.61 220.682 502.082 221.586C502.082 221.586 498.912 230.439 497.584 236.594C496.944 239.535 496.801 275.423 496.801 275.423Z" fill="#182039"/>
<path d="M502.443 126.056C502.443 126.056 501.448 124.547 512.231 118.997C514.308 117.93 526.652 116.294 531.409 116.188C534.203 116.125 539.616 129.288 536.859 144.669C536.859 144.669 537.789 173.557 537.789 180.086C537.789 180.086 530.812 186.454 519.4 186.448C519.4 186.448 509.36 185.647 503.178 179.561C503.178 179.561 504.42 171.239 504.87 162.093C504.87 162.093 505.932 150.583 503.989 145.162C502.673 141.489 498.086 128.108 502.443 126.056Z" fill="#00A7B0"/>
<path d="M508.071 144.044L503.857 167.951C503.857 167.951 500.26 168.812 499.121 167.489L500.223 143.496L508.071 144.044Z" fill="#F7B18A"/>
<path d="M525.114 115.865C525.125 118.28 525.302 120.691 525.642 123.082C525.642 123.082 524.408 125.521 523.387 126.055C523.387 126.055 515.498 124.144 512.23 118.996C512.23 118.996 514.302 113.914 512.492 105.437L513.952 104.754L525.114 115.865Z" fill="#F29E70"/>
<path d="M512.23 118.998C513.165 120.41 514.368 121.625 515.77 122.573C514.976 120.08 514.675 114.185 514.675 114.185C518.249 117.17 523.06 118.86 525.243 119.351C525.226 117.531 525.114 115.861 525.114 115.861L513.952 104.75L512.492 105.433C514.302 113.916 512.23 118.998 512.23 118.998Z" fill="#D4794C"/>
<path d="M530.028 94.6738L530.889 101.274C530.889 101.274 530.932 107.719 530.41 110.597C530.41 110.597 529.612 116.05 528.577 117.223C527.33 117.908 525.87 118.094 524.492 117.743C522.77 117.309 517.73 115.548 515.819 112.577C515.819 112.577 513.387 108.417 513.43 107.125C513.43 107.125 512.89 108.356 511.995 106.801C511.1 105.246 510.753 102.255 511.014 101.349C511.275 100.442 512.483 100.829 512.767 100.829C513.051 100.829 513.481 101.217 513.717 102.126C513.952 103.036 512.759 95.9594 514.632 93.5576C517.389 90.0451 525.826 88.4869 530.028 94.6738Z" fill="#F7B18A"/>
<path d="M513.426 101.623C513.426 101.623 513.779 104.077 514.209 104.286C514.639 104.496 515.173 103.451 515.018 102.774C514.863 102.097 516.599 99.6835 516.888 96.7823L521.63 97.1353C524.462 97.3476 528.561 97.7752 530.211 96.085C530.673 95.6115 530.151 91.4304 528.86 90.4691C528.86 90.4691 523.882 85.3267 513.44 87.4388C513.44 87.4388 506.693 88.4058 507.99 100.639C508.653 103.083 509.698 105.407 511.085 107.526C512.277 109.283 513.007 111.312 513.208 113.426C513.208 113.426 513.991 109.641 513.44 107.093C513.44 107.093 512.402 109.282 511.197 104.37C511.197 104.37 510.595 101.161 511.742 100.731C511.739 100.762 512.964 100.496 513.426 101.623Z" fill="#432C2F"/>
<path d="M508.629 149.034L512.399 131.529C512.399 131.529 514.046 125.965 509.659 123.081C505.706 120.484 500.101 124.607 499.472 129.001C499.186 131.009 498.064 139.966 498.692 148.227C498.692 148.213 504.562 151.332 508.629 149.034Z" fill="#00A7B0"/>
<path d="M532.687 99.3731L530.756 97.7833C530.756 97.7833 529.17 97.4963 527.566 99.2353C527.566 99.2353 527.044 100.314 524.038 99.8552C521.33 99.442 519.689 100.142 519.345 100.363C519.345 100.363 516.8 101.947 518.295 106.886L519.675 108.019L532.687 99.3731Z" fill="#30294C"/>
<path d="M522.11 104.206L534.938 101.078C535.047 101.081 535.152 101.111 535.245 101.167L535.271 101.187L536.221 101.862L535.331 102.496L535.128 106.496C535.035 106.62 534.907 106.713 534.761 106.763C534.591 106.835 527.787 108.508 524.557 109.314L522.629 110.694L521.805 110C521.805 110 521.582 109.839 521.608 109.409L521.846 104.507C521.846 104.507 521.803 104.272 522.11 104.206Z" fill="#30294C"/>
<path d="M519.66 101.934L532.379 98.8203C532.487 98.8209 532.592 98.8506 532.684 98.9064L532.706 98.9208L536.272 101.831L533.891 103.01L531.912 103.693C531.819 103.814 531.694 103.907 531.55 103.96C531.378 104.029 528.039 108.612 524.809 109.412L522.62 110.683L519.332 108.029C519.332 108.029 519.109 107.871 519.126 107.438L519.387 102.238C519.387 102.238 519.35 102.011 519.66 101.934Z" fill="#DEDCEF"/>
<path d="M523.775 110.022L522.628 110.693L519.34 108.039C519.34 108.039 519.117 107.881 519.134 107.448L519.395 102.248C519.389 102.202 519.397 102.155 519.418 102.113L523.288 105.482L523.775 110.022Z" fill="#ADACCC"/>
<path d="M536.395 102.239L536.14 107.215C536.046 107.337 535.92 107.429 535.775 107.482C535.514 107.585 522.7 110.736 522.7 110.736C522.7 110.736 522.467 110.701 522.499 110.145L522.743 105.24C522.743 105.24 522.723 105.005 523.03 104.931L535.939 101.797C535.939 101.797 536.452 101.791 536.395 102.239Z" fill="#40386D"/>
<path d="M535.92 102.515L535.685 107.152C535.597 107.266 535.479 107.352 535.344 107.402C535.1 107.496 523.16 110.432 523.16 110.432C523.16 110.432 522.945 110.401 522.971 109.881L523.203 105.313C523.203 105.313 523.183 105.092 523.473 105.026L535.516 102.102C535.516 102.102 535.978 102.099 535.92 102.515Z" fill="#24204A"/>
<path d="M518.199 105.913L518.971 106.441L519.163 102.702L518.397 102.082L518.199 105.913Z" fill="#DEDCEF"/>
<path d="M508.099 94.332C511.301 97.6369 514.896 100.536 518.805 102.964L518.661 105.885C518.661 105.885 511.033 101.035 507.82 97.1041C507.83 96.1736 507.923 95.2459 508.099 94.332Z" fill="#1D1933"/>
<path d="M552.438 137.617C552.438 137.617 563.884 116.417 565.533 112.144C565.533 112.144 568.055 110.256 568.976 113.332C568.976 113.332 561.835 135.066 560.249 137.597C558.066 141.061 554.314 139.698 552.438 137.617Z" fill="#F7B18A"/>
<path d="M504.271 165.559C504.876 169.686 505.147 173.856 505.08 178.027C505.026 182.854 504.26 192.527 504.26 192.527L502.252 192.728C502.252 192.728 499.208 177.757 499.113 167.476L504.271 165.559Z" fill="#F7B18A"/>
<path d="M502.16 203.497C501.93 202.57 501.873 198.813 502.114 196.61C502.249 195.367 500.932 185.206 500.852 184.749C501.138 184.6 504.182 180.235 505.086 180.238C505.143 181.145 505.086 193.634 505.086 193.634C506.25 194.875 507.131 196.354 507.668 197.97C508.241 199.798 508.715 201.187 508.976 201.878C509.237 202.57 508.743 202.739 508.743 202.739C508.032 202.596 506.976 200.515 506.859 200.268C507.054 200.796 507.507 202.765 507.507 202.765C507.507 202.765 508.54 207.5 508.313 207.623C508.086 207.747 507.805 207.603 507.582 207.11C507.358 206.616 506.253 202.693 506.21 202.492C506.167 202.291 506.11 202.042 505.987 202.042C505.863 202.042 507.518 208.481 507.378 208.562C507.378 208.562 507.355 208.969 507.071 208.992C506.787 209.015 506.641 208.992 506.477 208.398C506.331 207.879 504.822 202.676 504.822 202.676C504.822 202.676 504.701 202.432 504.558 202.716C504.415 203 505.763 208.622 505.763 208.622C505.763 208.622 505.967 209.092 505.617 209.276C505.267 209.46 504.988 209.42 504.799 208.785C504.799 208.785 503.514 203.411 503.365 203.431C503.215 203.451 503.324 203.758 503.324 203.758L503.958 208.705C503.959 208.77 503.947 208.834 503.923 208.894C503.898 208.954 503.862 209.008 503.816 209.054C503.771 209.099 503.716 209.136 503.656 209.16C503.597 209.184 503.532 209.197 503.468 209.196C502.997 209.236 502.808 207.566 502.808 207.566L502.16 203.497Z" fill="#F7B18A"/>
<path d="M571.902 109.846L570.505 109.106C568.958 108.397 568.158 108.928 568.158 108.928C566.477 108.739 565.895 109.502 565.453 110.845C564.965 112.314 564.741 113.195 565.166 113.677C565.74 114.334 570.596 114.538 572.625 114.354C574.059 114.225 574.329 113.516 574.329 113.516C574.329 113.516 575.333 113.356 575.62 113.164C575.863 112.981 576.09 112.776 576.297 112.552C576.4 112.56 576.504 112.547 576.603 112.514C576.701 112.481 576.792 112.429 576.87 112.36C577.062 112.133 578.124 110.136 578.124 110.136C578.124 110.136 578.832 109.043 578.411 108.988C577.989 108.934 577.444 109.505 577.28 109.729C577.28 109.729 578.029 107.648 577.797 107.413C577.412 107.025 576.865 107.671 576.799 107.895C576.688 108.181 576.559 108.46 576.414 108.73C576.414 108.73 576.899 106.896 576.54 106.638C576.182 106.38 575.967 106.773 575.542 107.637C575.542 107.637 575.029 108.764 574.868 109.215C574.868 109.215 575.224 107.573 575.255 107.284C575.287 106.994 575.416 106.061 574.968 106.187C574.521 106.314 573.987 107.82 573.821 108.411C573.6 109.117 572.731 109.315 571.902 109.846Z" fill="#F7B18A"/>
<path opacity="0.6" d="M613.254 67.2989C613.253 75.3087 610.878 83.1385 606.429 89.7982C601.98 96.4579 595.657 101.648 588.259 104.713C580.861 107.778 572.721 108.58 564.867 107.017C557.014 105.454 549.8 101.596 544.138 95.9322C538.477 90.2682 534.621 83.0519 533.059 75.1959C531.497 67.34 532.299 59.1971 535.363 51.797C538.428 44.3969 543.617 38.072 550.275 33.622C556.933 29.172 564.76 26.7969 572.767 26.7969C578.085 26.7965 583.35 27.8439 588.262 29.8792C593.174 31.9145 597.638 34.8979 601.397 38.659C605.157 42.42 608.139 46.8851 610.173 51.7992C612.208 56.7133 613.254 61.9801 613.254 67.2989Z" fill="#E5E5E5"/>
<path d="M556.557 30.1834C556.557 30.1834 556.572 30.1834 556.58 30.1834C556.589 30.1834 556.58 30.1834 556.56 30.1834C556.54 30.1834 556.959 30.0141 557.016 29.9883H556.973L556.543 30.1748" fill="url(#paint2_linear_491_19877)"/>
<path d="M554.935 30.9362C554.946 30.9287 554.958 30.9229 554.97 30.9189L555.004 30.9017L555.047 30.8845L555.105 30.8558L555.165 30.83L555.225 30.8013L555.28 30.7755L555.326 30.7554C555.595 30.6348 555.856 30.5 556.123 30.3794H556.103C556.218 30.3184 556.337 30.2647 556.459 30.2188L554.887 30.9505L554.924 30.9333" fill="url(#paint3_linear_491_19877)"/>
<path d="M548.71 34.7422C548.424 34.9431 548.424 34.9431 547.629 35.7867C547.778 35.7287 547.916 35.6452 548.036 35.5399C547.996 35.649 547.896 35.7093 547.853 35.8269C547.976 35.8269 548.805 35.0579 548.831 34.9976C548.765 34.9976 548.765 34.9976 548.484 35.1698C548.544 35.098 548.63 35.0406 548.696 34.9746C548.657 34.9798 548.618 34.9894 548.581 35.0033C548.71 34.8025 548.949 34.7164 549.101 34.5471C549.064 34.5574 549.029 34.5709 548.994 34.5872C549.233 34.3905 549.482 34.2066 549.74 34.0363C549.646 34.1252 549.542 34.197 549.453 34.2859C550.073 33.999 550.564 33.4968 551.146 33.1381C551.129 33.161 551.109 33.1955 551.094 33.2155C551.155 33.2155 551.155 33.2155 552.529 32.369C552.496 32.3875 552.463 32.4038 552.428 32.4178C552.973 31.9615 553.685 31.7721 554.25 31.3359C554.161 31.3704 554.078 31.4192 553.995 31.4565C554.049 31.422 554.109 31.3905 554.17 31.356C553.183 31.907 551.875 32.6502 550.916 33.25L548.733 34.7565" fill="url(#paint4_linear_491_19877)"/>
<path d="M571.26 106.963C571.31 106.943 571.359 106.919 571.406 106.891C571.326 106.897 571.247 106.912 571.171 106.937C571.222 106.9 571.28 106.874 571.334 106.84C571.131 106.889 570.932 106.955 570.74 107.038C570.814 107.011 570.884 106.975 570.95 106.932C570.872 106.932 570.605 106.932 570.56 107.072C570.485 107.095 569.865 107.219 569.733 107.233C569.966 107.147 570.218 107.135 570.448 107.044H570.405C570.281 107.044 569.28 107.216 569.274 107.216C568.632 107.333 567.975 107.181 567.332 107.299C567.573 107.486 567.831 107.316 568.078 107.339C567.654 107.431 567.24 107.282 566.816 107.282C566.85 107.3 566.887 107.312 566.925 107.316C566.662 107.308 566.401 107.282 566.142 107.239H566.17C566.079 107.222 565.734 107.181 565.734 107.181C565.791 107.198 565.848 107.211 565.906 107.222L565.754 107.199C566.093 107.253 566.54 107.331 566.879 107.379L567.051 107.405C567.685 107.491 568.402 107.592 568.732 107.52C568.686 107.515 568.641 107.505 568.597 107.491C570.694 107.204 570.872 107.13 571.26 106.966" fill="url(#paint5_linear_491_19877)"/>
<path d="M611.963 66.9327C611.874 77.3007 611.866 78.3854 609.829 82.6755C606.301 90.1165 606.301 90.1165 596.286 99.9651L596.481 99.9507C596.421 100.008 596.421 100.008 595.445 100.728C596.168 100.375 597.092 99.724 598.532 98.5532L599.826 97.4369C602.494 94.8542 602.775 94.5931 604.416 92.5729C606.762 89.4163 606.9 89.2154 608.114 87.089C609.938 83.5278 610.044 83.3126 610.87 81.0628C612.127 77.1056 612.176 76.9506 612.612 74.6004C613.185 70.4796 613.243 70.141 613.277 67.3574C613.228 66.1809 613.197 64.6112 613.097 63.4375C613.246 65.2655 613.246 65.2655 613.033 68.0146C612.85 67.6128 612.899 67.1537 612.747 66.7491L612.543 66.706C612.388 66.3904 612.589 65.957 612.21 65.7131L612.032 65.7849C612.015 66.1263 611.972 66.5855 611.969 66.9327" fill="url(#paint6_linear_491_19877)"/>
<path d="M608.118 53.2941L608.293 53.2712C608.542 53.5301 608.777 53.8022 608.996 54.0861C609.369 54.0574 609.369 54.0574 609.547 54.1894C609.547 54.1263 609.547 54.046 609.547 53.9857L609.708 54.0632C609.708 54.0431 609.708 54.0431 609.581 52.6886C609.868 53.1076 610 53.627 610.365 54.0029C610.261 52.5681 610.261 52.5681 610.043 51.9942C610.166 52.1373 610.263 52.3004 610.33 52.4763C610.33 52.4246 610.301 52.3586 610.287 52.307C610.666 53.033 610.801 53.7418 611.148 55.6185C611.019 55.2971 610.961 54.9556 610.815 54.6457C610.978 55.871 610.978 55.871 610.967 55.894C610.867 55.8309 610.867 55.8309 609.86 53.4778C609.951 54.0345 610.112 54.5826 610.146 55.1479C610.04 55.0634 609.944 54.9671 609.86 54.8609C609.599 55.6386 609.553 55.7792 611.085 60.6002C611.698 62.5401 612.519 64.4053 612.943 66.4083C613.13 65.7828 613.13 65.7828 612.832 61.4295L612.691 60.5428C611.83 56.3732 611.805 56.2929 611.036 54.0546C609.544 50.2293 609.487 50.0801 608.365 47.9968C606.3 44.5188 606.219 44.3839 604.748 42.4699C602.24 39.4768 602.085 39.296 600.235 37.5542C597.84 35.4909 596.253 34.125 592.73 32.0703C600.307 36.3748 605.901 43.8989 608.092 53.3056" fill="url(#paint7_linear_491_19877)"/>
<path d="M602.566 92.4593L602.649 92.3846C602.619 92.4072 602.592 92.4321 602.566 92.4593ZM606.33 85.4372C606.33 85.4172 607.764 83.1702 607.764 83.1645C607.764 83.1588 607.778 83.2104 607.781 83.2305C607.784 83.2506 607.294 85.2593 607.176 85.4487C606.99 85.7089 606.821 85.9812 606.671 86.2637C606.659 86.2932 606.658 86.3263 606.668 86.3566C606.679 86.3868 606.7 86.412 606.728 86.4273C606.829 86.5048 606.829 86.6855 606.728 86.9524C606.498 87.5083 606.21 88.0384 605.868 88.5336L605.813 88.6168C605.526 89.0329 605.139 89.3744 604.818 89.7647C604.448 90.2209 604.33 90.8293 603.92 91.2655C603.9 91.2798 602.256 92.9873 601.625 93.0303C601.642 92.8926 601.642 92.8725 602.296 92.0431C603.335 90.726 603.599 90.2095 603.731 89.9598C604 89.4375 604.517 89.1305 604.841 88.6512C605.165 88.172 605.228 87.601 605.492 87.1074C605.621 86.8692 605.865 86.7228 605.98 86.4789C606.046 86.3415 606.084 86.1922 606.092 86.0399C606.127 85.8219 606.209 85.6143 606.333 85.4315" fill="url(#paint8_linear_491_19877)"/>
<path d="M575.703 95.6932C575.551 96.2844 575.551 96.2844 573.827 97.5154C573.893 97.6159 573.976 97.7536 574.045 97.8541C574.013 97.9803 573.967 98.141 573.938 98.2816C573.643 98.3763 573.355 98.4944 573.078 98.6346C573.138 98.9155 573.261 99.1793 573.436 99.4065C571.641 103.809 571.641 103.809 569.42 103.464C568.987 104.167 568.987 104.167 568.408 104.222C568.433 104.509 568.485 104.856 568.54 105.126C567.848 105.751 567.848 105.751 567.679 106.147L567.251 106.222C567.184 106.475 567.053 106.706 566.87 106.893L566.405 106.856C566.526 106.919 566.692 107.005 566.792 107.071H566.348C567.34 107.401 567.34 107.401 567.495 107.459L567.074 107.404L566.902 107.378L565.777 107.198L565.39 107.117L565.137 107.068C562.495 106.495 560.834 104.773 559.601 103.542C559.632 102.951 559.256 102.377 558.493 101.837C558.562 101.728 558.668 101.582 558.743 101.47C558.559 101.248 558.355 101.042 558.135 100.856C558.051 99.8026 555.906 99.045 555.883 99.0421C555.848 98.913 555.8 98.7551 555.762 98.6116C554.534 98.1669 553.857 97.9201 550.24 93.0819C550.272 92.9499 550.309 92.7719 550.335 92.6399L550.028 92.3817C549.913 92.4218 549.764 92.4793 549.655 92.5223C548.986 91.9885 548.989 91.9484 549.15 90.9468C549.409 90.8118 549.651 90.6461 549.87 90.4533C549.365 90.2381 548.763 90.2983 548.318 89.9109C548.415 89.8277 548.539 89.7187 548.636 89.6383C548.467 89.1015 548.379 88.5424 548.375 87.9797L548.8 87.885C548.8 87.753 548.8 87.5779 548.8 87.4459L549.213 87.5492C549.23 87.2334 549.188 86.9172 549.09 86.6166L549.491 86.4157C549.454 86.1371 549.334 85.8761 549.147 85.6667C549.3 85.4066 549.501 85.1785 549.741 84.9952C549.508 84.4672 549.411 84.2463 548.16 82.8688C548.103 82.9779 548.031 83.1214 547.979 83.2276C548.02 83.3509 548.083 83.5145 548.129 83.6379L547.75 83.7843C547.34 83.5633 547.125 83.1214 546.775 82.8344L546.37 82.9377L545.968 82.6938C546.011 82.3828 546.032 82.0693 546.032 81.7554C545.937 81.6665 545.816 81.5431 545.719 81.4685C544.858 81.4972 544.858 81.4972 544.537 81.2159C544.781 81.0392 545.039 80.8828 545.309 80.7482C545.337 80.5731 545.386 80.3407 545.418 80.1743C545.195 80.3389 545.008 80.548 544.87 80.7884C543.886 80.3579 543.88 80.2862 543.768 78.4927C543.258 78.2532 542.727 78.061 542.182 77.9187C541.823 76.989 541.321 76.1281 540.894 75.227L540.495 75.2069C540.383 75.4456 540.21 75.6505 539.993 75.8009C539.706 75.6718 539.706 75.6718 537.936 73.8467C538.338 72.1823 536.84 71.1722 536.536 69.7517C536.218 68.2538 536.462 66.7272 536.269 65.2235C536.017 63.3094 536.33 61.3753 536.051 59.4612C535.552 60.2418 535.604 66.466 535.727 67.5249C534.743 66.8534 534.812 62.0525 534.821 62.0066C534.889 62.1099 534.987 62.2477 535.059 62.351C535.443 61.3696 535.753 56.6748 535.759 56.6117L535.42 56.2989C535.816 53.194 535.816 53.194 540.673 44.8204L541.066 44.7802C549.204 34.6246 549.204 34.6246 549.942 34.0908C549.517 34.3319 549.107 34.5959 548.677 34.8226C549.25 34.3864 549.25 34.3864 550.923 33.3504C550.458 33.5771 550.197 33.6977 548.734 34.7508L550.917 33.2443C551.881 32.6703 553.175 31.8898 554.17 31.3503C554.414 31.2269 554.744 31.0634 554.985 30.9486L554.93 30.9658L556.502 30.234L556.588 30.1939L557.019 30.0045C556.801 30.1135 556.502 30.257 556.273 30.3632C559.253 29.0977 559.254 29.0977 560.41 29.112C558.625 30.1106 558.625 30.1106 556.649 31.3475C557.105 31.3216 557.455 31.0002 557.885 30.8969L557.558 31.1609L558.06 31.0662L557.681 31.3876C557.989 31.3411 558.291 31.2612 558.582 31.1494C558.323 31.3531 558.049 31.5363 557.762 31.6975L558.186 31.577C557.702 31.8869 557.469 32.4523 557.002 32.7737C557.002 32.8971 557.002 33.0606 557.002 33.184L556.614 33.4021L556.947 33.6403C556.878 33.7493 556.769 33.8899 556.7 33.9961C557.042 33.9646 557.042 33.9646 558.763 33.2959C558.336 33.3766 557.896 33.3619 557.475 33.2529C558.307 31.973 558.307 31.973 561.287 30.8998C560.547 30.9744 559.879 31.3589 559.122 31.379C560.143 30.6788 562.415 29.7462 563.339 29.9442C562.71 30.3572 562.113 30.8156 561.551 31.3159C561.798 31.2384 562.125 31.1322 562.375 31.049C561.982 31.2958 561.586 31.5168 561.181 31.7578C561.807 31.5569 562.386 31.2499 563.02 31.0634C562.986 31.0892 559.027 33.7465 558.023 33.7752C557.922 33.9961 557.802 34.2917 557.719 34.5184C558.14 34.5436 558.562 34.496 558.967 34.3778C559.136 34.0162 559.136 34.0162 560.338 33.3992C560.24 33.8871 560.24 33.8871 559.494 34.3663C561.858 34.3663 562.857 31.9386 564.873 31.3073L565.177 31.5569C561.85 33.3218 561.85 33.3218 561.055 34.1884C561.176 34.1884 561.342 34.1884 561.46 34.1884C561.411 34.3606 561.411 34.3606 560.355 35.4137C560.355 35.5314 560.355 35.7007 560.355 35.8097C560.378 35.7925 562.363 34.1482 562.363 33.4538C564.271 31.6947 565.568 31.732 565.625 31.732C565.51 31.8439 565.51 31.8439 564.452 32.4523C564.871 32.3355 565.281 32.1888 565.679 32.0132C565.768 32.0964 565.889 32.2083 565.983 32.3002L566.434 32.1395C566.291 32.534 566.119 32.9177 565.92 33.2873C565.978 33.3849 566.064 33.5226 566.124 33.6259L565.935 34.0133L566.305 34.1568C566.153 34.3888 565.97 34.5984 565.76 34.7795C565.883 34.7795 566.047 34.814 566.17 34.8283C565.355 35.5228 565.355 35.5228 565.261 35.7868C565.803 36.1684 565.86 36.2976 566.024 36.7854C566.262 36.8428 566.597 36.926 566.83 36.992C566.331 37.6291 565.642 38.0767 565.157 38.7281C565.086 38.6392 565.086 38.6392 564.584 37.4569L564.162 37.6147C564.535 39.1873 564.535 39.1873 563.757 40.0109C563.545 39.8492 563.382 39.6316 563.287 39.3824C563.121 39.9363 563.496 40.4528 563.399 41.0038L562.968 41.1157C562.762 40.955 562.487 40.7455 562.269 40.5991C562.225 40.2031 562.225 40.2031 561.695 39.4915C561.827 38.7827 561.761 38.7023 561.465 38.312C561.224 38.2891 560.892 38.2374 560.668 38.1887C560.853 37.9125 561.097 37.6804 561.382 37.5086L561.646 37.85C561.81 37.7754 561.81 37.7754 563.433 36.4324C563.444 36.1693 563.514 35.9121 563.64 35.6806L563.261 35.5629C563.461 35.1667 563.685 34.7833 563.932 34.4151C563.654 34.4072 563.377 34.3775 563.103 34.3261C561.718 36.1225 561.718 36.1225 559.56 36.8198C559.542 37.403 559.583 37.9866 559.681 38.5617C559.615 38.6851 559.523 38.8487 559.454 38.9778L559.056 39.0782L558.901 38.6564C558.453 38.688 558.063 38.9577 557.615 38.9921C557.661 38.8774 557.73 38.7253 557.785 38.6134L557.438 38.4211C557.928 37.9017 558.585 37.586 559.124 37.1212C558.387 37.1671 558.074 38.0968 557.274 37.9964C556.25 38.8171 556.25 38.8171 555.759 38.665C553.499 40.0998 553.499 40.0998 552.816 40.7369L553.166 40.9234C553.12 41.7527 553.1 41.7671 552.624 42.1229C552.75 42.3564 552.953 42.5397 553.198 42.6423C553.312 43.0642 553.312 43.0642 553.771 43.8045C553.708 43.9164 553.631 44.0657 553.571 44.1747C553.645 44.2924 553.746 44.4445 553.817 44.5592C554.058 44.5994 554.391 44.6597 554.618 44.7085C554.545 45.0187 554.411 45.3113 554.225 45.5694C554.397 46.0457 554.397 46.0457 553.622 46.9439C553.72 47.1534 553.72 47.1534 553.943 48.2639L554.328 48.373C554.684 47.7072 554.922 46.9841 555.395 46.3786C554.821 45.0586 557.438 43.8935 557.463 43.8791C557.481 43.7586 557.509 43.5922 557.532 43.4717C557.438 43.3569 557.306 43.2076 557.208 43.0957L559.971 39.5058C560.484 40.3179 560.794 40.2663 561.273 40.1859C561.273 40.4413 561.259 40.7799 561.273 41.0468C561.549 40.9954 561.813 40.8922 562.05 40.7426C561.764 41.5404 560.963 42.1287 561.078 43.0929C562.142 43.3798 562.392 42.0454 563.281 41.9622C563.393 42.5361 563.318 45.4373 563.164 46.4561C564.796 47.0816 564.796 47.0816 564.311 51.0475C564.635 51.168 564.635 51.168 565.55 51.0618C565.566 51.3259 565.505 51.5889 565.375 51.8194C566.669 55.0822 564.34 54.0491 564.314 54.0376C564.216 53.9509 564.126 53.8548 564.047 53.7507C564.127 53.6244 564.231 53.4637 564.314 53.3288L563.952 53.1394L563.568 53.2887C563.132 53.0706 563.132 53.0706 562.329 53.0821C562.24 52.9845 562.125 52.8525 562.042 52.7578C562.962 51.909 563.568 50.7746 563.763 49.5381C563.227 49.825 562.882 50.3674 562.329 50.6199C562.066 50.4805 561.833 50.2914 561.643 50.0632C561.577 50.1636 561.488 50.3014 561.428 50.4018C561.543 50.6228 561.68 50.9241 561.778 51.1565C561.701 51.2484 561.594 51.3718 561.52 51.4636C558.238 50.6199 558.238 50.6199 558.146 51.2828C559.962 51.5181 559.962 51.5181 560.278 51.7362C559.991 52.2843 559.282 52.534 559.208 53.237C559.434 53.4055 559.704 53.5051 559.985 53.524C560.166 53.7546 560.394 53.9443 560.653 54.0807C561.29 53.2801 561.29 53.2801 561.64 53.1997C562.142 53.9229 562.142 53.9228 562.091 54.3705C561.198 54.7378 557.392 56.0923 557.392 56.0923C557.727 55.3835 558.447 55.0592 558.955 54.5169L558.562 54.3992C557.504 55.2084 556.052 55.1912 555.039 56.0923C555.16 57.9375 555.16 57.9375 553.946 57.573C553.327 58.3105 553.266 59.4096 552.38 59.9749L552.062 59.6879C552.072 59.3964 552.032 59.1052 551.944 58.8271C551.674 58.9922 551.427 59.1908 551.207 59.4182C551.281 60.0093 551.304 60.1873 551.953 60.5661C551.953 60.8128 551.953 60.8128 547.936 65.2034C546.602 66.6554 547.916 67.4388 549.904 68.624C549.911 68.9463 549.872 69.2679 549.79 69.5796C549.749 69.5796 548.768 69.4103 548.387 68.5838L548.037 68.8048C548.1 69.6284 548.1 69.6284 547.839 70.076C547.558 70.0256 547.289 69.9192 547.05 69.7632C546.763 67.0543 546.531 65.0943 544.078 64.397C543.972 64.9049 543.935 65.0599 544.442 65.5248C544.312 65.7926 544.114 66.022 543.869 66.1905C543.008 65.7199 543.008 65.7199 542.669 63.9321C542.535 63.8891 542.535 63.8891 541.396 63.9178L539.135 69.0056L541.281 73.6171C541.373 73.3271 541.488 73.045 541.625 72.7735L542.021 72.7333C542.182 72.2627 542.05 71.7261 542.334 71.2985C542.807 71.2052 543.286 71.1534 543.768 71.1435C544.471 72.7735 544.471 72.7735 543.146 76.042C543.906 77.2214 545.441 76.7594 546.376 77.5371C546.536 81.5976 546.536 81.5976 547.061 82.4384C548.002 81.9764 548.92 82.7081 549.858 82.5101C549.981 82.091 550.161 81.6911 550.395 81.3221C550.696 81.3221 551.098 81.3594 551.399 81.3881C551.723 81.1011 551.95 80.7051 552.363 80.5272C552.619 80.6667 552.84 80.8631 553.008 81.1011C552.747 81.632 552.265 81.9821 551.898 82.4212C552.07 83.0927 552.07 83.0927 552.83 83.3854C552.899 83.2792 552.997 83.1386 553.066 83.0295C552.581 82.4126 552.667 82.1859 552.871 81.8099C554.124 81.7526 554.81 83.305 556.158 82.9808C557.251 82.7225 558.166 81.9735 559.331 81.8989C559.351 82.0223 559.374 82.1859 559.385 82.3035C559.196 82.5245 559.196 82.5245 558.008 82.9291C557.951 83.0525 557.871 83.2161 557.813 83.3452C558.069 83.4339 558.342 83.4633 558.611 83.4313L558.947 83.6924L558.66 84.1057C558.706 84.2319 558.769 84.3926 558.812 84.5275C560.493 84.8317 561.089 87.0413 563.014 86.9208C564.893 86.8031 565.149 88.9008 566.503 89.5034C566.557 90.4762 566.276 90.5537 564.704 90.9727V91.4203C565.421 91.6384 566.196 91.6097 566.89 91.9311C567.005 91.6433 567.176 91.3817 567.395 91.1621C567.449 91.1621 573.91 92.8839 575.074 93.9514C575.009 94.663 575.935 94.9816 575.774 95.7305" fill="#229EF3"/>
<path d="M551.032 74.6799C550.817 74.7316 550.269 74.5192 550.114 74.4532C549.959 74.3872 549.945 74.3844 549.121 74.2552C548.72 74.1921 548.665 73.931 548.585 73.4976C548.505 73.0643 548.45 72.8462 548.092 72.6741C548.011 72.6306 547.922 72.6051 547.831 72.5992C547.74 72.5932 547.649 72.607 547.564 72.6396C547.516 72.6597 547.464 72.6626 547.414 72.648C547.365 72.6333 547.323 72.6019 547.294 72.5593C547.146 72.3799 547.015 72.1878 546.901 71.9853C546.433 71.2593 546.41 71.2593 546.25 71.2737C546.092 71.4803 546.149 71.8247 545.834 71.9394C545.705 71.9854 545.579 71.8993 545.449 71.9165C545.32 71.9337 545.223 72.0571 545.076 72.0284C544.996 72.0083 544.942 71.7414 544.942 71.7414C544.915 71.6204 544.922 71.4944 544.962 71.377C544.985 71.3311 545.019 71.2794 545.042 71.2392C545.134 71.0986 545.289 71.0269 545.378 70.8863C545.467 70.7457 545.455 70.5821 545.541 70.4501C545.604 70.3611 545.719 70.4128 545.805 70.4731C545.891 70.5333 545.983 70.6969 546.132 70.7313C546.508 70.8088 546.895 70.6969 547.28 70.7772C547.607 70.8691 547.759 71.179 548.011 71.3684C548.206 71.5147 548.456 71.3196 548.651 71.4832C548.765 71.606 548.849 71.7532 548.898 71.9136C549.031 72.3276 549.246 72.7104 549.532 73.0385C549.853 73.3857 550.392 73.3628 550.702 73.6985C550.96 73.9625 551.038 74.6713 551.038 74.6771" fill="url(#paint9_linear_491_19877)"/>
<path d="M549.759 76.1694C549.763 76.2598 549.737 76.349 549.684 76.4226C549.631 76.4961 549.555 76.5497 549.468 76.5746C549.381 76.5995 549.288 76.5943 549.204 76.5598C549.121 76.5253 549.051 76.4636 549.007 76.3846C548.385 75.6127 548.385 75.6127 548.281 75.0703C548.37 75.0933 548.591 75.1622 548.821 75.2081C548.915 75.2282 549.004 75.2081 549.107 75.2282C549.299 75.3009 549.465 75.4294 549.583 75.5972C549.701 75.765 549.766 75.9642 549.77 76.1694" fill="url(#paint10_linear_491_19877)"/>
<path d="M555.616 76.4064C555.593 76.6303 555.499 77.1497 555.129 77.1497C554.521 77.1497 554.254 76.4897 553.694 76.3921C553.293 76.3232 552.931 76.6245 552.527 76.5155C552.452 76.5006 552.385 76.46 552.337 76.4007C552.289 76.3203 552.372 76.1769 552.246 76.1396C551.935 76.1023 551.623 76.085 551.31 76.0879C550.956 76.0642 550.614 75.9538 550.312 75.7665C550.183 75.6661 550.223 75.3303 550.37 75.3533C550.656 75.3935 550.783 75.7407 551.092 75.7292C551.288 75.7292 551.531 75.4939 551.414 75.3217C551.306 75.2185 551.172 75.147 551.026 75.1151C550.889 74.7679 551.026 74.6646 551.494 74.722C551.683 74.7593 551.83 74.788 552.928 75.2414C553.603 75.5283 553.938 75.7206 553.935 75.8526C553.942 75.9098 553.961 75.9649 553.991 76.0143C554.021 76.0637 554.06 76.1064 554.107 76.1396C554.245 76.2256 554.394 76.1396 554.647 75.976C555.048 75.7263 555.221 75.7235 555.433 75.8153C555.433 75.8153 555.662 75.9186 555.605 76.3892" fill="url(#paint11_linear_491_19877)"/>
<path d="M568.411 29.1691C568.221 29.2093 568.026 29.2294 567.837 29.2725C567.55 29.3385 567.263 29.4647 566.962 29.5106C566.87 29.525 566.776 29.4647 566.796 29.4217C566.842 29.3155 567.803 29.0716 568.132 29.0802C567.886 29.2036 567.605 29.2036 567.352 29.3126C567.557 29.283 567.759 29.235 567.955 29.1691C568.052 29.0773 569.177 28.9453 569.188 28.9453C568.935 29.0377 568.675 29.1125 568.411 29.1691Z" fill="url(#paint12_linear_491_19877)"/>
<path d="M564.748 30.6226C564.679 30.6502 564.603 30.6562 564.53 30.6398C564.53 30.6111 564.562 30.5881 564.565 30.5595C564.378 30.4848 564.235 30.7173 564.046 30.6226C564.046 30.5394 563.919 30.5279 563.836 30.5279C563.65 30.5279 563.478 30.614 563.297 30.6312C563.297 30.6312 563.297 30.6312 563.297 30.614L563.371 30.3758C563.69 30.218 564.048 30.218 564.373 30.0888C564.201 30.0888 564.046 30.2065 563.865 30.1663C563.865 30.1204 563.828 30.1061 563.808 30.0716C564.149 29.9294 564.505 29.8255 564.869 29.7617C565.055 29.7453 565.24 29.7107 565.42 29.6584C565.377 29.6354 565.311 29.6412 564.634 29.7961C564.497 29.8368 564.357 29.8647 564.215 29.8794C564.468 29.7814 564.732 29.7121 565.001 29.6727C565.041 29.6727 565.288 29.6125 565.454 29.5694C565.366 29.5676 565.277 29.5802 565.193 29.6067C564.568 29.7502 564.361 29.6498 564.355 29.644C564.545 29.4633 566.61 29.2136 566.848 29.2308C566.756 29.2682 566.66 29.296 566.561 29.314C566.771 29.2882 566.96 29.139 567.19 29.2107C566.922 29.3177 566.643 29.3957 566.358 29.4432C566.196 29.4651 566.036 29.5035 565.882 29.558C565.886 29.57 565.886 29.5832 565.882 29.5953C565.85 29.6182 565.813 29.6354 565.778 29.6584C565.973 29.6405 566.166 29.6011 566.352 29.5407C566.029 29.6518 565.7 29.7419 565.365 29.8105C565.365 29.8105 565.242 29.8421 565.216 29.9023C565.313 29.8947 565.409 29.8774 565.503 29.8507C565.503 29.8736 565.503 29.8736 565.345 29.9253C565.097 30.0096 564.857 30.1193 564.631 30.2524C564.956 30.1666 565.273 30.0514 565.578 29.908C565.86 29.7975 566.156 29.7251 566.458 29.6928V29.7187C566.171 29.9597 565.801 29.9396 565.474 30.063C565.5 30.0831 565.52 30.0888 565.798 30.0171C565.876 29.9904 565.957 29.9749 566.039 29.9712C565.668 30.1525 565.285 30.3069 564.892 30.4332C564.833 30.4405 564.776 30.4632 564.728 30.4992C564.971 30.4589 565.21 30.3985 565.443 30.3184C565.22 30.4364 564.991 30.5418 564.757 30.6341" fill="url(#paint13_linear_491_19877)"/>
<path d="M563.018 32.0745C562.731 32.2209 562.444 32.3959 562.143 32.5193C562.003 32.5738 561.856 32.5652 561.704 32.6054C561.552 32.6456 561.46 32.7345 561.323 32.7718C561.298 32.7762 561.273 32.7762 561.248 32.7718C561.217 32.7231 561.32 32.6198 561.32 32.6198C561.34 32.5973 561.363 32.5762 561.386 32.5566C561.503 32.4476 561.65 32.373 561.765 32.2697C561.879 32.1663 561.919 32.0831 562.011 31.9999C562.103 31.9167 562.215 31.8421 562.313 31.7646C562.48 31.6243 562.686 31.5365 562.903 31.5121V31.5264C562.562 31.6756 562.771 31.7761 562.777 31.7789C562.883 31.8048 563.245 31.6269 563.199 31.5063C563.29 31.4113 563.4 31.3366 563.523 31.2871C563.645 31.2377 563.776 31.2146 563.907 31.2194C563.945 31.2825 563.879 31.3284 563.879 31.3829C563.879 31.4375 563.91 31.4059 564.143 31.3255C564.214 31.2967 564.288 31.2736 564.364 31.2567C564.092 31.4229 563.803 31.5604 563.503 31.667C563.503 31.667 563.259 31.667 563.216 31.7789C563.216 31.7789 563.305 31.7531 563.357 31.7503C563.264 31.8655 563.152 31.9628 563.024 32.0372" fill="url(#paint14_linear_491_19877)"/>
<path d="M567.013 29.7662C566.93 29.7863 566.915 29.7662 566.941 29.7261C566.996 29.6626 567.068 29.6159 567.148 29.5912C567.354 29.5166 567.578 29.4793 567.79 29.4219C567.539 29.5536 567.279 29.6686 567.013 29.7662Z" fill="url(#paint15_linear_491_19877)"/>
<path d="M566.311 30.0389C566.311 30.0389 566.067 30.1192 566.079 30.0848C566.161 30.0077 566.259 29.9481 566.365 29.9098C566.515 29.8766 566.666 29.8545 566.819 29.8438C566.793 29.8667 566.314 30.0303 566.311 30.0331" fill="url(#paint16_linear_491_19877)"/>
<path d="M565.585 30.7436C565.479 30.7454 565.374 30.7668 565.275 30.8068C565.112 30.8728 564.988 31.0105 564.79 31.0076C564.762 30.9388 564.65 30.8785 564.716 30.7982C564.828 30.6633 565.003 30.6862 565.152 30.5973C565.135 30.5938 565.119 30.589 565.103 30.5829C565.282 30.4598 565.475 30.3569 565.677 30.2759L565.737 30.2558C565.886 30.2156 566.038 30.2041 566.179 30.1611C566.43 30.0495 566.694 29.9704 566.965 29.9258C566.963 29.9323 566.963 29.9393 566.965 29.9459C566.965 29.9717 566.994 29.986 566.982 30.0119C566.971 30.0377 566.939 30.0463 566.919 30.0721C566.962 30.081 567.006 30.081 567.048 30.0721C567.048 30.0721 567.031 30.0922 567.025 30.0951H566.999C566.661 30.2529 566.311 30.3821 565.967 30.5284C565.832 30.5829 565.749 30.7207 565.596 30.7408" fill="url(#paint17_linear_491_19877)"/>
<path d="M567.357 31.2698C567.357 31.2698 566.319 31.9355 566.21 31.8782C566.21 31.7404 566.405 31.6974 566.373 31.5453C566.339 31.5223 566.302 31.5137 566.058 31.6027C565.997 31.6276 565.932 31.6421 565.866 31.6457C565.817 31.6457 565.751 31.6228 565.765 31.5367C565.78 31.4506 565.877 31.3989 565.906 31.3128C565.711 31.3128 565.539 31.5338 565.332 31.3674C565.332 31.3071 565.395 31.2784 565.401 31.2267C565.394 31.2156 565.387 31.205 565.378 31.1952C565.562 31.0583 565.769 30.9545 565.989 30.8881C566.237 30.7816 566.477 30.6569 566.706 30.5151C566.648 30.5198 566.591 30.5344 566.537 30.5581C566.459 30.5868 566.459 30.584 566.437 30.5581C566.583 30.3659 566.827 30.3515 567.01 30.231C566.933 30.231 566.873 30.3142 566.786 30.2626C566.923 30.1605 567.077 30.0828 567.24 30.033L567.601 29.8952C567.643 29.8807 567.686 29.8739 567.73 29.8751C567.729 29.8818 567.729 29.8886 567.73 29.8952C567.667 29.9883 567.589 30.0698 567.498 30.1363C567.475 30.1564 567.475 30.1592 567.469 30.1765C567.464 30.1937 567.498 30.208 567.682 30.1765C567.522 30.273 567.356 30.3583 567.185 30.4319C566.93 30.5495 566.841 30.5954 566.821 30.6356C566.855 30.67 566.91 30.6356 566.947 30.6729C566.916 30.7446 566.778 30.759 566.821 30.848C566.841 30.8795 566.841 30.8795 567.022 30.8193C567.088 30.7956 567.155 30.7755 567.223 30.759C567.277 30.759 567.332 30.759 567.386 30.759C567.524 30.759 567.673 30.7217 567.813 30.7016C567.835 30.6973 567.858 30.6973 567.879 30.7016C567.842 30.8279 567.687 30.8594 567.644 30.9886H567.682C567.653 31.0517 567.624 31.1005 567.363 31.2755" fill="url(#paint18_linear_491_19877)"/>
<path d="M565.416 31.0741C565.344 31.1121 565.267 31.1373 565.187 31.1487C565.187 31.1487 564.997 31.0683 565 31.0368C565.332 30.8488 565.68 30.6885 566.039 30.5575C566.097 30.5317 566.162 30.5247 566.225 30.5374C566.337 30.6006 565.425 31.0683 565.416 31.0741Z" fill="url(#paint19_linear_491_19877)"/>
<path d="M568.166 29.8815C568.029 29.9245 567.707 29.9905 567.727 29.9102C567.917 29.8074 568.115 29.7201 568.318 29.649C568.221 29.6669 568.125 29.6928 568.032 29.7265C568.083 29.672 568.175 29.6806 568.224 29.6203C568.207 29.6203 568.189 29.6203 568.172 29.6203C568.264 29.5486 569.606 29.1641 569.606 29.1641H569.589C569.477 29.2243 569.354 29.2674 569.245 29.3276C569.216 29.342 569.205 29.3764 569.176 29.3908C568.938 29.5113 568.666 29.5285 568.43 29.6777C568.367 29.7208 568.344 29.7351 568.347 29.7581C568.35 29.781 568.221 29.8671 568.178 29.8815" fill="url(#paint20_linear_491_19877)"/>
<path d="M568.15 29.5954C567.898 29.6786 567.863 29.6729 567.863 29.67C567.935 29.5466 568.084 29.5725 568.185 29.5007C568.185 29.4835 568.144 29.4864 568.144 29.4577C568.155 29.4368 568.172 29.4198 568.193 29.4089C568.315 29.3518 568.441 29.3019 568.569 29.2597C568.721 29.2051 568.887 29.1908 569.045 29.1477C569.203 29.1047 569.301 29.0473 569.435 29.01C569.522 28.9896 569.61 28.979 569.699 28.9784C569.757 28.9784 569.82 28.9583 569.874 28.9612C569.714 29.0617 569.513 29.0444 569.349 29.1449C569.435 29.1678 569.504 29.1133 569.582 29.1133L569.55 29.1277H569.527C569.278 29.2109 569.019 29.274 568.776 29.3601C568.532 29.4462 568.374 29.5208 568.167 29.5868" fill="url(#paint21_linear_491_19877)"/>
<path d="M569.884 29.0677C569.784 29.1041 569.68 29.131 569.574 29.148C569.987 29.0069 570.407 28.8909 570.834 28.8008C570.804 28.8146 570.774 28.8243 570.742 28.8295L569.881 29.0677" fill="url(#paint22_linear_491_19877)"/>
<path d="M572.856 28.3875C572.812 28.4214 572.765 28.4521 572.716 28.4793C572.162 28.8402 571.564 29.1294 570.937 29.3402C570.943 29.319 570.956 29.3006 570.974 29.2886L570.94 29.2714C570.809 29.312 570.684 29.372 570.57 29.4493C570.59 29.4517 570.61 29.4517 570.63 29.4493C570.629 29.4578 570.629 29.4666 570.63 29.4751C570.309 29.7058 569.968 29.9083 569.612 30.0806L569.592 30.0548C569.589 30.0454 569.589 30.0354 569.592 30.0261C569.305 30.0744 569.034 30.1927 568.803 30.3704C568.829 30.5828 567.991 30.9444 567.991 30.9444C567.981 30.9381 567.973 30.9291 567.968 30.9185C567.862 30.9266 567.758 30.9498 567.658 30.9874H567.63C567.65 30.9386 567.658 30.9185 568.132 30.6373C568.191 30.6051 568.248 30.5676 568.301 30.5254C568.246 30.5254 568.189 30.5455 568.129 30.5455C568.045 30.4508 567.865 30.5254 567.773 30.5656C567.682 30.61 567.581 30.6296 567.481 30.6226C567.38 30.6155 567.283 30.582 567.199 30.5254C567.488 30.318 567.81 30.1618 568.152 30.0634L569.643 29.4895C569.47 29.4999 569.3 29.5407 569.141 29.61C568.915 29.6903 568.806 29.7248 568.748 29.6645C568.969 29.5038 568.969 29.5038 569.732 29.2054C570.217 28.9041 572.176 28.5253 572.197 28.5253C571.927 28.6314 571.623 28.6716 571.37 28.7864C571.878 28.7204 572.346 28.4994 572.851 28.3789" fill="url(#paint23_linear_491_19877)"/>
<path d="M573.109 28.5234C573.049 28.4861 572.963 28.4431 572.903 28.4115C572.927 28.4341 572.953 28.4552 572.98 28.4746L572.874 28.3914H572.854L572.811 28.4574C572.825 28.4313 572.841 28.4063 572.86 28.3828C572.86 28.3828 572.84 28.3828 572.837 28.3972C571.273 29.5795 570.694 29.7258 570.479 29.7803C570.462 29.7617 570.444 29.7444 570.424 29.7287C570.301 29.7746 570.275 29.7861 570.014 30.1017L570.086 30.1534L570.243 30.1132C570.109 30.5293 569.635 30.271 569.383 30.5006L569.429 30.5752L569.523 30.5953C569.434 30.8249 569.188 30.9511 569.136 31.2037C569.423 31.1176 569.607 30.8564 569.876 30.733C569.827 30.8534 569.791 30.9784 569.767 31.1061C569.977 31.2266 570.519 31.5394 569.784 32.6471C569.446 33.2014 569.233 33.8235 569.162 34.4693C569.4 34.3344 569.449 34.0016 569.736 33.9298C569.753 33.9474 569.768 33.9678 569.779 33.9901C569.736 34.2369 569.991 34.4119 569.936 34.6587C569.902 34.8452 569.681 34.8022 569.632 34.7362C569.546 34.6128 569.609 34.475 569.584 34.3459C569.423 34.3803 568.614 35.3818 568.594 35.4421C568.815 35.5799 569.213 35.7434 569.437 35.2814C569.566 35.3125 569.7 35.3174 569.83 35.2958C569.876 35.356 569.919 35.422 569.83 35.5827C569.684 35.8697 569.325 35.9586 569.156 36.2341C568.909 36.6388 568.869 37.1381 568.623 37.5427C568.443 37.797 568.337 38.0952 568.313 38.4054C568.29 38.7157 568.351 39.0264 568.491 39.3046C568.752 39.3046 568.777 38.8742 569.082 38.9545C569.064 39.0492 569.05 39.1325 568.508 39.494C568.468 39.781 568.625 41.5401 568.631 41.543C569.013 42.0337 569.698 41.784 570.131 42.1398C570.484 42.4268 570.74 42.8199 571.136 43.0466C571.161 43.0593 571.19 43.0659 571.219 43.0659C571.248 43.0659 571.276 43.0593 571.302 43.0466C571.561 42.8611 571.758 42.6015 571.867 42.3019C571.976 42.0023 571.992 41.6767 571.913 41.3679C571.833 41.2043 571.6 41.124 571.652 40.8915C571.724 40.5271 572.097 40.3463 572.191 39.9962C572.286 39.6461 572.599 39.3247 572.682 38.9316C572.71 38.7087 572.667 38.4826 572.558 38.2859L572.613 38.2285C573.964 38.5958 574.971 37.5111 574.974 37.3275C574.974 36.6072 574.974 36.6072 575.023 36.5842C575.31 36.3575 575.545 36.9228 575.849 36.6703L576.899 35.5225C577.025 35.2355 576.738 34.7735 576.732 34.7649C576.621 34.6243 576.446 34.6329 576.219 34.7964C576.058 34.8819 575.879 34.931 575.697 34.9405C575.515 34.9499 575.333 34.9193 575.163 34.851C574.997 34.6673 575.654 34.2139 575.817 34.2139C576.228 34.2139 576.457 34.6558 576.873 34.6357C577.008 33.5108 574.635 33.6744 575.338 32.7877H575.419C575.78 33.2239 575.78 33.2239 575.992 33.1808C576.078 32.9321 576.203 32.6987 576.362 32.4893C576.327 32.3623 576.265 32.244 576.182 32.1414C576.1 32.0388 575.997 31.9541 575.88 31.8924C575.836 31.9189 575.789 31.941 575.74 31.9584C575.681 31.9251 575.628 31.8814 575.585 31.8292C575.593 31.7981 575.608 31.7693 575.629 31.7449C575.65 31.7205 575.677 31.7012 575.706 31.6885C575.736 31.6758 575.768 31.67 575.8 31.6715C575.832 31.673 575.864 31.6818 575.892 31.6972C575.671 31.3098 575.189 31.241 574.925 30.9023C574.935 30.8737 574.941 30.8437 574.942 30.8134C574.991 30.7847 574.991 30.7847 575.246 30.7847C575.246 30.7847 575.203 30.2509 574.429 30.2309C573.494 28.7587 573.494 28.7587 573.109 28.5091" fill="url(#paint24_linear_491_19877)"/>
<path d="M592.758 32.0603C595.432 33.7017 597.202 34.7864 600.263 37.5442C602.968 40.2359 603.192 40.454 604.775 42.4598C607.07 45.6709 607.222 45.8661 608.393 47.9867C610.206 51.6541 610.277 51.8005 611.063 54.0445C612.265 58.0247 612.317 58.1826 612.719 60.5328L612.859 61.4195C612.426 58.702 611.921 57.2987 611.577 56.5956C611.663 58.9746 612.873 61.101 613.103 63.4455C613.163 64.622 613.272 66.1888 613.284 67.3654C613.103 71.6526 613.092 71.908 612.618 74.6083C611.692 78.7607 611.669 78.841 610.877 81.0707C609.333 84.8644 609.273 85.0136 608.12 87.097C606.014 90.5405 605.934 90.6697 604.422 92.5808C601.938 95.4505 601.737 95.6973 599.832 97.4449L598.538 98.5612C603.564 94.0501 607.09 87.0998 607.127 87.031C608.306 84.6779 607.205 82.0321 608.054 79.6388C608.031 79.6388 605.363 79.9745 605.355 79.9774C604.001 81.8054 600.785 81.8742 600.34 81.5213C600.179 79.0161 597.718 78.1179 596.654 76.2469C597.03 75.6931 597.629 75.3229 597.893 74.6858C597.716 74.4655 597.479 74.3011 597.21 74.2123C597.23 73.7733 597.253 73.2739 598.275 72.4704C598.24 71.8018 598.24 71.8018 596.84 70.5708C596.878 69.7816 596.766 69.6611 596.493 69.3799C596.576 68.8059 599.052 63.279 599.075 63.2589C599.307 63.0686 599.481 62.8157 599.574 62.53C599.772 61.497 599.084 60.5672 599.218 59.537C599.353 58.5068 600.337 57.7349 600.346 56.6186C600.811 56.3316 600.811 56.3316 601.614 57.0978C602.345 56.3976 604.5 53.4505 604.505 53.4304C604.723 53.3702 605.013 53.3013 605.231 53.2611H605.257H605.271C605.845 53.99 605.423 55.0633 606.132 55.7348L609.437 57.1552C609.339 56.4091 608.682 55.8811 608.656 55.1092C608.823 54.9382 608.98 54.7581 609.127 54.5697C609.399 54.7706 609.399 54.7706 610.274 55.8811C610.312 55.7147 610.312 55.7147 610.151 54.1966L610.504 54.3975C610.504 53.2496 608.952 50.1964 608.691 49.7659C608.803 50.2165 608.978 50.6498 609.107 51.0974C608.911 50.9418 608.751 50.7461 608.636 50.5235C608.547 50.5895 608.438 50.6813 608.35 50.7473C607.564 50.1734 607.563 50.1734 607.185 49.1461C606.732 48.9452 606.714 48.9395 606.258 48.3856C606.258 49.7257 606.459 49.8204 607.434 50.3456C607.859 51.9669 607.859 51.9669 607.925 52.1104C607.176 51.944 607.176 51.944 604.956 48.3598C604.382 48.2364 604.382 48.2364 603.358 47.3296L602.962 47.4128L602.317 46.8819C601.929 48.9595 604.864 48.532 605.581 49.9467C605.535 50.0558 605.472 50.1992 605.423 50.3083C605.954 51.0773 606.049 51.2151 606.218 51.8808L606.026 52.1678C602.15 48.4861 602.15 48.4861 601.74 48.4373C601.76 48.8387 601.806 49.2384 601.878 49.6339C601.608 49.6171 601.344 49.5561 601.095 49.4531C601.054 49.5536 600.994 49.6856 600.951 49.786C601.955 51.1405 601.838 54.5926 601.832 54.6185C601.513 55.6946 601.258 56.5411 599.046 56.2656C597.882 56.1222 596.35 50.4575 596.367 50.4058C596.453 50.3542 596.576 50.2853 596.671 50.2337C596.85 50.4368 597.042 50.6285 597.245 50.8076C597.842 50.5959 598.368 50.2223 598.765 49.7286C598.191 48.8132 597.276 47.1459 597.273 47.1459C595.607 46.8848 595.607 46.8848 595.108 46.2851C595.721 45.6537 595.968 45.6595 596.396 45.6681C596.468 45.4311 596.484 45.1805 596.441 44.9363L596.774 44.8273C596.487 44.1328 596.51 43.3207 595.985 42.7152C596.203 42.2303 596.223 42.1901 595.865 41.5846L596.223 41.6822C596.223 41.5645 596.246 41.4095 596.255 41.2948C594.221 39.5185 594.221 39.5185 594.083 38.7465C595.3 39.3951 596.246 40.5142 597.646 40.8471C597.593 40.5612 597.505 40.2827 597.385 40.0178L597.787 39.969C597.758 39.7566 597.758 39.7566 595.122 37.0534C595.32 37.1539 595.584 37.2945 595.776 37.4064C595.509 36.7062 594.66 36.6431 594.296 36.0462L594.551 35.7994C594.215 35.4292 594.215 35.4292 593.533 35.0476C593.62 35.28 593.745 35.4962 593.903 35.6875C593.868 35.7879 593.819 35.9199 593.785 36.0204C591.651 35.5325 590.684 33.2799 588.662 32.6256C590.477 36.0692 595.082 36.5111 596.694 40.1498C595.191 39.6419 594.207 38.3677 592.904 37.5671C593.28 38.9646 593.28 38.9646 593.274 38.9847C593.009 38.9252 592.762 38.7999 592.557 38.6203L583.997 31.317L584.335 31.2396C584.1 31.1031 583.855 30.9823 583.604 30.878C583.874 30.9062 584.14 30.9571 584.401 31.0301C584.052 30.8103 583.685 30.6184 583.306 30.4562L583.363 30.3615L583.027 30.2266L583.389 30.3012L583.102 30.1061C583.592 30.1807 583.745 30.2036 585.15 30.6369C584.694 30.4447 584.694 30.4447 584.003 30.1864C584.433 30.2955 584.433 30.2955 585.274 30.5451L584.987 30.3701C587.408 30.3414 589.023 32.2985 591.189 32.9068C590.994 32.6199 590.994 32.6199 589.861 32.1521L590.302 32.1665C589.729 31.8077 589.729 31.8078 588.481 31.0846L588.885 31.1822C587.881 30.657 586.774 30.4074 585.73 30.02C586.037 30.1003 586.037 30.1003 588.487 30.8809C587.339 30.3557 585.672 29.6125 585.672 29.6125C585.784 29.6326 585.784 29.6326 586.851 29.8994C585.239 29.1447 585.239 29.1447 583.409 28.852L583.779 28.8807L583.423 28.7344C583.701 28.7801 583.982 28.8031 584.264 28.8032C587.247 29.4518 590.115 30.549 592.77 32.0574" fill="#229EF3"/>
<path d="M595.274 42.5415C595.435 42.8026 595.4 43.1441 595.613 43.3823C595.775 43.5558 595.96 43.7064 596.163 43.83C596.249 43.8874 596.488 44.0395 596.45 44.2547C596.437 44.4399 596.386 44.6205 596.301 44.7856L596.272 44.8114C596.04 44.9209 595.786 44.973 595.529 44.9635C595.38 44.9635 595.349 45.0151 595.326 45.0582C595.277 45.1844 595.326 45.3222 595.268 45.4456C595.01 45.9076 594.947 45.8875 594.875 45.8617C594.786 45.8365 594.705 45.7866 594.642 45.7178C594.579 45.6489 594.536 45.5638 594.519 45.4721C594.502 45.3804 594.511 45.2858 594.545 45.1989C594.579 45.1121 594.637 45.0365 594.712 44.9807C594.781 44.9176 594.824 44.8803 594.772 44.7683C594.72 44.6564 594.6 44.4814 594.439 44.5703C594.353 44.622 594.253 44.6736 593.997 44.3637C594.221 44.1772 594.307 44.1055 594.201 43.9075C594.003 43.566 593.561 43.4655 593.407 43.0867C593.414 43.0691 593.421 43.0508 593.427 43.0322C593.713 42.9289 593.665 42.8371 593.341 42.421C593.071 42.0795 592.652 41.9303 592.342 41.6376C592.352 41.6445 592.362 41.6522 592.371 41.6605C592.345 41.6031 592.256 41.4597 591.926 41.3736C591.693 41.3323 591.472 41.2402 591.278 41.1038C591.287 41.035 591.28 40.9652 591.26 40.899C591.239 40.8328 591.204 40.7718 591.158 40.7201C591.112 40.6685 591.055 40.6273 590.992 40.5994C590.928 40.5716 590.86 40.5576 590.79 40.5586C590.544 40.5217 590.31 40.4295 590.104 40.2888C589.899 40.1481 589.729 39.9627 589.605 39.7465C589.613 39.7368 589.62 39.7262 589.626 39.7149C589.889 39.7149 590.082 39.9129 590.328 39.9388C590.328 39.8756 590.328 39.8756 590.165 39.6805C589.778 39.2472 589.778 39.2328 589.749 39.1324C589.832 39.0004 589.973 39.0922 590.082 39.0721C590.239 39.0463 590.188 38.8712 590.274 38.7852C590.374 38.7852 590.466 38.8225 590.561 38.8282C590.698 39.0406 590.891 39.3189 591.028 39.5284L591.315 40.0334C591.74 39.1898 592.245 40.5586 592.248 40.5729C592.27 40.6648 592.113 40.659 592.144 40.7509C592.221 40.886 592.318 41.0089 592.431 41.1153C592.563 41.2244 592.655 41.0177 592.778 41.012C593.048 41.012 593.065 41.299 593.234 41.3994C593.47 41.5515 593.722 41.6758 593.986 41.7696C594.316 41.9188 594.428 42.2861 594.72 42.4755C594.74 42.4755 594.901 42.5932 594.964 42.5272C595.027 42.4612 595.004 42.4095 595.033 42.355H595.119C595.171 42.4088 595.218 42.4675 595.26 42.53" fill="url(#paint25_linear_491_19877)"/>
<path d="M592.713 42.4096C592.951 42.9147 592.969 43.503 593.336 43.9564C593.436 44.0769 593.585 44.1458 593.669 44.2778C593.697 44.311 593.715 44.3515 593.721 44.3947C593.727 44.4379 593.721 44.482 593.703 44.5217C593.703 44.5217 593.548 44.955 593.21 45.0239C592.764 45.0715 592.313 45.0236 591.887 44.8833C591.962 44.8029 592.094 44.7857 592.145 44.668C592.197 44.5504 592.094 44.4442 592.2 44.3552C592.243 44.3208 592.243 44.3208 592.464 44.4213C592.564 44.47 592.627 44.3897 592.504 44.2548C592.381 44.1557 592.242 44.0772 592.094 44.0224C591.827 43.9277 591.787 43.9133 591.646 43.7354C591.606 43.6838 591.242 42.9147 591.219 42.8229C591.397 42.8458 591.529 43.0524 591.738 42.9405C591.827 42.8917 591.689 42.6536 591.643 42.5904C591.474 42.3035 591.474 42.3035 591.488 42.2575L591.807 42.0595C591.896 42.0333 591.991 42.0384 592.076 42.0739C592.206 42.1227 592.323 42.1973 592.455 42.2461C592.513 42.2662 592.576 42.2461 592.633 42.2719C592.69 42.2977 592.708 42.3809 592.728 42.4297" fill="url(#paint26_linear_491_19877)"/>
<path d="M584.538 35.8017C584.567 35.8361 584.659 35.948 584.659 36.014C584.659 36.08 584.538 36.1575 584.524 36.2493C584.509 36.3411 584.604 36.476 584.567 36.5965C584.567 36.6339 584.498 36.6568 584.4 36.6941C584.203 36.7659 584.114 36.8146 584.323 37.1131C584.435 37.268 584.498 37.3627 584.091 37.3254C583.861 37.2941 583.637 37.2273 583.428 37.1274C583.333 37.0786 583.33 37.0758 583.293 37.0873C583.256 37.0987 583.155 37.1762 583.069 37.1619H583.046C582.907 37.1145 582.785 37.0265 582.696 36.9093C582.53 36.7201 582.395 36.5049 582.298 36.2723C582.293 36.2562 582.283 36.2421 582.269 36.2321C582.111 36.1259 582.037 36.3842 581.89 36.3469C581.893 36.3395 581.893 36.3313 581.89 36.3239C582.215 36.1862 581.85 35.9365 581.816 35.9222C581.781 35.9078 581.77 35.9222 581.755 35.9222C581.667 36.0169 581.236 35.8103 581.136 35.6955C581.035 35.5807 581.093 35.1818 581.167 35.1646C581.418 35.2519 581.651 35.383 581.856 35.552C582.143 35.8103 582.192 35.8189 582.237 35.839C582.237 35.839 582.237 35.839 582.258 35.8217C582.258 35.5348 581.971 35.4315 581.83 35.222C581.83 35.222 581.83 35.222 581.83 35.2048C581.987 35.2378 582.132 35.3133 582.249 35.4229C582.346 35.5032 582.433 35.5721 582.464 35.5549C582.496 35.5377 582.536 35.5233 582.464 35.2335C582.447 35.1474 582.441 35.1302 582.464 35.1101C582.516 35.0469 582.607 35.0728 582.662 35.0182C582.717 34.9637 582.745 34.7915 582.866 34.7313C582.896 34.7287 582.926 34.7322 582.954 34.7416C582.983 34.751 583.009 34.766 583.032 34.7858C583.29 34.9494 583.5 35.1675 583.758 35.3282C583.91 35.4229 584.091 35.4458 584.243 35.5463C584.345 35.6262 584.441 35.7145 584.53 35.8103" fill="url(#paint27_linear_491_19877)"/>
<path d="M581.721 81.3624L578.124 81.4371C576.976 81.4629 575.59 81.5002 573.981 81.4543C572.372 81.4084 570.57 81.4543 568.605 81.328C566.64 81.2017 564.506 81.1759 562.26 80.9377C560.01 80.7483 557.641 80.5475 555.203 80.2002C552.758 79.9334 550.254 79.4714 547.707 79.0352C546.436 78.8228 545.171 78.4928 543.891 78.2231L541.975 77.7983L540.076 77.2703C537.54 76.6163 535.049 75.8016 532.617 74.8312C530.243 73.9211 527.99 72.7232 525.907 71.2642C524.915 70.5489 524.03 69.6967 523.277 68.7332C522.536 67.7985 522.101 66.6582 522.032 65.4675C522.02 64.3394 522.376 63.2382 523.047 62.331C523.653 61.4939 524.381 60.7528 525.207 60.1329C526.644 59.0597 528.202 58.1582 529.849 57.4469C531.303 56.7869 532.617 56.3278 533.701 55.9518C534.786 55.5759 535.649 55.3291 536.24 55.1684L537.144 54.9102C537.144 54.9102 536.831 55.002 536.246 55.1828C535.661 55.3636 534.812 55.6304 533.716 55.9977C532.62 56.3651 531.335 56.8586 529.892 57.5445C528.267 58.2747 526.732 59.1915 525.319 60.2764C524.517 60.893 523.814 61.6284 523.234 62.4573C522.608 63.334 522.287 64.3911 522.318 65.4675C522.427 67.7145 524.22 69.5797 526.148 70.9686C528.221 72.3854 530.46 73.5419 532.815 74.4122C535.239 75.3384 537.719 76.1119 540.239 76.728L542.13 77.2244L544.04 77.6204C545.314 77.8701 546.571 78.1944 547.844 78.3723C550.383 78.7712 552.873 79.1987 555.303 79.4283C557.727 79.7411 560.088 79.9075 562.326 80.0654C564.56 80.272 566.686 80.2634 568.637 80.3523C570.587 80.4413 572.383 80.3839 573.97 80.4069C575.556 80.4298 576.947 80.3724 578.092 80.3294L581.689 80.206L581.721 81.3624Z" fill="#86CEE1"/>
<path d="M584.657 80.5908C584.657 80.9881 584.539 81.3764 584.318 81.7068C584.098 82.0371 583.784 82.2946 583.417 82.4466C583.05 82.5986 582.646 82.6384 582.257 82.5609C581.867 82.4834 581.51 82.2921 581.229 82.0112C580.948 81.7302 580.757 81.3723 580.679 80.9827C580.602 80.593 580.642 80.1891 580.794 79.8221C580.945 79.455 581.203 79.1413 581.533 78.9206C581.863 78.6998 582.252 78.582 582.649 78.582C583.181 78.582 583.692 78.7937 584.069 79.1704C584.445 79.5471 584.657 80.058 584.657 80.5908Z" fill="#86CEE1"/>
<path d="M542.29 50.2197C542.29 50.6176 542.172 51.0066 541.95 51.3372C541.729 51.6679 541.414 51.9253 541.047 52.0769C540.679 52.2285 540.274 52.2674 539.884 52.1888C539.495 52.1101 539.137 51.9173 538.857 51.635C538.576 51.3526 538.386 50.9934 538.31 50.6028C538.234 50.2122 538.276 49.8078 538.43 49.441C538.585 49.0742 538.844 48.7615 539.176 48.5425C539.508 48.3235 539.898 48.2081 540.296 48.211C540.826 48.2148 541.333 48.4281 541.707 48.8044C542.08 49.1807 542.29 49.6895 542.29 50.2197Z" fill="#86CEE1"/>
<path d="M592.602 35.6221C592.602 36.0201 592.484 36.4092 592.262 36.7399C592.041 37.0706 591.726 37.328 591.358 37.4795C590.991 37.631 590.586 37.6698 590.196 37.5909C589.806 37.512 589.448 37.3189 589.168 37.0363C588.888 36.7536 588.698 36.3941 588.622 36.0033C588.547 35.6125 588.589 35.2081 588.744 34.8414C588.898 34.4746 589.158 34.1621 589.491 33.9435C589.823 33.7248 590.213 33.6099 590.611 33.6134C591.141 33.6179 591.647 33.8315 592.02 34.2078C592.393 34.584 592.602 35.0923 592.602 35.6221Z" fill="#86CEE1"/>
<path d="M617.087 41.5361C617.087 41.9334 616.969 42.3218 616.748 42.6521C616.527 42.9824 616.214 43.2399 615.847 43.3919C615.48 43.544 615.076 43.5837 614.687 43.5062C614.297 43.4287 613.939 43.2374 613.658 42.9565C613.378 42.6756 613.186 42.3176 613.109 41.928C613.031 41.5383 613.071 41.1344 613.223 40.7674C613.375 40.4003 613.633 40.0866 613.963 39.8659C614.293 39.6452 614.681 39.5273 615.078 39.5273C615.611 39.5273 616.122 39.739 616.498 40.1157C616.875 40.4924 617.087 41.0033 617.087 41.5361Z" fill="#86CEE1"/>
<path d="M608.194 92.4054L608.589 93.4988C608.953 94.5307 609.249 95.5851 609.476 96.6554C609.763 98.0328 610.03 99.7919 609.582 101.74C609.357 102.785 608.811 103.733 608.021 104.452C607.112 105.214 605.992 105.68 604.811 105.789C602.361 106.076 599.714 105.474 597.083 104.581C594.322 103.6 591.659 102.361 589.131 100.879L585.143 98.5579C583.851 97.676 582.542 96.7864 581.216 95.8892C580.559 95.43 579.882 94.9967 579.237 94.5146L577.326 93.0339C576.055 92.0353 574.744 91.0711 573.499 90.0351C571.064 87.9059 568.522 85.8541 566.241 83.6301C563.886 81.4865 561.697 79.2109 559.56 77.0443C557.492 74.8117 555.475 72.671 553.694 70.5216C551.835 68.4354 550.251 66.3205 548.722 64.4237C547.268 62.4666 545.942 60.6673 544.821 59.0287C543.745 57.3644 542.761 55.9382 542.029 54.7243L539.783 50.8302C539.746 50.7643 539.721 50.6915 539.712 50.6162C539.702 50.5408 539.707 50.4643 539.727 50.3911C539.768 50.2431 539.865 50.1172 539.998 50.0411C540.132 49.9649 540.289 49.9449 540.437 49.9852C540.585 50.0256 540.711 50.1231 540.787 50.2563L540.807 50.2907L542.973 54.1446C543.685 55.3614 544.64 56.7818 545.687 58.4491C546.734 60.1163 548.077 61.8926 549.494 63.8382C550.988 65.7408 552.54 67.8557 554.371 69.9563C556.123 72.1085 558.1 74.2608 560.137 76.5077C562.24 78.6857 564.377 80.9614 566.712 83.1394C568.975 85.3949 571.46 87.4438 573.884 89.5989C575.117 90.6406 576.405 91.6077 577.659 92.6264L579.549 94.1215C580.183 94.6065 580.849 95.0455 581.497 95.5075L585.37 98.205L589.335 100.584C591.829 102.082 594.459 103.342 597.189 104.346C599.791 105.261 602.405 105.89 604.808 105.629C605.959 105.537 607.054 105.097 607.947 104.366C608.723 103.671 609.264 102.751 609.496 101.735C609.961 99.8177 609.703 98.0615 609.444 96.6841C609.224 95.6092 608.937 94.5492 608.584 93.5103L608.194 92.4054Z" fill="#86CEE1"/>
<path d="M554.784 100.761L553.668 101.309C552.934 101.656 551.884 102.221 550.513 102.838C549.078 103.366 547.42 104.167 545.366 104.689C543.312 105.212 540.879 105.728 538.335 104.905C537.678 104.687 537.075 104.33 536.57 103.857C536.065 103.383 535.669 102.806 535.409 102.164C534.861 100.833 534.818 99.3203 534.984 97.8338C535.34 94.8408 536.496 91.8535 537.896 88.9179C539.296 85.9822 541.172 83.1557 542.945 80.2516C543.848 78.7878 544.83 77.3748 545.888 76.0189L548.989 71.8292C551.187 69.1461 553.439 66.5003 555.673 63.9148C558.04 61.4497 560.312 58.9646 562.619 56.6661C564.997 54.445 567.257 52.2526 569.472 50.2524C571.767 48.3326 573.927 46.5219 575.927 44.8489C577.998 43.262 579.943 41.8846 581.664 40.6248C583.135 39.5319 584.667 38.5249 586.254 37.6088L590.35 35.1094L590.898 36.1338L586.833 38.5587C585.253 39.4466 583.727 40.4258 582.261 41.4914C580.559 42.7254 578.603 44.0741 576.523 45.6208L570.054 50.9239C567.831 52.8925 565.559 55.0476 563.169 57.2371C560.851 59.4984 558.579 61.9491 556.178 64.3796C553.929 66.9279 551.657 69.545 549.437 72.1908C548.398 73.5682 547.359 74.9437 546.318 76.3173C545.25 77.6565 544.257 79.0543 543.344 80.5041C541.531 83.4024 539.614 86.1429 538.223 89.0786C536.789 91.9769 535.641 94.9297 535.248 97.8654C535.073 99.3203 535.099 100.795 535.612 102.081C535.856 102.698 536.231 103.255 536.711 103.713C537.191 104.171 537.765 104.52 538.392 104.735C540.854 105.562 543.321 105.06 545.337 104.586C547.354 104.113 549.067 103.306 550.501 102.793C551.892 102.193 552.951 101.645 553.688 101.297L554.784 100.761Z" fill="#86CEE1"/>
<path d="M616.078 41.325L616.278 41.5345C616.505 41.7495 616.708 41.9881 616.884 42.2462C617.647 43.3032 618.022 44.5917 617.945 45.8935C617.899 47.4747 617.346 49.2337 616.433 51.0187C615.397 52.9756 614.156 54.8176 612.733 56.514C611.981 57.4524 611.146 58.385 610.266 59.3262L609.597 60.035C609.471 60.1613 609.399 60.2503 609.227 60.4138L608.866 60.7467L607.4 62.1098C605.392 63.932 603.404 65.9694 600.988 67.7486C598.636 69.5794 596.286 71.5825 593.673 73.2755C591.091 75.0203 588.555 76.9114 585.81 78.481C583.064 80.0507 580.46 81.8471 577.674 83.2389L573.598 85.4141L571.59 86.4787L569.553 87.4171L565.594 89.2393C564.3 89.8305 563.049 90.4503 561.767 90.8979C559.231 91.8593 556.847 92.8005 554.627 93.6098L548.422 95.4119L547.082 95.8022L545.811 96.0547L543.574 96.5023C542.22 96.7664 541.127 96.8094 540.398 96.9184L539.273 97.0476L540.395 96.8955C541.124 96.775 542.208 96.709 543.551 96.4191L545.783 95.9256L547.048 95.6386L548.373 95.2225L554.521 93.3056C556.718 92.4447 559.079 91.469 561.586 90.4618C562.857 89.9911 564.088 89.3455 565.367 88.74L569.274 86.846L571.283 85.8732L573.256 84.7713L577.272 82.5272C580.012 81.0924 582.6 79.2874 585.268 77.6345C587.936 75.9816 590.454 74.0934 592.979 72.3113C595.543 70.5895 597.807 68.5636 600.082 66.7242C602.402 64.9507 604.385 62.853 606.338 60.9849L607.773 59.5931L608.126 59.2516C608.192 59.1914 608.332 59.0278 608.43 58.9245L609.072 58.2186C609.913 57.2859 610.705 56.3648 611.41 55.4465C612.722 53.8215 613.859 52.0622 614.801 50.1979C615.604 48.5536 616.02 47.0413 616.029 45.8447C616.074 44.995 615.829 44.1552 615.335 43.4629C615.197 43.2544 615.031 43.0661 614.841 42.9033L614.638 42.6967C614.467 42.5061 614.375 42.2572 614.383 42.0013C614.39 41.7454 614.495 41.5021 614.677 41.3216C614.858 41.1411 615.102 41.0373 615.358 41.0315C615.614 41.0257 615.862 41.1185 616.052 41.2906C616.052 41.2906 616.072 41.3222 616.078 41.325Z" fill="#86CEE1"/>
<path d="M858 379L842 362.874V288.153L858 276" stroke="#262626" stroke-width="8.54" stroke-linejoin="round"/>
<path d="M1006 379L1023 362.874V288.153L1006 276" stroke="#262626" stroke-width="8.54" stroke-linejoin="round"/>
<path d="M902 309.403L901.875 292.399L886.877 284L872 292.605L872.121 309.605L887.123 318L902 309.403ZM872.734 293.022L886.885 284.85L901.146 292.844L901.262 309.005L887.115 317.194L872.85 309.208L872.734 293.022Z" fill="#262626"/>
<path d="M933 309.393L932.879 292.397L917.883 284L903 292.611L903.121 309.611L918.125 318L933 309.393ZM903.738 293.008L917.883 284.822L932.146 292.81L932.263 308.972L918.117 317.158L903.85 309.17L903.738 293.008Z" fill="#262626"/>
<path d="M964 309.4L963.879 292.402L949.383 284L935 292.608L935.117 309.606L949.605 318L964 309.4ZM935.705 293.017L949.391 284.83L963.174 292.839L963.287 309.002L949.605 317.17L935.807 309.181L935.705 293.017Z" fill="#262626"/>
<path d="M995 308.647L994.888 292.151L980.886 284L967 292.353L967.116 308.857L981.118 317L995 308.647Z" fill="#262626"/>
<path d="M872 347.357L872.124 363.853L887.118 372L902 363.647L901.88 347.151L886.874 339L872 347.357Z" fill="#262626"/>
<path d="M903 346.857L903.121 364.359L918.115 373L933 364.147L932.875 346.641L917.893 338L903 346.857ZM932.251 363.717L918.095 372.141L903.85 363.942L903.733 347.303L917.877 338.883L932.134 347.099L932.251 363.717Z" fill="#262626"/>
<path d="M935 347.36L935.116 363.85L949.616 372L964 363.648L963.88 347.154L949.38 339L935 347.36Z" fill="#262626"/>
<path d="M967 346.609L967.12 363.603L981.622 372L996 363.395L995.88 346.401L981.378 338L967 346.609Z" fill="#262626"/>
<path d="M885.884 320.151L871.386 312L857 320.353L857.12 336.849L871.622 345L886 336.647L885.884 320.151Z" fill="#262626"/>
<path d="M916.899 320.15L902.385 312L888 320.354L888.121 336.846L902.627 345L917 336.646L916.899 320.15ZM916.306 336.249L902.619 344.187L888.826 336.442L888.717 320.751L902.397 312.813L916.193 320.558L916.306 336.249Z" fill="#262626"/>
<path d="M948.884 320.154L934.378 312L920 320.356L920.12 336.85L934.614 345L949 336.648L948.884 320.154Z" fill="#262626"/>
<path d="M979.883 319.394L964.883 311L950 319.6L950.129 336.602L965.133 345L980 336.392L979.883 319.394ZM979.258 335.979L965.125 344.162L950.875 336.185L950.754 320.021L964.887 311.842L979.146 319.823L979.258 335.979Z" fill="#262626"/>
<path d="M996.875 310L982 318.856L982.125 336.356L997.117 345L1012 336.168L1011.88 318.672L996.875 310ZM1011.27 335.727L997.125 344.15L982.866 335.931L982.75 319.294L996.891 310.871L1011.15 319.089L1011.27 335.727Z" fill="#262626"/>
<path d="M943.027 167L910 103.437L943.973 51L977 114.563L943.027 167Z" stroke="#262626" stroke-width="9.27" stroke-linejoin="round"/>
<path d="M943 168.327L1014.97 172L1049 118.673L977.021 115L943 168.327Z" stroke="#262626" stroke-width="9.27" stroke-linejoin="round"/>
<path d="M945 51L1016.42 54.4023L1049 119L977.739 115.344L945 51Z" stroke="#262626" stroke-width="9.27" stroke-linejoin="round"/>
<path d="M768 177C736.57 177 711 151.653 711 120.504C711 89.355 736.57 64 768 64C799.43 64 825 89.3473 825 120.504C825 151.66 799.426 177 768 177ZM768 66.7365C738.09 66.7365 713.764 90.8508 713.764 120.504C713.764 150.157 738.09 174.271 768 174.271C797.91 174.271 822.239 150.149 822.239 120.504C822.239 90.8586 797.91 66.7365 768 66.7365Z" fill="#262626"/>
<path d="M768 150C762.066 150 756.266 148.27 751.333 145.028C746.399 141.786 742.554 137.179 740.283 131.788C738.013 126.398 737.419 120.466 738.577 114.743C739.735 109.021 742.592 103.764 746.788 99.639C750.984 95.5135 756.33 92.7042 762.15 91.5664C767.969 90.4285 774.002 91.0133 779.483 93.2467C784.965 95.48 789.65 99.2617 792.946 104.113C796.242 108.965 798.001 114.669 798 120.504C797.993 128.325 794.83 135.824 789.205 141.354C783.58 146.884 775.954 149.994 768 150ZM768 92.4263C762.354 92.4286 756.836 94.0769 752.142 97.1629C747.449 100.249 743.792 104.634 741.632 109.764C739.473 114.894 738.909 120.538 740.012 125.983C741.115 131.427 743.834 136.429 747.827 140.354C751.82 144.279 756.906 146.952 762.444 148.035C767.981 149.117 773.721 148.561 778.937 146.437C784.153 144.312 788.612 140.714 791.749 136.098C794.886 131.483 796.56 126.056 796.561 120.504C796.553 113.058 793.541 105.92 788.186 100.656C782.832 95.3923 775.572 92.4324 768 92.4263Z" fill="#262626"/>
<path d="M772 120.512C771.998 121.401 771.761 122.27 771.321 123.009C770.88 123.748 770.254 124.323 769.523 124.661C768.791 125 767.987 125.087 767.212 124.912C766.437 124.737 765.725 124.307 765.167 123.676C764.608 123.046 764.229 122.244 764.076 121.371C763.923 120.498 764.003 119.594 764.306 118.773C764.61 117.951 765.123 117.249 765.781 116.756C766.439 116.262 767.213 115.999 768.003 116C768.53 115.999 769.051 116.116 769.537 116.343C770.023 116.569 770.464 116.902 770.835 117.321C771.207 117.741 771.501 118.238 771.701 118.786C771.901 119.333 772.002 119.92 772 120.512Z" fill="#262626"/>
<path d="M755 69C755 69.7915 754.795 70.5651 754.41 71.2231C754.025 71.8811 753.478 72.3938 752.838 72.6963C752.198 72.9988 751.494 73.0775 750.815 72.9226C750.136 72.7676 749.512 72.3858 749.023 71.8256C748.534 71.2654 748.201 70.552 748.066 69.7755C747.932 68.9991 748.002 68.1946 748.268 67.4638C748.534 66.733 748.984 66.1089 749.561 65.6703C750.137 65.2317 750.814 64.9984 751.507 65C751.966 65.0005 752.421 65.1044 752.845 65.3057C753.269 65.507 753.654 65.8018 753.978 66.1732C754.303 66.5446 754.56 66.9855 754.735 67.4705C754.91 67.9555 755 68.4752 755 69Z" fill="#262626"/>
<path d="M737 77.9921C737.002 78.7838 736.768 79.558 736.329 80.217C735.891 80.8759 735.266 81.3898 734.535 81.6936C733.804 81.9975 733 82.0776 732.223 81.9238C731.446 81.77 730.733 81.3893 730.173 80.8298C729.613 80.2703 729.232 79.5572 729.077 78.7809C728.922 78.0045 729.002 77.1996 729.305 76.4684C729.608 75.7371 730.121 75.1122 730.78 74.6728C731.438 74.2334 732.212 73.9992 733.004 74C734.063 74.001 735.078 74.4218 735.827 75.1702C736.576 75.9185 736.998 76.9333 737 77.9921Z" fill="#262626"/>
<path d="M781 65.5C781 66.1922 780.736 66.8689 780.242 67.4445C779.747 68.0201 779.044 68.4687 778.222 68.7336C777.4 68.9985 776.495 69.0678 775.622 68.9327C774.749 68.7977 773.947 68.4644 773.318 67.9749C772.689 67.4854 772.26 66.8617 772.086 66.1828C771.913 65.5039 772.002 64.8001 772.343 64.1606C772.683 63.5211 773.26 62.9744 774 62.5899C774.74 62.2053 775.61 62 776.5 62C777.091 62 777.676 62.0905 778.222 62.2664C778.768 62.4423 779.264 62.7001 779.682 63.0251C780.1 63.3501 780.431 63.736 780.657 64.1606C780.884 64.5852 781 65.0404 781 65.5Z" fill="#262626"/>
<path d="M827 128.996C827.001 129.788 826.767 130.561 826.328 131.22C825.888 131.878 825.264 132.392 824.533 132.695C823.801 132.998 822.997 133.078 822.221 132.923C821.444 132.769 820.731 132.388 820.172 131.828C819.612 131.269 819.231 130.556 819.077 129.779C818.922 129.003 819.002 128.199 819.305 127.467C819.608 126.736 820.122 126.112 820.78 125.672C821.439 125.233 822.212 124.999 823.004 125C823.529 124.999 824.049 125.102 824.534 125.303C825.019 125.504 825.46 125.798 825.831 126.169C826.202 126.54 826.496 126.981 826.697 127.466C826.897 127.951 827.001 128.471 827 128.996Z" fill="#262626"/>
<path d="M822.795 130L767.459 121.969L766.537 120.845L766.263 121.072L732 78.9047L733.112 78L768.219 120.629L823 128.583L822.795 130Z" fill="#262626"/>
<path d="M207 12H205V166H207V12Z" fill="#262626"/>
<path d="M222 12H220V166H222V12Z" fill="#262626"/>
<path d="M237 12H235V166H237V12Z" fill="#262626"/>
<path d="M252 12H249V166H252V12Z" fill="#262626"/>
<path d="M266 12H264V166H266V12Z" fill="#262626"/>
<path d="M281 12H279V166H281V12Z" fill="#262626"/>
<path d="M296 12H294V166H296V12Z" fill="#262626"/>
<path d="M311 12H308V166H311V12Z" fill="#262626"/>
<path d="M328 37H188V39H328V37Z" fill="#262626"/>
<path d="M328 51H188V53H328V51Z" fill="#262626"/>
<path d="M328 66H188V68H328V66Z" fill="#262626"/>
<path d="M328 81H188V83H328V81Z" fill="#262626"/>
<path d="M328 96H188V98H328V96Z" fill="#262626"/>
<path d="M328 110H188V112H328V110Z" fill="#262626"/>
<path d="M328 125H188V127H328V125Z" fill="#262626"/>
<path d="M328 140H188V142H328V140Z" fill="#262626"/>
<path d="M206.572 142L205 140.538L234.437 109.413L250.599 64.2618L265.265 91.8392L293.697 66.2507L309.073 35L311 35.9347L295.28 67.6853L264.665 95.2517L250.981 69.5328L236.314 110.543L206.572 142Z" fill="#262626"/>
<path d="M242 111C242 112.187 241.648 113.347 240.989 114.333C240.33 115.32 239.392 116.089 238.296 116.543C237.2 116.997 235.993 117.116 234.829 116.885C233.666 116.653 232.596 116.082 231.757 115.243C230.918 114.404 230.347 113.334 230.115 112.171C229.884 111.007 230.003 109.8 230.457 108.704C230.911 107.608 231.68 106.67 232.667 106.011C233.653 105.352 234.813 105 236 105C237.59 105.003 239.115 105.636 240.239 106.761C241.364 107.885 241.997 109.41 242 111Z" fill="#262626"/>
<path d="M257 67.0055C256.999 68.192 256.617 69.3514 255.902 70.3374C255.187 71.3234 254.171 72.0916 252.983 72.5448C251.795 72.9981 250.489 73.1162 249.228 72.884C247.968 72.6519 246.81 72.08 245.902 71.2407C244.993 70.4014 244.375 69.3323 244.124 68.1685C243.874 67.0048 244.003 65.7987 244.495 64.7026C244.987 63.6066 245.821 62.6699 246.889 62.0108C247.958 61.3518 249.215 61 250.5 61C251.354 61 252.2 61.1554 252.989 61.4573C253.778 61.7591 254.495 62.2016 255.098 62.7593C255.702 63.3171 256.181 63.9791 256.507 64.7077C256.833 65.4363 257.001 66.2171 257 67.0055Z" fill="#262626"/>
<path d="M271 95.9945C271.001 97.1817 270.65 98.3425 269.991 99.33C269.332 100.318 268.395 101.087 267.299 101.542C266.202 101.997 264.995 102.116 263.831 101.885C262.666 101.654 261.597 101.082 260.757 100.243C259.918 99.4032 259.346 98.3336 259.115 97.1692C258.884 96.0048 259.003 94.7979 259.458 93.7014C259.913 92.6048 260.682 91.6678 261.67 91.0089C262.658 90.35 263.818 89.9989 265.005 90C266.595 90 268.12 90.6315 269.244 91.7557C270.368 92.8799 271 94.4047 271 95.9945Z" fill="#262626"/>
<path d="M300 67C300 68.1867 299.648 69.3467 298.989 70.3334C298.33 71.3201 297.392 72.0892 296.296 72.5433C295.2 72.9974 293.993 73.1162 292.829 72.8847C291.666 72.6532 290.596 72.0817 289.757 71.2426C288.918 70.4035 288.347 69.3344 288.115 68.1706C287.884 67.0067 288.003 65.8002 288.457 64.7039C288.911 63.6075 289.68 62.6705 290.667 62.0112C291.653 61.3519 292.813 61 294 61C295.591 61 297.117 61.6322 298.243 62.7574C299.368 63.8826 300 65.4087 300 67Z" fill="#262626"/>
<path d="M316 38C316 39.1869 315.648 40.3472 314.988 41.334C314.329 42.3208 313.392 43.0898 312.295 43.5438C311.198 43.9978 309.991 44.1163 308.827 43.8843C307.663 43.6523 306.594 43.0804 305.755 42.2407C304.917 41.401 304.346 40.3314 304.115 39.1672C303.884 38.0029 304.003 36.7963 304.458 35.7001C304.913 34.6038 305.683 33.6671 306.671 33.0085C307.658 32.3499 308.819 31.9989 310.006 32C310.793 32 311.573 32.1552 312.301 32.4568C313.028 32.7584 313.689 33.2005 314.246 33.7577C314.803 34.3149 315.244 34.9764 315.545 35.7043C315.846 36.4322 316.001 37.2123 316 38Z" fill="#262626"/>
<path d="M255.048 444.279C254.833 450.527 252.796 456.575 249.188 461.679C245.581 466.784 240.559 470.722 234.742 473.01C228.924 475.297 222.565 475.834 216.447 474.554C210.328 473.274 204.718 470.234 200.305 465.806C195.893 461.378 192.871 455.757 191.612 449.635C190.353 443.512 190.911 437.155 193.219 431.345C195.526 425.536 199.481 420.528 204.598 416.937C209.715 413.347 215.77 411.331 222.018 411.137V400.188C198.758 400.72 180 419.793 180 443.174C180 466.892 199.296 486.187 223.014 486.187C246.359 486.187 265.407 467.487 266 444.279H255.048Z" fill="#262626"/>
<path d="M223 420.188V426.048C227.566 426.148 231.912 427.997 235.105 431.2C238.299 434.404 240.087 438.707 240.087 443.187C240.087 447.668 238.299 451.971 235.105 455.175C231.912 458.378 227.566 460.227 223 460.327V466.188C229.14 466.072 234.989 463.599 239.29 459.298C243.591 454.997 246 449.212 246 443.187C246 437.163 243.591 431.378 239.29 427.077C234.989 422.776 229.14 420.303 223 420.188Z" fill="#262626"/>
<path d="M230 443.185C230.001 444.569 229.59 445.923 228.822 447.075C228.053 448.226 226.96 449.124 225.681 449.654C224.402 450.184 222.994 450.323 221.636 450.053C220.278 449.784 219.03 449.117 218.051 448.138C217.072 447.159 216.405 445.912 216.135 444.554C215.864 443.196 216.003 441.789 216.533 440.509C217.062 439.23 217.96 438.137 219.111 437.367C220.262 436.598 221.615 436.188 223 436.188C224.856 436.187 226.636 436.925 227.949 438.237C229.262 439.549 229.999 441.329 230 443.185Z" fill="#262626"/>
<path d="M254 482.748C245.094 489.531 234.137 493.205 222.864 493.187C194.77 493.187 172 470.838 172 443.272C171.992 436.023 173.597 428.859 176.703 422.281C179.808 415.702 184.34 409.869 189.981 405.188" stroke="#262626" stroke-width="4.83" stroke-miterlimit="10"/>
<g opacity="0.5">
<path d="M222.801 486.391C198.981 486.391 179.602 467.013 179.602 443.194C179.602 419.375 198.981 400 222.801 400C246.622 400 265.999 419.375 265.999 443.194C265.999 467.013 246.622 486.391 222.801 486.391ZM222.801 410.996C216.432 410.997 210.206 412.886 204.911 416.425C199.616 419.963 195.488 424.993 193.052 430.877C190.615 436.761 189.978 443.236 191.221 449.482C192.464 455.728 195.531 461.465 200.035 465.968C204.539 470.471 210.278 473.538 216.524 474.78C222.771 476.021 229.246 475.383 235.13 472.946C241.014 470.508 246.043 466.38 249.581 461.084C253.119 455.789 255.008 449.563 255.007 443.194C254.997 434.657 251.6 426.472 245.563 420.436C239.525 414.4 231.339 411.005 222.801 410.996Z" fill="#262626"/>
</g>
<g opacity="0.5">
<path d="M222.802 465.843C218.322 465.843 213.943 464.515 210.219 462.026C206.494 459.538 203.591 456.001 201.876 451.862C200.162 447.724 199.714 443.17 200.588 438.777C201.462 434.383 203.619 430.348 206.786 427.18C209.954 424.013 213.99 421.856 218.383 420.982C222.777 420.108 227.331 420.557 231.47 422.271C235.609 423.985 239.146 426.888 241.635 430.612C244.123 434.337 245.452 438.716 245.452 443.195C245.446 449.2 243.058 454.957 238.811 459.203C234.565 463.45 228.807 465.838 222.802 465.843ZM222.802 426.314C219.462 426.313 216.197 427.303 213.42 429.158C210.643 431.013 208.478 433.65 207.2 436.735C205.921 439.821 205.587 443.216 206.238 446.491C206.89 449.767 208.498 452.775 210.86 455.137C213.221 457.498 216.23 459.106 219.506 459.758C222.782 460.409 226.177 460.075 229.262 458.796C232.348 457.518 234.985 455.354 236.84 452.577C238.695 449.8 239.685 446.535 239.685 443.195C239.679 438.72 237.898 434.429 234.733 431.265C231.569 428.1 227.278 426.319 222.802 426.314Z" fill="#262626"/>
</g>
<path d="M1097.19 144.422H1092.66V495.405H1097.19V144.422Z" fill="#262626"/>
<path d="M1094.92 144.422H1068.89V148.954H1094.92V144.422Z" fill="#262626"/>
<path d="M1094.92 490.875H1068.89V495.408H1094.92V490.875Z" fill="#262626"/>
<path d="M1092.65 163.402H1075.12" stroke="#262626" stroke-width="9.98" stroke-miterlimit="10"/>
<path d="M1094.92 178.578H1068.89V183.111H1094.92V178.578Z" fill="#262626"/>
<path d="M1092.65 197.555H1075.12" stroke="#262626" stroke-width="9.98" stroke-miterlimit="10"/>
<path d="M1094.92 212.734H1068.89V217.267H1094.92V212.734Z" fill="#262626"/>
<path d="M1092.65 231.711H1075.12" stroke="#262626" stroke-width="9.98" stroke-miterlimit="10"/>
<path d="M1094.92 246.891H1068.89V251.423H1094.92V246.891Z" fill="#262626"/>
<path d="M1092.65 265.867H1075.12" stroke="#262626" stroke-width="9.98" stroke-miterlimit="10"/>
<path d="M1094.92 281.043H1068.89V285.575H1094.92V281.043Z" fill="#262626"/>
<path d="M1092.65 300.023H1075.12" stroke="#262626" stroke-width="9.98" stroke-miterlimit="10"/>
<path d="M1094.92 315.199H1068.89V319.732H1094.92V315.199Z" fill="#262626"/>
<path d="M1092.65 334.176H1075.12" stroke="#262626" stroke-width="9.98" stroke-miterlimit="10"/>
<path d="M1094.92 349.352H1068.89V353.884H1094.92V349.352Z" fill="#262626"/>
<path d="M1092.65 368.332H1075.12" stroke="#262626" stroke-width="9.98" stroke-miterlimit="10"/>
<path d="M1094.92 383.512H1068.89V388.044H1094.92V383.512Z" fill="#262626"/>
<path d="M1092.65 402.492H1075.12" stroke="#262626" stroke-width="9.98" stroke-miterlimit="10"/>
<path d="M1094.92 417.668H1068.89V422.2H1094.92V417.668Z" fill="#262626"/>
<path d="M1092.65 436.641H1075.12" stroke="#262626" stroke-width="9.98" stroke-miterlimit="10"/>
<path d="M1094.92 454.086H1068.89V458.618H1094.92V454.086Z" fill="#262626"/>
<path d="M1092.65 473.066H1075.12" stroke="#262626" stroke-width="9.98" stroke-miterlimit="10"/>
<path d="M116.048 148.965H111.516V499.948H116.048V148.965Z" fill="#262626"/>
<path d="M139.811 148.965H113.781V153.497H139.811V148.965Z" fill="#262626"/>
<path d="M139.811 495.414H113.781V499.947H139.811V495.414Z" fill="#262626"/>
<path d="M116.047 167.945H133.583" stroke="#262626" stroke-width="9.98" stroke-miterlimit="10"/>
<path d="M139.811 183.121H113.781V187.654H139.811V183.121Z" fill="#262626"/>
<path d="M116.047 202.098H133.583" stroke="#262626" stroke-width="9.98" stroke-miterlimit="10"/>
<path d="M139.811 217.273H113.781V221.806H139.811V217.273Z" fill="#262626"/>
<path d="M116.047 236.254H133.583" stroke="#262626" stroke-width="9.98" stroke-miterlimit="10"/>
<path d="M139.811 251.43H113.781V255.962H139.811V251.43Z" fill="#262626"/>
<path d="M116.047 270.406H133.583" stroke="#262626" stroke-width="9.98" stroke-miterlimit="10"/>
<path d="M139.811 285.586H113.781V290.118H139.811V285.586Z" fill="#262626"/>
<path d="M116.047 304.562H133.583" stroke="#262626" stroke-width="9.98" stroke-miterlimit="10"/>
<path d="M139.811 319.742H113.781V324.275H139.811V319.742Z" fill="#262626"/>
<path d="M116.047 338.719H133.583" stroke="#262626" stroke-width="9.98" stroke-miterlimit="10"/>
<path d="M139.811 353.895H113.781V358.427H139.811V353.895Z" fill="#262626"/>
<path d="M116.047 372.875H133.583" stroke="#262626" stroke-width="9.98" stroke-miterlimit="10"/>
<path d="M139.811 388.055H113.781V392.587H139.811V388.055Z" fill="#262626"/>
<path d="M116.047 407.031H133.583" stroke="#262626" stroke-width="9.98" stroke-miterlimit="10"/>
<path d="M139.811 422.211H113.781V426.743H139.811V422.211Z" fill="#262626"/>
<path d="M116.047 441.184H133.583" stroke="#262626" stroke-width="9.98" stroke-miterlimit="10"/>
<path d="M139.811 458.629H113.781V463.161H139.811V458.629Z" fill="#262626"/>
<path d="M116.047 477.609H133.583" stroke="#262626" stroke-width="9.98" stroke-miterlimit="10"/>
<defs>
<linearGradient id="paint0_linear_491_19877" x1="441.284" y1="309.126" x2="441.775" y2="342.945" gradientUnits="userSpaceOnUse">
<stop stop-color="#312870"/>
<stop offset="0.2" stop-color="#263F81"/>
<stop offset="0.74" stop-color="#0B78AC"/>
<stop offset="1" stop-color="#008EBD"/>
</linearGradient>
<linearGradient id="paint1_linear_491_19877" x1="595.759" y1="306.885" x2="596.247" y2="340.706" gradientUnits="userSpaceOnUse">
<stop stop-color="#312870"/>
<stop offset="0.2" stop-color="#263F81"/>
<stop offset="0.74" stop-color="#0B78AC"/>
<stop offset="1" stop-color="#008EBD"/>
</linearGradient>
<linearGradient id="paint2_linear_491_19877" x1="556.712" y1="25.2879" x2="557.961" y2="104.417" gradientUnits="userSpaceOnUse">
<stop stop-color="#87C2EB"/>
<stop offset="0.31" stop-color="#83C0EA"/>
<stop offset="0.6" stop-color="#78BBE8"/>
<stop offset="0.88" stop-color="#65B3E4"/>
<stop offset="1" stop-color="#5AAEE2"/>
</linearGradient>
<linearGradient id="paint3_linear_491_19877" x1="555.601" y1="25.3289" x2="556.844" y2="104.066" gradientUnits="userSpaceOnUse">
<stop stop-color="#87C2EB"/>
<stop offset="0.31" stop-color="#83C0EA"/>
<stop offset="0.6" stop-color="#78BBE8"/>
<stop offset="0.88" stop-color="#65B3E4"/>
<stop offset="1" stop-color="#5AAEE2"/>
</linearGradient>
<linearGradient id="paint4_linear_491_19877" x1="550.79" y1="25.3929" x2="552.036" y2="104.342" gradientUnits="userSpaceOnUse">
<stop stop-color="#87C2EB"/>
<stop offset="0.31" stop-color="#83C0EA"/>
<stop offset="0.6" stop-color="#78BBE8"/>
<stop offset="0.88" stop-color="#65B3E4"/>
<stop offset="1" stop-color="#5AAEE2"/>
</linearGradient>
<linearGradient id="paint5_linear_491_19877" x1="567.281" y1="25.1328" x2="568.524" y2="104.065" gradientUnits="userSpaceOnUse">
<stop stop-color="#87C2EB"/>
<stop offset="0.31" stop-color="#83C0EA"/>
<stop offset="0.6" stop-color="#78BBE8"/>
<stop offset="0.88" stop-color="#65B3E4"/>
<stop offset="1" stop-color="#5AAEE2"/>
</linearGradient>
<linearGradient id="paint6_linear_491_19877" x1="603.426" y1="24.5626" x2="604.672" y2="103.492" gradientUnits="userSpaceOnUse">
<stop stop-color="#87C2EB"/>
<stop offset="0.31" stop-color="#83C0EA"/>
<stop offset="0.6" stop-color="#78BBE8"/>
<stop offset="0.88" stop-color="#65B3E4"/>
<stop offset="1" stop-color="#5AAEE2"/>
</linearGradient>
<linearGradient id="paint7_linear_491_19877" x1="602.544" y1="24.5777" x2="603.79" y2="103.504" gradientUnits="userSpaceOnUse">
<stop stop-color="#87C2EB"/>
<stop offset="0.31" stop-color="#83C0EA"/>
<stop offset="0.6" stop-color="#78BBE8"/>
<stop offset="0.88" stop-color="#65B3E4"/>
<stop offset="1" stop-color="#5AAEE2"/>
</linearGradient>
<linearGradient id="paint8_linear_491_19877" x1="603.702" y1="24.5522" x2="604.948" y2="103.49" gradientUnits="userSpaceOnUse">
<stop stop-color="#87C2EB"/>
<stop offset="0.31" stop-color="#83C0EA"/>
<stop offset="0.6" stop-color="#78BBE8"/>
<stop offset="0.88" stop-color="#65B3E4"/>
<stop offset="1" stop-color="#5AAEE2"/>
</linearGradient>
<linearGradient id="paint9_linear_491_19877" x1="547.228" y1="25.4514" x2="548.474" y2="104.381" gradientUnits="userSpaceOnUse">
<stop stop-color="#87C2EB"/>
<stop offset="0.31" stop-color="#83C0EA"/>
<stop offset="0.6" stop-color="#78BBE8"/>
<stop offset="0.88" stop-color="#65B3E4"/>
<stop offset="1" stop-color="#5AAEE2"/>
</linearGradient>
<linearGradient id="paint10_linear_491_19877" x1="548.232" y1="25.4856" x2="549.475" y2="104.338" gradientUnits="userSpaceOnUse">
<stop stop-color="#87C2EB"/>
<stop offset="0.31" stop-color="#83C0EA"/>
<stop offset="0.6" stop-color="#78BBE8"/>
<stop offset="0.88" stop-color="#65B3E4"/>
<stop offset="1" stop-color="#5AAEE2"/>
</linearGradient>
<linearGradient id="paint11_linear_491_19877" x1="552.131" y1="25.3326" x2="553.377" y2="104.328" gradientUnits="userSpaceOnUse">
<stop stop-color="#87C2EB"/>
<stop offset="0.31" stop-color="#83C0EA"/>
<stop offset="0.6" stop-color="#78BBE8"/>
<stop offset="0.88" stop-color="#65B3E4"/>
<stop offset="1" stop-color="#5AAEE2"/>
</linearGradient>
<linearGradient id="paint12_linear_491_19877" x1="567.926" y1="25.1057" x2="569.178" y2="104.345" gradientUnits="userSpaceOnUse">
<stop stop-color="#87C2EB"/>
<stop offset="0.31" stop-color="#83C0EA"/>
<stop offset="0.6" stop-color="#78BBE8"/>
<stop offset="0.88" stop-color="#65B3E4"/>
<stop offset="1" stop-color="#5AAEE2"/>
</linearGradient>
<linearGradient id="paint13_linear_491_19877" x1="565.164" y1="25.1703" x2="566.41" y2="104.068" gradientUnits="userSpaceOnUse">
<stop stop-color="#87C2EB"/>
<stop offset="0.31" stop-color="#83C0EA"/>
<stop offset="0.6" stop-color="#78BBE8"/>
<stop offset="0.88" stop-color="#65B3E4"/>
<stop offset="1" stop-color="#5AAEE2"/>
</linearGradient>
<linearGradient id="paint14_linear_491_19877" x1="562.697" y1="25.2075" x2="563.94" y2="104.114" gradientUnits="userSpaceOnUse">
<stop stop-color="#87C2EB"/>
<stop offset="0.31" stop-color="#83C0EA"/>
<stop offset="0.6" stop-color="#78BBE8"/>
<stop offset="0.88" stop-color="#65B3E4"/>
<stop offset="1" stop-color="#5AAEE2"/>
</linearGradient>
<linearGradient id="paint15_linear_491_19877" x1="567.291" y1="25.1318" x2="568.537" y2="104.138" gradientUnits="userSpaceOnUse">
<stop stop-color="#87C2EB"/>
<stop offset="0.31" stop-color="#83C0EA"/>
<stop offset="0.6" stop-color="#78BBE8"/>
<stop offset="0.88" stop-color="#65B3E4"/>
<stop offset="1" stop-color="#5AAEE2"/>
</linearGradient>
<linearGradient id="paint16_linear_491_19877" x1="566.371" y1="25.1518" x2="567.617" y2="104.04" gradientUnits="userSpaceOnUse">
<stop stop-color="#87C2EB"/>
<stop offset="0.31" stop-color="#83C0EA"/>
<stop offset="0.6" stop-color="#78BBE8"/>
<stop offset="0.88" stop-color="#65B3E4"/>
<stop offset="1" stop-color="#5AAEE2"/>
</linearGradient>
<linearGradient id="paint17_linear_491_19877" x1="565.78" y1="25.1622" x2="567.023" y2="104.049" gradientUnits="userSpaceOnUse">
<stop stop-color="#87C2EB"/>
<stop offset="0.31" stop-color="#83C0EA"/>
<stop offset="0.6" stop-color="#78BBE8"/>
<stop offset="0.88" stop-color="#65B3E4"/>
<stop offset="1" stop-color="#5AAEE2"/>
</linearGradient>
<linearGradient id="paint18_linear_491_19877" x1="566.5" y1="25.1489" x2="567.745" y2="104.07" gradientUnits="userSpaceOnUse">
<stop stop-color="#87C2EB"/>
<stop offset="0.31" stop-color="#83C0EA"/>
<stop offset="0.6" stop-color="#78BBE8"/>
<stop offset="0.88" stop-color="#65B3E4"/>
<stop offset="1" stop-color="#5AAEE2"/>
</linearGradient>
<linearGradient id="paint19_linear_491_19877" x1="565.528" y1="25.1683" x2="566.771" y2="103.983" gradientUnits="userSpaceOnUse">
<stop stop-color="#87C2EB"/>
<stop offset="0.31" stop-color="#83C0EA"/>
<stop offset="0.6" stop-color="#78BBE8"/>
<stop offset="0.88" stop-color="#65B3E4"/>
<stop offset="1" stop-color="#5AAEE2"/>
</linearGradient>
<linearGradient id="paint20_linear_491_19877" x1="568.591" y1="25.1064" x2="569.84" y2="104.119" gradientUnits="userSpaceOnUse">
<stop stop-color="#87C2EB"/>
<stop offset="0.31" stop-color="#83C0EA"/>
<stop offset="0.6" stop-color="#78BBE8"/>
<stop offset="0.88" stop-color="#65B3E4"/>
<stop offset="1" stop-color="#5AAEE2"/>
</linearGradient>
<linearGradient id="paint21_linear_491_19877" x1="568.784" y1="25.1102" x2="570.03" y2="104.048" gradientUnits="userSpaceOnUse">
<stop stop-color="#87C2EB"/>
<stop offset="0.31" stop-color="#83C0EA"/>
<stop offset="0.6" stop-color="#78BBE8"/>
<stop offset="0.88" stop-color="#65B3E4"/>
<stop offset="1" stop-color="#5AAEE2"/>
</linearGradient>
<linearGradient id="paint22_linear_491_19877" x1="570.142" y1="25.0703" x2="571.394" y2="104.352" gradientUnits="userSpaceOnUse">
<stop stop-color="#87C2EB"/>
<stop offset="0.31" stop-color="#83C0EA"/>
<stop offset="0.6" stop-color="#78BBE8"/>
<stop offset="0.88" stop-color="#65B3E4"/>
<stop offset="1" stop-color="#5AAEE2"/>
</linearGradient>
<linearGradient id="paint23_linear_491_19877" x1="569.968" y1="25.0903" x2="571.213" y2="104.045" gradientUnits="userSpaceOnUse">
<stop stop-color="#87C2EB"/>
<stop offset="0.31" stop-color="#83C0EA"/>
<stop offset="0.6" stop-color="#78BBE8"/>
<stop offset="0.88" stop-color="#65B3E4"/>
<stop offset="1" stop-color="#5AAEE2"/>
</linearGradient>
<linearGradient id="paint24_linear_491_19877" x1="572.438" y1="25.054" x2="573.684" y2="103.986" gradientUnits="userSpaceOnUse">
<stop stop-color="#87C2EB"/>
<stop offset="0.31" stop-color="#83C0EA"/>
<stop offset="0.6" stop-color="#78BBE8"/>
<stop offset="0.88" stop-color="#65B3E4"/>
<stop offset="1" stop-color="#5AAEE2"/>
</linearGradient>
<linearGradient id="paint25_linear_491_19877" x1="592.764" y1="24.7354" x2="594.01" y2="103.659" gradientUnits="userSpaceOnUse">
<stop stop-color="#87C2EB"/>
<stop offset="0.31" stop-color="#83C0EA"/>
<stop offset="0.6" stop-color="#78BBE8"/>
<stop offset="0.88" stop-color="#65B3E4"/>
<stop offset="1" stop-color="#5AAEE2"/>
</linearGradient>
<linearGradient id="paint26_linear_491_19877" x1="592.165" y1="24.7442" x2="593.411" y2="103.671" gradientUnits="userSpaceOnUse">
<stop stop-color="#87C2EB"/>
<stop offset="0.31" stop-color="#83C0EA"/>
<stop offset="0.6" stop-color="#78BBE8"/>
<stop offset="0.88" stop-color="#65B3E4"/>
<stop offset="1" stop-color="#5AAEE2"/>
</linearGradient>
<linearGradient id="paint27_linear_491_19877" x1="582.702" y1="24.8942" x2="583.948" y2="103.823" gradientUnits="userSpaceOnUse">
<stop stop-color="#87C2EB"/>
<stop offset="0.31" stop-color="#83C0EA"/>
<stop offset="0.6" stop-color="#78BBE8"/>
<stop offset="0.88" stop-color="#65B3E4"/>
<stop offset="1" stop-color="#5AAEE2"/>
</linearGradient>
</defs>
</svg>
