<svg width="40" height="40" viewBox="0 0 40 40" fill="none" xmlns="http://www.w3.org/2000/svg">
<rect width="40" height="40" rx="20" fill="#907628" fill-opacity="0.3"/>
<path d="M31.49 15.9025C31.487 15.8884 31.4828 15.8746 31.4775 15.8612C31.4734 15.8434 31.4679 15.8258 31.4613 15.8088C31.4546 15.7927 31.4466 15.7773 31.4375 15.7625C31.43 15.7487 31.4237 15.735 31.4163 15.7225C31.3982 15.6953 31.3772 15.6702 31.3538 15.6475L24.3538 8.6475C24.3411 8.635 24.3273 8.6237 24.3125 8.61375C24.2244 8.54129 24.1141 8.50115 24 8.5H9C8.86739 8.5 8.74021 8.55268 8.64645 8.64645C8.55268 8.74021 8.5 8.86739 8.5 9V24C8.5008 24.1139 8.54049 24.2242 8.6125 24.3125C8.62245 24.3273 8.63375 24.3411 8.64625 24.3538L15.6462 31.3538C15.6927 31.4002 15.7479 31.437 15.8086 31.4621C15.8693 31.4872 15.9343 31.5001 16 31.5H31C31.1326 31.5 31.2598 31.4473 31.3536 31.3536C31.4473 31.2598 31.5 31.1326 31.5 31V16C31.4999 15.9673 31.4965 15.9346 31.49 15.9025ZM24.5 10.2075L29.7925 15.5H24.5V10.2075ZM15.5 29.7925L10.2075 24.5H15.5V29.7925ZM15.5 23.5H9.5V10.2075L15.5 16.2075V23.5ZM10.2075 9.5H23.5V15.5H16.2075L10.2075 9.5ZM23.5 16.5V23.5H16.5V16.5H23.5ZM16.5 30.5V24.5H23.7925L29.7925 30.5H16.5ZM30.5 29.7925L24.5 23.7925V16.5H30.5V29.7925Z" fill="black"/>
</svg>
