<svg width="40" height="40" viewBox="0 0 40 40" fill="none" xmlns="http://www.w3.org/2000/svg">
<rect width="40" height="40" rx="20" fill="#EFCD56" fill-opacity="0.3"/>
<path d="M30.0003 28.251H30C29.5359 28.251 29.0908 28.4354 28.7626 28.7636C28.4344 29.0918 28.25 29.5369 28.25 30.001C28.25 30.0388 28.2543 30.0696 28.2607 30.1154C28.2638 30.1373 28.2674 30.1627 28.2712 30.1938L28.2881 30.3332L28.178 30.4202C25.8493 32.2596 22.967 33.2572 19.9995 33.251C12.6937 33.2507 6.75 27.3079 6.75 20.001C6.75 17.9302 7.2132 15.9491 8.12681 14.1124L6.79662 13.4204C5.78082 15.4642 5.25097 17.7164 5.25 20.001L30.0003 28.251ZM30.0003 28.251C30.2605 28.2507 30.5175 28.3083 30.7526 28.4198C30.9876 28.5313 31.1949 28.6937 31.3593 28.8954C31.5236 29.0971 31.641 29.3328 31.7027 29.5856C31.7645 29.8383 31.7691 30.1016 31.7163 30.3563C31.6635 30.6111 31.5545 30.8508 31.3974 31.0582C31.2402 31.2655 31.0388 31.4352 30.8078 31.5549C30.5768 31.6745 30.322 31.7412 30.062 31.75C29.802 31.7588 29.5433 31.7096 29.3047 31.6058L29.1684 31.5465M30.0003 28.251L29.1684 31.5465M29.1684 31.5465L29.0512 31.6379M29.1684 31.5465L29.0512 31.6379M29.0512 31.6379C26.4718 33.6499 23.3178 34.751 20 34.751C11.8671 34.751 5.25006 28.134 5.25 20.0011L29.0512 31.6379Z" fill="black" stroke="#FAF0CC" stroke-width="0.5"/>
<path d="M16.75 27.25V28.75H15.25V27.25H16.75ZM16.75 13.25V14.75H15.25V13.25H16.75ZM16.75 20.25V21.75H15.25V20.25H16.75Z" fill="black" stroke="#FAF0CC" stroke-width="0.5"/>
<path d="M10.8318 8.45438L10.6956 8.3954C10.35 8.24567 9.96524 8.21146 9.5986 8.29786C9.23196 8.38426 8.90298 8.58666 8.66056 8.87497C8.41814 9.16329 8.27522 9.52212 8.25304 9.89816C8.23086 10.2742 8.3306 10.6473 8.53744 10.9622C8.74429 11.277 9.04719 11.5166 9.40113 11.6455C9.75507 11.7745 10.1412 11.7857 10.502 11.6777C10.8629 11.5696 11.1792 11.348 11.4041 11.0458C11.6289 10.7435 11.7502 10.3768 11.75 10.0002V10C11.75 9.96225 11.7457 9.93141 11.7393 9.88564C11.7362 9.86371 11.7326 9.83836 11.7288 9.80718L11.7119 9.66783L11.822 9.58082C14.1507 7.74145 17.033 6.74378 20.0005 6.75M10.8318 8.45438L20 7M10.8318 8.45438L10.9488 8.36312C13.5282 6.35112 16.6822 5.25 20 5.25C28.1329 5.25 34.7499 11.867 34.75 19.9999L35 20M10.8318 8.45438L34.75 20M20.0005 6.75L20 7M20.0005 6.75C20.0003 6.75 20.0002 6.75 20 6.75V7M20.0005 6.75C21.7924 6.75028 23.25 8.2081 23.25 10C23.25 11.7921 21.7921 13.25 20 13.25H19.25M20 7C21.654 7 23 8.346 23 10C23 11.654 21.654 13 20 13H19.25V13.25M19.25 13.25V14.75M19.25 13.25H19M19 13.25V14.75H19.25M19 13.25L12 10C12.0003 10.4305 11.8616 10.8496 11.6046 11.195C11.3477 11.5404 10.9861 11.7937 10.5737 11.9171C10.1613 12.0406 9.72008 12.0278 9.31558 11.8805C8.91107 11.7331 8.5649 11.4592 8.32851 11.0994C8.09211 10.7396 7.97812 10.3132 8.00347 9.88344C8.02882 9.45368 8.19216 9.04358 8.46921 8.71408C8.74626 8.38458 9.12224 8.15327 9.54126 8.05453C9.96028 7.95578 10.4 7.99488 10.795 8.166C13.418 6.12 16.626 5 20 5C28.271 5 35 11.729 35 20M19 13.25L34.75 20M19.25 14.75V15H20C22.757 15 25 12.757 25 10M19.25 14.75H20C22.6187 14.75 24.7496 12.6193 24.75 10.0007M25 10C24.9995 9.91589 24.9971 9.83236 24.9926 9.7494C24.9172 9.64966 24.8387 9.55197 24.757 9.45649L24.947 9.294L25.1943 9.25754C25.2139 9.39025 25.2283 9.5243 25.2376 9.65965C26.0553 10.7687 26.5002 12.1139 26.5 13.5C26.5 17.084 23.584 20 20 20H19.25V20.25M25 10H24.75C24.75 10.0002 24.75 10.0005 24.75 10.0007M25 10L24.75 10.0014C24.75 10.0012 24.75 10.0009 24.75 10.0007M19.25 20.25H19V21.75H19.25M19.25 20.25V21.75M19.25 20.25H20C23.7221 20.25 26.75 17.2221 26.75 13.5C26.7502 11.8981 26.1782 10.3489 25.137 9.13151L24.5732 8.47226L24.6997 9.33046C24.7319 9.54896 24.7487 9.77233 24.75 10.0007M19.25 21.75V22H20C24.687 22 28.5 18.187 28.5 13.5C28.5 12.986 28.4499 12.4838 28.3591 11.9955C28.244 11.8045 28.122 11.617 27.9933 11.4336L28.198 11.29L28.4393 11.2247C28.4998 11.4482 28.5525 11.6751 28.5965 11.9052C29.5131 13.4418 30.0004 15.2017 30 17M19.25 21.75H20C24.5489 21.75 28.25 18.0489 28.25 13.5C28.25 12.7594 28.1426 12.0423 27.9567 11.3553L28.4027 11.1464C29.6055 12.8614 30.2505 14.9053 30.25 17M30 17C30 22.514 25.514 27 20 27H19.25V27.25M30 17H30.25M30 17H30.25M19.25 27.25H19V28.75H19.25M19.25 27.25V28.75M19.25 27.25H20C25.6521 27.25 30.25 22.6521 30.25 17M19.25 28.75V29H20C26.617 29 32 23.617 32 17C32 16.4714 31.9634 15.9518 31.8952 15.4419C31.7704 15.1201 31.6323 14.8029 31.4811 14.4911L31.706 14.382L31.95 14.3276C32.027 14.6732 32.0905 15.0238 32.139 15.3793C32.7054 16.851 32.9984 18.417 33 20C33 22.1124 32.5092 24.128 31.5416 25.9891L31.6534 25.7742L31.8732 25.8886M19.25 28.75H20C26.4789 28.75 31.75 23.4789 31.75 17C31.75 16.1198 31.6463 15.264 31.462 14.4364L31.9309 14.2729C32.797 16.0579 33.248 18.0157 33.25 19.9997V20C33.25 22.0709 32.7868 24.0519 31.8732 25.8886M31.8732 25.8886C31.8361 25.9631 31.7983 26.0374 31.7598 26.1114L33.0902 26.8036C33.1286 26.7296 33.1663 26.6553 33.2034 26.5807M31.8732 25.8886L33.2034 26.5807M33.2034 26.5807L33.4252 26.6961C34.4595 24.6166 34.999 22.3248 35 20M33.2034 26.5807C34.2192 24.5368 34.749 22.2846 34.75 20M35 20H34.75" fill="black" stroke="#FAF0CC" stroke-width="0.5"/>
</svg>
