<svg width="40" height="40" viewBox="0 0 40 40" fill="none" xmlns="http://www.w3.org/2000/svg">
<rect width="40" height="40" rx="20" fill="#6542E4" fill-opacity="0.3"/>
<path d="M10.8079 29.1927C8.9897 27.3746 7.75148 25.0582 7.24983 22.5363C6.74817 20.0145 7.00562 17.4005 7.9896 15.025C8.97359 12.6495 10.6399 10.6192 12.7779 9.19072C14.9158 7.76227 17.4293 6.99989 20.0006 7M29.1932 10.8073C31.0114 12.6254 32.2496 14.9418 32.7513 17.4637C33.253 19.9855 32.9955 22.5995 32.0115 24.975C31.0275 27.3505 29.3612 29.3808 27.2233 30.8093C25.0853 32.2377 22.5718 33.0001 20.0006 33" stroke="black" stroke-linecap="round" stroke-linejoin="round"/>
<path d="M27.2018 12.0949C28.366 12.0949 29.3097 11.1511 29.3097 9.98691C29.3097 8.82269 28.366 7.87891 27.2018 7.87891C26.0375 7.87891 25.0938 8.82269 25.0938 9.98691C25.0938 11.1511 26.0375 12.0949 27.2018 12.0949Z" stroke="black" stroke-linecap="round" stroke-linejoin="round"/>
<path d="M12.7955 32.1222C13.9597 32.1222 14.9035 31.1785 14.9035 30.0142C14.9035 28.85 13.9597 27.9062 12.7955 27.9062C11.6313 27.9062 10.6875 28.85 10.6875 30.0142C10.6875 31.1785 11.6313 32.1222 12.7955 32.1222Z" stroke="black" stroke-linecap="round" stroke-linejoin="round"/>
<path d="M17.25 17.5326L19.3587 21.7493L26.3853 21.0466L22.1693 12.6133L17.25 17.5326Z" stroke="black" stroke-linecap="round" stroke-linejoin="round"/>
<path d="M17.2485 17.5312L14.4378 18.9366C13.5932 19.3586 13.6645 20.9033 14.0865 21.7479C14.5085 22.5926 15.7018 23.5753 16.5465 23.1533L19.3572 21.7479M18.7358 22.1066L20.4925 25.6199L19.0872 26.3226L17.3305 22.8092" stroke="black" stroke-linecap="round" stroke-linejoin="round"/>
</svg>
