<svg width="24" height="24" viewBox="0 0 24 24" fill="none" xmlns="http://www.w3.org/2000/svg">
<path fill-rule="evenodd" clip-rule="evenodd" d="M10.5 3.99928C8.77609 3.99928 7.12279 4.6841 5.90381 5.90308C4.68482 7.12207 4 8.77537 4 10.4993C4 12.2232 4.68482 13.8765 5.90381 15.0955C7.12279 16.3145 8.77609 16.9993 10.5 16.9993C12.2239 16.9993 13.8772 16.3145 15.0962 15.0955C16.3152 13.8765 17 12.2232 17 10.4993C17 8.77537 16.3152 7.12207 15.0962 5.90308C13.8772 4.6841 12.2239 3.99928 10.5 3.99928ZM2 10.4993C2.00012 9.14387 2.32436 7.80814 2.94569 6.60353C3.56702 5.39893 4.46742 4.36037 5.57175 3.57451C6.67609 2.78866 7.95235 2.27829 9.29404 2.08599C10.6357 1.89368 12.004 2.02503 13.2846 2.46906C14.5652 2.91308 15.7211 3.65692 16.6557 4.63851C17.5904 5.6201 18.2768 6.81098 18.6576 8.11179C19.0384 9.4126 19.1026 10.7856 18.8449 12.1163C18.5872 13.447 18.015 14.6967 17.176 15.7613L20.828 19.4133C21.0102 19.6019 21.111 19.8545 21.1087 20.1167C21.1064 20.3789 21.0012 20.6297 20.8158 20.8151C20.6304 21.0005 20.3796 21.1057 20.1174 21.108C19.8552 21.1102 19.6026 21.0094 19.414 20.8273L15.762 17.1753C14.5086 18.1633 13.0024 18.7784 11.4157 18.9504C9.82905 19.1223 8.22602 18.8441 6.79009 18.1475C5.35417 17.4509 4.14336 16.3642 3.29623 15.0116C2.44911 13.659 1.99989 12.0952 2 10.4993Z" fill="#2E2E2E"/>
<path fill-rule="evenodd" clip-rule="evenodd" d="M9.5 7C9.5 6.73478 9.60536 6.48043 9.79289 6.29289C9.98043 6.10536 10.2348 6 10.5 6C11.6935 6 12.8381 6.47411 13.682 7.31802C14.5259 8.16193 15 9.30653 15 10.5C15 10.7652 14.8946 11.0196 14.7071 11.2071C14.5196 11.3946 14.2652 11.5 14 11.5C13.7348 11.5 13.4804 11.3946 13.2929 11.2071C13.1054 11.0196 13 10.7652 13 10.5C13 9.83696 12.7366 9.20107 12.2678 8.73223C11.7989 8.26339 11.163 8 10.5 8C10.2348 8 9.98043 7.89464 9.79289 7.70711C9.60536 7.51957 9.5 7.26522 9.5 7Z" fill="#2E2E2E"/>
</svg>
