<svg width="40" height="40" viewBox="0 0 40 40" fill="none" xmlns="http://www.w3.org/2000/svg">
<g clip-path="url(#clip0_5424_19187)">
<path d="M23.1859 29.3417H24.9779C25.2799 29.3417 25.5247 29.0968 25.5247 28.7948V25.8638C25.5247 25.5618 25.2799 25.317 24.9779 25.317H23.1859C22.8839 25.317 22.639 25.5618 22.639 25.8638V28.7948C22.639 29.0968 22.8839 29.3417 23.1859 29.3417ZM23.7328 26.4107H24.431V28.2479H23.7328V26.4107ZM23.1859 34.9103H24.9779C25.2799 34.9103 25.5247 34.6655 25.5247 34.3634V31.4325C25.5247 31.1305 25.2799 30.8856 24.9779 30.8856H23.1859C22.8839 30.8856 22.639 31.1305 22.639 31.4325V34.3634C22.639 34.6655 22.8839 34.9103 23.1859 34.9103ZM23.7328 31.9794H24.431V33.8166H23.7328V31.9794ZM9.00849 27.3463H14.2455C15.0454 27.3463 15.6962 26.6956 15.6962 25.8957C15.6962 25.0959 15.0454 24.4451 14.2455 24.4451H9.00849C8.20865 24.4451 7.55787 25.0959 7.55787 25.8957C7.55787 26.6956 8.20865 27.3463 9.00849 27.3463ZM9.00849 25.5388H14.2455C14.439 25.5388 14.6024 25.7023 14.6024 25.8957C14.6024 26.0892 14.439 26.2526 14.2455 26.2526H9.00849C8.81498 26.2526 8.65162 26.0892 8.65162 25.8957C8.65162 25.7023 8.81506 25.5388 9.00849 25.5388ZM21.5069 10.4923C21.7711 10.6449 22.0644 10.7228 22.3616 10.7228C22.5105 10.7228 22.6606 10.7032 22.8083 10.6636C23.2509 10.545 23.6208 10.2613 23.8499 9.86447C24.079 9.46767 24.1398 9.00548 24.0212 8.56298C23.987 8.43533 23.9387 8.31517 23.8793 8.20306L25.9062 6.06337C26.1289 6.16665 26.3738 6.22392 26.6261 6.22392C26.7727 6.22392 26.9215 6.20493 27.0697 6.16533C27.3297 6.09564 27.5636 5.96759 27.7597 5.79439L29.2064 6.62923C29.1546 6.8854 29.1606 7.15181 29.2302 7.41165C29.4354 8.17704 30.1302 8.68306 30.8874 8.68306C31.034 8.68306 31.1828 8.66407 31.3309 8.62447C31.7735 8.50587 32.1433 8.22212 32.3725 7.82533C32.6015 7.42853 32.6624 6.96634 32.5438 6.52376C32.5151 6.41689 32.4766 6.31532 32.4301 6.21923L34.3717 4.31322C34.6143 4.43689 34.8783 4.50048 35.1455 4.50048C35.2945 4.50048 35.4445 4.48087 35.5922 4.44126C36.0348 4.32267 36.4047 4.03892 36.6337 3.64212C36.8628 3.24533 36.9236 2.78314 36.8051 2.34064C36.5602 1.4272 35.618 0.883216 34.7043 1.12783C34.2619 1.24642 33.892 1.53017 33.6629 1.92697C33.4338 2.32368 33.3729 2.78595 33.4915 3.22845C33.52 3.33462 33.5585 3.43626 33.6052 3.53306L31.6632 5.43947C31.2988 5.25415 30.8677 5.1972 30.443 5.31103C30.183 5.38072 29.9491 5.50876 29.7531 5.68197L28.3063 4.84704C28.3581 4.59087 28.3521 4.32454 28.2825 4.0647C28.1638 3.62212 27.8801 3.25228 27.4833 3.02322C27.0866 2.79408 26.6242 2.73322 26.1819 2.85189C25.7393 2.97048 25.3694 3.25431 25.1403 3.65103C24.9112 4.04783 24.8504 4.51001 24.969 4.95259C25.0033 5.08017 25.0522 5.19986 25.1116 5.31189L23.0848 7.45142C22.7328 7.28806 22.324 7.2422 21.9206 7.35025C21.0071 7.59501 20.463 8.53736 20.7078 9.45095C20.8265 9.89345 21.1101 10.2631 21.5069 10.4923ZM34.6102 2.47368C34.6932 2.32993 34.8272 2.22712 34.9876 2.18415C35.0413 2.16978 35.0951 2.1629 35.1483 2.1629C35.4227 2.1629 35.6744 2.34626 35.7487 2.62353C35.7918 2.78392 35.7697 2.95142 35.6867 3.09517C35.6037 3.23892 35.4697 3.34173 35.3093 3.3847C35.149 3.42759 34.9816 3.40572 34.8378 3.32259C34.694 3.23962 34.5912 3.10556 34.5483 2.94525C34.5052 2.78486 34.5272 2.61751 34.6102 2.47368ZM30.3489 6.65689C30.4319 6.51314 30.5658 6.41033 30.7262 6.36736C30.78 6.35298 30.8339 6.34611 30.887 6.34611C31.1614 6.34611 31.4131 6.52947 31.4875 6.80673C31.5305 6.96712 31.5085 7.13454 31.4254 7.27837C31.3424 7.4222 31.2084 7.52493 31.048 7.56798C30.7176 7.65673 30.3756 7.45947 30.2869 7.12853C30.2439 6.96814 30.2658 6.80072 30.3489 6.65689ZM26.0876 4.19775C26.1705 4.054 26.3046 3.95118 26.465 3.90814C26.5186 3.89376 26.5729 3.88673 26.6269 3.88673C26.7345 3.88673 26.8408 3.91493 26.9365 3.97025C27.0803 4.05322 27.1831 4.18728 27.2261 4.34767C27.3148 4.67861 27.1176 5.02009 26.7867 5.10876C26.4554 5.19743 26.1143 5.00033 26.0255 4.66931C25.9825 4.509 26.0045 4.3415 26.0876 4.19775ZM22.2036 8.40658C22.535 8.31798 22.8761 8.51501 22.9648 8.84603C23.0079 9.00634 22.9858 9.17384 22.9028 9.31759C22.8197 9.46134 22.6858 9.56415 22.5254 9.6072C22.365 9.65009 22.1976 9.62822 22.0538 9.54509C21.9101 9.46212 21.8072 9.32814 21.7643 9.16775C21.6755 8.83673 21.8727 8.49525 22.2036 8.40658ZM21.0063 17.8406H23.7228C24.0248 17.8406 24.2697 17.5958 24.2697 17.2938V11.7229C24.2697 11.4209 24.0248 11.176 23.7228 11.176H21.0063C20.7043 11.176 20.4594 11.4209 20.4594 11.7229V17.2938C20.4594 17.5958 20.7043 17.8406 21.0063 17.8406ZM21.5532 12.2698H23.1759V16.7469H21.5532V12.2698ZM26.8502 19.3552C26.1619 21.924 27.6919 24.5739 30.2607 25.2622C30.6772 25.3738 31.0957 25.427 31.5078 25.427C33.6371 25.427 35.591 24.004 36.1676 21.8518C36.5011 20.6074 36.3299 19.3077 35.6858 18.192C35.0417 17.0763 34.0016 16.2782 32.7572 15.9448C31.513 15.6113 30.2132 15.7824 29.0974 16.4266C27.9818 17.0707 27.1837 18.1109 26.8502 19.3552ZM27.9067 19.6383C28.1645 18.6761 28.7815 17.872 29.6443 17.3738C30.5069 16.8758 31.5118 16.7435 32.4742 17.0013C33.4364 17.2591 34.2405 17.8762 34.7386 18.7388C35.2367 19.6015 35.369 20.6065 35.1111 21.5687C34.579 23.5549 32.53 24.7376 30.5437 24.2057C28.5575 23.6735 27.3745 21.6245 27.9067 19.6383ZM39.4406 30.6462L36.9621 26.3534C36.7506 25.9871 36.3701 25.7792 35.9753 25.7684C35.9415 25.6092 35.99 25.4454 36.1154 25.3232C36.9615 24.499 37.5712 23.4571 37.8785 22.3102C38.3782 20.4452 38.0227 18.5489 37.0534 17.0396V6.14353C37.0534 5.8415 36.8086 5.59665 36.5065 5.59665H33.7901C33.488 5.59665 33.2432 5.8415 33.2432 6.14353V14.2417C33.2339 14.2392 33.2247 14.2364 33.2155 14.2339C33.0749 14.1963 32.9336 14.165 32.7921 14.1367V10.1444C32.7921 9.84236 32.5472 9.59751 32.2452 9.59751H29.5287C29.2267 9.59751 28.9819 9.84236 28.9819 10.1444V14.5135C28.8297 14.577 28.6791 14.6452 28.5308 14.7206V7.86759C28.5308 7.56556 28.286 7.32072 27.984 7.32072H25.2675C24.9654 7.32072 24.7206 7.56556 24.7206 7.86759V17.2938C24.7206 17.5958 24.9654 17.8406 25.2675 17.8406H25.5216C25.3666 18.1784 25.2374 18.5306 25.1393 18.8968C24.9957 19.4328 24.9208 19.9763 24.9128 20.517L21.0406 18.2815C20.8715 18.1839 20.6631 18.1838 20.4937 18.2815L17.965 19.7415L17.6148 14.389C17.8783 14.1999 18.0508 13.8917 18.0508 13.5433V11.882C18.0508 11.3078 17.5837 10.8406 17.0095 10.8406H16.3093V10.1983C16.3093 9.7979 16.6351 9.47212 17.0355 9.47212H17.4268C18.8454 9.47212 19.9997 8.3179 19.9997 6.89915C19.9997 5.4804 18.8455 4.32618 17.4268 4.32618H16.9267C16.9492 4.19103 16.9607 4.05392 16.9607 3.91634C16.9607 2.06658 15.324 1.07884 13.8033 0.943841C12.45 0.823372 10.8874 1.37228 10.2526 2.80658C9.22037 2.30134 8.17045 2.54767 7.49584 3.10322C6.86732 3.62079 6.43928 4.50954 6.6492 5.50814H5.88951C4.7967 5.50814 3.90764 6.39728 3.90764 7.49009C3.90764 8.5829 4.7967 9.47212 5.88951 9.47212H11.5637C11.9641 9.47212 12.2899 9.79782 12.2899 10.1983V10.8406H11.5897C11.0155 10.8406 10.5484 11.3077 10.5484 11.882V13.5433C10.5484 13.8917 10.721 14.1999 10.9844 14.389L10.5044 21.7264H8.38584C8.30232 21.7264 8.21982 21.7456 8.14482 21.7824L2.24576 24.6787C2.05857 24.7706 1.9399 24.961 1.9399 25.1695V36.0485H0.858887C0.556855 36.0485 0.312012 36.2934 0.312012 36.5954V38.5257C0.312012 38.8277 0.556855 39.0726 0.858887 39.0726H36.02C36.322 39.0726 36.5669 38.8277 36.5669 38.5257V36.5954C36.5669 36.2934 36.322 36.0485 36.02 36.0485H34.939V30.24L36.2402 32.4939C36.4862 32.9201 36.8848 33.2253 37.3625 33.3533C37.5226 33.3962 37.6848 33.4174 37.8459 33.4174C38.1657 33.4174 38.4808 33.3338 38.7641 33.1702C39.6464 32.6608 39.9499 31.5285 39.4406 30.6462ZM34.3371 6.69033H35.9598V15.7395C35.4838 15.3025 34.9394 14.9316 34.3371 14.646V6.69033ZM30.0758 10.6912H31.6985V14.011C31.1519 13.9942 30.6076 14.0456 30.0758 14.1647V10.6912ZM32.9326 15.2903C35.8622 16.0753 37.607 19.0974 36.822 22.0271C36.5657 22.9839 36.0574 23.8527 35.3522 24.5399C34.9147 24.9663 34.7694 25.5953 34.9511 26.1584L34.5986 26.3619C34.2018 25.9231 33.5844 25.7343 32.9962 25.9C32.0486 26.1672 31.042 26.1729 30.0853 25.9166C28.6661 25.5363 27.4799 24.6261 26.7454 23.3537C26.0108 22.0813 25.8156 20.5989 26.1959 19.1798C26.5761 17.7606 27.4863 16.5745 28.7587 15.8399C30.0312 15.1052 31.5136 14.9101 32.9326 15.2903ZM25.8145 16.7468V8.41439H27.4372V15.416C26.9465 15.7995 26.5176 16.2474 26.158 16.7467L25.8145 16.7468ZM20.7673 19.3865L25.0311 21.8482C25.1686 22.5609 25.4246 23.2535 25.7982 23.9007C26.0915 24.4088 26.446 24.8673 26.8497 25.2716V36.0485H21.3143V25.265C21.3143 25.0565 21.1956 24.866 21.0084 24.7742L15.8352 22.2342L20.7673 19.3865ZM11.5638 8.37829H5.88959C5.39982 8.37829 5.00146 7.97978 5.00146 7.49001C5.00146 7.00025 5.3999 6.60181 5.88959 6.60181H8.47584C8.77787 6.60181 9.02271 6.35697 9.02271 6.05493C9.02271 5.7529 8.77787 5.50806 8.47584 5.50806H7.78592C7.53576 4.81704 7.82724 4.24712 8.19115 3.94743C8.62639 3.589 9.41607 3.40853 10.2087 4.07884C10.3579 4.20501 10.5633 4.24197 10.7472 4.17572C10.9312 4.10939 11.0657 3.95001 11.1002 3.75759C11.3383 2.42767 12.5812 1.93322 13.7067 2.03322C14.7472 2.12564 15.867 2.75423 15.867 3.91634C15.867 4.15712 15.8047 4.39548 15.687 4.60587C15.5922 4.77525 15.5942 4.98212 15.6923 5.14954C15.7905 5.31697 15.9701 5.41986 16.1641 5.41986H17.4269C18.2425 5.41986 18.9061 6.08345 18.9061 6.89908C18.9061 7.7147 18.2426 8.37829 17.4269 8.37829H17.0356C16.032 8.37829 15.2156 9.1947 15.2156 10.1982V10.8406H13.3837V10.1982C13.3837 9.1947 12.5673 8.37829 11.5638 8.37829ZM11.6422 11.9343H16.9572V13.4908H11.6422V11.9343ZM12.0679 14.5845H16.5316L16.9089 20.3513L14.5272 21.7263H11.6007L12.0679 14.5845ZM3.03381 25.5102L8.51303 22.82H14.5469L20.2204 25.6056V36.0484H15.7004V30.01C15.7004 28.9859 14.8672 28.1526 13.8431 28.1526H9.41115C8.38701 28.1526 7.55381 28.9859 7.55381 30.01V36.0484H3.03389L3.03381 25.5102ZM8.64748 36.0484V30.0101C8.64748 29.589 8.99006 29.2464 9.41107 29.2464H11.0801V36.0484L8.64748 36.0484ZM12.174 29.2465H13.843C14.2641 29.2465 14.6066 29.5891 14.6066 30.0102V36.0485H12.1739L12.174 29.2465ZM35.4733 37.9788H1.40584V37.1423H35.4732L35.4733 37.9788ZM33.8454 36.0485H27.9434V26.1528C28.5097 26.5157 29.134 26.7942 29.8022 26.9732C30.9491 27.2806 32.1561 27.2734 33.293 26.9529C33.4615 26.9053 33.6276 26.945 33.7486 27.054C33.5607 27.4013 33.5505 27.8348 33.762 28.2011L33.8454 28.3456V36.0485ZM38.2174 32.223C38.0442 32.3231 37.8415 32.3493 37.6458 32.2968C37.4503 32.2445 37.2876 32.1202 37.1877 31.947C37.0878 31.7738 34.7092 27.6542 34.7092 27.6542C34.6873 27.6163 34.7009 27.5659 34.7387 27.544L35.9047 26.8708C35.917 26.8637 35.9307 26.8603 35.9443 26.8603C35.9724 26.8603 36.0002 26.8748 36.0149 26.9003L38.4934 31.1931C38.7012 31.5531 38.5774 32.0151 38.2174 32.223Z" fill="black"/>
</g>
<defs>
<clipPath id="clip0_5424_19187">
<rect width="40" height="40" fill="white"/>
</clipPath>
</defs>
</svg>
