<svg width="40" height="40" viewBox="0 0 40 40" fill="none" xmlns="http://www.w3.org/2000/svg">
<g clip-path="url(#clip0_5424_19248)">
<path d="M33.125 27.5H36.875V28.75H33.125V27.5Z" fill="black"/>
<path d="M33.125 30H36.875V31.25H33.125V30Z" fill="black"/>
<path d="M33.125 32.5H36.875V33.75H33.125V32.5Z" fill="black"/>
<path d="M3.125 27.5H6.875V28.75H3.125V27.5Z" fill="black"/>
<path d="M3.125 30H6.875V31.25H3.125V30Z" fill="black"/>
<path d="M3.125 32.5H6.875V33.75H3.125V32.5Z" fill="black"/>
<path d="M35 5.625H32.5V3.125H28.75V4.375H26.25V8.125H25V9.375H36.25V8.125H35V5.625ZM33.75 6.875V8.125H32.5V6.875H33.75ZM31.25 4.375V5.625V8.125H30V4.375H31.25ZM27.5 5.625H28.75V8.125H27.5V5.625Z" fill="black"/>
<path d="M25 10.625H27.5V11.875H25V10.625Z" fill="black"/>
<path d="M28.75 10.625H36.25V11.875H28.75V10.625Z" fill="black"/>
<path d="M25 13.125H36.25V14.375H25V13.125Z" fill="black"/>
<path d="M8.125 3.125H9.375V4.375H8.125V3.125Z" fill="black"/>
<path d="M3.125 3.125H4.375V4.375H3.125V3.125Z" fill="black"/>
<path d="M5.625 3.125H6.875V4.375H5.625V3.125Z" fill="black"/>
<path d="M6.875 8.125H3.125V11.875H6.875V8.125ZM5.625 10.625H4.375V9.375H5.625V10.625Z" fill="black"/>
<path d="M8.125 8.125H15.625V9.375H8.125V8.125Z" fill="black"/>
<path d="M8.125 10.625H15.625V11.875H8.125V10.625Z" fill="black"/>
<path d="M3.125 13.125H4.375V14.375H3.125V13.125Z" fill="black"/>
<path d="M5.625 13.125H15.625V14.375H5.625V13.125Z" fill="black"/>
<path d="M31.25 20.625V16.875H37.5C38.5337 16.875 39.375 16.0337 39.375 15V2.5C39.375 1.46625 38.5337 0.625 37.5 0.625H23.75C22.7162 0.625 21.875 1.46625 21.875 2.5V15C21.875 16.0337 22.7162 16.875 23.75 16.875H30V19.375H23.125V22.0756C22.1838 21.9462 21.1375 21.875 20 21.875C18.8625 21.875 17.8162 21.9462 16.875 22.0756V19.375H10V16.875H16.25C17.2838 16.875 18.125 16.0337 18.125 15V2.5C18.125 1.46625 17.2838 0.625 16.25 0.625H2.5C1.46625 0.625 0.625 1.46625 0.625 2.5V15C0.625 16.0337 1.46625 16.875 2.5 16.875H8.75V20.625H15.625V22.2975C13.2863 22.8144 11.875 23.7738 11.875 25V30H9.375V26.875C9.375 25.8412 8.53375 25 7.5 25H2.5C1.46625 25 0.625 25.8412 0.625 26.875V34.375C0.625 35.4087 1.46625 36.25 2.5 36.25H7.5C8.53375 36.25 9.375 35.4087 9.375 34.375V31.25H11.875V36.25C11.875 38.1194 15.14 39.375 20 39.375C24.86 39.375 28.125 38.1194 28.125 36.25V31.25H30.625V34.375C30.625 35.4087 31.4662 36.25 32.5 36.25H37.5C38.5337 36.25 39.375 35.4087 39.375 34.375V26.875C39.375 25.8412 38.5337 25 37.5 25H32.5C31.4662 25 30.625 25.8412 30.625 26.875V30H28.125V25C28.125 23.7738 26.7138 22.8144 24.375 22.2975V20.625H31.25ZM23.125 15V2.5C23.125 2.15562 23.4056 1.875 23.75 1.875H37.5C37.8444 1.875 38.125 2.15562 38.125 2.5V15C38.125 15.3444 37.8444 15.625 37.5 15.625H23.75C23.4056 15.625 23.125 15.3444 23.125 15ZM2.5 1.875H16.25C16.5944 1.875 16.875 2.15562 16.875 2.5V5.625H1.875V2.5C1.875 2.15562 2.15562 1.875 2.5 1.875ZM1.875 15V6.875H16.875V15C16.875 15.3444 16.5944 15.625 16.25 15.625H2.5C2.15562 15.625 1.875 15.3444 1.875 15ZM8.125 34.375C8.125 34.7194 7.84438 35 7.5 35H2.5C2.15562 35 1.875 34.7194 1.875 34.375V26.875C1.875 26.5306 2.15562 26.25 2.5 26.25H7.5C7.84438 26.25 8.125 26.5306 8.125 26.875V34.375ZM31.875 26.875C31.875 26.5306 32.1556 26.25 32.5 26.25H37.5C37.8444 26.25 38.125 26.5306 38.125 26.875V34.375C38.125 34.7194 37.8444 35 37.5 35H32.5C32.1556 35 31.875 34.7194 31.875 34.375V26.875ZM20 38.125C15.2013 38.125 13.125 36.8831 13.125 36.25V34.2837C14.5013 35.1237 16.9312 35.625 20 35.625C23.0688 35.625 25.4988 35.1237 26.875 34.2837V36.25C26.875 36.8831 24.7987 38.125 20 38.125ZM20 34.375C15.2013 34.375 13.125 33.1331 13.125 32.5V30.5338C14.5013 31.3738 16.9312 31.875 20 31.875C23.0688 31.875 25.4988 31.3738 26.875 30.5338V32.5C26.875 33.1331 24.7987 34.375 20 34.375ZM20 30.625C15.2013 30.625 13.125 29.3831 13.125 28.75V26.7838C14.5013 27.6238 16.9312 28.125 20 28.125C23.0688 28.125 25.4988 27.6238 26.875 26.7838V28.75C26.875 29.3831 24.7987 30.625 20 30.625ZM26.875 25C26.875 25.6331 24.7987 26.875 20 26.875C15.2013 26.875 13.125 25.6331 13.125 25C13.125 24.6112 13.9113 23.9944 15.625 23.575V25H16.875V23.3331C17.75 23.2044 18.7875 23.125 20 23.125C21.2125 23.125 22.25 23.2044 23.125 23.3331V25H24.375V23.575C26.0888 23.9944 26.875 24.6112 26.875 25Z" fill="black"/>
</g>
<defs>
<clipPath id="clip0_5424_19248">
<rect width="40" height="40" fill="white"/>
</clipPath>
</defs>
</svg>
