<svg width="67" height="62" viewBox="0 0 67 62" fill="none" xmlns="http://www.w3.org/2000/svg">
<path d="M60.4836 0H6.51644C2.91751 0 0 2.69978 0 6.03014V55.9699C0 59.3002 2.91751 62 6.51644 62H60.4836C64.0825 62 67 59.3002 67 55.9699V6.03014C67 2.69978 64.0825 0 60.4836 0Z" fill="#F4F4F4"/>
<path d="M44.7278 16.7212C44.7278 19.197 42.5589 21.204 39.8835 21.204C37.208 21.204 35.0391 19.197 35.0391 16.7212C35.0391 14.2453 37.208 12.2383 39.8835 12.2383C42.5589 12.2383 44.7278 14.2453 44.7278 16.7212Z" fill="#C49AFF" fill-opacity="0.6"/>
<g clip-path="url(#clip0_491_23194)">
<path d="M47.0277 22.356L38.5123 14.4761C38.3126 14.2914 38.0419 14.1876 37.7596 14.1875H22.8574C21.0966 14.1875 19.6641 15.5131 19.6641 17.1425V44.854C19.6641 46.4834 21.0966 47.809 22.8574 47.809H44.1462C45.907 47.809 47.3396 46.4834 47.3396 44.854V23.0526C47.3396 22.784 47.2177 22.5317 47.0277 22.356ZM38.824 17.5505L43.7053 22.0675H39.8885C39.3015 22.0675 38.824 21.6257 38.824 21.0825V17.5505ZM44.1462 45.839H22.8574C22.2705 45.839 21.7929 45.3972 21.7929 44.854V17.1425C21.7929 16.5994 22.2705 16.1575 22.8574 16.1575H36.6951V21.0825C36.6951 22.7119 38.1277 24.0376 39.8885 24.0376H45.2107V44.854C45.2107 45.3972 44.7332 45.839 44.1462 45.839Z" fill="#2E2E2E"/>
<path d="M39.8846 28.1094H27.1113C26.5235 28.1094 26.0469 28.5504 26.0469 29.0944C26.0469 29.6384 26.5235 30.0794 27.1113 30.0794H39.8846C40.4725 30.0794 40.9491 29.6384 40.9491 29.0944C40.9491 28.5504 40.4725 28.1094 39.8846 28.1094ZM39.8846 32.0494H27.1113C26.5235 32.0494 26.0469 32.4904 26.0469 33.0344C26.0469 33.5784 26.5235 34.0194 27.1113 34.0194H39.8846C40.4725 34.0194 40.9491 33.5784 40.9491 33.0344C40.9491 32.4904 40.4725 32.0494 39.8846 32.0494ZM39.8846 35.9894H27.1113C26.5235 35.9894 26.0469 36.4304 26.0469 36.9744C26.0469 37.5184 26.5235 37.9594 27.1113 37.9594H39.8846C40.4725 37.9594 40.9491 37.5184 40.9491 36.9744C40.9491 36.4304 40.4725 35.9894 39.8846 35.9894ZM35.6269 39.9294H27.1113C26.5235 39.9294 26.0469 40.3705 26.0469 40.9145C26.0469 41.4584 26.5235 41.8995 27.1113 41.8995H35.6269C36.2147 41.8995 36.6913 41.4584 36.6913 40.9145C36.6913 40.3705 36.2147 39.9294 35.6269 39.9294Z" fill="#2E2E2E"/>
</g>
<defs>
<clipPath id="clip0_491_23194">
<rect width="36.333" height="33.6215" fill="white" transform="translate(15.3359 14.1875)"/>
</clipPath>
</defs>
</svg>
