<svg width="56" height="56" viewBox="0 0 56 56" fill="none" xmlns="http://www.w3.org/2000/svg">
<path d="M50.0075 0.0800781H5.44701C2.47538 0.0800781 0.0664062 2.48905 0.0664062 5.46068V50.0212C0.0664062 52.9928 2.47538 55.4018 5.44701 55.4018H50.0075C52.9791 55.4018 55.3881 52.9928 55.3881 50.0212V5.46068C55.3881 2.48905 52.9791 0.0800781 50.0075 0.0800781Z" fill="#042440" fill-opacity="0.1"/>
<g clip-path="url(#clip0_1072_6669)">
<path d="M38.8948 20.0288L31.8638 12.9978C31.6988 12.833 31.4753 12.7404 31.2422 12.7402H18.9375C17.4836 12.7402 16.3008 13.9231 16.3008 15.377V40.1035C16.3008 41.5574 17.4836 42.7402 18.9375 42.7402H36.5156C37.9695 42.7402 39.1523 41.5574 39.1523 40.1035V20.6504C39.1523 20.4107 39.0517 20.1857 38.8948 20.0288ZM32.1211 15.741L36.1516 19.7715H33C32.5154 19.7715 32.1211 19.3772 32.1211 18.8926V15.741ZM36.5156 40.9824H18.9375C18.4529 40.9824 18.0586 40.5881 18.0586 40.1035V15.377C18.0586 14.8923 18.4529 14.498 18.9375 14.498H30.3633V18.8926C30.3633 20.3465 31.5461 21.5293 33 21.5293H37.3945V40.1035C37.3945 40.5881 37.0003 40.9824 36.5156 40.9824Z" fill="#042440"/>
<path d="M33 25.1621H22.4531C21.9677 25.1621 21.5742 25.5556 21.5742 26.041C21.5742 26.5264 21.9677 26.9199 22.4531 26.9199H33C33.4854 26.9199 33.8789 26.5264 33.8789 26.041C33.8789 25.5556 33.4854 25.1621 33 25.1621ZM33 28.6777H22.4531C21.9677 28.6777 21.5742 29.0712 21.5742 29.5566C21.5742 30.042 21.9677 30.4355 22.4531 30.4355H33C33.4854 30.4355 33.8789 30.042 33.8789 29.5566C33.8789 29.0712 33.4854 28.6777 33 28.6777ZM33 32.1934H22.4531C21.9677 32.1934 21.5742 32.5869 21.5742 33.0723C21.5742 33.5577 21.9677 33.9512 22.4531 33.9512H33C33.4854 33.9512 33.8789 33.5577 33.8789 33.0723C33.8789 32.5869 33.4854 32.1934 33 32.1934ZM29.4844 35.709H22.4531C21.9677 35.709 21.5742 36.1025 21.5742 36.5879C21.5742 37.0733 21.9677 37.4668 22.4531 37.4668H29.4844C29.9698 37.4668 30.3633 37.0733 30.3633 36.5879C30.3633 36.1025 29.9698 35.709 29.4844 35.709Z" fill="#042440"/>
</g>
<defs>
<clipPath id="clip0_1072_6669">
<rect width="30" height="30" fill="white" transform="translate(12.7266 12.7402)"/>
</clipPath>
</defs>
</svg>
