<svg width="68" height="63" viewBox="0 0 68 63" fill="none" xmlns="http://www.w3.org/2000/svg">
<g clip-path="url(#clip0_491_23202)">
<path d="M58.5428 3.14062H9.29781C6.01379 3.14062 3.35156 5.60418 3.35156 8.64312V54.2131C3.35156 57.2521 6.01379 59.7156 9.29781 59.7156H58.5428C61.8268 59.7156 64.4891 57.2521 64.4891 54.2131V8.64312C64.4891 5.60418 61.8268 3.14062 58.5428 3.14062Z" fill="url(#paint0_linear_491_23202)"/>
<path d="M54.0208 41.3887H51.9914V22.5243C51.9914 21.4143 51.0889 20.5117 49.9789 20.5117H23.0249C21.9149 20.5117 21.0123 21.4143 21.0123 22.5243V41.3887H18.983C18.7531 41.3887 18.5625 41.5737 18.5625 41.8091V44.2366C18.5625 45.4755 19.5772 46.4902 20.8273 46.4902H52.1764C53.4266 46.4902 54.4413 45.4755 54.4413 44.2366V41.8091C54.4413 41.5737 54.2507 41.3887 54.0208 41.3887ZM23.5631 23.0625H49.4407V39.6788H23.5631V23.0625ZM53.6004 44.2366C53.6004 45.0158 52.9613 45.6493 52.1764 45.6493H20.8273C20.0425 45.6493 19.4034 45.0158 19.4034 44.2366V42.2296H30.6828L31.6975 43.8441C31.776 43.9675 31.9105 44.0404 32.0563 44.0404H40.9475C41.0933 44.0404 41.2278 43.9675 41.3063 43.8441L42.3266 42.2296H53.6004V44.2366Z" fill="#2E2E2E"/>
<path d="M41.543 24.332H30.7177C29.6302 24.332 28.75 25.2122 28.75 26.2942V32.6626C28.75 33.7446 29.6302 34.6304 30.7177 34.6304H41.543C42.625 34.6304 43.5108 33.7446 43.5108 32.6626V26.2942C43.5108 25.2122 42.625 24.332 41.543 24.332ZM38.5214 29.8148L35.0792 32.4272C35.0159 32.4731 34.9416 32.5014 34.8638 32.5093C34.7861 32.5172 34.7076 32.5043 34.6364 32.472C34.5654 32.4369 34.5057 32.3825 34.4641 32.3151C34.4224 32.2477 34.4006 32.17 34.4009 32.0908V26.866C34.4009 26.7034 34.4906 26.5576 34.6364 26.4904C34.7765 26.4175 34.9503 26.4343 35.0792 26.5296L38.5214 29.142C38.6279 29.2261 38.6895 29.3495 38.6895 29.4784C38.6895 29.6129 38.6279 29.7363 38.5214 29.8148Z" fill="#2E2E2E"/>
<path d="M37.5695 29.4729L35.2373 31.2388V27.707L37.5695 29.4729ZM45.9505 37.2598C45.9505 37.4896 45.7599 37.6802 45.5301 37.6802H32.4343V37.9885C32.4343 38.224 32.2493 38.409 32.0138 38.409H29.592C29.3622 38.409 29.1716 38.224 29.1716 37.9885V37.6802H27.4673C27.3558 37.6802 27.2489 37.6359 27.17 37.5571C27.0912 37.4782 27.0469 37.3713 27.0469 37.2598C27.0469 37.1482 27.0912 37.0413 27.17 36.9625C27.2489 36.8836 27.3558 36.8393 27.4673 36.8393H29.1716V36.4973C29.1716 36.2675 29.3622 36.0769 29.592 36.0769H32.0138C32.2493 36.0769 32.4343 36.2675 32.4343 36.4973V36.8393H45.5301C45.7599 36.8393 45.9505 37.0243 45.9505 37.2598Z" fill="#2E2E2E"/>
<path d="M60.4836 0H6.51644C2.91751 0 0 2.69978 0 6.03014V55.9699C0 59.3002 2.91751 62 6.51644 62H60.4836C64.0825 62 67 59.3002 67 55.9699V6.03014C67 2.69978 64.0825 0 60.4836 0Z" fill="#F4F4F4"/>
<path d="M50.6888 44.4829C50.6888 46.9587 48.5199 48.9657 45.8444 48.9657C43.1689 48.9657 41 46.9587 41 44.4829C41 42.007 43.1689 40 45.8444 40C48.5199 40 50.6888 42.007 50.6888 44.4829Z" fill="#C49AFF" fill-opacity="0.6"/>
<path d="M51.0208 38.3887H48.9914V19.5243C48.9914 18.4143 48.0889 17.5117 46.9789 17.5117H20.0249C18.9149 17.5117 18.0123 18.4143 18.0123 19.5243V38.3887H15.983C15.7531 38.3887 15.5625 38.5737 15.5625 38.8091V41.2366C15.5625 42.4755 16.5772 43.4902 17.8273 43.4902H49.1764C50.4266 43.4902 51.4413 42.4755 51.4413 41.2366V38.8091C51.4413 38.5737 51.2507 38.3887 51.0208 38.3887ZM20.5631 20.0625H46.4407V36.6788H20.5631V20.0625ZM50.6004 41.2366C50.6004 42.0158 49.9613 42.6493 49.1764 42.6493H17.8273C17.0425 42.6493 16.4034 42.0158 16.4034 41.2366V39.2296H27.6828L28.6975 40.8441C28.776 40.9675 28.9105 41.0404 29.0563 41.0404H37.9475C38.0933 41.0404 38.2278 40.9675 38.3063 40.8441L39.3266 39.2296H50.6004V41.2366Z" fill="#2E2E2E"/>
<path d="M38.543 21.332H27.7177C26.6302 21.332 25.75 22.2122 25.75 23.2942V29.6626C25.75 30.7446 26.6302 31.6304 27.7177 31.6304H38.543C39.625 31.6304 40.5108 30.7446 40.5108 29.6626V23.2942C40.5108 22.2122 39.625 21.332 38.543 21.332ZM35.5214 26.8148L32.0792 29.4272C32.0159 29.4731 31.9416 29.5014 31.8638 29.5093C31.7861 29.5172 31.7076 29.5043 31.6364 29.472C31.5654 29.4369 31.5057 29.3825 31.4641 29.3151C31.4224 29.2477 31.4006 29.17 31.4009 29.0908V23.866C31.4009 23.7034 31.4906 23.5576 31.6364 23.4904C31.7765 23.4175 31.9503 23.4343 32.0792 23.5296L35.5214 26.142C35.6279 26.2261 35.6895 26.3495 35.6895 26.4784C35.6895 26.6129 35.6279 26.7363 35.5214 26.8148Z" fill="#2E2E2E"/>
<path d="M34.5695 26.4729L32.2373 28.2388V24.707L34.5695 26.4729ZM42.9505 34.2598C42.9505 34.4896 42.7599 34.6802 42.5301 34.6802H29.4343V34.9885C29.4343 35.224 29.2493 35.409 29.0138 35.409H26.592C26.3622 35.409 26.1716 35.224 26.1716 34.9885V34.6802H24.4673C24.3558 34.6802 24.2489 34.6359 24.17 34.5571C24.0912 34.4782 24.0469 34.3713 24.0469 34.2598C24.0469 34.1482 24.0912 34.0413 24.17 33.9625C24.2489 33.8836 24.3558 33.8393 24.4673 33.8393H26.1716V33.4973C26.1716 33.2675 26.3622 33.0769 26.592 33.0769H29.0138C29.2493 33.0769 29.4343 33.2675 29.4343 33.4973V33.8393H42.5301C42.7599 33.8393 42.9505 34.0243 42.9505 34.2598Z" fill="#2E2E2E"/>
</g>
<defs>
<linearGradient id="paint0_linear_491_23202" x1="0.103632" y1="31.4281" x2="77.0987" y2="31.4281" gradientUnits="userSpaceOnUse">
<stop stop-color="#B56AFF"/>
<stop offset="0.415" stop-color="#B56AFF"/>
<stop offset="1" stop-color="#FFE1B4"/>
</linearGradient>
<clipPath id="clip0_491_23202">
<rect width="67" height="62" fill="white" transform="translate(0.421875 0.429688)"/>
</clipPath>
</defs>
</svg>
