<svg width="62" height="62" viewBox="0 0 62 62" fill="none" xmlns="http://www.w3.org/2000/svg">
<path d="M53.0114 3.08008H8.45091C5.47929 3.08008 3.07031 5.48905 3.07031 8.46068V53.0212C3.07031 55.9928 5.47929 58.4018 8.45091 58.4018H53.0114C55.983 58.4018 58.392 55.9928 58.392 53.0212V8.46068C58.392 5.48905 55.983 3.08008 53.0114 3.08008Z" fill="#2E2E2E"/>
<g clip-path="url(#clip0_1072_6676)">
<path d="M45.8854 37.5636H44.1303V21.2484C44.1303 20.2884 43.3497 19.5078 42.3897 19.5078H19.0781C18.1181 19.5078 17.3375 20.2884 17.3375 21.2484V37.5636H15.5824C15.3836 37.5636 15.2188 37.7236 15.2188 37.9272V40.0266C15.2188 41.0981 16.0963 41.9757 17.1775 41.9757H44.2903C45.3715 41.9757 46.2491 41.0981 46.2491 40.0266V37.9272C46.2491 37.7236 46.0842 37.5636 45.8854 37.5636ZM19.5436 21.7139H41.9242V36.0848H19.5436V21.7139ZM45.5218 40.0266C45.5218 40.7005 44.9691 41.2484 44.2903 41.2484H17.1775C16.4988 41.2484 15.946 40.7005 15.946 40.0266V38.2908H25.7012L26.5788 39.6872C26.6466 39.7939 26.763 39.8569 26.8891 39.8569H34.5788C34.7048 39.8569 34.8212 39.7939 34.8891 39.6872L35.7715 38.2908H45.5218V40.0266Z" fill="white"/>
<path d="M35.0955 22.8105H25.7331C24.7925 22.8105 24.0312 23.5718 24.0312 24.5075V30.0154C24.0312 30.9512 24.7925 31.7172 25.7331 31.7172H35.0955C36.0313 31.7172 36.7973 30.9512 36.7973 30.0154V24.5075C36.7973 23.5718 36.0313 22.8105 35.0955 22.8105ZM32.4822 27.5524L29.5052 29.8118C29.4504 29.8515 29.3862 29.876 29.3189 29.8828C29.2516 29.8896 29.1837 29.8785 29.1222 29.8505C29.0608 29.8202 29.0091 29.7731 28.9731 29.7149C28.9371 29.6566 28.9182 29.5894 28.9185 29.5209V25.0021C28.9185 24.8615 28.9961 24.7354 29.1222 24.6772C29.2434 24.6142 29.3937 24.6287 29.5052 24.7112L32.4822 26.9705C32.5743 27.0433 32.6276 27.1499 32.6276 27.2615C32.6276 27.3778 32.5743 27.4845 32.4822 27.5524Z" fill="white"/>
<path d="M31.6592 27.2597L29.6422 28.787V25.7324L31.6592 27.2597ZM38.9077 33.9942C38.9077 34.193 38.7428 34.3579 38.5441 34.3579H27.218V34.6245C27.218 34.8282 27.058 34.9882 26.8544 34.9882H24.7598C24.561 34.9882 24.3962 34.8282 24.3962 34.6245V34.3579H22.9222C22.8258 34.3579 22.7333 34.3196 22.6651 34.2514C22.5969 34.1832 22.5586 34.0907 22.5586 33.9942C22.5586 33.8978 22.5969 33.8053 22.6651 33.7371C22.7333 33.6689 22.8258 33.6306 22.9222 33.6306H24.3962V33.3348C24.3962 33.1361 24.561 32.9712 24.7598 32.9712H26.8544C27.058 32.9712 27.218 33.1361 27.218 33.3348V33.6306H38.5441C38.7428 33.6306 38.9077 33.7906 38.9077 33.9942Z" fill="white"/>
</g>
<defs>
<clipPath id="clip0_1072_6676">
<rect width="32" height="32" fill="white" transform="translate(14.7344 14.7422)"/>
</clipPath>
</defs>
</svg>
