<svg width="62" height="62" viewBox="0 0 62 62" fill="none" xmlns="http://www.w3.org/2000/svg">
<path d="M53.0114 3.08008H8.45091C5.47929 3.08008 3.07031 5.48905 3.07031 8.46068V53.0212C3.07031 55.9928 5.47929 58.4018 8.45091 58.4018H53.0114C55.983 58.4018 58.392 55.9928 58.392 53.0212V8.46068C58.392 5.48905 55.983 3.08008 53.0114 3.08008Z" fill="#042440" fill-opacity="0.1"/>
<g clip-path="url(#clip0_1072_6676)">
<path d="M45.8835 37.5636H44.1283V21.2484C44.1283 20.2884 43.3477 19.5078 42.3877 19.5078H19.0762C18.1162 19.5078 17.3356 20.2884 17.3356 21.2484V37.5636H15.5804C15.3816 37.5636 15.2168 37.7236 15.2168 37.9272V40.0266C15.2168 41.0981 16.0944 41.9757 17.1756 41.9757H44.2883C45.3695 41.9757 46.2471 41.0981 46.2471 40.0266V37.9272C46.2471 37.7236 46.0823 37.5636 45.8835 37.5636ZM19.5416 21.7139H41.9223V36.0848H19.5416V21.7139ZM45.5198 40.0266C45.5198 40.7005 44.9671 41.2484 44.2883 41.2484H17.1756C16.4968 41.2484 15.9441 40.7005 15.9441 40.0266V38.2908H25.6992L26.5768 39.6872C26.6447 39.7939 26.761 39.8569 26.8871 39.8569H34.5768C34.7029 39.8569 34.8192 39.7939 34.8871 39.6872L35.7695 38.2908H45.5198V40.0266Z" fill="#042440"/>
<path d="M35.0916 22.8105H25.7292C24.7886 22.8105 24.0273 23.5718 24.0273 24.5075V30.0154C24.0273 30.9512 24.7886 31.7172 25.7292 31.7172H35.0916C36.0273 31.7172 36.7934 30.9512 36.7934 30.0154V24.5075C36.7934 23.5718 36.0273 22.8105 35.0916 22.8105ZM32.4783 27.5524L29.5013 29.8118C29.4465 29.8515 29.3823 29.876 29.315 29.8828C29.2477 29.8896 29.1798 29.8785 29.1183 29.8505C29.0569 29.8202 29.0052 29.7731 28.9692 29.7149C28.9332 29.6566 28.9143 29.5894 28.9146 29.5209V25.0021C28.9146 24.8615 28.9922 24.7354 29.1183 24.6772C29.2395 24.6142 29.3898 24.6287 29.5013 24.7112L32.4783 26.9705C32.5704 27.0433 32.6237 27.1499 32.6237 27.2615C32.6237 27.3778 32.5704 27.4845 32.4783 27.5524Z" fill="#042440"/>
<path d="M31.6572 27.2597L29.6403 28.787V25.7324L31.6572 27.2597ZM38.9057 33.9942C38.9057 34.193 38.7409 34.3579 38.5421 34.3579H27.216V34.6245C27.216 34.8282 27.056 34.9882 26.8524 34.9882H24.7579C24.5591 34.9882 24.3942 34.8282 24.3942 34.6245V34.3579H22.9203C22.8238 34.3579 22.7313 34.3196 22.6631 34.2514C22.595 34.1832 22.5566 34.0907 22.5566 33.9942C22.5566 33.8978 22.595 33.8053 22.6631 33.7371C22.7313 33.6689 22.8238 33.6306 22.9203 33.6306H24.3942V33.3348C24.3942 33.1361 24.5591 32.9712 24.7579 32.9712H26.8524C27.056 32.9712 27.216 33.1361 27.216 33.3348V33.6306H38.5421C38.7409 33.6306 38.9057 33.7906 38.9057 33.9942Z" fill="#042440"/>
</g>
<defs>
<clipPath id="clip0_1072_6676">
<rect width="32" height="32" fill="white" transform="translate(14.7324 14.7422)"/>
</clipPath>
</defs>
</svg>
