<svg width="61" height="62" viewBox="0 0 61 62" fill="none" xmlns="http://www.w3.org/2000/svg">
<path d="M52.7653 3.40625H8.20482C5.2332 3.40625 2.82422 5.81523 2.82422 8.78685V53.3473C2.82422 56.319 5.2332 58.7279 8.20482 58.7279H52.7653C55.7369 58.7279 58.1459 56.319 58.1459 53.3473V8.78685C58.1459 5.81523 55.7369 3.40625 52.7653 3.40625Z" fill="#042440" fill-opacity="0.1"/>
<g clip-path="url(#clip0_1072_6690)">
<path d="M17.6855 31.0664C17.6855 24.2514 23.4279 18.707 30.4863 18.707C33.1409 18.707 35.6725 19.4842 37.8041 20.9266H36.1573C35.6881 20.9266 35.3077 21.2939 35.3077 21.7469C35.3077 22.2 35.6881 22.5673 36.1573 22.5673H40.1387C40.6079 22.5673 40.9883 22.2 40.9883 21.7469V17.9029C40.9883 17.4498 40.6079 17.0825 40.1387 17.0825C39.6695 17.0825 39.2891 17.4498 39.2891 17.9029V19.9448C36.7727 18.0781 33.7097 17.0664 30.4863 17.0664C26.6132 17.0664 22.972 18.5227 20.2332 21.1669C17.4946 23.8112 15.9863 27.3269 15.9863 31.0664C15.9863 33.523 16.6587 35.9435 17.9308 38.0663C18.0883 38.3291 18.3736 38.4759 18.667 38.4759C18.8114 38.4759 18.9578 38.4403 19.0917 38.3655C19.4978 38.1386 19.6365 37.6368 19.4016 37.2446C18.279 35.3713 17.6855 33.2349 17.6855 31.0664ZM43.0419 24.0665C42.8068 23.6744 42.2869 23.5405 41.8809 23.7674C41.4748 23.9943 41.3361 24.4961 41.5711 24.8882C42.6937 26.7615 43.2871 28.8978 43.2871 31.0664C43.2871 37.8814 37.5447 43.4258 30.4863 43.4258C27.832 43.4258 25.3008 42.6484 23.1695 41.2062H24.8154C25.2846 41.2062 25.665 40.8389 25.665 40.3859C25.665 39.9328 25.2846 39.5656 24.8154 39.5656H20.834C20.3648 39.5656 19.9844 39.9328 19.9844 40.3859V44.23C19.9844 44.683 20.3648 45.0503 20.834 45.0503C21.3032 45.0503 21.6836 44.683 21.6836 44.23V42.186C24.2 44.0533 27.2625 45.0664 30.4863 45.0664C34.3594 45.0664 38.0007 43.6101 40.7394 40.9659C43.478 38.3216 44.9863 34.8059 44.9863 31.0664C44.9863 28.6097 44.3139 26.1892 43.0419 24.0665Z" fill="#042440"/>
<path d="M37.7593 28.9447C37.7882 28.8406 37.7956 28.7321 37.781 28.6253C37.7665 28.5185 37.7302 28.4155 37.6744 28.3222L36.5416 26.4278C36.307 26.0355 35.7874 25.9011 35.381 26.1276L34.6106 26.557C33.9875 26.023 33.2588 25.6164 32.4684 25.3618V24.5039C32.4684 24.0509 32.088 23.6836 31.6188 23.6836H29.3532C28.884 23.6836 28.5036 24.0509 28.5036 24.5039V25.3617C27.7132 25.6163 26.9844 26.0229 26.3613 26.557L25.5909 26.1275C25.1846 25.9009 24.6649 26.0354 24.4304 26.4278L23.2976 28.3222C23.063 28.7145 23.2022 29.2162 23.6085 29.4427L24.3787 29.8721C24.2968 30.2638 24.2555 30.6634 24.2555 31.0664C24.2555 31.4693 24.2968 31.8689 24.3787 32.2606L23.6085 32.69C23.2022 32.9165 23.063 33.4182 23.2976 33.8105L24.4304 35.7049C24.665 36.0973 25.1845 36.2317 25.5909 36.0052L26.3613 35.5757C26.9844 36.1098 27.7132 36.5164 28.5036 36.771V37.6289C28.5036 38.0819 28.884 38.4492 29.3532 38.4492H31.6188C32.088 38.4492 32.4684 38.0819 32.4684 37.6289V36.7711C33.2588 36.5165 33.9875 36.1099 34.6106 35.5758L35.381 36.0053C35.7874 36.2318 36.307 36.0973 36.5416 35.7051L37.6744 33.8106C37.7871 33.6222 37.8176 33.3983 37.7593 33.1882C37.7305 33.0841 37.6806 32.9866 37.6127 32.9011C37.5448 32.8156 37.4601 32.7439 37.3635 32.6901L36.5932 32.2607C36.6751 31.869 36.7164 31.4694 36.7164 31.0664C36.7164 30.6634 36.6751 30.2638 36.5932 29.8721L37.3635 29.4427C37.4601 29.3889 37.5448 29.3172 37.6127 29.2317C37.6806 29.1463 37.7305 29.0487 37.7593 28.9447ZM30.4859 33.2539C29.2347 33.2539 28.2203 32.2745 28.2203 31.0664C28.2203 29.8583 29.2347 28.8789 30.4859 28.8789C31.7372 28.8789 32.7516 29.8583 32.7516 31.0664C32.7516 32.2745 31.7372 33.2539 30.4859 33.2539Z" fill="#042440"/>
</g>
<defs>
<clipPath id="clip0_1072_6690">
<rect width="29" height="28" fill="white" transform="translate(15.9863 17.0664)"/>
</clipPath>
</defs>
</svg>
