<svg width="61" height="62" viewBox="0 0 61 62" fill="none" xmlns="http://www.w3.org/2000/svg">
<path d="M52.7653 3.40625H8.20482C5.2332 3.40625 2.82422 5.81523 2.82422 8.78685V53.3473C2.82422 56.319 5.2332 58.7279 8.20482 58.7279H52.7653C55.7369 58.7279 58.1459 56.319 58.1459 53.3473V8.78685C58.1459 5.81523 55.7369 3.40625 52.7653 3.40625Z" fill="#2E2E2E"/>
<g clip-path="url(#clip0_1072_6690)">
<path d="M17.6836 31.0664C17.6836 24.2514 23.426 18.707 30.4844 18.707C33.139 18.707 35.6706 19.4842 37.8021 20.9266H36.1553C35.6861 20.9266 35.3057 21.2939 35.3057 21.7469C35.3057 22.2 35.6861 22.5673 36.1553 22.5673H40.1367C40.6059 22.5673 40.9863 22.2 40.9863 21.7469V17.9029C40.9863 17.4498 40.6059 17.0825 40.1367 17.0825C39.6675 17.0825 39.2871 17.4498 39.2871 17.9029V19.9448C36.7707 18.0781 33.7078 17.0664 30.4844 17.0664C26.6113 17.0664 22.97 18.5227 20.2313 21.1669C17.4927 23.8112 15.9844 27.3269 15.9844 31.0664C15.9844 33.523 16.6568 35.9435 17.9288 38.0663C18.0863 38.3291 18.3717 38.4759 18.665 38.4759C18.8094 38.4759 18.9558 38.4403 19.0898 38.3655C19.4959 38.1386 19.6346 37.6368 19.3996 37.2446C18.277 35.3713 17.6836 33.2349 17.6836 31.0664ZM43.0399 24.0665C42.8048 23.6744 42.285 23.5405 41.879 23.7674C41.4729 23.9943 41.3342 24.4961 41.5691 24.8882C42.6917 26.7615 43.2852 28.8978 43.2852 31.0664C43.2852 37.8814 37.5428 43.4258 30.4844 43.4258C27.83 43.4258 25.2989 42.6484 23.1675 41.2062H24.8134C25.2826 41.2062 25.663 40.8389 25.663 40.3859C25.663 39.9328 25.2826 39.5656 24.8134 39.5656H20.8321C20.3629 39.5656 19.9825 39.9328 19.9825 40.3859V44.23C19.9825 44.683 20.3629 45.0503 20.8321 45.0503C21.3013 45.0503 21.6817 44.683 21.6817 44.23V42.186C24.198 44.0533 27.2606 45.0664 30.4844 45.0664C34.3575 45.0664 37.9987 43.6101 40.7375 40.9659C43.4761 38.3216 44.9844 34.8059 44.9844 31.0664C44.9844 28.6097 44.312 26.1892 43.0399 24.0665Z" fill="white"/>
<path d="M37.7554 28.9447C37.7843 28.8406 37.7917 28.7321 37.7771 28.6253C37.7625 28.5185 37.7263 28.4155 37.6705 28.3222L36.5377 26.4278C36.3031 26.0355 35.7835 25.9011 35.3771 26.1276L34.6067 26.557C33.9836 26.023 33.2549 25.6164 32.4645 25.3618V24.5039C32.4645 24.0509 32.0841 23.6836 31.6149 23.6836H29.3493C28.8801 23.6836 28.4997 24.0509 28.4997 24.5039V25.3617C27.7093 25.6163 26.9805 26.0229 26.3574 26.557L25.587 26.1275C25.1807 25.9009 24.661 26.0354 24.4265 26.4278L23.2937 28.3222C23.059 28.7145 23.1983 29.2162 23.6046 29.4427L24.3748 29.8721C24.2929 30.2638 24.2516 30.6634 24.2516 31.0664C24.2516 31.4693 24.2928 31.8689 24.3748 32.2606L23.6046 32.69C23.1983 32.9165 23.059 33.4182 23.2937 33.8105L24.4265 35.7049C24.6611 36.0973 25.1806 36.2317 25.587 36.0052L26.3574 35.5757C26.9805 36.1098 27.7093 36.5164 28.4997 36.771V37.6289C28.4997 38.0819 28.8801 38.4492 29.3493 38.4492H31.6149C32.0841 38.4492 32.4645 38.0819 32.4645 37.6289V36.7711C33.2549 36.5165 33.9836 36.1099 34.6067 35.5758L35.3771 36.0053C35.7835 36.2318 36.3031 36.0973 36.5377 35.7051L37.6705 33.8106C37.7832 33.6222 37.8137 33.3983 37.7554 33.1882C37.7266 33.0841 37.6767 32.9866 37.6088 32.9011C37.5409 32.8156 37.4562 32.7439 37.3596 32.6901L36.5893 32.2607C36.6712 31.869 36.7125 31.4694 36.7125 31.0664C36.7125 30.6634 36.6712 30.2638 36.5893 29.8721L37.3596 29.4427C37.4562 29.3889 37.5409 29.3172 37.6088 29.2317C37.6767 29.1463 37.7265 29.0487 37.7554 28.9447ZM30.482 33.2539C29.2308 33.2539 28.2164 32.2745 28.2164 31.0664C28.2164 29.8583 29.2308 28.8789 30.482 28.8789C31.7333 28.8789 32.7477 29.8583 32.7477 31.0664C32.7477 32.2745 31.7333 33.2539 30.482 33.2539Z" fill="white"/>
</g>
<defs>
<clipPath id="clip0_1072_6690">
<rect width="29" height="28" fill="white" transform="translate(15.9844 17.0664)"/>
</clipPath>
</defs>
</svg>
