<svg width="61" height="62" viewBox="0 0 61 62" fill="none" xmlns="http://www.w3.org/2000/svg">
<g clip-path="url(#clip0_491_23224)">
<path d="M52.7692 3.40625H8.20873C5.2371 3.40625 2.82812 5.81523 2.82812 8.78685V53.3473C2.82812 56.319 5.2371 58.7279 8.20873 58.7279H52.7692C55.7408 58.7279 58.1498 56.319 58.1498 53.3473V8.78685C58.1498 5.81523 55.7408 3.40625 52.7692 3.40625Z" fill="url(#paint0_linear_491_23224)"/>
<g clip-path="url(#clip1_491_23224)">
<path d="M18.1523 34.9285C18.1523 26.2335 25.4788 19.1596 34.4844 19.1596C37.8712 19.1596 41.1012 20.1512 43.8208 21.9915H41.7198C41.1211 21.9915 40.6358 22.4601 40.6358 23.0381C40.6358 23.6161 41.1211 24.0847 41.7198 24.0847H46.7994C47.3981 24.0847 47.8834 23.6161 47.8834 23.0381V18.1336C47.8834 17.5556 47.3981 17.087 46.7994 17.087C46.2008 17.087 45.7155 17.5556 45.7155 18.1336V20.7389C42.5049 18.3572 38.597 17.0664 34.4844 17.0664C29.5429 17.0664 24.8971 18.9244 21.4029 22.298C17.9087 25.6718 15.9844 30.1573 15.9844 34.9285C15.9844 38.0628 16.8422 41.151 18.4653 43.8594C18.6662 44.1947 19.0302 44.382 19.4045 44.382C19.5888 44.382 19.7755 44.3366 19.9464 44.2411C20.4646 43.9516 20.6415 43.3114 20.3418 42.811C18.9095 40.4209 18.1523 37.6951 18.1523 34.9285ZM50.5035 25.9976C50.2036 25.4972 49.5403 25.3264 49.0223 25.6159C48.5042 25.9054 48.3272 26.5457 48.627 27.046C50.0593 29.436 50.8164 32.1617 50.8164 34.9285C50.8164 43.6235 43.4899 50.6973 34.4844 50.6973C31.0978 50.6973 27.8684 49.7055 25.1491 47.8654H27.249C27.8476 47.8654 28.333 47.3968 28.333 46.8188C28.333 46.2408 27.8476 45.7722 27.249 45.7722H22.1694C21.5707 45.7722 21.0854 46.2408 21.0854 46.8188V51.7234C21.0854 52.3014 21.5707 52.77 22.1694 52.77C22.768 52.77 23.2534 52.3014 23.2534 51.7234V49.1155C26.4638 51.498 30.3712 52.7905 34.4844 52.7905C39.4259 52.7905 44.0716 50.9325 47.5659 47.5589C51.06 44.1851 52.9844 39.6996 52.9844 34.9285C52.9844 31.794 52.1265 28.7058 50.5035 25.9976Z" fill="#2E2E2E"/>
<path d="M43.7607 32.2203C43.7975 32.0875 43.807 31.949 43.7884 31.8128C43.7698 31.6765 43.7236 31.5451 43.6524 31.4261L42.207 29.0091C41.9077 28.5085 41.2448 28.337 40.7263 28.626L39.7434 29.1739C38.9484 28.4926 38.0186 27.9738 37.0102 27.649V26.5544C37.0102 25.9764 36.5249 25.5078 35.9262 25.5078H33.0356C32.437 25.5078 31.9516 25.9764 31.9516 26.5544V27.6489C30.9432 27.9737 30.0134 28.4925 29.2184 29.1739L28.2355 28.6259C27.7171 28.3368 27.054 28.5084 26.7548 29.009L25.3095 31.426C25.0101 31.9266 25.1878 32.5667 25.7062 32.8557L26.6889 33.4035C26.5844 33.9033 26.5316 34.4131 26.5316 34.9272C26.5316 35.4413 26.5843 35.9512 26.6889 36.4509L25.7062 36.9987C25.1878 37.2877 25.0101 37.9278 25.3095 38.4284L26.7548 40.8454C27.0541 41.346 27.717 41.5175 28.2355 41.2285L29.2184 40.6805C30.0134 41.3619 30.9432 41.8807 31.9516 42.2055V43.3001C31.9516 43.8781 32.437 44.3467 33.0356 44.3467H35.9262C36.5249 44.3467 37.0102 43.8781 37.0102 43.3001V42.2056C38.0186 41.8808 38.9484 41.362 39.7434 40.6807L40.7263 41.2286C41.2448 41.5176 41.9077 41.346 42.207 40.8455L43.6524 38.4285C43.7961 38.1881 43.8351 37.9025 43.7607 37.6343C43.7239 37.5016 43.6603 37.3771 43.5736 37.2681C43.487 37.159 43.3789 37.0675 43.2556 36.9988L42.2729 36.451C42.3774 35.9513 42.4301 35.4414 42.4301 34.9273C42.4301 34.4131 42.3774 33.9033 42.2729 33.4035L43.2556 32.8557C43.3789 32.787 43.487 32.6955 43.5736 32.5865C43.6603 32.4775 43.7239 32.353 43.7607 32.2203ZM34.4808 37.7182C32.8844 37.7182 31.5902 36.4686 31.5902 34.9273C31.5902 33.3859 32.8844 32.1363 34.4808 32.1363C36.0773 32.1363 37.3715 33.3859 37.3715 34.9273C37.3715 36.4686 36.0773 37.7182 34.4808 37.7182Z" fill="#2E2E2E"/>
</g>
<path d="M57.4836 0H3.51644C-0.0824921 0 -3 2.69978 -3 6.03014V55.9699C-3 59.3002 -0.0824921 62 3.51644 62H57.4836C61.0825 62 64 59.3002 64 55.9699V6.03014C64 2.69978 61.0825 0 57.4836 0Z" fill="#F4F4F4"/>
<path d="M35.6888 30.4829C35.6888 32.9587 33.5199 34.9657 30.8444 34.9657C28.1689 34.9657 26 32.9587 26 30.4829C26 28.007 28.1689 26 30.8444 26C33.5199 26 35.6888 28.007 35.6888 30.4829Z" fill="#C49AFF" fill-opacity="0.6"/>
<g clip-path="url(#clip2_491_23224)">
<path d="M14.168 30.8621C14.168 22.1671 21.4945 15.0932 30.5 15.0932C33.8869 15.0932 37.1169 16.0848 39.8364 17.9251H37.7354C37.1367 17.9251 36.6514 18.3937 36.6514 18.9717C36.6514 19.5497 37.1367 20.0183 37.7354 20.0183H42.8151C43.4137 20.0183 43.8991 19.5497 43.8991 18.9717V14.0672C43.8991 13.4892 43.4137 13.0206 42.8151 13.0206C42.2164 13.0206 41.7311 13.4892 41.7311 14.0672V16.6725C38.5205 14.2907 34.6126 13 30.5 13C25.5585 13 20.9127 14.858 17.4185 18.2316C13.9244 21.6054 12 26.0909 12 30.8621C12 33.9964 12.8579 37.0846 14.4809 39.793C14.6818 40.1283 15.0459 40.3156 15.4201 40.3156C15.6044 40.3156 15.7911 40.2701 15.962 40.1747C16.4802 39.8852 16.6572 39.245 16.3574 38.7446C14.9251 36.3545 14.168 33.6287 14.168 30.8621ZM46.5191 21.9312C46.2192 21.4308 45.556 21.26 45.038 21.5495C44.5198 21.839 44.3428 22.4792 44.6426 22.9796C46.0749 25.3696 46.832 28.0953 46.832 30.8621C46.832 39.5571 39.5055 46.6309 30.5 46.6309C27.1134 46.6309 23.884 45.6391 21.1647 43.799H23.2646C23.8633 43.799 24.3486 43.3304 24.3486 42.7524C24.3486 42.1744 23.8633 41.7058 23.2646 41.7058H18.185C17.5863 41.7058 17.101 42.1744 17.101 42.7524V47.6569C17.101 48.235 17.5863 48.7036 18.185 48.7036C18.7836 48.7036 19.269 48.235 19.269 47.6569V45.0491C22.4795 47.4316 26.3869 48.7241 30.5 48.7241C35.4415 48.7241 40.0873 46.8661 43.5815 43.4925C47.0756 40.1187 49 35.6332 49 30.8621C49 27.7276 48.1421 24.6394 46.5191 21.9312Z" fill="#2E2E2E"/>
<path d="M39.7763 28.1538C39.8132 28.0211 39.8226 27.8826 39.804 27.7464C39.7854 27.6101 39.7392 27.4787 39.668 27.3597L38.2227 24.9427C37.9233 24.4421 37.2605 24.2706 36.742 24.5596L35.759 25.1075C34.964 24.4262 34.0342 23.9074 33.0258 23.5826V22.488C33.0258 21.91 32.5405 21.4414 31.9419 21.4414H29.0512C28.4526 21.4414 27.9672 21.91 27.9672 22.488V23.5825C26.9588 23.9073 26.029 24.4261 25.234 25.1075L24.2511 24.5595C23.7327 24.2704 23.0697 24.442 22.7704 24.9426L21.3251 27.3596C21.0258 27.8602 21.2034 28.5003 21.7218 28.7893L22.7045 29.3371C22.6 29.8369 22.5472 30.3467 22.5472 30.8608C22.5472 31.3749 22.5999 31.8848 22.7045 32.3845L21.7218 32.9323C21.2034 33.2213 21.0258 33.8614 21.3251 34.362L22.7704 36.779C23.0697 37.2796 23.7326 37.4511 24.2511 37.162L25.234 36.6141C26.029 37.2955 26.9588 37.8143 27.9672 38.1391V39.2337C27.9672 39.8117 28.4526 40.2803 29.0512 40.2803H31.9419C32.5405 40.2803 33.0258 39.8117 33.0258 39.2337V38.1392C34.0342 37.8144 34.964 37.2956 35.759 36.6143L36.742 37.1622C37.2604 37.4512 37.9233 37.2796 38.2227 36.7791L39.668 34.3621C39.8117 34.1217 39.8507 33.8361 39.7763 33.5679C39.7395 33.4352 39.6759 33.3107 39.5893 33.2017C39.5026 33.0926 39.3945 33.0011 39.2712 32.9324L38.2885 32.3846C38.393 31.8849 38.4457 31.375 38.4457 30.8609C38.4457 30.3467 38.393 29.8369 38.2885 29.3371L39.2712 28.7893C39.3945 28.7206 39.5026 28.6291 39.5893 28.5201C39.6759 28.411 39.7395 28.2866 39.7763 28.1538ZM30.4965 33.6518C28.9 33.6518 27.6058 32.4022 27.6058 30.8609C27.6058 29.3195 28.9 28.0699 30.4965 28.0699C32.0929 28.0699 33.3871 29.3195 33.3871 30.8609C33.3871 32.4022 32.0929 33.6518 30.4965 33.6518Z" fill="#2E2E2E"/>
</g>
</g>
<defs>
<linearGradient id="paint0_linear_491_23224" x1="-0.110839" y1="31.0671" x2="69.5599" y2="31.0671" gradientUnits="userSpaceOnUse">
<stop stop-color="#B56AFF"/>
<stop offset="0.415" stop-color="#B56AFF"/>
<stop offset="1" stop-color="#FFE1B4"/>
</linearGradient>
<clipPath id="clip0_491_23224">
<rect width="60.6265" height="60.6265" fill="white" transform="translate(0.171875 0.753906)"/>
</clipPath>
<clipPath id="clip1_491_23224">
<rect width="37" height="35.7241" fill="white" transform="translate(15.9844 17.0664)"/>
</clipPath>
<clipPath id="clip2_491_23224">
<rect width="37" height="35.7241" fill="white" transform="translate(12 13)"/>
</clipPath>
</defs>
</svg>
