<svg width="50" height="50" viewBox="0 0 50 50" fill="none" xmlns="http://www.w3.org/2000/svg">
<path opacity="0.2" fill-rule="evenodd" clip-rule="evenodd" d="M25 49C38.2548 49 49 38.2548 49 25C49 11.7452 38.2548 1 25 1C11.7452 1 1 11.7452 1 25C1 38.2548 11.7452 49 25 49Z" stroke="black" stroke-width="2"/>
<path d="M32.8451 20.5625C32.7337 20.4367 32.5541 20.405 32.4069 20.4826C32.3153 20.5309 32.143 20.5942 31.9386 20.6568C32.1965 20.304 32.4039 19.909 32.4955 19.554C32.5351 19.401 32.4772 19.2397 32.3512 19.1485C32.2251 19.0581 32.0573 19.0581 31.9313 19.1485C31.7327 19.291 30.7742 19.7191 30.1681 19.8578C28.7985 18.6239 27.2046 18.4958 25.5477 19.4907C24.2008 20.2995 23.9077 21.9442 23.9649 22.9466C20.8819 22.6414 18.9656 20.9666 17.8869 19.5804C17.8115 19.4832 17.6898 19.4319 17.5755 19.4395C17.4553 19.4485 17.3469 19.5171 17.2853 19.6234C16.7753 20.509 16.6338 21.4881 16.8779 22.4552C17.0112 22.9828 17.2443 23.4479 17.5147 23.8248C17.385 23.7592 17.2597 23.677 17.1417 23.579C17.0332 23.4871 16.8815 23.4697 16.7533 23.5308C16.6258 23.5934 16.5444 23.726 16.5444 23.8715C16.5444 25.532 17.5543 26.64 18.4974 27.2189C18.345 27.2 18.1859 27.1654 18.0254 27.1149C17.8877 27.0719 17.7382 27.1149 17.6429 27.2264C17.5477 27.3372 17.5249 27.4955 17.5843 27.6304C18.1141 28.8357 19.1181 29.6648 20.3602 29.9656C19.2756 30.6206 17.8239 30.9417 16.4946 30.7841C16.3224 30.7592 16.1582 30.8716 16.104 31.0419C16.0498 31.2122 16.1209 31.3992 16.2726 31.4866C18.2893 32.6512 20.1125 33.0672 21.688 33.0672C23.981 33.0672 25.7507 32.1868 26.828 31.4504C29.7321 29.4681 31.5421 25.9089 31.2901 22.7243C31.7554 22.3708 32.4516 21.718 32.8832 21.0163C32.9726 20.8746 32.9565 20.6877 32.8451 20.5625Z" fill="black"/>
</svg>
