<svg width="50" height="50" viewBox="0 0 50 50" fill="none" xmlns="http://www.w3.org/2000/svg">
<path opacity="0.2" fill-rule="evenodd" clip-rule="evenodd" d="M25 49C38.2548 49 49 38.2548 49 25C49 11.7452 38.2548 1 25 1C11.7452 1 1 11.7452 1 25C1 38.2548 11.7452 49 25 49Z" stroke="white" stroke-width="2"/>
<path d="M32.8448 20.5625C32.7334 20.4367 32.5539 20.405 32.4066 20.4826C32.315 20.5309 32.1428 20.5942 31.9383 20.6568C32.1963 20.304 32.4037 19.909 32.4953 19.554C32.5349 19.401 32.477 19.2397 32.3509 19.1485C32.2249 19.0581 32.0571 19.0581 31.931 19.1485C31.7324 19.291 30.7739 19.7191 30.1679 19.8578C28.7983 18.6239 27.2044 18.4958 25.5475 19.4907C24.2006 20.2995 23.9075 21.9442 23.9646 22.9466C20.8817 22.6414 18.9654 20.9666 17.8867 19.5804C17.8112 19.4832 17.6896 19.4319 17.5753 19.4395C17.4551 19.4485 17.3466 19.5171 17.2851 19.6234C16.775 20.509 16.6336 21.4881 16.8776 22.4552C17.011 22.9828 17.244 23.4479 17.5144 23.8248C17.3847 23.7592 17.2594 23.677 17.1414 23.579C17.033 23.4871 16.8813 23.4697 16.753 23.5308C16.6255 23.5934 16.5442 23.726 16.5442 23.8715C16.5442 25.532 17.554 26.64 18.4971 27.2189C18.3447 27.2 18.1857 27.1654 18.0252 27.1149C17.8874 27.0719 17.7379 27.1149 17.6427 27.2264C17.5474 27.3372 17.5247 27.4955 17.5841 27.6304C18.1139 28.8357 19.1178 29.6648 20.3599 29.9656C19.2754 30.6206 17.8237 30.9417 16.4944 30.7841C16.3222 30.7592 16.158 30.8716 16.1038 31.0419C16.0495 31.2122 16.1206 31.3992 16.2723 31.4866C18.289 32.6512 20.1122 33.0672 21.6878 33.0672C23.9808 33.0672 25.7505 32.1868 26.8277 31.4504C29.7319 29.4681 31.5419 25.9089 31.2898 22.7243C31.7551 22.3708 32.4513 21.718 32.8829 21.0163C32.9723 20.8746 32.9562 20.6877 32.8448 20.5625Z" fill="white"/>
</svg>
