<svg width="1439" height="752" viewBox="0 0 1439 752" fill="none" xmlns="http://www.w3.org/2000/svg">
<g clip-path="url(#clip0_491_34840)">
<rect width="1440" height="752" fill="white"/>
<path d="M35.7558 28.3181C48.8952 37.9286 59.309 49.3575 66.3944 61.9434C73.4797 74.5293 77.096 88.0222 77.0339 101.641C77.096 115.26 73.4797 128.753 66.3944 141.339C59.309 153.925 48.8953 165.354 35.7558 174.965L25.5654 182.434C13.6328 191.219 6.93161 203.12 6.93162 215.529C6.93162 227.937 13.6328 239.839 25.5654 248.623L126.735 322.909C153.169 342.373 168.014 368.742 168.014 396.233C168.014 423.723 153.169 450.092 126.735 469.556L107.268 483.955C104.805 482.386 101.624 481.56 98.366 481.644C95.1076 481.727 92.0134 482.715 89.7067 484.407C87.4 486.1 86.052 488.371 85.9342 490.764C85.8164 493.157 86.9375 495.494 89.0718 497.304L-4.14347e-07 562.618L0 564.689L90.4226 498.281C92.7497 499.762 95.7266 500.575 98.8054 500.572C101.274 500.574 103.691 500.056 105.77 499.079C107.849 498.101 109.502 496.707 110.534 495.06C111.565 493.413 111.931 491.583 111.588 489.788C111.245 487.992 110.207 486.307 108.599 484.933L128.125 470.592C154.94 450.856 170 424.114 170 396.233C170 368.352 154.94 341.61 128.125 321.874L26.9758 247.617C21.2361 243.402 16.6832 238.399 13.5769 232.892C10.4705 227.385 8.87173 221.482 8.87172 215.521C8.87172 209.561 10.4705 203.658 13.5768 198.151C16.6832 192.644 21.2361 187.641 26.9757 183.426L37.1463 175.957C50.4815 166.206 61.0493 154.609 68.2372 141.837C75.4252 129.066 79.0903 115.373 79.0204 101.554C79.0588 87.7636 75.3783 74.1043 68.1913 61.3643C61.0042 48.6242 50.4529 37.0556 37.1463 27.326L-0.000112946 0.0012207L-0.000112534 2.05823L35.7558 28.3181ZM106.533 485.414C108.06 486.536 109.1 487.966 109.521 489.522C109.942 491.079 109.726 492.692 108.899 494.158C108.072 495.624 106.671 496.877 104.875 497.758C103.078 498.64 100.966 499.11 98.8054 499.11C96.6448 499.11 94.5326 498.64 92.7361 497.758C90.9395 496.877 89.5392 495.624 88.7121 494.158C87.885 492.692 87.6684 491.079 88.0895 489.522C88.5107 487.966 89.5507 486.536 91.0781 485.414C93.1298 483.912 95.9085 483.069 98.8054 483.069C101.702 483.069 104.481 483.912 106.533 485.414Z" fill="black" fill-opacity="0.2"/>
<path d="M71.4874 429.552C83.3423 420.743 90 408.807 90 396.363C90 383.919 83.3423 371.983 71.4874 363.174L-3.08165e-05 310.215L-3.04476e-05 312.278L70.0861 364.213C75.7889 368.44 80.3127 373.459 83.3991 378.983C86.4855 384.507 88.074 390.428 88.0741 396.407C88.0741 402.386 86.4855 408.306 83.3991 413.83C80.3127 419.354 75.7889 424.373 70.0861 428.601L-3.68952e-07 480.491L0 482.555L71.4874 429.552Z" fill="black" fill-opacity="0.2"/>
<path d="M0.118164 33.7359C1.55822 33.7225 2.98721 33.9246 4.32037 34.3302C5.65353 34.7358 6.8637 35.3366 7.87909 36.097C9.90232 37.6136 11.0378 39.6644 11.0378 41.8019C11.0378 43.9395 9.90232 45.9903 7.8791 47.5069C6.8637 48.2672 5.65353 48.868 4.32037 49.2736C2.98722 49.6792 1.55822 49.8813 0.118167 49.868C0.118167 49.868 0.118167 49.868 -2.00639e-05 49.868L-1.98016e-05 51.3345C3.07827 51.364 6.06654 50.5616 8.41094 49.0761C26.8361 63.033 37.1331 81.833 37.0712 101.403C37.0927 111.248 34.4925 120.999 29.4209 130.091C24.3494 139.184 16.9071 147.437 7.52455 154.375L-3.7239e-07 159.992L0 162.074L8.98219 155.372C28.0527 141.153 38.836 121.915 38.9982 101.821C39.1604 81.7272 28.6885 62.394 9.84887 48.0054C11.8563 46.2843 12.9615 44.0814 12.9611 41.8019C12.9627 40.5483 12.631 39.3068 11.9853 38.149C11.3396 36.9912 10.3926 35.9398 9.19885 35.0557C8.01532 34.168 6.60644 33.4646 5.05423 32.9862C3.50201 32.5078 1.83749 32.2641 0.157559 32.2693L-2.32107e-05 32.2693L-2.29485e-05 33.7359L0.118164 33.7359Z" fill="black" fill-opacity="0.2"/>
<path d="M99.7807 450.173C109.361 443.114 116.961 434.734 122.146 425.511C127.331 416.288 130 406.402 130 396.419C130 386.436 127.331 376.551 122.146 367.328C116.961 358.105 109.361 349.724 99.7807 342.666L-4.55036e-05 269.145L-4.51355e-05 271.203L98.3739 343.688C107.772 350.612 115.228 358.833 120.314 367.881C125.401 376.929 128.019 386.626 128.019 396.419C128.019 406.213 125.401 415.91 120.314 424.958C115.228 434.006 107.772 442.226 98.3739 449.151L-3.55024e-07 521.636L0 523.621L99.7807 450.173Z" fill="black" fill-opacity="0.2"/>
<path d="M7.85212 47.5073C9.86841 45.9907 11 43.9398 11 41.8022C11 39.6645 9.86841 37.6137 7.85211 36.097C6.8402 35.3366 5.63418 34.7358 4.30559 34.3302C2.977 33.9246 1.5529 33.7225 0.117779 33.7358L-2.88484e-06 33.7358L-1.1107e-10 49.8685C-1.1107e-10 49.8685 -1.1107e-10 49.8685 0.117782 49.8685C1.5529 49.8819 2.977 49.6798 4.30559 49.2741C5.63418 48.8685 6.8402 48.2677 7.85212 47.5073Z" fill="#B078FF"/>
<path d="M91.22 485.655C89.6821 486.783 88.635 488.22 88.211 489.784C87.787 491.348 88.0051 492.97 88.8378 494.443C89.6705 495.916 91.0804 497.175 92.8893 498.061C94.6981 498.947 96.8246 499.42 99 499.42C101.175 499.42 103.302 498.947 105.111 498.061C106.92 497.175 108.329 495.916 109.162 494.443C109.995 492.97 110.213 491.348 109.789 489.784C109.365 488.22 108.318 486.783 106.78 485.655C105.76 484.904 104.547 484.308 103.212 483.902C101.877 483.495 100.446 483.286 99 483.286C97.5543 483.286 96.1228 483.495 94.7877 483.902C93.4526 484.308 92.2402 484.904 91.22 485.655Z" fill="#FBEE81"/>
</g>
<defs>
<clipPath id="clip0_491_34840">
<rect width="1440" height="752" fill="white"/>
</clipPath>
</defs>
</svg>
