<svg width="1440" height="727" viewBox="0 0 1440 727" fill="none" xmlns="http://www.w3.org/2000/svg">
<g clip-path="url(#clip0_491_34656)">
<rect width="1440" height="727" fill="#F4F4F4"/>
<path d="M1404.24 731.165C1391.1 721.587 1380.69 710.196 1373.61 697.653C1366.52 685.11 1362.9 671.663 1362.97 658.089C1362.9 644.516 1366.52 631.069 1373.61 618.526C1380.69 605.982 1391.1 594.592 1404.24 585.014L1414.43 577.57C1426.37 568.815 1433.07 556.954 1433.07 544.587C1433.07 532.221 1426.37 520.359 1414.43 511.605L1313.27 437.57C1286.83 418.172 1271.99 391.892 1271.99 364.494C1271.99 337.097 1286.83 310.817 1313.27 291.419L1332.73 277.069C1335.19 278.633 1338.38 279.456 1341.63 279.372C1344.89 279.289 1347.99 278.305 1350.29 276.618C1352.6 274.932 1353.95 272.668 1354.07 270.283C1354.18 267.898 1353.06 265.569 1350.93 263.765L1440 198.672L1440 196.607L1349.58 262.791C1347.25 261.315 1344.27 260.505 1341.19 260.508C1338.73 260.506 1336.31 261.023 1334.23 261.996C1332.15 262.97 1330.5 264.36 1329.47 266.002C1328.43 267.643 1328.07 269.467 1328.41 271.256C1328.76 273.045 1329.79 274.724 1331.4 276.095L1311.87 290.387C1285.06 310.056 1270 336.708 1270 364.494C1270 392.281 1285.06 418.933 1311.87 438.602L1413.02 512.608C1418.76 516.808 1423.32 521.795 1426.42 527.283C1429.53 532.771 1431.13 538.654 1431.13 544.595C1431.13 550.535 1429.53 556.418 1426.42 561.906C1423.32 567.394 1418.76 572.381 1413.02 576.581L1402.85 584.026C1389.52 593.743 1378.95 605.301 1371.76 618.029C1364.57 630.758 1360.91 644.404 1360.98 658.177C1360.94 671.92 1364.62 685.533 1371.81 698.23C1379 710.927 1389.55 722.457 1402.85 732.153L1440 759.386L1440 757.336L1404.24 731.165ZM1333.47 275.615C1331.94 274.496 1330.9 273.071 1330.48 271.52C1330.06 269.969 1330.27 268.362 1331.1 266.901C1331.93 265.44 1333.33 264.191 1335.13 263.312C1336.92 262.434 1339.03 261.965 1341.19 261.965C1343.36 261.965 1345.47 262.434 1347.26 263.312C1349.06 264.191 1350.46 265.44 1351.29 266.901C1352.11 268.362 1352.33 269.969 1351.91 271.52C1351.49 273.071 1350.45 274.496 1348.92 275.615C1346.87 277.112 1344.09 277.952 1341.19 277.952C1338.3 277.952 1335.52 277.112 1333.47 275.615Z" fill="black" fill-opacity="0.2"/>
<path d="M1368.51 331.288C1356.66 340.068 1350 351.963 1350 364.365C1350 376.767 1356.66 388.663 1368.51 397.442L1440 450.222L1440 448.166L1369.91 396.406C1364.21 392.193 1359.69 387.191 1356.6 381.686C1353.51 376.181 1351.93 370.28 1351.93 364.321C1351.93 358.363 1353.51 352.462 1356.6 346.957C1359.69 341.452 1364.21 336.45 1369.91 332.236L1440 280.521L1440 278.465L1368.51 331.288Z" fill="black" fill-opacity="0.2"/>
<path d="M1439.88 725.766C1438.44 725.779 1437.01 725.577 1435.68 725.173C1434.35 724.769 1433.14 724.17 1432.12 723.412C1430.1 721.901 1428.96 719.857 1428.96 717.727C1428.96 715.596 1430.1 713.553 1432.12 712.041C1433.14 711.283 1434.35 710.685 1435.68 710.28C1437.01 709.876 1438.44 709.675 1439.88 709.688C1439.88 709.688 1439.88 709.688 1440 709.688L1440 708.226C1436.92 708.197 1433.93 708.997 1431.59 710.477C1413.16 696.568 1402.87 677.831 1402.93 658.328C1402.91 648.516 1405.51 638.798 1410.58 629.736C1415.65 620.675 1423.09 612.449 1432.48 605.535L1440 599.937L1440 597.861L1431.02 604.541C1411.95 618.712 1401.16 637.885 1401 657.911C1400.84 677.937 1411.31 697.204 1430.15 711.544C1428.14 713.26 1427.04 715.455 1427.04 717.727C1427.04 718.976 1427.37 720.214 1428.01 721.367C1428.66 722.521 1429.61 723.569 1430.8 724.45C1431.98 725.335 1433.39 726.036 1434.95 726.513C1436.5 726.989 1438.16 727.232 1439.84 727.227L1440 727.227L1440 725.766L1439.88 725.766Z" fill="black" fill-opacity="0.2"/>
<path d="M1340.22 310.737C1330.64 317.772 1323.04 326.124 1317.85 335.316C1312.67 344.507 1310 354.359 1310 364.309C1310 374.258 1312.67 384.11 1317.85 393.302C1323.04 402.494 1330.64 410.846 1340.22 417.881L1440 491.153L1440 489.101L1341.63 416.862C1332.23 409.961 1324.77 401.768 1319.69 392.75C1314.6 383.733 1311.98 374.069 1311.98 364.309C1311.98 354.548 1314.6 344.884 1319.69 335.867C1324.77 326.85 1332.23 318.656 1341.63 311.755L1440 239.516L1440 237.537L1340.22 310.737Z" fill="black" fill-opacity="0.2"/>
<path d="M1432.15 712.039C1430.13 713.551 1429 715.595 1429 717.725C1429 719.856 1430.13 721.9 1432.15 723.411C1433.16 724.169 1434.37 724.768 1435.69 725.172C1437.02 725.576 1438.45 725.778 1439.88 725.764L1440 725.764L1440 709.686C1440 709.686 1440 709.686 1439.88 709.686C1438.45 709.673 1437.02 709.874 1435.69 710.279C1434.37 710.683 1433.16 711.282 1432.15 712.039Z" fill="#B078FF"/>
<path d="M1348.78 275.374C1350.32 274.25 1351.36 272.818 1351.79 271.259C1352.21 269.701 1351.99 268.085 1351.16 266.617C1350.33 265.148 1348.92 263.893 1347.11 263.01C1345.3 262.128 1343.18 261.656 1341 261.656C1338.82 261.656 1336.7 262.128 1334.89 263.01C1333.08 263.893 1331.67 265.148 1330.84 266.617C1330.01 268.085 1329.79 269.701 1330.21 271.259C1330.64 272.818 1331.68 274.25 1333.22 275.374C1334.24 276.123 1335.45 276.717 1336.79 277.122C1338.12 277.527 1339.55 277.736 1341 277.736C1342.45 277.736 1343.88 277.527 1345.21 277.122C1346.55 276.717 1347.76 276.123 1348.78 275.374Z" fill="#FBEE81"/>
</g>
<defs>
<clipPath id="clip0_491_34656">
<rect width="1440" height="727" fill="white"/>
</clipPath>
</defs>
</svg>
