<svg width="60" height="60" viewBox="0 0 60 60" fill="none" xmlns="http://www.w3.org/2000/svg">
<circle cx="30" cy="30" r="30" fill="#EFCD56" fill-opacity="0.3"/>
<path d="M34.9515 34.2193C34.698 34.585 34.4444 34.9372 34.1943 35.2846C33.482 36.2738 32.7975 37.2245 32.2198 38.3404C32.1222 38.5414 31.9271 38.7424 31.732 38.843L34.9515 34.2193ZM34.9515 34.2193C35.9271 32.9126 36.8052 31.7065 37.1954 30.0983L34.9515 34.2193ZM25.8908 38.5898L25.9534 38.5737L25.9221 38.5172C25.8848 38.45 25.8484 38.3837 25.8125 38.3182C25.4757 37.7043 25.181 37.1671 24.6455 36.7964L22.0163 33.1848C20.5577 31.1811 19.687 28.9836 20.1714 26.3884L20.1714 26.3883C20.5117 24.5351 21.1674 22.9856 22.1731 21.7622C23.1785 20.5392 24.5357 19.6397 26.2836 19.0894C28.0317 18.5391 29.6801 18.4898 31.1938 18.9265C32.7074 19.3631 34.0898 20.2868 35.304 21.6879L35.3044 21.6883C37.4395 24.088 38.118 26.8844 37.1476 30.0838L37.1475 30.0837L37.1468 30.0865C36.7593 31.6835 35.8875 32.8821 34.9115 34.1894L34.9114 34.1894L34.9104 34.1908C34.658 34.5549 34.4052 34.9061 34.1554 35.2529C33.4425 36.2431 32.7549 37.198 32.1754 38.3174L32.1754 38.3174L32.1748 38.3186C32.0822 38.5094 31.8957 38.7018 31.711 38.7975C29.7643 39.5997 27.8175 40.3019 25.8694 41.0043C25.6652 41.0073 25.4641 41.1109 25.2766 41.2075L25.2732 41.2092C25.1111 41.2661 25.0274 41.3813 25 41.5222C24.9732 41.66 25.0005 41.8203 25.0503 41.9743L25.0498 41.9744L25.0529 41.9807C25.106 42.0902 25.1877 42.176 25.2994 42.2191C25.4107 42.2621 25.5452 42.2602 25.6995 42.2072L25.7001 42.207L25.7004 42.2069C27.9436 41.403 30.188 40.5987 32.4324 39.6939C32.5897 39.6396 32.7181 39.5323 32.8307 39.4035C32.9428 39.2752 33.042 39.1219 33.1388 38.9723L33.139 38.972C33.1391 38.9717 33.1393 38.9715 33.1394 38.9713C33.3845 38.6177 33.5805 38.2643 33.7752 37.9133L33.7757 37.9123C33.971 37.5603 34.165 37.2106 34.4073 36.8612L34.4073 36.8612L34.4087 36.859C34.7488 36.3083 35.1378 35.7822 35.528 35.2672C35.5918 35.183 35.6556 35.0991 35.7193 35.0154C36.0445 34.5878 36.3651 34.1663 36.6514 33.7449L36.6515 33.7447C38.2171 31.4261 39.1007 29.0016 38.7084 26.0711L38.7084 26.0708C37.8262 19.7085 31.16 15.6651 25.3713 18.091C20.9593 19.9093 18.4102 24.5559 19.2926 29.3033L19.2928 29.3042C19.685 31.2237 20.5675 32.738 21.6422 34.2479C21.9844 34.7515 22.3508 35.2297 22.7163 35.7067L22.7167 35.7072C23.0827 36.1848 23.4477 36.6611 23.7882 37.1623L23.7881 37.1624L23.7901 37.1649C23.9824 37.4126 24.1514 37.7108 24.3222 38.025C24.348 38.0724 24.3738 38.1202 24.3997 38.1682C24.545 38.4371 24.694 38.713 24.8607 38.9706L24.8887 39.0138L24.931 38.9847C25.2165 38.7886 25.5025 38.6898 25.8908 38.5898Z" fill="#042440" stroke="#042440" stroke-width="0.1"/>
<path d="M25.3559 48.5246L25.3817 48.5512L25.4147 48.5342C25.5109 48.4846 25.5751 48.4644 25.6235 48.4644C25.6675 48.4644 25.7041 48.4812 25.7462 48.5246L25.7696 48.5487L25.8008 48.5361C28.0439 47.6318 30.1896 46.8279 32.4331 46.024L32.4332 46.0244L32.4391 46.0214C32.8374 45.8162 33.0606 45.4944 32.9516 45.1574C32.9006 44.9997 32.8194 44.8807 32.6749 44.8361C32.5355 44.793 32.351 44.8241 32.1052 44.9252C31.0325 45.3271 29.9354 45.729 28.838 46.131L28.8379 46.131C27.7433 46.532 26.6485 46.933 25.5779 47.3341C25.5297 47.3341 25.4567 47.3348 25.3939 47.3477C25.3607 47.3545 25.3253 47.3658 25.2972 47.3858C25.2701 47.4051 25.2488 47.4337 25.2449 47.4718C25.1499 47.6674 25.0491 47.8762 25.0491 48.0877C25.0491 48.2065 25.1075 48.2938 25.173 48.3612C25.2055 48.3948 25.241 48.4246 25.2729 48.4512L25.2773 48.4549C25.3082 48.4807 25.3348 48.5028 25.3559 48.5246Z" fill="#042440" stroke="#042440" stroke-width="0.1"/>
<path d="M25.3554 45.2111L25.3702 45.2263H25.3913H25.3924H25.3936H25.3947H25.3959H25.397H25.3981H25.3993H25.4004H25.4015H25.4026H25.4037H25.4049H25.406H25.4071H25.4082H25.4093H25.4104H25.4115H25.4126H25.4137H25.4148H25.4159H25.417H25.4181H25.4192H25.4203H25.4214H25.4225H25.4235H25.4246H25.4257H25.4268H25.4278H25.4289H25.43H25.4311H25.4321H25.4332H25.4342H25.4353H25.4364H25.4374H25.4385H25.4395H25.4406H25.4416H25.4426H25.4437H25.4447H25.4458H25.4468H25.4478H25.4489H25.4499H25.4509H25.452H25.453H25.454H25.455H25.456H25.4571H25.4581H25.4591H25.4601H25.4611H25.4621H25.4631H25.4641H25.4651H25.4661H25.4671H25.4681H25.4691H25.4701H25.4711H25.4721H25.4731H25.474H25.475H25.476H25.477H25.4779H25.4789H25.4799H25.4809H25.4818H25.4828H25.4838H25.4847H25.4857H25.4866H25.4876H25.4886H25.4895H25.4905H25.4914H25.4924H25.4933H25.4943H25.4952H25.4961H25.4971H25.498H25.499H25.4999H25.5008H25.5017H25.5027H25.5036H25.5045H25.5055H25.5064H25.5073H25.5082H25.5091H25.51H25.511H25.5119H25.5128H25.5137H25.5146H25.5155H25.5164H25.5173H25.5182H25.5191H25.52H25.5209H25.5218H25.5227H25.5236H25.5244H25.5253H25.5262H25.5271H25.528H25.5289H25.5297H25.5306H25.5315H25.5324H25.5332H25.5341H25.535H25.5358H25.5367H25.5376H25.5384H25.5393H25.5401H25.541H25.5418H25.5427H25.5436H25.5444H25.5453H25.5461H25.5469H25.5478H25.5486H25.5495H25.5503H25.5512H25.552H25.5528H25.5537H25.5545H25.5553H25.5561H25.557H25.5578H25.5586H25.5594H25.5603H25.5611H25.5619H25.5627H25.5635H25.5644H25.5652H25.566H25.5668H25.5676H25.5684H25.5692H25.57H25.5708H25.5716H25.5724H25.5732H25.574H25.5748H25.5756H25.5764H25.5772H25.578H25.5788H25.5796H25.5803H25.5811H25.5819H25.5827H25.5835H25.5843H25.585H25.5858H25.5866H25.5874H25.5881H25.5889H25.5897H25.5904H25.5912H25.592H25.5927H25.5935H25.5943H25.595H25.5958H25.5965H25.5973H25.5981H25.5988H25.5996H25.6003H25.6011H25.6018H25.6026H25.6033H25.6041H25.6048H25.6055H25.6063H25.607H25.6078H25.6085H25.6092H25.61H25.6107H25.6114H25.6122H25.6129H25.6136H25.6144H25.6151H25.6158H25.6165H25.6173H25.618H25.6187H25.6194H25.6202H25.6209H25.6216H25.6223H25.623H25.6237H25.6245H25.6252H25.6259H25.6266H25.6273H25.628H25.6287H25.6294H25.6301H25.6308H25.6315H25.6322H25.6329H25.6336H25.6343H25.635H25.6357H25.6364H25.6371H25.6378H25.6385H25.6392H25.6399H25.6406H25.6412H25.6419H25.6426H25.6433H25.644H25.6447H25.6453H25.646H25.6467H25.6474H25.6481H25.6487H25.6494H25.6501H25.6508H25.6514H25.6521H25.6528H25.6534H25.6541H25.6548H25.6555H25.6561H25.6568H25.6575H25.6581H25.6588H25.6594H25.6601H25.6608H25.6614H25.6621H25.6627H25.6634H25.664H25.6647H25.6654H25.666H25.6667H25.6673H25.668H25.6686H25.6693H25.6699H25.6706H25.6712H25.6719H25.6725H25.6731H25.6738H25.6744H25.6751H25.6757H25.6764H25.677H25.6776H25.6783H25.6789H25.6795H25.6802H25.6808H25.6814H25.6821H25.6827H25.6833H25.684H25.6846H25.6852H25.6859H25.6865H25.6871H25.6878H25.6884H25.689H25.6896H25.6903H25.6909H25.6915H25.6921H25.6927H25.6934H25.694H25.6946H25.6952H25.6958H25.6965H25.6971H25.6977H25.6983H25.6989H25.6995H25.7002H25.7008H25.7014H25.702H25.7026H25.7032H25.7038H25.7044H25.705H25.7057H25.7063H25.7069H25.7075H25.7081H25.7087H25.7093H25.7099H25.7105H25.7111H25.7117H25.7123H25.7129H25.7135H25.7141H25.7147H25.7153H25.7159H25.7165H25.7171H25.7177H25.7183H25.7189H25.7195H25.7201H25.7207H25.7213H25.7219H25.7225H25.7231H25.7237H25.7243H25.7249H25.7255H25.726H25.7266H25.7272H25.7278H25.7284H25.729H25.7296H25.7302H25.7308H25.7314H25.7319H25.7325H25.7331H25.7337H25.7343H25.7349H25.7355H25.7361H25.7366H25.7372H25.7378H25.7384H25.739H25.7396H25.7401H25.7407H25.7413H25.7419H25.7425H25.7431H25.7436H25.7442H25.7448H25.7454H25.746H25.7465H25.7471H25.7477H25.7483H25.7489H25.7494H25.75H25.7506H25.7512H25.7517H25.7523H25.7529H25.7535H25.7541H25.7546H25.7552H25.7558H25.7564H25.7569H25.7575H25.7581H25.7587H25.7592H25.7598H25.7604H25.761H25.7615H25.7621H25.7627H25.7633H25.7638H25.7644H25.765H25.7656H25.7661H25.7667H25.7673H25.7678H25.7684H25.769H25.7696H25.7701H25.7707H25.7713H25.7719H25.7724H25.773H25.7736H25.7741H25.7747H25.7753H25.7759H25.7764H25.777H25.7776H25.7781H25.7787H25.7793H25.7799H25.7804H25.781H25.7816H25.7903L25.7984 45.2233C26.921 44.8211 28.0191 44.3937 29.1165 43.9666L29.1168 43.9665C30.2144 43.5392 31.3114 43.1123 32.4326 42.7105L32.4326 42.7106L32.4348 42.7097C32.6852 42.6065 32.8429 42.4745 32.9233 42.3225C33.0043 42.1696 33.003 42.0042 32.9511 41.8439C32.9001 41.6862 32.8189 41.5672 32.6744 41.5226C32.535 41.4795 32.3505 41.5106 32.1047 41.6118C31.032 42.0136 29.9349 42.4155 28.8375 42.8175L28.8374 42.8176C27.7428 43.2185 26.648 43.6196 25.5774 44.0206C25.5292 44.0207 25.4562 44.0213 25.3934 44.0342C25.3602 44.0411 25.3248 44.0523 25.2967 44.0723C25.2697 44.0916 25.2484 44.1202 25.2444 44.1583C25.1495 44.354 25.0486 44.5627 25.0486 44.7742C25.0486 44.893 25.107 44.9803 25.1725 45.0478C25.2051 45.0813 25.2405 45.1111 25.2724 45.1377L25.2769 45.1414C25.3077 45.1672 25.3343 45.1893 25.3554 45.2111Z" fill="#042440" stroke="#042440" stroke-width="0.1"/>
<path d="M32.4633 48.0019L32.4894 47.91L32.399 47.941C31.0471 48.4053 29.7257 48.9038 28.419 49.3968C27.4633 49.7573 26.5154 50.1149 25.5691 50.4541L25.4655 50.4912L25.5616 50.5448C26.7485 51.2072 28.3011 51.1797 29.6398 50.6862C30.9781 50.1929 32.116 49.2287 32.4633 48.0019Z" fill="#042440" stroke="#042440" stroke-width="0.1"/>
<path d="M29.5388 14.0154V14.0131V14.0107V14.0083V14.006V14.0036V14.0013V13.9989V13.9966V13.9942V13.9919V13.9895V13.9871V13.9848V13.9824V13.9801V13.9777V13.9754V13.973V13.9707V13.9683V13.9659V13.9636V13.9612V13.9589V13.9565V13.9542V13.9518V13.9495V13.9471V13.9447V13.9424V13.94V13.9377V13.9353V13.933V13.9306V13.9282V13.9259V13.9235V13.9212V13.9188V13.9165V13.9141V13.9118V13.9094V13.907V13.9047V13.9023V13.9V13.8976V13.8953V13.8929V13.8906V13.8882V13.8858V13.8835V13.8811V13.8788V13.8764V13.8741V13.8717V13.8694V13.867V13.8646V13.8623V13.8599V13.8576V13.8552V13.8529V13.8505V13.8482V13.8458V13.8434V13.8411V13.8387V13.8364V13.834V13.8317V13.8293V13.8269V13.8246V13.8222V13.8199V13.8175V13.8152V13.8128V13.8105V13.8081V13.8057V13.8034V13.801V13.7987V13.7963V13.794V13.7916V13.7893V13.7869V13.7845V13.7822V13.7798V13.7775V13.7751V13.7728V13.7704V13.7681V13.7657V13.7633V13.761V13.7586V13.7563V13.7539V13.7516V13.7492V13.7469V13.7445V13.7421V13.7398V13.7374V13.7351V13.7327V13.7304V13.728V13.7257V13.7233V13.7209V13.7186V13.7162V13.7139V13.7115V13.7092V13.7068V13.7044V13.7021V13.6997V13.6974V13.695V13.6927V13.6903V13.688V13.6856V13.6832V13.6809V13.6785V13.6762V13.6738V13.6715V13.6691V13.6668V13.6644V13.662V13.6597V13.6573V13.655V13.6526V13.6503V13.6479V13.6456V13.6432V13.6408V13.6385V13.6361V13.6338V13.6314V13.6291V13.6267V13.6244V13.622V13.6196V13.6173V13.6149V13.6126V13.6102V13.6079V13.6055V13.6031V13.6008V13.5984V13.5961V13.5937V13.5914V13.589V13.5867V13.5843V13.5819V13.5796V13.5772V13.5749V13.5725V13.5702V13.5678V13.5655V13.5631V13.5607V13.5584V13.556V13.5537V13.5513V13.549V13.5466V13.5443V13.5419V13.5395V13.5372V13.5348V13.5325V13.5301V13.5278V13.5254V13.5231V13.5207V13.5183V13.516V13.5136V13.5113V13.5089V13.5066V13.5042V13.5018V13.4995V13.4971V13.4948V13.4924V13.4901V13.4877V13.4854V13.483V13.4806V13.4783V13.4759V13.4736V13.4712V13.4689V13.4665V13.4642V13.4618V13.4594V13.4571V13.4547V13.4524V13.45V13.4477V13.4453V13.443V13.4406V13.4382V13.4359V13.4335V13.4312V13.4288V13.4265V13.4241V13.4218V13.4194V13.417V13.4147V13.4123V13.41V13.4076V13.4053V13.4029V13.4006V13.3982V13.3958V13.3935V13.3911V13.3888V13.3864V13.3841V13.3817V13.3793V13.377V13.3746V13.3723V13.3699V13.3676V13.3652V13.3629V13.3605V13.3581V13.3558V13.3534V13.3511V13.3487V13.3464V13.344V13.3417V13.3393V13.3369V13.3346V13.3322V13.3299V13.3275V13.3252V13.3228V13.3205V13.3181V13.3157V13.3134V13.311V13.3087V13.3063V13.304V13.3016V13.2993V13.2969V13.2945V13.2922V13.2898V13.2875V13.2851V13.2828V13.2804V13.278V13.2757V13.2733V13.271V13.2686V13.2663V13.2639V13.2616V13.2592V13.2568V13.2545V13.2521V13.2498V13.2474V13.2451V13.2427V13.2404V13.238V13.2356V13.2333V13.2309V13.2286V13.2262V13.2239V13.2215V13.2192V13.2168V13.2144V13.2121V13.2097V13.2074V13.205V13.2027V13.2003V13.198V13.1956V13.1932V13.1909V13.1885V13.1862V13.1838V13.1815V13.1791V13.1768V13.1744V13.172V13.1697V13.1673V13.165V13.1626V13.1603V13.1579V13.1555V13.1532V13.1508V13.1485V13.1461V13.1438V13.1414V13.1391V13.1367V13.1343V13.132V13.1296V13.1273V13.1249V13.1226V13.1202V13.1179V13.1155V13.1131V13.1108V13.1084V13.1061V13.1037V13.1014V13.099V13.0967V13.0943V13.0919V13.0896V13.0872V13.0849V13.0825V13.0802V13.0778V13.0755V13.0731V13.0707V13.0684V13.066V13.0637V13.0613V13.059V13.0566V13.0542V13.0519V13.0495V13.0472V13.0448V13.0425V13.0401V13.0378V13.0354V13.033V13.0307V13.0283V13.026V13.0236V13.0213V13.0189V13.0166V13.0142V13.0118V13.0095V13.0071V13.0048V13.0024V13.0001V12.9977V12.9954V12.993V12.9906V12.9883V12.9859V12.9836V12.9812V12.9789V12.9765V12.9742V12.9718V12.9694V12.9671V12.9647V12.9624V12.96V12.9577V12.9553V12.953V12.9506V12.9482V12.9459V12.9435V12.9412V12.9388V12.9365V12.9341V12.9317V12.9294V12.927V12.9247V12.9223V12.92V12.9176V12.9153V12.9129V12.9105V12.9082V12.9058V12.9035V12.9011V12.8988V12.8964V12.8941V12.8917V12.8893V12.887V12.8846V12.8823V12.8799V12.8776V12.8752V12.8729V12.8705V12.8681V12.8658V12.8634V12.8611V12.8587V12.8564V12.854V12.8517V12.8493V12.8469V12.8446V12.8422V12.8399V12.8375V12.8352V12.8328V12.8304V12.8281V12.8257V12.8234V12.821V12.8187V12.8163V12.814V12.8116V12.8092V12.8069V12.8045V12.8022V12.7998V12.7974V12.7951V12.7927V12.7903V12.788V12.7856V12.7832V12.7808V12.7784V12.776V12.7737V12.7713V12.7689V12.7665V12.7641V12.7617V12.7593V12.7569V12.7545V12.7521V12.7497V12.7472V12.7448V12.7424V12.74V12.7376V12.7352V12.7327V12.7303V12.7279V12.7254V12.723V12.7206V12.7181V12.7157V12.7133V12.7108V12.7084V12.7059V12.7035V12.701V12.6986V12.6961V12.6937V12.6912V12.6888V12.6863V12.6838V12.6814V12.6789V12.6764V12.674V12.6715V12.669V12.6666V12.6641V12.6616V12.6591V12.6566V12.6542V12.6517V12.6492V12.6467V12.6442V12.6417V12.6392V12.6367V12.6342V12.6317V12.6292V12.6267V12.6242V12.6217V12.6192V12.6167V12.6142V12.6117V12.6092V12.6066V12.6041V12.6016V12.5991V12.5966V12.5941V12.5915V12.589V12.5865V12.5839V12.5814V12.5789V12.5763V12.5738V12.5713V12.5687V12.5662V12.5637V12.5611V12.5586V12.556V12.5535V12.5509V12.5484V12.5458V12.5433V12.5407V12.5382V12.5356V12.5331V12.5305V12.528V12.5254V12.5228V12.5203V12.5177V12.5151V12.5126V12.51V12.5074V12.5049V12.5023V12.4997V12.4972V12.4946V12.492V12.4894V12.4868V12.4843V12.4817V12.4791V12.4765V12.4739V12.4714V12.4688V12.4662V12.4636V12.461V12.4584V12.4558V12.4532V12.4506V12.448V12.4454V12.4428V12.4402V12.4377V12.4351V12.4325V12.4299V12.4272V12.4246V12.422V12.4194V12.4168V12.4142V12.4116V12.409V12.4064V12.4038V12.4012V12.3986V12.396V12.3933V12.3907V12.3881V12.3855V12.3829V12.3803V12.3776V12.375V12.3724V12.3698V12.3672V12.3645V12.3619V12.3593V12.3567V12.354V12.3514V12.3488V12.3462V12.3435V12.3409V12.3383V12.3357V12.333V12.3304V12.3278V12.3251V12.3225V12.3199V12.3172V12.3146V12.312V12.3093V12.3067V12.3041V12.3014V12.2988V12.2961V12.2935V12.2909V12.2882V12.2856V12.283V12.2803V12.2777V12.275V12.2724V12.2698V12.2671V12.2645V12.2618V12.2592V12.2565V12.2539V12.2512V12.2486V12.246V12.2433V12.2407V12.238V12.2354V12.2327V12.2301V12.2274V12.2248V12.2221V12.2195V12.2168V12.2142V12.2115V12.2089V12.2063V12.2036V12.201V12.1983V12.1957V12.193V12.1904V12.1877V12.1851V12.1824V12.1798V12.1771V12.1745V12.1718V12.1692V12.1665V12.1639V12.1612V12.1586V12.1559V12.1533V12.1506V12.148V12.1453V12.1427V12.14V12.1374V12.1347V12.1321V12.1294V12.1268V12.1241V12.1215V12.1188V12.1162V12.1135V12.1109V12.1082V12.1056V12.1029V12.1003V12.0976V12.095V12.0923V12.0897V12.087V12.0844V12.0817V12.0791V12.0764V12.0738V12.0711V12.0685V12.0659V12.0632V12.0606V12.0579V12.0553V12.0526V12.05V12.0474V12.0447V12.0421V12.0394V12.0368V12.0341V12.0315V12.0289V12.0262V12.0236V12.0209V12.0183V12.0157V12.013V12.0104V12.0078V12.0051V12.0025V11.9999V11.9972V11.9946V11.9919V11.9893V11.9867V11.9841V11.9814V11.9788V11.9762V11.9735V11.9709V11.9683V11.9656V11.963V11.9604V11.9578V11.9551V11.9525V11.9499V11.9473V11.9447V11.942V11.9394V11.9368V11.9342V11.9316V11.9289V11.9263V11.9237V11.9211V11.9185V11.9159V11.9132V11.9106V11.908V11.9054V11.9028V11.9002V11.8976V11.895V11.8924V11.8898V11.8872V11.8846V11.882V11.8794V11.8768V11.8742V11.8716V11.869V11.8664V11.8638V11.8612V11.8586V11.856V11.8534V11.8508V11.8482V11.8456V11.8431V11.8405V11.8379V11.8353V11.8327V11.8301V11.8276V11.825V11.8224V11.8198V11.8172V11.8147V11.8121V11.8095V11.8069V11.8044V11.8018V11.7992V11.7967V11.7941V11.7915V11.789V11.7864V11.7839V11.7813V11.7787V11.7762V11.7736V11.7711V11.7685V11.766V11.7634V11.7609V11.7583V11.7558V11.7532V11.7507V11.7482V11.7456V11.7431V11.7405V11.738V11.7355V11.7329V11.7304V11.7279V11.7253V11.7228V11.7203V11.7178V11.7152V11.7127V11.7102V11.7077V11.7052V11.7027V11.7001V11.6976V11.6951V11.6926V11.6901V11.6876V11.6851V11.6826V11.6801V11.6776V11.6751V11.6726V11.6701V11.6676V11.6651V11.6626V11.6601V11.6577V11.6552V11.6527V11.6502V11.6477V11.6453V11.6428V11.6403V11.6378V11.6354V11.6329V11.6304V11.628V11.6255V11.623V11.6206V11.6181V11.6157V11.6132V11.6108V11.6083V11.6059V11.6034V11.601V11.5985V11.5961V11.5937V11.5912V11.5888V11.5864V11.5839V11.5815V11.5791V11.5767V11.5742V11.5718V11.5694V11.567V11.5646V11.5622V11.5597V11.5573V11.5549V11.5525V11.5501V11.5477V11.5453V11.5429V11.5405V11.5382V11.5358V11.5334V11.531V11.5286V11.5262V11.5239V11.5215V11.5191V11.5167V11.5144V11.512V11.5096V11.5073V11.5049V11.5026C29.5388 11.3409 29.4863 11.2021 29.3905 11.1034C29.2946 11.0046 29.1591 10.95 29.001 10.95C28.8428 10.95 28.7074 11.0046 28.6115 11.1034C28.5157 11.2021 28.4632 11.3409 28.4632 11.5026V11.5079V11.5132V11.5185V11.5238V11.529V11.5343V11.5396V11.5449V11.5502V11.5555V11.5607V11.566V11.5713V11.5766V11.5818V11.5871V11.5923V11.5976V11.6029V11.6081V11.6134V11.6186V11.6239V11.6291V11.6344V11.6396V11.6449V11.6501V11.6553V11.6606V11.6658V11.671V11.6763V11.6815V11.6867V11.6919V11.6972V11.7024V11.7076V11.7128V11.718V11.7232V11.7284V11.7336V11.7388V11.744V11.7492V11.7544V11.7596V11.7648V11.77V11.7752V11.7804V11.7856V11.7907V11.7959V11.8011V11.8063V11.8114V11.8166V11.8218V11.827V11.8321V11.8373V11.8424V11.8476V11.8528V11.8579V11.8631V11.8682V11.8734V11.8785V11.8837V11.8888V11.894V11.8991V11.9042V11.9094V11.9145V11.9196V11.9248V11.9299V11.935V11.9401V11.9453V11.9504V11.9555V11.9606V11.9657V11.9708V11.976V11.9811V11.9862V11.9913V11.9964V12.0015V12.0066V12.0117V12.0168V12.0219V12.027V12.032V12.0371V12.0422V12.0473V12.0524V12.0575V12.0626V12.0676V12.0727V12.0778V12.0829V12.0879V12.093V12.0981V12.1031V12.1082V12.1132V12.1183V12.1234V12.1284V12.1335V12.1385V12.1436V12.1486V12.1537V12.1587V12.1638V12.1688V12.1738V12.1789V12.1839V12.189V12.194V12.199V12.204V12.2091V12.2141V12.2191V12.2242V12.2292V12.2342V12.2392V12.2442V12.2492V12.2543V12.2593V12.2643V12.2693V12.2743V12.2793V12.2843V12.2893V12.2943V12.2993V12.3043V12.3093V12.3143V12.3193V12.3243V12.3293V12.3343V12.3392V12.3442V12.3492V12.3542V12.3592V12.3641V12.3691V12.3741V12.3791V12.384V12.389V12.394V12.3989V12.4039V12.4089V12.4138V12.4188V12.4238V12.4287V12.4337V12.4386V12.4436V12.4485V12.4535V12.4584V12.4634V12.4683V12.4733V12.4782V12.4832V12.4881V12.493V12.498V12.5029V12.5079V12.5128V12.5177V12.5227V12.5276V12.5325V12.5374V12.5424V12.5473V12.5522V12.5571V12.5621V12.567V12.5719V12.5768V12.5817V12.5866V12.5915V12.5965V12.6014V12.6063V12.6112V12.6161V12.621V12.6259V12.6308V12.6357V12.6406V12.6455V12.6504V12.6553V12.6602V12.6651V12.67V12.6748V12.6797V12.6846V12.6895V12.6944V12.6993V12.7042V12.709V12.7139V12.7188V12.7237V12.7285V12.7334V12.7383V12.7432V12.748V12.7529V12.7578V12.7626V12.7675V12.7724V12.7772V12.7821V12.787V12.7918V12.7967V12.8015V12.8064V12.8113V12.8161V12.821V12.8258V12.8307V12.8355V12.8404V12.8452V12.8501V12.8549V12.8598V12.8646V12.8694V12.8743V12.8791V12.884V12.8888V12.8936V12.8985V12.9033V12.9081V12.913V12.9178V12.9226V12.9275V12.9323V12.9371V12.942V12.9468V12.9516V12.9564V12.9612V12.9661V12.9709V12.9757V12.9805V12.9853V12.9902V12.995V12.9998V13.0046V13.0094V13.0142V13.019V13.0239V13.0287V13.0335V13.0383V13.0431V13.0479V13.0527V13.0575V13.0623V13.0671V13.0719V13.0767V13.0815V13.0863V13.0911V13.0959V13.1007V13.1055V13.1103V13.1151V13.1199V13.1247V13.1294V13.1342V13.139V13.1438V13.1486V13.1534V13.1582V13.163V13.1677V13.1725V13.1773V13.1821V13.1869V13.1917V13.1964V13.2012V13.206V13.2108V13.2155V13.2203V13.2251V13.2299V13.2346V13.2394V13.2442V13.249V13.2537V13.2585V13.2633V13.268V13.2728V13.2776V13.2823V13.2871V13.2919V13.2966V13.3014V13.3061V13.3109V13.3157V13.3204V13.3252V13.3299V13.3347V13.3395V13.3442V13.349V13.3537V13.3585V13.3632V13.368V13.3728V13.3775V13.3823V13.387V13.3918V13.3965V13.4013V13.406V13.4108V13.4155V13.4203V13.425V13.4297V13.4345V13.4392V13.444V13.4487V13.4535V13.4582V13.463V13.4677V13.4724V13.4772V13.4819V13.4867V13.4914V13.4961V13.5009V13.5056V13.5104V13.5151V13.5198V13.5246V13.5293V13.534V13.5388V13.5435V13.5482V13.553V13.5577V13.5624V13.5672V13.5719V13.5766V13.5814V13.5861V13.5908V13.5956V13.6003V13.605V13.6097V13.6145V13.6192V13.6239V13.6286V13.6334V13.6381V13.6428V13.6476V13.6523V13.657V13.6617V13.6665V13.6712V13.6759V13.6806V13.6853V13.6901V13.6948V13.6995V13.7042V13.709V13.7137V13.7184V13.7231V13.7278V13.7326V13.7373V13.742V13.7467V13.7514V13.7562V13.7609V13.7656V13.7703V13.775V13.7797V13.7845V13.7892V13.7939V13.7986V13.8033V13.808V13.8128V13.8175V13.8222V13.8269V13.8316V13.8363V13.841V13.8458V13.8505V13.8552V13.8599V13.8646V13.8693V13.874V13.8788V13.8835V13.8882V13.8929V13.8976V13.9023V13.907V13.9117V13.9165V13.9212V13.9259V13.9306V13.9353V13.94V13.9447V13.9494V13.9542V13.9589V13.9636V13.9683V13.973V13.9777V13.9824V13.9871V13.9919V13.9966V14.0013V14.006V14.0107V14.0154C28.4632 14.1771 28.5157 14.3159 28.6115 14.4146C28.7074 14.5134 28.8428 14.568 29.001 14.568C29.1591 14.568 29.2946 14.5134 29.3905 14.4146C29.4863 14.3159 29.5388 14.1771 29.5388 14.0154Z" fill="#042440" stroke="#042440" stroke-width="0.1"/>
<path d="M15.9268 26.8318H15.9245H15.9223H15.92H15.9177H15.9154H15.9131H15.9108H15.9085H15.9063H15.904H15.9017H15.8994H15.8971H15.8948H15.8925H15.8902H15.888H15.8857H15.8834H15.8811H15.8788H15.8765H15.8742H15.872H15.8697H15.8674H15.8651H15.8628H15.8605H15.8582H15.8559H15.8537H15.8514H15.8491H15.8468H15.8445H15.8422H15.8399H15.8377H15.8354H15.8331H15.8308H15.8285H15.8262H15.8239H15.8217H15.8194H15.8171H15.8148H15.8125H15.8102H15.8079H15.8056H15.8034H15.8011H15.7988H15.7965H15.7942H15.7919H15.7896H15.7874H15.7851H15.7828H15.7805H15.7782H15.7759H15.7736H15.7713H15.7691H15.7668H15.7645H15.7622H15.7599H15.7576H15.7553H15.7531H15.7508H15.7485H15.7462H15.7439H15.7416H15.7393H15.737H15.7348H15.7325H15.7302H15.7279H15.7256H15.7233H15.721H15.7188H15.7165H15.7142H15.7119H15.7096H15.7073H15.705H15.7027H15.7005H15.6982H15.6959H15.6936H15.6913H15.689H15.6867H15.6845H15.6822H15.6799H15.6776H15.6753H15.673H15.6707H15.6684H15.6662H15.6639H15.6616H15.6593H15.657H15.6547H15.6524H15.6502H15.6479H15.6456H15.6433H15.641H15.6387H15.6364H15.6341H15.6319H15.6296H15.6273H15.625H15.6227H15.6204H15.6181H15.6159H15.6136H15.6113H15.609H15.6067H15.6044H15.6021H15.5998H15.5976H15.5953H15.593H15.5907H15.5884H15.5861H15.5838H15.5816H15.5793H15.577H15.5747H15.5724H15.5701H15.5678H15.5655H15.5633H15.561H15.5587H15.5564H15.5541H15.5518H15.5495H15.5473H15.545H15.5427H15.5404H15.5381H15.5358H15.5335H15.5313H15.529H15.5267H15.5244H15.5221H15.5198H15.5175H15.5152H15.513H15.5107H15.5084H15.5061H15.5038H15.5015H15.4992H15.497H15.4947H15.4924H15.4901H15.4878H15.4855H15.4832H15.4809H15.4787H15.4764H15.4741H15.4718H15.4695H15.4672H15.4649H15.4627H15.4604H15.4581H15.4558H15.4535H15.4512H15.4489H15.4466H15.4444H15.4421H15.4398H15.4375H15.4352H15.4329H15.4306H15.4284H15.4261H15.4238H15.4215H15.4192H15.4169H15.4146H15.4123H15.4101H15.4078H15.4055H15.4032H15.4009H15.3986H15.3963H15.3941H15.3918H15.3895H15.3872H15.3849H15.3826H15.3803H15.378H15.3758H15.3735H15.3712H15.3689H15.3666H15.3643H15.362H15.3598H15.3575H15.3552H15.3529H15.3506H15.3483H15.346H15.3437H15.3415H15.3392H15.3369H15.3346H15.3323H15.33H15.3277H15.3255H15.3232H15.3209H15.3186H15.3163H15.314H15.3117H15.3094H15.3072H15.3049H15.3026H15.3003H15.298H15.2957H15.2934H15.2912H15.2889H15.2866H15.2843H15.282H15.2797H15.2774H15.2751H15.2729H15.2706H15.2683H15.266H15.2637H15.2614H15.2591H15.2569H15.2546H15.2523H15.25H15.2477H15.2454H15.2431H15.2408H15.2386H15.2363H15.234H15.2317H15.2294H15.2271H15.2248H15.2226H15.2203H15.218H15.2157H15.2134H15.2111H15.2088H15.2066H15.2043H15.202H15.1997H15.1974H15.1951H15.1928H15.1905H15.1883H15.186H15.1837H15.1814H15.1791H15.1768H15.1745H15.1723H15.17H15.1677H15.1654H15.1631H15.1608H15.1585H15.1562H15.154H15.1517H15.1494H15.1471H15.1448H15.1425H15.1402H15.138H15.1357H15.1334H15.1311H15.1288H15.1265H15.1242H15.1219H15.1197H15.1174H15.1151H15.1128H15.1105H15.1082H15.1059H15.1037H15.1014H15.0991H15.0968H15.0945H15.0922H15.0899H15.0876H15.0854H15.0831H15.0808H15.0785H15.0762H15.0739H15.0716H15.0694H15.0671H15.0648H15.0625H15.0602H15.0579H15.0556H15.0533H15.0511H15.0488H15.0465H15.0442H15.0419H15.0396H15.0373H15.0351H15.0328H15.0305H15.0282H15.0259H15.0236H15.0213H15.019H15.0168H15.0145H15.0122H15.0099H15.0076H15.0053H15.003H15.0008H14.9985H14.9962H14.9939H14.9916H14.9893H14.987H14.9847H14.9825H14.9802H14.9779H14.9756H14.9733H14.971H14.9687H14.9665H14.9642H14.9619H14.9596H14.9573H14.955H14.9527H14.9504H14.9482H14.9459H14.9436H14.9413H14.939H14.9367H14.9344H14.9322H14.9299H14.9276H14.9253H14.923H14.9207H14.9184H14.9161H14.9139H14.9116H14.9093H14.907H14.9047H14.9024H14.9001H14.8979H14.8956H14.8933H14.891H14.8887H14.8864H14.8841H14.8819H14.8796H14.8773H14.875H14.8727H14.8704H14.8681H14.8658H14.8636H14.8613H14.859H14.8567H14.8544H14.8521H14.8498H14.8476H14.8453H14.843H14.8407H14.8384H14.8361H14.8338H14.8315H14.8293H14.827H14.8247H14.8224H14.8201H14.8178H14.8155H14.8133H14.811H14.8087H14.8064H14.8041H14.8018H14.7995H14.7972H14.795H14.7927H14.7904H14.7881H14.7858H14.7835H14.7812H14.779H14.7767H14.7744H14.7721H14.7698H14.7675H14.7652H14.7629H14.7607H14.7584H14.7561H14.7538H14.7515H14.7492H14.7469H14.7447H14.7424H14.7401H14.7378H14.7355H14.7332H14.7309H14.7286H14.7264H14.7241H14.7218H14.7195H14.7172H14.7149H14.7126H14.7104H14.7081H14.7058H14.7035H14.7012H14.6989H14.6966H14.6944H14.6921H14.6898H14.6875H14.6852H14.6829H14.6806H14.6783H14.6761H14.6738H14.6715H14.6692H14.6669H14.6646H14.6623H14.6601H14.6578H14.6555H14.6532H14.6509H14.6486H14.6463H14.644H14.6418H14.6395H14.6372H14.6349H14.6326H14.6303H14.628H14.6258H14.6235H14.6212H14.6189H14.6166H14.6143H14.612H14.6097H14.6075H14.6052H14.6029H14.6006H14.5983H14.596H14.5937H14.5915H14.5892H14.5869H14.5846H14.5823H14.58H14.5777H14.5754H14.5732H14.5709H14.5686H14.5663H14.564H14.5617H14.5594H14.5572H14.5549H14.5526H14.5503H14.548H14.5457H14.5434H14.5412H14.5389H14.5366H14.5343H14.532H14.5297H14.5274H14.5251H14.5229H14.5206H14.5183H14.516H14.5137H14.5114H14.5091H14.5069H14.5046H14.5023H14.5H14.4977H14.4954H14.4931H14.4908H14.4886H14.4863H14.484H14.4817H14.4794H14.4771H14.4748H14.4726H14.4703H14.468H14.4657H14.4634H14.4611H14.4588H14.4565H14.4543H14.452H14.4497H14.4474H14.4451H14.4428H14.4405H14.4383H14.436H14.4337H14.4314H14.4291H14.4268H14.4245H14.4222H14.42H14.4177H14.4154H14.4131H14.4108H14.4085H14.4062H14.404H14.4017H14.3994H14.3971H14.3948H14.3925H14.3902H14.388H14.3857H14.3834H14.3811H14.3788H14.3765H14.3742H14.3719H14.3697H14.3674H14.3651H14.3628H14.3605H14.3582H14.3559H14.3537H14.3514H14.3491H14.3468H14.3445H14.3422H14.3399H14.3376H14.3354H14.3331H14.3308H14.3285H14.3262H14.3239H14.3216H14.3194H14.3171H14.3148H14.3125H14.3102H14.3079H14.3056H14.3033H14.3011H14.2988H14.2965H14.2942H14.2919H14.2896H14.2873H14.2851H14.2828H14.2805H14.2782H14.2759H14.2736H14.2713H14.2691H14.2668H14.2645H14.2622H14.2599H14.2576H14.2553H14.253H14.2508H14.2485H14.2462H14.2439H14.2416H14.2393H14.237H14.2348H14.2325H14.2302H14.2279H14.2256H14.2233H14.221H14.2187H14.2165H14.2142H14.2119H14.2096H14.2073H14.205H14.2027H14.2005H14.1982H14.1959H14.1936H14.1913H14.189H14.1867H14.1844H14.1822H14.1799H14.1776H14.1753H14.173H14.1707H14.1684H14.1662H14.1639H14.1616H14.1593H14.157H14.1547H14.1524H14.1502H14.1479H14.1456H14.1433H14.141H14.1387H14.1364H14.1341H14.1319H14.1296H14.1273H14.125H14.1227H14.1204H14.1181H14.1159H14.1136H14.1113H14.109H14.1067H14.1044H14.1021H14.0998H14.0976H14.0953H14.093H14.0907H14.0884H14.0861H14.0838H14.0816H14.0793H14.077H14.0747H14.0724H14.0701H14.0678H14.0655H14.0633H14.061H14.0587H14.0564H14.0541H14.0518H14.0495H14.0473H14.045H14.0427H14.0404H14.0381H14.0358H14.0335H14.0313H14.029H14.0267H14.0244H14.0221H14.0198H14.0175H14.0152H14.013H14.0107H14.0084H14.0061H14.0038H14.0015H13.9992H13.997H13.9947H13.9924H13.9901H13.9878H13.9855H13.9832H13.9809H13.9787H13.9764H13.9741H13.9718H13.9695H13.9672H13.9649H13.9627H13.9604H13.9581H13.9558H13.9535H13.9512H13.9489H13.9466H13.9444H13.9421H13.9398H13.9375H13.9352H13.9329H13.9306H13.9284H13.9261H13.9238H13.9215H13.9192H13.9169H13.9146H13.9124H13.9101H13.9078H13.9055H13.9032H13.9009H13.8986H13.8963H13.8941H13.8918H13.8895H13.8872H13.8849H13.8826H13.8803H13.8781H13.8758H13.8735H13.8712H13.8689H13.8666H13.8643H13.862H13.8598H13.8575H13.8552H13.8529H13.8506H13.8483H13.846H13.8438H13.8415H13.8392H13.8369H13.8346H13.8323H13.83H13.8277H13.8255H13.8232H13.8209H13.8186H13.8163H13.814H13.8117H13.8095H13.8072H13.8049H13.8026H13.8003H13.798H13.7957H13.7935H13.7912H13.7889H13.7866H13.7843H13.782H13.7797H13.7774H13.7752H13.7729H13.7706H13.7683H13.766H13.7637H13.7614H13.7592H13.7569H13.7546H13.7523H13.75H13.7477H13.7454H13.7431H13.7409H13.7386H13.7363H13.734H13.7317H13.7294H13.7271H13.7249H13.7226H13.7203H13.718H13.7157H13.7134H13.7111H13.7088H13.7066H13.7043H13.702H13.6997H13.6974H13.6951H13.6928H13.6906H13.6883H13.686H13.6837H13.6814H13.6791H13.6768H13.6745H13.6723H13.67H13.6677H13.6654H13.6631H13.6608H13.6585H13.6563H13.654H13.6517H13.6494H13.6471H13.6448H13.6425H13.6403H13.638H13.6357H13.6334H13.6311H13.6288H13.6265H13.6242H13.622H13.6197H13.6174H13.6151H13.6128H13.6105H13.6082H13.606H13.6037H13.6014H13.5991H13.5968H13.5945H13.5922H13.5899H13.5877H13.5854C13.3821 26.8318 13.2223 26.8842 13.1129 26.9829C13.0027 27.0822 12.95 27.2225 12.95 27.3844C12.95 27.5463 13.0027 27.6866 13.1129 27.7859C13.2223 27.8846 13.3821 27.937 13.5854 27.937H13.5899H13.5945H13.5991H13.6037H13.6082H13.6128H13.6174H13.622H13.6265H13.6311H13.6357H13.6403H13.6448H13.6494H13.654H13.6585H13.6631H13.6677H13.6723H13.6768H13.6814H13.686H13.6906H13.6951H13.6997H13.7043H13.7088H13.7134H13.718H13.7226H13.7271H13.7317H13.7363H13.7409H13.7454H13.75H13.7546H13.7592H13.7637H13.7683H13.7729H13.7774H13.782H13.7866H13.7912H13.7957H13.8003H13.8049H13.8095H13.814H13.8186H13.8232H13.8278H13.8323H13.8369H13.8415H13.846H13.8506H13.8552H13.8598H13.8643H13.8689H13.8735H13.8781H13.8826H13.8872H13.8918H13.8963H13.9009H13.9055H13.9101H13.9146H13.9192H13.9238H13.9284H13.9329H13.9375H13.9421H13.9467H13.9512H13.9558H13.9604H13.9649H13.9695H13.9741H13.9787H13.9832H13.9878H13.9924H13.997H14.0015H14.0061H14.0107H14.0153H14.0198H14.0244H14.029H14.0335H14.0381H14.0427H14.0473H14.0518H14.0564H14.061H14.0656H14.0701H14.0747H14.0793H14.0838H14.0884H14.093H14.0976H14.1021H14.1067H14.1113H14.1159H14.1204H14.125H14.1296H14.1342H14.1387H14.1433H14.1479H14.1524H14.157H14.1616H14.1662H14.1707H14.1753H14.1799H14.1845H14.189H14.1936H14.1982H14.2028H14.2073H14.2119H14.2165H14.221H14.2256H14.2302H14.2348H14.2393H14.2439H14.2485H14.2531H14.2576H14.2622H14.2668H14.2713H14.2759H14.2805H14.2851H14.2896H14.2942H14.2988H14.3034H14.3079H14.3125H14.3171H14.3217H14.3262H14.3308H14.3354H14.3399H14.3445H14.3491H14.3537H14.3582H14.3628H14.3674H14.372H14.3765H14.3811H14.3857H14.3903H14.3948H14.3994H14.404H14.4085H14.4131H14.4177H14.4223H14.4268H14.4314H14.436H14.4406H14.4451H14.4497H14.4543H14.4588H14.4634H14.468H14.4726H14.4771H14.4817H14.4863H14.4909H14.4954H14.5H14.5046H14.5092H14.5137H14.5183H14.5229H14.5274H14.532H14.5366H14.5412H14.5457H14.5503H14.5549H14.5595H14.564H14.5686H14.5732H14.5777H14.5823H14.5869H14.5915H14.596H14.6006H14.6052H14.6098H14.6143H14.6189H14.6235H14.6281H14.6326H14.6372H14.6418H14.6463H14.6509H14.6555H14.6601H14.6646H14.6692H14.6738H14.6784H14.6829H14.6875H14.6921H14.6967H14.7012H14.7058H14.7104H14.7149H14.7195H14.7241H14.7287H14.7332H14.7378H14.7424H14.747H14.7515H14.7561H14.7607H14.7652H14.7698H14.7744H14.779H14.7835H14.7881H14.7927H14.7973H14.8018H14.8064H14.811H14.8156H14.8201H14.8247H14.8293H14.8338H14.8384H14.843H14.8476H14.8521H14.8567H14.8613H14.8659H14.8704H14.875H14.8796H14.8842H14.8887H14.8933H14.8979H14.9024H14.907H14.9116H14.9162H14.9207H14.9253H14.9299H14.9345H14.939H14.9436H14.9482H14.9527H14.9573H14.9619H14.9665H14.971H14.9756H14.9802H14.9848H14.9893H14.9939H14.9985H15.0031H15.0076H15.0122H15.0168H15.0213H15.0259H15.0305H15.0351H15.0396H15.0442H15.0488H15.0534H15.0579H15.0625H15.0671H15.0717H15.0762H15.0808H15.0854H15.0899H15.0945H15.0991H15.1037H15.1082H15.1128H15.1174H15.122H15.1265H15.1311H15.1357H15.1402H15.1448H15.1494H15.154H15.1585H15.1631H15.1677H15.1723H15.1768H15.1814H15.186H15.1906H15.1951H15.1997H15.2043H15.2088H15.2134H15.218H15.2226H15.2271H15.2317H15.2363H15.2409H15.2454H15.25H15.2546H15.2592H15.2637H15.2683H15.2729H15.2774H15.282H15.2866H15.2912H15.2957H15.3003H15.3049H15.3095H15.314H15.3186H15.3232H15.3277H15.3323H15.3369H15.3415H15.346H15.3506H15.3552H15.3598H15.3643H15.3689H15.3735H15.3781H15.3826H15.3872H15.3918H15.3963H15.4009H15.4055H15.4101H15.4146H15.4192H15.4238H15.4284H15.4329H15.4375H15.4421H15.4467H15.4512H15.4558H15.4604H15.4649H15.4695H15.4741H15.4787H15.4832H15.4878H15.4924H15.497H15.5015H15.5061H15.5107H15.5152H15.5198H15.5244H15.529H15.5335H15.5381H15.5427H15.5473H15.5518H15.5564H15.561H15.5656H15.5701H15.5747H15.5793H15.5838H15.5884H15.593H15.5976H15.6021H15.6067H15.6113H15.6159H15.6204H15.625H15.6296H15.6342H15.6387H15.6433H15.6479H15.6524H15.657H15.6616H15.6662H15.6707H15.6753H15.6799H15.6845H15.689H15.6936H15.6982H15.7027H15.7073H15.7119H15.7165H15.721H15.7256H15.7302H15.7348H15.7393H15.7439H15.7485H15.7531H15.7576H15.7622H15.7668H15.7713H15.7759H15.7805H15.7851H15.7896H15.7942H15.7988H15.8034H15.8079H15.8125H15.8171H15.8217H15.8262H15.8308H15.8354H15.8399H15.8445H15.8491H15.8537H15.8582H15.8628H15.8674H15.872H15.8765H15.8811H15.8857H15.8902H15.8948H15.8994H15.904H15.9085H15.9131H15.9177H15.9223H15.9268C16.1301 27.937 16.2899 27.8846 16.3993 27.7859C16.5095 27.6866 16.5622 27.5463 16.5622 27.3844C16.5622 27.2225 16.5095 27.0822 16.3993 26.9829C16.2899 26.8842 16.1301 26.8318 15.9268 26.8318Z" fill="#042440" stroke="#042440" stroke-width="0.1"/>
<path d="M42.0737 28.0356H42.076H42.0783H42.0806H42.0829H42.0852H42.0875H42.0897H42.092H42.0943H42.0966H42.0989H42.1012H42.1035H42.1058H42.108H42.1103H42.1126H42.1149H42.1172H42.1195H42.1218H42.124H42.1263H42.1286H42.1309H42.1332H42.1355H42.1378H42.1401H42.1423H42.1446H42.1469H42.1492H42.1515H42.1538H42.1561H42.1583H42.1606H42.1629H42.1652H42.1675H42.1698H42.1721H42.1744H42.1766H42.1789H42.1812H42.1835H42.1858H42.1881H42.1904H42.1926H42.1949H42.1972H42.1995H42.2018H42.2041H42.2064H42.2087H42.2109H42.2132H42.2155H42.2178H42.2201H42.2224H42.2247H42.2269H42.2292H42.2315H42.2338H42.2361H42.2384H42.2407H42.243H42.2452H42.2475H42.2498H42.2521H42.2544H42.2567H42.259H42.2612H42.2635H42.2658H42.2681H42.2704H42.2727H42.275H42.2773H42.2795H42.2818H42.2841H42.2864H42.2887H42.291H42.2933H42.2955H42.2978H42.3001H42.3024H42.3047H42.307H42.3093H42.3115H42.3138H42.3161H42.3184H42.3207H42.323H42.3253H42.3276H42.3298H42.3321H42.3344H42.3367H42.339H42.3413H42.3436H42.3458H42.3481H42.3504H42.3527H42.355H42.3573H42.3596H42.3619H42.3641H42.3664H42.3687H42.371H42.3733H42.3756H42.3779H42.3801H42.3824H42.3847H42.387H42.3893H42.3916H42.3939H42.3962H42.3984H42.4007H42.403H42.4053H42.4076H42.4099H42.4122H42.4144H42.4167H42.419H42.4213H42.4236H42.4259H42.4282H42.4305H42.4327H42.435H42.4373H42.4396H42.4419H42.4442H42.4465H42.4487H42.451H42.4533H42.4556H42.4579H42.4602H42.4625H42.4648H42.467H42.4693H42.4716H42.4739H42.4762H42.4785H42.4808H42.483H42.4853H42.4876H42.4899H42.4922H42.4945H42.4968H42.4991H42.5013H42.5036H42.5059H42.5082H42.5105H42.5128H42.5151H42.5173H42.5196H42.5219H42.5242H42.5265H42.5288H42.5311H42.5334H42.5356H42.5379H42.5402H42.5425H42.5448H42.5471H42.5494H42.5516H42.5539H42.5562H42.5585H42.5608H42.5631H42.5654H42.5677H42.5699H42.5722H42.5745H42.5768H42.5791H42.5814H42.5837H42.5859H42.5882H42.5905H42.5928H42.5951H42.5974H42.5997H42.602H42.6042H42.6065H42.6088H42.6111H42.6134H42.6157H42.618H42.6202H42.6225H42.6248H42.6271H42.6294H42.6317H42.634H42.6362H42.6385H42.6408H42.6431H42.6454H42.6477H42.65H42.6523H42.6545H42.6568H42.6591H42.6614H42.6637H42.666H42.6683H42.6705H42.6728H42.6751H42.6774H42.6797H42.682H42.6843H42.6866H42.6888H42.6911H42.6934H42.6957H42.698H42.7003H42.7026H42.7048H42.7071H42.7094H42.7117H42.714H42.7163H42.7186H42.7209H42.7231H42.7254H42.7277H42.73H42.7323H42.7346H42.7369H42.7391H42.7414H42.7437H42.746H42.7483H42.7506H42.7529H42.7552H42.7574H42.7597H42.762H42.7643H42.7666H42.7689H42.7712H42.7734H42.7757H42.778H42.7803H42.7826H42.7849H42.7872H42.7895H42.7917H42.794H42.7963H42.7986H42.8009H42.8032H42.8055H42.8077H42.81H42.8123H42.8146H42.8169H42.8192H42.8215H42.8238H42.826H42.8283H42.8306H42.8329H42.8352H42.8375H42.8398H42.842H42.8443H42.8466H42.8489H42.8512H42.8535H42.8558H42.8581H42.8603H42.8626H42.8649H42.8672H42.8695H42.8718H42.8741H42.8763H42.8786H42.8809H42.8832H42.8855H42.8878H42.8901H42.8924H42.8946H42.8969H42.8992H42.9015H42.9038H42.9061H42.9084H42.9106H42.9129H42.9152H42.9175H42.9198H42.9221H42.9244H42.9267H42.9289H42.9312H42.9335H42.9358H42.9381H42.9404H42.9427H42.9449H42.9472H42.9495H42.9518H42.9541H42.9564H42.9587H42.9609H42.9632H42.9655H42.9678H42.9701H42.9724H42.9747H42.977H42.9792H42.9815H42.9838H42.9861H42.9884H42.9907H42.993H42.9952H42.9975H42.9998H43.0021H43.0044H43.0067H43.009H43.0113H43.0135H43.0158H43.0181H43.0204H43.0227H43.025H43.0273H43.0295H43.0318H43.0341H43.0364H43.0387H43.041H43.0433H43.0456H43.0478H43.0501H43.0524H43.0547H43.057H43.0593H43.0616H43.0638H43.0661H43.0684H43.0707H43.073H43.0753H43.0776H43.0799H43.0821H43.0844H43.0867H43.089H43.0913H43.0936H43.0959H43.0981H43.1004H43.1027H43.105H43.1073H43.1096H43.1119H43.1142H43.1164H43.1187H43.121H43.1233H43.1256H43.1279H43.1302H43.1324H43.1347H43.137H43.1393H43.1416H43.1439H43.1462H43.1485H43.1507H43.153H43.1553H43.1576H43.1599H43.1622H43.1645H43.1667H43.169H43.1713H43.1736H43.1759H43.1782H43.1805H43.1828H43.185H43.1873H43.1896H43.1919H43.1942H43.1965H43.1988H43.201H43.2033H43.2056H43.2079H43.2102H43.2125H43.2148H43.217H43.2193H43.2216H43.2239H43.2262H43.2285H43.2308H43.2331H43.2353H43.2376H43.2399H43.2422H43.2445H43.2468H43.2491H43.2513H43.2536H43.2559H43.2582H43.2605H43.2628H43.2651H43.2674H43.2696H43.2719H43.2742H43.2765H43.2788H43.2811H43.2834H43.2857H43.2879H43.2902H43.2925H43.2948H43.2971H43.2994H43.3017H43.304H43.3062H43.3085H43.3108H43.3131H43.3154H43.3177H43.32H43.3223H43.3245H43.3268H43.3291H43.3314H43.3337H43.336H43.3383H43.3406H43.3429H43.3452H43.3475H43.3497H43.352H43.3543H43.3566H43.3589H43.3612H43.3635H43.3658H43.3681H43.3704H43.3727H43.375H43.3773H43.3795H43.3818H43.3841H43.3864H43.3887H43.391H43.3933H43.3956H43.3979H43.4002H43.4025H43.4048H43.4071H43.4094H43.4117H43.414H43.4163H43.4186H43.4209H43.4232H43.4255H43.4278H43.4301H43.4324H43.4347H43.437H43.4393H43.4416H43.4439H43.4462H43.4485H43.4508H43.4531H43.4554H43.4577H43.46H43.4623H43.4646H43.4669H43.4693H43.4716H43.4739H43.4762H43.4785H43.4808H43.4831H43.4854H43.4877H43.49H43.4924H43.4947H43.497H43.4993H43.5016H43.5039H43.5062H43.5085H43.5109H43.5132H43.5155H43.5178H43.5201H43.5225H43.5248H43.5271H43.5294H43.5317H43.5341H43.5364H43.5387H43.541H43.5433H43.5457H43.548H43.5503H43.5526H43.555H43.5573H43.5596H43.5619H43.5643H43.5666H43.5689H43.5713H43.5736H43.5759H43.5783H43.5806H43.5829H43.5853H43.5876H43.5899H43.5923H43.5946H43.5969H43.5993H43.6016H43.604H43.6063H43.6086H43.611H43.6133H43.6157H43.618H43.6203H43.6227H43.625H43.6274H43.6297H43.6321H43.6344H43.6368H43.6391H43.6415H43.6438H43.6462H43.6485H43.6509H43.6532H43.6556H43.658H43.6603H43.6627H43.665H43.6674H43.6697H43.6721H43.6745H43.6768H43.6792H43.6816H43.6839H43.6863H43.6887H43.691H43.6934H43.6958H43.6981H43.7005H43.7029H43.7052H43.7076H43.71H43.7124H43.7147H43.7171H43.7195H43.7219H43.7243H43.7266H43.729H43.7314H43.7338H43.7362H43.7386H43.7409H43.7433H43.7457H43.7481H43.7505H43.7529H43.7553H43.7577H43.7601H43.7625H43.7648H43.7672H43.7696H43.772H43.7744H43.7768H43.7792H43.7816H43.784H43.7865H43.7889H43.7913H43.7937H43.7961H43.7985H43.8009H43.8033H43.8057H43.8081H43.8106H43.813H43.8154H43.8178H43.8202H43.8226H43.8251H43.8275H43.8299H43.8323H43.8348H43.8372H43.8396H43.842H43.8445H43.8469H43.8493H43.8518H43.8542H43.8566H43.8591H43.8615H43.864H43.8664H43.8688H43.8713H43.8737H43.8762H43.8786H43.8811H43.8835H43.886H43.8884H43.8909H43.8933H43.8958H43.8982H43.9007H43.9031H43.9056H43.9081H43.9105H43.913H43.9154H43.9179H43.9204H43.9229H43.9253H43.9278H43.9303H43.9327H43.9352H43.9377H43.9402H43.9426H43.9451H43.9476H43.9501H43.9526H43.9551H43.9575H43.96H43.9625H43.965H43.9675H43.97H43.9725H43.975H43.9775H43.98H43.9825H43.985H43.9875H43.99H43.9925H43.995H43.9975H44H44.0025H44.005H44.0075H44.0101H44.0126H44.0151H44.0176H44.0201H44.0227H44.0252H44.0277H44.0302H44.0328H44.0353H44.0378H44.0403H44.0429H44.0454H44.048H44.0505H44.053H44.0556H44.0581H44.0607H44.0632H44.0657H44.0683H44.0708H44.0734H44.076H44.0785H44.0811H44.0836H44.0862H44.0887H44.0913H44.0939H44.0964H44.099H44.1016H44.1041H44.1067H44.1093H44.1119H44.1144H44.117H44.1196H44.1222H44.1248H44.1273H44.1299H44.1325H44.1351H44.1377H44.1403H44.1429H44.1455H44.1481H44.1507H44.1533H44.1559H44.1585H44.1611H44.1637H44.1663H44.1689H44.1715H44.1741H44.1767H44.1794H44.182H44.1846H44.1872H44.1899H44.1925H44.1951H44.1977H44.2004H44.203H44.2056H44.2083H44.2109H44.2135H44.2162H44.2188H44.2215H44.2241H44.2268H44.2294H44.2321H44.2347H44.2374H44.24H44.2427H44.2454H44.248H44.2507H44.2534H44.256H44.2587H44.2614H44.264H44.2667H44.2694H44.2721H44.2748H44.2774H44.2801H44.2828H44.2855H44.2882H44.2909H44.2936H44.2963H44.299H44.3017H44.3044H44.3071H44.3098H44.3125H44.3152H44.3179H44.3206H44.3233H44.3261H44.3288H44.3315H44.3342H44.337H44.3397H44.3424H44.3451H44.3479H44.3506H44.3533H44.3561H44.3588H44.3616H44.3643H44.3671H44.3698H44.3726H44.3753H44.3781H44.3808H44.3836H44.3863H44.3891H44.3919H44.3946H44.3974H44.4002H44.403H44.4057H44.4085H44.4113H44.4141H44.4169H44.4196H44.4224H44.4252H44.428H44.4308H44.4336H44.4364H44.4392H44.442H44.4448H44.4476H44.4504H44.4532H44.456H44.4589H44.4617H44.4645H44.4673H44.4701H44.473H44.4758H44.4786H44.4815H44.4843H44.4871H44.49H44.4928H44.4957H44.4985H44.5014H44.5042H44.5071H44.5099H44.5128C44.6709 28.0356 44.8064 27.981 44.9023 27.8822C44.9981 27.7836 45.0506 27.6447 45.0506 27.483C45.0506 27.3213 44.9981 27.1825 44.9023 27.0839C44.8064 26.985 44.6709 26.9305 44.5128 26.9305H44.5082H44.5036H44.499H44.4945H44.4899H44.4853H44.4807H44.4761H44.4715H44.4669H44.4623H44.4577H44.4531H44.4485H44.4439H44.4393H44.4347H44.4301H44.4255H44.4209H44.4163H44.4116H44.407H44.4024H44.3978H44.3931H44.3885H44.3839H44.3792H44.3746H44.37H44.3653H44.3607H44.356H44.3514H44.3468H44.3421H44.3375H44.3328H44.3282H44.3235H44.3188H44.3142H44.3095H44.3048H44.3002H44.2955H44.2908H44.2862H44.2815H44.2768H44.2722H44.2675H44.2628H44.2581H44.2534H44.2487H44.2441H44.2394H44.2347H44.23H44.2253H44.2206H44.2159H44.2112H44.2065H44.2018H44.1971H44.1924H44.1877H44.183H44.1783H44.1735H44.1688H44.1641H44.1594H44.1547H44.15H44.1452H44.1405H44.1358H44.1311H44.1263H44.1216H44.1169H44.1121H44.1074H44.1027H44.0979H44.0932H44.0885H44.0837H44.079H44.0742H44.0695H44.0647H44.06H44.0552H44.0505H44.0457H44.041H44.0362H44.0315H44.0267H44.022H44.0172H44.0124H44.0077H44.0029H43.9981H43.9934H43.9886H43.9838H43.9791H43.9743H43.9695H43.9648H43.96H43.9552H43.9504H43.9456H43.9409H43.9361H43.9313H43.9265H43.9217H43.9169H43.9122H43.9074H43.9026H43.8978H43.893H43.8882H43.8834H43.8786H43.8738H43.869H43.8642H43.8594H43.8546H43.8498H43.845H43.8402H43.8354H43.8306H43.8258H43.821H43.8162H43.8114H43.8066H43.8018H43.797H43.7921H43.7873H43.7825H43.7777H43.7729H43.7681H43.7633H43.7584H43.7536H43.7488H43.744H43.7392H43.7343H43.7295H43.7247H43.7199H43.715H43.7102H43.7054H43.7006H43.6957H43.6909H43.6861H43.6812H43.6764H43.6716H43.6667H43.6619H43.6571H43.6522H43.6474H43.6426H43.6377H43.6329H43.6281H43.6232H43.6184H43.6135H43.6087H43.6039H43.599H43.5942H43.5893H43.5845H43.5796H43.5748H43.57H43.5651H43.5603H43.5554H43.5506H43.5457H43.5409H43.536H43.5312H43.5263H43.5215H43.5166H43.5118H43.5069H43.5021H43.4972H43.4924H43.4875H43.4827H43.4778H43.473H43.4681H43.4633H43.4584H43.4536H43.4487H43.4438H43.439H43.4341H43.4293H43.4244H43.4196H43.4147H43.4099H43.405H43.4001H43.3953H43.3904H43.3856H43.3807H43.3759H43.371H43.3661H43.3613H43.3564H43.3516H43.3467H43.3418H43.337H43.3321H43.3273H43.3224H43.3176H43.3127H43.3078H43.303H43.2981H43.2933H43.2884H43.2835H43.2787H43.2738H43.269H43.2641H43.2592H43.2544H43.2495H43.2447H43.2398H43.235H43.2301H43.2252H43.2204H43.2155H43.2107H43.2058H43.2009H43.1961H43.1912H43.1864H43.1815H43.1767H43.1718H43.1669H43.1621H43.1572H43.1524H43.1475H43.1427H43.1378H43.133H43.1281H43.1233H43.1184H43.1135H43.1087H43.1038H43.099H43.0941H43.0893H43.0844H43.0796H43.0747H43.0699H43.065H43.0602H43.0553H43.0505H43.0456H43.0408H43.0359H43.0311H43.0263H43.0214H43.0166H43.0117H43.0069H43.002H42.9972H42.9923H42.9875H42.9827H42.9778H42.973H42.9681H42.9633H42.9585H42.9536H42.9488H42.944H42.9391H42.9343H42.9294H42.9246H42.9198H42.9149H42.9101H42.9053H42.9005H42.8956H42.8908H42.886H42.8811H42.8763H42.8715H42.8667H42.8618H42.857H42.8522H42.8474H42.8425H42.8377H42.8329H42.8281H42.8233H42.8184H42.8136H42.8088H42.804H42.7992H42.7944H42.7896H42.7847H42.7799H42.7751H42.7703H42.7655H42.7607H42.7559H42.7511H42.7463H42.7415H42.7367H42.7319H42.7271H42.7223H42.7175H42.7127H42.7079H42.7031H42.6983H42.6935H42.6887H42.6839H42.6791H42.6744H42.6696H42.6648H42.66H42.6552H42.6504H42.6456H42.6409H42.6361H42.6313H42.6265H42.6218H42.617H42.6122H42.6074H42.6027H42.5979H42.5931H42.5884H42.5836H42.5788H42.5741H42.5693H42.5646H42.5598H42.555H42.5503H42.5455H42.5408H42.536H42.5313H42.5265H42.5218H42.517H42.5123H42.5075H42.5028H42.4981H42.4933H42.4886H42.4838H42.4791H42.4744H42.4696H42.4649H42.4602H42.4554H42.4507H42.446H42.4413H42.4366H42.4318H42.4271H42.4224H42.4177H42.413H42.4083H42.4035H42.3988H42.3941H42.3894H42.3847H42.38H42.3753H42.3706H42.3659H42.3612H42.3565H42.3518H42.3471H42.3425H42.3378H42.3331H42.3284H42.3237H42.319H42.3144H42.3097H42.305H42.3003H42.2957H42.291H42.2863H42.2817H42.277H42.2723H42.2677H42.263H42.2584H42.2537H42.2491H42.2444H42.2398H42.2351H42.2305H42.2258H42.2212H42.2165H42.2119H42.2073H42.2026H42.198H42.1934H42.1887H42.1841H42.1795H42.1749H42.1703H42.1656H42.161H42.1564H42.1518H42.1472H42.1426H42.138H42.1334H42.1288H42.1242H42.1196H42.115H42.1104H42.1058H42.1012H42.0966H42.0921H42.0875H42.0829H42.0783H42.0737C41.9156 26.9305 41.7801 26.985 41.6842 27.0839C41.5884 27.1825 41.5359 27.3213 41.5359 27.483C41.5359 27.6447 41.5884 27.7836 41.6842 27.8822C41.7801 27.981 41.9156 28.0356 42.0737 28.0356Z" fill="#042440" stroke="#042440" stroke-width="0.1"/>
<path d="M17.9027 15.3764L17.8697 15.3595L17.8439 15.3861C17.824 15.4066 17.7922 15.4288 17.7485 15.4577C17.7434 15.4612 17.7381 15.4646 17.7327 15.4682C17.6941 15.4937 17.6497 15.523 17.6053 15.5572C17.5042 15.6354 17.3989 15.7426 17.3455 15.9048C17.2915 16.0186 17.2933 16.1554 17.3187 16.2732C17.344 16.3904 17.395 16.4999 17.452 16.5597C17.7756 16.9594 18.1434 17.317 18.5234 17.6863C18.7179 17.8754 18.9156 18.0676 19.1122 18.2701L19.1115 18.2708L19.1198 18.2765C19.2722 18.3812 19.4283 18.4361 19.5749 18.4361C19.7226 18.4361 19.8575 18.3803 19.9644 18.2701C20.1129 18.1172 20.1981 17.9793 20.1981 17.8332C20.1981 17.6872 20.1129 17.5493 19.9644 17.3963L18.3059 15.6876L18.3057 15.6874C18.2072 15.5859 18.1051 15.4807 17.9027 15.3764Z" fill="#042440" stroke="#042440" stroke-width="0.1"/>
<path d="M38.2949 36.3852L38.272 36.3734L38.2491 36.3852L38.247 36.3863C38.151 36.4358 38.0511 36.4872 37.9754 36.5392C37.9372 36.5655 37.9026 36.5935 37.8771 36.6235C37.8545 36.6502 37.8358 36.6823 37.8323 36.7188C37.7813 36.8314 37.7835 36.9653 37.8085 37.081C37.834 37.1993 37.8858 37.3098 37.9434 37.3691L39.6019 39.0779C39.7537 39.2342 39.9104 39.3175 40.06 39.3315C40.2109 39.3457 40.3473 39.2885 40.4542 39.1784C40.561 39.0683 40.6158 38.9286 40.6023 38.7748C40.5888 38.622 40.5085 38.4611 40.3566 38.3046L40.3568 38.3045L40.3533 38.3015C40.0626 38.052 39.7959 37.7772 39.5273 37.5005L39.5266 37.4997C39.2593 37.2244 38.9902 36.9471 38.6965 36.6948C38.5984 36.5938 38.4963 36.489 38.2949 36.3852Z" fill="#042440" stroke="#042440" stroke-width="0.1"/>
<path d="M40.655 16.0504L40.6763 16.0065L40.6329 15.9841C40.5479 15.9404 40.4817 15.8511 40.4065 15.7479L40.4026 15.7425C40.3324 15.646 40.2533 15.5373 40.1451 15.4816C40.033 15.4239 39.8977 15.4256 39.7817 15.4521C39.6674 15.4783 39.5607 15.5312 39.5026 15.59C39.1146 15.9233 38.7675 16.3023 38.4091 16.6937C38.2255 16.8942 38.039 17.0979 37.8424 17.3004L37.8417 17.2998L37.8363 17.3081C37.6333 17.6218 37.6256 17.9508 37.8424 18.1742C37.9971 18.3336 38.1576 18.3919 38.3098 18.3776C38.4596 18.3636 38.592 18.28 38.6946 18.1742L40.3532 16.4655L40.3533 16.4654C40.4518 16.3638 40.5539 16.2587 40.655 16.0504Z" fill="#042440" stroke="#042440" stroke-width="0.1"/>
<path d="M17.843 39.3789L17.8578 39.3941H17.8789C17.9862 39.3941 18.0711 39.366 18.1424 39.3073C18.2102 39.2514 18.2619 39.1707 18.3106 39.0716L20.0611 37.2681C20.2751 37.0477 20.2751 36.7153 20.0611 36.4949C19.8468 36.2741 19.5226 36.2736 19.3078 36.4934C18.8471 36.9004 18.4292 37.3545 18.0278 37.7906C17.8332 38.002 17.6425 38.2091 17.4528 38.4046L17.4387 38.4192V38.4394C17.4387 38.4593 17.4336 38.4922 17.4257 38.5377C17.4248 38.543 17.4238 38.5485 17.4228 38.5541C17.4159 38.5938 17.408 38.6392 17.4025 38.6847C17.3962 38.7364 17.3926 38.7909 17.3978 38.8404C17.4026 38.8862 17.4154 38.9342 17.447 38.9705C17.5 39.0765 17.5773 39.1552 17.6512 39.2187C17.6809 39.2442 17.7108 39.2678 17.7383 39.2895C17.7455 39.2952 17.7525 39.3008 17.7594 39.3062C17.7929 39.3329 17.8211 39.3563 17.843 39.3789Z" fill="#042440" stroke="#042440" stroke-width="0.1"/>
</svg>
