<svg width="60" height="60" viewBox="0 0 60 60" fill="none" xmlns="http://www.w3.org/2000/svg">
<circle cx="30" cy="30" r="30" fill="#6542E4" fill-opacity="0.3"/>
<path d="M33.1753 18.2813L33.1761 18.281C36.128 16.8424 39.2398 16.1228 42.5124 15.9627H42.514H42.5168H42.5196H42.5224H42.5252H42.5281H42.5309H42.5337H42.5365H42.5394H42.5422H42.545H42.5479H42.5507H42.5535H42.5564H42.5592H42.5621H42.5649H42.5677H42.5706H42.5734H42.5763H42.5791H42.582H42.5849H42.5877H42.5906H42.5934H42.5963H42.5992H42.602H42.6049H42.6078H42.6106H42.6135H42.6164H42.6193H42.6221H42.625H42.6279H42.6308H42.6336H42.6365H42.6394H42.6423H42.6452H42.6481H42.651H42.6539H42.6568H42.6597H42.6626H42.6655H42.6684H42.6713H42.6742H42.6771H42.68H42.6829H42.6858H42.6887H42.6916H42.6945H42.6974H42.7004H42.7033H42.7062H42.7091H42.712H42.715H42.7179H42.7208H42.7237H42.7267H42.7296H42.7325H42.7355H42.7384H42.7413H42.7443H42.7472H42.7501H42.7531H42.756H42.759H42.7619H42.7649H42.7678H42.7707H42.7737H42.7766H42.7796H42.7825H42.7855H42.7884H42.7914H42.7944H42.7973H42.8003H42.8032H42.8062H42.8092H42.8121H42.8151H42.818H42.821H42.824H42.827H42.8299H42.8329H42.8359H42.8388H42.8418H42.8448H42.8478H42.8507H42.8537H42.8567H42.8597H42.8626H42.8656H42.8686H42.8716H42.8746H42.8776H42.8805H42.8835H42.8865H42.8895H42.8925H42.8955H42.8985H42.9015H42.9045H42.9075H42.9105H42.9135H42.9165H42.9194H42.9224H42.9254H42.9284H42.9314H42.9344H42.9374H42.9405H42.9435H42.9465H42.9495H42.9525H42.9555H42.9585H42.9615H42.9645H42.9675H42.9705H42.9735H42.9765H42.9796H42.9826H42.9856H42.9886H42.9916H42.9946H42.9977H43.0007H43.0037H43.0067H43.0097H43.0127H43.0158H43.0188H43.0218H43.0248H43.0278H43.0309H43.0339H43.0369H43.0399H43.043H43.046H43.049H43.0521H43.0551H43.0581H43.0611H43.0642H43.0672H43.0702H43.0733H43.0763H43.0793H43.0823H43.0854H43.0884H43.0914H43.0945H43.0975H43.1005H43.1036H43.1066H43.1097H43.1127H43.1157H43.1188H43.1218H43.1248H43.1279H43.1309H43.134H43.137H43.14H43.1431H43.1461H43.1492H43.1522H43.1552H43.1583H43.1613H43.1644H43.1674H43.1704H43.1735H43.1765H43.1796H43.1826H43.1857H43.1887H43.1917H43.1948H43.1978H43.2009H43.2039H43.207H43.21H43.213H43.2161H43.2191H43.2222H43.2252H43.2283H43.2313H43.2344H43.2374H43.2405H43.2435H43.2465H43.2496H43.2526H43.2557H43.2587H43.2618H43.2648H43.2679H43.2709H43.274H43.277H43.2801H43.2831H43.2861H43.2892H43.2922H43.2953H43.2983H43.3014H43.3044H43.3075H43.3105H43.3136H43.3166H43.3196H43.3227H43.3257H43.3288H43.3318H43.3349H43.3379H43.341H43.344H43.347H43.3501H43.3531H43.3562H43.3592H43.3623H43.3653H43.3683H43.3714H43.3744H43.3775H43.3805H43.3836H43.3866H43.3896H43.3927H43.3957H43.3988H43.4018H43.4048H43.4079H43.4109H43.4139H43.417H43.42H43.4231H43.4261H43.4291H43.4322H43.4352H43.4382H43.4413H43.4443H43.4473H43.4504H43.4534H43.4564H43.4595H43.4625H43.4655H43.4686H43.4716H43.4746H43.4777H43.4807H43.4837H43.4867H43.4898H43.4928H43.4958H43.4989H43.5019H43.5049H43.5079H43.511H43.514H43.517H43.52H43.523H43.5261H43.5291H43.5321H43.5351H43.5381H43.5412H43.5442H43.5472H43.5502H43.5532H43.5562H43.5592H43.5623H43.5653H43.5683H43.5713H43.5743H43.5773H43.5803H43.5833H43.5863H43.5894H43.5924H43.5954H43.5984H43.6014H43.6044H43.6074H43.6104H43.6134H43.6164H43.6194H43.6224H43.6254H43.6284H43.6314H43.6344H43.6374H43.6403H43.6433H43.6463H43.6493H43.6523H43.6553H43.6583H43.6613H43.6643H43.6672H43.6702H43.6732H43.6762H43.6792H43.6822H43.6851H43.6881H43.6911H43.6941H43.697H43.7H43.703H43.706H43.7089H43.7119H43.7149H43.7178H43.7208H43.7238H43.7267H43.7297H43.7327H43.7356H43.7386H43.7415H43.7445H43.7475H43.7504H43.7534H43.7563H43.7593H43.7622H43.7652H43.7681H43.7711H43.774H43.777H43.7799H43.7829H43.7858H43.7887H43.7917H43.7946H43.7976H43.8005H43.8034H43.8064H43.8093H43.8122H43.8152H43.8181H43.821H43.8239H43.8269H43.8298H43.8327H43.8356H43.8385H43.8415H43.8444H43.8473H43.8502H43.8531H43.856H43.8589H43.8618H43.8647H43.8677H43.8706H43.8735H43.8764H43.8793H43.8822H43.8851H43.8879H43.8908H43.8937H43.8966H43.8995H43.9024H43.9053H43.9082H43.9111H43.9139H43.9168H43.9197H43.9226H43.9254H43.9283H43.9312H43.9341H43.9369H43.9398H43.9427H43.9455H43.9484H43.9513H43.9541H43.957H43.9598H43.9627H43.9655H43.9684H43.9712H43.9741H43.9769H43.9798H43.9826H43.9831C43.9894 16.027 44.0068 16.0793 44.0227 16.1272L44.0232 16.1288C44.0432 16.1888 44.0606 16.2421 44.0606 16.3133C44.0606 18.7121 43.7414 21.0307 43.1029 23.2693C41.9056 27.3473 39.8306 30.9448 36.7182 33.9828C34.0843 36.5414 30.9716 38.4602 27.4598 39.6595L27.4597 39.6591L27.4536 39.6621C27.3747 39.7016 27.3273 39.7148 27.2843 39.7076C27.2406 39.7003 27.1901 39.6701 27.1115 39.5914L26.0318 38.5098L24.9522 37.4283C24.8246 37.3005 24.6724 37.2334 24.5269 37.2334C24.3803 37.2334 24.2447 37.3017 24.1554 37.4359C24.0685 37.5665 24.0455 37.6998 24.0679 37.823C24.09 37.9452 24.1561 38.0542 24.2416 38.1399L25.4812 39.3816L26.7174 40.62C26.8008 40.7439 26.8896 40.8137 26.9953 40.8372C27.0994 40.8604 27.2105 40.8363 27.3319 40.7958L27.3319 40.7958L27.3346 40.7947C27.6729 40.6592 28.0111 40.538 28.3442 40.4187C28.4038 40.3974 28.4633 40.3761 28.5226 40.3547C28.9124 40.2145 29.2938 40.0738 29.6555 39.9128C34.463 37.8258 38.3094 34.5345 41.1138 30.1199L41.114 30.1195C43.9184 25.6247 45.2006 20.808 45.0403 15.5907L45.041 15.5907L45.0394 15.5824C44.9997 15.3838 44.958 15.2301 44.8678 15.1284C44.7741 15.0228 44.6368 14.9816 44.4321 14.9814C43.149 14.9012 41.8666 14.9816 40.5856 15.142L40.5852 15.1421C37.5411 15.5433 34.5763 16.4262 31.8514 17.8712C28.8868 19.3963 26.2423 21.4835 24.0786 24.1326C21.9148 26.7017 20.3925 29.5915 19.3511 32.721C19.2644 32.9818 19.3518 33.2414 19.5231 33.4131L19.523 33.4132L19.5265 33.4161C19.8411 33.6788 20.1195 33.9744 20.4112 34.2842C20.5624 34.4449 20.7173 34.6094 20.8827 34.775L21.9969 35.8912C22.048 35.9862 22.1442 36.0303 22.2421 36.0412C22.3424 36.0524 22.452 36.0302 22.54 35.9861C22.7192 35.8964 22.8075 35.7172 22.8075 35.5409C22.8075 35.3665 22.7216 35.1938 22.6329 35.105L20.4736 32.9419C20.432 32.9002 20.4002 32.8673 20.3847 32.8285C20.371 32.7941 20.3681 32.749 20.403 32.679L20.4034 32.6792L20.4055 32.6729C21.2838 30.1134 22.4811 27.7151 24.1565 25.5572L24.1571 25.5565C26.5511 22.3588 29.5835 19.9604 33.1753 18.2813Z" fill="#042440" stroke="#042440" stroke-width="0.1"/>
<path d="M34.7534 30.2225C37.5003 30.2225 39.6819 28.0369 39.6819 25.2854C39.6819 22.5335 37.4997 20.3484 34.6735 20.3484C32.0055 20.3484 29.825 22.6152 29.825 25.2854C29.825 28.0369 32.0066 30.2225 34.7534 30.2225ZM34.6735 21.4098C36.885 21.4098 38.6222 23.1499 38.6222 25.3656C38.6222 27.4999 36.8861 29.2417 34.6726 29.3213C32.4614 29.3208 30.7247 27.581 30.7247 25.3656C30.7247 23.1499 32.4619 21.4098 34.6735 21.4098Z" fill="#042440" stroke="#042440" stroke-width="0.1"/>
<path d="M31.8282 39.3748L31.8283 39.3748C31.8695 39.2096 31.9327 39.0799 32.0213 38.9911C32.1113 38.901 32.2243 38.8562 32.3566 38.8562C32.5304 38.8562 32.6653 38.9222 32.7556 39.0353C32.8446 39.1468 32.8865 39.2992 32.8865 39.4671V39.477L32.8855 39.4768C32.8744 39.5324 32.8633 39.5898 32.8519 39.6484C32.782 40.0086 32.7027 40.4169 32.5636 40.7659C31.6801 43.5003 30.0729 45.5131 27.5826 46.8812M31.8282 39.3748L27.5582 46.8376M31.8282 39.3748L31.8277 39.3775C31.4296 41.4512 30.5547 43.2032 28.9649 44.6367C28.5054 45.0203 27.9725 45.4037 27.4371 45.7159C27.3831 45.3454 27.321 44.9847 27.2596 44.6273C27.1387 43.9243 27.02 43.2341 26.9682 42.5079L26.9693 42.5078L26.9664 42.4977C26.8074 41.9399 26.7278 41.4618 26.6478 40.981L26.6466 40.9736L26.6432 40.9669C26.6005 40.8814 26.5366 40.7958 26.4611 40.731C26.3862 40.6667 26.295 40.6188 26.1986 40.6188C25.9472 40.6188 25.7654 40.7038 25.674 40.8868L25.6687 40.8973V40.9091V40.9096V40.9101V40.9105V40.911V40.9115V40.912V40.9125V40.9129V40.9134V40.9139V40.9144V40.9149V40.9154V40.9159V40.9164V40.9169V40.9174V40.9179V40.9184V40.9189V40.9194V40.9199V40.9204V40.9209V40.9214V40.9219V40.9225V40.923V40.9235V40.924V40.9245V40.9251V40.9256V40.9261V40.9266V40.9272V40.9277V40.9283V40.9288V40.9293V40.9299V40.9304V40.931V40.9315V40.932V40.9326V40.9331V40.9337V40.9343V40.9348V40.9354V40.9359V40.9365V40.9371V40.9376V40.9382V40.9387V40.9393V40.9399V40.9405V40.941V40.9416V40.9422V40.9428V40.9433V40.9439V40.9445V40.9451V40.9457V40.9463V40.9469V40.9475V40.948V40.9486V40.9492V40.9498V40.9504V40.951V40.9516V40.9522V40.9528V40.9535V40.9541V40.9547V40.9553V40.9559V40.9565V40.9571V40.9577V40.9584V40.959V40.9596V40.9602V40.9609V40.9615V40.9621V40.9627V40.9634V40.964V40.9646V40.9653V40.9659V40.9665V40.9672V40.9678V40.9685V40.9691V40.9698V40.9704V40.9711V40.9717V40.9724V40.973V40.9737V40.9743V40.975V40.9756V40.9763V40.977V40.9776V40.9783V40.979V40.9796V40.9803V40.981V40.9816V40.9823V40.983V40.9837V40.9843V40.985V40.9857V40.9864V40.9871V40.9877V40.9884V40.9891V40.9898V40.9905V40.9912V40.9919V40.9926V40.9933V40.9939V40.9946V40.9953V40.996V40.9967V40.9974V40.9981V40.9989V40.9996V41.0003V41.001V41.0017V41.0024V41.0031V41.0038V41.0045V41.0053V41.006V41.0067V41.0074V41.0081V41.0089V41.0096V41.0103V41.011V41.0118V41.0125V41.0132V41.0139V41.0147V41.0154V41.0161V41.0169V41.0176V41.0184V41.0191V41.0198V41.0206V41.0213V41.0221V41.0228V41.0236V41.0243V41.0251V41.0258V41.0266V41.0273V41.0281V41.0288V41.0296V41.0303V41.0311V41.0319V41.0326V41.0334V41.0341V41.0349V41.0357V41.0364V41.0372V41.038V41.0387V41.0395V41.0403V41.0411V41.0418V41.0426V41.0434V41.0442V41.0449V41.0457V41.0465V41.0473V41.0481V41.0488V41.0496V41.0504V41.0512V41.052V41.0528V41.0536V41.0544V41.0551V41.0559V41.0567V41.0575V41.0583V41.0591V41.0599V41.0607V41.0615V41.0623V41.0631V41.0639V41.0647V41.0655V41.0663V41.0671V41.068V41.0688V41.0696V41.0704V41.0712V41.072V41.0728V41.0736V41.0745V41.0753V41.0761V41.0769V41.0777V41.0785V41.0794V41.0802V41.081V41.0818V41.0827V41.0835V41.0843V41.0851V41.086V41.0868V41.0876V41.0885V41.0893V41.0901V41.091V41.0918V41.0926V41.0935V41.0943V41.0951V41.096V41.0968V41.0977V41.0985V41.0993V41.1002V41.101V41.1019V41.1027V41.1036V41.1044V41.1053V41.1061V41.107V41.1078V41.1087V41.1095V41.1104V41.1112V41.1121V41.1129V41.1138V41.1146V41.1155V41.1163V41.1172V41.1181V41.1189V41.1198V41.1206V41.1215V41.1224V41.1232V41.1241V41.125V41.1258V41.1267V41.1276V41.1284V41.1293V41.1302V41.131V41.1319V41.1328V41.1337V41.1345V41.1354V41.1363V41.1372V41.138V41.1389V41.1398V41.1407V41.1415V41.1424V41.1433V41.1442V41.1451V41.1459V41.1468V41.1477V41.1486V41.1495V41.1504V41.1513V41.1521V41.153V41.1539V41.1548V41.1557V41.1566V41.1575V41.1584V41.1592V41.1601V41.161V41.1619V41.1628V41.1637V41.1646V41.1655V41.1664V41.1673V41.1682V41.1691V41.17V41.1709V41.1718V41.1727V41.1736V41.1745V41.1754V41.1763V41.1772V41.1781V41.179V41.1799V41.1808V41.1817V41.1826V41.1835V41.1844V41.1853V41.1862V41.1871V41.188V41.189V41.1899V41.1908V41.1917V41.1926V41.1935V41.1944V41.1953V41.1962V41.1972V41.1981V41.199V41.1999V41.2008V41.2017V41.2026V41.2036V41.2045V41.2054V41.2063V41.2072V41.2081V41.2091V41.21V41.2109V41.2118V41.2127V41.2136V41.2146V41.2155V41.2164V41.2173V41.2183V41.2192V41.2201V41.221V41.2219V41.2229V41.2238V41.2247V41.2256V41.2266V41.2275V41.2284V41.2293V41.2303V41.2312V41.2321V41.233V41.234V41.2349V41.2358V41.2367V41.2377V41.2386V41.2395V41.2405V41.2414V41.2423V41.2433V41.2442V41.2451V41.246V41.247V41.2479V41.2488V41.2498V41.2507V41.2516V41.2526V41.2535V41.2544V41.2554V41.2563V41.2572V41.2582V41.2591V41.26V41.261V41.2619V41.2628V41.2638V41.2647V41.2656V41.2666V41.2675V41.2684V41.2694V41.2703V41.2712V41.2722V41.2731V41.2741V41.275V41.2759V41.2769V41.2778V41.2787V41.2797V41.2806V41.2815V41.2825V41.2834V41.2844V41.2853V41.2862V41.2872V41.2881V41.289V41.29V41.2909V41.2919V41.2928V41.2937V41.2947V41.2956V41.2966V41.2975V41.2984V41.2994V41.3003V41.3012V41.3022V41.3031V41.3041V41.305V41.3059V41.3069V41.3078V41.3088V41.3097H25.6679L25.6696 41.319C25.8296 42.1601 25.9895 43.0212 26.1494 43.8825L26.1495 43.8826C26.3093 44.7434 26.4692 45.6043 26.6291 46.4453M31.8282 39.3748L26.6784 46.4371M27.5826 46.8812C27.5825 46.8813 27.5824 46.8814 27.5822 46.8815L27.5582 46.8376M27.5826 46.8812C27.5827 46.8812 27.5829 46.8811 27.583 46.881L27.5582 46.8376M27.5826 46.8812C27.3018 47.0419 27.0808 47.0951 26.916 47.0125C26.7517 46.9302 26.6693 46.7259 26.6291 46.4453M27.5582 46.8376C26.9983 47.1581 26.7584 46.9979 26.6784 46.4371M26.6291 46.4453C26.6292 46.4456 26.6293 46.446 26.6293 46.4464L26.6784 46.4371M26.6291 46.4453C26.6291 46.4449 26.629 46.4445 26.6289 46.4441L26.6784 46.4371" fill="#042440" stroke="#042440" stroke-width="0.1"/>
<path d="M15.5669 32.7676L15.5663 32.7674C15.1876 32.6916 14.7376 32.6157 14.2847 32.5401C14.2857 32.538 14.2866 32.5359 14.2876 32.5338C14.3008 32.5039 14.3069 32.4718 14.3069 32.4359C14.3069 32.3713 14.287 32.2908 14.2519 32.1827C15.4441 30.3599 17.0306 29.092 19.0914 28.3774C19.3286 28.2982 19.586 28.2386 19.8463 28.1785L19.8476 28.1782C20.106 28.1184 20.3672 28.058 20.6089 27.9775C20.7771 27.9349 20.9078 27.8493 20.9857 27.7378C21.0645 27.6251 21.0873 27.4885 21.0421 27.3529C20.9558 27.0935 20.6918 26.9097 20.419 27.0008L20.3849 27.0122V27.0482C20.3849 27.0596 20.3822 27.0631 20.3816 27.0638C20.3807 27.065 20.3779 27.0679 20.3691 27.0709C20.3485 27.0777 20.3178 27.0783 20.2749 27.0783V27.077L20.2637 27.0796C18.1774 27.5619 16.3285 28.447 14.8008 30.0577C14.0763 30.7836 13.514 31.6695 13.0333 32.5522L13.033 32.552L13.0308 32.5576C12.9495 32.7612 12.9233 32.9372 12.9811 33.076C13.0403 33.2183 13.1798 33.3046 13.3873 33.3462L13.3871 33.3472H13.3971H13.3976H13.3981H13.3985H13.399H13.3995H13.3999H13.4004H13.4008H13.4013H13.4017H13.4022H13.4026H13.4031H13.4035H13.404H13.4044H13.4048H13.4053H13.4057H13.4061H13.4066H13.407H13.4074H13.4079H13.4083H13.4087H13.4091H13.4096H13.41H13.4104H13.4108H13.4112H13.4116H13.4121H13.4125H13.4129H13.4133H13.4137H13.4141H13.4145H13.4149H13.4153H13.4157H13.4161H13.4165H13.4169H13.4173H13.4176H13.418H13.4184H13.4188H13.4192H13.4196H13.42H13.4203H13.4207H13.4211H13.4215H13.4218H13.4222H13.4226H13.423H13.4233H13.4237H13.4241H13.4244H13.4248H13.4251H13.4255H13.4259H13.4262H13.4266H13.4269H13.4273H13.4276H13.428H13.4283H13.4287H13.429H13.4294H13.4297H13.4301H13.4304H13.4307H13.4311H13.4314H13.4318H13.4321H13.4324H13.4328H13.4331H13.4334H13.4338H13.4341H13.4344H13.4347H13.4351H13.4354H13.4357H13.436H13.4364H13.4367H13.437H13.4373H13.4376H13.4379H13.4383H13.4386H13.4389H13.4392H13.4395H13.4398H13.4401H13.4404H13.4407H13.441H13.4413H13.4416H13.4419H13.4422H13.4425H13.4428H13.4431H13.4434H13.4437H13.444H13.4443H13.4446H13.4449H13.4452H13.4455H13.4458H13.4461H13.4464H13.4466H13.4469H13.4472H13.4475H13.4478H13.4481H13.4483H13.4486H13.4489H13.4492H13.4495H13.4497H13.45H13.4503H13.4506H13.4509H13.4511H13.4514H13.4517H13.4519H13.4522H13.4525H13.4528H13.453H13.4533H13.4536H13.4538H13.4541H13.4544H13.4546H13.4549H13.4552H13.4554H13.4557H13.4559H13.4562H13.4565H13.4567H13.457H13.4572H13.4575H13.4578H13.458H13.4583H13.4585H13.4588H13.459H13.4593H13.4595H13.4598H13.46H13.4603H13.4605H13.4608H13.4611H13.4613H13.4615H13.4618H13.462H13.4623H13.4625H13.4628H13.463H13.4633H13.4635H13.4638H13.464H13.4643H13.4645H13.4648H13.465H13.4652H13.4655H13.4657H13.466H13.4662H13.4665H13.4667H13.4669H13.4672H13.4674H13.4677H13.4679H13.4681H13.4684H13.4686H13.4689H13.4691H13.4693H13.4696H13.4698H13.47H13.4703H13.4705H13.4708H13.471H13.4712H13.4715H13.4717H13.4719H13.4722H13.4724H13.4726H13.4729H13.4731H13.4734H13.4736H13.4738H13.4741H13.4743H13.4745H13.4748H13.475H13.4752H13.4755H13.4757H13.4759H13.4762H13.4764H13.4766H13.4769H13.4771H13.4773H13.4776H13.4778H13.478H13.4783H13.4785H13.4787H13.479H13.4792H13.4795H13.4797H13.4799H13.4802H13.4804H13.4806H13.4809H13.4811H13.4813H13.4816H13.4818H13.482H13.4823H13.4825H13.4827H13.483H13.4832H13.4835H13.4837H13.4839H13.4842H13.4844H13.4846H13.4849H13.4851H13.4854H13.4856H13.4858H13.4861H13.4863H13.4866H13.4868H13.487H13.4873H13.4875H13.4878H13.488H13.4882H13.4885H13.4887H13.489H13.4892H13.4895H13.4897H13.4899H13.4902H13.4904H13.4907H13.4909H13.4912H13.4914H13.4917H13.4919H13.4922H13.4924H13.4927H13.4929H13.4932H13.4934H13.4937H13.4939H13.4942H13.4944H13.4947H13.4949H13.4952H13.4954H13.4957H13.4959H13.4962H13.4965H13.4967H13.497H13.4972H13.4975H13.4978H13.498H13.4983H13.4985H13.4988H13.4991H13.4993H13.4996H13.4999H13.5001H13.5004H13.5007H13.5009H13.5012H13.5015H13.5017H13.502H13.5023H13.5025H13.5028H13.5031H13.5034H13.5036H13.5039H13.5042H13.5045H13.5047H13.505H13.5053H13.5056H13.5059H13.5061H13.5064H13.5067H13.507H13.5073H13.5076H13.5079H13.5081H13.5084H13.5087H13.509H13.5093H13.5096H13.5099H13.5102H13.5105H13.5108H13.5111H13.5114H13.5117H13.512H13.5123H13.5126H13.5129H13.5132H13.5135H13.5138H13.5141H13.5144H13.5147H13.515H13.5153H13.5156H13.516H13.5163H13.5166H13.5169H13.5172H13.5175H13.5179H13.5182H13.5185H13.5188H13.5192H13.5195H13.5198H13.5201H13.5205H13.5208H13.5211H13.5215H13.5218H13.5221H13.5225H13.5228H13.5231H13.5235H13.5238H13.5242H13.5245H13.5248H13.5252H13.5255H13.5259H13.5262H13.5266H13.5269H13.5273H13.5276H13.528H13.5284H13.5287H13.5291H13.5294H13.5298H13.5302H13.5305H13.5309H13.5313H13.5316H13.532H13.5324H13.5327H13.5331H13.5335H13.5339H13.5343H13.5346H13.535H13.5354H13.5358H13.5362H13.5366H13.537H13.5373H13.5377H13.5381H13.5385H13.5389H13.5393H13.5397H13.5401H13.5405H13.5409H13.5413H13.5418H13.5422H13.5426H13.543H13.5434H13.5438H13.5442H13.5447H13.5451H13.5455H13.5459H13.5463H13.5468H13.5472H13.5476H13.5481H13.5485H13.5489H13.5494H13.5498H13.5503H13.5507H13.5511H13.5516H13.5518C14.0522 33.4545 14.5367 33.5459 15.0118 33.6355C15.0671 33.6459 15.1222 33.6563 15.1773 33.6667C15.7069 33.7669 16.2258 33.8668 16.7444 33.9867C17.0658 34.0672 17.407 34.1275 17.746 34.1874L17.747 34.1876C18.0873 34.2477 18.4254 34.3075 18.7433 34.3871C18.9132 34.4297 19.0485 34.41 19.1531 34.3402C19.256 34.2714 19.3209 34.1595 19.3627 34.034C19.4535 33.7609 19.2702 33.4965 19.0112 33.41L19.0035 33.4074H18.9953H18.9949H18.9944H18.9939H18.9935H18.993H18.9926H18.9921H18.9916H18.9912H18.9907H18.9903H18.9898H18.9894H18.989H18.9885H18.9881H18.9876H18.9872H18.9868H18.9863H18.9859H18.9855H18.985H18.9846H18.9842H18.9838H18.9833H18.9829H18.9825H18.9821H18.9817H18.9812H18.9808H18.9804H18.98H18.9796H18.9792H18.9788H18.9784H18.978H18.9776H18.9772H18.9768H18.9764H18.976H18.9756H18.9752H18.9748H18.9744H18.974H18.9737H18.9733H18.9729H18.9725H18.9721H18.9718H18.9714H18.971H18.9706H18.9703H18.9699H18.9695H18.9692H18.9688H18.9684H18.9681H18.9677H18.9673H18.967H18.9666H18.9663H18.9659H18.9655H18.9652H18.9648H18.9645H18.9641H18.9638H18.9634H18.9631H18.9628H18.9624H18.9621H18.9617H18.9614H18.9611H18.9607H18.9604H18.96H18.9597H18.9594H18.959H18.9587H18.9584H18.9581H18.9577H18.9574H18.9571H18.9568H18.9564H18.9561H18.9558H18.9555H18.9552H18.9548H18.9545H18.9542H18.9539H18.9536H18.9533H18.953H18.9527H18.9524H18.952H18.9517H18.9514H18.9511H18.9508H18.9505H18.9502H18.9499H18.9496H18.9493H18.949H18.9487H18.9484H18.9481H18.9479H18.9476H18.9473H18.947H18.9467H18.9464H18.9461H18.9458H18.9455H18.9453H18.945H18.9447H18.9444H18.9441H18.9438H18.9436H18.9433H18.943H18.9427H18.9424H18.9422H18.9419H18.9416H18.9413H18.9411H18.9408H18.9405H18.9403H18.94H18.9397H18.9394H18.9392H18.9389H18.9386H18.9384H18.9381H18.9378H18.9376H18.9373H18.9371H18.9368H18.9365H18.9363H18.936H18.9358H18.9355H18.9352H18.935H18.9347H18.9345H18.9342H18.9339H18.9337H18.9334H18.9332H18.9329H18.9327H18.9324H18.9322H18.9319H18.9317H18.9314H18.9312H18.9309H18.9307H18.9304H18.9302H18.9299H18.9297H18.9294H18.9292H18.9289H18.9287H18.9284H18.9282H18.928H18.9277H18.9275H18.9272H18.927H18.9267H18.9265H18.9263H18.926H18.9258H18.9255H18.9253H18.9251H18.9248H18.9246H18.9243H18.9241H18.9239H18.9236H18.9234H18.9231H18.9229H18.9227H18.9224H18.9222H18.922H18.9217H18.9215H18.9212H18.921H18.9208H18.9205H18.9203H18.9201H18.9198H18.9196H18.9194H18.9191H18.9189H18.9186H18.9184H18.9182H18.9179H18.9177H18.9175H18.9172H18.917H18.9168H18.9165H18.9163H18.9161H18.9158H18.9156H18.9154H18.9151H18.9149H18.9147H18.9144H18.9142H18.914H18.9137H18.9135H18.9133H18.913H18.9128H18.9125H18.9123H18.9121H18.9118H18.9116H18.9114H18.9111H18.9109H18.9107H18.9104H18.9102H18.91H18.9097H18.9095H18.9093H18.909H18.9088H18.9085H18.9083H18.9081H18.9078H18.9076H18.9074H18.9071H18.9069H18.9066H18.9064H18.9062H18.9059H18.9057H18.9054H18.9052H18.905H18.9047H18.9045H18.9042H18.904H18.9037H18.9035H18.9033H18.903H18.9028H18.9025H18.9023H18.902H18.9018H18.9015H18.9013H18.901H18.9008H18.9006H18.9003H18.9001H18.8998H18.8996H18.8993H18.8991H18.8988H18.8986H18.8983H18.898H18.8978H18.8975H18.8973H18.897H18.8968H18.8965H18.8963H18.896H18.8958H18.8955H18.8952H18.895H18.8947H18.8945H18.8942H18.8939H18.8937H18.8934H18.8931H18.8929H18.8926H18.8923H18.8921H18.8918H18.8915H18.8913H18.891H18.8907H18.8905H18.8902H18.8899H18.8897H18.8894H18.8891H18.8888H18.8886H18.8883H18.888H18.8877H18.8874H18.8872H18.8869H18.8866H18.8863H18.886H18.8858H18.8855H18.8852H18.8849H18.8846H18.8843H18.884H18.8837H18.8835H18.8832H18.8829H18.8826H18.8823H18.882H18.8817H18.8814H18.8811H18.8808H18.8805H18.8802H18.8799H18.8796H18.8793H18.879H18.8787H18.8784H18.8781H18.8778H18.8774H18.8771H18.8768H18.8765H18.8762H18.8759H18.8756H18.8752H18.8749H18.8746H18.8743H18.874H18.8736H18.8733H18.873H18.8727H18.8723H18.872H18.8717H18.8714H18.871H18.8707H18.8704H18.87H18.8697H18.8693H18.869H18.8687H18.8683H18.868H18.8676H18.8673H18.8669H18.8666H18.8662H18.8659H18.8655H18.8652H18.8648H18.8645H18.8641H18.8638H18.8634H18.863H18.8627H18.8623H18.8619H18.8616H18.8612H18.8608H18.8605H18.8601H18.8597H18.8593H18.859H18.8586H18.8582H18.8578H18.8574H18.8571H18.8567H18.8563H18.8559H18.8555H18.8551H18.8547H18.8543H18.8539H18.8535H18.8531H18.8527H18.8523H18.8519H18.8515H18.8511H18.8507H18.8503H18.8499H18.8495H18.8491H18.8487H18.8482H18.8478H18.8474H18.847H18.8466H18.8461H18.8457H18.8453H18.8448H18.8444H18.844H18.8435H18.8431H18.8427H18.8422H18.8418H18.8413H18.8411C18.3217 33.2875 17.7827 33.1875 17.2349 33.0877C17.1891 33.0794 17.1434 33.0711 17.0975 33.0627C16.5919 32.9708 16.0794 32.8776 15.5669 32.7676Z" fill="#042440" stroke="#042440" stroke-width="0.1"/>
<path d="M19.8396 39.6711L19.825 39.6858V39.7064C19.825 39.8316 19.8457 39.9422 19.9026 40.0333C19.9595 40.1247 20.0492 40.1906 20.1757 40.2334C20.2605 40.2754 20.3495 40.2983 20.441 40.2868C20.5334 40.2753 20.6223 40.2295 20.7076 40.1449C20.8699 40.0225 21.0114 39.8806 21.1413 39.7404C21.1887 39.6893 21.2342 39.6388 21.2786 39.5895C21.3577 39.5018 21.4332 39.418 21.5095 39.3416C22.7392 38.1633 23.9336 36.9487 25.1156 35.7468C25.7019 35.1506 26.2852 34.5575 26.8682 33.9735C27.1223 33.7189 27.1325 33.3665 26.9481 33.1818L26.9488 33.1811L26.9405 33.1756C26.8143 33.0913 26.6832 33.0459 26.5487 33.0572C26.4139 33.0684 26.2835 33.1358 26.1576 33.2619L24.5581 34.8642L20.0795 39.3507C20.036 39.3943 19.9938 39.4577 19.9553 39.5156L19.9533 39.5185C19.9124 39.58 19.8753 39.6353 19.8396 39.6711Z" fill="#042440" stroke="#042440" stroke-width="0.1"/>
<path d="M17.8181 41.7444L17.7957 41.7331L17.7733 41.7444C17.6905 41.7858 17.6284 41.8273 17.5686 41.8672L17.568 41.8677C17.508 41.9077 17.4503 41.9462 17.3734 41.9847L17.3662 41.9883L17.3604 41.9941L16.0009 43.356L14.0815 45.2788C13.9949 45.3655 13.9487 45.4557 13.9372 45.559C13.926 45.66 13.9488 45.7684 13.9895 45.8907L13.989 45.8909L13.9922 45.8973C14.0818 46.0768 14.2606 46.1653 14.4368 46.1653C14.5265 46.1653 14.5942 46.1424 14.6591 46.1099C14.6884 46.0953 14.7175 46.0784 14.747 46.0613C14.7494 46.0599 14.7518 46.0586 14.7542 46.0572C14.7866 46.0384 14.8205 46.0191 14.859 45.9997L14.86 46.0016L14.8706 45.9917C15.5678 45.347 16.2299 44.6655 16.879 43.9974C17.1986 43.6684 17.5151 43.3426 17.8311 43.0261L17.8368 43.0204L17.8404 43.0131C17.9161 42.8614 18.0698 42.7069 18.151 42.6255L18.1567 42.6198L18.1603 42.6125L18.1617 42.6099C18.2007 42.5317 18.2428 42.4474 18.2641 42.362C18.2861 42.2737 18.287 42.1808 18.2403 42.0872C18.1529 41.912 17.9797 41.8253 17.8246 41.7476L17.8181 41.7444Z" fill="#042440" stroke="#042440" stroke-width="0.1"/>
<path d="M17.0763 38.4578H17.0645L17.0539 38.4631L17.0763 38.5078L17.0539 38.4631L17.0539 38.4631L17.0538 38.4632L17.0536 38.4633L17.0531 38.4636L17.0513 38.4645L17.0451 38.4678C17.04 38.4707 17.0327 38.4748 17.0239 38.4803C17.0062 38.4912 16.982 38.5074 16.9551 38.5289C16.9039 38.5699 16.8413 38.6318 16.7972 38.7151C16.479 38.9553 16.2385 39.1962 15.9226 39.5127L15.9213 39.514L13.5221 41.9174C13.4306 42.009 13.3875 42.1431 13.3875 42.2732C13.3875 42.4016 13.4295 42.5339 13.5186 42.6254C13.5619 42.6894 13.6123 42.7348 13.6692 42.7625C13.7274 42.7909 13.7893 42.7994 13.8519 42.7937C13.9748 42.7825 14.1035 42.7164 14.225 42.6353L14.2256 42.6361L14.2326 42.629L14.3126 42.5489L17.4316 39.4244C17.4774 39.3786 17.5004 39.3324 17.5202 39.2927L17.5209 39.2912C17.5409 39.2512 17.5579 39.2178 17.5916 39.1841L17.5923 39.1848L17.5978 39.1764C17.6924 39.0343 17.6651 38.8512 17.5673 38.7097C17.4686 38.5669 17.2937 38.4578 17.0763 38.4578Z" fill="#042440" stroke="#042440" stroke-width="0.1"/>
<path d="M21.4346 43.3484L21.4404 43.3426L21.444 43.3354C21.4734 43.2764 21.5024 43.2295 21.5283 43.1875C21.5366 43.174 21.5445 43.1611 21.5521 43.1485C21.5816 43.0993 21.6092 43.0482 21.6092 42.9926C21.6092 42.8296 21.5892 42.7189 21.5427 42.6373C21.4952 42.5541 21.4242 42.5085 21.3417 42.4672L21.3419 42.4667L21.3351 42.4645C21.2066 42.4215 21.0954 42.4205 20.9935 42.4545C20.893 42.488 20.8066 42.5542 20.7241 42.6368L17.4485 45.9181C17.1852 46.0977 17.1851 46.4527 17.3652 46.6331C17.4906 46.7587 17.6225 46.828 17.7604 46.828C17.8984 46.828 18.0303 46.7587 18.1557 46.6331L21.4346 43.3484Z" fill="#042440" stroke="#042440" stroke-width="0.1"/>
</svg>
