<svg width="24" height="24" viewBox="0 0 24 24" fill="none" xmlns="http://www.w3.org/2000/svg">
<path d="M15.25 2.75H8.75C5.43629 2.75 2.75 5.43629 2.75 8.75V15.25C2.75 18.5637 5.43629 21.25 8.75 21.25H15.25C18.5637 21.25 21.25 18.5637 21.25 15.25V8.75C21.25 5.43629 18.5637 2.75 15.25 2.75Z" stroke="#2E2E2E" stroke-width="1.5"/>
<path d="M7 15L9.45 11.74C9.60003 11.5392 9.81998 11.4021 10.0663 11.3558C10.3126 11.3095 10.5673 11.3574 10.78 11.49L13.17 13C13.3909 13.1406 13.6581 13.1891 13.9142 13.1348C14.1704 13.0806 14.3951 12.9281 14.54 12.71L17 9" stroke="#2E2E2E" stroke-width="1.5" stroke-linecap="round" stroke-linejoin="round"/>
</svg>
