<svg width="60" height="60" viewBox="0 0 60 60" fill="none" xmlns="http://www.w3.org/2000/svg">
<path d="M56.7109 31.4053H32.3359C31.3047 31.4053 30.4609 32.249 30.4609 33.2803V49.2178H30.5087H58.5859V33.2803C58.5859 32.249 57.7441 31.4053 56.7109 31.4053Z" fill="#CEB3F4"/>
<path d="M48.7422 52.9678L49.6797 57.6553H39.3672L40.3047 52.9678H48.7422Z" fill="#545C66"/>
<path d="M30.5087 49.2178H58.5859V51.0928C58.5859 52.124 57.7441 52.9678 56.7109 52.9678H48.2734H40.7734H32.3359C31.3047 52.9678 30.4609 52.124 30.4609 51.0928V49.2178H30.5087Z" fill="#656D78"/>
<path d="M34.2188 18.2803C34.2188 22.424 30.8531 25.7803 26.7188 25.7803H6.5625C3.19688 25.7803 0.46875 23.0521 0.46875 19.6865V15.9271C0.46875 19.2928 3.19688 22.0209 6.5625 22.0209H26.7188C30.8531 22.0209 34.2188 18.6646 34.2188 14.5303V18.2803Z" fill="#B078FF"/>
<path d="M26.7188 7.03027C30.8531 7.03027 34.2188 10.3865 34.2188 14.5303C34.2188 18.6646 30.8531 22.0209 26.7188 22.0209H6.5625C3.19688 22.0209 0.46875 19.2928 0.46875 15.9271C0.46875 12.5709 3.19688 9.84277 6.5625 9.84277H7.20187C8.08219 5.04277 12.2831 1.40527 17.3438 1.40527C21.3478 1.40527 24.825 3.69277 26.5322 7.03027H26.7188Z" fill="#CEB3F4"/>
<path d="M56.715 53.9073H32.3438C30.7931 53.9073 29.5312 52.6455 29.5312 51.0948V33.2852C29.5312 31.7345 30.7931 30.4727 32.3438 30.4727H56.715C58.2656 30.4727 59.5275 31.7345 59.5275 33.2852V51.0948C59.5275 52.6455 58.2656 53.9073 56.715 53.9073ZM32.3438 32.3477C31.8253 32.3477 31.4063 32.7677 31.4063 33.2852V51.0948C31.4063 51.6123 31.8253 52.0323 32.3438 52.0323H56.715C57.2316 52.0323 57.6525 51.6123 57.6525 51.0948V33.2852C57.6525 32.7677 57.2316 32.3477 56.715 32.3477H32.3438Z" fill="#656D78"/>
<path d="M51.0859 58.5947H37.9609C37.4425 58.5947 37.0234 58.1757 37.0234 57.6572C37.0234 57.1388 37.4425 56.7197 37.9609 56.7197H51.0859C51.6044 56.7197 52.0234 57.1388 52.0234 57.6572C52.0234 58.1757 51.6044 58.5947 51.0859 58.5947Z" fill="#656D78"/>
<path d="M47.3419 44.5293H41.7188C41.2003 44.5293 40.7812 44.1102 40.7812 43.5918C40.7812 43.0734 41.2003 42.6543 41.7188 42.6543H47.3419C47.8603 42.6543 48.2794 43.0734 48.2794 43.5918C48.2794 44.1102 47.8603 44.5293 47.3419 44.5293Z" fill="#B078FF"/>
<path d="M47.3438 28.5914C46.8253 28.5914 46.4062 28.1723 46.4062 27.6539V17.3433C46.4062 16.8248 46.8253 16.4058 47.3438 16.4058C47.8622 16.4058 48.2812 16.8248 48.2812 17.3433V27.6539C48.2812 28.1723 47.8622 28.5914 47.3438 28.5914Z" fill="#B078FF"/>
<path d="M47.34 18.2808H37.9688C37.4503 18.2808 37.0312 17.8617 37.0312 17.3433C37.0312 16.8248 37.4503 16.4058 37.9688 16.4058H47.34C47.8584 16.4058 48.2775 16.8248 48.2775 17.3433C48.2775 17.8617 47.8584 18.2808 47.34 18.2808Z" fill="#B078FF"/>
<path d="M39.844 20.156C39.604 20.156 39.364 20.0641 39.1812 19.8813L37.3062 18.0063C36.9396 17.6397 36.9396 17.0472 37.3062 16.6807C37.6727 16.3141 38.2652 16.3141 38.6318 16.6807L40.5068 18.5557C40.8734 18.9222 40.8734 19.5147 40.5068 19.8813C40.324 20.0641 40.084 20.156 39.844 20.156Z" fill="#B078FF"/>
<path d="M37.969 18.281C37.729 18.281 37.489 18.1891 37.3062 18.0063C36.9396 17.6397 36.9396 17.0472 37.3062 16.6807L39.1812 14.8057C39.5477 14.4391 40.1402 14.4391 40.5068 14.8057C40.8734 15.1722 40.8734 15.7647 40.5068 16.1313L38.6318 18.0063C38.449 18.1891 38.209 18.281 37.969 18.281Z" fill="#B078FF"/>
<path d="M17.3438 40.7784C16.8253 40.7784 16.4062 40.3593 16.4062 39.8409V29.5303C16.4062 29.0118 16.8253 28.5928 17.3438 28.5928C17.8622 28.5928 18.2812 29.0118 18.2812 29.5303V39.8409C18.2812 40.3593 17.8622 40.7784 17.3438 40.7784Z" fill="#B078FF"/>
<path d="M26.7228 40.7783H17.3516C16.8331 40.7783 16.4141 40.3593 16.4141 39.8408C16.4141 39.3224 16.8331 38.9033 17.3516 38.9033H26.7228C27.2413 38.9033 27.6603 39.3224 27.6603 39.8408C27.6603 40.3593 27.2413 40.7783 26.7228 40.7783Z" fill="#B078FF"/>
<path d="M26.719 40.7786C26.479 40.7786 26.239 40.6867 26.0562 40.5039L24.1812 38.6289C23.8146 38.2623 23.8146 37.6698 24.1812 37.3032C24.5477 36.9367 25.1402 36.9367 25.5068 37.3032L27.3818 39.1782C27.7484 39.5448 27.7484 40.1373 27.3818 40.5039C27.199 40.6867 26.959 40.7786 26.719 40.7786Z" fill="#B078FF"/>
<path d="M24.844 42.6536C24.604 42.6536 24.364 42.5617 24.1812 42.3789C23.8146 42.0123 23.8146 41.4198 24.1812 41.0532L26.0562 39.1782C26.4227 38.8117 27.0152 38.8117 27.3818 39.1782C27.7484 39.5448 27.7484 40.1373 27.3818 40.5039L25.5068 42.3789C25.324 42.5617 25.084 42.6536 24.844 42.6536Z" fill="#B078FF"/>
<path d="M44.5525 52.501C44.0341 52.501 43.6094 52.0819 43.6094 51.5635C43.6094 51.045 44.0247 50.626 44.5412 50.626H44.5525C45.0691 50.626 45.49 51.045 45.49 51.5635C45.49 52.0819 45.0691 52.501 44.5525 52.501Z" fill="#545C66"/>
<path d="M44.5275 37.9697C44.0109 37.9697 43.1672 37.9697 42.6525 37.9697H36.0938C35.5772 37.9697 35.1562 38.3916 35.1562 38.9072V39.8438C35.1562 40.3594 35.5772 40.7813 36.0938 40.7813H45.465C45.9797 40.7813 49.6397 40.7813 50.1544 40.7813H52.9613C53.4778 40.7813 53.8988 40.3594 53.8988 39.8438V38.9072C53.8988 38.3916 53.4778 37.9697 52.9613 37.9697H44.5275Z" fill="#B078FF"/>
<path d="M42.6525 37.9697H36.0937C35.5772 37.9697 35.1562 38.3916 35.1562 38.9072V39.8438C35.1562 40.3594 35.5772 40.7813 36.0937 40.7813H45.465C45.7228 40.7813 46.0622 40.7813 46.4025 40.7813L43.59 37.9697C43.2497 37.9697 42.9094 37.9697 42.6525 37.9697Z" fill="#B078FF"/>
</svg>
