<svg width="60" height="60" viewBox="0 0 60 60" fill="none" xmlns="http://www.w3.org/2000/svg">
<path d="M33.75 43.5347C33.2316 43.5347 32.8125 43.1156 32.8125 42.5972V37.0312C32.8125 36.5128 33.2316 36.0938 33.75 36.0938C34.2684 36.0938 34.6875 36.5128 34.6875 37.0312V42.5972C34.6875 43.1147 34.2684 43.5347 33.75 43.5347Z" fill="#FFCE54"/>
<path d="M33.75 42.6C32.6259 42.0366 31.35 41.7188 30 41.7188C28.6509 41.7188 27.375 42.0375 26.25 42.6C23.4759 43.9781 21.5625 46.8459 21.5625 50.1562C21.5625 54.8156 25.3406 58.5938 30 58.5938C34.6603 58.5938 38.4375 54.8156 38.4375 50.1562C38.4375 46.8469 36.5259 43.9781 33.75 42.6Z" fill="#656D78"/>
<path d="M44.5312 33.2813H26.25H13.125C7.95 33.2813 3.75 29.0813 3.75 23.9063V27.6281C3.75 32.8041 7.95 37.0031 13.125 37.0031H26.25H33.75H44.5312C51.0094 37.0031 56.25 31.7531 56.25 25.2844V21.5625C56.25 28.0313 51.0094 33.2813 44.5312 33.2813Z" fill="#B078FF"/>
<path d="M44.5219 9.84375H44.5312C51.0094 9.84375 56.25 15.0844 56.25 21.5625C56.25 28.0312 51.0094 33.2812 44.5312 33.2812H26.25H13.125C7.95 33.2812 3.75 29.0812 3.75 23.9062C3.75 18.7313 7.95 14.5312 13.125 14.5312H14.0625L14.175 14.55C15.0844 6.61875 21.825 0.46875 30 0.46875C36.4603 0.46875 42.0281 4.3125 44.5219 9.84375Z" fill="#CEB3F4"/>
<path d="M26.25 43.5338C25.7316 43.5338 25.3125 43.1147 25.3125 42.5963V31.4072C25.3125 30.8888 25.7316 30.4697 26.25 30.4697C26.7684 30.4697 27.1875 30.8888 27.1875 31.4072V42.5963C27.1875 43.1138 26.7684 43.5338 26.25 43.5338Z" fill="#FFCE54"/>
<path d="M30 54.8438C29.4816 54.8438 29.0625 54.4247 29.0625 53.9062V52.0312C29.0625 51.5128 29.4816 51.0938 30 51.0938C30.5184 51.0938 30.9375 51.5128 30.9375 52.0312V53.9062C30.9375 54.4247 30.5184 54.8438 30 54.8438Z" fill="#545C66"/>
<path d="M26.25 32.3447C25.7316 32.3447 25.3125 31.9257 25.3125 31.4072C25.3125 28.8225 27.4163 26.7197 30.0019 26.7197C30.5203 26.7197 30.9394 27.1397 30.9394 27.6572C30.9394 28.1747 30.5203 28.5947 30.0019 28.5947C28.4503 28.5947 27.1875 29.8566 27.1875 31.4072C27.1875 31.9257 26.7684 32.3447 26.25 32.3447Z" fill="#FFCE54"/>
<path d="M30 59.5312C24.8306 59.5312 20.625 55.3256 20.625 50.1562C20.625 44.9869 24.8306 40.7812 30 40.7812C35.1694 40.7812 39.375 44.9869 39.375 50.1562C39.375 55.3256 35.1694 59.5312 30 59.5312ZM30 42.6562C25.8647 42.6562 22.5 46.0209 22.5 50.1562C22.5 54.2916 25.8647 57.6562 30 57.6562C34.1353 57.6562 37.5 54.2916 37.5 50.1562C37.5 46.0209 34.1353 42.6562 30 42.6562Z" fill="#656D78"/>
<path d="M30 47.8135C31.3012 47.8135 32.3438 48.856 32.3438 50.1572C32.3438 51.4463 31.3012 52.501 30 52.501C28.7109 52.501 27.6562 51.4463 27.6562 50.1572C27.6562 48.856 28.7109 47.8135 30 47.8135Z" fill="#545C66"/>
</svg>
